<?xml version="1.0" encoding="UTF-8"?>
<svg width="18px" height="18px" viewBox="0 0 18 18" version="1.1" xmlns="http://www.w3.org/2000/svg" xmlns:xlink="http://www.w3.org/1999/xlink">
    <title>测距</title>
    <defs>
        <rect id="path-1" x="0" y="0" width="18" height="18"></rect>
    </defs>
    <g id="z" stroke="none" stroke-width="1" fill="none" fill-rule="evenodd">
        <g id="联动指挥+移动设备备份" transform="translate(-415.000000, -369.000000)">
            <g id="编组-2" transform="translate(405.000000, 326.000000)">
                <g id="测距" transform="translate(19.000000, 52.000000) scale(-1, 1) translate(-19.000000, -52.000000) translate(10.000000, 43.000000)">
                    <mask id="mask-2" fill="white">
                        <use xlink:href="#path-1"></use>
                    </mask>
                    <g id="蒙版"></g>
                    <path d="M17.8298462,12.0800101 L5.91998992,0.170153769 C5.69311823,-0.0567179229 5.3246786,-0.0567179229 5.09780691,0.170153769 L0.170153769,5.09780691 C-0.0567179229,5.3246786 -0.0567179229,5.69311823 0.170153769,5.91998992 L12.0800101,17.8298462 C12.3068818,18.0567179 12.6753214,18.0567179 12.9021931,17.8298462 L17.8298462,12.9021931 C18.0567179,12.6753214 18.0567179,12.3068818 17.8298462,12.0800101 Z M4.5152004,4.01971263 L6.67864885,1.85626418 C6.70768843,1.8272246 6.75306277,1.8272246 6.78210234,1.85626418 L7.50083186,2.5749937 C7.52987144,2.60403327 7.52987144,2.64940761 7.50083186,2.67844719 L5.33738341,4.84189564 C5.30834384,4.87093522 5.2629695,4.87093522 5.23392992,4.84189564 L4.5152004,4.12316612 C4.4879758,4.09412654 4.4879758,4.04875221 4.5152004,4.01971263 L4.5152004,4.01971263 Z M6.56430552,4.83645072 L8.11066297,3.29009327 C8.13970255,3.26105369 8.18507688,3.26105369 8.21411646,3.29009327 L8.93284598,4.00882279 C8.96188556,4.03786236 8.96188556,4.0832367 8.93284598,4.11227628 L7.38648853,5.65863373 C7.35744895,5.6876733 7.31207462,5.6876733 7.28303504,5.65863373 L6.56430552,4.93990421 C6.53708092,4.91086463 6.53708092,4.86549029 6.56430552,4.83645072 Z M7.99813461,6.27027981 L9.54449206,4.72392236 C9.57353164,4.69488278 9.61890597,4.69488278 9.64794555,4.72392236 L10.3666751,5.44265188 C10.3957146,5.47169145 10.3957146,5.51706579 10.3666751,5.54610537 L8.82031762,7.09246282 C8.79127804,7.12150239 8.74590371,7.12150239 8.71686413,7.09246282 L7.99813461,6.3737333 C7.96909503,6.34469372 7.96909503,6.29931938 7.99813461,6.27027981 L7.99813461,6.27027981 Z M8.82757751,8.33208974 L10.991026,6.16864129 C11.0200655,6.13960171 11.0654399,6.13960171 11.0944795,6.16864129 L11.813209,6.88737081 C11.8422486,6.91641039 11.8422486,6.96178472 11.813209,6.9908243 L9.64976052,9.15427275 C9.62072095,9.18331233 9.57534661,9.18331233 9.54630703,9.15427275 L8.82757751,8.43554323 C8.80035291,8.40650366 8.80035291,8.36112932 8.82757751,8.33208974 L8.82757751,8.33208974 Z M11.5954122,9.97101084 L10.8766826,9.25228132 C10.8476431,9.22324174 10.8476431,9.17786741 10.8766826,9.14882783 L12.4230401,7.60247038 C12.4520797,7.5734308 12.497454,7.5734308 12.5264936,7.60247038 L13.2452231,8.3211999 C13.2742627,8.35023948 13.2742627,8.39561381 13.2452231,8.42465339 L11.6988656,9.97101084 C11.6698261,10.0000504 11.6244517,10.0000504 11.5954122,9.97101084 Z M12.3105117,10.5826569 L13.8568692,9.03629947 C13.8859087,9.00725989 13.9312831,9.00725989 13.9603227,9.03629947 L14.6790522,9.75502899 C14.7080918,9.78406857 14.7080918,9.8294429 14.6790522,9.85848248 L13.1326947,11.4048399 C13.1036552,11.4338795 13.0582808,11.4338795 13.0292412,11.4048399 L12.3105117,10.6861104 C12.2814721,10.6570708 12.2814721,10.6116965 12.3105117,10.5826569 Z M13.8586841,13.4666499 L13.1399546,12.7479203 C13.110915,12.7188808 13.110915,12.6735064 13.1399546,12.6444669 L15.3034031,10.4810184 C15.3324427,10.4519788 15.377817,10.4519788 15.4068566,10.4810184 L16.1255861,11.1997479 C16.1546257,11.2287875 16.1546257,11.2741618 16.1255861,11.3032014 L13.9621376,13.4666499 C13.9330981,13.4938745 13.8877237,13.4938745 13.8586841,13.4666499 Z" id="形状" fill="#535357" fill-rule="nonzero" mask="url(#mask-2)"></path>
                </g>
            </g>
        </g>
    </g>
</svg>