<?xml version="1.0" encoding="UTF-8"?>
<svg width="18px" height="18px" viewBox="0 0 18 18" version="1.1" xmlns="http://www.w3.org/2000/svg" xmlns:xlink="http://www.w3.org/1999/xlink">
    <title>侧面积</title>
    <defs>
        <rect id="path-1" x="0" y="0" width="18" height="18"></rect>
    </defs>
    <g id="z" stroke="none" stroke-width="1" fill="none" fill-rule="evenodd">
        <g id="联动指挥+移动设备备份" transform="translate(-415.000000, -338.000000)">
            <g id="编组-2" transform="translate(405.000000, 326.000000)">
                <g id="侧面积" transform="translate(10.000000, 12.000000)">
                    <mask id="mask-2" fill="white">
                        <use xlink:href="#path-1"></use>
                    </mask>
                    <g id="蒙版"></g>
                    <path d="M7.24345951,13.6122381 L7.24345951,15.4126994 L8.14369013,15.4126994 L8.14369013,13.6122381 L9.04392076,13.6122381 L9.04392076,15.4126994 L9.94415138,15.4126994 L9.94415138,13.6122381 L11.7446126,13.6122381 L11.7446126,15.4126994 L12.6448433,15.4126994 L12.6448433,13.6122381 L14.4453045,13.6122381 L14.4453045,15.4126994 L15.3455351,15.4126994 L15.3455351,13.6122381 L16.2457658,13.6122381 L16.2457658,15.4126994 L18.046227,15.4126994 L18.046227,17.2131606 L5.44299826,17.2131606 L5.44299826,13.6122381 L7.24345951,13.6122381 Z M4.50115312,13.5034594 L4.50115312,17.1043819 L0,17.1043819 L0,13.5034594 L4.50115312,13.5034594 Z M18.0046125,0 L18.0046125,12.6032287 L16.2041512,12.6032287 L16.2033837,1.8 L5.40138375,1.80046125 L5.40138375,0 L18.0046125,0 Z M1.80046125,0 L1.80046125,1.80046125 L3.6009225,1.80046125 L3.6009225,2.70069187 L1.80046125,2.70069187 L1.80046125,3.6009225 L3.6009225,3.6009225 L3.6009225,5.40138375 L1.80046125,5.40138375 L1.80046125,6.30161437 L3.6009225,6.30161437 L3.6009225,8.10207562 L1.80046125,8.10207562 L1.80046125,9.00230624 L3.6009225,9.00230624 L3.6009225,9.90253687 L1.80046125,9.90253687 L1.80046125,10.8027675 L3.6009225,10.8027675 L3.6009225,12.6032287 L0,12.6032287 L0,0 L1.80046125,0 Z" id="形状结合" fill="#535357" mask="url(#mask-2)"></path>
                </g>
            </g>
        </g>
    </g>
</svg>