<?xml version="1.0" encoding="UTF-8"?>
<svg width="18px" height="18px" viewBox="0 0 18 18" version="1.1" xmlns="http://www.w3.org/2000/svg" xmlns:xlink="http://www.w3.org/1999/xlink">
    <title>404定位</title>
    <g id="z" stroke="none" stroke-width="1" fill="none" fill-rule="evenodd">
        <g id="联动指挥+移动设备备份" transform="translate(-415.000000, -259.000000)" fill="#535357" fill-rule="nonzero">
            <g id="组-59" transform="translate(405.000000, 214.000000)">
                <g id="404定位" transform="translate(10.000000, 45.000000)">
                    <path d="M18,8.35714286 L16.6821429,8.35714286 C16.3767857,4.6125 13.3875,1.62321429 9.64285714,1.31785714 L9.64285714,0 L8.35714286,0 L8.35714286,1.31785714 C4.6125,1.62321429 1.62321429,4.6125 1.31785714,8.35714286 L0,8.35714286 L0,9.64285714 L1.31785714,9.64285714 C1.62321429,13.3875 4.6125,16.3767857 8.35714286,16.6821429 L8.35714286,18 L9.64285714,18 L9.64285714,16.6821429 C13.3875,16.3767857 16.3767857,13.3875 16.6821429,9.64285714 L18,9.64285714 L18,8.35714286 Z M9,15.4285714 C5.44821429,15.4285714 2.57142857,12.5517857 2.57142857,9 C2.57142857,5.44821429 5.44821429,2.57142857 9,2.57142857 C12.5517857,2.57142857 15.4285714,5.44821429 15.4285714,9 C15.4285714,12.5517857 12.5517857,15.4285714 9,15.4285714 Z M11.5714286,9 C11.5714286,10.4142857 10.4142857,11.5714286 9,11.5714286 C7.58571429,11.5714286 6.42857143,10.4142857 6.42857143,9 C6.42857143,7.58571429 7.58571429,6.42857143 9,6.42857143 C10.4142857,6.42857143 11.5714286,7.58571429 11.5714286,9 Z" id="形状"></path>
                </g>
            </g>
        </g>
    </g>
</svg>