<?xml version="1.0" encoding="UTF-8"?>
<svg width="24px" height="20px" viewBox="0 0 24 20" version="1.1" xmlns="http://www.w3.org/2000/svg" xmlns:xlink="http://www.w3.org/1999/xlink">
    <title>楼上</title>
    <g id="页面-1" stroke="none" stroke-width="1" fill="none" fill-rule="evenodd">
        <g id="一体化采集" transform="translate(-1027.000000, -72.000000)" fill="#388CFF" fill-rule="nonzero">
            <g id="楼上" transform="translate(1027.000000, 72.000000)">
                <path d="M7,4 L11,4 L11,6.33333333 L7,6.33333333 L7,4 Z M7,8.66666666 L11,8.66666666 L11,11 L7,11 L7,8.66666666 Z" id="形状"></path>
                <path d="M21.8181818,17.7777778 L21.8181818,7.77777779 C21.8181818,7.11111112 21.3818182,6.66666667 20.7272727,6.66666667 L17.4545454,6.66666667 L17.4545454,8.88888888 L19.6363637,8.88888888 L19.6363637,17.7777778 L15.2727273,17.7777778 L15.2727273,1.11111112 C15.2727273,0.444444453 14.8363636,0 14.1818182,0 L3.27272728,0 C2.61818182,0 2.18181817,0.444444453 2.18181817,1.11111112 L2.18181817,17.7777778 L0,17.7777778 L0,20 L24,20 L24,17.7777778 L21.8181818,17.7777778 Z M13.0909091,17.7777778 L4.36363635,17.7777778 L4.36363635,2.22222221 L13.0909091,2.22222221 L13.0909091,17.7777778 L13.0909091,17.7777778 Z" id="形状"></path>
            </g>
        </g>
    </g>
</svg>