<?xml version="1.0" encoding="UTF-8"?>
<svg width="18px" height="20px" viewBox="0 0 18 20" version="1.1" xmlns="http://www.w3.org/2000/svg" xmlns:xlink="http://www.w3.org/1999/xlink">
    <title>图层</title>
    <g id="页面-1" stroke="none" stroke-width="1" fill="none" fill-rule="evenodd">
        <g id="一体化采集" transform="translate(-489.000000, -470.000000)" fill="#FFFFFF" fill-rule="nonzero">
            <g id="编组-2" transform="translate(480.000000, 361.000000)">
                <g id="图层" transform="translate(18.000000, 118.818182) scale(-1, 1) translate(-18.000000, -118.818182) translate(9.000000, 109.000000)">
                    <path d="M17.1194018,8.62845755 L17.407848,8.80821708 C17.9990434,9.17719717 18.1778324,9.95063621 17.8059514,10.5395852 C17.7058295,10.6980574 17.5699499,10.8328771 17.407848,10.9345831 L9.67701413,15.7526116 C9.26460763,16.0080594 8.74254392,16.0080594 8.33252128,15.7526116 L0.592152024,10.9251221 C0.000956589538,10.556142 -0.177832352,9.78270296 0.194048647,9.19375397 C0.294170454,9.03528175 0.43005005,8.9004621 0.592152024,8.79875605 L0.880598184,8.61899652 L8.33013743,13.2667265 C8.74254392,13.5221743 9.26460763,13.5221743 9.67463027,13.2667265 L17.117018,8.6308228 L17.1194018,8.62845755 Z M17.1194018,12.3206237 L17.407848,12.5003833 C17.9990434,12.8693634 18.1778324,13.6428024 17.8059514,14.2317514 C17.7058295,14.3902236 17.5699499,14.5250433 17.407848,14.6267493 L9.67701413,19.4447778 C9.26460763,19.7002256 8.74254392,19.7002256 8.33252128,19.4447778 L0.592152024,14.6172883 C0.000956589538,14.2483082 -0.177832352,13.4748691 0.194048647,12.8859202 C0.294170454,12.7274479 0.43005005,12.5926283 0.592152024,12.4909222 L0.880598184,12.3111627 L8.33013743,16.9565275 C8.74254392,17.2119752 9.26460763,17.2119752 9.67463027,16.9565275 L17.117018,12.3206237 L17.1194018,12.3206237 Z M9.66747872,0.196316331 L17.4054641,5.02380587 C17.9966596,5.39278597 18.1754485,6.16622501 17.8035675,6.755174 C17.7034457,6.91364622 17.5675661,7.04846587 17.4054641,7.15017192 L9.67701413,11.9658352 C9.26460763,12.2212829 8.74254392,12.2212829 8.33252128,11.9658352 L0.592152024,7.13598038 C0.000956589538,6.76700028 -0.177832352,5.99356124 0.194048647,5.40461225 C0.294170454,5.24614003 0.43005005,5.11132038 0.592152024,5.00961433 L8.32536973,0.191585817 C8.73777622,-0.0638619391 9.25983993,-0.0638619391 9.66986257,0.191585817 L9.66747872,0.196316331 Z" id="形状"></path>
                </g>
            </g>
        </g>
    </g>
</svg>