<?xml version="1.0" encoding="UTF-8"?>
<svg width="129px" height="118px" viewBox="0 0 129 118" version="1.1" xmlns="http://www.w3.org/2000/svg" xmlns:xlink="http://www.w3.org/1999/xlink">
    <title>用户头像-男</title>
    <g id="页面-1" stroke="none" stroke-width="1" fill="none" fill-rule="evenodd">
        <g id="网格-管理" transform="translate(-451.000000, -129.000000)">
            <g id="用户头像-男" transform="translate(451.000000, 129.000000)">
                <polygon id="路径" fill="#FFCEAA" fill-rule="nonzero" points="51 61 74 61 74 94 51 94"></polygon>
                <path d="M51,60.3027141 L51.0991379,68.6734864 C53.9543103,72.4279749 60.5635058,75 68.2301724,75 C70.1732058,74.9156218 72.1045292,74.6517526 74,74.211691 L74,59 L52.3152299,59 C51.840179,59.3947552 51.400101,59.8306454 51,60.3027141 L51,60.3027141 Z" id="路径" fill="#FFB888" fill-rule="nonzero"></path>
                <path d="M73.5305979,74.0267924 L73.5305979,75.5673618 C73.5305979,83.8328513 69.7325969,90.4907901 62.0832895,90.4907901 C54.4339821,90.4907901 50.4694021,83.7926626 50.4694021,75.5405694 L50.4694021,74 C26.3687532,75.4333993 5,94.2752321 5,117.095753 L5,118 L119,118 L119,117.095753 C119,94.3422134 97.5379625,75.5539655 73.5305979,74.0267924 Z" id="路径" fill="#FFFFFF" fill-rule="nonzero"></path>
                <path d="M38.9402525,37 C36.8070252,37.2251461 34.6872994,38.5282651 35.0383368,42.997076 C35.0383368,42.997076 34.7278037,49.3079922 40.2633935,51 C39.2799387,47.5840011 38.7821528,44.0440132 38.7849859,40.4863547 C38.7849859,39.3060429 38.8389916,38.1461988 38.9402525,37 L38.9402525,37 Z M86.0062663,37.0682261 C86.13453,38.3645223 86.2087878,39.6881091 86.2087878,41.0389863 C86.2150627,44.4017879 85.7838214,47.750827 84.9261512,51 C90.2524685,49.2192983 89.9621877,43.0584796 89.9621877,43.0584794 C90.3132251,38.5623781 88.1597457,37.2660817 86.0062663,37.0682261 Z" id="形状" fill="#FFB888" fill-rule="nonzero"></path>
                <path d="M85.7995287,36.6810631 C84.2767249,21.0863787 73.7773931,9 62.5634122,9 C51.2492468,9 40.5228303,20.9136212 39.1469636,36.6810631 C39.0534581,37.7973421 39,38.9269103 39,40.0764119 C38.9959235,43.539783 39.4701105,46.9872964 40.4092879,50.3222591 C43.8489545,62.5149502 53.1393938,71 62.7370653,71 C72.4683163,71 81.5650654,62.5946844 84.7776472,50.2624585 C85.5967422,47.0911453 86.0074484,43.8291393 86,40.5548172 C85.9909657,39.2612464 85.9241098,37.9687136 85.7995287,36.6810631 L85.7995287,36.6810631 Z" id="路径" fill="#FFCEAA" fill-rule="nonzero"></path>
                <path d="M47,34.9760074 C47.659238,34.0310758 48.4971807,33.2855953 49.445141,32.8006737 C50.4020367,32.2861802 51.4382386,32.0138469 52.4881326,32.0009186 C53.5473807,31.9819926 54.5958877,32.2557469 55.5512763,32.8006737 C56.4842863,33.2928291 57.307792,34.0377445 57.9561129,34.9760074 C57.4523063,34.8160564 57.015674,34.5601348 56.5454545,34.4001837 C56.075235,34.2402325 55.6453201,34.0482914 55.2019705,33.952321 C54.3221156,33.7022768 53.4194715,33.5840642 52.5150023,33.6004288 C51.6108088,33.6142225 50.7102862,33.7401982 49.8280341,33.9763136 C48.8690693,34.2403662 47.9246167,34.5742248 47,34.9760074 L47,34.9760074 Z M66.0170174,34.9760074 C66.6762554,34.0310757 67.5141981,33.2855952 68.4621585,32.8006737 C69.4214309,32.2862071 70.4598167,32.013901 71.5118674,32.0009186 C72.5689032,31.9826499 73.6151034,32.2564023 74.5682937,32.8006737 C75.5130989,33.2954161 76.3463149,34.049008 77,35 C76.4961934,34.840049 76.0595611,34.5841274 75.596059,34.4241764 C75.1325569,34.2642255 74.6892072,34.0722842 74.252575,33.9763136 C73.3726007,33.7270889 72.4700428,33.6088876 71.5656068,33.6244214 C70.6479539,33.6353944 69.7338226,33.761384 68.8383341,34.0003062 C67.8820803,34.2568177 66.9398855,34.5826587 66.0170174,34.9760074 L66.0170174,34.9760074 Z" id="形状" fill="#54393A" fill-rule="nonzero"></path>
                <path d="M62.5060569,51.9977654 C61.9480036,52.0202376 61.3950901,51.8728606 60.9076945,51.571728 C60.035627,50.8909272 59.7493517,49.60523 60.2360091,48.5551076 C61.380362,45.9026807 61.1689055,43.2571253 60.9512297,40.4535238 L60.9512297,40.0549725 L61.5731605,40 L61.5731605,40.3916796 C61.8032749,43.2914832 62.0209507,46.026369 60.8081855,48.8505853 C60.4580931,49.5829038 60.6397658,50.4876251 61.2373178,50.9876442 C62.1080211,51.571728 63.693945,51.2556356 64.7823242,50.8089834 L65,51.4549112 C64.2015213,51.7867844 63.3587992,51.9702189 62.5060569,51.9977654 Z" id="路径" fill="#E6A996" fill-rule="nonzero"></path>
                <path d="M51,42.5 C51,44.4329966 51.6715729,46 52.5,46 C53.3284271,46 54,44.4329966 54,42.5 C54,40.5670034 53.3284271,39 52.5,39 C51.6715729,39 51,40.5670034 51,42.5 L51,42.5 Z" id="路径" fill="#54393A" fill-rule="nonzero"></path>
                <path d="M52,40.5 C52,40.6786328 52.0952994,40.8436963 52.25,40.9330127 C52.4047005,41.0223291 52.5952995,41.0223291 52.75,40.9330127 C52.9047006,40.8436963 53,40.6786328 53,40.5 C53,40.3213672 52.9047006,40.1563037 52.75,40.0669873 C52.5952995,39.9776709 52.4047005,39.9776709 52.25,40.0669873 C52.0952994,40.1563037 52,40.3213672 52,40.5 Z" id="路径" fill="#FFFFFF" fill-rule="nonzero"></path>
                <path d="M70,42.5 C70,44.4329966 70.6715729,46 71.5,46 C72.3284271,46 73,44.4329966 73,42.5 C73,40.5670034 72.3284271,39 71.5,39 C70.6715729,39 70,40.5670034 70,42.5 Z" id="路径" fill="#54393A" fill-rule="nonzero"></path>
                <path d="M71,40.5 C70.9998816,40.6785933 71.0951552,40.843671 71.2499043,40.9330019 C71.4046535,41.0223327 71.5953465,41.0223327 71.7500957,40.9330019 C71.9048448,40.843671 72.0001184,40.6785933 72,40.5 C72.0001184,40.3214067 71.9048448,40.156329 71.7500957,40.0669981 C71.5953465,39.9776673 71.4046535,39.9776673 71.2499043,40.0669981 C71.0951552,40.156329 70.9998816,40.3214067 71,40.5 L71,40.5 Z" id="路径" fill="#FFFFFF" fill-rule="nonzero"></path>
                <path d="M61.3609374,60.997853 C60.2012165,61.0237422 59.0504831,60.8151952 58,60.3887515 L58.3374999,59.8527421 C58.4851562,59.9197433 61.9585937,61.4851342 66.6273438,59 L67,59.5238273 C65.3155305,60.4606519 63.3624356,60.9711821 61.3609374,60.997853 L61.3609374,60.997853 Z" id="路径" fill="#E6A996" fill-rule="nonzero"></path>
                <path d="M59.9324185,24.2416397 C57.5887756,24.2416397 55.2451328,24.2960247 52.9215782,24.4319875 C51.5823538,24.5135651 50.1895603,24.6155371 48.8302474,24.7514997 C46.5334774,24.9826363 44.544729,25.4313131 42.5091079,23.94932 C40.8313145,22.6125972 39.5422625,20.8386999 38.7793677,18.8167295 C37.4663873,15.7466706 36.8661356,12.4112736 37.0249836,9.06820662 C37.0832953,7.49919525 37.5931091,5.98190462 38.4914343,4.70380524 C40.500271,1.98455199 44.3170608,1.34552752 47.4240618,0.835667473 C50.0344247,0.406732025 52.6691555,0.1478737 55.312094,0.060680218 C61.0764486,-0.20985312 66.8473723,0.425332231 72.4206869,1.94376311 C79.3176931,3.9152217 86.0874729,8.00089972 89.0136782,14.9417936 C89.3805917,15.8034079 89.6827793,16.6919663 89.9176548,17.5998636 C90.1661005,18.5940036 89.842442,19.645489 89.0806395,20.3191169 L89.0337667,20.3599058 C86.9583606,22.2320423 84.3703333,23.4177165 81.614463,23.7589724 C74.4362197,24.608739 67.1709268,24.2280435 59.9324185,24.2416397 L59.9324185,24.2416397 Z" id="路径" fill="#39334C" fill-rule="nonzero"></path>
                <path d="M39.041982,45 L38.8870813,44.4643743 C37.8364501,40.6065133 31.8289953,16.7745598 41.0758961,9.20799931 C41.2781851,9.03982449 41.5431552,8.96859284 41.801794,9.01285691 C42.0604328,9.05712097 42.2871365,9.21249885 42.4228592,9.43852178 L47.777037,18.1441343 C47.9830708,18.5013117 47.9280373,18.9528491 47.6423407,19.249286 L43.7024739,23.4529308 C43.5114632,23.6688458 43.4339409,23.963396 43.4936947,24.2461993 L43.7900266,27.8938781 C43.8779814,28.8032283 43.8073244,29.7210577 43.5812473,30.6059069 C43.229541,32.0950233 42.2440474,33.3525303 40.8873213,34.0434034 C40.4933626,34.1165054 40.1944226,34.4423033 40.1532266,34.843452 L39.041982,45 Z M85.9701721,45 C85.9701721,45 86.0240506,44.810158 86.1116033,44.4643743 C87.1622345,40.6065133 93.1696893,16.7745598 83.9295233,9.20799931 C83.7255981,9.04421049 83.4619735,8.97573368 83.2047892,9.01974881 C82.9476049,9.06376394 82.7212669,9.21609415 82.5825602,9.43852178 L77.2283824,18.1441343 C77.0122535,18.4958171 77.0593132,18.9500684 77.3428743,19.249286 L81.2827411,23.4529308 C81.479837,23.6630134 81.564983,23.9554638 81.5117248,24.2394191 L81.2153929,27.887098 C81.1296345,28.7968432 81.2025711,29.714678 81.430907,30.5991267 C81.7849652,32.0973357 82.7852886,33.3580074 84.158507,34.0366234 C84.5513365,34.1117816 84.8492802,34.4364936 84.8926018,34.8366719 L85.9701721,45 Z" id="形状" fill="#39334C" fill-rule="nonzero"></path>
                <path d="M56.6471894,94.8410476 L56.6471894,118 L5,118 L5,117.102314 C5,94.2716201 26.5499007,75.4336177 50.8548557,74 L50.8548557,75.9226553 L46.6752367,75.9226553 L46.6752367,94.8410476 L56.6471894,94.8410476 Z M120,117.102314 L120,118 L68.3528106,118 L68.3528106,94.8410476 L79.8904405,94.8410476 L79.8904405,75.9226553 L74.1384247,75.9226553 L74.1384247,75.5676006 L74.1384247,74.0267966 C98.3560243,75.5542023 120,94.3386115 120,117.102314 L120,117.102314 Z" id="形状" fill="#8BC8C8" fill-rule="nonzero"></path>
                <path d="M50.3121924,74 C46.1272701,74.20677 41.9879716,74.9512873 38,76.2145394 L44.5071017,102 L56.1307833,94.5806299 C56.1307833,94.5806299 50.6699479,87.0087615 50.3121924,74 L50.3121924,74 Z M73.7080579,74.0265213 C77.8864917,74.2598875 82.0173508,75.0174802 86,76.280843 L79.5131486,102 L67.889467,94.5806299 C67.889467,94.5806299 73.3503024,87.0352829 73.7080579,74.0265213 L73.7080579,74.0265213 Z" id="形状" fill="#CCDBDA" fill-rule="nonzero"></path>
                <path d="M52,104 C52,104.552285 52.4477153,105 53,105 C53.5522847,105 54,104.552285 54,104 C54,103.447715 53.5522847,103 53,103 C52.4477153,103 52,103.447715 52,104 L52,104 Z" id="路径" fill="#FFFFFF" fill-rule="nonzero"></path>
                <path d="M52,113 C52,113.552285 52.4477153,114 53,114 C53.5522847,114 54,113.552285 54,113 C54,112.447715 53.5522847,112 53,112 C52.4477153,112 52,112.447715 52,113 L52,113 Z" id="路径" fill="#FFFFFF" fill-rule="nonzero"></path>
                <rect id="矩形" fill="#8BC8C8" x="0" y="117" width="129" height="1"></rect>
            </g>
        </g>
    </g>
</svg>