<?xml version="1.0" encoding="UTF-8"?>
<svg width="258px" height="304px" viewBox="0 0 258 304" version="1.1" xmlns="http://www.w3.org/2000/svg" xmlns:xlink="http://www.w3.org/1999/xlink">
    <title>房屋信息无图片页面</title>
    <defs>
        <rect id="path-1" x="0" y="0" width="256" height="302"></rect>
        <linearGradient x1="144.588078%" y1="67.2039063%" x2="29.5159577%" y2="67.6269532%" id="linearGradient-3">
            <stop stop-color="#E0E5EF" stop-opacity="0" offset="0%"></stop>
            <stop stop-color="#E0E5EF" offset="100%"></stop>
        </linearGradient>
        <linearGradient x1="144.588078%" y1="68.0809078%" x2="29.5159577%" y2="68.5255203%" id="linearGradient-4">
            <stop stop-color="#E0E5EF" stop-opacity="0" offset="0%"></stop>
            <stop stop-color="#E0E5EF" offset="100%"></stop>
        </linearGradient>
        <linearGradient x1="93.5116022%" y1="98.8%" x2="40.5771053%" y2="100%" id="linearGradient-5">
            <stop stop-color="#E0E5EF" stop-opacity="0" offset="0%"></stop>
            <stop stop-color="#E0E5EF" offset="100%"></stop>
        </linearGradient>
        <linearGradient x1="92.6214826%" y1="98.8%" x2="40.76987%" y2="100%" id="linearGradient-6">
            <stop stop-color="#E0E5EF" stop-opacity="0" offset="0%"></stop>
            <stop stop-color="#E0E5EF" offset="100%"></stop>
        </linearGradient>
        <linearGradient x1="50%" y1="46.7331682%" x2="-31.2147379%" y2="31.6400994%" id="linearGradient-7">
            <stop stop-color="#E8EBF1" stop-opacity="0.237740043" offset="0%"></stop>
            <stop stop-color="#A2ABB9" offset="100%"></stop>
        </linearGradient>
        <linearGradient x1="164.331217%" y1="114.410408%" x2="-54.5683992%" y2="-21.6391421%" id="linearGradient-8">
            <stop stop-color="#A2ABB9" offset="0%"></stop>
            <stop stop-color="#E7EAF0" offset="100%"></stop>
        </linearGradient>
        <linearGradient x1="115.74563%" y1="115.51802%" x2="60.6993306%" y2="-9.66558259%" id="linearGradient-9">
            <stop stop-color="#A2ABB9" offset="0%"></stop>
            <stop stop-color="#E7EAF0" offset="100%"></stop>
        </linearGradient>
        <linearGradient x1="93.5495482%" y1="83.4020309%" x2="29.5503218%" y2="37.8553714%" id="linearGradient-10">
            <stop stop-color="#A2ABB9" offset="0%"></stop>
            <stop stop-color="#E7EAF0" offset="100%"></stop>
        </linearGradient>
        <linearGradient x1="125.158564%" y1="114.410408%" x2="-18.7407256%" y2="-21.6391421%" id="linearGradient-11">
            <stop stop-color="#A2ABB9" offset="0%"></stop>
            <stop stop-color="#E7EAF0" offset="100%"></stop>
        </linearGradient>
        <linearGradient x1="88.9059795%" y1="123.200794%" x2="38.3118552%" y2="0%" id="linearGradient-12">
            <stop stop-color="#A2ABB9" offset="0%"></stop>
            <stop stop-color="#E7EAF0" offset="100%"></stop>
        </linearGradient>
        <linearGradient x1="109.657696%" y1="128.48952%" x2="50%" y2="-7.10542736e-13%" id="linearGradient-13">
            <stop stop-color="#A2ABB9" offset="0%"></stop>
            <stop stop-color="#E7EAF0" offset="100%"></stop>
        </linearGradient>
        <linearGradient x1="50.1910822%" y1="161.318871%" x2="50%" y2="14.8017019%" id="linearGradient-14">
            <stop stop-color="#A2ABB9" offset="0%"></stop>
            <stop stop-color="#E7EAF0" offset="100%"></stop>
        </linearGradient>
        <linearGradient x1="50.2898467%" y1="161.318871%" x2="50%" y2="14.8017019%" id="linearGradient-15">
            <stop stop-color="#A2ABB9" offset="0%"></stop>
            <stop stop-color="#E7EAF0" offset="100%"></stop>
        </linearGradient>
    </defs>
    <g id="页面-1" stroke="none" stroke-width="1" fill="none" fill-rule="evenodd">
        <g id="基础业务-房屋信息" transform="translate(-1586.000000, -164.000000)">
            <g id="房屋信息无图片页面" transform="translate(1587.000000, 165.000000)">
                <mask id="mask-2" fill="white">
                    <use xlink:href="#path-1"></use>
                </mask>
                <rect stroke="#E0E4EA" x="-0.5" y="-0.5" width="257" height="303"></rect>
                <g id="加载失败-(1)" mask="url(#mask-2)">
                    <g transform="translate(33.000000, 70.000000)">
                        <path d="M97.3634617,0 C115.878827,0 132.951273,6.10567337 146.631926,16.390923 L141.128913,16.3914027 C138.524123,16.3914027 136.412523,18.511466 136.412523,21.1266968 L136.412523,21.1266968 L136.412523,21.4909502 C136.412523,24.106181 138.524123,26.2262443 141.128913,26.2262443 L141.128913,26.2262443 L157.51953,26.2259682 C160.629005,29.5904581 163.453367,33.2167125 165.954833,37.0673902 L173.736195,37.067442 C176.541354,37.067442 178.815385,39.350587 178.815385,42.1669895 L178.815385,42.4516153 C178.815385,44.7783982 177.263288,46.7412166 175.141877,47.353351 L167.976059,47.3529412 C164.770163,47.3529412 162.171271,49.96225 162.171271,53.1809955 L162.171271,53.1809955 L162.171271,55.0022624 C162.171271,58.221008 164.770163,60.8303167 167.976059,60.8303167 L167.976059,60.8303167 L192.610638,60.8303018 C195.132412,61.4647015 197,63.7553116 197,66.4838682 L197,66.8091548 C197,70.0279003 194.401108,72.6372091 191.195212,72.6372091 L178.431758,72.6368019 C178.68553,75.2239801 178.815385,77.8470027 178.815385,80.5 C178.815385,124.958922 142.348116,161 97.3634617,161 C61.3817701,161 30.849379,137.941443 20.069432,105.960313 L17.0125434,105.960465 C15.7767823,105.960465 14.775,104.954668 14.775,103.713954 C14.775,102.767381 15.3580931,101.957543 16.1833244,101.62676 L19.9539595,101.626697 C22.55875,101.626697 24.6703499,99.5066335 24.6703499,96.8914027 L24.6703499,96.8914027 L24.6703499,96.5271493 C24.6703499,93.9119185 22.55875,91.7918552 19.9539595,91.7918552 L19.9539595,91.7918552 L16.7065693,91.7919459 C16.7038061,91.7724915 16.70105,91.7530353 16.6983009,91.7335765 L8.65423895,91.732558 C6.59463715,91.732558 4.925,90.0562289 4.925,87.9883723 C4.925,85.9205152 6.59463715,84.2441861 8.65423895,84.2441861 L15.9981091,84.2447711 C15.940605,83.0036378 15.9115385,81.7551738 15.9115385,80.5 C15.9115385,68.6144023 18.5178566,57.3304284 23.1964622,47.1758681 L10.1583794,47.1767442 C4.54806136,47.1767442 0,42.6104538 0,36.9776491 L0,36.4083972 C0,30.9727407 4.23526843,26.5302491 9.57334924,26.2259333 L55.5082873,26.2262443 C57.5119721,26.2262443 59.1362799,24.5954262 59.1362799,22.5837104 C59.1362799,20.5719946 57.5119721,18.9411765 55.5082873,18.9411765 L55.5082873,18.9411765 L44.8751561,18.9408162 C44.9636769,18.867017 45.0523592,18.7934014 45.1412022,18.7199694 L39.8528014,18.7209303 C36.0458,18.7209303 32.9596154,15.622376 32.9596154,11.8001158 L32.9596154,11.4138378 C32.9596154,7.59157745 36.0458,4.49302325 39.8528014,4.49302325 L70.4666903,4.49239127 C78.8869974,1.58215323 87.9382789,0 97.3634617,0 Z" id="背景" fill="#F3F3FA" fill-rule="nonzero" opacity="0.60159418"></path>
                        <path d="M54.6667927,49.4999322 L52.0682125,49.4999322 C52.0682125,44.2532418 47.8514179,40 42.649687,40 C37.4479564,40 33.2310271,44.2532418 33.2310271,49.4999322 L31.3329386,49.4999322 C28.9398949,49.4999322 27,51.6267564 27,54.2501018 C27,56.8734469 28.9400293,59 31.3329386,59 L54.666927,59 C57.0602394,59 59,56.8733114 59,54.2501018 C59,51.6266209 57.0601051,49.4999322 54.6667927,49.4999322 Z" id="路径" fill="url(#linearGradient-3)" fill-rule="nonzero"></path>
                        <path d="M122.885669,20.9998836 L121.017969,20.9998836 C121.017969,17.1337699 117.987197,14 114.248428,14 C110.509434,14 107.478661,17.1337699 107.478661,20.9998836 L106.114331,20.9998836 C104.39443,20.9998836 103,22.5672333 103,24.5001739 C103,26.4331148 104.39443,28 106.114331,28 L122.885669,28 C124.605795,28 126,26.4331148 126,24.5001739 C126,22.5672333 124.605795,20.9998836 122.885669,20.9998836 Z" id="路径" fill="url(#linearGradient-4)" fill-rule="nonzero"></path>
                        <path d="M92.3344828,123 C114.487589,123 134.436615,124.8721 148.380964,127.862327 C162.019046,127.956363 173,132.188559 173,137.395652 C173,141.522383 166.102978,145.036791 156.45151,146.364218 C154.148026,147.070272 151.555112,147.735785 148.70703,148.354266 C148.78117,148.748287 148.818391,149.146377 148.818391,149.547826 C148.818391,158.634111 129.750867,166 106.229885,166 C85.0684466,166 67.5117725,160.037826 64.202279,152.224702 C35.9658369,150.003375 16,144.535984 16,138.143478 C16,129.779966 50.1761119,123 92.3344828,123 Z" id="形状结合" fill="#E7EAF0" fill-rule="nonzero"></path>
                        <g id="树备份" stroke-width="1" fill="none" fill-rule="evenodd" transform="translate(22.000000, 107.000000)">
                            <path d="M135.18659,11.1155379 C135.216929,11.2353012 135.254854,11.3625498 135.300364,11.4972836 L135.391383,11.8565737 C135.421723,11.9763371 135.436893,12.0736448 135.436893,12.1484969 C135.436893,12.5676687 135.323119,12.9381867 135.09557,13.2600507 C134.868022,13.5819148 134.572209,13.8176989 134.208131,13.9674031 C134.071602,13.9823735 133.927488,13.9898587 133.775789,13.9898587 C133.65443,14.0048292 133.517901,14.0123144 133.366201,14.0123144 L132.933859,14.0123144 L129.384102,14.0572256 L129.384102,17.8073162 C129.384102,18.3612218 129.395479,18.91887 129.418234,19.4802608 C129.440989,20.0416516 129.467537,20.5469033 129.497876,20.9960159 C129.528216,21.5349511 129.566141,22.0514306 129.61165,22.5454545 L126.334951,22.5454545 L126.403216,21.6696849 C126.418386,21.3253652 126.433556,20.8575396 126.448726,20.2662079 C126.463896,19.6748763 126.471481,18.8851865 126.471481,17.8971387 L126.471481,14.461427 C126.213592,14.6859833 125.925364,14.7982615 125.606796,14.7982615 C125.348908,14.7982615 125.125152,14.7383798 124.935528,14.6186164 C124.745904,14.4988531 124.590412,14.3341784 124.469053,14.1245925 L121.897755,13.9898587 C121.397148,13.8700954 120.979976,13.6193408 120.646238,13.2375951 C120.3125,12.8558493 120.145631,12.4029941 120.145631,11.8790293 C120.145631,11.7892068 120.153216,11.7068695 120.168386,11.6320174 C120.183556,11.5571653 120.206311,11.4823132 120.23665,11.4074611 L120.805522,10.1050344 C120.835862,9.77568513 120.930674,9.46879149 121.089958,9.18435349 C121.249242,8.89991549 121.450243,8.65290353 121.692961,8.44331764 L125.265473,1.90872872 L125.288228,1.90872872 C125.576456,1.38476397 125.917779,0.935651335 126.312197,0.5613908 C126.706614,0.187130267 127.214806,0 127.836772,0 C128.382888,0 128.872118,0.142219002 129.30446,0.426657007 C129.736802,0.711095011 130.059163,1.08535555 130.271541,1.54943861 L133.138653,7.09597971 C133.65443,7.27562476 134.079187,7.59000364 134.412925,8.03911625 C134.746663,8.48822887 134.913532,9.00470844 134.913532,9.58855487 C134.913532,9.8280816 134.875607,10.0825788 134.799757,10.3520464 L135.18659,11.1155379 Z" id="路径" fill="url(#linearGradient-5)" fill-rule="nonzero"></path>
                            <path d="M149.749697,18.3882651 C149.780036,18.5080285 149.817961,18.6352771 149.863471,18.7700109 L149.95449,19.129301 C149.98483,19.2490644 150,19.3463721 150,19.4212242 C150,19.840396 149.886226,20.2109139 149.658677,20.532778 C149.431129,20.854642 149.135316,21.0904262 148.771238,21.2401304 C148.634709,21.2551008 148.490595,21.262586 148.338896,21.262586 C148.217537,21.2775564 148.081007,21.2850416 147.929308,21.2850416 L147.496966,21.2850416 L143.947209,21.3299529 L143.947209,25.0800435 C143.947209,25.6339491 143.958586,26.1915972 143.981341,26.752988 C144.004096,27.3143788 144.030643,27.8196306 144.060983,28.2687432 C144.091323,28.8076784 144.129248,29.3241579 144.174757,29.8181818 L140.898058,29.8181818 L140.966323,28.9424122 C140.981493,28.5980925 140.996662,28.1302668 141.011833,27.5389352 C141.027003,26.9476035 141.034587,26.1579138 141.034587,25.169866 L141.034587,21.7341543 C140.776699,21.9587106 140.488471,22.0709888 140.169903,22.0709888 C139.912015,22.0709888 139.688258,22.0111071 139.498635,21.8913437 C139.309011,21.7715803 139.153519,21.6069057 139.03216,21.3973198 L136.460862,21.262586 C135.960255,21.1428227 135.543083,20.8920681 135.209345,20.5103223 C134.875607,20.1285766 134.708738,19.6757213 134.708738,19.1517566 C134.708738,19.0619341 134.716323,18.9795968 134.731493,18.9047447 C134.746663,18.8298925 134.769418,18.7550404 134.799757,18.6801883 L135.368629,17.3777617 C135.398968,17.0484124 135.49378,16.7415188 135.653064,16.4570808 C135.812348,16.1726428 136.013349,15.9256308 136.256068,15.7160449 L139.82858,9.181456 L139.851335,9.181456 C140.139563,8.65749124 140.480886,8.20837862 140.875303,7.83411807 C141.269721,7.45985753 141.777913,7.27272727 142.399879,7.27272727 C142.945995,7.27272727 143.435225,7.41494629 143.867567,7.69938429 C144.299909,7.98382229 144.62227,8.3580828 144.834648,8.82216589 L147.70176,14.368707 C148.217537,14.548352 148.642294,14.8627309 148.976032,15.3118435 C149.30977,15.7609561 149.476638,16.2774357 149.476638,16.8612821 C149.476638,17.1008089 149.438713,17.355306 149.362864,17.6247736 L149.749697,18.3882651 Z" id="路径" fill="url(#linearGradient-5)" fill-rule="nonzero"></path>
                            <path d="M21.1289658,15.7768924 C21.1715861,15.9468792 21.2248613,16.1274901 21.2887916,16.3187251 L21.4166522,16.8286853 C21.4592724,16.998672 21.4805825,17.1367862 21.4805825,17.2430279 C21.4805825,17.8379814 21.3207568,18.3638778 21.0011052,18.8207171 C20.6814537,19.2775564 20.2659067,19.6122178 19.7544643,19.8247012 C19.5626734,19.8459495 19.3602274,19.8565737 19.1471264,19.8565737 C18.9766456,19.877822 18.7848546,19.8884462 18.5717537,19.8884462 L17.9644157,19.8884462 L12.9778519,19.9521912 L12.9778519,25.2749004 C12.9778519,26.061089 12.9938345,26.8525896 13.0257996,27.6494024 C13.0577648,28.4462151 13.0950575,29.1633466 13.1376777,29.8007968 C13.1802979,30.5657371 13.2335732,31.2988048 13.2975035,32 L8.6945215,32 L8.79041694,30.7569721 C8.81172706,30.2682603 8.83303715,29.6042497 8.85434727,28.7649403 C8.87565739,27.9256308 8.88631245,26.8047809 8.88631242,25.4023904 L8.88631242,20.5258964 C8.52404068,20.8446215 8.11914877,21.0039841 7.67163663,21.0039841 C7.30936489,21.0039841 6.99504091,20.9189907 6.72866465,20.749004 C6.46228835,20.5790172 6.24385981,20.3452855 6.07337898,20.0478088 L2.46131676,19.8565737 C1.75808339,19.686587 1.17205559,19.3306773 0.703233357,18.7888446 C0.234411118,18.2470119 0,17.6042497 0,16.8605578 C0,16.7330677 0.0106550475,16.6162019 0.0319651425,16.5099601 C0.0532752375,16.4037184 0.0852403904,16.2974767 0.127860601,16.1912351 L0.926989416,14.3426295 C0.969609626,13.875166 1.10279776,13.4395751 1.32655382,13.0358566 C1.55030988,12.6321381 1.83266873,12.2815405 2.17363035,11.9840637 L7.1921593,2.70916334 L7.22412444,2.70916334 C7.62901638,1.96547145 8.10849364,1.32802125 8.66255629,0.796812749 C9.21661893,0.26560425 9.93050734,0 10.8042215,0 C11.5713852,0 12.2586359,0.201859229 12.8659738,0.605577687 C13.4733118,1.00929615 13.9261514,1.54050464 14.2244929,2.19920319 L18.2521021,10.0717132 C18.9766455,10.3266932 19.5733284,10.7729084 20.0421506,11.4103585 C20.5109728,12.0478087 20.745384,12.7808765 20.745384,13.6095617 C20.745384,13.9495352 20.6921087,14.3107569 20.5855582,14.6932271 L21.1289658,15.7768924 Z" id="路径" fill="url(#linearGradient-6)" fill-rule="nonzero"></path>
                        </g>
                        <g id="编组" stroke-width="1" fill="none" fill-rule="evenodd" transform="translate(54.000000, 42.991703)">
                            <polygon id="Path-10" fill="url(#linearGradient-7)" fill-rule="nonzero" opacity="0.5" points="1.08928571 87.4651465 70.8720407 123.008297 122 94.0216501 56.3627549 73.6619807"></polygon>
                            <path d="M0,35.2194325 L0,83.1714731 C0,85.0266195 1.50509109,86.5303509 3.36191541,86.5303509 L40.9803828,88.1756032 L43.6419591,86.5303509 L49.7229514,62.2173812 L41.2904933,43.8221226 L53.375,31.5724756 L3.33737589,31.8585114 C1.49077636,31.8748563 0,33.3745014 0,35.2194325 Z" id="路径" fill="url(#linearGradient-8)" fill-rule="nonzero"></path>
                            <path d="M0,37.4052314 L0,84.8086616 C0,86.6682619 1.49885022,88.1756032 3.34797522,88.1756032 L40.8159758,88.1756032 L47.202381,62.4767981 L38.1436326,43.3736437 L47.202381,33.7495189 L3.32353744,34.0362415 C1.48459485,34.0526256 0,35.555871 0,37.4052314 Z" id="路径备份" fill="url(#linearGradient-9)" fill-rule="nonzero"></path>
                            <path d="M44.6570579,73.3675646 L46.8392857,64.3732623 C37.3632999,70.5197578 32.5374065,73.5998464 32.361606,73.6135284 C28.589621,70.3207735 23.6076885,65.5375277 17.4158086,59.2637904 C16.3407077,58.1725812 14.4693185,58.138292 13.3473771,59.1891607 L0,77.7094784 L0,84.5290305 C0,86.3604868 1.12757155,88.1756032 3.66694147,88.1756032 L41.0092703,88.1756032 L44.6570579,73.3675646 Z" id="路径" fill="url(#linearGradient-10)" fill-rule="nonzero"></path>
                            <path d="M71.976202,36.6522433 L91.5143778,41.6635039 C93.2588195,42.107849 94.3406596,43.8365339 93.9684576,45.5855085 L80.8437695,94.2369662 C80.4122606,96.2639101 78.2424448,97.4123084 76.3037218,96.6433277 L47.9918183,88.9490454 L62.2065865,62.5906632 L58.5025456,44.1196319 L71.976202,36.6522433 Z" id="路径备份-2" fill="url(#linearGradient-11)" fill-rule="nonzero"></path>
                            <path d="M69.2195038,37.9711531 L88.7576793,42.9824138 C90.502121,43.4267589 91.5839611,45.1554434 91.211759,46.904418 L78.6019512,93.6371621 C78.1704423,95.6641059 76.0006266,96.8125043 74.0619035,96.0435236 L45.75,88.3492413 L59.4498883,63.9095731 L55.7458471,45.4385414 L69.2195038,37.9711531 Z" id="路径" fill="url(#linearGradient-12)" fill-rule="nonzero"></path>
                            <path d="M79.6854281,89.7660854 L65.843827,63.2705535 C65.1213503,62.0849992 63.5845562,61.699337 62.3885913,62.4012833 L59.4498883,63.9095731 L45.7805098,88.3574045 C62.0518909,92.8827171 71.1441675,95.3583446 73.0573392,95.7842864 C75.9270965,96.4231992 78.0324636,95.9795497 78.4630927,93.941049 L79.6854281,89.7660854 Z" id="路径" fill="url(#linearGradient-13)" fill-rule="nonzero"></path>
                            <ellipse id="椭圆形" fill="#FFFFFF" fill-rule="nonzero" cx="74.8728818" cy="55.0444333" rx="6.13381012" ry="6.12472944"></ellipse>
                            <polygon id="路径-2" fill="url(#linearGradient-14)" fill-rule="nonzero" transform="translate(21.494820, 11.032881) rotate(-26.000000) translate(-21.494820, -11.032881) " points="19.6909305 0.651082499 17.6127621 12.1361691 22.616602 12.1375521 22.6191673 21.4146801 25.3768787 9.58600047 20.2902269 9.58459456"></polygon>
                            <path d="M86.7097716,6.1770177 L78.0866556,20.8473375 L86.704867,23.4542655 L80.6168226,36.255261 C88.4983134,26.1676077 92.2649266,21.030325 91.9166623,20.843413 C91.5683984,20.656501 88.632614,19.8452543 83.1093099,18.4096729 L86.7097716,6.1770177 Z" id="路径-3" fill="url(#linearGradient-15)" fill-rule="nonzero" transform="translate(85.012712, 21.216139) rotate(27.000000) translate(-85.012712, -21.216139) "></path>
                        </g>
                    </g>
                </g>
            </g>
        </g>
    </g>
</svg>