<svg xmlns="http://www.w3.org/2000/svg" width="17.646" height="17.646" viewBox="0 0 17.646 17.646">
  <path id="路径_219" data-name="路径 219" d="M11.831,4h6.555a2.2,2.2,0,0,1,2.26,2.255q0,6.571,0,13.143a2.2,2.2,0,0,1-2.251,2.247H5.252A2.2,2.2,0,0,1,3,19.4q0-6.58,0-13.159A2.2,2.2,0,0,1,5.243,4Zm1.1,7.717v-.212c0-1.021,0-2.041,0-3.062a1.105,1.105,0,1,0-2.21-.007c-.005,1.026,0,2.052,0,3.079,0,.064,0,.128,0,.2H10.5q-1.523,0-3.046,0a1.08,1.08,0,0,0-.917.442,1.1,1.1,0,0,0,.894,1.767c1.026.007,2.052,0,3.079,0h.21v.212c0,1.021,0,2.041,0,3.062a1.105,1.105,0,1,0,2.21.007c.005-1.026,0-2.052,0-3.079,0-.064,0-.128,0-.2h.22c1.021,0,2.042,0,3.062,0a1.105,1.105,0,1,0-.01-2.21c-1.081,0-2.163,0-3.272,0Z" transform="translate(-3 -4)" />
</svg>
