<?xml version="1.0" standalone="no"?><!DOCTYPE svg PUBLIC "-//W3C//DTD SVG 1.1//EN" "http://www.w3.org/Graphics/SVG/1.1/DTD/svg11.dtd"><svg t="1631259350579" class="icon" viewBox="0 0 1024 1024" version="1.1" xmlns="http://www.w3.org/2000/svg" p-id="4022" xmlns:xlink="http://www.w3.org/1999/xlink" width="200" height="200"><defs><style type="text/css"></style></defs><path d="M916.128461 208.210093a141.749723 141.749723 0 0 1 64.799873 110.119285v386.369246a140.899225 140.899225 0 0 1-64.111375 110.078785L576.536624 1008.44803a143.20772 143.20772 0 0 1-129.073248 0l-340.482835-193.711121A140.899225 140.899225 0 0 1 42.909666 704.698624V318.288878a140.899225 140.899225 0 0 1 64.111375-110.078785L446.653378 15.34947a143.20772 143.20772 0 0 1 129.073248 0z m-403.743712 422.049676a39.527923 39.527923 0 1 1 40.013922-39.527923 39.770922 39.770922 0 0 1-39.973422 39.527923z m63.949375-373.61177a73.142857 73.142857 0 0 0-128.587249 0L248.649264 623.415282a73.142857 73.142857 0 0 0 64.273375 108.053789H711.158361a73.142857 73.142857 0 0 0 64.273374-108.053789l-199.057111-366.767283z m-63.949375 97.402309a40.013922 40.013922 0 0 1 40.013922 40.013922v77.678849a40.013922 40.013922 0 1 1-80.068344 0V394.06423a40.013922 40.013922 0 0 1 40.094922-40.013922z"  p-id="4023"></path></svg>