<svg xmlns="http://www.w3.org/2000/svg" width="171.755" height="144.266" viewBox="0 0 171.755 144.266">
  <defs>
    <!-- <style>
      .cls-1 {
        fill: #afb9d0;
      }
    </style> -->
  </defs>
  <path id="路径_1422" data-name="路径 1422" class="cls-1" d="M184.625,56.237V178.4a3.413,3.413,0,0,0,3.336-3.491V56.237h-3.349Zm-16.977-22.1a5.06,5.06,0,0,0-4.933,5.191v6.209H16.207V66.941H162.714V174.908a3.411,3.411,0,0,0,3.323,3.491V56.237h-3.323V54.781h25.247V39.324a5.07,5.07,0,0,0-4.946-5.191Zm.039,22.1V178.373h15.29V56.237h-15.29Zm-91.145,32c-6.157,0-9.918,4.3-10.91,9.828l-3.645,11.7a2.01,2.01,0,0,0-1.108-.335H52.828a2.19,2.19,0,0,0-1.6.7,2.46,2.46,0,0,0-.657,1.687v2.087a2.326,2.326,0,0,0,2.241,2.383l3.04.567a15.938,15.938,0,0,0-1.507,6.956L53.214,137.58a11.641,11.641,0,0,0,.064,1.211,5.208,5.208,0,0,0-.064.773V156.1a4.276,4.276,0,0,0,1.159,3,3.929,3.929,0,0,0,2.834,1.262h6.106a3.838,3.838,0,0,0,2.834-1.262,4.251,4.251,0,0,0,1.159-3v-5.32h52.438v5.32a4.276,4.276,0,0,0,1.159,3,3.929,3.929,0,0,0,2.834,1.262h6.093a3.839,3.839,0,0,0,2.834-1.262,4.457,4.457,0,0,0,1.172-3V139.563a3.834,3.834,0,0,0-.064-.773,11.645,11.645,0,0,0,.064-1.211L132.715,123.8a15.833,15.833,0,0,0-1.52-6.981l2.988-.541a2.329,2.329,0,0,0,2.241-2.4v-2.061a2.576,2.576,0,0,0-.644-1.7,2.19,2.19,0,0,0-1.6-.7h-8.038a1.968,1.968,0,0,0-1.03.309l-3.632-11.67c-1.159-6.634-5.539-9.828-10.91-9.828H76.541Zm-6.35,41.8a6.48,6.48,0,1,1-6.054,6.466A6.261,6.261,0,0,1,70.191,130.031Zm46.745,0a6.48,6.48,0,1,1-6.054,6.466A6.261,6.261,0,0,1,116.936,130.031Zm-31.726.824h16.964a1.829,1.829,0,0,1,1.8,1.919v5.41a1.989,1.989,0,0,1-.541,1.352,1.739,1.739,0,0,1-1.288.567H85.172a1.85,1.85,0,0,1-1.79-1.919v-5.41a1.984,1.984,0,0,1,.541-1.352,1.739,1.739,0,0,1,1.275-.567ZM72.754,96.232H114.4c.9,1.224,1.43,1.546,1.687,2.975l2.7,7.754.979,4.212c-.206,3.091-3.684,5.539-6.569,5.539H73.914c-2.9,0-6.376-2.447-6.6-5.539l.992-4.212,2.653-7.574.052-.18c.258-1.533.85-1.8,1.726-2.963Zm52.065-45.225h21.253V61.479H124.819V51.007Zm-30.656,0h21.253V61.479H94.163V51.007Zm-30.682,0H84.734V61.479H63.48V51.007Zm-30.656,0H54.077V61.479H32.824V51.007Z" transform="translate(-16.207 -34.133)"/>
</svg>
