<svg xmlns="http://www.w3.org/2000/svg" width="64.509" height="64.509" viewBox="0 0 64.509 64.509">
  <defs>
    <!-- <style>
      .cls-1 {
        fill: #afb9d0;
      }
    </style> -->
  </defs>
  <path id="路径_1429" data-name="路径 1429" class="cls-1" d="M60.209,0H4.3A4.31,4.31,0,0,0,0,4.3V60.209a4.31,4.31,0,0,0,4.3,4.3H60.209a4.31,4.31,0,0,0,4.3-4.3V4.3a4.31,4.31,0,0,0-4.3-4.3Zm-.658,59.551H4.959V4.959H59.542V59.551h.009ZM8.6,58.058H30.855V6.451H8.6ZM20.568,26.191l4.941,8.9h-3.3v5.939H18.912V35.087H15.618l4.95-8.9Zm35.34-19.74H34.4V58.058h21.5V6.451ZM45.582,42.441l-4.944-8.894h3.3V27.606h3.3v5.941h3.294l-4.95,8.894Z"/>
</svg>
