<svg xmlns="http://www.w3.org/2000/svg" width="24" height="24" viewBox="0 0 24 24">
  <defs>
    <!-- <style>
      .cls-1 {
        fill: #fff;
      }
    </style> -->
  </defs>
  <path id="路径_1351" data-name="路径 1351" class="cls-1" d="M21.6,14.4V12H24v2.4ZM21.6,0H24V9.6H21.6ZM16.8,4.8h2.4v9.6H16.8Zm0-4.8h2.4V2.4H16.8ZM24,24H16.8V16.8H24Zm-2.4-4.8H19.2v2.4h2.4ZM4.8,21.6h9.6V24H4.8ZM12,16.8h2.4v2.4H12ZM0,0H14.4V14.4H0ZM2.4,12H12V2.4H2.4ZM4.8,4.8H9.6V9.6H4.8ZM9.6,19.2H0V16.8H9.6ZM2.4,24H0V21.6H2.4Z"/>
</svg>
