<svg xmlns="http://www.w3.org/2000/svg" width="90.245" height="65.95" viewBox="0 0 90.245 65.95">
  <defs>
    <!-- <style>
      .cls-1 {
        fill: #afb9d0;
      }
    </style> -->
  </defs>
  <path id="路径_1425" data-name="路径 1425" class="cls-1" d="M83.346,53.468V44.876c4.071-2.657,6.9-8.443,6.9-15.148,0-8.922-5-16.207-11.3-16.677v-.027l-11.21-1.673V7.487H63.9v3.283l-9.116-1.72V4.912h-4.1V8.443l-15.939-2.8V0H30.266V4.967L23.12,3.9v.019c4.091.533,6.975,10.826,6.49,23.316s-4.167,22.544-8.288,22.784l5.891-.185v2.6l-10.744.525v4.332L41.5,55.307l.1,1.656-13.218.865,1.57.736V65.95L88.18,59.033V53.587l-2.36-.294-2.474.175ZM45.958,51.38V49.145l10.877-.433v2.079ZM35.71,13.253l1.883-.883v-.055l.1.01.029-.01v.018L47.7,13.86V33.029l-9.859-.266-2.132.23V13.253ZM32.122,52.188l.562-2.539,8.459-.266.143,2.364-9.165.442Zm13.836,2.52,18.185-1.619V50.44l-2.941.147.333-2.024L77.2,47.607l1.075,6.08L45.968,56.465l-.01-1.756Zm-27.49-4.768c-3.784-.138-6.585-8.631-6.755-19.633l-2.365-.175c-1.457.579-1.153,3.558-1.153,3.558H0C0,24.735,7.105,24.3,7.105,24.3l4.787.083C12.715,12.712,16.311,3.7,20.256,3.843c4.191.156,7.191,10.6,6.7,23.328S22.659,50.1,18.468,49.939ZM16.907,20.793c-.785,0-1.466,1.489-1.807,3.685l2.091.046-.019,6-2.044-.083c.331,2.087,1.013,3.51,1.779,3.51,1.107,0,2.005-2.95,2.005-6.58s-.9-6.581-2.005-6.581Z"/>
</svg>
