<?xml version="1.0" standalone="no"?><!DOCTYPE svg PUBLIC "-//W3C//DTD SVG 1.1//EN" "http://www.w3.org/Graphics/SVG/1.1/DTD/svg11.dtd"><svg t="1631259609359" class="icon" viewBox="0 0 1024 1024" version="1.1" xmlns="http://www.w3.org/2000/svg" p-id="4658" xmlns:xlink="http://www.w3.org/1999/xlink" width="200" height="200"><defs><style type="text/css"></style></defs><path d="M280.04414 269.779382l51.665067 29.853635a639.639522 639.639522 0 0 1 213.402721-31.722026c25.263893 0.28432 50.812106 1.868391 76.522788 4.589743a355.806592 355.806592 0 0 0-176.969101-41.835707 450.322796 450.322796 0 0 0-164.621475 39.073738z m584.237674 222.582206l-22.014517-15.962556a350.404506 350.404506 0 0 0-155.970013 105.604697 163.24049 163.24049 0 0 0 29.406846 111.453571l-214.743088 214.499386H181.263132v115.758994H714.079442v-163.727897l93.419539-93.419539a165.068264 165.068264 0 0 0 132.208957-0.934195 350.770061 350.770061 0 0 0 51.90877-181.112055l-22.014518-15.962556-75.954147 104.589267a146.221887 146.221887 0 0 1-105.157907-76.279085l75.791678-104.426797z m-416.651144-15.068978s28.91944 8.854548 49.30927 14.216017a127.741065 127.741065 0 0 1-49.349887 12.185157 133.265003 133.265003 0 0 1-49.59359-12.185157z m-0.406172 54.305185a233.386379 233.386379 0 0 1-93.419539-29.853636 53.655309 53.655309 0 0 1-62.388005-81.762405c65.231209 58.1232 52.396176-32.209432 156.173099-8.854548 103.776923-23.314268 90.94189 66.977748 156.173099 8.854548a53.614692 53.614692 0 0 1-62.388006 81.762405 206.457181 206.457181 0 0 1-94.150648 29.853636z m-415.067074 186.839078c26.441791-12.185157 64.743802-29.041291 91.307445-38.626949v344.027607H32.116807v-305.441275z m149.024473-54.711356a886.023402 886.023402 0 0 1 96.58768-20.674151v114.865416h263.808655l-82.452897 83.630796H181.14128v-177.98453z m678.916347 158.691365v201.420649h-89.926461v-110.072587l89.926461-91.348062zM678.701869 341.306255c0.771727 23.314268 0 202.151759 0 202.151759v13.809845l-11.372814 8.367142a386.35072 386.35072 0 0 1-224.288128 83.915116 341.834279 341.834279 0 0 1-219.942088-84.72746l-10.316767-8.123438V299.064377l-25.263893-28.91944a219.576534 219.576534 0 0 1 207.147674-266.651859 314.33644 314.33644 0 0 1 90.820039-0.528023 259.665701 259.665701 0 0 1 146.221887 57.229622 219.332831 219.332831 0 0 1 64.33763 187.651422s71.608108 44.67891 96.100274 58.732458-0.446789 59.585419-22.826861 53.695926-69.049225-14.622189-90.982508-19.049462z m-40.860894-126.766253a147.765341 147.765341 0 0 0-44.67891-110.113204 245.409067 245.409067 0 0 0-160.275435-45.69434 212.671612 212.671612 0 0 0-153.167427 60.15406 162.103209 162.103209 0 0 0-34.768316 101.827297 516.325731 516.325731 0 0 1 198.211892-48.943715 411.167824 411.167824 0 0 1 194.962516 42.769902zM267.8996 330.867637l45.938043 26.482409 24.695252 2.233945a580.216572 580.216572 0 0 1 206.010392-32.899925 764.537384 764.537384 0 0 1 79.162905 5.320852v197.399548a324.937527 324.937527 0 0 1-181.030819 65.271826 283.467375 283.467375 0 0 1-174.653921-64.581333V330.867637z"  p-id="4659"></path></svg>