<?xml version="1.0" standalone="no"?><!DOCTYPE svg PUBLIC "-//W3C//DTD SVG 1.1//EN" "http://www.w3.org/Graphics/SVG/1.1/DTD/svg11.dtd"><svg t="1634027638827" class="icon" viewBox="0 0 1024 1024" version="1.1" xmlns="http://www.w3.org/2000/svg" p-id="4335" xmlns:xlink="http://www.w3.org/1999/xlink" width="200" height="200"><defs><style type="text/css"></style></defs><path d="M1024 512A512 512 0 1 1 512 0a512.047936 512.047936 0 0 1 512 512z m-192.8928 31.733358a321.551915 321.551915 0 0 0-41.799832-158.187435A315.559966 315.559966 0 0 0 678.767906 271.794776a42.375059 42.375059 0 0 0-44.196611 72.3348 234.117405 234.117405 0 1 1-253.579253 5.224979 42.231252 42.231252 0 0 0-47.408295-69.938021 319.059264 319.059264 0 1 0 497.523453 264.316824z m-276.108979-11.648347V203.726243a42.183316 42.183316 0 0 0-84.414568 0v328.358768a42.183316 42.183316 0 1 0 84.414568 0z m0 0"  p-id="4336"></path></svg>