<svg id="图层_1" data-name="图层 1" xmlns="http://www.w3.org/2000/svg" viewBox="0 0 20 20"><defs><style>.cls-1{fill:#2e4054;}</style></defs><path class="cls-1" d="M15.77,7.12v0a.56.56,0,0,1,.38-.64.56.56,0,0,1,.56.14l2.93,2.92-.21.21L9.89,19.24,6.76,16.11a.55.55,0,0,0-.78,0,.56.56,0,0,0-.16.51s0,0,0,0a.61.61,0,0,0,0,.12,2.39,2.39,0,1,1-1.43-1.45.11.11,0,0,0,.08,0A.54.54,0,0,0,5.22,15a.55.55,0,0,0-.14-.56L.37,9.73l4-4a.55.55,0,0,0,0-.78.53.53,0,0,0-.51-.15h0l-.12,0A2.41,2.41,0,1,1,5.16,3.42a.56.56,0,0,0,.27.74.57.57,0,0,0,.62-.11l4.06-4L15,4.9a.56.56,0,0,1-.55.93l-.08,0a2.4,2.4,0,1,0,.88,3.94,2.43,2.43,0,0,0,.56-2.5.31.31,0,0,1-.05-.12Z"/></svg>