<?xml version="1.0" standalone="no"?><!DOCTYPE svg PUBLIC "-//W3C//DTD SVG 1.1//EN" "http://www.w3.org/Graphics/SVG/1.1/DTD/svg11.dtd"><svg t="1634027624007" class="icon" viewBox="0 0 1024 1024" version="1.1" xmlns="http://www.w3.org/2000/svg" p-id="4081" xmlns:xlink="http://www.w3.org/1999/xlink" width="200" height="200"><defs><style type="text/css"></style></defs><path d="M685.119035 897.119809H339.375644a5.619258 5.619258 0 0 0-5.301186 7.792745 192.751145 192.751145 0 0 0 356.186728 0 5.725282 5.725282 0 0 0-0.530119-5.301187 5.778293 5.778293 0 0 0-4.612032-2.491558z m299.888126-56.987756a39.175769 39.175769 0 0 0 30.852906-63.243156l-0.265059-0.265059a7.686721 7.686721 0 0 0-1.007226-1.166261c-15.90356-19.137284-181.406606-221.218517-181.406605-449.381589v-4.983115a320.986849 320.986849 0 0 0-641.973698 0v4.983115c0 227.951024-165.290998 430.244305-181.406606 449.381589l-1.007225 1.166261a0.84819 0.84819 0 0 1-0.26506 0.265059 39.175769 39.175769 0 0 0 30.852906 63.243156z" fill='#afb9d0' p-id="4082"></path></svg>