<?xml version="1.0" standalone="no"?><!DOCTYPE svg PUBLIC "-//W3C//DTD SVG 1.1//EN" "http://www.w3.org/Graphics/SVG/1.1/DTD/svg11.dtd"><svg t="1614925622764" class="icon" viewBox="0 0 1024 1024" version="1.1" xmlns="http://www.w3.org/2000/svg" p-id="2413" xmlns:xlink="http://www.w3.org/1999/xlink" width="200" height="200"><defs><style type="text/css"></style></defs><path d="M707.49 875.055H316.51c-18.62 0-37.237 18.618-37.237 37.236s18.618 37.236 37.236 37.236h390.982c18.618 0 37.236-13.963 37.236-37.236 0-18.618-18.618-37.236-37.236-37.236zM884.365 74.473H139.636c-51.2 0-93.09 41.89-93.09 93.09V726.11c0 51.2 41.89 93.091 93.09 93.091h744.728c51.2 0 93.09-41.89 93.09-93.09V167.563c0-51.2-41.89-93.091-93.09-93.091z m18.618 651.636c0 9.31-9.31 18.618-18.618 18.618H139.636c-9.309 0-18.618-9.309-18.618-18.618V167.564c0-9.31 9.31-18.619 18.618-18.619h744.728c9.309 0 18.618 9.31 18.618 18.619v558.545z"  p-id="2414"></path><path d="M623.71 404.945c9.308-65.163-18.62-130.327-69.82-167.563-51.2-41.891-125.672-51.2-181.526-27.927-9.31 0-13.964 9.309-13.964 13.963l-4.655 4.655-4.654 4.654c0 9.31 0 18.618 9.309 27.928l74.473 74.472c0 4.655 4.654 4.655 4.654 4.655s0 4.654-4.654 9.309L409.6 372.364c-4.655 4.654-4.655 4.654-13.964 4.654l-4.654-4.654-69.818-69.819c-9.31-9.309-18.619-9.309-27.928-9.309-18.618 0-23.272 9.31-27.927 23.273-27.927 60.51-13.964 134.982 27.927 181.527 37.237 51.2 102.4 79.128 167.564 69.819l97.745 97.745c23.273 23.273 51.2 32.582 83.782 32.582h4.655c27.927 0 55.854-13.964 74.473-32.582 23.272-23.273 37.236-55.855 32.581-83.782 0-27.927-13.963-55.854-32.581-74.473l-97.746-102.4zM670.254 614.4c-18.619 18.618-46.546 18.618-65.164 0L479.418 488.727l-13.963 9.31c-37.237 9.308-79.128 0-107.055-23.273-23.273-18.619-37.236-46.546-37.236-74.473l23.272 23.273c13.964 13.963 32.582 23.272 55.855 23.272s41.89-9.309 55.854-23.272l23.273-23.273c13.964-13.964 23.273-32.582 23.273-55.855s-9.31-41.89-23.273-55.854L460.8 265.309c27.927 4.655 55.855 18.618 74.473 41.891 23.272 27.927 32.582 65.164 27.927 107.055l-4.655 18.618 130.328 125.672c4.654 4.655 9.309 9.31 9.309 18.619-9.31 13.963-18.618 27.927-27.927 37.236z"  p-id="2415"></path></svg>