<?xml version="1.0" standalone="no"?><!DOCTYPE svg PUBLIC "-//W3C//DTD SVG 1.1//EN" "http://www.w3.org/Graphics/SVG/1.1/DTD/svg11.dtd"><svg t="1634027653213" class="icon" viewBox="0 0 1024 1024" version="1.1" xmlns="http://www.w3.org/2000/svg" p-id="4462" xmlns:xlink="http://www.w3.org/1999/xlink" width="200" height="200"><defs><style type="text/css"></style></defs><path d="M0.448 505.024c0 278.784 228.16 504.832 509.632 504.832s509.568-226.048 509.568-504.832S791.552 0.192 510.08 0.192 0.448 226.176 0.448 504.96z" p-id="4463"></path><path d="M664.32 410.368c95.552-128.704 77.056 84.672-11.776 92.992-139.968 45.696 11.776-92.992 11.776-92.992z" p-id="4464"></path><path d="M386.048 507.52c4.16 15.744 35.2 80.512-34.368 181.824-69.568 101.312 160.064 156.16 160.064 156.16s217.92-73.088 229.632-108.8c72.128-60.672-134.08 0.832-94.72-222.528-93.824-58.944-260.608-6.656-260.608-6.656z" p-id="4465"></path><path d="M510.08 1009.92a510.272 510.272 0 0 0 436.992-245.12v-0.704c-25.728-38.784-202.304-97.472-271.616-97.472-137.472 238.08-322.944 40.96-319.616 2.24-96-6.528-211.648 62.144-275.84 106.752a510.272 510.272 0 0 0 430.08 234.24z" p-id="4466"></path><path d="M391.488 546.56c5.632 19.904 151.936 155.264 284.544 122.048-38.784-47.36-25.088-121.216-22.656-165.248 13.76-29.888-257.92 16.64-261.888 43.2z" p-id="4467"></path><path d="M528.512 166.272c54.464 9.92 130.752 14.912 140.8 90.496 106.432 440.064-369.6 501.504-308.48 39.872 31.04-163.584 167.68-130.368 167.68-130.368z" p-id="4468"></path><path d="M413.568 226.048c29.504 19.904 89.088 85.248 233.6 53.12 12.288 47.616 6.144 47.616 39.552 97.984 24.448 8.32 95.296-230.016-112.128-262.4-242.752-37.376-273.92 174.4-211.584 250.752 15.168-15.744 3.392-102.08 50.56-139.52z"  p-id="4469"></path></svg>