<?xml version="1.0" standalone="no"?><!DOCTYPE svg PUBLIC "-//W3C//DTD SVG 1.1//EN" "http://www.w3.org/Graphics/SVG/1.1/DTD/svg11.dtd"><svg t="1631259598840" class="icon" viewBox="0 0 1024 1024" version="1.1" xmlns="http://www.w3.org/2000/svg" p-id="4404" xmlns:xlink="http://www.w3.org/1999/xlink" width="200" height="200"><defs><style type="text/css"></style></defs><path d="M512 1024a520.192 520.192 0 0 1-52.357565-2.626783 513.424696 513.424696 0 0 1-50.843826-7.746782 509.417739 509.417739 0 0 1-258.760348-139.531131 518.233043 518.233043 0 0 1-88.153044-117.982608 504.253217 504.253217 0 0 1-38.778434-91.803826 509.417739 509.417739 0 0 1-12.599653-48.973913 513.29113 513.29113 0 0 1-7.746782-50.843827A520.192 520.192 0 0 1 0 512a520.192 520.192 0 0 1 2.626783-52.357565 513.335652 513.335652 0 0 1 7.746782-50.843826A509.417739 509.417739 0 0 1 149.904696 150.038261a518.233043 518.233043 0 0 1 117.982608-88.153044A504.253217 504.253217 0 0 1 359.69113 23.106783c15.894261-4.941913 32.589913-9.260522 48.973913-12.599653a513.202087 513.202087 0 0 1 50.843827-7.746782A520.192 520.192 0 0 1 512 0a520.192 520.192 0 0 1 52.357565 2.626783 513.113043 513.113043 0 0 1 50.843826 7.746782 506.078609 506.078609 0 0 1 140.777739 51.378087 512 512 0 0 1 151.01774 124.527305 518.233043 518.233043 0 0 1 55.117913 81.608347 504.253217 504.253217 0 0 1 38.778434 91.803826c4.941913 15.894261 9.260522 32.589913 12.599653 48.973913a513.380174 513.380174 0 0 1 7.746782 50.843827A520.192 520.192 0 0 1 1024 512a520.192 520.192 0 0 1-2.626783 52.357565 513.29113 513.29113 0 0 1-7.746782 50.843826 506.078609 506.078609 0 0 1-51.378087 140.777739 512 512 0 0 1-124.527305 151.01774 518.233043 518.233043 0 0 1-81.608347 55.117913 504.253217 504.253217 0 0 1-91.803826 38.778434c-15.894261 4.941913-32.589913 9.260522-48.973913 12.599653a513.335652 513.335652 0 0 1-50.843827 7.746782A520.192 520.192 0 0 1 512 1024z m272.161391-660.034783l-155.024695 18.788174-4.452174 3.739826-4.051479 11.75374 1.157566 5.698782 41.405217 41.984-232.893217 236.499478a34.370783 34.370783 0 0 0-9.97287 24.264348 34.370783 34.370783 0 0 0 9.928348 24.264348 33.836522 33.836522 0 0 0 11.041391 7.43513 33.836522 33.836522 0 0 0 13.04487 2.626783 33.836522 33.836522 0 0 0 13.044869-2.582261 33.836522 33.836522 0 0 0 11.041392-7.390608l232.804174-236.454957 51.155478 51.912348 9.48313-3.161044 21.815652-166.822956-9.48313-12.555131z m-522.373565 106.852174l-9.48313 3.161044-21.949218 166.912 9.438609 12.644174 155.024696-18.788174 4.452174-3.739826 4.051478-11.842783-1.291131-5.698783-41.405217-41.939478 232.893217-236.677565a34.370783 34.370783 0 0 0 9.883826-24.353391 34.326261 34.326261 0 0 0-10.150956-24.264348 33.747478 33.747478 0 0 0-23.863652-9.794783 33.881043 33.881043 0 0 0-12.822261 2.493218 33.747478 33.747478 0 0 0-11.264 7.479652l-232.537044 236.321391-51.110956-51.912348z"  p-id="4405"></path></svg>