<?xml version="1.0" standalone="no"?><!DOCTYPE svg PUBLIC "-//W3C//DTD SVG 1.1//EN" "http://www.w3.org/Graphics/SVG/1.1/DTD/svg11.dtd"><svg t="1631259632190" class="icon" viewBox="0 0 1024 1024" version="1.1" xmlns="http://www.w3.org/2000/svg" p-id="5293" xmlns:xlink="http://www.w3.org/1999/xlink" width="200" height="200"><defs><style type="text/css"></style></defs><path d="M993.338233 427.076095l-348.924981-66.579974v-353.56262a6.795749 6.795749 0 0 0-7.897763-6.795749L30.40814 90.365096a6.887584 6.887584 0 0 0-5.831487 6.795749v919.492399a6.887584 6.887584 0 0 0 6.841666 6.887584h233.351329v-253.279405h118.971526v253.279405h406.137842v-144.914757a25.897314 25.897314 0 1 1 50.508946 0v144.960674h151.894175a6.979418 6.979418 0 0 0 6.979418-7.071252V433.963679a7.163087 7.163087 0 0 0-5.831488-6.841667z m-609.780728 203.045962h-118.925608v-120.027622h118.971526z m0-256.172189h-118.925608V253.968163h118.971526z m459.860993 371.562172a28.60643 28.60643 0 1 1-57.21286 0v-75.717502a28.60643 28.60643 0 0 1 57.21286 0z m0-162.822475a28.60643 28.60643 0 1 1-57.21286 0v-75.625667a28.60643 28.60643 0 0 1 57.21286 0z"  p-id="5294"></path></svg>