<?xml version="1.0" standalone="no"?><!DOCTYPE svg PUBLIC "-//W3C//DTD SVG 1.1//EN" "http://www.w3.org/Graphics/SVG/1.1/DTD/svg11.dtd"><svg t="1614925419383" class="icon" viewBox="0 0 1024 1024" version="1.1" xmlns="http://www.w3.org/2000/svg" p-id="2412" xmlns:xlink="http://www.w3.org/1999/xlink" width="200" height="200"><defs><style type="text/css"></style></defs><path d="M222.16704 891.297792h581.81632v-374.697984c0-160.374784-130.510848-290.906112-290.910208-290.906112S222.16704 356.225024 222.16704 516.599808v374.697984z m75.886592-374.706176c0-118.5792 96.468992-215.01952 215.01952-215.01952 118.550528 0 215.015424 96.444416 215.015424 215.01952v298.811392H298.053632v-298.811392zM149.168128 948.113408H876.9536V1024H149.168128zM830.017536 490.55744h192.487424v75.882496h-192.487424zM2.752512 490.55744h192.487424v75.882496H2.752512zM475.127808 0h75.886592v192.487424h-75.886592zM921.264128 189.222912l-54.145024-53.157888-134.877184 137.445376 54.14912 53.161984zM159.166464 135.684096l134.84032 137.457664-54.202368 53.16608-134.84032-137.46176z"  p-id="2413"></path></svg>