<?xml version="1.0" standalone="no"?><!DOCTYPE svg PUBLIC "-//W3C//DTD SVG 1.1//EN" "http://www.w3.org/Graphics/SVG/1.1/DTD/svg11.dtd"><svg t="1634027673625" class="icon" viewBox="0 0 1024 1024" version="1.1" xmlns="http://www.w3.org/2000/svg" p-id="4595" xmlns:xlink="http://www.w3.org/1999/xlink" width="200" height="200"><defs><style type="text/css"></style></defs><path d="M864 416h-32V251.2c0-32-25.6-59.2-59.2-59.2H608v-32c0-70.4-57.6-128-128-128s-128 57.6-128 128v32H187.2c-32 0-59.2 25.6-59.2 59.2V416h32c70.4 0 128 57.6 128 128s-57.6 128-128 128H128v164.8c0 32 25.6 59.2 59.2 59.2H352v-32c0-70.4 57.6-128 128-128s128 57.6 128 128v32h164.8c32 0 59.2-25.6 59.2-59.2V672h32c70.4 0 128-57.6 128-128s-57.6-128-128-128z"  p-id="4596"></path></svg>