<?xml version="1.0" standalone="no"?><!DOCTYPE svg PUBLIC "-//W3C//DTD SVG 1.1//EN" "http://www.w3.org/Graphics/SVG/1.1/DTD/svg11.dtd"><svg t="1634208368458" class="icon" viewBox="0 0 1024 1024" version="1.1" xmlns="http://www.w3.org/2000/svg" p-id="4590" xmlns:xlink="http://www.w3.org/1999/xlink" width="200" height="200"><defs><style type="text/css"></style></defs><path d="M224.841348 764.196757a59.026244 59.026244 0 0 0 83.529083 0l647.021252-646.948109a59.245672 59.245672 0 0 0 0-83.821655 59.026244 59.026244 0 0 0-83.602226 0L224.841348 680.375103a59.245672 59.245672 0 0 0 0 83.821654z m723.967483-346.696895a58.14853 58.14853 0 0 0-54.930247 56.393102v413.622562H121.124851V114.834935h405.869424a63.561097 63.561097 0 0 0 54.418247-62.390812A54.125676 54.125676 0 0 0 527.067418 0.000731H52.370614A52.297106 52.297106 0 0 0 0.000366 52.297837V948.662911c0 13.970276 5.558853 27.501695 15.506274 37.449116 9.874279 9.874279 23.405698 15.359989 37.449116 15.213703h895.853075a53.101676 53.101676 0 0 0 37.449116-16.237702 52.223963 52.223963 0 0 0 15.213703-37.449116V473.161536a55.588532 55.588532 0 0 0-52.662819-55.661674z" fill='#AFB9D0' p-id="4591"></path></svg>