<?xml version="1.0" standalone="no"?><!DOCTYPE svg PUBLIC "-//W3C//DTD SVG 1.1//EN" "http://www.w3.org/Graphics/SVG/1.1/DTD/svg11.dtd"><svg t="1631259618750" class="icon" viewBox="0 0 1024 1024" version="1.1" xmlns="http://www.w3.org/2000/svg" p-id="4912" xmlns:xlink="http://www.w3.org/1999/xlink" width="200" height="200"><defs><style type="text/css"></style></defs><path d="M26.170683 808.335533l391.115873 209.623998a35.539954 35.539954 0 0 0 53.398119-27.558898v-407.827588a31.571473 31.571473 0 0 0-17.152657-27.470709l-391.115873-212.754688a35.539954 35.539954 0 0 0-53.574497 27.470709v410.958279a31.571473 31.571473 0 0 0 17.329035 27.558897z m580.676993 210.946825l391.115872-212.754689a31.571473 31.571473 0 0 0 17.152658-27.470709V371.229372a35.539954 35.539954 0 0 0-53.398119-27.558897l-391.115873 209.623997a31.571473 31.571473 0 0 0-17.373129 27.558898v410.958279a35.539954 35.539954 0 0 0 53.618591 27.470709zM495.20107 4.541706l-385.339527 208.124794a30.557305 30.557305 0 0 0 0 55.029606l385.339527 208.124794a38.538362 38.538362 0 0 0 36.245462 0l385.339528-208.124794a30.557305 30.557305 0 0 0 0-55.029606L531.446532 4.541706a38.538362 38.538362 0 0 0-36.245462 0z"  p-id="4913"></path></svg>