<?xml version="1.0" standalone="no"?><!DOCTYPE svg PUBLIC "-//W3C//DTD SVG 1.1//EN" "http://www.w3.org/Graphics/SVG/1.1/DTD/svg11.dtd"><svg t="1614925116613" class="icon" viewBox="0 0 1024 1024" version="1.1" xmlns="http://www.w3.org/2000/svg" p-id="2412" xmlns:xlink="http://www.w3.org/1999/xlink" width="200" height="200"><defs><style type="text/css"></style></defs><path d="M910.628571 555.105524l38.960762-38.960762-68.217904-68.169143-38.912 39.009524c-24.673524-19.504762-53.248-29.257143-87.673905-34.474667V399.36h-97.377524V452.510476c-29.257143 5.217524-58.416762 19.504762-87.673905 34.425905l-38.912-38.960762L461.970286 516.87619l38.960762 38.912c-14.921143 24.673524-29.257143 53.248-34.425905 87.673905H413.988571v97.377524H467.139048c5.168762 29.257143 19.504762 58.416762 34.377142 87.673905l-38.960761 34.377143 68.217904 66.901333 38.912-39.009524c24.673524 19.504762 53.248 29.257143 87.673905 34.474667v53.881905h97.377524v-48.713143c29.257143-5.168762 58.416762-19.504762 87.673905-34.425905l38.912 39.009524 68.217904-68.217905-39.009523-38.960762c14.969905-24.673524 29.257143-53.199238 34.425904-87.625143h53.248v-97.377524H945.005714c-5.168762-33.792-19.504762-63.000381-34.377143-87.673904z m-204.507428 282.428952c-77.921524 0-146.090667-68.169143-146.090667-146.090666 0-82.407619 68.169143-146.090667 146.090667-146.090667 82.407619 0 146.041905 63.000381 146.041905 146.090667 0 77.921524-63.634286 146.090667-146.041905 146.090666zM413.93981 97.377524L365.226667 0H24.380952v973.872762h389.558858v-97.377524H121.758476V292.181333h779.117714v97.377524h97.377524V97.377524H413.988571z"  p-id="2413"></path></svg>