<?xml version="1.0" standalone="no"?><!DOCTYPE svg PUBLIC "-//W3C//DTD SVG 1.1//EN" "http://www.w3.org/Graphics/SVG/1.1/DTD/svg11.dtd"><svg t="1614924379339" class="icon" viewBox="0 0 1024 1024" version="1.1" xmlns="http://www.w3.org/2000/svg" p-id="2551" xmlns:xlink="http://www.w3.org/1999/xlink" width="200" height="200"><defs><style type="text/css"></style></defs><path d="M741.3 834c17.5 0 31.9 13.7 32.7 31.2 0.8 17.5-12.2 32.5-29.6 34.2l-3.2 0.2H282.6c-17.5 0-31.9-13.7-32.7-31.2-0.8-17.5 12.2-32.5 29.6-34.2l3.1-0.2h458.7z m152.9-720.9c36.2 0 65.5 29.3 65.5 65.5v546.1c0 36.2-29.3 65.5-65.5 65.5H129.6c-36.2 0-65.5-29.3-65.5-65.5V178.6c0-17.4 6.9-34 19.2-46.3 12.3-12.3 29-19.2 46.3-19.2h764.6z m0 65.5H129.6v546.1h764.6V178.6zM359 309.7c0-11.7 6.3-22.6 16.5-28.4 10.2-5.8 22.7-5.8 32.8 0.1l262.1 152.9c10.1 5.9 16.3 16.7 16.3 28.3 0 11.7-6.2 22.4-16.3 28.3L408.3 643.8c-10.1 5.9-22.7 6-32.8 0.1-10.2-5.9-16.5-16.7-16.5-28.4V309.7z m65.5 57v191.8l164.4-95.9-164.4-95.9z m0 0" p-id="2552" ></path></svg>