<?xml version="1.0" standalone="no"?><!DOCTYPE svg PUBLIC "-//W3C//DTD SVG 1.1//EN" "http://www.w3.org/Graphics/SVG/1.1/DTD/svg11.dtd"><svg t="1614916632252" class="icon" viewBox="0 0 1024 1024" version="1.1" xmlns="http://www.w3.org/2000/svg" p-id="2411" xmlns:xlink="http://www.w3.org/1999/xlink" width="200" height="200"><defs><style type="text/css"></style></defs><path d="M384 576a64 64 0 0 1 64 64v256a64 64 0 0 1-64 64H128a64 64 0 0 1-64-64v-256a64 64 0 0 1 64-64h256z m512 0a64 64 0 0 1 64 64v256a64 64 0 0 1-64 64H576a64 64 0 0 1-64-64v-256a64 64 0 0 1 64-64h320z m-544 96h-192v192h192v-192z m512 0h-256v192h256v-192zM512 64a64 64 0 0 1 64 64v320a64 64 0 0 1-64 64H128a64 64 0 0 1-64-64V128a64 64 0 0 1 64-64h384z m384 0a64 64 0 0 1 64 64v320a64 64 0 0 1-64 64h-192a64 64 0 0 1-64-64V128a64 64 0 0 1 64-64h192zM480 160h-320v256h320v-256z m384 0h-128v256h128v-256z"  p-id="2412"></path></svg>