<?xml version="1.0" standalone="no"?><!DOCTYPE svg PUBLIC "-//W3C//DTD SVG 1.1//EN" "http://www.w3.org/Graphics/SVG/1.1/DTD/svg11.dtd"><svg t="1614924222392" class="icon" viewBox="0 0 1024 1024" version="1.1" xmlns="http://www.w3.org/2000/svg" p-id="2411" xmlns:xlink="http://www.w3.org/1999/xlink" width="200" height="200"><defs><style type="text/css"></style></defs><path d="M256 1024a36.571429 36.571429 0 0 1-36.571429-36.571429 36.571429 36.571429 0 0 1 36.571429-36.571428h46.372571l57.856-100.205714A439.661714 439.661714 0 0 1 73.142857 438.857143a439.369143 439.369143 0 0 1 438.857143-438.857143 439.369143 439.369143 0 0 1 438.857143 438.857143 439.661714 439.661714 0 0 1-287.085714 411.794286L721.700571 950.857143H768a36.571429 36.571429 0 0 1 36.571429 36.571428 36.571429 36.571429 0 0 1-36.571429 36.571429z m381.220571-73.142857l-46.299428-80.457143A439.588571 439.588571 0 0 1 512 877.714286a439.369143 439.369143 0 0 1-78.848-7.314286L386.852571 950.857143zM146.285714 438.857143a366.153143 366.153143 0 0 0 365.714286 365.714286 366.153143 366.153143 0 0 0 365.714286-365.714286 366.153143 366.153143 0 0 0-365.714286-365.714286 366.153143 366.153143 0 0 0-365.714286 365.714286z m146.285715 73.142857a219.428571 219.428571 0 0 1 219.428571-219.428571 219.428571 219.428571 0 0 1 219.428571 219.428571 219.428571 219.428571 0 0 1-219.428571 219.428571 219.428571 219.428571 0 0 1-219.428571-219.428571z m73.142857 0a146.285714 146.285714 0 0 0 146.285714 146.285714 146.285714 146.285714 0 0 0 146.285714-146.285714 146.285714 146.285714 0 0 0-146.285714-146.285714 146.285714 146.285714 0 0 0-146.285714 146.285714z m109.714285-329.142857A36.571429 36.571429 0 0 1 512 146.285714a36.571429 36.571429 0 0 1 36.571429 36.571429 36.571429 36.571429 0 0 1-36.571429 36.571428 36.571429 36.571429 0 0 1-36.571429-36.571428z"  p-id="2412"></path></svg>