<?xml version="1.0" standalone="no"?><!DOCTYPE svg PUBLIC "-//W3C//DTD SVG 1.1//EN" "http://www.w3.org/Graphics/SVG/1.1/DTD/svg11.dtd"><svg t="1631259603231" class="icon" viewBox="0 0 1024 1024" version="1.1" xmlns="http://www.w3.org/2000/svg" p-id="4531" xmlns:xlink="http://www.w3.org/1999/xlink" width="200" height="200"><defs><style type="text/css"></style></defs><path d="M965.071153 75.709093h-416.113957V37.835476a37.835476 37.835476 0 1 0-75.670952 0v37.873617H56.905303A37.835476 37.835476 0 0 0 19.069826 113.544569v643.431939a37.873617 37.873617 0 0 0 37.835477 37.873617h173.654156L67.966077 957.329085a37.873617 37.873617 0 0 0 53.396841 53.396842l216.066505-215.990224h347.079469l216.142786 215.990224a37.873617 37.873617 0 1 0 53.396841-53.396842l-162.5171-162.517101h173.616015a37.835476 37.835476 0 0 0 37.835477-37.797335V113.58271a37.797336 37.797336 0 0 0-37.873617-37.873617z m-105.496902 162.097554l-32.800917 122.507611a14.798553 14.798553 0 0 1-24.943953 6.674605l-20.977331-20.901049-209.010493 208.896071a14.798553 14.798553 0 0 1-20.977331 0l-122.049923-122.049923-221.978298 222.321563a14.798553 14.798553 0 0 1-21.015471 0l-26.698421-26.69842a14.798553 14.798553 0 0 1 0-21.015472l259.356087-259.356086a14.798553 14.798553 0 0 1 21.015471 0l122.049924 122.049923 171.632704-171.632705-21.015471-21.015471a14.798553 14.798553 0 0 1 6.674605-24.829531l122.622032-32.877198a14.798553 14.798553 0 0 1 18.231208 18.269348z"  p-id="4532"></path></svg>