<?xml version="1.0" standalone="no"?><!DOCTYPE svg PUBLIC "-//W3C//DTD SVG 1.1//EN" "http://www.w3.org/Graphics/SVG/1.1/DTD/svg11.dtd"><svg t="1634889793576" class="icon" viewBox="0 0 1094 1024" version="1.1" xmlns="http://www.w3.org/2000/svg" p-id="4721" xmlns:xlink="http://www.w3.org/1999/xlink" width="213.671875" height="200"><defs><style type="text/css"></style></defs><path d="M1089.348837 435.44186a72.790698 72.790698 0 0 0-51.16279-53.44186l-17.627907-4.046512a177.906977 177.906977 0 0 1-121.255814-211.534883l5.209302-16.744186a73.348837 73.348837 0 0 0-20.511628-71.069768A806.651163 806.651163 0 0 0 752.604651 3.209302a72.511628 72.511628 0 0 0-71.627907 17.627907l-12.418604 13.302326a177.069767 177.069767 0 0 1-243.767442 0L412.930233 21.162791a72.511628 72.511628 0 0 0-71.627907-17.627907A710.511628 710.511628 0 0 0 209.302326 79.209302a72.790698 72.790698 0 0 0-20.790698 71.069768l5.209302 16.744186A177.627907 177.627907 0 0 1 72.139535 378.139535l-17.348837 4.046512A72.790698 72.790698 0 0 0 3.953488 435.627907a761.44186 761.44186 0 0 0 0 151.069767 73.069767 73.069767 0 0 0 50.83721 54.883721l16.744186 3.767442a177.906977 177.906977 0 0 1 122.186046 212.27907l-5.209302 16.744186a72.790698 72.790698 0 0 0 20.790698 71.069767 636.186047 636.186047 0 0 0 131.72093 74.418605 72.790698 72.790698 0 0 0 71.627907-17.348837l11.860465-11.534884a177.348837 177.348837 0 0 1 244.325581 0l11.860465 12.697675a72.790698 72.790698 0 0 0 71.627907 17.348837 519.813953 519.813953 0 0 0 67.860466-34.651163 496.046512 496.046512 0 0 0 63.813953-41.302326 73.069767 73.069767 0 0 0 20.790698-71.069767l-5.209303-17.348837a177.906977 177.906977 0 0 1 122.186047-212.27907l16.744186-3.767442a72.511628 72.511628 0 0 0 51.162791-54 566.883721 566.883721 0 0 0-0.27907-151.069767z m-543.581395 240.604652a176.186047 176.186047 0 1 1 175.581395-176.186047 176.186047 176.186047 0 0 1-175.581395 176.186047z"  p-id="4722"></path></svg>