<?xml version="1.0" standalone="no"?><!DOCTYPE svg PUBLIC "-//W3C//DTD SVG 1.1//EN" "http://www.w3.org/Graphics/SVG/1.1/DTD/svg11.dtd"><svg t="1631259623139" class="icon" viewBox="0 0 1024 1024" version="1.1" xmlns="http://www.w3.org/2000/svg" p-id="5039" xmlns:xlink="http://www.w3.org/1999/xlink" width="200" height="200"><defs><style type="text/css"></style></defs><path d="M511.43576 0.001734a511.955997 511.955997 0 1 0 512.519586 511.565819A511.349054 511.349054 0 0 0 511.43576 0.001734z m232.415624 527.086206l-289.2081 312.662092a30.347125 30.347125 0 0 1-50.246169-31.257538l72.572982-198.773668a29.393358 29.393358 0 0 0-17.861451-37.977259l-154.076688-56.965889a30.347125 30.347125 0 0 1-12.268909-49.118989l281.404554-290.465338a29.653476 29.653476 0 0 1 49.118989 31.257538l-64.9862 177.574034a29.393358 29.393358 0 0 0 17.86145 37.977259l155.203868 56.965889a29.610123 29.610123 0 0 1 12.268909 48.035163z"  p-id="5040"></path></svg>