<?xml version="1.0" standalone="no"?><!DOCTYPE svg PUBLIC "-//W3C//DTD SVG 1.1//EN" "http://www.w3.org/Graphics/SVG/1.1/DTD/svg11.dtd"><svg t="1631259640997" class="icon" viewBox="0 0 1195 1024" version="1.1" xmlns="http://www.w3.org/2000/svg" p-id="5547" xmlns:xlink="http://www.w3.org/1999/xlink" width="233.3984375" height="200"><defs><style type="text/css"></style></defs><path d="M597.445503 0.000955a597.070065 597.070065 0 0 0-417.805749 1023.999045h836.280216A597.070065 597.070065 0 0 0 597.445503 0.000955z m-42.320326 128.346182a42.320326 42.320326 0 0 1 84.640652 0v83.971934a42.081498 42.081498 0 0 1-42.320326 42.320326 42.559154 42.559154 0 0 1-42.320326-42.320326z m-343.912358 510.614319H127.049823a42.081498 42.081498 0 0 1-42.320326-42.320326 42.559154 42.559154 0 0 1 42.320326-42.320326h83.971934a42.320326 42.320326 0 1 1 0 84.640652z m163.167308-260.08372a42.989045 42.989045 0 0 1-60.089132 0L254.918348 319.505089a42.511389 42.511389 0 0 1 60.089131-60.089132l59.372648 59.372648a41.651608 41.651608 0 0 1 0 60.089131z m271.690762 378.208062a85.595965 85.595965 0 0 1-118.79306-22.545366 84.592887 84.592887 0 0 1-14.329682-38.928968L405.762129 404.81446l232.093076 206.156352a78.956545 78.956545 0 0 1 30.713284 27.321926 85.595965 85.595965 0 0 1-22.688662 118.79306z m175.443068-378.208062a42.989045 42.989045 0 0 1 0-60.089131l59.372647-59.372648a42.511389 42.511389 0 0 1 60.089132 60.089132l-59.372648 59.372647a42.989045 42.989045 0 0 1-60.280193 0z m241.646197 260.08372h-84.115231a42.081498 42.081498 0 0 1-42.320326-42.320326 42.559154 42.559154 0 0 1 42.320326-42.320326h83.971934a42.320326 42.320326 0 1 1 0 84.640652z"  p-id="5548"></path></svg>