<?xml version="1.0" standalone="no"?><!DOCTYPE svg PUBLIC "-//W3C//DTD SVG 1.1//EN" "http://www.w3.org/Graphics/SVG/1.1/DTD/svg11.dtd"><svg t="1634889885587" class="icon" viewBox="0 0 1024 1024" version="1.1" xmlns="http://www.w3.org/2000/svg" p-id="5105" xmlns:xlink="http://www.w3.org/1999/xlink" width="200" height="200"><defs><style type="text/css"></style></defs><path d="M891.904 1024H132.096c-23.296 0-42.24-18.944-42.24-42.24V432.896c0-23.296 18.944-42.24 42.24-42.24h760.064c23.296 0 42.24 18.944 42.24 42.24v548.864c-0.256 23.296-19.2 42.24-42.496 42.24z"  p-id="5106"></path><path d="M384.512 642.048c-37.888 0-72.192-5.888-98.048-29.952-23.808-22.016-35.072-54.272-35.072-98.816v-252.672C251.392 116.992 368.384 0 512 0s260.608 116.992 260.608 260.608v252.672c0 44.544-11.52 76.8-35.072 98.816-38.4 35.584-95.232 31.488-155.392 27.136-45.056-3.328-94.72-3.328-139.776 0-19.968 1.536-39.168 2.816-57.856 2.816zM512 84.48c-97.024 0-176.128 78.848-176.128 176.128v252.672c0 18.688 3.072 32.256 8.192 37.12 11.52 10.752 54.272 7.424 91.904 4.864 23.04-1.792 48.896-3.584 76.032-3.584s52.992 1.792 76.032 3.584c37.632 2.816 80.384 5.888 91.904-4.864 5.12-4.864 8.192-18.432 8.192-37.12v-252.672c0-97.28-79.104-176.128-176.128-176.128z"  p-id="5107"></path><path d="M512 650.24m-130.816 0a130.816 130.816 0 1 0 261.632 0 130.816 130.816 0 1 0-261.632 0Z"  p-id="5108"></path><path d="M512 893.184c-28.672 0-52.224-23.552-52.224-52.224v-100.096c0-28.672 23.552-52.224 52.224-52.224s52.224 23.552 52.224 52.224v100.096c0 28.672-23.552 52.224-52.224 52.224z" p-id="5109"></path></svg>