<?xml version="1.0" standalone="no"?><!DOCTYPE svg PUBLIC "-//W3C//DTD SVG 1.1//EN" "http://www.w3.org/Graphics/SVG/1.1/DTD/svg11.dtd"><svg t="1629686147414" class="icon" viewBox="0 0 1024 1024" version="1.1" xmlns="http://www.w3.org/2000/svg" p-id="3532" xmlns:xlink="http://www.w3.org/1999/xlink" width="200" height="200"><defs><style type="text/css"></style></defs><path d="M694.07857 333.564808v-46.129381a252.26629 252.26629 0 0 0 73.891319-177.712538V0h-511.879557v109.722889a256.963538 256.963538 0 0 0 70.820042 175.544577v49.742649C198.15761 395.713009 109.692778 517.118796 109.692778 658.277111v73.168666h364.096919V1023.759116h73.168666v-292.313339h367.348859v-73.168666c-0.060221-141.880969-90.030581-264.00941-220.228652-324.712303z m-511.277347 324.712303c0-127.247236 91.475888-234.01929 218.723124-274.247v-129.475418a181.807575 181.807575 0 0 1-72.265349-144.831804 193.791578 193.791578 0 0 1 3.613267-35.831569h358.315691a193.731357 193.731357 0 0 1 3.673488 35.831569A182.831334 182.831334 0 0 1 620.970125 256v128.030111c127.969889 39.444837 220.168431 146.999765 220.168431 274.247z" p-id="3533"></path></svg>