<?xml version="1.0" standalone="no"?><!DOCTYPE svg PUBLIC "-//W3C//DTD SVG 1.1//EN" "http://www.w3.org/Graphics/SVG/1.1/DTD/svg11.dtd"><svg t="1631259627761" class="icon" viewBox="0 0 1068 1024" version="1.1" xmlns="http://www.w3.org/2000/svg" p-id="5166" xmlns:xlink="http://www.w3.org/1999/xlink" width="208.59375" height="200"><defs><style type="text/css"></style></defs><path d="M979.526602 712.347826a89.043478 89.043478 0 0 1 88.801775 82.179106v140.236227a89.043478 89.043478 0 0 1-82.179106 88.801775H89.043478a89.043478 89.043478 0 0 1-88.801775-82.179106v-140.187886a89.091819 89.091819 0 0 1 82.179106-88.850116H979.526602z m-734.777888 89.043478a66.806779 66.806779 0 1 0 66.806779 66.806779 66.806779 66.806779 0 0 0-66.806779-66.806779z m734.777888-445.16905a89.043478 89.043478 0 0 1 88.801775 82.179106v140.236227a89.043478 89.043478 0 0 1-82.179106 88.801775H89.043478a89.043478 89.043478 0 0 1-88.801775-82.179106V445.217391a89.043478 89.043478 0 0 1 82.179106-88.801775H979.526602z m-734.777888 89.043478a66.806779 66.806779 0 1 0 66.806779 66.806779 66.806779 66.806779 0 0 0-66.806779-66.806779z m734.777888-445.217391a89.043478 89.043478 0 0 1 88.801775 82.179106v140.236227a89.091819 89.091819 0 0 1-82.179106 88.850115H89.043478a89.043478 89.043478 0 0 1-88.801775-82.179106V88.898456a89.043478 89.043478 0 0 1 82.179106-88.801775H979.526602z m-734.777888 89.043478a66.806779 66.806779 0 1 0 66.806779 66.806779 66.806779 66.806779 0 0 0-66.516736-66.85512z"  p-id="5167"></path></svg>