<?xml version="1.0" standalone="no"?><!DOCTYPE svg PUBLIC "-//W3C//DTD SVG 1.1//EN" "http://www.w3.org/Graphics/SVG/1.1/DTD/svg11.dtd"><svg t="1631259614326" class="icon" viewBox="0 0 1024 1024" version="1.1" xmlns="http://www.w3.org/2000/svg" p-id="4785" xmlns:xlink="http://www.w3.org/1999/xlink" width="200" height="200"><defs><style type="text/css"></style></defs><path d="M779.80954 1024H244.19046a65.81259 65.81259 0 0 1-22.58482-3.92596 58.213959 58.213959 0 0 1-18.321145-10.680298 49.475533 49.475533 0 0 1-12.242239-15.830482 43.945418 43.945418 0 0 1-4.47475-19.334295v-13.719751A43.945418 43.945418 0 0 1 190.957827 941.385992a49.433318 49.433318 0 0 1 12.242239-15.830482 58.213959 58.213959 0 0 1 18.27893-10.680299 65.854805 65.854805 0 0 1 22.584821-3.925959h212.001814v-79.025766H30.542276a23.724616 23.724616 0 0 1-9.709362-2.110731 26.384137 26.384137 0 0 1-8.105207-5.614544 26.806283 26.806283 0 0 1-5.572329-8.189636A24.568908 24.568908 0 0 1 5.213505 806.299213V25.750917A24.526693 24.526693 0 0 1 7.282022 15.914911 26.806283 26.806283 0 0 1 12.854351 7.725275 26.341922 26.341922 0 0 1 20.959558 2.110731 23.682401 23.682401 0 0 1 30.542276 0h961.142434a26.04642 26.04642 0 0 1 18.025642 7.725275 31.112174 31.112174 0 0 1 6.078905 8.189636 29.550233 29.550233 0 0 1 2.997238 9.836006V806.299213a24.568908 24.568908 0 0 1-2.068517 9.793791 26.806283 26.806283 0 0 1-5.572329 8.189636 26.426351 26.426351 0 0 1-8.105207 5.614544 23.724616 23.724616 0 0 1-9.709362 2.110731H567.934369v78.899122h211.875171a65.854805 65.854805 0 0 1 22.58482 3.92596 58.256173 58.256173 0 0 1 18.321145 10.680298 49.433318 49.433318 0 0 1 12.242239 15.830482 43.987632 43.987632 0 0 1 4.47475 19.334295v13.719751a43.987632 43.987632 0 0 1-4.47475 19.334296 49.517747 49.517747 0 0 1-12.242239 15.830481 58.256173 58.256173 0 0 1-18.321145 10.680299 65.81259 65.81259 0 0 1-22.58482 3.757101zM510.311415 165.945665a65.052727 65.052727 0 0 0-30.141237 7.387558 63.321928 63.321928 0 0 0-13.170961 9.245002 65.601517 65.601517 0 0 0-10.933586 12.959888L235.705322 540.347116a63.533001 63.533001 0 0 0-3.208311 65.81259 67.079029 67.079029 0 0 0 23.049182 25.328772 63.321928 63.321928 0 0 0 34.404914 10.047079h444.097786a63.321928 63.321928 0 0 0 18.025642-2.575092 61.380055 61.380055 0 0 0 15.661624-7.176485 65.052727 65.052727 0 0 0 22.415962-24.653337 66.234736 66.234736 0 0 0 7.556417-32.800759 63.786288 63.786288 0 0 0-2.997238-17.265779 65.81259 65.81259 0 0 0-8.105207-16.885847l-222.048893-344.640145a65.728161 65.728161 0 0 0-10.933586-12.959888 63.321928 63.321928 0 0 0-13.170961-9.245002 65.010512 65.010512 0 0 0-30.141238-7.387558z m0 417.249289a26.721853 26.721853 0 0 1-10.933586-2.406233 30.267881 30.267881 0 0 1-9.202787-6.416622 30.647813 30.647813 0 0 1-6.332193-9.287216 27.144 27.144 0 0 1 0-22.12046 30.563384 30.563384 0 0 1 6.332193-9.287216 30.225667 30.225667 0 0 1 9.202787-6.416622 26.215278 26.215278 0 0 1 21.867172 0 30.183452 30.183452 0 0 1 9.202787 6.416622 30.605598 30.605598 0 0 1 6.332193 9.287216 27.523931 27.523931 0 0 1 2.364019 11.06023 23.809045 23.809045 0 0 1-1.139795 10.342581 26.088634 26.088634 0 0 1-5.192398 8.86507 29.296945 29.296945 0 0 1-9.836006 7.2187 30.394525 30.394525 0 0 1-12.664386 2.701735zM511.788927 499.145649a26.721853 26.721853 0 0 1-10.933586-2.364019 30.352311 30.352311 0 0 1-9.202787-6.416622 30.690028 30.690028 0 0 1-6.332193-9.287216 27.523931 27.523931 0 0 1-2.364019-11.06023v-173.079936a27.566146 27.566146 0 0 1 2.364019-11.06023 30.605598 30.605598 0 0 1 6.332193-9.287216 30.183452 30.183452 0 0 1 9.202787-6.416622 26.173063 26.173063 0 0 1 21.867172 0 30.183452 30.183452 0 0 1 9.202787 6.416622 30.605598 30.605598 0 0 1 6.332193 9.287216 27.566146 27.566146 0 0 1 2.364018 11.06023v173.079936a27.523931 27.523931 0 0 1-2.364018 11.06023 30.98553 30.98553 0 0 1-15.53498 15.703838 26.721853 26.721853 0 0 1-10.933586 2.364019z"  p-id="4786"></path></svg>