<?xml version="1.0" standalone="no"?><!DOCTYPE svg PUBLIC "-//W3C//DTD SVG 1.1//EN" "http://www.w3.org/Graphics/SVG/1.1/DTD/svg11.dtd"><svg t="1631259636354" class="icon" viewBox="0 0 1024 1024" version="1.1" xmlns="http://www.w3.org/2000/svg" p-id="5420" xmlns:xlink="http://www.w3.org/1999/xlink" width="200" height="200"><defs><style type="text/css"></style></defs><path d="M939.697933 413.449329a394.870426 394.870426 0 0 0-32.876409-161.671807 434.110012 434.110012 0 0 0-92.108938-128.00982 439.923283 439.923283 0 0 0-611.846874 0 391.099655 391.099655 0 0 0-118.425776 289.681627 414.863368 414.863368 0 0 0 121.76448 296.398312 454.260069 454.260069 0 0 0 177.619026 104.403222l-59.193249 134.726506H248.979099a34.840353 34.840353 0 0 0-36.175834 16.850633 43.874492 43.874492 0 0 0 0 40.417951c6.55957 13.472651 19.639432 16.850633 36.175834 16.850633h526.336786a34.840353 34.840353 0 0 0 36.175834-16.850633 43.874492 43.874492 0 0 0 0-40.417951 52.280169 52.280169 0 0 0-36.175834-16.850633h-69.091523l-59.193249-144.821174a831.808516 831.808516 0 0 0 78.950518-37.039969 397.659225 397.659225 0 0 0 213.716302-353.666897zM512.068934 113.673034a62.217722 62.217722 0 0 1 39.278865 13.472651 54.67618 54.67618 0 0 1 16.457844 37.039969 56.757959 56.757959 0 0 1-52.633678 50.51262A51.88738 51.88738 0 0 1 462.538286 164.185654a49.059302 49.059302 0 0 1 49.530648-50.51262z m0 589.457921a220.982892 220.982892 0 0 1 13.15842-441.258765 218.115535 218.115535 0 0 1 213.79486 218.940392 229.859916 229.859916 0 0 1-65.792098 158.333103 244.23598 244.23598 0 0 1-161.161182 63.945991z m0 0V319.140775a163.400077 163.400077 0 0 0-151.302186 171.805754 160.336325 160.336325 0 0 0 164.460606 158.333103 162.810894 162.810894 0 0 0 157.901036-164.971232 170.273878 170.273878 0 0 0-171.059456-168.427771z m0 0"  p-id="5421"></path></svg>