<svg id="图层_1" data-name="图层 1" xmlns="http://www.w3.org/2000/svg" viewBox="0 0 20 20"><defs><style>.cls-1{fill:#2e4054;}</style></defs><path class="cls-1" d="M14,8.32v0a.4.4,0,0,1,.1-.36.51.51,0,0,1,.16-.09.37.37,0,0,1,.39.09L16.75,10l-.15.14L9.92,16.82l-2.19-2.2a.39.39,0,0,0-.55,0,.41.41,0,0,0-.11.35v0a.19.19,0,0,0,0,.08,1.68,1.68,0,1,1-2.16-1,1.71,1.71,0,0,1,1.16,0l.06,0a.38.38,0,0,0,.48-.26.38.38,0,0,0-.1-.39l-3.3-3.3,2.8-2.79a.39.39,0,0,0,0-.55.38.38,0,0,0-.36-.11h0l-.09,0a1.69,1.69,0,1,1,1-2.16,1.65,1.65,0,0,1,0,1.16.38.38,0,0,0,.19.51.37.37,0,0,0,.43-.08l2.84-2.83,3.44,3.43a.4.4,0,0,1,0,.56.38.38,0,0,1-.38.09l-.06,0a1.67,1.67,0,1,0,1,1,.2.2,0,0,1,0-.08Z"/></svg>