<?xml version="1.0" standalone="no"?><!DOCTYPE svg PUBLIC "-//W3C//DTD SVG 1.1//EN" "http://www.w3.org/Graphics/SVG/1.1/DTD/svg11.dtd"><svg t="1615168166682" class="icon" viewBox="0 0 1024 1024" version="1.1" xmlns="http://www.w3.org/2000/svg" p-id="3127" xmlns:xlink="http://www.w3.org/1999/xlink" width="200" height="200"><defs><style type="text/css"></style></defs><path d="M914.28571399 115.80952367h-804.57142798C51.2 115.80952367 0 167.00952369 0 225.52380965v585.14285701c0 58.51428601 51.2 109.71428601 109.71428601 109.71428601h804.57142801c58.51428601 0 109.71428601-51.2 109.71428598-109.71428601v-585.14285701c0-58.51428601-51.2-109.71428601-109.71428598-109.714286z m-804.57142798 73.14285698h804.57142798L563.2 540.03809565c-14.62857101 14.62857101-29.25714299 21.94285701-51.2 21.94285702s-36.57142899-7.31428601-51.2-21.942857L109.71428601 188.95238065zM73.14285701 825.29523765V254.78095267l285.25714299 285.25714298L73.14285701 825.29523765z m80.45714299 21.942858l256-256c29.25714299 29.25714299 65.82857101 43.88571399 102.4 43.885714s73.14285699-14.62857101 102.4-43.885714l43.88571402-43.88571497-43.88571402 43.88571497 256 256H153.6z m797.25714299-36.57142899v14.62857099L665.6 540.03809565 950.85714299 254.78095267v555.88571399z" p-id="3128" ></path></svg>