<?xml version="1.0" encoding="utf-8"?>
<!-- Generator: Adobe Illustrator 24.0.1, SVG Export Plug-In . SVG Version: 6.00 Build 0)  -->
<svg version="1.1" id="图层_1" xmlns="http://www.w3.org/2000/svg" xmlns:xlink="http://www.w3.org/1999/xlink" x="0px" y="0px"
	 viewBox="0 0 12 16" style="enable-background:new 0 0 12 16;" xml:space="preserve">
<style type="text/css">
	.st0{enable-background:new    ;}
	.st1{fill:#206aff;}
</style>
<g class="st0">
	<path class="st1" d="M11.1,13.1c0,0.5-0.4,0.9-0.9,0.9H1.7c-0.5,0-0.9-0.4-0.9-0.9V8c0-0.5,0.4-0.9,0.9-0.9H2V5.4c0-2.2,1.8-4,4-4
		s4,1.8,4,4v1.7h0.3c0.5,0,0.9,0.4,0.9,0.9V13.1z M8.3,7.1V5.4c0-1.3-1-2.3-2.3-2.3c-1.3,0-2.3,1-2.3,2.3v1.7H8.3z"/>
</g>
</svg>
