<svg xmlns="http://www.w3.org/2000/svg" xmlns:xlink="http://www.w3.org/1999/xlink" width="161" height="169" viewBox="0 0 161 169">
  <defs>
    <!-- <style>
      .cls-1 {
        fill: #535771;
      }

      .cls-2, .cls-4 {
        fill: #7b80a1;
      }

      .cls-2 {
        stroke: #434a74;
      }

      .cls-3, .cls-7 {
        fill: none;
      }

      .cls-5 {
        fill: #fff;
        opacity: 0.37;
      }

      .cls-6, .cls-8 {
        stroke: none;
      }

      .cls-8 {
        fill: #6d7398;
      }

      .cls-9 {
        filter: url(#路径_1434);
      }

      .cls-10 {
        filter: url(#矩形_175);
      }
    </style> -->
    <filter id="矩形_175" x="79" y="68" width="14" height="66" filterUnits="userSpaceOnUse">
      <feOffset dy="3" input="SourceAlpha"/>
      <feGaussianBlur stdDeviation="1" result="blur"/>
      <feFlood flood-opacity="0.161"/>
      <feComposite operator="in" in2="blur"/>
      <feComposite in="SourceGraphic"/>
    </filter>
    <filter id="路径_1434" x="123" y="50" width="38" height="38" filterUnits="userSpaceOnUse">
      <feOffset dy="3" input="SourceAlpha"/>
      <feGaussianBlur stdDeviation="1" result="blur-2"/>
      <feFlood flood-opacity="0.161"/>
      <feComposite operator="in" in2="blur-2"/>
      <feComposite in="SourceGraphic"/>
    </filter>
  </defs>
  <g id="组_1670" data-name="组 1670" transform="translate(-576 -378)">
    <g id="组_1513" data-name="组 1513" transform="translate(-4.708 6)">
      <g id="组_1514" data-name="组 1514" transform="translate(585 375)">
        <rect id="矩形_174" data-name="矩形 174" class="cls-1" width="94" height="155" transform="translate(1.708 4)"/>
        <g class="cls-10" transform="matrix(1, 0, 0, 1, -4.29, -3)">
          <g id="矩形_175-2" data-name="矩形 175" class="cls-2" transform="translate(82 68)">
            <rect class="cls-6" width="8" height="60"/>
            <rect class="cls-7" x="0.5" y="0.5" width="7" height="59"/>
          </g>
        </g>
        <g id="路径_1433" data-name="路径 1433" class="cls-3" transform="translate(-4.292 -3)">
          <path class="cls-6" d="M0,0H107V169H0Z"/>
          <path class="cls-8" d="M 6 6 L 6 163 L 101 163 L 101 6 L 6 6 M 0 0 L 107 0 L 107 169 L 0 169 L 0 0 Z"/>
        </g>
        <rect id="矩形_322" data-name="矩形 322" class="cls-4" width="72" height="26" transform="translate(13.708 20)"/>
      </g>
    </g>
    <g id="组_1545" data-name="组 1545" transform="translate(-20)">
      <g class="cls-9" transform="matrix(1, 0, 0, 1, 596, 378)">
        <path id="路径_1434-2" data-name="路径 1434" class="cls-4" d="M0,0H32V32H0Z" transform="translate(126 50)"/>
      </g>
      <path id="路径_221" data-name="路径 221" class="cls-5" d="M66.033,11.168h5.491a.6.6,0,0,0,.595-.595V8.892H65.43v1.68a.611.611,0,0,0,.6.595Zm-.595-3.642V8.04h6.649V7.525a.6.6,0,0,0-.563-.595H66.041a.6.6,0,0,0-.6.6Zm-4.9.482h.048l-.048.032Zm4.036,2.549V7.509a1.471,1.471,0,0,1,1.463-1.463h1.608V.418A.434.434,0,0,0,67.231,0H58.29a.434.434,0,0,0-.434.434V15.646a.434.434,0,0,0,.434.434h8.941a.434.434,0,0,0,.434-.434V12.06H66.057A1.463,1.463,0,0,1,64.594,10.6Zm-4.02-1.672a.869.869,0,1,0-.032,0ZM61.876,6.5a.442.442,0,0,1-.434-.434A2.967,2.967,0,0,1,64.393,3.1a.442.442,0,0,1,.434.434.434.434,0,0,1-.434.434,2.082,2.082,0,0,0-2.09,2.09.442.442,0,0,1-.129.306.418.418,0,0,1-.3.137Zm1.833-.354a.434.434,0,1,1-.868,0,1.608,1.608,0,0,1,1.608-1.608.434.434,0,0,1,0,.868.8.8,0,0,0-.756.74Z" transform="translate(674.981 435.96)"/>
    </g>
  </g>
</svg>
