<?xml version="1.0" standalone="no"?><!DOCTYPE svg PUBLIC "-//W3C//DTD SVG 1.1//EN" "http://www.w3.org/Graphics/SVG/1.1/DTD/svg11.dtd"><svg t="1623151390966" class="icon" viewBox="0 0 1024 1024" version="1.1" xmlns="http://www.w3.org/2000/svg" p-id="3212" xmlns:xlink="http://www.w3.org/1999/xlink" width="400" height="400"><defs><style type="text/css"></style></defs><path d="M848 368h-192v-192a32 32 0 0 0-32-32h-448a32 32 0 0 0-32 32v448a32 32 0 0 0 32 32h128a32 32 0 0 0 0-64h-96v-384h384v384h-160v-160H524.8a32 32 0 0 0 0-64h-128a32 32 0 0 0-32 32v448a32 32 0 0 0 32 32h448a32 32 0 0 0 32-32v-448a32 32 0 0 0-28.8-32z m-32 448h-384v-160h192a32 32 0 0 0 32-32v-192h160z" p-id="3213"></path></svg>