<svg xmlns="http://www.w3.org/2000/svg" width="72.154" height="69.9" viewBox="0 0 72.154 69.9">
  <defs>
    <!-- <style>
      .cls-1 {
        fill: #afb9d0;
      }
    </style> -->
  </defs>
  <path id="路径_242" data-name="路径 242" class="cls-1" d="M21.928,64.918a1.816,1.816,0,0,1,.158,2.428l-.158.174-1.872,1.84a1.9,1.9,0,0,1-2.649,0,1.815,1.815,0,0,1-.158-2.428l.158-.174,1.872-1.84a1.9,1.9,0,0,1,2.649,0Zm32.086-1.547.108.187L56,67.236a1.824,1.824,0,0,1-.839,2.469,1.894,1.894,0,0,1-2.4-.636l-.108-.187L50.774,65.2a1.824,1.824,0,0,1,.834-2.467,1.894,1.894,0,0,1,2.406.636Zm.307-14.625c0,10.158-7.966,17.475-17.8,17.475s-17.8-7.317-17.8-17.475h35.59ZM14.435,57.563a1.813,1.813,0,0,1,.158,2.426l-.158.174-3.745,3.68a1.9,1.9,0,0,1-2.649,0,1.815,1.815,0,0,1-.156-2.428l.158-.174,3.743-3.68a1.9,1.9,0,0,1,2.649,0Zm46.932-1.732L61.5,56l3.748,5.518a1.82,1.82,0,0,1-.519,2.55,1.9,1.9,0,0,1-2.467-.338l-.133-.171-3.745-5.518a1.82,1.82,0,0,1,.519-2.55,1.9,1.9,0,0,1,2.467.338ZM40.273,0V13.581C57.989,15.592,71.791,30.178,72.147,48l.007.7H0C0,30.9,13.43,16.163,30.9,13.7V0h9.369Z"/>
</svg>
