<?xml version="1.0" encoding="UTF-8"?>
<svg width="26px" height="26px" viewBox="0 0 26 26" version="1.1" xmlns="http://www.w3.org/2000/svg" xmlns:xlink="http://www.w3.org/1999/xlink">
    <title>二维码</title>
    <g id="页面-1" stroke="none" stroke-width="1" fill="none" fill-rule="evenodd">
        <g id="登陆页" transform="translate(-1258.000000, -709.000000)" fill="#8D90A9" fill-rule="nonzero">
            <g id="二维码" transform="translate(1258.000000, 709.000000)">
                <path d="M18,18 L22,18 L22,14 L26,14 L26,20 L22,20 L22,22 L18,22 L18,20 L14,20 L14,14 L18,14 L18,18 Z M0,14 L12,14 L12,26 L0,26 L0,14 Z M4.00000003,18 L4.00000003,22 L8.00000003,22 L8.00000003,18 L4.00000003,18 Z M0,0 L12,0 L12,12 L0,12 L0,0 Z M4.00000003,4.00000003 L4.00000003,8.00000003 L8.00000003,8.00000003 L8.00000003,4.00000003 L4.00000003,4.00000003 Z M14,0 L26,0 L26,12 L14,12 L14,0 Z M18,4.00000003 L18,8.00000003 L22,8.00000003 L22,4.00000003 L18,4.00000003 Z M22,22 L26,22 L26,26 L22,26 L22,22 Z M14,22 L18,22 L18,26 L14,26 L14,22 Z" id="形状"></path>
            </g>
        </g>
    </g>
</svg>