<?xml version="1.0" encoding="UTF-8"?>
<svg width="26px" height="26px" viewBox="0 0 26 26" version="1.1" xmlns="http://www.w3.org/2000/svg" xmlns:xlink="http://www.w3.org/1999/xlink">
    <title>浏览器1-面型</title>
    <g id="页面-1" stroke="none" stroke-width="1" fill="none" fill-rule="evenodd">
        <g id="登陆页" transform="translate(-1594.000000, -709.000000)" fill="#8D90A9" fill-rule="nonzero">
            <g id="浏览器1-面型" transform="translate(1594.000000, 709.000000)">
                <path d="M25.3538121,8.94146076 C25.7831274,10.2512409 26.001248,11.6210024 25.9999946,12.9993471 C25.9999946,20.1790935 20.1804058,26.0000065 12.9993298,26.0000065 C12.6177396,26.0000065 12.2401381,25.9840515 11.8665254,25.9521415 L17.7100412,16.0600464 C18.2804322,15.1825218 18.6114983,14.1361403 18.6114983,13.0113133 C18.6136126,11.4717399 17.9800138,9.99959703 16.8604379,8.94279033 L25.3538121,8.94146076 Z M2.26693846,5.66270988 L8.04663436,15.6079883 C9.27814785,17.9641583 11.9965177,19.1297295 14.5522824,18.3974527 L10.2337978,25.7048391 C4.38363406,24.4377469 0,19.2297715 0,12.9993471 C0,10.2776914 0.836307506,7.75015466 2.26693846,5.66270988 Z M13.0099665,8.94146076 C14.4537685,8.94087679 15.7898074,9.70527335 16.5209836,10.9502416 C17.2521598,12.1952099 17.2690122,13.7343714 16.5652706,14.9950507 L16.5307014,15.0455748 L16.4230052,15.2317164 C15.6554817,16.4131058 14.3314074,17.1133488 12.9229199,17.082753 C11.5144323,17.0521573 10.2220146,16.2950778 9.50651613,15.0814736 L9.49056113,15.0455748 L9.41610451,14.9205941 C8.74527409,13.6588868 8.78528522,12.1377928 9.52151842,10.9130972 C10.2577516,9.68840159 11.582339,8.93953844 13.0112961,8.94013081 L13.0099665,8.94146076 Z M12.9993298,8.61241848e-06 C18.0142408,-0.000868331681 22.582605,2.8824265 24.7395449,7.40978151 L13.0112961,7.40978151 C10.4136655,7.40968343 8.15661334,9.1950717 7.55867751,11.7229477 L3.28406922,4.36104844 C5.74877518,1.58349374 9.28589917,-0.00426685716 12.9993298,8.61241848e-06 Z" id="形状"></path>
            </g>
        </g>
    </g>
</svg>