<svg id="图层_1" data-name="图层 1" xmlns="http://www.w3.org/2000/svg" viewBox="0 0 346.21 31.1"><defs><style>.cls-1{fill:#3e8fff;}</style></defs><title>logo1</title><path class="cls-1" d="M211.8,138.06a19.15,19.15,0,0,1,4.6-9.6,24.83,24.83,0,0,1,15.4-8.7c3.6-.5,7.1-.1,10.1,2.1a9.25,9.25,0,0,1,2.9,3.3c.1.2.4.5.2.8-.3,0-.4-.3-.6-.5a8.72,8.72,0,0,0-6.8-3.4c-5.8-.3-10.5,2.1-14.5,6.1a16,16,0,0,0-4.9,9.1,8.41,8.41,0,0,0,7.4,9.9,17.75,17.75,0,0,0,11.6-2.9,1.37,1.37,0,0,1,1.1-.4c-.8,1.8-6.9,4.7-12.7,6h-4.3c-.2,0-.4-.1-.6-.1a11,11,0,0,1-7.5-4.7,11.44,11.44,0,0,1-1.4-3.9Z" transform="translate(-211.8 -118.76)"/><path class="cls-1" d="M249.5,128.66c-.8,3.4-3,5.8-5.4,8.1a31.13,31.13,0,0,1-10.2,6.1,31.48,31.48,0,0,0-5.9,2.7c-.5.3-.7.1-.6-.4.4-4.1,1.9-7.5,5.5-9.7a14.43,14.43,0,0,0,3.2-2.3q1.5-1.5-.6-2.1a3.94,3.94,0,0,0-2.4.1,12.62,12.62,0,0,0-4.4,2.4c-.1.1-.3.3-.5.2s-.2-.3-.1-.5c.5-3,1.6-5.7,4.4-7.3a7.65,7.65,0,0,1,5.9-.7c4.3,1.2,5.5,6.1,2.4,9.5-.7.7-1.4,1.3-2.1,1.9a20.65,20.65,0,0,0,4-2.5,13.52,13.52,0,0,0,3.7-4.2,5.17,5.17,0,0,0-.9-6.4,16.5,16.5,0,0,0-5.7-3.7c-.4-.2-.7-.3-1.1-.5s-.4-.3-.2-.6h.8c1.2.4,2.5.8,3.7,1.3,3,1.3,5.6,2.9,6.5,6.4Z" transform="translate(-211.8 -118.76)"/><g id="页面-1"><g id="登陆页"><g id="编组-15"><g id="智慧十二师网格化服务管理平台"><path id="形状" class="cls-1" d="M261.87,134.3a.7.7,0,0,1-.44-.12.43.43,0,0,1-.16-.34.94.94,0,0,1,.16-.47l1.19-1.84H261.3a.66.66,0,0,1-.52-.21.84.84,0,0,1-.19-.59v-1.1a.79.79,0,0,1,.19-.56.66.66,0,0,1,.52-.21h3v-1.05h-.33c-.06.32-.3.48-.73.48h-1.78a.64.64,0,0,1-.45-.15.57.57,0,0,1-.17-.44,1.44,1.44,0,0,1,0-.24l.49-2.18a.72.72,0,0,1,.77-.66h1.78a1.48,1.48,0,0,1,.56.08c.14,0,.2.11.19.18l-.07.27h5.11a.64.64,0,0,1,.51.21.78.78,0,0,1,.19.56V127a.79.79,0,0,1-.19.56.64.64,0,0,1-.51.21H268v1.05h1.82a.67.67,0,0,1,.52.21.84.84,0,0,1,.19.56v1.1a.89.89,0,0,1-.19.59.67.67,0,0,1-.52.21h-3.41L265,133.81a.9.9,0,0,1-.83.49ZM279.69,125a.64.64,0,0,1,.51.21.78.78,0,0,1,.19.56v7.72a.79.79,0,0,1-.19.56.64.64,0,0,1-.51.21h-8.1a.67.67,0,0,1-.52-.21.84.84,0,0,1-.18-.56v-7.77a.84.84,0,0,1,.18-.56.67.67,0,0,1,.52-.21Zm-5.06,2.88v3.47h2v-3.47ZM269.35,132a.8.8,0,0,1,.81.57l.33.82a.92.92,0,0,1,.09.39.47.47,0,0,1-.17.38.75.75,0,0,1-.45.13h-2.24a.83.83,0,0,1-.81-.57l-.36-.84a1,1,0,0,1-.08-.37.46.46,0,0,1,.16-.38.69.69,0,0,1,.45-.13Zm-7.06,3.7a.82.82,0,0,1,.18-.56.67.67,0,0,1,.52-.21h15.6a.64.64,0,0,1,.51.21.78.78,0,0,1,.19.56v7.5a.79.79,0,0,1-.19.56.64.64,0,0,1-.51.21H263a.67.67,0,0,1-.52-.21.84.84,0,0,1-.18-.56Zm3.74,2.72h9.52v-.7H266Zm9.52,2H266v.71h9.52Z" transform="translate(-211.8 -118.76)"/><path id="形状-2" data-name="形状" class="cls-1" d="M283.31,131.15a.8.8,0,0,1-.6-.27,1,1,0,0,1-.25-.67.93.93,0,0,1,.25-.67.78.78,0,0,1,.6-.28h2v-.35h-1.62a.72.72,0,0,1-.54-.25.84.84,0,0,1-.23-.61.8.8,0,0,1,.23-.59.72.72,0,0,1,.54-.25h1.62v-.37h-1.87a.79.79,0,0,1-.59-.26,1,1,0,0,1-.24-.66.91.91,0,0,1,.24-.64.76.76,0,0,1,.59-.27h1.87a.33.33,0,0,1,.19-.28,1.09,1.09,0,0,1,.52-.11h2.33c.47,0,.7.06.7.2V125h2.05a.75.75,0,0,1,.59.27.87.87,0,0,1,.25.64.92.92,0,0,1-.25.66.77.77,0,0,1-.59.26H289v.37h1.74a.72.72,0,0,1,.54.25.8.8,0,0,1,.23.59.84.84,0,0,1-.23.61.72.72,0,0,1-.54.25H289v.35h2a.78.78,0,0,1,.61.28.93.93,0,0,1,.25.67,1,1,0,0,1-.25.67.8.8,0,0,1-.61.27h-2a.33.33,0,0,1-.18.29,1.09,1.09,0,0,1-.52.11H286a1.09,1.09,0,0,1-.52-.11.34.34,0,0,1-.19-.29Zm9.88,0a.8.8,0,0,1-.6-.27,1,1,0,0,1-.26-.67.94.94,0,0,1,.26-.67.78.78,0,0,1,.6-.28h2v-.35h-1.74a.72.72,0,0,1-.53-.25.85.85,0,0,1-.24-.61.81.81,0,0,1,.24-.59.72.72,0,0,1,.53-.25h1.74v-.37h-2a.79.79,0,0,1-.59-.26,1,1,0,0,1-.25-.66.92.92,0,0,1,.25-.64.76.76,0,0,1,.59-.27h2a.33.33,0,0,1,.19-.28,1.06,1.06,0,0,1,.52-.11h2.33c.47,0,.7.06.7.2V125h1.83a.76.76,0,0,1,.59.27.91.91,0,0,1,.24.64,1,1,0,0,1-.24.66.79.79,0,0,1-.59.26h-1.83v.37h1.65a.72.72,0,0,1,.54.25.8.8,0,0,1,.23.59.84.84,0,0,1-.23.61.72.72,0,0,1-.54.25h-1.65v.35h2a.78.78,0,0,1,.61.28.93.93,0,0,1,.25.67,1,1,0,0,1-.25.67.8.8,0,0,1-.61.27h-2a.33.33,0,0,1-.18.29,1.09,1.09,0,0,1-.52.11h-2.33a1.06,1.06,0,0,1-.52-.11.34.34,0,0,1-.19-.29Zm8,6.4a.84.84,0,0,1-.19.59.64.64,0,0,1-.51.21H283.45a.86.86,0,0,1-.65-.31,1,1,0,0,1-.28-.73,1,1,0,0,1,.28-.71.85.85,0,0,1,.65-.3h14v-.44H283.64a.68.68,0,0,1-.51-.23.79.79,0,0,1-.21-.56.73.73,0,0,1,.22-.54.69.69,0,0,1,.5-.23h13.82v-.44h-14a.85.85,0,0,1-.65-.3,1,1,0,0,1-.28-.71,1,1,0,0,1,.28-.72.85.85,0,0,1,.65-.3H300.5a.64.64,0,0,1,.51.21.79.79,0,0,1,.19.56Zm-18.41,1.83a.68.68,0,0,1,.74-.68h2.4c.44,0,.66.21.66.64a.5.5,0,0,1,0,.19l-.64,3.77a.69.69,0,0,1-.75.68h-2.39a.69.69,0,0,1-.49-.17.61.61,0,0,1-.17-.45.56.56,0,0,1,0-.2Zm13.75,2.22a.64.64,0,0,1,.51.21.79.79,0,0,1,.19.56v.84a.79.79,0,0,1-.19.56.64.64,0,0,1-.51.21H288a.7.7,0,0,1-.52-.2.81.81,0,0,1-.18-.57l0-3.74a.82.82,0,0,1,.19-.56.67.67,0,0,1,.52-.21h2.33a.67.67,0,0,1,.52.21.82.82,0,0,1,.18.56v2.13ZM292,139.49c0-.53.18-.79.66-.79H295a.68.68,0,0,1,.5.19.74.74,0,0,1,.22.53l.11,1.08c.05.53-.17.79-.66.79H292.8a.7.7,0,0,1-.5-.18,1,1,0,0,1-.23-.54Zm10,3.67a.56.56,0,0,1,0,.2.61.61,0,0,1-.17.45.69.69,0,0,1-.49.17h-2.4a.68.68,0,0,1-.74-.68l-.64-3.77a.5.5,0,0,1,0-.19c0-.43.22-.64.66-.64h2.39a.69.69,0,0,1,.75.68Z" transform="translate(-211.8 -118.76)"/><path id="路径" class="cls-1" d="M322.85,133.84a.84.84,0,0,1-.19.56.67.67,0,0,1-.52.21h-6.69v8.6a.84.84,0,0,1-.18.56.67.67,0,0,1-.52.21h-2.33a.67.67,0,0,1-.52-.21.84.84,0,0,1-.19-.56v-8.6H305a.66.66,0,0,1-.52-.21.79.79,0,0,1-.19-.56v-1.35a.83.83,0,0,1,.19-.58.66.66,0,0,1,.52-.21h6.68v-6.31a.82.82,0,0,1,.19-.56.67.67,0,0,1,.52-.21h2.33a.67.67,0,0,1,.52.21.82.82,0,0,1,.18.56v6.31h6.69a.67.67,0,0,1,.52.21.88.88,0,0,1,.19.58Z" transform="translate(-211.8 -118.76)"/><path id="形状-3" data-name="形状" class="cls-1" d="M342.44,126.4a.66.66,0,0,1,.52.21.79.79,0,0,1,.19.56v1.36a.8.8,0,0,1-.19.57.65.65,0,0,1-.52.2h-15a.65.65,0,0,1-.52-.2.8.8,0,0,1-.19-.57v-1.36a.79.79,0,0,1,.19-.56.66.66,0,0,1,.52-.21ZM343.76,140a.66.66,0,0,1,.52.21.79.79,0,0,1,.19.56v1.37a.79.79,0,0,1-.19.56.66.66,0,0,1-.52.21H326.08a.66.66,0,0,1-.52-.21.79.79,0,0,1-.19-.56v-1.37a.79.79,0,0,1,.19-.56.66.66,0,0,1,.52-.21Z" transform="translate(-211.8 -118.76)"/><path id="形状-4" data-name="形状" class="cls-1" d="M350.08,125.37a.78.78,0,0,1,.18-.55.66.66,0,0,1,.52-.2h1.91a.66.66,0,0,1,.52.21.73.73,0,0,1,.17.56l-.4,17.84a.74.74,0,0,1-.19.55.66.66,0,0,1-.51.2h-1.92a.67.67,0,0,1-.52-.21.74.74,0,0,1-.16-.56Zm11.77,4.09h3.67a.67.67,0,0,1,.52.21.82.82,0,0,1,.18.56v11.09a.84.84,0,0,1-.18.56.67.67,0,0,1-.52.21H363a.66.66,0,0,1-.52-.21.79.79,0,0,1-.19-.56v-1.21a1.42,1.42,0,0,1,.09-.56.29.29,0,0,1,.26-.21h.33v-7h-1.07v10.89a.84.84,0,0,1-.19.56.67.67,0,0,1-.52.21h-2.29a.64.64,0,0,1-.51-.21.79.79,0,0,1-.19-.56V132.32h-1.08v9.08a.84.84,0,0,1-.19.59.64.64,0,0,1-.51.21h-1.89A.66.66,0,0,1,354,142a.84.84,0,0,1-.19-.59V130.23a.78.78,0,0,1,.19-.56.66.66,0,0,1,.52-.21h3.67v-1.39h-3.7a.64.64,0,0,1-.51-.21.78.78,0,0,1-.19-.56V126a.81.81,0,0,1,.19-.58.64.64,0,0,1,.51-.21h11.31a.67.67,0,0,1,.52.21.86.86,0,0,1,.19.58v1.34a.82.82,0,0,1-.19.56.67.67,0,0,1-.52.21h-3.91Zm-15.12-2.16a.79.79,0,0,1,.19-.56.66.66,0,0,1,.52-.21h1.14a.67.67,0,0,1,.52.21.84.84,0,0,1,.18.56V140a.82.82,0,0,1-.18.56.67.67,0,0,1-.52.21h-1.14a.66.66,0,0,1-.52-.21.78.78,0,0,1-.19-.56Z" transform="translate(-211.8 -118.76)"/><path id="形状-5" data-name="形状" class="cls-1" d="M386.37,125.06a.67.67,0,0,1,.52.21.82.82,0,0,1,.19.56v17.36a.84.84,0,0,1-.19.56.67.67,0,0,1-.52.21h-4.82a.64.64,0,0,1-.51-.21.79.79,0,0,1-.19-.56v-.84a.79.79,0,0,1,.19-.56.64.64,0,0,1,.51-.21h1.79V141h-1a.79.79,0,0,1-.79-.64l-.9-3-.86,3.3a.75.75,0,0,1-.79.66h-1.12a3.25,3.25,0,0,1-.6,0c-.14,0-.21-.07-.19-.11l0-.13h-.51a.79.79,0,0,1-.79-.64l-.9-3-.86,3.3a.75.75,0,0,1-.79.66H372.2v1.92a.84.84,0,0,1-.18.56.67.67,0,0,1-.52.21h-2.33a.67.67,0,0,1-.52-.21.84.84,0,0,1-.19-.56V125.83a.82.82,0,0,1,.19-.56.67.67,0,0,1,.52-.21Zm-14.17,4.16h1.41a.76.76,0,0,1,.79.63l.44,1.61.36-1.58a.72.72,0,0,1,.77-.66h3.36a.76.76,0,0,1,.79.63l.44,1.61.36-1.58a.72.72,0,0,1,.77-.66h1.65V128H372.2Zm6.67,5.39-1.23-4.67-1,4.71,1.17,4Zm4.47-4.6-1,4.64,1,3.45Zm-10.19,4.6-.95-3.55V138Z" transform="translate(-211.8 -118.76)"/><path id="形状-6" data-name="形状" class="cls-1" d="M400.63,128.86a.69.69,0,0,1-.73.4h-2.57c-.4,0-.6-.18-.6-.53a1,1,0,0,1,.07-.37l1.23-3.17a.81.81,0,0,1,.79-.57h2.55a1.07,1.07,0,0,1,.6.13.27.27,0,0,1,.11.35l-.2.49h5.9a.64.64,0,0,1,.51.21.78.78,0,0,1,.19.56V128a1.83,1.83,0,0,1-.26,1l-1.59,2.51,1.89,2.46a.83.83,0,0,1,.2.51.39.39,0,0,1-.15.32.72.72,0,0,1-.44.12l-3.17,0a1,1,0,0,1-.84-.44l-1.4-1.81-1.57,1.81a1.06,1.06,0,0,1-.85.41H397a.7.7,0,0,1-.44-.12.38.38,0,0,1-.15-.32.73.73,0,0,1,.22-.5l2-2.36-.53-.83a.89.89,0,0,1-.15-.46.41.41,0,0,1,.15-.34.72.72,0,0,1,.44-.13h3a.94.94,0,0,1,.83.44l.29.47,1.43-2.16h-3.28Zm-6.32,14.35a.79.79,0,0,1-.19.56.64.64,0,0,1-.51.21h-2.25a.64.64,0,0,1-.51-.21.79.79,0,0,1-.19-.56V130.43h-.92a.66.66,0,0,1-.52-.21.79.79,0,0,1-.19-.56v-1.37a.79.79,0,0,1,.19-.56.66.66,0,0,1,.52-.21h.92v-2.11a.79.79,0,0,1,.19-.56.64.64,0,0,1,.51-.21h2.25a.64.64,0,0,1,.51.21.79.79,0,0,1,.19.56v2.11h.79a.66.66,0,0,1,.52.21.84.84,0,0,1,.19.56v1.37a.84.84,0,0,1-.19.56.66.66,0,0,1-.52.21h-.79Zm-5-11.49a.52.52,0,0,1,.14-.39.47.47,0,0,1,.36-.16.45.45,0,0,1,.35.18.57.57,0,0,1,.16.4L390,143.49a.53.53,0,0,1-.14.4.49.49,0,0,1-.36.15.44.44,0,0,1-.35-.17.57.57,0,0,1-.16-.4Zm5.87-.55a.45.45,0,0,1,.36.17.55.55,0,0,1,.15.38l.22,11.75a.61.61,0,0,1-.16.4.46.46,0,0,1-.71,0,.56.56,0,0,1-.15-.39l-.22-11.74a.57.57,0,0,1,.16-.4A.45.45,0,0,1,395.17,131.17Zm1.5,4.91a.84.84,0,0,1,.18-.56.67.67,0,0,1,.52-.21h10.45a.67.67,0,0,1,.52.21.84.84,0,0,1,.18.56v7.13a.84.84,0,0,1-.18.56.67.67,0,0,1-.52.21H397.37a.67.67,0,0,1-.52-.21.84.84,0,0,1-.18-.56Zm3.74,5h4.37v-2.86h-4.37Z" transform="translate(-211.8 -118.76)"/><path id="形状-7" data-name="形状" class="cls-1" d="M417,124.62c.41,0,.62.18.62.55a1.22,1.22,0,0,1-.07.33l-1.76,4.9h.77a.67.67,0,0,1,.52.21.84.84,0,0,1,.18.56v12a.84.84,0,0,1-.18.56.67.67,0,0,1-.52.21h-2.33a.67.67,0,0,1-.52-.21.84.84,0,0,1-.19-.56V134.3l-2,0a.61.61,0,0,1-.45-.16.54.54,0,0,1-.17-.42,1,1,0,0,1,.07-.33l2.93-8.2a.8.8,0,0,1,.81-.6Zm7.68,16.45h4.77a.67.67,0,0,1,.52.21.84.84,0,0,1,.19.56v1.37a.84.84,0,0,1-.19.56.67.67,0,0,1-.52.21h-7.81a.67.67,0,0,1-.52-.21.84.84,0,0,1-.18-.56v-5.68l-2.2,1.39a.78.78,0,0,1-.4.13.37.37,0,0,1-.32-.18.81.81,0,0,1-.12-.48v-2.18a1,1,0,0,1,.49-.9l2.55-1.61v-8.31a.82.82,0,0,1,.18-.56.67.67,0,0,1,.52-.21H424a.66.66,0,0,1,.52.21.78.78,0,0,1,.19.56v6l5.08-3.19a.74.74,0,0,1,.4-.15.36.36,0,0,1,.31.18.84.84,0,0,1,.13.5v2.2a1,1,0,0,1-.49.9l-5.43,3.41Z" transform="translate(-211.8 -118.76)"/><path id="形状-8" data-name="形状" class="cls-1" d="M432.32,125.7c0-.5.25-.75.7-.75h7a.67.67,0,0,1,.52.21.82.82,0,0,1,.18.56v17.44a.85.85,0,0,1-.18.57.66.66,0,0,1-.52.2h-3.21a.65.65,0,0,1-.52-.2.85.85,0,0,1-.19-.57v-1.25a.89.89,0,0,1,.16-.56.48.48,0,0,1,.41-.21h.58V138.3h-1.76l-.14,4.89c0,.5-.24.74-.7.74h-2.09a.66.66,0,0,1-.52-.2.75.75,0,0,1-.16-.57ZM449.7,144a.84.84,0,0,1-.81-.55l-.69-1.54-.61,1.51a.83.83,0,0,1-.82.58H442a.67.67,0,0,1-.52-.21.84.84,0,0,1-.19-.56V125.72a.82.82,0,0,1,.19-.56A.67.67,0,0,1,442,125h8.67a.64.64,0,0,1,.51.21.78.78,0,0,1,.19.56v5.37a.79.79,0,0,1-.19.56.64.64,0,0,1-.51.21H447.3a.64.64,0,0,1-.51-.21.79.79,0,0,1-.19-.56V130a.94.94,0,0,1,.17-.59.61.61,0,0,1,.49-.21h.64v-1.38h-3.19v4.66h6.46a.66.66,0,0,1,.52.21.79.79,0,0,1,.19.56v1.45a4.39,4.39,0,0,1-.13.95l-1.24,4.18,1.24,3.26a1.22,1.22,0,0,1,.06.35.46.46,0,0,1-.16.38.64.64,0,0,1-.45.15Zm-14-13.64h1.54v-2.47h-1.48Zm1.54,2.75h-1.61l-.09,2.46h1.7Zm7.48,3.16H447a.81.81,0,0,1,.81.62l.42,1.17.82-2.75h-4.29Zm1.25,3.66-1.25-3.3v6.29Z" transform="translate(-211.8 -118.76)"/><path id="形状-9" data-name="形状" class="cls-1" d="M454.82,134a.83.83,0,0,1-.45-.11.33.33,0,0,1-.16-.29c0-.17.13-.35.39-.52l3.46-2.12-1.74-1.12a.69.69,0,0,1-.37-.53.32.32,0,0,1,.16-.28.83.83,0,0,1,.45-.11h3.79a1.61,1.61,0,0,1,.85.24l2.09,1.23,3.46-2.42h-7.31l0,0a.93.93,0,0,1-.83.51h-3.41a.64.64,0,0,1-.44-.13.43.43,0,0,1-.16-.35.9.9,0,0,1,.13-.44l1.46-2.45a.94.94,0,0,1,.83-.5h3.41a1.94,1.94,0,0,1,.66.09c.16.06.22.12.18.19l-.18.29h11.07a.64.64,0,0,1,.51.21.81.81,0,0,1,.19.58v1.34a1.19,1.19,0,0,1-.1.53,1,1,0,0,1-.34.4l-3.69,2.86,3.05,2c.25.17.38.35.38.52a.34.34,0,0,1-.17.29.83.83,0,0,1-.45.11h-4.13a1.78,1.78,0,0,1-.86-.24l-3.17-1.87-2.88,1.85a1.9,1.9,0,0,1-.86.26Zm16.81,1.23a.67.67,0,0,1,.52.21.84.84,0,0,1,.19.56v7.22a.84.84,0,0,1-.19.56.67.67,0,0,1-.52.21h-7.26a.67.67,0,0,1-.52-.21.84.84,0,0,1-.18-.56V142a.87.87,0,0,1,.18-.58.67.67,0,0,1,.52-.21h4.23v-3h-6.78L459,143.45a.91.91,0,0,1-.84.53h-2.82a.72.72,0,0,1-.44-.13.49.49,0,0,1-.15-.38.94.94,0,0,1,.11-.42l2.6-4.92h-3.08a.66.66,0,0,1-.52-.21.79.79,0,0,1-.19-.56V136a.79.79,0,0,1,.19-.56.66.66,0,0,1,.52-.21H459l.19-.39a.94.94,0,0,1,.84-.53h2.79a.64.64,0,0,1,.44.13.44.44,0,0,1,.16.37.88.88,0,0,1-.11.42Z" transform="translate(-211.8 -118.76)"/><path id="形状-10" data-name="形状" class="cls-1" d="M478.76,128.91a.75.75,0,0,1-.77.64h-2.4a.69.69,0,0,1-.49-.16.57.57,0,0,1-.17-.44,1.12,1.12,0,0,1,0-.24l.86-3.45a.74.74,0,0,1,.77-.66H479a1.07,1.07,0,0,1,.56.11.28.28,0,0,1,.14.33l-.11.46h4.07a.67.67,0,0,1,.52.21.82.82,0,0,1,.19.56v.86a.91.91,0,0,1-.16.58.51.51,0,0,1-.44.21h-.59l0,.15a.56.56,0,0,1,0,.2.62.62,0,0,1-.16.47.65.65,0,0,1-.48.17h-1.95a.65.65,0,0,1-.73-.51l-.09-.48H479Zm15.11-3.37a.67.67,0,0,1,.52.21.84.84,0,0,1,.18.56v.88a.82.82,0,0,1-.18.56.67.67,0,0,1-.52.21H492.7l.18.75a1.16,1.16,0,0,1,0,.26.51.51,0,0,1-.17.42.65.65,0,0,1-.46.16h-1.94a.74.74,0,0,1-.77-.64l-.24-1h-.75l-.07.29a.73.73,0,0,1-.77.66h-2.42a.65.65,0,0,1-.46-.17.58.58,0,0,1-.17-.43,1.16,1.16,0,0,1,0-.26l.66-2.79a.74.74,0,0,1,.77-.66h2.42a1,1,0,0,1,.55.12.3.3,0,0,1,.13.34l-.11.48Zm-.22,4.47a.67.67,0,0,1,.52.21.86.86,0,0,1,.18.58v2.95a.84.84,0,0,1-.18.56.67.67,0,0,1-.52.21h-1.41v2.92a.85.85,0,0,1-.18.57.66.66,0,0,1-.52.2H480.63v.6h11.7a.67.67,0,0,1,.52.21.82.82,0,0,1,.18.56v3.63a.84.84,0,0,1-.18.56.67.67,0,0,1-.52.21H477.59a.67.67,0,0,1-.52-.21.84.84,0,0,1-.18-.56v-8.69H476a.66.66,0,0,1-.52-.21.79.79,0,0,1-.19-.56V130.8a.81.81,0,0,1,.19-.58A.66.66,0,0,1,476,130h6.82a.65.65,0,0,1,.13-.55.68.68,0,0,1,.53-.2h2.44a.78.78,0,0,1,.52.18.75.75,0,0,1,.23.52v0ZM479,132.58v.66h11.57v-.66Zm1.59,2.88v.77h7.87v-.77Zm0,6.1h8.66v-.77h-8.66Z" transform="translate(-211.8 -118.76)"/><path id="形状-11" data-name="形状" class="cls-1" d="M515.54,141.07a.64.64,0,0,1,.51.21.79.79,0,0,1,.19.56v1.37a.79.79,0,0,1-.19.56.64.64,0,0,1-.51.21H504.16a.64.64,0,0,1-.51-.21.79.79,0,0,1-.19-.56v-1.37a.79.79,0,0,1,.19-.56.64.64,0,0,1,.51-.21h3.92v-1.29H504.8a.67.67,0,0,1-.52-.21.89.89,0,0,1-.18-.59v-1.34a.84.84,0,0,1,.18-.56.67.67,0,0,1,.52-.21h3.28v-1.3h-3.37a.63.63,0,0,1-.51-.2.8.8,0,0,1-.19-.57v-9.43a.78.78,0,0,1,.19-.56.64.64,0,0,1,.51-.21h10.41a.67.67,0,0,1,.52.21.82.82,0,0,1,.18.56v9.43a.85.85,0,0,1-.18.57.66.66,0,0,1-.52.2h-3.3v1.3H515a.64.64,0,0,1,.51.21.79.79,0,0,1,.19.56V139a.84.84,0,0,1-.19.59.64.64,0,0,1-.51.21h-3.17v1.29Zm-13.14-8.91a.66.66,0,0,1,.52.21.79.79,0,0,1,.19.56v1.37a.79.79,0,0,1-.19.56.66.66,0,0,1-.52.21h-.88v5.23l.77-.06a.59.59,0,0,1,.54.15.82.82,0,0,1,.19.6v1.36a.69.69,0,0,1-.66.79l-5.54.44a.59.59,0,0,1-.54-.15.82.82,0,0,1-.19-.6v-1.36a.7.7,0,0,1,.66-.79l1-.09v-5.52h-.72a.67.67,0,0,1-.52-.21.84.84,0,0,1-.19-.56v-1.37a.84.84,0,0,1,.19-.56.67.67,0,0,1,.52-.21h.72v-4.35h-1a.67.67,0,0,1-.52-.21.84.84,0,0,1-.18-.56v-1.37a.84.84,0,0,1,.18-.56.67.67,0,0,1,.52-.21h6a.64.64,0,0,1,.51.21.79.79,0,0,1,.19.56V127a.79.79,0,0,1-.19.56.64.64,0,0,1-.51.21h-1.24v4.35Zm5-3h1.08v-1.65h-1.08Zm3.85-1.65v1.65h1.1v-1.65Zm-2.77,5.28v-1.63h-1.08v1.63Zm3.87-1.63h-1.1v1.63h1.1Z" transform="translate(-211.8 -118.76)"/><path id="形状-12" data-name="形状" class="cls-1" d="M537.29,137.86a.82.82,0,0,1-.18.56.67.67,0,0,1-.52.21h-7.15v4.56a.79.79,0,0,1-.19.56.66.66,0,0,1-.52.21H526.4a.64.64,0,0,1-.51-.21.79.79,0,0,1-.19-.56v-4.56h-7.15a.67.67,0,0,1-.52-.21.82.82,0,0,1-.19-.56v-1.34a.86.86,0,0,1,.19-.58.67.67,0,0,1,.52-.21h7.15v-8h-6.47a.66.66,0,0,1-.52-.2.89.89,0,0,1-.18-.59v-1.34a.84.84,0,0,1,.18-.56.67.67,0,0,1,.52-.21H536a.67.67,0,0,1,.52.21.84.84,0,0,1,.18.56V127a.89.89,0,0,1-.18.59.66.66,0,0,1-.52.2h-6.51v8h7.15a.67.67,0,0,1,.52.21.86.86,0,0,1,.18.58Zm-13-3.87a1.16,1.16,0,0,1,0,.26.59.59,0,0,1-.18.46.63.63,0,0,1-.46.16h-2.37a.78.78,0,0,1-.8-.66l-1.25-4.71a1,1,0,0,1,0-.26.57.57,0,0,1,.17-.45.65.65,0,0,1,.46-.17h2.38a.75.75,0,0,1,.79.66Zm7.15.88a.67.67,0,0,1-.47-.16.62.62,0,0,1-.17-.46,1.16,1.16,0,0,1,0-.26l1.26-4.71a.77.77,0,0,1,.79-.66h2.37a.68.68,0,0,1,.47.17.61.61,0,0,1,.17.45,1,1,0,0,1,0,.26l-1.26,4.71a.75.75,0,0,1-.79.66Z" transform="translate(-211.8 -118.76)"/><path id="形状-13" data-name="形状" class="cls-1" d="M540,130.25a1.58,1.58,0,0,1,.28-.92l2.93-4.25a.94.94,0,0,1,.84-.46H547a.75.75,0,0,1,.45.12.4.4,0,0,1,.17.34.93.93,0,0,1-.18.46l-2.81,4.18h8.91l-.88-2.81a2,2,0,0,1,0-.31c0-.38.21-.57.62-.57h2.38a.78.78,0,0,1,.79.63l1.56,5.11a1.7,1.7,0,0,1,0,.31c0,.36-.2.55-.61.55H540.72a.67.67,0,0,1-.52-.21.84.84,0,0,1-.18-.56Zm.61,4.25a.82.82,0,0,1,.19-.56.66.66,0,0,1,.52-.21h15.42a.67.67,0,0,1,.52.21.82.82,0,0,1,.18.56v8.66a.85.85,0,0,1-.18.57.66.66,0,0,1-.52.2H541.34a.65.65,0,0,1-.52-.2.85.85,0,0,1-.19-.57ZM553.72,141v-4.4h-9.35V141Z" transform="translate(-211.8 -118.76)"/></g></g></g></g></svg>