<?xml version="1.0" encoding="UTF-8"?>
<svg width="48px" height="48px" viewBox="0 0 48 48" version="1.1" xmlns="http://www.w3.org/2000/svg" xmlns:xlink="http://www.w3.org/1999/xlink">
    <title>账户登录</title>
    <defs>
        <polyline id="path-1" points="0 0 48 48 48 0"></polyline>
    </defs>
    <g id="页面-1" stroke="none" stroke-width="1" fill="none" fill-rule="evenodd">
        <g id="登陆页-二维码" transform="translate(-1872.000000, 0.000000)">
            <g id="账户登录" transform="translate(1872.000000, 0.000000)">
                <mask id="mask-2" fill="white">
                    <use xlink:href="#path-1"></use>
                </mask>
                <use id="蒙版" fill="#F0F3F0" xlink:href="#path-1"></use>
                <g id="pc" mask="url(#mask-2)" fill-rule="nonzero">
                    <g transform="translate(24.000000, 12.000000)">
                        <path d="M15.0020631,0 L1,0 C0.447916063,0 0,0.483085757 0,1.07851704 L0,13.3084509 C0,13.9038822 0.447916063,14.3869679 1,14.3869679 L6.8520741,14.3869679 L6.66874101,16.5709649 L5.99582525,16.5709649 C5.63124241,16.5709649 5.33332615,16.8900262 5.33332615,17.2854825 C5.33332615,17.6786918 5.62915908,18 5.99582525,18 L9.97081989,18 C10.3374861,18 10.633319,17.6809387 10.633319,17.2854825 C10.633319,16.8922731 10.3374861,16.5709649 9.97081989,16.5709649 L9.33332075,16.5709649 L9.14998767,14.3869679 L15.0020631,14.3869679 C15.5541457,14.3869679 16.0020618,13.9061291 15.9999857,13.3106978 L15.9999857,1.07851704 C16.0020618,0.483085757 15.5541457,0 15.0020631,0 Z M7.22915692,12.9444514 C7.22915692,12.4905755 7.57082313,12.1220821 7.9916559,12.1220821 C8.41248866,12.1220821 8.75415487,12.4905755 8.75415487,12.9444514 C8.75415487,13.3983273 8.41248866,13.7668206 7.9916559,13.7668206 C7.5687398,13.7668206 7.22915692,13.3983273 7.22915692,12.9444514 Z M14.6499803,11.5086756 L1.33333154,11.5086756 L1.33333154,1.44026963 L14.6499803,1.44026963 L14.6499803,11.5086756 Z" id="形状" fill="#388CFF"></path>
                        <polygon id="路径" fill="#FFFFFF" points="15 12 1 12 1 2 15 2"></polygon>
                    </g>
                </g>
                <text mask="url(#mask-2)" font-family="PingFangSC-Medium, PingFang SC" font-size="8" font-weight="400" fill="#1F2651">
                    <tspan x="14" y="9">账户登录</tspan>
                </text>
            </g>
        </g>
    </g>
</svg>