<?xml version="1.0" encoding="UTF-8"?>
<svg width="27px" height="26px" viewBox="0 0 27 26" version="1.1" xmlns="http://www.w3.org/2000/svg" xmlns:xlink="http://www.w3.org/1999/xlink">
    <title>小程序</title>
    <g id="页面-1" stroke="none" stroke-width="1" fill="none" fill-rule="evenodd">
        <g id="登陆页" transform="translate(-1432.000000, -709.000000)" fill="#8D90A9" fill-rule="nonzero">
            <g id="小程序" transform="translate(1432.500000, 709.000000)">
                <path d="M13,0 C5.82029825,0 0,5.82029825 0,13 C0,20.1797017 5.82029825,26 13,26 C20.1797017,26 26,20.1797017 26,13 C26,9.55218563 24.6303611,6.24558476 22.1923882,3.80761184 C19.7544152,1.36963892 16.4478144,0 13,0 Z M19.5182051,11.6844102 C19.011602,12.4966599 18.221143,13.0915833 17.3004102,13.3535898 C17.0996321,13.4191055 16.8901691,13.4541615 16.679,13.4575898 C16.2728843,13.4552084 15.9449198,13.1253151 15.9449198,12.7191924 C15.9449198,12.3130697 16.2728843,11.9831764 16.679,11.9807949 C16.7351897,11.9820813 16.7910142,11.971446 16.8427949,11.9495898 C17.4341257,11.8026279 17.943986,11.4291012 18.2623848,10.9095898 C18.447624,10.6067872 18.5448642,10.2583753 18.5432051,9.90341016 C18.5432051,8.736 17.4642051,7.774 16.1486152,7.774 C15.6933469,7.77495965 15.2458693,7.89219528 14.8486152,8.11458984 C14.1818219,8.46571983 13.7571043,9.15004694 13.7384102,9.90341016 L13.7384102,16.1044102 C13.7252656,17.3835757 13.0182551,18.5546201 11.8924102,19.162 C11.2743729,19.5094941 10.5759965,19.6887939 9.867,19.682 C7.72458984,19.682 5.967,18.07 5.967,16.0757949 C5.97078999,15.4502181 6.1442136,14.8373868 6.46879492,14.3025898 C6.97539804,13.4903401 7.76585703,12.8954167 8.68658984,12.6334102 C8.88760244,12.5688551 9.09692194,12.5338231 9.308,12.5294102 C9.57283556,12.5278572 9.81822091,12.6682543 9.95108903,12.8973533 C10.0839571,13.1264523 10.0839571,13.409163 9.95108903,13.6382619 C9.81822091,13.8673609 9.57283556,14.0077581 9.308,14.0062051 C9.2518103,14.0049187 9.19598581,14.015554 9.14420508,14.0374102 C8.55795695,14.1950925 8.05170332,14.5659769 7.72461523,15.0774102 C7.53937605,15.3802128 7.44213583,15.7286247 7.44379492,16.0835898 C7.44379492,17.251 8.52279492,18.213 9.854,18.213 C10.3092683,18.2120404 10.7567459,18.0948047 11.154,17.8724102 C11.8197814,17.5205874 12.2434158,16.8363939 12.2615898,16.0835898 L12.2615898,9.91123047 C12.2759758,8.63104127 12.9837303,7.45942161 14.1102051,6.85102539 C14.7170534,6.48737142 15.4125642,6.29842234 16.12,6.30502539 C18.2624102,6.30502539 20.02,7.91702539 20.02,9.91123047 C20.01621,10.5368073 19.8427864,11.1496386 19.5182051,11.6844355 L19.5182051,11.6844102 Z" id="形状"></path>
            </g>
        </g>
    </g>
</svg>