<?xml version="1.0" encoding="UTF-8"?>
<svg width="40px" height="42px" viewBox="0 0 40 42" version="1.1" xmlns="http://www.w3.org/2000/svg" xmlns:xlink="http://www.w3.org/1999/xlink">
    <title>社区矫正人员</title>
    <defs>
        <linearGradient x1="50%" y1="-23.2698085%" x2="50%" y2="100%" id="linearGradient-1">
            <stop stop-color="#B2DCFF" offset="0%"></stop>
            <stop stop-color="#54A6FA" offset="100%"></stop>
        </linearGradient>
    </defs>
    <g id="页面-1" stroke="none" stroke-width="1" fill="none" fill-rule="evenodd">
        <g id="社区矫正人员" transform="translate(0.947441, 0.532065)" fill-rule="nonzero">
            <path d="M24.0330749,1.32852605 L33.0856338,6.52792056 C36.1906195,8.31128881 38.1051178,11.6187048 38.1051178,15.1993946 L38.1051178,25.5083072 C38.1051178,29.0889969 36.1906195,32.3964129 33.0856338,34.1797812 L24.0330749,39.3791757 C20.9489824,41.1505437 17.1561354,41.1505437 14.0720429,39.3791757 L5.01948402,34.1797812 C1.91449824,32.3964129 0,29.0889969 0,25.5083072 L0,15.1993946 C0,11.6187048 1.91449824,8.31128881 5.01948402,6.52792056 L14.0720429,1.32852605 C17.1561354,-0.442842015 20.9489824,-0.442842015 24.0330749,1.32852605 Z" id="Polygon" fill="#D9EDFE"></path>
            <path d="M23.922939,17.4668278 C23.8457,17.7739522 23.768461,18.0522837 23.6912221,18.3018222 C23.6139831,18.5129703 23.5174344,18.7289171 23.4015759,18.9496628 C23.2857175,19.1704084 23.1602042,19.3383671 23.025036,19.4535387 C22.8512483,19.5879057 22.7305624,19.7318702 22.6629783,19.8854324 C22.5953942,20.0389946 22.537465,20.1973557 22.4891906,20.3605155 C22.4409163,20.5236753 22.3878145,20.691634 22.3298852,20.8643915 C22.271956,21.0371489 22.1754073,21.2099064 22.0402391,21.3826639 C21.596115,21.9585221 21.263022,22.5151851 21.0409599,23.0526528 C20.8188979,23.5901205 20.66442,24.1083929 20.5775261,24.6074701 C20.4906323,25.1065472 20.4664951,25.6008256 20.5051146,26.0903051 C20.5437341,26.5797846 20.6209731,27.0548676 20.7368315,27.5155542 C20.8140705,27.8610692 20.9299289,28.2209806 21.0844069,28.5952885 C21.2388848,28.9695963 21.4657743,29.3535018 21.7650753,29.747005 C22.0643763,30.1405081 22.4457437,30.5244136 22.9091775,30.8987215 C23.3726113,31.2730293 23.9519036,31.6329407 24.6470543,31.9784557 C24.1836205,32.0744321 23.6429477,32.1608108 23.025036,32.2375919 C22.5036729,32.2951777 21.861624,32.3479647 21.0988892,32.3959529 C20.3361544,32.4439411 19.4623885,32.4679352 18.4775917,32.4679352 C17.9755384,32.4679352 17.3914187,32.4487399 16.7252326,32.4103494 C16.0590464,32.3719588 15.3735506,32.3239706 14.668745,32.2663848 C13.9639394,32.208799 13.2687887,32.1416155 12.5832928,32.0648344 C11.897797,31.9880533 11.2702304,31.9064734 10.700593,31.8200947 C10.1309556,31.7337159 9.64821198,31.6425384 9.25236228,31.546562 C8.85651258,31.4505856 8.61031338,31.3642069 8.51376468,31.2874258 C8.33997698,31.1338636 8.20480878,30.7067687 8.10826008,30.0061412 C8.01171138,29.3055136 8.04067598,28.3889393 8.19515388,27.256418 C8.29170258,26.622974 8.54755668,26.1382933 8.96271618,25.802376 C9.37787558,25.4664586 9.86544658,25.2025236 10.4254291,25.0105709 C10.9854117,24.8186181 11.5695314,24.6410618 12.1777883,24.477902 C12.7860451,24.3147421 13.3218905,24.0891977 13.7853243,23.8012685 C14.1522094,23.5709252 14.4322007,23.3549784 14.6252981,23.153428 C14.8183955,22.9518776 14.9535637,22.7455284 15.0308027,22.5343804 C15.1080416,22.3232324 15.1466611,22.1024867 15.1466611,21.8721434 C15.1466611,21.6418001 15.1370063,21.3922615 15.1176965,21.1235277 C15.079077,20.7204269 14.9390814,20.4037049 14.6977096,20.1733616 C14.4563378,19.9430183 14.2004838,19.712675 13.9301474,19.4823317 C13.7756694,19.36716 13.6405012,19.1944025 13.5246428,18.9640592 C13.4087843,18.7337159 13.3122356,18.5129703 13.2349966,18.3018222 C13.1384479,18.0522837 13.061209,17.7739522 13.0032797,17.4668278 C12.8681115,17.4284372 12.7425982,17.3708514 12.6267398,17.2940703 C12.5301911,17.2172892 12.4239875,17.1021176 12.308129,16.9485554 C12.1922706,16.7949932 12.086067,16.5646499 11.9895183,16.2575255 C11.8929696,15.9695963 11.8591775,15.7008625 11.8881421,15.4513239 C11.9171067,15.2017853 11.9702085,14.9906373 12.0474475,14.8178798 C12.1246865,14.6067318 12.23089,14.4243767 12.3660582,14.2708145 C12.3660582,13.6181751 12.4046777,12.9655358 12.4819167,12.3128964 C12.5591557,11.7562335 12.6798416,11.1611799 12.8439744,10.5277359 C13.0081072,9.89429175 13.2736161,9.32803115 13.6405012,8.82895395 C13.9880766,8.3490721 14.3597891,7.95556896 14.7556388,7.64844457 C15.1514886,7.34132016 15.5618206,7.10137923 15.9866349,6.92862175 C16.4114492,6.75586428 16.8362636,6.63589381 17.2610779,6.56871034 C17.6858922,6.50152688 18.0913968,6.46793515 18.4775917,6.46793515 C18.979645,6.46793515 19.4623885,6.52552098 19.9258223,6.64069263 C20.3892561,6.75586428 20.8188979,6.90942648 21.2147476,7.10137923 C21.6105973,7.29333199 21.9630001,7.50927882 22.271956,7.74921976 C22.5809119,7.98916069 22.8319385,8.23390045 23.025036,8.48343905 C23.46916,9.04010205 23.7925982,9.65435085 23.9953505,10.3261855 C24.1981028,10.9980201 24.3477533,11.6314642 24.444302,12.2265177 C24.5408507,12.9175476 24.5794702,13.6085775 24.5601605,14.2996074 C24.6760189,14.3955838 24.7725676,14.5107554 24.8498066,14.6451224 C24.9270456,14.760294 24.9849748,14.9138562 25.0235943,15.105809 C25.0622138,15.2977617 25.0622138,15.5377026 25.0235943,15.8256318 C24.9849748,16.190342 24.9077358,16.4782711 24.7918774,16.6894191 C24.6760189,16.9005672 24.5505056,17.063727 24.4153374,17.1788987 C24.2608595,17.3132656 24.0967267,17.409242 23.922939,17.4668278 L23.922939,17.4668278 Z" id="path-2" fill="url(#linearGradient-1)"></path>
            <g id="矫" transform="translate(24.052559, 22.467935)" fill="#388CFF">
                <path d="M2.95842451,4.63636364 C3.13347921,4.63636364 3.23267688,4.73333333 3.25601751,4.92727273 L3.64113786,7.66363636 C3.65280817,7.76666667 3.63822028,7.84848485 3.59737418,7.90909091 C3.55652808,7.96969697 3.48942378,8 3.39606127,8 L2.64332604,8 C2.46827133,8 2.36907367,7.9030303 2.34573304,7.70909091 L2.02188184,5.44545455 L1.61050328,7.71818182 C1.57549234,7.90606061 1.4733771,8 1.30415755,8 L0.376367615,8 C0.294675419,8 0.231947484,7.97727273 0.188183807,7.93181818 C0.144420131,7.88636364 0.122538293,7.82121212 0.122538293,7.73636364 C0.122538293,7.69393939 0.125455872,7.66363636 0.131291028,7.64545455 L0.7702407,4.18181818 L0.280087527,4.18181818 C0.192560175,4.18181818 0.123997082,4.1530303 0.0743982495,4.09545455 C0.0247994165,4.03787879 0,3.96060606 0,3.86363636 L0,3.3 C0,3.2030303 0.0247994165,3.12575758 0.0743982495,3.06818182 C0.123997082,3.01060606 0.192560175,2.98181818 0.280087527,2.98181818 L1.0940919,2.98181818 L1.0940919,1.6 L1.0678337,1.6 L1.01531729,1.89090909 C0.980306346,2.07878788 0.878191101,2.17272727 0.708971554,2.17272727 L0.306345733,2.17272727 C0.224653538,2.17272727 0.161925602,2.15 0.118161926,2.10454545 C0.0743982495,2.05909091 0.0525164114,1.99393939 0.0525164114,1.90909091 C0.0525164114,1.87272727 0.0554339898,1.84545455 0.0612691466,1.82727273 L0.323851204,0.281818182 C0.358862144,0.0939393939 0.460977389,0 0.630196937,0 L1.51422319,0 C1.6075857,0 1.67906637,0.0181818182 1.72866521,0.0545454545 C1.77826404,0.0909090909 1.7972283,0.139393939 1.78555799,0.2 L1.75054705,0.4 L3.11597374,0.4 C3.20350109,0.4 3.27206419,0.428787879 3.32166302,0.486363636 C3.37126185,0.543939394 3.39606127,0.621212121 3.39606127,0.718181818 L3.39606127,1.28181818 C3.39606127,1.37878788 3.37126185,1.45606061 3.32166302,1.51363636 C3.27206419,1.57121212 3.20350109,1.6 3.11597374,1.6 L2.54704595,1.6 L2.54704595,2.98181818 L3.21225383,2.98181818 C3.29978118,2.98181818 3.36834427,3.01060606 3.41794311,3.06818182 C3.46754194,3.12575758 3.49234136,3.2030303 3.49234136,3.3 L3.49234136,3.86363636 C3.49234136,3.96060606 3.46754194,4.03787879 3.41794311,4.09545455 C3.36834427,4.1530303 3.29978118,4.18181818 3.21225383,4.18181818 L2.25820569,4.18181818 L2.17067834,4.63636364 L2.95842451,4.63636364 Z M3.94748359,4.48181818 C3.87162655,4.48181818 3.81327498,4.46363636 3.77242888,4.42727273 C3.73158279,4.39090909 3.71115974,4.33939394 3.71115974,4.27272727 C3.71115974,4.21818182 3.72283005,4.16363636 3.74617068,4.10909091 L4.13129103,3.17272727 L3.92997812,3.17272727 C3.84245077,3.17272727 3.77388767,3.14393939 3.72428884,3.08636364 C3.67469001,3.02878788 3.64989059,2.95151515 3.64989059,2.85454545 L3.64989059,2.29090909 C3.64989059,2.19393939 3.67469001,2.11666667 3.72428884,2.05909091 C3.77388767,2.00151515 3.84245077,1.97272727 3.92997812,1.97272727 L4.6214442,1.97272727 L4.85776805,1.4 L4.13129103,1.42727273 C4.04376368,1.43333333 3.97520058,1.40909091 3.92560175,1.35454545 C3.87600292,1.3 3.8512035,1.22121212 3.8512035,1.11818182 L3.8512035,0.554545455 C3.8512035,0.451515152 3.87454413,0.372727273 3.92122538,0.318181818 C3.96790664,0.263636364 4.03501094,0.233333333 4.12253829,0.227272727 L7.58862144,0.0909090909 C7.6761488,0.0848484848 7.74471189,0.109090909 7.79431072,0.163636364 C7.84390956,0.218181818 7.86870897,0.296969697 7.86870897,0.4 L7.86870897,0.972727273 C7.86870897,1.17272727 7.77826404,1.27878788 7.59737418,1.29090909 L6.42450766,1.33636364 L6.17943107,1.97272727 L7.71991247,1.97272727 C7.80743982,1.97272727 7.87600292,2.00151515 7.92560175,2.05909091 C7.97520058,2.11666667 8,2.19393939 8,2.29090909 L8,2.85454545 C8,2.95757576 7.97665937,3.03636364 7.92997812,3.09090909 C7.88329686,3.14545455 7.81619256,3.17272727 7.72866521,3.17272727 L7.45733042,3.17272727 L7.85995624,4.10909091 C7.88329686,4.16363636 7.89496718,4.21818182 7.89496718,4.27272727 C7.89496718,4.33939394 7.87454413,4.39090909 7.83369803,4.42727273 C7.79285193,4.46363636 7.73450036,4.48181818 7.65864333,4.48181818 L6.65207877,4.48181818 C6.50619985,4.48181818 6.39824945,4.4030303 6.32822757,4.24545455 L5.85557987,3.17272727 L5.69803063,3.17272727 L5.27789934,4.23636364 C5.21954778,4.4 5.11159737,4.48181818 4.95404814,4.48181818 L3.94748359,4.48181818 Z M4.11378556,4.94545455 C4.13712619,4.75757576 4.23340627,4.66363636 4.40262582,4.66363636 L5.33916849,4.66363636 C5.432531,4.66363636 5.50109409,4.69242424 5.54485777,4.75 C5.58862144,4.80757576 5.60466813,4.89090909 5.59299781,5 L5.23413567,7.70909091 C5.21079504,7.9030303 5.11451495,8 4.9452954,8 L4.00875274,8 C3.91539023,8 3.84682713,7.97121212 3.80306346,7.91363636 C3.75929978,7.85606061 3.7432531,7.77272727 3.75492341,7.66363636 L4.11378556,4.94545455 Z M6.1356674,4.98181818 C6.1356674,4.88484848 6.16046681,4.80757576 6.21006565,4.75 C6.25966448,4.69242424 6.32822757,4.66363636 6.41575492,4.66363636 L7.32603939,4.66363636 C7.41356674,4.66363636 7.48212983,4.69242424 7.53172867,4.75 C7.5813275,4.80757576 7.60612691,4.88484848 7.60612691,4.98181818 L7.60612691,7.68181818 C7.60612691,7.77878788 7.5813275,7.85606061 7.53172867,7.91363636 C7.48212983,7.97121212 7.41356674,8 7.32603939,8 L6.41575492,8 C6.32822757,8 6.25966448,7.97121212 6.21006565,7.91363636 C6.16046681,7.85606061 6.1356674,7.77878788 6.1356674,7.68181818 L6.1356674,4.98181818 Z" id="形状"></path>
            </g>
        </g>
    </g>
</svg>