<?xml version="1.0" encoding="UTF-8"?>
<svg width="44px" height="44px" viewBox="0 0 44 44" version="1.1" xmlns="http://www.w3.org/2000/svg" xmlns:xlink="http://www.w3.org/1999/xlink">
    <title>默认图标</title>
    <defs>
        <linearGradient x1="22.0227729%" y1="7.74013866%" x2="81.0126707%" y2="86.3485856%" id="linearGradient-1">
            <stop stop-color="#82B3F9" offset="0%"></stop>
            <stop stop-color="#509BFF" offset="100%"></stop>
        </linearGradient>
        <path d="M10.9272181,15.9327354 C10.9737946,16.0037369 11.0358966,16.0605381 11.0669475,16.0889387 C12.2934617,17.4379671 13.5199758,18.3467862 13.5820778,18.3751868 L14.43598,19 L15.2898823,18.3751868 C15.3364588,18.3325859 16.5784984,17.4237668 17.789487,16.0747384 C17.8360635,16.0321375 17.88264,15.9753363 17.9292165,15.9043348 C19.668072,13.8310912 21.8416413,10.8206278 22.3384572,8.2077728 C22.4316101,7.61136024 22.4316101,7.25635277 22.4316101,7.21375187 C22.4471356,5.26831091 21.5932334,3.43647235 20.0406838,2.05904335 C18.5347108,0.738415546 16.5319219,0 14.4204545,0 C12.3089872,0 10.3217238,0.724215247 8.81575073,2.05904335 C7.2476757,3.45067265 6.39377346,5.29671151 6.40929895,7.25635277 C6.40929895,7.28475336 6.40929895,7.65396114 6.50245192,8.2077728 C7.03031876,11.0052317 9.48334703,14.2286996 10.9272181,15.9327354 Z M14.43598,4.65769806 C16.4387689,4.65769806 18.0534204,6.09192825 18.0534204,7.86696562 C18.0534204,9.64200299 16.4232434,11.0762332 14.43598,11.0762332 C12.4331911,11.0762332 10.8185396,9.64200299 10.8185396,7.86696562 C10.8185396,6.09192825 12.4331911,4.65769806 14.43598,4.65769806 Z" id="path-2"></path>
        <linearGradient x1="10.6595803%" y1="45.5621152%" x2="93.608735%" y2="53.817117%" id="linearGradient-3">
            <stop stop-color="#82B3F9" offset="0%"></stop>
            <stop stop-color="#509BFF" offset="100%"></stop>
        </linearGradient>
        <path d="M24.7798675,19.5943219 L2.99273762,19.5943219 C2.37922641,19.5943219 1.90038839,19.1774224 1.90038839,18.7030196 C1.90038839,18.2286167 2.36426272,17.8117173 2.99273762,17.8117173 L6.40445851,17.8117173 C6.92818759,17.8117173 7.36213454,17.4091937 7.36213454,16.9060391 C7.36213454,16.4028846 6.92818759,15.9859852 6.40445851,16.000361 L2.99273762,16.000361 C1.34673193,16.000361 0,17.193556 0,18.7030196 C0,20.2124831 1.36169562,21.4056781 2.99273762,21.4056781 L24.7798675,21.4056781 C25.3933787,21.4056781 25.8722167,21.8225776 25.8722167,22.2969804 C25.8722167,22.7713833 25.4083424,23.1882827 24.7798675,23.1882827 L5.71612885,23.1882827 C5.19239977,23.1882827 4.75845282,23.5908063 4.75845282,24.0939609 C4.75845282,24.5971154 5.19239977,25.0140148 5.71612885,24.999639 L24.7798675,24.999639 C26.4258732,24.999639 27.7727273,23.806444 27.7727273,22.2969804 C27.7875688,20.7875169 26.4258732,19.5943219 24.7798675,19.5943219 Z" id="path-4"></path>
    </defs>
    <g id="z" stroke="none" stroke-width="1" fill="none" fill-rule="evenodd">
        <g id="7/20日首页面改版" transform="translate(-1038.000000, -963.000000)">
            <g id="编组-24" transform="translate(1034.000000, 963.000000)">
                <g id="默认图标" transform="translate(4.000000, 0.000000)">
                    <path d="M27,2.88675135 L36.0525589,8.11324865 C39.1465697,9.8995766 41.0525589,13.2008468 41.0525589,16.7735027 L41.0525589,27.2264973 C41.0525589,30.7991532 39.1465697,34.1004234 36.0525589,35.8867513 L27,41.1132487 C23.9059892,42.8995766 20.0940108,42.8995766 17,41.1132487 L7.94744112,35.8867513 C4.85343035,34.1004234 2.94744112,30.7991532 2.94744112,27.2264973 L2.94744112,16.7735027 C2.94744112,13.2008468 4.85343035,9.8995766 7.94744112,8.11324865 L17,2.88675135 C20.0940108,1.1004234 23.9059892,1.1004234 27,2.88675135 Z" id="Polygon" fill="#D4EDFF"></path>
                    <g id="巡检" transform="translate(7.613636, 8.000000)" fill-rule="nonzero">
                        <g id="形状">
                            <use fill="#2A85FF" xlink:href="#path-2"></use>
                            <use fill="url(#linearGradient-1)" xlink:href="#path-2"></use>
                        </g>
                        <g id="路径">
                            <use fill="#2A85FF" xlink:href="#path-4"></use>
                            <use fill="url(#linearGradient-3)" xlink:href="#path-4"></use>
                        </g>
                    </g>
                </g>
            </g>
        </g>
    </g>
</svg>