<?xml version="1.0" encoding="UTF-8"?>
<svg width="44px" height="44px" viewBox="0 0 44 44" version="1.1" xmlns="http://www.w3.org/2000/svg" xmlns:xlink="http://www.w3.org/1999/xlink">
    <title>刑满释放人员</title>
    <defs>
        <linearGradient x1="50%" y1="-23.2698085%" x2="50%" y2="100%" id="linearGradient-1">
            <stop stop-color="#B2DCFF" offset="0%"></stop>
            <stop stop-color="#54A6FA" offset="100%"></stop>
        </linearGradient>
        <path d="M15.8703801,10.9988926 C15.7931411,11.306017 15.7159021,11.5843485 15.6386632,11.833887 C15.5614242,12.0450351 15.4648755,12.2609819 15.349017,12.4817276 C15.2331586,12.7024732 15.1076453,12.8704319 14.9724771,12.9856035 C14.7986894,13.1199705 14.6780035,13.263935 14.6104194,13.4174972 C14.5428353,13.5710594 14.4849061,13.7294205 14.4366317,13.8925803 C14.3883574,14.0557401 14.3352556,14.2236988 14.2773263,14.3964563 C14.2193971,14.5692137 14.1228484,14.7419712 13.9876802,14.9147287 C13.5435561,15.4905869 13.2104631,16.0472499 12.988401,16.5847176 C12.766339,17.1221853 12.6118611,17.6404577 12.5249672,18.1395349 C12.4380734,18.638612 12.4139362,19.1328904 12.4525557,19.6223699 C12.4911752,20.1118494 12.5684142,20.5869324 12.6842726,21.047619 C12.7615116,21.393134 12.87737,21.7530454 13.031848,22.1273533 C13.1863259,22.5016611 13.4132154,22.8855666 13.7125164,23.2790698 C14.0118174,23.6725729 14.3931848,24.0564784 14.8566186,24.4307863 C15.3200524,24.8050941 15.8993447,25.1650055 16.5944954,25.5105205 C16.1310616,25.6064969 15.5903888,25.6928756 14.9724771,25.7696567 C14.451114,25.8272425 13.8090651,25.8800295 13.0463303,25.9280177 C12.2835955,25.9760059 11.4098296,26 10.4250328,26 C9.92297947,26 9.33885976,25.9808047 8.67267366,25.9424142 C8.00648755,25.9040236 7.3209917,25.8560354 6.61618611,25.7984496 C5.91138052,25.7408638 5.21622979,25.6736803 4.53073394,25.5968992 C3.8452381,25.5201181 3.21767147,25.4385382 2.64803408,25.3521595 C2.07839668,25.2657807 1.59565312,25.1746032 1.19980341,25.0786268 C0.803953692,24.9826504 0.557754478,24.8962717 0.461205767,24.8194906 C0.287418087,24.6659284 0.152249891,24.2388335 0.0557011796,23.538206 C-0.0408475317,22.8375784 -0.0118829183,21.9210041 0.14259502,20.7884828 C0.239143731,20.1550388 0.494997816,19.6703581 0.910157274,19.3344408 C1.32531673,18.9985234 1.81288772,18.7345884 2.37287025,18.5426357 C2.93285277,18.3506829 3.51697248,18.1731266 4.12522936,18.0099668 C4.73348624,17.8468069 5.26933159,17.6212625 5.7327654,17.3333333 C6.0996505,17.10299 6.37964176,16.8870432 6.57273919,16.6854928 C6.76583661,16.4839424 6.90100481,16.2775932 6.97824377,16.0664452 C7.05548274,15.8552972 7.09410223,15.6345515 7.09410223,15.4042082 C7.09410223,15.1738649 7.08444736,14.9243263 7.06513761,14.6555925 C7.02651813,14.2524917 6.8865225,13.9357697 6.64515072,13.7054264 C6.40377894,13.4750831 6.14792486,13.2447398 5.87758847,13.0143965 C5.72311053,12.8992248 5.58794233,12.7264673 5.47208388,12.496124 C5.35622543,12.2657807 5.25967671,12.0450351 5.18243775,11.833887 C5.08588903,11.5843485 5.00865007,11.306017 4.95072084,10.9988926 C4.81555264,10.960502 4.69003932,10.9029162 4.57418087,10.8261351 C4.47763215,10.749354 4.37142857,10.6341824 4.25557012,10.4806202 C4.13971166,10.327058 4.03350808,10.0967147 3.93695937,9.78959025 C3.84041066,9.50166113 3.80661861,9.23292728 3.83558322,8.9833887 C3.86454784,8.73385013 3.91764963,8.5227021 3.9948886,8.34994463 C4.07212757,8.1387966 4.17833115,7.95644149 4.31349934,7.80287929 C4.31349934,7.15023994 4.35211883,6.49760059 4.4293578,5.84496124 C4.50659677,5.28829827 4.62728266,4.69324474 4.79141547,4.05980066 C4.95554827,3.42635659 5.22105723,2.86009598 5.58794233,2.36101883 C5.93551769,1.88113695 6.30723023,1.48763381 6.70307995,1.18050941 C7.09892966,0.873385013 7.50926169,0.633444075 7.93407602,0.4606866 C8.35889035,0.287929125 8.78370467,0.167958656 9.208519,0.100775194 C9.63333333,0.0335917313 10.0388379,0 10.4250328,0 C10.9270861,0 11.4098296,0.057585825 11.8732634,0.172757475 C12.3366972,0.287929125 12.766339,0.441491325 13.1621887,0.633444075 C13.5580384,0.825396825 13.9104412,1.04134367 14.2193971,1.28128461 C14.528353,1.52122554 14.7793796,1.7659653 14.9724771,2.01550388 C15.4166011,2.57216685 15.7400393,3.18641565 15.9427916,3.85825028 C16.1455439,4.5300849 16.2951944,5.16352898 16.3917431,5.7585825 C16.4882918,6.4496124 16.5269113,7.1406423 16.5076016,7.8316722 C16.62346,7.92764858 16.7200087,8.04282023 16.7972477,8.17718715 C16.8744867,8.2923588 16.9324159,8.445921 16.9710354,8.63787375 C17.0096549,8.8298265 17.0096549,9.06976744 16.9710354,9.35769657 C16.9324159,9.72240679 16.8551769,10.0103359 16.7393185,10.2214839 C16.62346,10.432632 16.4979467,10.5957918 16.3627785,10.7109635 C16.2083006,10.8453304 16.0441678,10.9413068 15.8703801,10.9988926 L15.8703801,10.9988926 Z" id="path-2"></path>
    </defs>
    <g id="z" stroke="none" stroke-width="1" fill="none" fill-rule="evenodd">
        <g id="刑满释放人员" transform="translate(0.000000, -0.000000)">
            <path d="M26.980516,2.86059089 L36.0330749,8.05998541 C39.1380606,9.84335366 41.0525589,13.1507696 41.0525589,16.7314594 L41.0525589,27.040372 C41.0525589,30.6210617 39.1380606,33.9284777 36.0330749,35.711846 L26.980516,40.9112405 C23.8964235,42.6826085 20.1035765,42.6826085 17.019484,40.9112405 L7.96692514,35.711846 C4.86193936,33.9284777 2.94744112,30.6210617 2.94744112,27.040372 L2.94744112,16.7314594 C2.94744112,13.1507696 4.86193936,9.84335366 7.96692514,8.05998541 L17.019484,2.86059089 C20.1035765,1.08922283 23.8964235,1.08922283 26.980516,2.86059089 Z" id="Polygon" fill="#D9EDFE"></path>
            <g id="添加用户" transform="translate(11.000000, 8.000000)" fill-rule="nonzero">
                <g id="形状">
                    <use fill="#000000" xlink:href="#path-2"></use>
                    <use fill="url(#linearGradient-1)" xlink:href="#path-2"></use>
                </g>
            </g>
            <g id="刑" transform="translate(26.901053, 23.600000)" fill="#388CFF" fill-rule="nonzero">
                <path d="M7.81576153,0.4 C7.9042571,0.4 7.97357864,0.428787879 8.02372613,0.486363636 C8.07387362,0.543939394 8.09894737,0.621212121 8.09894737,0.718181818 L8.09894737,8.08181818 C8.09894737,8.17878788 8.07387362,8.25606061 8.02372613,8.31363636 C7.97357864,8.37121212 7.9042571,8.4 7.81576153,8.4 L5.9042571,8.4 C5.81576153,8.4 5.74643999,8.37121212 5.6962925,8.31363636 C5.64614501,8.25606061 5.62107126,8.17878788 5.62107126,8.08181818 L5.62107126,7.51818182 C5.62107126,7.42121212 5.64614501,7.34393939 5.6962925,7.28636364 C5.74643999,7.22878788 5.81576153,7.2 5.9042571,7.2 L6.59452259,7.2 L6.59452259,0.718181818 C6.59452259,0.621212121 6.61959634,0.543939394 6.66974383,0.486363636 C6.71989132,0.428787879 6.78921286,0.4 6.87770843,0.4 L7.81576153,0.4 Z M4.59452259,3.42727273 C4.68301816,3.42727273 4.7523397,3.45606061 4.80248719,3.51363636 C4.85263468,3.57121212 4.87770843,3.65151515 4.87770843,3.75454545 L4.87770843,4.30909091 C4.87770843,4.40606061 4.85263468,4.48333333 4.80248719,4.54090909 C4.7523397,4.59848485 4.68301816,4.62727273 4.59452259,4.62727273 L4.23169073,4.62727273 L4.23169073,8.08181818 C4.23169073,8.17878788 4.20661698,8.25606061 4.15646949,8.31363636 C4.106322,8.37121212 4.03700047,8.4 3.94850489,8.4 L3.01045179,8.4 C2.92195622,8.4 2.85263468,8.37121212 2.80248719,8.31363636 C2.7523397,8.25606061 2.72726595,8.17878788 2.72726595,8.08181818 L2.72726595,4.62727273 L2.08124825,4.62727273 L1.88655799,8.09090909 C1.88065828,8.18787879 1.85263468,8.26363636 1.80248719,8.31818182 C1.7523397,8.37272727 1.68301816,8.4 1.59452259,8.4 L0.656469492,8.4 C0.562074212,8.4 0.491277752,8.37121212 0.444080112,8.31363636 C0.396882472,8.25606061 0.376233504,8.17575758 0.382133209,8.07272727 L0.576823475,4.62727273 L0.382133209,4.62727273 C0.293637634,4.62727273 0.2243161,4.59848485 0.174168607,4.54090909 C0.124021115,4.48333333 0.0989473684,4.40606061 0.0989473684,4.30909091 L0.0989473684,3.75454545 C0.0989473684,3.65151515 0.122546188,3.57121212 0.169743829,3.51363636 C0.216941469,3.45606061 0.284788076,3.42727273 0.373283652,3.42727273 L0.647619935,3.42727273 L0.73611551,1.73636364 L0.523726129,1.73636364 C0.435230554,1.73636364 0.36590902,1.70757576 0.315761528,1.65 C0.265614035,1.59242424 0.240540289,1.51515152 0.240540289,1.41818182 L0.240540289,0.863636364 C0.240540289,0.760606061 0.265614035,0.68030303 0.315761528,0.622727273 C0.36590902,0.565151515 0.435230554,0.536363636 0.523726129,0.536363636 L4.45292967,0.536363636 C4.54142524,0.536363636 4.61074678,0.565151515 4.66089427,0.622727273 C4.71104176,0.68030303 4.73611551,0.760606061 4.73611551,0.863636364 L4.73611551,1.41818182 C4.73611551,1.52121212 4.71399162,1.6 4.66974383,1.65454545 C4.62549604,1.70909091 4.56502406,1.73636364 4.4883279,1.73636364 L4.23169073,1.73636364 L4.23169073,3.42727273 L4.59452259,3.42727273 Z M6.32018631,6.27272727 C6.32018631,6.36969697 6.29511256,6.4469697 6.24496507,6.50454545 C6.19481757,6.56212121 6.12549604,6.59090909 6.03700047,6.59090909 L5.34673498,6.59090909 C5.2582394,6.59090909 5.18891787,6.56212121 5.13877038,6.50454545 C5.08862288,6.4469697 5.06354914,6.36969697 5.06354914,6.27272727 L5.06354914,1.23636364 C5.06354914,1.13939394 5.08862288,1.06212121 5.13877038,1.00454545 C5.18891787,0.946969697 5.2582394,0.918181818 5.34673498,0.918181818 L6.03700047,0.918181818 C6.12549604,0.918181818 6.19481757,0.946969697 6.24496507,1.00454545 C6.29511256,1.06212121 6.32018631,1.13939394 6.32018631,1.23636364 L6.32018631,6.27272727 Z M2.72726595,1.73636364 L2.24054029,1.73636364 L2.15204471,3.42727273 L2.72726595,3.42727273 L2.72726595,1.73636364 Z" id="形状"></path>
            </g>
        </g>
    </g>
</svg>