<?xml version="1.0" encoding="UTF-8"?>
<svg width="40px" height="42px" viewBox="0 0 40 42" version="1.1" xmlns="http://www.w3.org/2000/svg" xmlns:xlink="http://www.w3.org/1999/xlink">
    <title>艾滋病危险人员</title>
    <defs>
        <linearGradient x1="50%" y1="-23.2698085%" x2="50%" y2="100%" id="linearGradient-1">
            <stop stop-color="#B2DCFF" offset="0%"></stop>
            <stop stop-color="#54A6FA" offset="100%"></stop>
        </linearGradient>
    </defs>
    <g id="页面-1" stroke="none" stroke-width="1" fill="none" fill-rule="evenodd">
        <g id="艾滋病危险人员" transform="translate(0.947441, 0.532065)" fill-rule="nonzero">
            <path d="M24.0330749,1.32852605 L33.0856338,6.52792056 C36.1906195,8.31128881 38.1051178,11.6187048 38.1051178,15.1993946 L38.1051178,25.5083072 C38.1051178,29.0889969 36.1906195,32.3964129 33.0856338,34.1797812 L24.0330749,39.3791757 C20.9489824,41.1505437 17.1561354,41.1505437 14.0720429,39.3791757 L5.01948402,34.1797812 C1.91449824,32.3964129 0,29.0889969 0,25.5083072 L0,15.1993946 C0,11.6187048 1.91449824,8.31128881 5.01948402,6.52792056 L14.0720429,1.32852605 C17.1561354,-0.442842015 20.9489824,-0.442842015 24.0330749,1.32852605 Z" id="Polygon" fill="#D9EDFE"></path>
            <g id="path-2-link" transform="translate(8.052559, 6.467935)" fill="url(#linearGradient-1)">
                <path d="M15.8703801,10.9988926 C15.7931411,11.306017 15.7159021,11.5843485 15.6386632,11.833887 C15.5614242,12.0450351 15.4648755,12.2609819 15.349017,12.4817276 C15.2331586,12.7024732 15.1076453,12.8704319 14.9724771,12.9856035 C14.7986894,13.1199705 14.6780035,13.263935 14.6104194,13.4174972 C14.5428353,13.5710594 14.4849061,13.7294205 14.4366317,13.8925803 C14.3883574,14.0557401 14.3352556,14.2236988 14.2773263,14.3964563 C14.2193971,14.5692137 14.1228484,14.7419712 13.9876802,14.9147287 C13.5435561,15.4905869 13.2104631,16.0472499 12.988401,16.5847176 C12.766339,17.1221853 12.6118611,17.6404577 12.5249672,18.1395349 C12.4380734,18.638612 12.4139362,19.1328904 12.4525557,19.6223699 C12.4911752,20.1118494 12.5684142,20.5869324 12.6842726,21.047619 C12.7615116,21.393134 12.87737,21.7530454 13.031848,22.1273533 C13.1863259,22.5016611 13.4132154,22.8855666 13.7125164,23.2790698 C14.0118174,23.6725729 14.3931848,24.0564784 14.8566186,24.4307863 C15.3200524,24.8050941 15.8993447,25.1650055 16.5944954,25.5105205 C16.1310616,25.6064969 15.5903888,25.6928756 14.9724771,25.7696567 C14.451114,25.8272425 13.8090651,25.8800295 13.0463303,25.9280177 C12.2835955,25.9760059 11.4098296,26 10.4250328,26 C9.92297948,26 9.33885978,25.9808047 8.67267368,25.9424142 C8.00648748,25.9040236 7.32099168,25.8560354 6.61618608,25.7984496 C5.91138048,25.7408638 5.21622978,25.6736803 4.53073388,25.5968992 C3.84523808,25.5201181 3.21767148,25.4385382 2.64803408,25.3521595 C2.07839668,25.2657807 1.59565308,25.1746032 1.19980338,25.0786268 C0.803953678,24.9826504 0.557754478,24.8962717 0.461205778,24.8194906 C0.287418078,24.6659284 0.152249878,24.2388335 0.0557011775,23.538206 C-0.0408475225,22.8375784 -0.0118829225,21.9210041 0.142594978,20.7884828 C0.239143678,20.1550388 0.494997778,19.6703581 0.910157278,19.3344408 C1.32531668,18.9985234 1.81288768,18.7345884 2.37287018,18.5426357 C2.93285278,18.3506829 3.51697248,18.1731266 4.12522938,18.0099668 C4.73348618,17.8468069 5.26933158,17.6212625 5.73276538,17.3333333 C6.09965048,17.10299 6.37964178,16.8870432 6.57273918,16.6854928 C6.76583658,16.4839424 6.90100478,16.2775932 6.97824378,16.0664452 C7.05548268,15.8552972 7.09410218,15.6345515 7.09410218,15.4042082 C7.09410218,15.1738649 7.08444738,14.9243263 7.06513758,14.6555925 C7.02651808,14.2524917 6.88652248,13.9357697 6.64515068,13.7054264 C6.40377888,13.4750831 6.14792488,13.2447398 5.87758848,13.0143965 C5.72311048,12.8992248 5.58794228,12.7264673 5.47208388,12.496124 C5.35622538,12.2657807 5.25967668,12.0450351 5.18243768,11.833887 C5.08588898,11.5843485 5.00865008,11.306017 4.95072078,10.9988926 C4.81555258,10.960502 4.69003928,10.9029162 4.57418088,10.8261351 C4.47763218,10.749354 4.37142858,10.6341824 4.25557008,10.4806202 C4.13971168,10.327058 4.03350808,10.0967147 3.93695938,9.7895903 C3.84041068,9.5016611 3.80661858,9.2329273 3.83558318,8.9833887 C3.86454778,8.7338501 3.91764958,8.5227021 3.99488858,8.3499446 C4.07212758,8.1387966 4.17833108,7.9564415 4.31349928,7.8028793 C4.31349928,7.1502399 4.35211878,6.4976006 4.42935778,5.8449612 C4.50659678,5.2882983 4.62728268,4.6932447 4.79141548,4.0598007 C4.95554828,3.4263566 5.22105718,2.860096 5.58794228,2.3610188 C5.93551768,1.88113695 6.30723018,1.48763381 6.70307988,1.18050941 C7.09892968,0.87338501 7.50926168,0.63344408 7.93407598,0.4606866 C8.35889028,0.28792913 8.78370468,0.16795866 9.20851898,0.10077519 C9.63333328,0.03359173 10.0388379,0 10.4250328,0 C10.9270861,0 11.4098296,0.05758583 11.8732634,0.17275748 C12.3366972,0.28792913 12.766339,0.44149133 13.1621887,0.63344408 C13.5580384,0.82539683 13.9104412,1.04134367 14.2193971,1.28128461 C14.528353,1.52122554 14.7793796,1.7659653 14.9724771,2.0155039 C15.4166011,2.5721669 15.7400393,3.1864157 15.9427916,3.8582503 C16.1455439,4.5300849 16.2951944,5.163529 16.3917431,5.7585825 C16.4882918,6.4496124 16.5269113,7.1406423 16.5076016,7.8316722 C16.62346,7.9276486 16.7200087,8.0428202 16.7972477,8.1771872 C16.8744867,8.2923588 16.9324159,8.445921 16.9710354,8.6378738 C17.0096549,8.8298265 17.0096549,9.0697674 16.9710354,9.3576966 C16.9324159,9.7224068 16.8551769,10.0103359 16.7393185,10.2214839 C16.62346,10.432632 16.4979467,10.5957918 16.3627785,10.7109635 C16.2083006,10.8453304 16.0441678,10.9413068 15.8703801,10.9988926 L15.8703801,10.9988926 Z" id="path-2"></path>
            </g>
            <g id="病" transform="translate(24.052559, 22.467935)" fill="#388CFF">
                <path d="M7.72082879,0.5 C7.80806979,0.5 7.87640858,0.528787879 7.92584515,0.586363636 C7.97528172,0.643939394 8,0.721212121 8,0.818181818 L8,1.38181818 C8,1.47878788 7.97528172,1.55606061 7.92584515,1.61363636 C7.87640858,1.67121212 7.80806979,1.7 7.72082879,1.7 L2.31188659,1.7 L1.89312977,7.7 C1.87568157,7.9 1.7826245,8 1.61395856,8 L0.706652126,8 C0.613595056,8 0.54525627,7.97121212 0.501635769,7.91363636 C0.458015267,7.85606061 0.43911305,7.77575758 0.444929117,7.67272727 L0.584514722,5.68181818 L0.331515812,5.74545455 C0.284987277,5.75757576 0.255906943,5.76363636 0.244274809,5.76363636 C0.180298073,5.76363636 0.127953471,5.73787879 0.0872410033,5.68636364 C0.0465285351,5.63484848 0.026172301,5.56363636 0.026172301,5.47272727 L0.026172301,4.89090909 C0.026172301,4.70909091 0.107597237,4.59393939 0.27044711,4.54545455 L0.663031625,4.43636364 L0.758996728,3.17272727 L0.244274809,3.02727273 C0.0814249364,2.99090909 0,2.87878788 0,2.69090909 L0,2.10909091 C0,2.01818182 0.0203562341,1.9469697 0.0610687023,1.89545455 C0.10178117,1.84393939 0.157033806,1.81818182 0.226826609,1.81818182 C0.26172301,1.81818182 0.287895311,1.82121212 0.305343511,1.82727273 L0.837513631,1.97272727 L0.924754635,0.8 C0.942202835,0.6 1.03525991,0.5 1.20392585,0.5 L3.96946565,0.5 L3.96074155,0.327272727 C3.95492548,0.224242424 3.9738277,0.143939394 4.0174482,0.0863636364 C4.0610687,0.0287878788 4.12940749,0 4.22246456,0 L5.19956379,0 C5.37986187,0 5.47291894,0.0848484848 5.47873501,0.254545455 L5.49618321,0.5 L7.72082879,0.5 Z M2.42529989,2.36363636 C2.42529989,2.26060606 2.45001818,2.18030303 2.49945474,2.12272727 C2.54889131,2.06515152 2.6172301,2.03636364 2.7044711,2.03636364 L7.64231189,2.03636364 C7.72955289,2.03636364 7.79789168,2.06515152 7.84732824,2.12272727 C7.89676481,2.18030303 7.9214831,2.26060606 7.9214831,2.36363636 L7.9214831,2.91818182 C7.9214831,3.01515152 7.89676481,3.09242424 7.84732824,3.15 C7.79789168,3.20757576 7.72955289,3.23636364 7.64231189,3.23636364 L5.69683751,3.23636364 L5.69683751,3.61818182 L7.52017448,3.61818182 C7.60741549,3.61818182 7.67575427,3.6469697 7.72519084,3.70454545 C7.77462741,3.76212121 7.79934569,3.83939394 7.79934569,3.93636364 L7.79934569,7.68181818 C7.79934569,7.77878788 7.77462741,7.85606061 7.72519084,7.91363636 C7.67575427,7.97121212 7.60741549,8 7.52017448,8 L5.80152672,8 C5.71428571,8 5.64594693,7.97121212 5.59651036,7.91363636 C5.54707379,7.85606061 5.52235551,7.77878788 5.52235551,7.68181818 L5.52235551,7.11818182 C5.52235551,7.02121212 5.54707379,6.94393939 5.59651036,6.88636364 C5.64594693,6.82878788 5.71428571,6.8 5.80152672,6.8 L6.57797165,6.8 L6.57797165,6.6 L5.85387132,6.6 C5.69102145,6.6 5.58924028,6.50909091 5.54852781,6.32727273 L5.3217012,5.34545455 L5.07742639,6.32727273 C5.03671392,6.50909091 4.93493275,6.6 4.77208288,6.6 L4.04798255,6.6 C3.96655762,6.6 3.9040349,6.57878788 3.86041439,6.53636364 C3.81679389,6.49393939 3.79498364,6.43333333 3.79498364,6.35454545 C3.79498364,6.33030303 3.80079971,6.29393939 3.81243184,6.24545455 L4.16139586,4.81818182 L3.72519084,4.81818182 L3.72519084,7.68181818 C3.72519084,7.77878788 3.70047256,7.85606061 3.65103599,7.91363636 C3.60159942,7.97121212 3.53326063,8 3.44601963,8 L2.782988,8 C2.695747,8 2.62740822,7.97121212 2.57797165,7.91363636 C2.52853508,7.85606061 2.50381679,7.77878788 2.50381679,7.68181818 L2.50381679,3.93636364 C2.50381679,3.83939394 2.52853508,3.76212121 2.57797165,3.70454545 C2.62740822,3.6469697 2.695747,3.61818182 2.782988,3.61818182 L4.37949836,3.61818182 L4.37949836,3.23636364 L2.7044711,3.23636364 C2.6172301,3.23636364 2.54889131,3.20757576 2.49945474,3.15 C2.45001818,3.09242424 2.42529989,3.01515152 2.42529989,2.91818182 L2.42529989,2.36363636 Z M5.4525627,4.81818182 L5.3740458,5.14545455 L6.01090513,5.14545455 C6.173755,5.14545455 6.27553617,5.23636364 6.31624864,5.41818182 L6.57797165,6.56363636 L6.57797165,4.81818182 L5.4525627,4.81818182 Z" id="形状"></path>
            </g>
        </g>
    </g>
</svg>