<?xml version="1.0" encoding="UTF-8"?>
<svg width="40px" height="42px" viewBox="0 0 40 42" version="1.1" xmlns="http://www.w3.org/2000/svg" xmlns:xlink="http://www.w3.org/1999/xlink">
    <title>吸毒人员</title>
    <defs>
        <linearGradient x1="50%" y1="-23.2698085%" x2="50%" y2="100%" id="linearGradient-1">
            <stop stop-color="#B2DCFF" offset="0%"></stop>
            <stop stop-color="#54A6FA" offset="100%"></stop>
        </linearGradient>
    </defs>
    <g id="页面-1" stroke="none" stroke-width="1" fill="none" fill-rule="evenodd">
        <g id="吸毒人员" transform="translate(0.947441, 0.532065)" fill-rule="nonzero">
            <path d="M24.0330749,1.32852605 L33.0856338,6.52792056 C36.1906195,8.31128881 38.1051178,11.6187048 38.1051178,15.1993946 L38.1051178,25.5083072 C38.1051178,29.0889969 36.1906195,32.3964129 33.0856338,34.1797812 L24.0330749,39.3791757 C20.9489824,41.1505437 17.1561354,41.1505437 14.0720429,39.3791757 L5.01948402,34.1797812 C1.91449824,32.3964129 0,29.0889969 0,25.5083072 L0,15.1993946 C0,11.6187048 1.91449824,8.31128881 5.01948402,6.52792056 L14.0720429,1.32852605 C17.1561354,-0.442842015 20.9489824,-0.442842015 24.0330749,1.32852605 Z" id="Polygon" fill="#D9EDFE"></path>
            <path d="M23.922939,17.4668278 C23.8457,17.7739522 23.768461,18.0522837 23.6912221,18.3018222 C23.6139831,18.5129703 23.5174344,18.7289171 23.4015759,18.9496628 C23.2857175,19.1704084 23.1602042,19.3383671 23.025036,19.4535387 C22.8512483,19.5879057 22.7305624,19.7318702 22.6629783,19.8854324 C22.5953942,20.0389946 22.537465,20.1973557 22.4891906,20.3605155 C22.4409163,20.5236753 22.3878145,20.691634 22.3298852,20.8643915 C22.271956,21.0371489 22.1754073,21.2099064 22.0402391,21.3826639 C21.596115,21.9585221 21.263022,22.5151851 21.0409599,23.0526528 C20.8188979,23.5901205 20.66442,24.1083929 20.5775261,24.6074701 C20.4906323,25.1065472 20.4664951,25.6008256 20.5051146,26.0903051 C20.5437341,26.5797846 20.6209731,27.0548676 20.7368315,27.5155542 C20.8140705,27.8610692 20.9299289,28.2209806 21.0844069,28.5952885 C21.2388848,28.9695963 21.4657743,29.3535018 21.7650753,29.747005 C22.0643763,30.1405081 22.4457437,30.5244136 22.9091775,30.8987215 C23.3726113,31.2730293 23.9519036,31.6329407 24.6470543,31.9784557 C24.1836205,32.0744321 23.6429477,32.1608108 23.025036,32.2375919 C22.5036729,32.2951777 21.861624,32.3479647 21.0988892,32.3959529 C20.3361544,32.4439411 19.4623885,32.4679352 18.4775917,32.4679352 C17.9755384,32.4679352 17.3914187,32.4487399 16.7252326,32.4103494 C16.0590464,32.3719588 15.3735506,32.3239706 14.668745,32.2663848 C13.9639394,32.208799 13.2687887,32.1416155 12.5832928,32.0648344 C11.897797,31.9880533 11.2702304,31.9064734 10.700593,31.8200947 C10.1309556,31.7337159 9.64821198,31.6425384 9.25236228,31.546562 C8.85651258,31.4505856 8.61031338,31.3642069 8.51376468,31.2874258 C8.33997698,31.1338636 8.20480878,30.7067687 8.10826008,30.0061412 C8.01171138,29.3055136 8.04067598,28.3889393 8.19515388,27.256418 C8.29170258,26.622974 8.54755668,26.1382933 8.96271618,25.802376 C9.37787558,25.4664586 9.86544658,25.2025236 10.4254291,25.0105709 C10.9854117,24.8186181 11.5695314,24.6410618 12.1777883,24.477902 C12.7860451,24.3147421 13.3218905,24.0891977 13.7853243,23.8012685 C14.1522094,23.5709252 14.4322007,23.3549784 14.6252981,23.153428 C14.8183955,22.9518776 14.9535637,22.7455284 15.0308027,22.5343804 C15.1080416,22.3232324 15.1466611,22.1024867 15.1466611,21.8721434 C15.1466611,21.6418001 15.1370063,21.3922615 15.1176965,21.1235277 C15.079077,20.7204269 14.9390814,20.4037049 14.6977096,20.1733616 C14.4563378,19.9430183 14.2004838,19.712675 13.9301474,19.4823317 C13.7756694,19.36716 13.6405012,19.1944025 13.5246428,18.9640592 C13.4087843,18.7337159 13.3122356,18.5129703 13.2349966,18.3018222 C13.1384479,18.0522837 13.061209,17.7739522 13.0032797,17.4668278 C12.8681115,17.4284372 12.7425982,17.3708514 12.6267398,17.2940703 C12.5301911,17.2172892 12.4239875,17.1021176 12.308129,16.9485554 C12.1922706,16.7949932 12.086067,16.5646499 11.9895183,16.2575255 C11.8929696,15.9695963 11.8591775,15.7008625 11.8881421,15.4513239 C11.9171067,15.2017853 11.9702085,14.9906373 12.0474475,14.8178798 C12.1246865,14.6067318 12.23089,14.4243767 12.3660582,14.2708145 C12.3660582,13.6181751 12.4046777,12.9655358 12.4819167,12.3128964 C12.5591557,11.7562335 12.6798416,11.1611799 12.8439744,10.5277359 C13.0081072,9.89429175 13.2736161,9.32803115 13.6405012,8.82895395 C13.9880766,8.3490721 14.3597891,7.95556896 14.7556388,7.64844457 C15.1514886,7.34132016 15.5618206,7.10137923 15.9866349,6.92862175 C16.4114492,6.75586428 16.8362636,6.63589381 17.2610779,6.56871034 C17.6858922,6.50152688 18.0913968,6.46793515 18.4775917,6.46793515 C18.979645,6.46793515 19.4623885,6.52552098 19.9258223,6.64069263 C20.3892561,6.75586428 20.8188979,6.90942648 21.2147476,7.10137923 C21.6105973,7.29333199 21.9630001,7.50927882 22.271956,7.74921976 C22.5809119,7.98916069 22.8319385,8.23390045 23.025036,8.48343905 C23.46916,9.04010205 23.7925982,9.65435085 23.9953505,10.3261855 C24.1981028,10.9980201 24.3477533,11.6314642 24.444302,12.2265177 C24.5408507,12.9175476 24.5794702,13.6085775 24.5601605,14.2996074 C24.6760189,14.3955838 24.7725676,14.5107554 24.8498066,14.6451224 C24.9270456,14.760294 24.9849748,14.9138562 25.0235943,15.105809 C25.0622138,15.2977617 25.0622138,15.5377026 25.0235943,15.8256318 C24.9849748,16.190342 24.9077358,16.4782711 24.7918774,16.6894191 C24.6760189,16.9005672 24.5505056,17.063727 24.4153374,17.1788987 C24.2608595,17.3132656 24.0967267,17.409242 23.922939,17.4668278 L23.922939,17.4668278 Z" id="path-2" fill="url(#linearGradient-1)"></path>
            <g id="毒" transform="translate(24.052559, 22.467935)" fill="#388CFF">
                <path d="M7.91304348,3.1600454 C7.91304348,3.25690503 7.8884058,3.33409005 7.83913043,3.39160045 C7.78985507,3.44911086 7.72173913,3.47786606 7.63478261,3.47786606 L0.382608696,3.47786606 C0.295652174,3.47786606 0.227536232,3.44911086 0.17826087,3.39160045 C0.128985507,3.33409005 0.104347826,3.25690503 0.104347826,3.1600454 L0.104347826,2.79682179 C0.104347826,2.69996216 0.128985507,2.62277715 0.17826087,2.56526674 C0.227536232,2.50775634 0.295652174,2.47900114 0.382608696,2.47900114 L3.25217391,2.47900114 L3.25217391,2.27014756 L0.817391304,2.27014756 C0.730434783,2.27014756 0.662318841,2.24139236 0.613043478,2.18388195 C0.563768116,2.12637155 0.539130435,2.04615967 0.539130435,1.94324631 L0.539130435,1.68898978 C0.539130435,1.59213016 0.563768116,1.51494514 0.613043478,1.45743473 C0.662318841,1.39992433 0.730434783,1.37116913 0.817391304,1.37116913 L3.25217391,1.37116913 L3.25217391,1.16231555 L0.556521739,1.16231555 C0.469565217,1.16231555 0.401449275,1.13356035 0.352173913,1.07604994 C0.302898551,1.01853954 0.27826087,0.938327658 0.27826087,0.835414302 L0.27826087,0.517593644 C0.27826087,0.420734014 0.302898551,0.343548997 0.352173913,0.286038593 C0.401449275,0.228528188 0.469565217,0.199772985 0.556521739,0.199772985 L3.25217391,0.199772985 C3.25217391,0.139235717 3.27681159,0.0908059024 3.32608696,0.0544835414 C3.37536232,0.0181611805 3.44347826,0 3.53043478,0 L4.45217391,0 C4.63768116,0 4.73043478,0.0332954975 4.73043478,0.0998864926 L4.73043478,0.199772985 L7.46086957,0.199772985 C7.54782609,0.199772985 7.61594203,0.228528188 7.66521739,0.286038593 C7.71449275,0.343548997 7.73913043,0.420734014 7.73913043,0.517593644 L7.73913043,0.835414302 C7.73913043,0.938327658 7.71449275,1.01853954 7.66521739,1.07604994 C7.61594203,1.13356035 7.54782609,1.16231555 7.46086957,1.16231555 L4.73043478,1.16231555 L4.73043478,1.37116913 L7.2,1.37116913 C7.28695652,1.37116913 7.35507246,1.39992433 7.40434783,1.45743473 C7.45362319,1.51494514 7.47826087,1.59213016 7.47826087,1.68898978 L7.47826087,1.94324631 C7.47826087,2.04615967 7.45362319,2.12637155 7.40434783,2.18388195 C7.35507246,2.24139236 7.28695652,2.27014756 7.2,2.27014756 L4.73043478,2.27014756 L4.73043478,2.47900114 L7.63478261,2.47900114 C7.72173913,2.47900114 7.78985507,2.50775634 7.83913043,2.56526674 C7.8884058,2.62277715 7.91304348,2.69996216 7.91304348,2.79682179 L7.91304348,3.1600454 Z M7.27826087,5.99318956 L7.39130435,5.99318956 C7.47826087,5.99318956 7.54637681,6.02194476 7.59565217,6.07945516 C7.64492754,6.13696557 7.66956522,6.21415059 7.66956522,6.31101022 L7.66956522,6.67423383 C7.66956522,6.77714718 7.65217391,6.85584563 7.6173913,6.91032917 C7.5826087,6.96481271 7.53623188,6.99205448 7.47826087,6.99205448 L7.27826087,6.99205448 L7.27826087,7.68217934 C7.27826087,7.77903897 7.25362319,7.85622399 7.20434783,7.91373439 C7.15507246,7.9712448 7.08695652,8 7,8 L4.69565217,8 C4.59710145,8 4.51304348,7.96065078 4.44347826,7.88195233 C4.37391304,7.80325388 4.33913043,7.70639425 4.33913043,7.59137344 C4.33913043,7.47635263 4.37391304,7.379493 4.44347826,7.30079455 C4.51304348,7.2220961 4.59710145,7.18274688 4.69565217,7.18274688 L5.8,7.18274688 L5.8,6.99205448 L0.895652174,6.99205448 C0.808695652,6.99205448 0.74057971,6.96329928 0.691304348,6.90578888 C0.642028986,6.84827847 0.617391304,6.77109345 0.617391304,6.67423383 L0.626086957,5.92054484 L0.27826087,5.92054484 C0.191304348,5.92054484 0.123188406,5.89178963 0.0739130435,5.83427923 C0.0246376812,5.77676882 0,5.69958381 0,5.60272418 L0,5.03972758 C0,4.94286795 0.0246376812,4.86568294 0.0739130435,4.80817253 C0.123188406,4.75066213 0.191304348,4.72190692 0.27826087,4.72190692 L0.643478261,4.72190692 L0.652173913,3.9954597 C0.652173913,3.78963299 0.742028986,3.68671964 0.92173913,3.68671964 L7.00869565,3.68671964 C7.09565217,3.68671964 7.16376812,3.71547484 7.21304348,3.77298524 C7.26231884,3.83049565 7.28695652,3.90768067 7.28695652,4.0045403 L7.28695652,4.62202043 L7.72173913,4.62202043 C7.80869565,4.62202043 7.87681159,4.65077563 7.92608696,4.70828604 C7.97536232,4.76579644 8,4.84298146 8,4.93984109 L8,5.40295119 C8,5.49981082 7.97536232,5.57699584 7.92608696,5.63450624 C7.87681159,5.69201665 7.80869565,5.72077185 7.72173913,5.72077185 L7.28695652,5.72077185 L7.27826087,5.99318956 Z M2.11304348,4.98524404 L3.3826087,4.98524404 C3.37101449,4.93681423 3.39130435,4.897465 3.44347826,4.86719637 C3.49565217,4.83692773 3.56811594,4.82179342 3.66086957,4.82179342 L4.28695652,4.82179342 C4.45507246,4.82179342 4.54202899,4.84903519 4.54782609,4.90351873 L4.56521739,4.98524404 L5.80869565,4.98524404 L5.80869565,4.68558456 L2.11304348,4.68558456 L2.11304348,4.98524404 Z M5.80869565,5.68444949 L2.11304348,5.68444949 L2.11304348,5.99318956 L3.39130435,5.99318956 C3.38550725,5.93265229 3.40724638,5.88422247 3.45652174,5.84790011 C3.5057971,5.81157775 3.57391304,5.79341657 3.66086957,5.79341657 L4.29565217,5.79341657 C4.46376812,5.79341657 4.55362319,5.82671207 4.56521739,5.89330306 L4.57391304,5.99318956 L5.80869565,5.99318956 L5.80869565,5.68444949 Z" id="形状"></path>
            </g>
        </g>
    </g>
</svg>