<?xml version="1.0" encoding="UTF-8"?>
<svg width="40px" height="42px" viewBox="0 0 40 42" version="1.1" xmlns="http://www.w3.org/2000/svg" xmlns:xlink="http://www.w3.org/1999/xlink">
    <title>精神障碍患者</title>
    <defs>
        <linearGradient x1="50%" y1="-23.2698085%" x2="50%" y2="100%" id="linearGradient-1">
            <stop stop-color="#B2DCFF" offset="0%"></stop>
            <stop stop-color="#54A6FA" offset="100%"></stop>
        </linearGradient>
    </defs>
    <g id="页面-1" stroke="none" stroke-width="1" fill="none" fill-rule="evenodd">
        <g id="精神障碍患者" transform="translate(0.947441, 0.532065)" fill-rule="nonzero">
            <path d="M24.0330749,1.32852605 L33.0856338,6.52792056 C36.1906195,8.31128881 38.1051178,11.6187048 38.1051178,15.1993946 L38.1051178,25.5083072 C38.1051178,29.0889969 36.1906195,32.3964129 33.0856338,34.1797812 L24.0330749,39.3791757 C20.9489824,41.1505437 17.1561354,41.1505437 14.0720429,39.3791757 L5.01948402,34.1797812 C1.91449824,32.3964129 0,29.0889969 0,25.5083072 L0,15.1993946 C0,11.6187048 1.91449824,8.31128881 5.01948402,6.52792056 L14.0720429,1.32852605 C17.1561354,-0.442842015 20.9489824,-0.442842015 24.0330749,1.32852605 Z" id="Polygon" fill="#D9EDFE"></path>
            <path d="M23.922939,17.4668278 C23.8457,17.7739522 23.768461,18.0522837 23.6912221,18.3018222 C23.6139831,18.5129703 23.5174344,18.7289171 23.4015759,18.9496628 C23.2857175,19.1704084 23.1602042,19.3383671 23.025036,19.4535387 C22.8512483,19.5879057 22.7305624,19.7318702 22.6629783,19.8854324 C22.5953942,20.0389946 22.537465,20.1973557 22.4891906,20.3605155 C22.4409163,20.5236753 22.3878145,20.691634 22.3298852,20.8643915 C22.271956,21.0371489 22.1754073,21.2099064 22.0402391,21.3826639 C21.596115,21.9585221 21.263022,22.5151851 21.0409599,23.0526528 C20.8188979,23.5901205 20.66442,24.1083929 20.5775261,24.6074701 C20.4906323,25.1065472 20.4664951,25.6008256 20.5051146,26.0903051 C20.5437341,26.5797846 20.6209731,27.0548676 20.7368315,27.5155542 C20.8140705,27.8610692 20.9299289,28.2209806 21.0844069,28.5952885 C21.2388848,28.9695963 21.4657743,29.3535018 21.7650753,29.747005 C22.0643763,30.1405081 22.4457437,30.5244136 22.9091775,30.8987215 C23.3726113,31.2730293 23.9519036,31.6329407 24.6470543,31.9784557 C24.1836205,32.0744321 23.6429477,32.1608108 23.025036,32.2375919 C22.5036729,32.2951777 21.861624,32.3479647 21.0988892,32.3959529 C20.3361544,32.4439411 19.4623885,32.4679352 18.4775917,32.4679352 C17.9755384,32.4679352 17.3914187,32.4487399 16.7252326,32.4103494 C16.0590464,32.3719588 15.3735506,32.3239706 14.668745,32.2663848 C13.9639394,32.208799 13.2687887,32.1416155 12.5832928,32.0648344 C11.897797,31.9880533 11.2702304,31.9064734 10.700593,31.8200947 C10.1309556,31.7337159 9.64821198,31.6425384 9.25236228,31.546562 C8.85651258,31.4505856 8.61031338,31.3642069 8.51376468,31.2874258 C8.33997698,31.1338636 8.20480878,30.7067687 8.10826008,30.0061412 C8.01171138,29.3055136 8.04067598,28.3889393 8.19515388,27.256418 C8.29170258,26.622974 8.54755668,26.1382933 8.96271618,25.802376 C9.37787558,25.4664586 9.86544658,25.2025236 10.4254291,25.0105709 C10.9854117,24.8186181 11.5695314,24.6410618 12.1777883,24.477902 C12.7860451,24.3147421 13.3218905,24.0891977 13.7853243,23.8012685 C14.1522094,23.5709252 14.4322007,23.3549784 14.6252981,23.153428 C14.8183955,22.9518776 14.9535637,22.7455284 15.0308027,22.5343804 C15.1080416,22.3232324 15.1466611,22.1024867 15.1466611,21.8721434 C15.1466611,21.6418001 15.1370063,21.3922615 15.1176965,21.1235277 C15.079077,20.7204269 14.9390814,20.4037049 14.6977096,20.1733616 C14.4563378,19.9430183 14.2004838,19.712675 13.9301474,19.4823317 C13.7756694,19.36716 13.6405012,19.1944025 13.5246428,18.9640592 C13.4087843,18.7337159 13.3122356,18.5129703 13.2349966,18.3018222 C13.1384479,18.0522837 13.061209,17.7739522 13.0032797,17.4668278 C12.8681115,17.4284372 12.7425982,17.3708514 12.6267398,17.2940703 C12.5301911,17.2172892 12.4239875,17.1021176 12.308129,16.9485554 C12.1922706,16.7949932 12.086067,16.5646499 11.9895183,16.2575255 C11.8929696,15.9695963 11.8591775,15.7008625 11.8881421,15.4513239 C11.9171067,15.2017853 11.9702085,14.9906373 12.0474475,14.8178798 C12.1246865,14.6067318 12.23089,14.4243767 12.3660582,14.2708145 C12.3660582,13.6181751 12.4046777,12.9655358 12.4819167,12.3128964 C12.5591557,11.7562335 12.6798416,11.1611799 12.8439744,10.5277359 C13.0081072,9.89429175 13.2736161,9.32803115 13.6405012,8.82895395 C13.9880766,8.3490721 14.3597891,7.95556896 14.7556388,7.64844457 C15.1514886,7.34132016 15.5618206,7.10137923 15.9866349,6.92862175 C16.4114492,6.75586428 16.8362636,6.63589381 17.2610779,6.56871034 C17.6858922,6.50152688 18.0913968,6.46793515 18.4775917,6.46793515 C18.979645,6.46793515 19.4623885,6.52552098 19.9258223,6.64069263 C20.3892561,6.75586428 20.8188979,6.90942648 21.2147476,7.10137923 C21.6105973,7.29333199 21.9630001,7.50927882 22.271956,7.74921976 C22.5809119,7.98916069 22.8319385,8.23390045 23.025036,8.48343905 C23.46916,9.04010205 23.7925982,9.65435085 23.9953505,10.3261855 C24.1981028,10.9980201 24.3477533,11.6314642 24.444302,12.2265177 C24.5408507,12.9175476 24.5794702,13.6085775 24.5601605,14.2996074 C24.6760189,14.3955838 24.7725676,14.5107554 24.8498066,14.6451224 C24.9270456,14.760294 24.9849748,14.9138562 25.0235943,15.105809 C25.0622138,15.2977617 25.0622138,15.5377026 25.0235943,15.8256318 C24.9849748,16.190342 24.9077358,16.4782711 24.7918774,16.6894191 C24.6760189,16.9005672 24.5505056,17.063727 24.4153374,17.1788987 C24.2608595,17.3132656 24.0967267,17.409242 23.922939,17.4668278 L23.922939,17.4668278 Z" id="path-2" fill="url(#linearGradient-1)"></path>
            <g id="精" transform="translate(24.052559, 22.467935)" fill="#388CFF">
                <path d="M7.71899012,2.59410431 C7.80680571,2.59410431 7.87559458,2.62282691 7.92535675,2.68027211 C7.97511892,2.73771731 8,2.81481481 8,2.91156463 L8,3.37414966 C8,3.47089947 7.97511892,3.54799698 7.92535675,3.60544218 C7.87559458,3.66288738 7.80680571,3.69160998 7.71899012,3.69160998 L3.54774973,3.69160998 C3.45993414,3.69160998 3.39114526,3.66288738 3.3413831,3.60544218 C3.29162093,3.54799698 3.26673985,3.47089947 3.26673985,3.37414966 L3.26673985,2.91156463 C3.26673985,2.81481481 3.29162093,2.73771731 3.3413831,2.68027211 C3.39114526,2.62282691 3.45993414,2.59410431 3.54774973,2.59410431 L4.88254665,2.59410431 L4.88254665,2.39455782 L3.79363337,2.39455782 C3.70581778,2.39455782 3.63702891,2.36583522 3.58726674,2.30839002 C3.53750457,2.25094482 3.51262349,2.17384732 3.51262349,2.07709751 L3.51262349,1.85941043 C3.51262349,1.75661376 3.53750457,1.67649282 3.58726674,1.61904762 C3.63702891,1.56160242 3.70581778,1.53287982 3.79363337,1.53287982 L4.88254665,1.53287982 L4.88254665,1.33333333 L3.62678375,1.33333333 C3.53896817,1.33333333 3.47017929,1.30461073 3.42041712,1.24716553 C3.37065496,1.18972033 3.34577387,1.11262283 3.34577387,1.01587302 L3.34577387,0.562358277 C3.34577387,0.459561602 3.37065496,0.379440665 3.42041712,0.321995465 C3.47017929,0.264550265 3.53896817,0.235827664 3.62678375,0.235827664 L4.88254665,0.235827664 C4.88254665,0.163265306 4.90742774,0.105820106 4.9571899,0.0634920635 C5.00695207,0.0211640212 5.07574094,0 5.16355653,0 L5.98024149,0 C6.06805708,0 6.13684596,0.0105820106 6.18660812,0.0317460317 C6.23637029,0.0529100529 6.26125137,0.0816326531 6.26125137,0.117913832 L6.26125137,0.235827664 L7.57848518,0.235827664 C7.66630077,0.235827664 7.73508965,0.264550265 7.78485181,0.321995465 C7.83461398,0.379440665 7.85949506,0.459561602 7.85949506,0.562358277 L7.85949506,1.01587302 C7.85949506,1.11262283 7.83461398,1.18972033 7.78485181,1.24716553 C7.73508965,1.30461073 7.66630077,1.33333333 7.57848518,1.33333333 L6.26125137,1.33333333 L6.26125137,1.53287982 L7.37650933,1.53287982 C7.46432492,1.53287982 7.53311379,1.56160242 7.58287596,1.61904762 C7.63263813,1.67649282 7.65751921,1.75661376 7.65751921,1.85941043 L7.65751921,2.07709751 C7.65751921,2.17384732 7.63263813,2.25094482 7.58287596,2.30839002 C7.53311379,2.36583522 7.46432492,2.39455782 7.37650933,2.39455782 L6.26125137,2.39455782 L6.26125137,2.59410431 L7.71899012,2.59410431 Z M2.33589462,7.6553288 C2.33589462,7.75207861 2.31101354,7.82917611 2.26125137,7.88662132 C2.21148921,7.94406652 2.14270033,7.97278912 2.05488474,7.97278912 L1.15916575,7.97278912 C1.07135016,7.97278912 1.00256129,7.94406652 0.952799122,7.88662132 C0.903036956,7.82917611 0.878155873,7.75207861 0.878155873,7.6553288 L0.878155873,3.89115646 L0.281009879,3.89115646 C0.193194292,3.89115646 0.124405415,3.86243386 0.0746432492,3.80498866 C0.0248810831,3.74754346 0,3.67044596 0,3.57369615 L0,3.01133787 C0,2.91458806 0.0248810831,2.83749055 0.0746432492,2.78004535 C0.124405415,2.72260015 0.193194292,2.69387755 0.281009879,2.69387755 L0.878155873,2.69387755 L0.878155873,0.326530612 C0.878155873,0.229780801 0.903036956,0.152683296 0.952799122,0.0952380952 C1.00256129,0.0377928949 1.07135016,0.00907029478 1.15916575,0.00907029478 L2.05488474,0.00907029478 C2.14270033,0.00907029478 2.21148921,0.0377928949 2.26125137,0.0952380952 C2.31101354,0.152683296 2.33589462,0.229780801 2.33589462,0.326530612 L2.33589462,2.69387755 L2.80131723,2.69387755 C2.88913282,2.69387755 2.9579217,2.72260015 3.00768386,2.78004535 C3.05744603,2.83749055 3.08232711,2.91458806 3.08232711,3.01133787 L3.08232711,3.57369615 C3.08232711,3.67044596 3.05744603,3.74754346 3.00768386,3.80498866 C2.9579217,3.86243386 2.88913282,3.89115646 2.80131723,3.89115646 L2.33589462,3.89115646 L2.33589462,7.6553288 Z M0.439077936,2.48526077 C0.362971094,2.48526077 0.298572997,2.45653817 0.245883644,2.39909297 C0.193194292,2.34164777 0.16392243,2.26455026 0.158068057,2.16780045 L0.096597146,0.825396825 C0.0907427735,0.734693878 0.11708745,0.65457294 0.175631175,0.585034014 C0.234174899,0.515495087 0.304427369,0.480725624 0.386388584,0.480725624 C0.462495426,0.480725624 0.526893524,0.509448224 0.579582876,0.566893424 C0.632272228,0.624338624 0.661544091,0.698412698 0.667398463,0.789115646 L0.728869374,2.14058957 C0.734723747,2.23129252 0.708379071,2.31141345 0.649835346,2.38095238 C0.591291621,2.45049131 0.521039151,2.48526077 0.439077936,2.48526077 Z M3.05598244,2.16780045 C3.05012806,2.26455026 3.0208562,2.34164777 2.96816685,2.39909297 C2.9154775,2.45653817 2.8510794,2.48526077 2.77497256,2.48526077 C2.69301134,2.48526077 2.62275887,2.45049131 2.56421515,2.38095238 C2.50567142,2.31141345 2.47932675,2.23129252 2.48518112,2.14058957 L2.54665203,0.789115646 C2.5525064,0.698412698 2.58177827,0.624338624 2.63446762,0.566893424 C2.68715697,0.509448224 2.75155507,0.480725624 2.82766191,0.480725624 C2.90962312,0.480725624 2.97987559,0.515495087 3.03841932,0.585034014 C3.09696304,0.65457294 3.12330772,0.734693878 3.11745335,0.825396825 L3.05598244,2.16780045 Z M3.34577387,4.19047619 C3.34577387,4.09372638 3.37065496,4.01662887 3.42041712,3.95918367 C3.47017929,3.90173847 3.53896817,3.87301587 3.62678375,3.87301587 L7.60482986,3.87301587 C7.69264544,3.87301587 7.76143432,3.90173847 7.81119649,3.95918367 C7.86095865,4.01662887 7.88583974,4.09372638 7.88583974,4.19047619 L7.88583974,7.66439909 C7.88583974,7.7611489 7.86095865,7.83824641 7.81119649,7.89569161 C7.76143432,7.95313681 7.69264544,7.98185941 7.60482986,7.98185941 L5.96267838,7.98185941 C5.87486279,7.98185941 5.80607391,7.95313681 5.75631175,7.89569161 C5.70654958,7.83824641 5.6816685,7.7611489 5.6816685,7.66439909 L5.6816685,7.3015873 C5.6816685,7.20483749 5.70654958,7.12773998 5.75631175,7.07029478 C5.80607391,7.01284958 5.87486279,6.98412698 5.96267838,6.98412698 L6.51591658,6.98412698 L6.51591658,6.76643991 L4.71569704,6.76643991 L4.71569704,7.66439909 C4.71569704,7.7611489 4.69081595,7.83824641 4.64105379,7.89569161 C4.59129162,7.95313681 4.52250274,7.98185941 4.43468716,7.98185941 L3.62678375,7.98185941 C3.53896817,7.98185941 3.47017929,7.95313681 3.42041712,7.89569161 C3.37065496,7.83824641 3.34577387,7.7611489 3.34577387,7.66439909 L3.34577387,4.19047619 Z M0.149286498,4.50793651 C0.155140871,4.41723356 0.185876326,4.34315949 0.241492865,4.28571429 C0.297109404,4.22826909 0.362971094,4.19954649 0.439077936,4.19954649 C0.521039151,4.19954649 0.591291621,4.23431595 0.649835346,4.30385488 C0.708379071,4.3733938 0.734723747,4.45351474 0.728869374,4.54421769 L0.579582876,7.69160998 C0.573728503,7.78231293 0.544456641,7.856387 0.491767289,7.9138322 C0.439077936,7.9712774 0.374679839,8 0.298572997,8 C0.216611782,8 0.146359312,7.96523054 0.0878155873,7.89569161 C0.0292718624,7.82615268 0.00292718624,7.74603175 0.00878155873,7.6553288 L0.149286498,4.50793651 Z M2.77497256,4.19954649 C2.8510794,4.19954649 2.91694109,4.22826909 2.97255763,4.28571429 C3.02817417,4.34315949 3.05890962,4.41723356 3.064764,4.50793651 L3.20526894,7.6553288 C3.21112331,7.74603175 3.18477863,7.82615268 3.12623491,7.89569161 C3.06769118,7.96523054 2.99743871,8 2.9154775,8 C2.83937065,8 2.77497256,7.9712774 2.72228321,7.9138322 C2.66959385,7.856387 2.64032199,7.78231293 2.63446762,7.69160998 L2.48518112,4.54421769 C2.47932675,4.45351474 2.50567142,4.3733938 2.56421515,4.30385488 C2.62275887,4.23431595 2.69301134,4.19954649 2.77497256,4.19954649 Z M4.71569704,5.20634921 L6.51591658,5.20634921 L6.51591658,5.00680272 L4.71569704,5.00680272 L4.71569704,5.20634921 Z M6.51591658,5.88662132 L4.71569704,5.88662132 L4.71569704,6.0861678 L6.51591658,6.0861678 L6.51591658,5.88662132 Z" id="形状"></path>
            </g>
        </g>
    </g>
</svg>