<?xml version="1.0" encoding="UTF-8"?>
<svg width="54px" height="55px" viewBox="0 0 54 55" version="1.1" xmlns="http://www.w3.org/2000/svg" xmlns:xlink="http://www.w3.org/1999/xlink">
    <title>Icon_ruhu</title>
    <g id="页面-1" stroke="none" stroke-width="1" fill="none" fill-rule="evenodd">
        <g id="首页-内容修改6/241" transform="translate(-1053.000000, -756.000000)">
            <g id="Icon_ruhu" transform="translate(1053.000000, 756.666667)">
                <path d="M32,2.88675135 L45.3826859,10.6132487 C48.4766967,12.3995766 50.3826859,15.7008468 50.3826859,19.2735027 L50.3826859,34.7264973 C50.3826859,38.2991532 48.4766967,41.6004234 45.3826859,43.3867513 L32,51.1132487 C28.9059892,52.8995766 25.0940108,52.8995766 22,51.1132487 L8.6173141,43.3867513 C5.52330333,41.6004234 3.6173141,38.2991532 3.6173141,34.7264973 L3.6173141,19.2735027 C3.6173141,15.7008468 5.52330333,12.3995766 8.6173141,10.6132487 L22,2.88675135 C25.0940108,1.1004234 28.9059892,1.1004234 32,2.88675135 Z" id="Polygon" fill="#D7EDFF"></path>
                <path d="M39.2879705,22.6639519 L40.9985642,24.4448323 C42.3338119,25.8347877 42.3338119,28.08726 40.9985642,29.4772154 L39.2879705,29.4772154 L39.2879705,37.9968974 C39.2879705,40.9443475 36.9189827,43.3271282 34.0023587,43.3271282 L30.4150344,43.3271282 L30.4150344,36.2160171 C30.4150344,35.037037 29.4674392,34.0814427 28.2983284,34.0814427 L25.7016716,34.0814427 C24.5325608,34.0814427 23.5849656,35.037037 23.5849656,36.2160171 L23.5849656,43.3333333 L19.9976413,43.3333333 C17.0748641,43.3333333 14.7120295,40.9443475 14.7120295,38.0031026 L14.7120295,29.4834206 L13.0014358,29.4834206 C11.6661881,28.0748497 11.6661881,25.8596083 13.0014358,24.4510374 L14.7120295,22.6701571 L15.3642703,21.9875897 L24.5879397,12.3757999 C25.2155676,11.711848 26.0893242,11.3333333 27,11.3333333 C27.9106758,11.3333333 28.7844324,11.711848 29.4120603,12.3757999 L38.6357297,21.9875897 L39.2879705,22.6639519 L39.2879705,22.6639519 Z" id="形状" fill="#FFFFFF" fill-rule="nonzero"></path>
            </g>
        </g>
    </g>
</svg>