<?xml version="1.0" encoding="UTF-8"?>
<svg width="50px" height="54px" viewBox="0 0 50 54" version="1.1" xmlns="http://www.w3.org/2000/svg" xmlns:xlink="http://www.w3.org/1999/xlink">
    <title>处置中</title>
    <defs>
        <linearGradient x1="-26.9358379%" y1="0%" x2="99.9957384%" y2="100%" id="linearGradient-1">
            <stop stop-color="#A0CAFF" offset="0%"></stop>
            <stop stop-color="#3979DD" offset="89.7438131%"></stop>
            <stop stop-color="#2D70D9" offset="100%"></stop>
        </linearGradient>
        <linearGradient x1="10.6629333%" y1="7.74013866%" x2="93.6050182%" y2="86.3485856%" id="linearGradient-2">
            <stop stop-color="#82B3F9" offset="0%"></stop>
            <stop stop-color="#509BFF" offset="100%"></stop>
        </linearGradient>
        <polygon id="path-3" points="0 0 15.0810811 0 15.0810811 15.0810811 0 15.0810811"></polygon>
    </defs>
    <g id="页面-1" stroke="none" stroke-width="1" fill="none" fill-rule="evenodd">
        <g id="处置中" transform="translate(0.751289, 0.547005)">
            <path d="M29.2487113,1.33974596 L43.4974226,9.56624331 C46.5914334,11.3525712 48.4974226,14.6538414 48.4974226,18.2264973 L48.4974226,34.6794919 C48.4974226,38.2521478 46.5914334,41.553418 43.4974226,43.3397459 L29.2487113,51.5662433 C26.1547005,53.3525712 22.3427221,53.3525712 19.2487113,51.5662433 L5,43.3397459 C1.90598924,41.553418 0,38.2521478 0,34.6794919 L0,18.2264973 C0,14.6538414 1.90598924,11.3525712 5,9.56624331 L19.2487113,1.33974596 C22.3427221,-0.446581987 26.1547005,-0.446581987 29.2487113,1.33974596 Z" id="Polygon" fill="#D6EDFF" fill-rule="nonzero"></path>
            <g id="编组-42" transform="translate(9.248711, 10.452825)">
                <g id="Icon_chuzhi" transform="translate(0.000000, -0.000000)" fill-rule="nonzero">
                    <g id="形状">
                        <g id="path-3-link" fill="#FFFFFF">
                            <path d="M20.9654814,0.00016944839 C21.4858678,0.00016944839 21.9126264,0.421989754 21.9672147,0.965540914 L21.9731142,1.08377284 L21.9731142,3.70523114 L24.7911275,3.70523114 C25.8513326,3.70523114 26.7271541,4.59722074 26.8042478,5.71759414 L26.8098645,5.87172561 L26.8098645,16.9152073 C25.5964983,16.2132665 24.1877517,15.8115194 22.6851748,15.8115194 C18.1292926,15.8115194 14.4360203,19.5049016 14.4360203,24.0609195 C14.4360203,25.0252094 14.6014661,25.9508562 14.9055194,26.8110209 L2.01526575,26.8110209 C0.955060726,26.8110209 0.0792391827,25.918905 0.00508495591,24.7985316 L0,24.6444001 L0,5.87172561 C0,4.73196113 0.829725673,3.79041656 1.87189318,3.71069768 L2.01526575,3.70523114 L4.85343169,3.70523114 L4.89709578,1.06210789 C4.90717211,0.466321913 5.36732445,-0.0103068692 5.92152253,0.00016944839 C6.43877408,0.0106238407 6.859472,0.439087471 6.90507373,0.983502069 L6.90900275,1.10182696 L6.86533866,3.70523114 L19.9578485,3.70523114 L19.9578485,1.08377284 C19.9578485,0.484376034 20.4079245,0.00016944839 20.9654814,0.00016944839 Z M12.5810141,16.9815877 L5.81523249,16.9815877 C5.26054797,16.9815877 4.81200678,17.4879641 4.81200678,18.1152661 C4.81200678,18.7425682 5.26054797,19.2489446 5.81523249,19.2489446 L12.5810141,19.2489446 C13.1356986,19.2489446 13.5842398,18.7425682 13.5842398,18.1152661 C13.5842398,17.4879641 13.1356986,16.9815877 12.5810141,16.9815877 Z M12.7453651,10.9995445 L5.81523249,10.9995445 C5.26054797,10.9995445 4.81200678,11.5059209 4.81200678,12.133223 C4.81200678,12.760525 5.26054797,13.2669014 5.81523249,13.2669014 L12.7453651,13.2669014 C13.3000496,13.2669014 13.7485908,12.760525 13.7485908,12.133223 C13.7485908,11.5059209 13.3000496,10.9995445 12.7453651,10.9995445 Z" id="path-3"></path>
                        </g>
                        <g id="path-3-link" fill="url(#linearGradient-1)">
                            <path d="M20.9654814,0.00016944839 C21.4858678,0.00016944839 21.9126264,0.421989754 21.9672147,0.965540914 L21.9731142,1.08377284 L21.9731142,3.70523114 L24.7911275,3.70523114 C25.8513326,3.70523114 26.7271541,4.59722074 26.8042478,5.71759414 L26.8098645,5.87172561 L26.8098645,16.9152073 C25.5964983,16.2132665 24.1877517,15.8115194 22.6851748,15.8115194 C18.1292926,15.8115194 14.4360203,19.5049016 14.4360203,24.0609195 C14.4360203,25.0252094 14.6014661,25.9508562 14.9055194,26.8110209 L2.01526575,26.8110209 C0.955060726,26.8110209 0.0792391827,25.918905 0.00508495591,24.7985316 L0,24.6444001 L0,5.87172561 C0,4.73196113 0.829725673,3.79041656 1.87189318,3.71069768 L2.01526575,3.70523114 L4.85343169,3.70523114 L4.89709578,1.06210789 C4.90717211,0.466321913 5.36732445,-0.0103068692 5.92152253,0.00016944839 C6.43877408,0.0106238407 6.859472,0.439087471 6.90507373,0.983502069 L6.90900275,1.10182696 L6.86533866,3.70523114 L19.9578485,3.70523114 L19.9578485,1.08377284 C19.9578485,0.484376034 20.4079245,0.00016944839 20.9654814,0.00016944839 Z M12.5810141,16.9815877 L5.81523249,16.9815877 C5.26054797,16.9815877 4.81200678,17.4879641 4.81200678,18.1152661 C4.81200678,18.7425682 5.26054797,19.2489446 5.81523249,19.2489446 L12.5810141,19.2489446 C13.1356986,19.2489446 13.5842398,18.7425682 13.5842398,18.1152661 C13.5842398,17.4879641 13.1356986,16.9815877 12.5810141,16.9815877 Z M12.7453651,10.9995445 L5.81523249,10.9995445 C5.26054797,10.9995445 4.81200678,11.5059209 4.81200678,12.133223 C4.81200678,12.760525 5.26054797,13.2669014 5.81523249,13.2669014 L12.7453651,13.2669014 C13.3000496,13.2669014 13.7485908,12.760525 13.7485908,12.133223 C13.7485908,11.5059209 13.3000496,10.9995445 12.7453651,10.9995445 Z" id="path-3"></path>
                        </g>
                        <g id="path-3-link" fill="url(#linearGradient-2)">
                            <path d="M20.9654814,0.00016944839 C21.4858678,0.00016944839 21.9126264,0.421989754 21.9672147,0.965540914 L21.9731142,1.08377284 L21.9731142,3.70523114 L24.7911275,3.70523114 C25.8513326,3.70523114 26.7271541,4.59722074 26.8042478,5.71759414 L26.8098645,5.87172561 L26.8098645,16.9152073 C25.5964983,16.2132665 24.1877517,15.8115194 22.6851748,15.8115194 C18.1292926,15.8115194 14.4360203,19.5049016 14.4360203,24.0609195 C14.4360203,25.0252094 14.6014661,25.9508562 14.9055194,26.8110209 L2.01526575,26.8110209 C0.955060726,26.8110209 0.0792391827,25.918905 0.00508495591,24.7985316 L0,24.6444001 L0,5.87172561 C0,4.73196113 0.829725673,3.79041656 1.87189318,3.71069768 L2.01526575,3.70523114 L4.85343169,3.70523114 L4.89709578,1.06210789 C4.90717211,0.466321913 5.36732445,-0.0103068692 5.92152253,0.00016944839 C6.43877408,0.0106238407 6.859472,0.439087471 6.90507373,0.983502069 L6.90900275,1.10182696 L6.86533866,3.70523114 L19.9578485,3.70523114 L19.9578485,1.08377284 C19.9578485,0.484376034 20.4079245,0.00016944839 20.9654814,0.00016944839 Z M12.5810141,16.9815877 L5.81523249,16.9815877 C5.26054797,16.9815877 4.81200678,17.4879641 4.81200678,18.1152661 C4.81200678,18.7425682 5.26054797,19.2489446 5.81523249,19.2489446 L12.5810141,19.2489446 C13.1356986,19.2489446 13.5842398,18.7425682 13.5842398,18.1152661 C13.5842398,17.4879641 13.1356986,16.9815877 12.5810141,16.9815877 Z M12.7453651,10.9995445 L5.81523249,10.9995445 C5.26054797,10.9995445 4.81200678,11.5059209 4.81200678,12.133223 C4.81200678,12.760525 5.26054797,13.2669014 5.81523249,13.2669014 L12.7453651,13.2669014 C13.3000496,13.2669014 13.7485908,12.760525 13.7485908,12.133223 C13.7485908,11.5059209 13.3000496,10.9995445 12.7453651,10.9995445 Z" id="path-3"></path>
                        </g>
                    </g>
                </g>
                <g id="Fill-1-Clipped" transform="translate(15.918919, 16.756926)">
                    <mask id="mask-4" fill="white">
                        <use xlink:href="#path-3"></use>
                    </mask>
                    <g id="path-4"></g>
                    <path d="M6.86391781,0.685503686 L7.09828353,0.689473815 C10.7554071,0.813540757 13.7100737,3.82988501 13.7100737,7.54869938 C13.7100737,11.3137471 10.628339,14.3955774 6.86391781,14.3955774 C3.06575751,14.3955774 0,11.3137471 0,7.54869938 C0,3.7507613 3.06575751,0.685503686 6.86391781,0.685503686 L6.86391781,0.685503686 Z M5.94977353,4.68550369 C5.70867464,4.68550369 5.4995306,4.89616365 5.4995306,5.13902956 L5.4995306,7.89090427 C5.20988335,8.03649169 5,8.35995506 5,8.71611986 C5,9.25040834 5.41853452,9.67098504 5.94977353,9.67098504 C6.32041685,9.67098504 6.62665762,9.46073798 6.78741759,9.16939798 L10.7970523,9.16939798 C11.0383154,9.16939798 11.2318517,8.95882061 11.2318517,8.71611986 C11.2318517,8.47300621 11.0383154,8.27902728 10.7970523,8.27902728 L6.78741759,8.27902728 C6.69097804,8.1009036 6.56241935,7.97183205 6.40133079,7.89090427 L6.40133079,5.13902956 C6.40133079,4.89616365 6.19185816,4.68550369 5.94977353,4.68550369 Z" id="形状结合" fill="#FFC700" fill-rule="nonzero" mask="url(#mask-4)"></path>
                </g>
            </g>
        </g>
    </g>
</svg>