<?xml version="1.0" encoding="UTF-8"?>
<svg width="38px" height="38px" viewBox="0 0 38 38" version="1.1" xmlns="http://www.w3.org/2000/svg" xmlns:xlink="http://www.w3.org/1999/xlink">
    <title>党建引领</title>
    <defs>
        <linearGradient x1="50%" y1="0%" x2="50%" y2="96.8234402%" id="linearGradient-1">
            <stop stop-color="#FE727D" offset="0%"></stop>
            <stop stop-color="#E00F1A" offset="100%"></stop>
        </linearGradient>
    </defs>
    <g id="z" stroke="none" stroke-width="1" fill="none" fill-rule="evenodd">
        <g id="7/20日首页面改版" transform="translate(-70.000000, -652.000000)" fill="url(#linearGradient-1)">
            <g id="形状_1" transform="translate(70.000000, 652.000000)">
                <path d="M18.9135766,1.03929857 C18.9135766,1.03929857 32.2472823,5.20326153 30.5514743,20.7581445 C30.5514743,20.7581445 30.0384568,23.5720707 29.1264256,24.5141151 L17.2510198,12.7767068 L21.763674,8.3164917 L18.9135766,5.49951372 C18.9135766,5.49951372 17.0491379,7.39041019 13.2133819,6.67325454 L4.18807345,15.5936848 L9.17574389,20.5233963 L12.5008575,17.236922 L24.3762633,28.9743303 C24.3762633,28.9743303 22.3598194,31.9934264 12.0258413,30.1480711 C12.0258413,30.1480711 6.24726881,27.6418997 3.95056533,24.2793669 L1.81299229,27.5658413 C2.39559603,28.7265363 3.20246339,29.7632749 4.18807345,30.6175674 L4.18807345,31.3218119 C4.18807345,31.3218119 0.335691804,30.8757904 1.10046794,35.3125307 C1.10046794,35.3125307 2.69889756,38.2703576 5.61312214,36.2515234 C5.61312214,36.2515234 6.95266792,35.5437577 6.56315461,33.1997972 L7.03817084,32.9650491 C7.03817084,32.9650491 12.1802216,37.4926369 20.5761335,36.9557679 C20.5761335,36.9557679 26.0910719,36.7120993 28.8889175,33.9040417 C28.8889175,33.9040417 28.9554198,33.331491 29.6014419,34.1387899 L32.4515393,36.9557679 L36.9641935,32.4955527 L33.876588,29.4438266 L34.1140961,28.5048339 C34.1140961,28.5048339 37.3750825,23.9084648 36.9641935,18.1759146 C36.9641935,18.1759146 37.0805725,8.94679053 29.1264256,4.09102473 C29.1264256,4.09102473 24.6517727,0.593277061 18.9135766,1.03929857 Z"></path>
            </g>
        </g>
    </g>
</svg>