<?xml version="1.0" encoding="UTF-8"?>
<svg width="28px" height="28px" viewBox="0 0 28 28" version="1.1" xmlns="http://www.w3.org/2000/svg" xmlns:xlink="http://www.w3.org/1999/xlink">
    <title>邮件</title>
    <g id="页面-1" stroke="none" stroke-width="1" fill="none" fill-rule="evenodd">
        <g id="首页面" transform="translate(-272.000000, -129.000000)">
            <g id="邮件" transform="translate(272.000000, 129.000000)">
                <g transform="translate(5.600000, 8.400000)" fill="#FFFFFF" fill-rule="nonzero" id="形状">
                    <path d="M15.3176201,0 L1.48233826,0 C0.664972618,0 0,0.672888543 0,1.49998422 L0,10.5 C0,11.3271115 0.664972618,12 1.48233826,12 L15.3176202,12 C16.1350066,12 16.8,11.3271115 16.8,10.5 L16.8,1.5 C16.8,0.672909581 16.1350274,0 15.3176201,0 L15.3176201,0 Z M0.988267096,10.5000158 L0.988267096,1.69173304 L5.35261783,6.10795341 L5.34837546,6.10795341 L0.988724613,10.5195863 C0.988433475,10.5130838 0.988267096,10.5066235 0.988267096,10.5000158 L0.988267096,10.5000158 Z M1.70227666,1.0000526 L15.0977025,1.0000526 L8.4000416,7.77754865 L1.70227666,1.0000526 L1.70227666,1.0000526 Z M6.04928352,6.8129965 L8.40004158,9.1917383 L10.7626741,6.80087541 L14.9122855,10.9999895 L1.91156753,10.9999895 L6.04928352,6.8129965 L6.04928352,6.8129965 Z M11.4754776,6.10795341 L11.4474446,6.10795341 L15.8117121,1.69173304 L15.8117121,10.4959123 L11.4754776,6.10795341 L11.4754776,6.10795341 Z"></path>
                </g>
                <path d="M13.9937,26.6 C20.9491971,26.5896014 26.5861246,20.955491 26.6,14 C26.6,7.05739996 20.9489,1.4 14.0063,1.4 C7.05080294,1.41039855 1.41387544,7.044509 1.4,14 C1.4,20.9426 7.05109995,26.6 13.9937,26.6 L13.9937,26.6 Z M13.9953333,28 C6.26730274,27.9922789 0.00514469826,21.7280327 0,14 C0,6.28133337 6.28133328,0 14.0046667,0 C21.7326973,0.00772114324 27.9948553,6.27196727 28,14 C28,21.7186666 21.7186667,28 13.9953333,28 Z" id="形状" fill="#FFFFFF" fill-rule="nonzero"></path>
                <circle id="椭圆形" fill="#FB4545" cx="21" cy="9.8" r="2.8"></circle>
            </g>
        </g>
    </g>
</svg>