<?xml version="1.0" encoding="UTF-8"?>
<svg width="44px" height="44px" viewBox="0 0 44 44" version="1.1" xmlns="http://www.w3.org/2000/svg" xmlns:xlink="http://www.w3.org/1999/xlink">
    <title>房屋数量</title>
    <defs>
        <path d="M3.64748887,1.86190476 L3.64748887,2.32738095 C3.64748887,3.09914048 4.26026701,3.72380952 5.0152972,3.72380952 L9.5746583,3.72380952 C10.3296885,3.72380952 10.9424666,3.09914048 10.9424666,2.32738095 L10.9424666,1.86190476 L12.7662111,1.86190476 C13.772918,1.86190476 14.5899555,2.6960381 14.5899555,3.72380952 L14.589,14.8259048 L13.9077841,14.1211169 C13.740704,13.9458133 13.5174626,13.8351075 13.2789774,13.8070549 L13.1586538,13.8 C12.9162239,13.8 12.6822182,13.8856624 12.4975543,14.0389319 L12.4095236,14.1211169 L9.54486473,17.0818915 L9.34229379,17.2921466 L8.81102283,17.8407213 C8.4282255,18.2412353 8.39877955,18.8534747 8.72268499,19.2865619 L8.81102283,19.3908751 L9.34229379,19.3908751 L9.342,20.4809048 L1.82374444,20.4809524 C0.817037508,20.4809524 0,19.646819 0,18.6190476 L0,3.72380952 C0,2.6960381 0.817037508,1.86190476 1.82374444,1.86190476 L3.64748887,1.86190476 Z M10.0305944,12.102381 L3.64748887,12.102381 C3.14322354,12.102381 2.73561666,12.5194476 2.73561666,13.0333333 C2.73561666,13.5105129 3.08707361,13.9042108 3.5410248,13.9580187 L3.64748887,13.9642857 L10.0305944,13.9642857 C10.5348597,13.9642857 10.9424666,13.547219 10.9424666,13.0333333 C10.9424666,12.5194476 10.5348597,12.102381 10.0305944,12.102381 Z M6.38310553,8.37857143 L3.64748887,8.37857143 C3.14322354,8.37857143 2.73561666,8.7956381 2.73561666,9.30952381 C2.73561666,9.7867034 3.08707361,10.1804013 3.5410248,10.2342092 L3.64748887,10.2404762 L6.38310553,10.2404762 C6.88737087,10.2404762 7.29497775,9.82340952 7.29497775,9.30952381 C7.29497775,8.7956381 6.88737087,8.37857143 6.38310553,8.37857143 Z M7.29497775,0 C7.79924309,0 8.20684997,0.417066667 8.20684997,0.930952381 L9.5746583,0.930952381 C9.82633503,0.930952381 10.0305944,1.13948571 10.0305944,1.39642857 L10.0305944,2.32738095 C10.0305944,2.58432381 9.82633503,2.79285714 9.5746583,2.79285714 L5.0152972,2.79285714 C4.76362047,2.79285714 4.55936109,2.58432381 4.55936109,2.32738095 L4.55936109,1.39642857 C4.55936109,1.13948571 4.76362047,0.930952381 5.0152972,0.930952381 L6.38310553,0.930952381 C6.38310553,0.417066667 6.79071241,0 7.29497775,0 Z" id="path-1"></path>
    </defs>
    <g id="z" stroke="none" stroke-width="1" fill="none" fill-rule="evenodd">
        <g id="房屋数量">
            <path d="M27,2.88675135 L36.0525589,8.11324865 C39.1465697,9.8995766 41.0525589,13.2008468 41.0525589,16.7735027 L41.0525589,27.2264973 C41.0525589,30.7991532 39.1465697,34.1004234 36.0525589,35.8867513 L27,41.1132487 C23.9059892,42.8995766 20.0940108,42.8995766 17,41.1132487 L7.94744112,35.8867513 C4.85343035,34.1004234 2.94744112,30.7991532 2.94744112,27.2264973 L2.94744112,16.7735027 C2.94744112,13.2008468 4.85343035,9.8995766 7.94744112,8.11324865 L17,2.88675135 C20.0940108,1.1004234 23.9059892,1.1004234 27,2.88675135 Z" id="Polygon" fill="#D3F1EB"></path>
            <g id="编组-44" transform="translate(15.000000, 11.000000)">
                <g id="形状结合">
                    <use fill="#FFFFFF" xlink:href="#path-1"></use>
                    <use fill="#22B899" xlink:href="#path-1"></use>
                </g>
                <path d="M16.2907,17.4820134 L16.738086,17.9574448 C17.0873047,18.3285133 17.0873047,18.9298429 16.738086,19.3009114 L16.2907,19.3009114 L16.2907,21.5753622 C16.2907,22.3622261 15.6711185,22.9983434 14.9083092,22.9983434 L13.9700859,22.9983434 L13.9700859,21.0999307 C13.9700859,20.7851852 13.7222533,20.5300756 13.4164859,20.5300756 L12.7373603,20.5300756 C12.4315928,20.5300756 12.1837602,20.7851852 12.1837602,21.0999307 L12.1837602,23 L11.2455369,23 C10.4811183,23 9.86314619,22.3622261 9.86314619,21.5770188 L9.86314619,19.3025679 L9.41576012,19.3025679 C9.0665415,18.9265298 9.0665415,18.3351395 9.41576012,17.9591014 L9.86314619,17.4836699 L10.0337322,17.3014488 L12.4460765,14.7354442 C12.6102254,14.5581927 12.8387463,14.4571429 13.0769231,14.4571429 C13.3150998,14.4571429 13.5436208,14.5581927 13.7077696,14.7354442 L16.1201139,17.3014488 L16.2907,17.4820134 L16.2907,17.4820134 Z" id="形状" fill="#22B899" fill-rule="nonzero"></path>
            </g>
        </g>
    </g>
</svg>