<?xml version="1.0" encoding="utf-8"?>
<!-- Generator: Adobe Illustrator 25.0.1, SVG Export Plug-In . SVG Version: 6.00 Build 0)  -->
<svg version="1.1" id="图层_1" xmlns="http://www.w3.org/2000/svg" xmlns:xlink="http://www.w3.org/1999/xlink" x="0px" y="0px"
	 viewBox="0 0 68 68" style="enable-background:new 0 0 68 68;" xml:space="preserve">
<style type="text/css">
	.st0{fill-rule:evenodd;clip-rule:evenodd;fill:url(#形状_554_1_);}
	.st1{fill:#576FFF;}
</style>
<g id="页面-1">
	<g id="首页面" transform="translate(-1170.000000, -213.000000)">
		<g id="已办结" transform="translate(1179.000000, 222.000000)">
			
				<linearGradient id="形状_554_1_" gradientUnits="userSpaceOnUse" x1="-531.8094" y1="15.0948" x2="-531.8095" y2="14.2308" gradientTransform="matrix(45 0 0 53.0004 23960.3047 -746.1427)">
				<stop  offset="0" style="stop-color:#7487FF"/>
				<stop  offset="1" style="stop-color:#A8BAFF"/>
			</linearGradient>
			<path id="形状_554" class="st0" d="M33.4,20.4c-0.7,0-1.5-0.4-1.9-1.1c-0.4-0.7-0.3-1.6,0.1-2.2c2.6-3.9,4.8-8.4,5.3-13.4
				c0.7-8.1-7.2-10.9-11.2-2.4c-0.7,1.6-1.7,4.2-2.7,7.2c-1.8,5.7-8.5,9.9-14.7,11.4c-2.2,0.5-3.8,2.5-3.8,4.8v24.2
				c0,2.7,2.2,5,5.1,5h27.5c4.1,0,7.7-2.6,9.1-6.5l7.2-20.8c0.5-1.4,0.2-3-0.7-4.2s-2.2-1.9-3.7-1.9L33.4,20.4L33.4,20.4z"/>
			<path id="圆角矩形_5" class="st1" d="M-1.1,25.6L-1.1,25.6c1.2,0,2.2,1,2.2,2.2v20.7c0,1.2-1,2.2-2.2,2.2l0,0
				c-1.2,0-2.2-1-2.2-2.2V27.7C-3.3,26.5-2.3,25.6-1.1,25.6z"/>
		</g>
	</g>
</g>
</svg>
