<?xml version="1.0" encoding="UTF-8"?>
<svg width="44px" height="45px" viewBox="0 0 44 45" version="1.1" xmlns="http://www.w3.org/2000/svg" xmlns:xlink="http://www.w3.org/1999/xlink">
    <title>Icon_fuwur</title>
    <g id="页面-1" stroke="none" stroke-width="1" fill="none" fill-rule="evenodd">
        <g id="首页面改版四" transform="translate(-1032.000000, -850.000000)" fill="#22B899">
            <g id="Icon_fuwur" transform="translate(1032.000000, 850.750000)">
                <path d="M27,2.88675135 L36.0525589,8.11324865 C39.1465697,9.8995766 41.0525589,13.2008468 41.0525589,16.7735027 L41.0525589,27.2264973 C41.0525589,30.7991532 39.1465697,34.1004234 36.0525589,35.8867513 L27,41.1132487 C23.9059892,42.8995766 20.0940108,42.8995766 17,41.1132487 L7.94744112,35.8867513 C4.85343035,34.1004234 2.94744112,30.7991532 2.94744112,27.2264973 L2.94744112,16.7735027 C2.94744112,13.2008468 4.85343035,9.8995766 7.94744112,8.11324865 L17,2.88675135 C20.0940108,1.1004234 23.9059892,1.1004234 27,2.88675135 Z" id="Polygon" fill-opacity="0.2"></path>
                <g id="Group-9" transform="translate(15.000000, 11.000000)">
                    <path d="M2.0952381,4.19047619 L2.0952381,4.19047619 C2.0952381,3.61114286 2.56457143,3.14285714 3.14285714,3.14285714 L13.6190476,3.14285714 C14.198381,3.14285714 14.6666667,3.61114286 14.6666667,4.19047619 C14.6666667,4.76980952 14.198381,5.23809524 13.6190476,5.23809524 L3.14285714,5.23809524 C2.56457143,5.23809524 2.0952381,4.76980952 2.0952381,4.19047619" id="Fill-1"></path>
                    <path d="M4.93114286,6.59266667 C5.3407619,7.00228571 5.3407619,7.66438095 4.93114286,8.074 C4.52152381,8.48361905 3.85942857,8.48361905 3.44980952,8.074 L0.306952381,4.93114286 C-0.102666667,4.52152381 -0.102666667,3.85942857 0.306952381,3.44980952 L3.44980952,0.306952381 C3.85942857,-0.102666667 4.52152381,-0.102666667 4.93114286,0.306952381 C5.3407619,0.716571429 5.3407619,1.37866667 4.93114286,1.78828571 L2.52895238,4.19047619 L4.93114286,6.59266667 Z" id="Fill-3"></path>
                    <path d="M12.5714286,16.7619048 L12.5714286,16.7619048 C12.5714286,16.1825714 12.1031429,15.7142857 11.5238095,15.7142857 L1.04761905,15.7142857 C0.469333333,15.7142857 0,16.1825714 0,16.7619048 C0,17.3412381 0.469333333,17.8095238 1.04761905,17.8095238 L11.5238095,17.8095238 C12.1031429,17.8095238 12.5714286,17.3412381 12.5714286,16.7619048" id="Fill-5"></path>
                    <path d="M9.73552381,19.1640952 C9.32590476,19.5737143 9.32590476,20.2358095 9.73552381,20.6454286 C10.1451429,21.0550476 10.8072381,21.0550476 11.2168571,20.6454286 L14.3597143,17.5025714 C14.7693333,17.0929524 14.7693333,16.4308571 14.3597143,16.0212381 L11.2168571,12.878381 C10.8072381,12.4687619 10.1451429,12.4687619 9.73552381,12.878381 C9.32590476,13.288 9.32590476,13.9500952 9.73552381,14.3597143 L12.1377143,16.7619048 L9.73552381,19.1640952 Z" id="Fill-7"></path>
                </g>
            </g>
        </g>
    </g>
</svg>