<?xml version="1.0" encoding="UTF-8"?>
<svg width="40px" height="42px" viewBox="0 0 40 42" version="1.1" xmlns="http://www.w3.org/2000/svg" xmlns:xlink="http://www.w3.org/1999/xlink">
    <title>户籍人口</title>
    <g id="页面-1" stroke="none" stroke-width="1" fill="none" fill-rule="evenodd">
        <g id="户籍人口" transform="translate(0.947441, 0.547005)" fill-rule="nonzero">
            <path d="M24.0525589,1.33974596 L33.1051178,6.56624326 C36.1991286,8.35257121 38.1051178,11.6538414 38.1051178,15.2264973 L38.1051178,25.6794919 C38.1051178,29.2521478 36.1991286,32.553418 33.1051178,34.3397459 L24.0525589,39.5662433 C20.9585481,41.3525712 17.1465697,41.3525712 14.0525589,39.5662433 L5,34.3397459 C1.90598923,32.553418 0,29.2521478 0,25.6794919 L0,15.2264973 C0,11.6538414 1.90598923,8.35257121 5,6.56624326 L14.0525589,1.33974596 C17.1465697,-0.446581988 20.9585481,-0.446581988 24.0525589,1.33974596 Z" id="Polygon" fill="#D6EDFF"></path>
            <path d="M23.0558354,18.1827842 C22.9876834,18.4544712 22.9195314,18.7006875 22.8513793,18.9214331 C22.7832273,19.1082179 22.6980373,19.2992478 22.5958092,19.4945228 C22.4935812,19.6897978 22.3828341,19.8383767 22.2635681,19.9402593 C22.110226,20.0591223 22.0037385,20.1864756 21.9441054,20.3223191 C21.8844724,20.4581626 21.8333584,20.5982512 21.7907634,20.7425849 C21.7481683,20.8869186 21.7013138,21.0354974 21.6501998,21.1883213 C21.5990858,21.3411452 21.5138957,21.4939691 21.3946297,21.646793 C21.0027555,22.1562061 20.7088499,22.6486387 20.5129128,23.1240909 C20.3169757,23.5995431 20.1806716,24.0580149 20.1040006,24.4995062 C20.0273295,24.9409976 20.006032,25.3782438 20.040108,25.8112449 C20.0741841,26.244246 20.1423361,26.6645118 20.2445641,27.0720422 C20.3127162,27.3776901 20.4149442,27.6960732 20.5512483,28.0271917 C20.6875523,28.3583102 20.8877489,28.6979189 21.1518381,29.0460179 C21.4159272,29.3941168 21.7524278,29.7337255 22.16134,30.064844 C22.5702522,30.3959625 23.0813925,30.7143457 23.6947607,31.0199935 C23.2858485,31.1048957 22.8087843,31.1813076 22.2635681,31.2492294 C21.8035419,31.3001707 21.2370281,31.3468669 20.5640268,31.389318 C19.8910255,31.4317691 19.1200556,31.4529946 18.2511172,31.4529946 C17.808129,31.4529946 17.2927293,31.4360142 16.704918,31.4020533 C16.1171067,31.3680924 15.5122574,31.3256413 14.8903702,31.2747 C14.2684829,31.2237587 13.6551146,31.1643272 13.0502653,31.0964055 C12.445416,31.0284837 11.8916808,30.9563169 11.3890595,30.8799049 C10.8864383,30.8034929 10.4604881,30.7228359 10.111209,30.6379337 C9.76192978,30.5530315 9.54469518,30.4766196 9.45950515,30.4086978 C9.30616307,30.2728543 9.18689702,29.8950396 9.10170698,29.2752537 C9.01651694,28.6554678 9.04207395,27.844652 9.17837802,26.8428063 C9.26356805,26.282452 9.48932166,25.853696 9.85563883,25.5565383 C10.221956,25.2593807 10.6521657,25.0258997 11.1462679,24.8560954 C11.6403702,24.686291 12.1557699,24.529222 12.6924671,24.3848883 C13.2291644,24.2405546 13.7019691,24.0410345 14.1108813,23.7863279 C14.4346034,23.5825627 14.6816546,23.3915328 14.8520346,23.2132382 C15.0224147,23.0349437 15.1416808,22.852404 15.2098328,22.6656192 C15.2779848,22.4788344 15.3120608,22.2835594 15.3120608,22.0797942 C15.3120608,21.8760289 15.3035418,21.6552833 15.2865038,21.4175572 C15.2524278,21.060968 15.1289023,20.7807908 14.9159272,20.5770256 C14.7029521,20.3732604 14.4771985,20.1694952 14.2386663,19.9657299 C14.1023623,19.8638473 13.9830962,19.7110234 13.8808682,19.5072582 C13.7786401,19.3034929 13.6934501,19.1082179 13.6252981,18.9214331 C13.540108,18.7006875 13.471956,18.4544712 13.420842,18.1827842 C13.3015759,18.1488233 13.1908289,18.097882 13.0886008,18.0299603 C13.0034108,17.9620385 12.9097017,17.8601559 12.8074737,17.7243124 C12.7052456,17.588469 12.6115366,17.3847037 12.5263466,17.1130168 C12.4411565,16.8583102 12.41134,16.6205841 12.436897,16.3998385 C12.462454,16.1790928 12.5093086,15.992308 12.5774606,15.8394841 C12.6456126,15.6526993 12.7393217,15.4913852 12.8585877,15.3555417 C12.8585877,14.7782069 12.8926637,14.2008721 12.9608158,13.6235373 C13.0289678,13.1311046 13.1354553,12.6047111 13.2802784,12.0443567 C13.4251015,11.4840024 13.6593741,10.9830795 13.9830962,10.5415882 C14.2897804,10.1170773 14.617762,9.76897837 14.9670412,9.4972914 C15.3163203,9.22560443 15.678378,9.01334899 16.0532142,8.86052507 C16.4280504,8.70770115 16.8028865,8.60157342 17.1777227,8.5421419 C17.5525589,8.48271037 17.9103571,8.45299461 18.2511172,8.45299461 C18.6941054,8.45299461 19.1200556,8.50393592 19.5289678,8.60581853 C19.93788,8.70770115 20.3169757,8.84354463 20.6662548,9.01334899 C21.015534,9.18315334 21.3264776,9.37418324 21.5990858,9.58643869 C21.8716939,9.79869413 22.093188,10.0151947 22.2635681,10.2359404 C22.6554423,10.728373 22.9408289,11.2717469 23.119728,11.8660622 C23.2986271,12.4603774 23.4306716,13.0207318 23.5158617,13.5471253 C23.6010517,14.158421 23.6351277,14.7697167 23.6180897,15.3810123 C23.7203177,15.4659145 23.8055078,15.5677971 23.8736598,15.6866602 C23.9418118,15.7885428 23.9929259,15.9243863 24.0270019,16.0941906 C24.0610779,16.263995 24.0610779,16.4762504 24.0270019,16.730957 C23.9929259,17.0535852 23.9247738,17.3082918 23.8225458,17.4950766 C23.7203177,17.6818614 23.6095707,17.8261951 23.4903046,17.9280777 C23.3540006,18.0469407 23.2091775,18.1318429 23.0558354,18.1827842 L23.0558354,18.1827842 Z" id="path-1" fill="#0079FF"></path>
            <path d="M24.4049189,23.7674743 C24.3741835,23.883613 24.2870997,23.9416824 24.1436675,23.9416824 L23.3061264,23.9416824 C23.1626943,23.9416824 23.0909782,23.8730549 23.0909782,23.7358 C23.0909782,23.7146839 23.0961008,23.6777307 23.1063459,23.6249403 L23.3752812,22.6747141 C23.4213843,22.5269011 23.5110294,22.4529946 23.6442164,22.4529946 L24.4817576,22.4529946 C24.6712929,22.4529946 24.7558154,22.4952269 24.7353251,22.5796914 L24.6969057,22.7222254 L26.1952592,22.7222254 C26.2720978,22.7222254 26.3322881,22.7473008 26.37583,22.7974516 C26.4193719,22.8476025 26.4411428,22.9149101 26.4411428,22.9993747 L26.4411428,23.3161168 C26.4411428,23.4005813 26.4219332,23.467889 26.3835139,23.5180399 C26.3450946,23.5681907 26.2900269,23.5932661 26.2183108,23.5932661 L25.9954788,23.5932661 L26.0031626,23.6249403 C26.0134078,23.6777307 26.0185303,23.7120444 26.0185303,23.7278815 C26.0185303,23.7965089 25.9993207,23.8492993 25.9609014,23.8862525 C25.922482,23.9232058 25.8699756,23.9416824 25.8033822,23.9416824 L25.1425699,23.9416824 C24.9991377,23.9416824 24.9120539,23.883613 24.8813185,23.7674743 L24.8352153,23.5932661 L24.4510221,23.5932661 L24.4049189,23.7674743 Z M26.7331297,23.9416824 C26.6665362,23.9416824 26.6127491,23.9232058 26.5717685,23.8862525 C26.5307879,23.8492993 26.5102976,23.7991485 26.5102976,23.7358 C26.5102976,23.7146839 26.5154202,23.6777307 26.5256654,23.6249403 L26.7946006,22.6747141 C26.8407038,22.5269011 26.9303488,22.4529946 27.0635358,22.4529946 L27.901077,22.4529946 C28.0906123,22.4529946 28.1751348,22.4952269 28.1546445,22.5796914 L28.1162252,22.7222254 L29.7605721,22.7222254 C29.8374107,22.7222254 29.897601,22.7473008 29.9411428,22.7974516 C29.9846847,22.8476025 30.0064557,22.9149101 30.0064557,22.9993747 L30.0064557,23.3161168 C30.0064557,23.4005813 29.9846847,23.467889 29.9411428,23.5180399 C29.897601,23.5681907 29.8374107,23.5932661 29.7605721,23.5932661 L29.3994304,23.5932661 L29.4071143,23.6249403 C29.4173595,23.6777307 29.422482,23.7120444 29.422482,23.7278815 C29.422482,23.7965089 29.4032724,23.8492993 29.3648531,23.8862525 C29.3264337,23.9232058 29.2739273,23.9416824 29.2073338,23.9416824 L28.5465216,23.9416824 C28.4030894,23.9416824 28.3160056,23.883613 28.2852702,23.7674743 L28.239167,23.5932661 L27.8780254,23.5932661 L27.8396061,23.7120444 C27.7935029,23.8651364 27.7038578,23.9416824 27.5706708,23.9416824 L26.7331297,23.9416824 Z M25.1272021,29.1520896 C25.1272021,29.2365542 25.1054312,29.3038619 25.0618893,29.3540127 C25.0183474,29.4041635 24.9581571,29.429239 24.8813185,29.429239 L24.0975644,29.429239 C24.0207257,29.429239 23.9605355,29.4041635 23.9169936,29.3540127 C23.8734517,29.3038619 23.8516807,29.2365542 23.8516807,29.1520896 L23.8516807,27.378334 L23.2984425,27.378334 C23.2216039,27.378334 23.1614136,27.3532586 23.1178717,27.3031077 C23.0743298,27.2529569 23.0525589,27.1856492 23.0525589,27.1011847 L23.0525589,26.7923611 C23.0525589,26.7026175 23.0743298,26.6326703 23.1178717,26.5825195 C23.1614136,26.5323687 23.2216039,26.5072933 23.2984425,26.5072933 L23.8516807,26.5072933 L23.8516807,26.2855738 L23.4521198,26.2855738 C23.3752812,26.2855738 23.3150909,26.2604984 23.271549,26.2103476 C23.2280071,26.1601967 23.2062362,26.092889 23.2062362,26.0084245 L23.2062362,25.7787865 C23.2062362,25.6943219 23.2280071,25.6270142 23.271549,25.5768634 C23.3150909,25.5267126 23.3752812,25.5016371 23.4521198,25.5016371 L23.8516807,25.5016371 L23.8516807,25.2878362 L23.329178,25.2878362 C23.2523393,25.2878362 23.1921491,25.2627608 23.1486072,25.21261 C23.1050653,25.1624592 23.0832943,25.0951515 23.0832943,25.0106869 L23.0832943,24.7018634 C23.0832943,24.6121198 23.1050653,24.5421726 23.1486072,24.4920218 C23.1921491,24.4418709 23.2523393,24.4167955 23.329178,24.4167955 L23.8516807,24.4167955 C23.8516807,24.332331 23.8734517,24.2650233 23.9169936,24.2148724 C23.9605355,24.1647216 24.0207257,24.1396462 24.0975644,24.1396462 L24.8813185,24.1396462 C24.9581571,24.1396462 25.0183474,24.1528438 25.0618893,24.179239 C25.1054312,24.2056341 25.1272021,24.2399479 25.1272021,24.2821801 L25.1272021,24.4167955 L25.5498146,24.4167955 C25.6266533,24.4167955 25.6868435,24.4418709 25.7303854,24.4920218 C25.7739273,24.5421726 25.7956983,24.6121198 25.7956983,24.7018634 L25.7956983,25.0106869 C25.7956983,25.0951515 25.7739273,25.1624592 25.7303854,25.21261 C25.6868435,25.2627608 25.6266533,25.2878362 25.5498146,25.2878362 L25.1272021,25.2878362 L25.1272021,25.5016371 L25.4268728,25.5016371 C25.5037115,25.5016371 25.5639017,25.5267126 25.6074436,25.5768634 C25.6509855,25.6270142 25.6727565,25.6943219 25.6727565,25.7787865 L25.6727565,26.0084245 C25.6727565,26.092889 25.6509855,26.1601967 25.6074436,26.2103476 C25.5639017,26.2604984 25.5037115,26.2855738 25.4268728,26.2855738 L25.1272021,26.2855738 L25.1272021,26.5072933 L25.5805501,26.5072933 C25.6573887,26.5072933 25.717579,26.5323687 25.7611209,26.5825195 C25.8046628,26.6326703 25.8264337,26.7026175 25.8264337,26.7923611 L25.8264337,27.1011847 C25.8264337,27.1856492 25.8046628,27.2529569 25.7611209,27.3031077 C25.717579,27.3532586 25.6573887,27.378334 25.5805501,27.378334 L25.1272021,27.378334 L25.1272021,29.1520896 Z M29.8066752,25.5412299 C29.8835139,25.5412299 29.9437041,25.5663053 29.987246,25.6164562 C30.0307879,25.666607 30.0525589,25.7365542 30.0525589,25.8262978 L30.0525589,26.1113657 C30.0525589,26.1958302 30.0307879,26.2631379 29.987246,26.3132887 C29.9437041,26.3634396 29.8835139,26.388515 29.8066752,26.388515 L26.2259947,26.388515 C26.149156,26.388515 26.0889658,26.3634396 26.0454239,26.3132887 C26.001882,26.2631379 25.980111,26.1958302 25.980111,26.1113657 L25.980111,25.8262978 C25.980111,25.7365542 26.001882,25.666607 26.0454239,25.6164562 C26.0889658,25.5663053 26.149156,25.5412299 26.2259947,25.5412299 L26.5102976,25.5412299 L26.5102976,25.2403249 L26.3796719,25.2403249 C26.3028333,25.2403249 26.242643,25.2152495 26.1991011,25.1650987 C26.1555592,25.1149479 26.1337883,25.0476402 26.1337883,24.9631756 L26.1337883,24.6464335 C26.1337883,24.5566899 26.1504367,24.4880625 26.1837334,24.4405512 C26.2170302,24.3930399 26.264414,24.3692842 26.3258849,24.3692842 L26.5102976,24.3692842 C26.5102976,24.2953777 26.5320686,24.2386281 26.5756105,24.1990353 C26.6191524,24.1594426 26.6793426,24.1396462 26.7561813,24.1396462 L27.4938322,24.1396462 C27.5706708,24.1396462 27.6308611,24.1502043 27.674403,24.1713204 C27.7179449,24.1924365 27.7397158,24.2214712 27.7397158,24.2584245 L27.7397158,24.3692842 L28.2545347,24.3692842 C28.2545347,24.2953777 28.2763057,24.2386281 28.3198476,24.1990353 C28.3633895,24.1594426 28.4235797,24.1396462 28.5004184,24.1396462 L29.2380693,24.1396462 C29.3149079,24.1396462 29.3750982,24.1502043 29.4186401,24.1713204 C29.462182,24.1924365 29.4839529,24.2214712 29.4839529,24.2584245 L29.4839529,24.3692842 L29.652998,24.3692842 C29.7298366,24.3692842 29.7900269,24.3943596 29.8335688,24.4445105 C29.8771106,24.4946613 29.8988816,24.561969 29.8988816,24.6464335 L29.8988816,24.9631756 C29.8988816,25.0529192 29.8809526,25.1215467 29.8450946,25.169058 C29.8092365,25.2165693 29.7580108,25.2403249 29.6914173,25.2403249 L29.4839529,25.2403249 L29.4839529,25.5412299 L29.8066752,25.5412299 Z M28.2545347,25.5412299 L28.2545347,25.2403249 L27.7397158,25.2403249 L27.7397158,25.5412299 L28.2545347,25.5412299 Z M26.1875753,26.8557095 C26.1875753,26.771245 26.2093463,26.7039373 26.2528882,26.6537865 C26.2964301,26.6036356 26.3566204,26.5785602 26.433459,26.5785602 L29.5684755,26.5785602 C29.6453141,26.5785602 29.7055044,26.6036356 29.7490463,26.6537865 C29.7925882,26.7039373 29.8143591,26.771245 29.8143591,26.8557095 L29.8143591,29.1520896 C29.8143591,29.2365542 29.7925882,29.3038619 29.7490463,29.3540127 C29.7055044,29.4041635 29.6453141,29.429239 29.5684755,29.429239 L26.433459,29.429239 C26.3566204,29.429239 26.2964301,29.4041635 26.2528882,29.3540127 C26.2093463,29.3038619 26.1875753,29.2365542 26.1875753,29.1520896 L26.1875753,26.8557095 Z M28.5388377,27.6634019 L28.5388377,27.3466598 L27.4630967,27.3466598 L27.4630967,27.6634019 L28.5388377,27.6634019 Z M23.1755007,27.8296914 C23.1857459,27.755785 23.2152007,27.6924365 23.2638651,27.6396462 C23.3125296,27.5868559 23.3701586,27.5604607 23.4367521,27.5604607 C23.5135907,27.5604607 23.5789036,27.5934546 23.6326906,27.6594426 C23.6864777,27.7254305 23.7082486,27.8006568 23.6980034,27.8851213 L23.5904294,29.1837638 C23.5853068,29.2629494 23.5584133,29.3276175 23.5097488,29.3777684 C23.4610843,29.4279192 23.400894,29.4529946 23.329178,29.4529946 C23.2523393,29.4529946 23.1870265,29.4200006 23.1332395,29.3540127 C23.0794524,29.2880248 23.0576815,29.2127985 23.0679266,29.128334 L23.1755007,27.8296914 Z M25.526763,27.5604607 C25.5933565,27.5604607 25.6522662,27.5881756 25.7034919,27.6436055 C25.7547177,27.6990353 25.7828918,27.7637035 25.7880144,27.83761 L25.8648531,29.1362525 C25.8699756,29.2207171 25.846924,29.2946236 25.7956983,29.357972 C25.7444725,29.4213204 25.6804403,29.4529946 25.6036017,29.4529946 C25.5370082,29.4529946 25.4780986,29.4252797 25.4268728,29.3698498 C25.3756471,29.31442 25.3474729,29.2497518 25.3423503,29.1758453 L25.2655117,27.8772028 C25.2603891,27.7927382 25.2834407,27.7188317 25.3346665,27.6554833 C25.3858922,27.5921349 25.4499244,27.5604607 25.526763,27.5604607 Z M28.5388377,28.5344426 L28.5388377,28.2177005 L27.4630967,28.2177005 L27.4630967,28.5344426 L28.5388377,28.5344426 Z" id="形状" fill="#388CFF"></path>
        </g>
    </g>
</svg>