<?xml version="1.0" encoding="UTF-8"?>
<svg width="44px" height="44px" viewBox="0 0 44 44" version="1.1" xmlns="http://www.w3.org/2000/svg" xmlns:xlink="http://www.w3.org/1999/xlink">
    <title>楼栋数量</title>
    <defs>
        <path d="M3.64748887,1.86190476 L3.64748887,2.32738095 C3.64748887,3.09914048 4.26026701,3.72380952 5.0152972,3.72380952 L9.5746583,3.72380952 C10.3296885,3.72380952 10.9424666,3.09914048 10.9424666,2.32738095 L10.9424666,1.86190476 L12.7662111,1.86190476 C13.772918,1.86190476 14.5899555,2.6960381 14.5899555,3.72380952 L14.5897132,13.0025883 L14.4829575,13.0004654 L14.3763881,13.008974 L9.34673857,15.0161593 C9.17037881,15.0395152 9.04160336,15.1046828 9.00840956,15.1829637 L9,15.223064 L9,20.4809048 L1.82374444,20.4809524 C0.817037508,20.4809524 0,19.646819 0,18.6190476 L0,3.72380952 C0,2.6960381 0.817037508,1.86190476 1.82374444,1.86190476 L3.64748887,1.86190476 Z M10.0305944,12.102381 L3.64748887,12.102381 C3.14322354,12.102381 2.73561666,12.5194476 2.73561666,13.0333333 C2.73561666,13.5105129 3.08707361,13.9042108 3.5410248,13.9580187 L3.64748887,13.9642857 L10.0305944,13.9642857 C10.5348597,13.9642857 10.9424666,13.547219 10.9424666,13.0333333 C10.9424666,12.5194476 10.5348597,12.102381 10.0305944,12.102381 Z M6.38310553,8.37857143 L3.64748887,8.37857143 C3.14322354,8.37857143 2.73561666,8.7956381 2.73561666,9.30952381 C2.73561666,9.7867034 3.08707361,10.1804013 3.5410248,10.2342092 L3.64748887,10.2404762 L6.38310553,10.2404762 C6.88737087,10.2404762 7.29497775,9.82340952 7.29497775,9.30952381 C7.29497775,8.7956381 6.88737087,8.37857143 6.38310553,8.37857143 Z M7.29497775,0 C7.79924309,0 8.20684997,0.417066667 8.20684997,0.930952381 L9.5746583,0.930952381 C9.82633503,0.930952381 10.0305944,1.13948571 10.0305944,1.39642857 L10.0305944,2.32738095 C10.0305944,2.58432381 9.82633503,2.79285714 9.5746583,2.79285714 L5.0152972,2.79285714 C4.76362047,2.79285714 4.55936109,2.58432381 4.55936109,2.32738095 L4.55936109,1.39642857 C4.55936109,1.13948571 4.76362047,0.930952381 5.0152972,0.930952381 L6.38310553,0.930952381 C6.38310553,0.417066667 6.79071241,0 7.29497775,0 Z" id="path-1"></path>
    </defs>
    <g id="z" stroke="none" stroke-width="1" fill="none" fill-rule="evenodd">
        <g id="楼栋数量">
            <path d="M27,2.88675135 L36.0525589,8.11324865 C39.1465697,9.8995766 41.0525589,13.2008468 41.0525589,16.7735027 L41.0525589,27.2264973 C41.0525589,30.7991532 39.1465697,34.1004234 36.0525589,35.8867513 L27,41.1132487 C23.9059892,42.8995766 20.0940108,42.8995766 17,41.1132487 L7.94744112,35.8867513 C4.85343035,34.1004234 2.94744112,30.7991532 2.94744112,27.2264973 L2.94744112,16.7735027 C2.94744112,13.2008468 4.85343035,9.8995766 7.94744112,8.11324865 L17,2.88675135 C20.0940108,1.1004234 23.9059892,1.1004234 27,2.88675135 Z" id="Polygon" fill="#FFF3CC"></path>
            <g id="编组-44" transform="translate(14.000000, 11.000000)">
                <path d="M15,17.2998204 C15.0000378,17.2044059 15.0503286,17.1147004 15.1354507,17.0582125 C15.2205728,17.0017245 15.3303687,16.9851946 15.4311691,17.0136917 L17.767151,17.9904483 C17.9056489,18.0296029 17.9999481,18.1454793 18,18.276577 L18,21.7000747 C18,21.8657189 17.8513545,22 17.6679909,22 L15.3320091,22 C15.1486455,22 15,21.8657189 15,21.7000747 L15,21.6762619 C15,21.8550575 14.818983,22 14.5956873,22 L10.4043127,22 C10.181017,22 10,21.8550575 10,21.6762619 L10,15.834596 C10,15.6913502 10.1174879,15.5651118 10.2889488,15.524239 L14.4803234,14.013461 C14.6026888,13.9842916 14.7350716,14.0031147 14.8374134,14.0642344 C14.9397552,14.1253541 15,14.2215887 15,14.323818 L15,17.2998204 Z M17.3246311,20.6516059 L16.3246311,20.6516059 L16.3246311,21.6516059 L17.3246311,21.6516059 L17.3246311,20.6516059 Z M12.8571429,20.045596 L12.1428571,20.045596 L12.1428571,21.2106815 L12.8571429,21.2106815 L12.8571429,20.045596 Z M17.3246311,19.1818182 L16.3246311,19.1818182 L16.3246311,20.2400653 L17.3246311,20.2400653 L17.3246311,19.1818182 Z M12.8571429,18.2104284 L12.1428571,18.2104284 L12.1428571,19.7362981 L12.8571429,19.7362981 L12.8571429,18.2104284 Z M12.8571429,16.3752607 L12.1428571,16.3752607 L12.1428571,17.9011304 L12.8571429,17.9011304 L12.8571429,16.3752607 Z" id="形状结合" fill="#FEC500" fill-rule="nonzero"></path>
                <g id="形状结合">
                    <use fill="#FFFFFF" xlink:href="#path-1"></use>
                    <use fill="#FEC500" xlink:href="#path-1"></use>
                </g>
            </g>
        </g>
    </g>
</svg>