<?xml version="1.0" encoding="UTF-8"?>
<svg width="54px" height="54px" viewBox="0 0 54 54" version="1.1" xmlns="http://www.w3.org/2000/svg" xmlns:xlink="http://www.w3.org/1999/xlink">
    <title>Icon_xuncha</title>
    <defs>
        <rect id="path-1" x="0" y="0" width="31.9090909" height="31.9090909"></rect>
    </defs>
    <g id="页面-1" stroke="none" stroke-width="1" fill="none" fill-rule="evenodd">
        <g id="首页-内容修改6/241" transform="translate(-1047.000000, -426.000000)">
            <g id="Icon_xuncha" transform="translate(1047.000000, 426.000000)">
                <path d="M32,2.88675135 L45.3826859,10.6132487 C48.4766967,12.3995766 50.3826859,15.7008468 50.3826859,19.2735027 L50.3826859,34.7264973 C50.3826859,38.2991532 48.4766967,41.6004234 45.3826859,43.3867513 L32,51.1132487 C28.9059892,52.8995766 25.0940108,52.8995766 22,51.1132487 L8.6173141,43.3867513 C5.52330333,41.6004234 3.6173141,38.2991532 3.6173141,34.7264973 L3.6173141,19.2735027 C3.6173141,15.7008468 5.52330333,12.3995766 8.6173141,10.6132487 L22,2.88675135 C25.0940108,1.1004234 28.9059892,1.1004234 32,2.88675135 Z" id="Polygon" fill="#D9EDFE"></path>
                <g id="智慧养老" transform="translate(11.045455, 11.045455)">
                    <mask id="mask-2" fill="white">
                        <use xlink:href="#path-1"></use>
                    </mask>
                    <g id="蒙版"></g>
                    <path d="M29.9641053,31.9090909 L26.9842359,31.9090909 C26.7581732,31.9090909 26.5749132,31.7258309 26.5749132,31.4997682 L26.5749132,24.2875017 C26.5242808,23.9551232 26.2216996,23.720983 25.887251,23.7553822 C25.5106741,23.7553822 25.1914024,24.0009759 25.1914024,24.2793153 L25.1504701,24.6477058 C24.8471152,25.6023182 23.9664644,26.2553335 22.9648957,26.2683409 C21.963327,26.2813483 21.0660147,25.6514234 20.7379711,24.705011 C20.5890675,24.6142699 20.4468097,24.513048 20.3122755,24.4021121 L20.0339361,24.164705 L20.0339361,31.4915817 C20.0339361,31.6001409 19.9908111,31.7042537 19.9140482,31.7810166 C19.8372853,31.8577795 19.7331724,31.9009045 19.6246133,31.9009045 L0.451936903,31.9009045 C0.254857933,31.9001816 0.0862737588,31.7591214 0.0508006331,31.5652598 C-0.0169335444,31.0901185 -0.0169335444,30.6077716 0.0508006331,30.1326303 L0.0508006331,29.37129 C0.0508006331,22.6010921 4.58609642,15.1841644 10.6031405,12.1060575 C10.9393819,11.913436 11.2964175,11.7596361 11.6673795,11.647616 C12.683925,11.3883896 13.7631995,11.6218281 14.5817574,12.277973 L24.4873673,20.6445295 C24.9629208,20.5029004 25.4565474,20.4312005 25.9527426,20.4316817 C27.2061495,20.4204278 28.412985,20.9061055 29.309189,21.7824467 C29.981144,22.4419065 30.3563881,23.3460379 30.3489796,24.2875017 L30.3489796,31.4997682 C30.3453088,31.714995 30.1787008,31.8922375 29.9641053,31.9090909 L29.9641053,31.9090909 Z M21.7940238,15.1432321 C18.7536341,15.2142006 16.0372492,13.2538539 15.1466227,10.3459698 L13.1900601,10.8207841 C12.4087359,11.0435217 11.5930072,10.5992409 11.3562943,9.82203666 C11.2959408,9.44009557 11.3934572,9.05002987 11.6264473,8.74142467 C11.9945002,8.05721762 12.566858,7.50489234 13.2637382,7.16143899 L13.3701621,7.16143899 L13.9350274,4.58270581 L13.9350274,4.50084127 C14.0871718,3.86363701 14.3474521,3.25723925 14.7045542,2.70800773 C15.8588443,1.07071682 23.9306884,-0.476523073 25.076792,0.137461004 C25.7945659,0.578785756 26.4616721,1.09764613 27.0661004,1.68470089 L28.5642216,3.45297509 C29.4640123,3.41135579 30.3581943,3.61509346 31.1511412,4.04239982 C31.4505201,4.17501081 31.6898195,4.41431016 31.8224305,4.71368908 C31.9421535,5.06717621 31.9033563,5.4551483 31.7160066,5.77792817 C31.5062536,6.14184862 31.1575551,6.40484999 30.750005,6.50652262 L28.4168654,7.08776086 C28.5869258,7.64209764 28.6724798,8.21889674 28.6706455,8.79872986 C28.6706455,12.277973 25.5843522,15.1432321 21.7940238,15.1432321 L21.7940238,15.1432321 Z" id="形状" fill="#FFFFFF" fill-rule="nonzero" mask="url(#mask-2)"></path>
                </g>
            </g>
        </g>
    </g>
</svg>