<?xml version="1.0" encoding="UTF-8"?>
<svg width="40px" height="42px" viewBox="0 0 40 42" version="1.1" xmlns="http://www.w3.org/2000/svg" xmlns:xlink="http://www.w3.org/1999/xlink">
    <title>流动人口</title>
    <g id="页面-1" stroke="none" stroke-width="1" fill="none" fill-rule="evenodd">
        <g id="流动人口" transform="translate(0.947441, 0.547005)" fill-rule="nonzero">
            <path d="M24.0525589,1.33974596 L33.1051178,6.56624326 C36.1991286,8.35257121 38.1051178,11.6538414 38.1051178,15.2264973 L38.1051178,25.6794919 C38.1051178,29.2521478 36.1991286,32.553418 33.1051178,34.3397459 L24.0525589,39.5662433 C20.9585481,41.3525712 17.1465697,41.3525712 14.0525589,39.5662433 L5,34.3397459 C1.90598923,32.553418 0,29.2521478 0,25.6794919 L0,15.2264973 C0,11.6538414 1.90598923,8.35257121 5,6.56624326 L14.0525589,1.33974596 C17.1465697,-0.446581988 20.9585481,-0.446581988 24.0525589,1.33974596 Z" id="Polygon" fill="#FFE7DD"></path>
            <path d="M23.0558354,19.1827842 C22.9876834,19.4544712 22.9195314,19.7006875 22.8513793,19.9214331 C22.7832273,20.1082179 22.6980373,20.2992478 22.5958092,20.4945228 C22.4935812,20.6897978 22.3828341,20.8383767 22.2635681,20.9402593 C22.110226,21.0591223 22.0037385,21.1864756 21.9441054,21.3223191 C21.8844724,21.4581626 21.8333584,21.5982512 21.7907634,21.7425849 C21.7481683,21.8869186 21.7013138,22.0354974 21.6501998,22.1883213 C21.5990858,22.3411452 21.5138957,22.4939691 21.3946297,22.646793 C21.0027555,23.1562061 20.7088499,23.6486387 20.5129128,24.1240909 C20.3169757,24.5995431 20.1806716,25.0580149 20.1040006,25.4995062 C20.0273295,25.9409976 20.006032,26.3782438 20.040108,26.8112449 C20.0741841,27.244246 20.1423361,27.6645118 20.2445641,28.0720422 C20.3127162,28.3776901 20.4149442,28.6960732 20.5512483,29.0271917 C20.6875523,29.3583102 20.8877489,29.6979189 21.1518381,30.0460179 C21.4159272,30.3941168 21.7524278,30.7337255 22.16134,31.064844 C22.5702522,31.3959625 23.0813925,31.7143457 23.6947607,32.0199935 C23.2858485,32.1048957 22.8087843,32.1813076 22.2635681,32.2492294 C21.8035419,32.3001707 21.2370281,32.3468669 20.5640268,32.389318 C19.8910255,32.4317691 19.1200556,32.4529946 18.2511172,32.4529946 C17.808129,32.4529946 17.2927293,32.4360142 16.704918,32.4020533 C16.1171067,32.3680924 15.5122574,32.3256413 14.8903702,32.2747 C14.2684829,32.2237587 13.6551146,32.1643272 13.0502653,32.0964055 C12.445416,32.0284837 11.8916808,31.9563169 11.3890595,31.8799049 C10.8864383,31.8034929 10.4604881,31.7228359 10.111209,31.6379337 C9.76192978,31.5530315 9.54469518,31.4766196 9.45950515,31.4086978 C9.30616307,31.2728543 9.18689702,30.8950396 9.10170698,30.2752537 C9.01651694,29.6554678 9.04207395,28.844652 9.17837802,27.8428063 C9.26356805,27.282452 9.48932166,26.853696 9.85563883,26.5565383 C10.221956,26.2593807 10.6521657,26.0258997 11.1462679,25.8560954 C11.6403702,25.686291 12.1557699,25.529222 12.6924671,25.3848883 C13.2291644,25.2405546 13.7019691,25.0410345 14.1108813,24.7863279 C14.4346034,24.5825627 14.6816546,24.3915328 14.8520346,24.2132382 C15.0224147,24.0349437 15.1416808,23.852404 15.2098328,23.6656192 C15.2779848,23.4788344 15.3120608,23.2835594 15.3120608,23.0797942 C15.3120608,22.8760289 15.3035418,22.6552833 15.2865038,22.4175572 C15.2524278,22.060968 15.1289023,21.7807908 14.9159272,21.5770256 C14.7029521,21.3732604 14.4771985,21.1694952 14.2386663,20.9657299 C14.1023623,20.8638473 13.9830962,20.7110234 13.8808682,20.5072582 C13.7786401,20.3034929 13.6934501,20.1082179 13.6252981,19.9214331 C13.540108,19.7006875 13.471956,19.4544712 13.420842,19.1827842 C13.3015759,19.1488233 13.1908289,19.097882 13.0886008,19.0299603 C13.0034108,18.9620385 12.9097017,18.8601559 12.8074737,18.7243124 C12.7052456,18.588469 12.6115366,18.3847037 12.5263466,18.1130168 C12.4411565,17.8583102 12.41134,17.6205841 12.436897,17.3998385 C12.462454,17.1790928 12.5093086,16.992308 12.5774606,16.8394841 C12.6456126,16.6526993 12.7393217,16.4913852 12.8585877,16.3555417 C12.8585877,15.7782069 12.8926637,15.2008721 12.9608158,14.6235373 C13.0289678,14.1311046 13.1354553,13.6047111 13.2802784,13.0443567 C13.4251015,12.4840024 13.6593741,11.9830795 13.9830962,11.5415882 C14.2897804,11.1170773 14.617762,10.7689784 14.9670412,10.4972914 C15.3163203,10.2256044 15.678378,10.013349 16.0532142,9.86052507 C16.4280504,9.70770115 16.8028865,9.60157342 17.1777227,9.5421419 C17.5525589,9.48271037 17.9103571,9.45299461 18.2511172,9.45299461 C18.6941054,9.45299461 19.1200556,9.50393592 19.5289678,9.60581853 C19.93788,9.70770115 20.3169757,9.84354463 20.6662548,10.013349 C21.015534,10.1831533 21.3264776,10.3741832 21.5990858,10.5864387 C21.8716939,10.7986941 22.093188,11.0151947 22.2635681,11.2359404 C22.6554423,11.728373 22.9408289,12.2717469 23.119728,12.8660622 C23.2986271,13.4603774 23.4306716,14.0207318 23.5158617,14.5471253 C23.6010517,15.158421 23.6351277,15.7697167 23.6180897,16.3810123 C23.7203177,16.4659145 23.8055078,16.5677971 23.8736598,16.6866602 C23.9418118,16.7885428 23.9929259,16.9243863 24.0270019,17.0941906 C24.0610779,17.263995 24.0610779,17.4762504 24.0270019,17.730957 C23.9929259,18.0535852 23.9247738,18.3082918 23.8225458,18.4950766 C23.7203177,18.6818614 23.6095707,18.8261951 23.4903046,18.9280777 C23.3540006,19.0469407 23.2091775,19.1318429 23.0558354,19.1827842 L23.0558354,19.1827842 Z" id="path-1" fill="#FF6600"></path>
            <g id="流" transform="translate(22.508559, 23.532995)" fill="#FF6600">
                <path d="M0.848,1.84 C0.698666667,1.84 0.602666667,1.76 0.56,1.6 L0.224,0.312 C0.213333333,0.269333333 0.208,0.237333333 0.208,0.216 C0.208,0.146666667 0.228,0.0933333333 0.268,0.056 C0.308,0.0186666667 0.365333333,0 0.44,0 L1.304,0 C1.45866667,0 1.55466667,0.08 1.592,0.24 L1.928,1.528 C1.93866667,1.57066667 1.944,1.60266667 1.944,1.624 C1.944,1.69333333 1.924,1.74666667 1.884,1.784 C1.844,1.82133333 1.78666667,1.84 1.712,1.84 L0.848,1.84 Z M6.96,0.464 C7.04,0.464 7.10266667,0.489333333 7.148,0.54 C7.19333333,0.590666667 7.216,0.661333333 7.216,0.752 L7.216,1.24 C7.216,1.32533333 7.19333333,1.39333333 7.148,1.444 C7.10266667,1.49466667 7.04,1.52 6.96,1.52 L4.216,1.52 L3.816,2.464 L5.448,2.464 L5.368,2.016 C5.36266667,2 5.36,1.976 5.36,1.944 C5.36,1.79466667 5.43733333,1.72 5.592,1.72 L6.384,1.72 C6.53866667,1.72 6.632,1.8 6.664,1.96 L6.88,3.224 C6.88533333,3.24 6.888,3.264 6.888,3.296 C6.888,3.44533333 6.81066667,3.52 6.656,3.52 L2.6,3.52 C2.52,3.52 2.45733333,3.49466667 2.412,3.444 C2.36666667,3.39333333 2.344,3.32533333 2.344,3.24 L2.344,2.64 C2.344,2.53333333 2.368,2.42133333 2.416,2.304 L2.752,1.52 L2.424,1.52 C2.344,1.52 2.28133333,1.49466667 2.236,1.444 C2.19066667,1.39333333 2.168,1.32533333 2.168,1.24 L2.168,0.752 C2.168,0.661333333 2.19066667,0.590666667 2.236,0.54 C2.28133333,0.489333333 2.344,0.464 2.424,0.464 L4.072,0.464 L4.04,0.296 C4.03466667,0.28 4.032,0.256 4.032,0.224 C4.032,0.154666667 4.05333333,0.1 4.096,0.06 C4.13866667,0.02 4.19733333,0 4.272,0 L5.128,0 C5.28266667,0 5.37333333,0.0773333333 5.4,0.232 L5.44,0.464 L6.96,0.464 Z M1.312,2.016 C1.46666667,2.016 1.56266667,2.096 1.6,2.256 L1.936,3.544 C1.94666667,3.58666667 1.952,3.61866667 1.952,3.64 C1.952,3.704 1.93066667,3.756 1.888,3.796 C1.84533333,3.836 1.78933333,3.856 1.72,3.856 L0.856,3.856 C0.706666667,3.856 0.610666667,3.776 0.568,3.616 L0.232,2.32 C0.221333333,2.27733333 0.216,2.24533333 0.216,2.224 C0.216,2.16 0.237333333,2.10933333 0.28,2.072 C0.322666667,2.03466667 0.378666667,2.016 0.448,2.016 L1.312,2.016 Z M2.496,4.016 C2.51733333,3.84533333 2.608,3.76 2.768,3.76 L3.6,3.76 C3.67466667,3.76 3.73333333,3.78133333 3.776,3.824 C3.81866667,3.86666667 3.84,3.92266667 3.84,3.992 C3.84,4.01866667 3.83733333,4.04 3.832,4.056 L3.408,6.784 C3.38666667,6.95466667 3.296,7.04 3.136,7.04 L2.304,7.04 C2.22933333,7.04 2.17066667,7.01866667 2.128,6.976 C2.08533333,6.93333333 2.064,6.87733333 2.064,6.808 C2.064,6.78133333 2.06666667,6.76 2.072,6.744 L2.496,4.016 Z M4.024,4.04 C4.024,3.95466667 4.04666667,3.88666667 4.092,3.836 C4.13733333,3.78533333 4.2,3.76 4.28,3.76 L5.032,3.76 C5.112,3.76 5.17466667,3.78533333 5.22,3.836 C5.26533333,3.88666667 5.288,3.95466667 5.288,4.04 L5.288,6.76 C5.288,6.84533333 5.26533333,6.91333333 5.22,6.964 C5.17466667,7.01466667 5.112,7.04 5.032,7.04 L4.28,7.04 C4.2,7.04 4.13733333,7.01466667 4.092,6.964 C4.04666667,6.91333333 4.024,6.84533333 4.024,6.76 L4.024,4.04 Z M6.96,6.016 C7.04,6.016 7.10266667,6.04133333 7.148,6.092 C7.19333333,6.14266667 7.216,6.21333333 7.216,6.304 L7.216,6.76 C7.216,6.84533333 7.19333333,6.91333333 7.148,6.964 C7.10266667,7.01466667 7.04,7.04 6.96,7.04 L5.784,7.04 C5.704,7.04 5.64133333,7.01466667 5.596,6.964 C5.55066667,6.91333333 5.528,6.84533333 5.528,6.76 L5.528,4.04 C5.528,3.95466667 5.55066667,3.88666667 5.596,3.836 C5.64133333,3.78533333 5.704,3.76 5.784,3.76 L6.6,3.76 C6.68,3.76 6.74266667,3.78533333 6.788,3.836 C6.83333333,3.88666667 6.856,3.95466667 6.856,4.04 L6.856,6.016 L6.96,6.016 Z M1.76,4.048 C1.82933333,4.048 1.88533333,4.06666667 1.928,4.104 C1.97066667,4.14133333 1.992,4.192 1.992,4.256 C1.992,4.27733333 1.98666667,4.30933333 1.976,4.352 L1.392,6.792 C1.35466667,6.952 1.26133333,7.032 1.112,7.032 L0.232,7.032 C0.162666667,7.032 0.106666667,7.012 0.064,6.972 C0.0213333333,6.932 0,6.88 0,6.816 C0,6.79466667 0.00533333333,6.76266667 0.016,6.72 L0.6,4.288 C0.637333333,4.128 0.730666667,4.048 0.88,4.048 L1.76,4.048 Z" id="形状"></path>
            </g>
        </g>
    </g>
</svg>