<?xml version="1.0" encoding="UTF-8"?>
<svg width="56px" height="56px" viewBox="0 0 56 56" version="1.1" xmlns="http://www.w3.org/2000/svg" xmlns:xlink="http://www.w3.org/1999/xlink">
    <title>流转牵收</title>
    <defs>
        <linearGradient x1="35.5401921%" y1="28.7956616%" x2="71.5555247%" y2="69.158476%" id="linearGradient-1">
            <stop stop-color="#82B3F9" offset="0%"></stop>
            <stop stop-color="#509BFF" offset="100%"></stop>
        </linearGradient>
    </defs>
    <g id="z" stroke="none" stroke-width="1" fill="none" fill-rule="evenodd">
        <g id="7/20日首页面改版" transform="translate(-507.000000, -439.000000)">
            <g id="编组-19" transform="translate(507.000000, 436.000000)">
                <g id="流转牵收" transform="translate(0.000000, 3.000000)">
                    <path d="M33,2.88675135 L47.2487113,11.1132487 C50.3427221,12.8995766 52.2487113,16.2008468 52.2487113,19.7735027 L52.2487113,36.2264973 C52.2487113,39.7991532 50.3427221,43.1004234 47.2487113,44.8867513 L33,53.1132487 C29.9059892,54.8995766 26.0940108,54.8995766 23,53.1132487 L8.75128869,44.8867513 C5.65727793,43.1004234 3.75128869,39.7991532 3.75128869,36.2264973 L3.75128869,19.7735027 C3.75128869,16.2008468 5.65727793,12.8995766 8.75128869,11.1132487 L23,2.88675135 C26.0940108,1.1004234 29.9059892,1.1004234 33,2.88675135 Z" id="Polygon" fill="#D6EDFF"></path>
                    <g id="编组-38" transform="translate(15.000000, 10.000000)">
                        <g id="车辆信息管理" fill="url(#linearGradient-1)">
                            <path d="M5.9998285,3 L5.9998285,3.75 C5.9998285,4.9935 7.00779969,6 8.24976419,6 L15.7495498,6 C16.9915143,6 17.9994855,4.9935 17.9994855,3.75 L17.9994855,3 L20.9993998,3 C22.6553524,3 23.999314,4.344 23.999314,6 L24.000091,24.3362492 C22.893116,23.6470762 21.5922904,23.25 20.2005148,23.25 C16.1663827,23.25 12.8963758,26.5860745 12.8963758,30.7017128 C12.8963758,31.5038948 13.0206039,32.276461 13.250505,33.0004813 L2.99991425,33 C1.34396158,33 0,31.656 0,30 L0,6 C0,4.344 1.34396158,3 2.99991425,3 L5.9998285,3 Z M16.4995284,19.5 L5.9998285,19.5 C5.17035221,19.5 4.49987138,20.172 4.49987138,21 C4.49987138,21.7792941 5.09379212,22.4204014 5.85520491,22.4931292 L5.9998285,22.5 L16.4995284,22.5 C17.3290047,22.5 17.9994855,21.828 17.9994855,21 C17.9994855,20.172 17.3290047,19.5 16.4995284,19.5 Z M10.4996999,13.5 L5.9998285,13.5 C5.17035221,13.5 4.49987138,14.172 4.49987138,15 C4.49987138,15.7792941 5.09379212,16.4204014 5.85520491,16.4931292 L5.9998285,16.5 L10.4996999,16.5 C11.3291762,16.5 11.999657,15.828 11.999657,15 C11.999657,14.172 11.3291762,13.5 10.4996999,13.5 Z M11.999657,0 C12.8291333,0 13.4996141,0.672 13.4996141,1.5 L15.7495498,1.5 C16.163538,1.5 16.4995284,1.836 16.4995284,2.25 L16.4995284,3.75 C16.4995284,4.164 16.163538,4.5 15.7495498,4.5 L8.24976419,4.5 C7.83577602,4.5 7.49978563,4.164 7.49978563,3.75 L7.49978563,2.25 C7.49978563,1.836 7.83577602,1.5 8.24976419,1.5 L10.4996999,1.5 C10.4996999,0.672 11.1701807,0 11.999657,0 Z" id="形状结合"></path>
                        </g>
                        <path d="M20,24 C23.3138461,24 26,26.6861539 26,30 C26,33.3138461 23.3138461,36 20,36 C16.6861539,36 14,33.3138461 14,30 C14,26.6861539 16.6861539,24 20,24 Z M23.843843,27.4638969 C23.4630731,27.1251306 22.879226,27.1597457 22.5409178,27.5405116 L22.5409178,27.5405116 L19.430605,31.0394039 L17.8073716,29.7411076 C17.4095248,29.4221873 16.8279854,29.4868022 16.5099848,29.8851063 C16.1915228,30.2834105 16.2561383,30.8644823 16.6539851,31.1824795 L16.6539851,31.1824795 L18.9616812,33.0286171 C19.1319892,33.1643083 19.335528,33.2307692 19.5381437,33.2307692 C19.7933748,33.2307692 20.0467599,33.1255394 20.2286064,32.9210796 L20.2286064,32.9210796 L23.9209201,28.76727 C24.2596899,28.3860426 24.2246129,27.8026631 23.843843,27.4638969 Z" id="形状结合" fill="#FFC600"></path>
                    </g>
                </g>
            </g>
        </g>
    </g>
</svg>