<?xml version="1.0" encoding="UTF-8"?>
<svg width="233px" height="178px" viewBox="0 0 233 178" version="1.1" xmlns="http://www.w3.org/2000/svg" xmlns:xlink="http://www.w3.org/1999/xlink">
    <title>暂无待办事项</title>
    <defs>
        <linearGradient x1="50.0002696%" y1="0.00176009857%" x2="50.0002696%" y2="100.000704%" id="linearGradient-1">
            <stop stop-color="#F9F9F9" offset="4.528621e-05%"></stop>
            <stop stop-color="#FCFBFE" offset="100%"></stop>
        </linearGradient>
        <linearGradient x1="50.0044593%" y1="-0.00155981906%" x2="50.0044593%" y2="100.00078%" id="linearGradient-2">
            <stop stop-color="#F9F9F9" offset="4.528621e-05%"></stop>
            <stop stop-color="#FCFBFE" offset="100%"></stop>
        </linearGradient>
        <linearGradient x1="50%" y1="-1.96467949%" x2="50%" y2="98.1747115%" id="linearGradient-3">
            <stop stop-color="#F9F9F9" offset="4.528621e-05%"></stop>
            <stop stop-color="#FFFFFF" stop-opacity="0" offset="100%"></stop>
        </linearGradient>
        <linearGradient x1="50%" y1="-0.000485436893%" x2="50%" y2="99.9995146%" id="linearGradient-4">
            <stop stop-color="#F9F9F9" offset="4.528621e-05%"></stop>
            <stop stop-color="#FFFFFF" stop-opacity="0.1" offset="100%"></stop>
        </linearGradient>
        <linearGradient x1="50%" y1="-0.000523560209%" x2="50%" y2="99.9994764%" id="linearGradient-5">
            <stop stop-color="#F9F9F9" offset="4.528621e-05%"></stop>
            <stop stop-color="#FFFFFF" stop-opacity="0" offset="100%"></stop>
        </linearGradient>
        <linearGradient x1="49.97875%" y1="-1.96079171%" x2="49.97875%" y2="98.1834119%" id="linearGradient-6">
            <stop stop-color="#EDEDEE" offset="4.528621e-05%"></stop>
            <stop stop-color="#FBFBFB" offset="100%"></stop>
        </linearGradient>
        <linearGradient x1="50.0093054%" y1="-1.96225996%" x2="50.0093054%" y2="98.1732712%" id="linearGradient-7">
            <stop stop-color="#EDEDEE" offset="4.528621e-05%"></stop>
            <stop stop-color="#ECECEC" offset="100%"></stop>
        </linearGradient>
        <linearGradient x1="49.97875%" y1="-1.96079171%" x2="49.97875%" y2="98.1834119%" id="linearGradient-8">
            <stop stop-color="#EDEDEE" offset="4.528621e-05%"></stop>
            <stop stop-color="#FBFBFB" offset="100%"></stop>
        </linearGradient>
        <linearGradient x1="49.9989815%" y1="-0.000227800162%" x2="49.9989815%" y2="99.9985762%" id="linearGradient-9">
            <stop stop-color="#F0F0F2" offset="0%"></stop>
            <stop stop-color="#F0F1F2" stop-opacity="0" offset="0%"></stop>
            <stop stop-color="#F9F9F9" offset="0%"></stop>
            <stop stop-color="#DEE0E2" offset="100%"></stop>
            <stop stop-color="#FCFBFD" offset="100%"></stop>
        </linearGradient>
        <linearGradient x1="50.0032056%" y1="-0.00101062905%" x2="50.0032056%" y2="99.9973487%" id="linearGradient-10">
            <stop stop-color="#F0F0F2" offset="0%"></stop>
            <stop stop-color="#F0F1F2" stop-opacity="0" offset="0%"></stop>
            <stop stop-color="#F9F9F9" offset="0%"></stop>
            <stop stop-color="#DEE0E2" offset="100%"></stop>
            <stop stop-color="#FCFBFD" offset="100%"></stop>
        </linearGradient>
        <linearGradient x1="50.0033096%" y1="0.00102687449%" x2="50.0033096%" y2="99.9978707%" id="linearGradient-11">
            <stop stop-color="#F0F0F2" offset="0%"></stop>
            <stop stop-color="#F0F1F2" stop-opacity="0" offset="0%"></stop>
            <stop stop-color="#F9F9F9" offset="0%"></stop>
            <stop stop-color="#DEE0E2" offset="100%"></stop>
            <stop stop-color="#FCFBFD" offset="100%"></stop>
        </linearGradient>
    </defs>
    <g id="页面-1" stroke="none" stroke-width="1" fill="none" fill-rule="evenodd">
        <g id="首页-无待办事项" transform="translate(-1545.000000, -675.000000)" fill-rule="nonzero">
            <g id="暂无待办事项" transform="translate(1545.000000, 675.000000)">
                <g id="编组">
                    <path d="M145.485106,9.21576929 C145.355792,9.21576929 145.231181,9.21576929 145.094813,9.21576929 C143.253855,3.922453 136.564803,0 128.594369,0 C120.057306,0 112.992069,4.49990569 111.776519,10.3659799 C106.954289,11.6124327 103.547457,14.6405382 103.547457,18.2155807 C103.547457,22.8798022 109.418305,26.6731499 116.657528,26.6731499 C120.290071,26.6731499 123.579344,25.7201182 125.954016,24.1825917 C126.830999,24.2788339 127.712684,24.3257812 128.594369,24.3257812 C131.808406,24.3586444 134.989526,23.6919917 137.91672,22.3680758 C140.091544,24.0206233 142.760111,24.8914971 145.492159,24.8445497 C151.228991,24.8445497 155.881937,21.3469704 155.881937,17.0372016 C155.881937,12.7274328 151.221937,9.21576929 145.485106,9.21576929 Z" id="路径" fill="url(#linearGradient-1)"></path>
                    <path d="M47.0349647,18.8399807 C46.9620787,18.8399807 46.8915439,18.8399807 46.8163068,18.8399807 C45.7770938,15.8541278 42.0034813,13.6405592 37.5057114,13.6405592 C32.6881837,13.6405592 28.7029667,16.180412 28.0164279,19.4878545 C25.2961352,20.1920651 23.372886,21.9009494 23.372886,23.9173391 C23.372886,26.5487393 26.685671,28.6895395 30.7696367,28.6895395 C32.8198486,28.6895395 34.6749142,28.1519921 36.0150757,27.2834657 C36.5088194,27.3374552 37.0072654,27.3632763 37.5033602,27.3656236 C39.3161049,27.3844026 41.1123915,27.0064762 42.7629062,26.260013 C43.9902119,27.1919183 45.4949546,27.6848658 47.0373158,27.6566973 C50.2748638,27.6566973 52.8987588,25.6825603 52.8987588,23.2506864 C52.8987588,20.8188125 50.2725126,18.8399807 47.0349647,18.8399807 Z" id="路径" fill="url(#linearGradient-2)"></path>
                    <polygon id="矩形" fill="url(#linearGradient-3)" points="0 150.762098 233 150.762098 233 178 0 178"></polygon>
                    <polygon id="路径" fill="url(#linearGradient-4)" points="45.3773966 35.9757718 45.3773966 61.56209 27.9788093 61.56209 27.9788093 132.68736 45.3773966 132.68736 56.8980827 132.68736 69.3592331 132.68736 69.3592331 35.9757718"></polygon>
                    <polygon id="路径" fill="url(#linearGradient-5)" points="200.789102 13.6757697 200.789102 32.219982 214.425832 32.219982 214.425832 103.345252 197.027245 103.345252 185.506559 103.345252 173.045409 103.345252 173.045409 13.6757697"></polygon>
                    <g transform="translate(29.251099, 117.643074)">
                        <rect id="矩形" fill="url(#linearGradient-6)" x="4.42457227" y="20.6709283" width="3.76185671" height="12.4527906"></rect>
                        <path d="M12.3714946,21.1474441 L0.234804355,21.1098862 C0.0772766052,21.1098862 -0.0332279356,20.9596546 0.00909295234,20.809423 L6.1103543,0.169010542 C6.1761868,-0.0563368474 6.49594462,-0.0563368474 6.56177711,0.169010542 L12.597206,20.8469809 C12.641878,20.9972125 12.5290223,21.1474441 12.3714946,21.1474441 Z" id="路径" fill="url(#linearGradient-7)"></path>
                    </g>
                    <g transform="translate(196.888838, 117.643074)">
                        <rect id="矩形" fill="url(#linearGradient-8)" x="4.42457227" y="20.6709283" width="3.76185671" height="12.4527906"></rect>
                        <path d="M12.3714946,21.1474441 L0.234804355,21.1098862 C0.0772766052,21.1098862 -0.0332279356,20.9596546 0.00909295234,20.809423 L6.1103543,0.169010542 C6.1761868,-0.0563368474 6.49594462,-0.0563368474 6.56177711,0.169010542 L12.597206,20.8469809 C12.641878,20.9972125 12.5290223,21.1474441 12.3714946,21.1474441 Z" id="路径" fill="url(#linearGradient-7)"></path>
                    </g>
                    <ellipse id="椭圆形" fill="#F3F3F3" cx="116.43887" cy="159.010752" rx="42.2174369" ry="4.50694779"></ellipse>
                </g>
                <g id="编组" transform="translate(77.000000, 68.000000)">
                    <path d="M71.4012059,17.2113901 L41.8835975,0.595913711 C40.6055349,-0.198637904 38.9821134,-0.198637904 37.7040508,0.595913711 L8.18644246,17.2113901 C6.3515768,18.3541423 5.79712316,20.7588294 6.94362052,22.5816243 C7.25843742,23.0817244 7.68367517,23.5047063 8.18644246,23.8178531 L37.7040508,40.4333296 C38.979764,41.2348919 40.6055349,41.2348919 41.8835975,40.4333296 L71.4012059,23.8178531 C73.2360715,22.675101 73.7905252,20.2704139 72.6440278,18.447619 C72.3268615,17.9475188 71.9039731,17.524537 71.4012059,17.2113901 Z" id="路径" fill="url(#linearGradient-9)"></path>
                    <path d="M34.9270838,44.8968401 L5.90519463,27.4213784 C4.00689572,26.3907982 1.62697394,27.0871993 0.58854805,28.9754279 C0.306622469,29.4918864 0.14451526,30.064431 0.113973322,30.650997 L0.00590184906,64.410093 C-0.0763264454,65.9010457 0.706017042,67.3078695 2.01932037,68.0346505 L31.0412096,85.5241337 C32.9442072,86.5547139 35.3288278,85.8559759 36.3649043,83.9630735 C36.6468299,83.4489519 36.8065877,82.8787442 36.8371296,82.2945151 L36.9452011,48.5354191 C37.0297788,47.0374556 36.2450859,45.6236211 34.9270838,44.8968401 Z" id="路径" fill="url(#linearGradient-10)"></path>
                    <path d="M78.9145226,30.6369755 C78.8017524,28.4870123 76.9574892,26.8371493 74.7960597,26.9493213 C74.2110641,26.9797012 73.6401648,27.1409484 73.1233013,27.4213784 L44.1014121,44.9108616 C42.7763619,45.628295 41.9822715,47.0351187 42.0551023,48.5354191 L42.1631737,82.2945151 C42.2735946,84.4468152 44.1178578,86.103689 46.2816366,85.9938539 C46.8689815,85.963474 47.4422302,85.8022268 47.9590938,85.5241337 L76.980983,68.0346505 C78.2942863,67.3102064 79.0742804,65.9033827 78.9944015,64.410093 L78.9145226,30.6369755 Z" id="路径" fill="url(#linearGradient-11)"></path>
                </g>
            </g>
        </g>
    </g>
</svg>