<?xml version="1.0" encoding="UTF-8"?>
<svg width="62px" height="15px" viewBox="0 0 62 15" version="1.1" xmlns="http://www.w3.org/2000/svg" xmlns:xlink="http://www.w3.org/1999/xlink">
    <title>最新公告</title>
    <g id="页面-1" stroke="none" stroke-width="1" fill="none" fill-rule="evenodd">
        <g id="首页面" transform="translate(-366.000000, -84.000000)" fill="#FFFFFF" fill-rule="nonzero">
            <g id="编组-2" transform="translate(366.992571, 75.000000)">
                <g id="最新公告" transform="translate(0.000000, 9.096000)">
                    <path d="M13.504,5.088 C13.504,5.25866667 13.4586667,5.39466667 13.368,5.496 C13.2773333,5.59733333 13.152,5.648 12.992,5.648 L1.92,5.648 C1.76,5.648 1.63466667,5.59733333 1.544,5.496 C1.45333333,5.39466667 1.408,5.25866667 1.408,5.088 L1.408,0.56 C1.408,0.389333333 1.45333333,0.253333333 1.544,0.152 C1.63466667,0.0506666667 1.76,0 1.92,0 L12.992,0 C13.152,0 13.2773333,0.0506666667 13.368,0.152 C13.4586667,0.253333333 13.504,0.389333333 13.504,0.56 L13.504,5.088 Z M4.128,2.128 L10.784,2.128 L10.784,1.728 L4.128,1.728 L4.128,2.128 Z M10.784,3.52 L4.128,3.52 L4.128,3.92 L10.784,3.92 L10.784,3.52 Z M7.92,11.504 C8.03733333,11.4933333 8.128,11.5386667 8.192,11.64 C8.256,11.7413333 8.288,11.8826667 8.288,12.064 L8.288,13.248 L9.184,11.824 L8.544,11.152 C8.42666667,11.0346667 8.368,10.912 8.368,10.784 C8.368,10.688 8.40533333,10.6106667 8.48,10.552 C8.55466667,10.4933333 8.656,10.464 8.784,10.464 L10.144,10.464 C10.272,10.464 10.3813333,10.4826667 10.472,10.52 C10.5626667,10.5573333 10.656,10.624 10.752,10.72 L11.008,10.976 L11.664,10.256 L8.416,10.256 C8.256,10.256 8.13066667,10.2053333 8.04,10.104 C7.94933333,10.0026667 7.904,9.86666667 7.904,9.696 L7.904,8.88 C7.904,8.70933333 7.94933333,8.57333333 8.04,8.472 C8.13066667,8.37066667 8.256,8.32 8.416,8.32 L13.808,8.32 C13.968,8.32 14.0933333,8.37066667 14.184,8.472 C14.2746667,8.57333333 14.32,8.70933333 14.32,8.88 L14.32,9.872 C14.32,10.1066667 14.2453333,10.336 14.096,10.56 L12.976,12.08 L14,13.456 C14.096,13.584 14.144,13.7066667 14.144,13.824 C14.144,13.92 14.1066667,13.9973333 14.032,14.056 C13.9573333,14.1146667 13.8506667,14.144 13.712,14.144 L12.24,14.144 C12.0053333,14.144 11.8026667,14.0373333 11.632,13.824 L11.024,13.056 L10.528,13.792 C10.3573333,14.0266667 10.1546667,14.144 9.92,14.144 L8.464,14.144 C8.304,14.144 8.176,14.12 8.08,14.072 C7.984,14.024 7.936,13.9626667 7.936,13.888 C7.936,13.8453333 7.952,13.7973333 7.984,13.744 L8.24,13.312 L7.536,13.376 L7.536,13.584 C7.536,13.7546667 7.49066667,13.8906667 7.4,13.992 C7.30933333,14.0933333 7.184,14.144 7.024,14.144 L5.488,14.144 C5.14666667,14.144 4.976,14.0533333 4.976,13.872 L4.976,13.568 L1.216,13.824 C1.04533333,13.8346667 0.914666667,13.792 0.824,13.696 C0.733333333,13.6 0.688,13.4613333 0.688,13.28 L0.688,12.576 C0.688,12.2346667 0.762666667,12.0533333 0.912,12.032 L1.136,12.016 L1.136,7.952 L0.512,7.952 C0.352,7.952 0.226666667,7.90133333 0.136,7.8 C0.0453333333,7.69866667 0,7.56266667 0,7.392 L0,6.576 C0,6.40533333 0.0453333333,6.26933333 0.136,6.168 C0.226666667,6.06666667 0.352,6.016 0.512,6.016 L14.288,6.016 C14.448,6.016 14.5733333,6.06666667 14.664,6.168 C14.7546667,6.26933333 14.8,6.40533333 14.8,6.576 L14.8,7.392 C14.8,7.56266667 14.7546667,7.69866667 14.664,7.8 C14.5733333,7.90133333 14.448,7.952 14.288,7.952 L7.536,7.952 L7.536,11.536 L7.92,11.504 Z M3.696,8.432 L4.976,8.432 L4.976,7.952 L3.696,7.952 L3.696,8.432 Z M4.976,10.096 L4.976,9.664 L3.696,9.664 L3.696,10.096 L4.976,10.096 Z M4.976,11.328 L3.696,11.328 L3.696,11.824 L4.976,11.728 L4.976,11.328 Z" id="形状"></path>
                    <path d="M22.8297143,2.544 C22.8297143,2.71466667 22.7843809,2.85066667 22.6937143,2.952 C22.6030476,3.05333333 22.4777143,3.104 22.3177143,3.104 L16.1897143,3.104 C16.0297143,3.104 15.9043809,3.05333333 15.8137143,2.952 C15.7230476,2.85066667 15.6777143,2.71466667 15.6777143,2.544 L15.6777143,1.568 C15.6777143,1.38666667 15.7230476,1.24533333 15.8137143,1.144 C15.9043809,1.04266667 16.0297143,0.992 16.1897143,0.992 L17.7737143,0.992 L17.7097143,0.656 C17.6990476,0.624 17.6937143,0.576 17.6937143,0.512 C17.6937143,0.373333333 17.7363809,0.264 17.8217143,0.184 C17.9070476,0.104 18.0243809,0.064 18.1737143,0.064 L19.8537143,0.064 C20.1630476,0.064 20.3443809,0.218666667 20.3977143,0.528 L20.4777143,0.992 L22.3177143,0.992 C22.4777143,0.992 22.6030476,1.04266667 22.6937143,1.144 C22.7843809,1.24533333 22.8297143,1.38666667 22.8297143,1.568 L22.8297143,2.544 Z M30.3017143,6.448 C30.3017143,6.62933333 30.2723809,6.77066667 30.2137143,6.872 C30.1550476,6.97333333 30.0723809,7.024 29.9657143,7.024 L29.6137143,7.024 L29.6137143,13.584 C29.6137143,13.7546667 29.5683809,13.8906667 29.4777143,13.992 C29.3870476,14.0933333 29.2617143,14.144 29.1017143,14.144 L27.4057143,14.144 C27.2457143,14.144 27.1203809,14.0933333 27.0297143,13.992 C26.9390476,13.8906667 26.8937143,13.7546667 26.8937143,13.584 L26.8937143,7.024 L26.1257143,7.024 L25.8697143,13.6 C25.8590476,13.9626667 25.6883809,14.144 25.3577143,14.144 L23.6457143,14.144 C23.4857143,14.144 23.3603809,14.0933333 23.2697143,13.992 C23.1790476,13.8906667 23.1390476,13.7546667 23.1497143,13.584 L23.6297143,1.344 C23.6403809,1.00266667 23.8003809,0.816 24.1097143,0.784 L29.3737143,0.128 C29.5443809,0.117333333 29.6750476,0.157333333 29.7657143,0.248 C29.8563809,0.338666667 29.9017143,0.474666667 29.9017143,0.656 L29.9017143,1.664 C29.9017143,1.83466667 29.8590476,1.968 29.7737143,2.064 C29.6883809,2.16 29.5710476,2.21866667 29.4217143,2.24 L26.3017143,2.64 L26.2057143,4.912 L29.7897143,4.912 C29.9497143,4.912 30.0750476,4.96266667 30.1657143,5.064 C30.2563809,5.16533333 30.3017143,5.30133333 30.3017143,5.472 L30.3017143,6.448 Z M22.4297143,5.104 C22.5897143,5.104 22.7150476,5.15466667 22.8057143,5.256 C22.8963809,5.35733333 22.9417143,5.49333333 22.9417143,5.664 L22.9417143,6.64 C22.9417143,6.82133333 22.8963809,6.96266667 22.8057143,7.064 C22.7150476,7.16533333 22.5897143,7.216 22.4297143,7.216 L20.6377143,7.216 L20.6377143,7.984 L22.2217143,7.984 C22.3817143,7.984 22.5070476,8.03466667 22.5977143,8.136 C22.6883809,8.23733333 22.7337143,8.37333333 22.7337143,8.544 L22.7337143,9.536 C22.7337143,9.70666667 22.6883809,9.84266667 22.5977143,9.944 C22.5070476,10.0453333 22.3817143,10.096 22.2217143,10.096 L20.6377143,10.096 L20.6377143,13.584 C20.6377143,13.7546667 20.5923809,13.8906667 20.5017143,13.992 C20.4110476,14.0933333 20.2857143,14.144 20.1257143,14.144 L17.9497143,14.144 C17.7897143,14.144 17.6643809,14.0933333 17.5737143,13.992 C17.4830476,13.8906667 17.4377143,13.7546667 17.4377143,13.584 L17.4377143,12.672 C17.4377143,12.5013333 17.4590476,12.3626667 17.5017143,12.256 C17.5443809,12.1493333 17.6030476,12.096 17.6777143,12.096 L17.9177143,12.096 L17.9177143,10.096 L16.2857143,10.096 C16.1257143,10.096 16.0003809,10.0453333 15.9097143,9.944 C15.8190476,9.84266667 15.7737143,9.70666667 15.7737143,9.536 L15.7737143,8.544 C15.7737143,8.37333333 15.8190476,8.23733333 15.9097143,8.136 C16.0003809,8.03466667 16.1257143,7.984 16.2857143,7.984 L17.9177143,7.984 L17.9177143,7.216 L16.0937143,7.216 C15.9337143,7.216 15.8083809,7.16533333 15.7177143,7.064 C15.6270476,6.96266667 15.5817143,6.82133333 15.5817143,6.64 L15.5817143,5.664 C15.5817143,5.49333333 15.6270476,5.35733333 15.7177143,5.256 C15.8083809,5.15466667 15.9337143,5.104 16.0937143,5.104 L16.6857143,5.104 L16.4777143,4 C16.4670476,3.968 16.4617143,3.91466667 16.4617143,3.84 C16.4617143,3.54133333 16.6163809,3.392 16.9257143,3.392 L18.1737143,3.392 C18.4830476,3.392 18.6697143,3.55733333 18.7337143,3.888 L18.9577143,5.104 L19.7097143,5.104 L19.9337143,3.888 C19.9977143,3.55733333 20.1843809,3.392 20.4937143,3.392 L21.7417143,3.392 C22.0510476,3.392 22.2057143,3.54133333 22.2057143,3.84 C22.2057143,3.91466667 22.2003809,3.968 22.1897143,4 L21.9817143,5.104 L22.4297143,5.104 Z M16.9257143,10.48 C17.0963809,10.48 17.2243809,10.5306667 17.3097143,10.632 C17.3950476,10.7333333 17.4323809,10.8746667 17.4217143,11.056 L17.2617143,13.616 C17.2510476,13.968 17.0750476,14.144 16.7337143,14.144 L16.1417143,14.144 C15.9710476,14.144 15.8430476,14.0933333 15.7577143,13.992 C15.6723809,13.8906667 15.6350476,13.7493333 15.6457143,13.568 L15.8057143,11.008 C15.8270476,10.656 16.0030476,10.48 16.3337143,10.48 L16.9257143,10.48 Z M22.0457143,10.48 C22.3870476,10.48 22.5630476,10.656 22.5737143,11.008 L22.7337143,13.568 C22.7443809,13.7493333 22.7070476,13.8906667 22.6217143,13.992 C22.5363809,14.0933333 22.4083809,14.144 22.2377143,14.144 L21.4857143,14.144 C21.1550476,14.144 20.9790476,13.968 20.9577143,13.616 L20.7977143,11.056 C20.7870476,10.8746667 20.8243809,10.7333333 20.9097143,10.632 C20.9950476,10.5306667 21.1230476,10.48 21.2937143,10.48 L22.0457143,10.48 Z" id="形状"></path>
                    <path d="M34.4114285,6.704 C34.2940952,6.98133333 34.0967619,7.12 33.8194285,7.12 L31.8994285,7.12 C31.7607619,7.12 31.6514285,7.088 31.5714285,7.024 C31.4914285,6.96 31.4514285,6.86933333 31.4514285,6.752 C31.4514285,6.656 31.4727619,6.56 31.5154285,6.464 L34.0114285,0.48 C34.1287619,0.202666667 34.3260952,0.064 34.6034285,0.064 L36.5234285,0.064 C36.6620952,0.064 36.7714285,0.0986666667 36.8514285,0.168 C36.9314285,0.237333333 36.9714285,0.330666667 36.9714285,0.448 C36.9714285,0.544 36.9500952,0.634666667 36.9074285,0.72 L34.4114285,6.704 Z M43.2274285,7.12 C42.9607619,7.12 42.7687619,6.98133333 42.6514285,6.704 L40.3474285,0.72 C40.3154285,0.624 40.2994285,0.533333333 40.2994285,0.448 C40.2994285,0.192 40.4434285,0.064 40.7314285,0.064 L42.6354285,0.064 C42.9020952,0.064 43.0940952,0.202666667 43.2114285,0.48 L45.5154285,6.464 C45.5474285,6.56 45.5634285,6.65066667 45.5634285,6.736 C45.5634285,6.992 45.4194285,7.12 45.1314285,7.12 L43.2274285,7.12 Z M41.1314285,5.84 C41.4087619,5.84 41.6060952,5.97866667 41.7234285,6.256 L44.7634285,13.488 C44.8060952,13.5733333 44.8274285,13.664 44.8274285,13.76 C44.8274285,13.8773333 44.7874285,13.9706667 44.7074285,14.04 C44.6274285,14.1093333 44.5180952,14.144 44.3794285,14.144 L33.1794285,14.144 C33.0194285,14.144 32.8940952,14.0933333 32.8034285,13.992 C32.7127619,13.8906667 32.6674285,13.7546667 32.6674285,13.584 L32.6674285,12.4 C32.6674285,12.1866667 32.7207619,11.9573333 32.8274285,11.712 L36.1074285,4.736 C36.2354285,4.45866667 36.4380952,4.32 36.7154285,4.32 L38.6834285,4.32 C38.8220952,4.32 38.9287619,4.352 39.0034285,4.416 C39.0780952,4.48 39.1154285,4.57066667 39.1154285,4.688 C39.1154285,4.76266667 39.0887619,4.864 39.0354285,4.992 L38.6354285,5.84 L41.1314285,5.84 Z M38.6034285,5.936 L35.7234285,12.032 L41.1634285,12.032 L38.6034285,5.936 Z" id="形状"></path>
                    <path d="M60.3771428,4.96 C60.5371428,4.96 60.6624761,5.01066667 60.7531428,5.112 C60.8438095,5.21333333 60.8891428,5.34933333 60.8891428,5.52 L60.8891428,6.512 C60.8891428,6.68266667 60.8438095,6.81866667 60.7531428,6.92 C60.6624761,7.02133333 60.5371428,7.072 60.3771428,7.072 L47.5131428,7.072 C47.3531428,7.072 47.2278095,7.02133333 47.1371428,6.92 C47.0464761,6.81866667 47.0011428,6.68266667 47.0011428,6.512 L47.0011428,5.52 C47.0011428,5.34933333 47.0464761,5.21333333 47.1371428,5.112 C47.2278095,5.01066667 47.3531428,4.96 47.5131428,4.96 L52.7451428,4.96 L52.7451428,3.376 L50.2171428,3.376 L50.0891428,3.888 C50.0144761,4.19733333 49.8278095,4.352 49.5291428,4.352 L47.7851428,4.352 C47.6464761,4.352 47.5344761,4.31466667 47.4491428,4.24 C47.3638095,4.16533333 47.3211428,4.064 47.3211428,3.936 C47.3211428,3.89333333 47.3318095,3.82933333 47.3531428,3.744 L48.1051428,0.72 C48.1798095,0.4 48.3664761,0.24 48.6651428,0.24 L50.4091428,0.24 C50.5584761,0.24 50.6758095,0.272 50.7611428,0.336 C50.8464761,0.4 50.8891428,0.490666667 50.8891428,0.608 C50.8891428,0.672 50.8838095,0.72 50.8731428,0.752 L50.7451428,1.264 L52.7451428,1.264 L52.7451428,0.624 C52.7451428,0.453333333 52.7904761,0.317333333 52.8811428,0.216 C52.9718095,0.114666667 53.0971428,0.064 53.2571428,0.064 L54.9531428,0.064 C55.1131428,0.064 55.2384761,0.114666667 55.3291428,0.216 C55.4198095,0.317333333 55.4651428,0.453333333 55.4651428,0.624 L55.4651428,1.264 L59.5611428,1.264 C59.7211428,1.264 59.8464761,1.31466667 59.9371428,1.416 C60.0278095,1.51733333 60.0731428,1.65333333 60.0731428,1.824 L60.0731428,2.816 C60.0731428,2.98666667 60.0278095,3.12266667 59.9371428,3.224 C59.8464761,3.32533333 59.7211428,3.376 59.5611428,3.376 L55.4651428,3.376 L55.4651428,4.96 L60.3771428,4.96 Z M48.0891428,8.512 C48.0891428,8.34133333 48.1344761,8.20533333 48.2251428,8.104 C48.3158095,8.00266667 48.4411428,7.952 48.6011428,7.952 L59.5451428,7.952 C59.7051428,7.952 59.8304761,8.00266667 59.9211428,8.104 C60.0118095,8.20533333 60.0571428,8.34133333 60.0571428,8.512 L60.0571428,13.584 C60.0571428,13.7546667 60.0118095,13.8906667 59.9211428,13.992 C59.8304761,14.0933333 59.7051428,14.144 59.5451428,14.144 L48.6011428,14.144 C48.4411428,14.144 48.3158095,14.0933333 48.2251428,13.992 C48.1344761,13.8906667 48.0891428,13.7546667 48.0891428,13.584 L48.0891428,8.512 Z M57.3371428,12.032 L57.3371428,10.064 L50.8091428,10.064 L50.8091428,12.032 L57.3371428,12.032 Z" id="形状"></path>
                </g>
            </g>
        </g>
    </g>
</svg>