<?xml version="1.0" encoding="UTF-8"?>
<svg width="54px" height="54px" viewBox="0 0 54 54" version="1.1" xmlns="http://www.w3.org/2000/svg" xmlns:xlink="http://www.w3.org/1999/xlink">
    <title>Icon_ruhu</title>
    <g id="页面-1" stroke="none" stroke-width="1" fill="none" fill-rule="evenodd">
        <g id="首页-内容修改6/241" transform="translate(-1052.000000, -921.000000)">
            <g id="Icon_ruhu" transform="translate(1052.000000, 921.000000)">
                <path d="M32,2.88675135 L45.3826859,10.6132487 C48.4766967,12.3995766 50.3826859,15.7008468 50.3826859,19.2735027 L50.3826859,34.7264973 C50.3826859,38.2991532 48.4766967,41.6004234 45.3826859,43.3867513 L32,51.1132487 C28.9059892,52.8995766 25.0940108,52.8995766 22,51.1132487 L8.6173141,43.3867513 C5.52330333,41.6004234 3.6173141,38.2991532 3.6173141,34.7264973 L3.6173141,19.2735027 C3.6173141,15.7008468 5.52330333,12.3995766 8.6173141,10.6132487 L22,2.88675135 C25.0940108,1.1004234 28.9059892,1.1004234 32,2.88675135 Z" id="Polygon" fill="#D6EDFF"></path>
                <g id="巡检" transform="translate(11.000000, 11.000000)" fill="#FFFFFF" fill-rule="nonzero">
                    <path d="M12.0756833,19.2869955 C12.1280075,19.3729447 12.1977732,19.441704 12.232656,19.4760837 C13.6105272,21.1091181 14.9883984,22.2092676 15.058164,22.2436472 L16.0174414,23 L16.9767188,22.2436472 C17.029043,22.1920777 18.4243556,21.0919283 19.7847854,19.4588939 C19.8371096,19.4073244 19.8894339,19.338565 19.9417581,19.2526158 C21.8951957,16.7428999 24.3369928,13.0986547 24.8951178,9.93572496 C24.9997663,9.21375187 24.9997663,8.78400598 24.9997663,8.73243647 C25.0172077,6.377429 24.0579303,4.15994021 22.3137895,2.49252616 C20.621973,0.89387145 18.3720314,0 16,0 C13.6279686,0 11.3954684,0.876681614 9.70365188,2.49252616 C7.94206972,4.17713004 6.98279231,6.41180867 7.00023371,8.78400598 C7.00023371,8.81838565 7.00023371,9.26532138 7.10488216,9.93572496 C7.69789002,13.3221226 10.4536324,17.2242152 12.0756833,19.2869955 Z M16.0174414,5.63826607 C18.267383,5.63826607 20.0812894,7.37443946 20.0812894,9.52316891 C20.0812894,11.6718984 18.2499416,13.4080717 16.0174414,13.4080717 C13.7674998,13.4080717 11.9535934,11.6718984 11.9535934,9.52316891 C11.9535934,7.37443946 13.7674998,5.63826607 16.0174414,5.63826607 Z" id="形状"></path>
                    <path d="M28.5515985,24.3930601 L3.44826069,24.3930601 C2.74136725,24.3930601 2.18964554,23.8835163 2.18964554,23.3036906 C2.18964554,22.7238649 2.72412595,22.2143211 3.44826069,22.2143211 L7.37927789,22.2143211 C7.98272351,22.2143211 8.48272131,21.7223478 8.48272131,21.1073812 C8.48272131,20.4924145 7.98272351,19.9828708 7.37927789,20.0004412 L3.44826069,20.0004412 C1.55171731,20.0004412 0,21.4587907 0,23.3036906 C0,25.1485905 1.56895862,26.6069399 3.44826069,26.6069399 L28.5515985,26.6069399 C29.258492,26.6069399 29.8102137,27.1164837 29.8102137,27.6963094 C29.8102137,28.2761351 29.2757333,28.7856789 28.5515985,28.7856789 L6.58617793,28.7856789 C5.9827323,28.7856789 5.4827345,29.2776522 5.4827345,29.8926188 C5.4827345,30.5075855 5.9827323,31.0171292 6.58617793,30.9995588 L28.5515985,30.9995588 C30.4481419,30.9995588 32,29.5412093 32,27.6963094 C32.0171005,25.8514095 30.4481419,24.3930601 28.5515985,24.3930601 Z" id="路径"></path>
                </g>
            </g>
        </g>
    </g>
</svg>