<?xml version="1.0" encoding="UTF-8"?>
<svg width="44px" height="44px" viewBox="0 0 44 44" version="1.1" xmlns="http://www.w3.org/2000/svg" xmlns:xlink="http://www.w3.org/1999/xlink">
    <title>Icon_ruhu</title>
    <g id="页面-1" stroke="none" stroke-width="1" fill="none" fill-rule="evenodd">
        <g id="首页面改版四" transform="translate(-1034.000000, -956.000000)">
            <g id="Icon_ruhu" transform="translate(1034.000000, 956.000000)">
                <path d="M27,2.88675135 L36.0525589,8.11324865 C39.1465697,9.8995766 41.0525589,13.2008468 41.0525589,16.7735027 L41.0525589,27.2264973 C41.0525589,30.7991532 39.1465697,34.1004234 36.0525589,35.8867513 L27,41.1132487 C23.9059892,42.8995766 20.0940108,42.8995766 17,41.1132487 L7.94744112,35.8867513 C4.85343035,34.1004234 2.94744112,30.7991532 2.94744112,27.2264973 L2.94744112,16.7735027 C2.94744112,13.2008468 4.85343035,9.8995766 7.94744112,8.11324865 L17,2.88675135 C20.0940108,1.1004234 23.9059892,1.1004234 27,2.88675135 Z" id="Polygon" fill-opacity="0.2" fill="#323FFF"></path>
                <g id="Group-6" transform="translate(10.000000, 13.000000)" fill="#2A85FF">
                    <path d="M9,8 C6.791,8 5,6.209 5,4 C5,1.791 6.791,0 9,0 C11.209,0 13,1.791 13,4 C13,6.209 11.209,8 9,8 M18,11 C16.343,11 15,9.657 15,8 C15,6.343 16.343,5 18,5 C19.657,5 21,6.343 21,8 C21,9.657 19.657,11 18,11" id="Fill-1"></path>
                    <g id="Group-5" transform="translate(0.000000, 10.000000)">
                        <path d="M0.0005,7.1992 C0.3885,2.4272 4.2615,0.0002 8.9835,0.0002 C13.7715,0.0002 17.7055,2.2932 17.9985,7.2002 C18.0095,7.3952 17.9985,8.0002 17.2465,8.0002 L0.7275,8.0002 C0.4765,8.0002 -0.0205,7.4592 0.0005,7.1992 M17.6015,2.0002 C21.0075,2.0382 23.7895,3.7602 23.9985,7.4002 C24.0065,7.5462 23.9985,8.0002 23.4565,8.0002 L19.6005,8.0002 C19.6005,5.7492 18.8565,3.6722 17.6015,2.0002" id="Fill-3"></path>
                    </g>
                </g>
            </g>
        </g>
    </g>
</svg>