<?xml version="1.0" encoding="UTF-8"?>
<svg width="28px" height="28px" viewBox="0 0 28 28" version="1.1" xmlns="http://www.w3.org/2000/svg" xmlns:xlink="http://www.w3.org/1999/xlink">
    <title>设置</title>
    <g id="页面-1" stroke="none" stroke-width="1" fill="none" fill-rule="evenodd">
        <g id="首页面" transform="translate(-82.000000, -129.000000)" fill="#FFFFFF" fill-rule="nonzero">
            <g id="设置" transform="translate(82.000000, 129.000000)">
                <path d="M13.9937,26.6 C20.9491971,26.5896014 26.5861246,20.955491 26.6,14 C26.6,7.05739996 20.9489,1.4 14.0063,1.4 C7.05080294,1.41039855 1.41387544,7.044509 1.4,14 C1.4,20.9426 7.05109995,26.6 13.9937,26.6 L13.9937,26.6 Z M13.9953333,28 C6.26730274,27.9922789 0.00514469826,21.7280327 0,14 C0,6.28133337 6.28133328,0 14.0046667,0 C21.7326973,0.00772114324 27.9948553,6.27196727 28,14 C28,21.7186666 21.7186667,28 13.9953333,28 Z" id="形状"></path>
                <path d="M14.0547389,15.6888889 C14.9563774,15.6875409 15.6870902,14.9571933 15.6888889,14.0555556 C15.6888889,13.1555889 14.9563389,12.4222222 14.0563722,12.4222222 C13.1547337,12.4235702 12.4240209,13.1539178 12.4222222,14.0555556 C12.4222222,14.9555222 13.1547722,15.6888889 14.0547389,15.6888889 L14.0547389,15.6888889 Z M14.0546481,16.7777778 C12.5519755,16.7762764 11.3343337,15.5582286 11.3333333,14.0555556 C11.3333333,12.5547037 12.5547037,11.3333333 14.056463,11.3333333 C15.5591356,11.3348347 16.7767774,12.5528825 16.7777778,14.0555556 C16.7777778,15.5564074 15.5564074,16.7777778 14.0546481,16.7777778 Z" id="形状"></path>
                <path d="M17.6932459,18.7875665 C17.5494256,18.0029693 17.5565153,17.0747287 17.905938,16.4272456 C18.2604248,15.7634394 19.0180137,15.293334 19.7421796,15.0310761 C19.7757337,14.7879168 19.8020803,14.5436722 19.8211795,14.2987128 C19.829282,14.1855393 19.8333333,14.0843361 19.8333333,13.9994559 C19.8333333,13.9134876 19.829282,13.8122843 19.8211795,13.6969344 C19.8043933,13.4528167 19.7780366,13.2095679 19.7421796,12.9678357 C19.0088983,12.6979604 18.2624504,12.2354724 17.9069508,11.5738426 C17.558541,10.9263595 17.552464,10.0100892 17.6932459,9.21787456 L16.0119657,8.16666667 C15.4447869,8.69553524 14.7003646,9.15040576 13.9994936,9.15040574 C13.3046995,9.15040574 12.5683798,8.70315269 11.9941112,8.17101948 L10.3067541,9.21243354 C10.4505744,9.99703075 10.4434847,10.9252713 10.094062,11.5727544 C9.7395752,12.2365606 8.98198629,12.706666 8.25782041,12.9689239 C8.22426629,13.2120832 8.19791966,13.4563279 8.17882051,13.7012872 C8.17146427,13.8008529 8.16741042,13.9006684 8.16666667,14.0005441 C8.16666667,14.0865124 8.17071795,14.1877157 8.17882051,14.3030656 C8.1956067,14.5471833 8.2219634,14.7904321 8.25782041,15.0321643 C8.99110167,15.3020396 9.73754956,15.7645276 10.0930492,16.4261574 C10.441459,17.0736405 10.447536,17.9899108 10.3067541,18.7821254 L11.9880343,19.8333333 C12.5552131,19.3044648 13.2996354,18.8495942 14.0005064,18.8495943 C14.6973262,18.8495943 15.4366843,19.3001119 16.0069016,19.8289805 L17.6922331,18.7864783 L17.6932459,18.7875665 Z M16.0371357,20.9988378 C15.8317252,20.9998526 15.633101,20.9213152 15.478917,20.7781143 C15.2614292,20.567225 14.5250777,19.9629671 14.0010357,19.9629671 C13.472851,19.9629671 12.7375351,20.567225 12.5231543,20.7781143 C12.2845689,21.0016281 11.9459994,21.061871 11.6511318,20.9332764 L11.6086699,20.9114225 L9.48557478,19.6133061 C9.23548316,19.4061077 9.11698309,19.0681997 9.17902056,18.7391536 C9.24323124,18.437571 9.37061694,17.4617982 9.10859595,16.9831997 C8.8476106,16.5046012 7.98180205,16.1341791 7.70010357,16.039115 C7.40680761,15.9333471 7.18876767,15.6712675 7.1273857,15.3507199 C7.12220743,15.3179392 7,14.5585192 7,14.001247 C7,13.4439748 7.12220743,12.6867402 7.1273857,12.6528667 C7.18895837,12.3320569 7.40744199,12.0699181 7.70113923,11.9644716 C7.98180205,11.8715929 8.8476106,11.5011708 9.10963161,11.0192942 C9.37268828,10.5385104 9.24633822,9.5660157 9.17902056,9.2633404 C9.11522552,8.93414994 9.23405983,8.59528883 9.48557478,8.3891879 L9.52492972,8.36077792 L11.6480248,7.06703222 C11.9431822,6.93797667 12.2822846,6.99824279 12.521083,7.22219429 C12.7385708,7.43308359 13.4749223,8.0373415 13.9989643,8.0373415 C14.527149,8.0373415 15.2624649,7.43308357 15.4768457,7.22219429 C15.7154311,6.99868045 16.0540006,6.93843757 16.3488682,7.06703222 L16.3913301,7.08888604 L18.5144252,8.38700251 C18.7645168,8.59420086 18.8830169,8.93210889 18.8209794,9.26115501 C18.7567688,9.56273762 18.6293831,10.5385104 18.891404,11.0171089 C19.1523894,11.4957073 20.018198,11.8661295 20.2998964,11.9611936 C20.5931924,12.0669615 20.8112323,12.329041 20.8726143,12.6495887 C20.8777926,12.6823694 21,13.4417894 21,13.9990616 C21,14.5563338 20.8777926,15.3135684 20.8726143,15.3474418 C20.8110416,15.6682517 20.592558,15.9303905 20.2988608,16.0358369 C20.018198,16.1287157 19.1523894,16.4991378 18.8903684,16.9810143 C18.6273117,17.4617982 18.7536618,18.4342929 18.8209794,18.7369682 C18.8842682,19.0661176 18.7655305,19.4047032 18.5144252,19.6111207 L18.4750703,19.6395307 L16.3519752,20.9332764 C16.2519315,20.9760425 16.1450776,20.9982935 16.0371357,20.9988378 L16.0371357,20.9988378 Z" id="形状"></path>
            </g>
        </g>
    </g>
</svg>