<?xml version="1.0" encoding="UTF-8"?>
<svg width="56px" height="56px" viewBox="0 0 56 56" version="1.1" xmlns="http://www.w3.org/2000/svg" xmlns:xlink="http://www.w3.org/1999/xlink">
    <title>采集上报</title>
    <defs>
        <linearGradient x1="-26.9423958%" y1="10.4938272%" x2="100%" y2="89.5061728%" id="linearGradient-1">
            <stop stop-color="#C4DEFF" offset="0%"></stop>
            <stop stop-color="#569EFF" offset="100%"></stop>
        </linearGradient>
    </defs>
    <g id="z" stroke="none" stroke-width="1" fill="none" fill-rule="evenodd">
        <g id="7/20日首页面改版" transform="translate(-333.000000, -441.000000)">
            <g id="编组-14" transform="translate(333.000000, 436.000000)">
                <g id="采集上报" transform="translate(0.000000, 5.000000)">
                    <path d="M33,2.88675135 L47.2487113,11.1132487 C50.3427221,12.8995766 52.2487113,16.2008468 52.2487113,19.7735027 L52.2487113,36.2264973 C52.2487113,39.7991532 50.3427221,43.1004234 47.2487113,44.8867513 L33,53.1132487 C29.9059892,54.8995766 26.0940108,54.8995766 23,53.1132487 L8.75128869,44.8867513 C5.65727793,43.1004234 3.75128869,39.7991532 3.75128869,36.2264973 L3.75128869,19.7735027 C3.75128869,16.2008468 5.65727793,12.8995766 8.75128869,11.1132487 L23,2.88675135 C26.0940108,1.1004234 29.9059892,1.1004234 33,2.88675135 Z" id="Polygon" fill="#D6EDFF"></path>
                    <g id="Group-5" transform="translate(13.000000, 15.000000)">
                        <path d="M19.7557388,19.8288674 L19.7557388,14.1287156 C19.7557388,11.527462 17.6048995,9.41914371 14.9511833,9.41914371 L4,9.41914371 L4,3.9654595 C4,1.77550859 5.8113174,0 8.04543567,0 L26.9273385,0 C29.1614568,0 30.9727742,1.77550859 30.9727742,3.9654595 L30.9727742,15.8634079 L31,23.2119098 C31,23.6467603 30.6428614,23.9984083 30.2008423,24 C29.9878403,24.001548 29.782846,23.9183456 29.6323032,23.770779 L25.6124918,19.8288674 L19.7557388,19.8288674 Z" id="Fill-1" fill="url(#linearGradient-1)"></path>
                        <path d="M15.8333333,11 C17.5829167,11 19,12.3879059 19,14.0980042 L19,21.8430146 C19,23.5531129 17.5829167,24.9410188 15.8333333,24.9410188 L3.35033333,24.9410188 L1.38066667,26.7843313 C1.064,27.0801907 0.563666667,27.0708967 0.26125,26.7610963 C0.120333333,26.6170391 0.0411666667,26.4249628 0.0411666667,26.2251416 L0.0411666667,22.3448913 C0.01425,22.1822461 0,22.0134049 0,21.8430146 L0,14.0980042 C0,12.3879059 1.41708333,11 3.16666667,11 L15.8333333,11 Z M15.6222222,18.3846154 L12.2444444,18.3846154 C11.7783111,18.3846154 11.4,18.6603077 11.4,19 C11.4,19.3396923 11.7783111,19.6153846 12.2444444,19.6153846 L15.6222222,19.6153846 C16.0883556,19.6153846 16.4666667,19.3396923 16.4666667,19 C16.4666667,18.6603077 16.0883556,18.3846154 15.6222222,18.3846154 Z M15.6222222,15.9230769 L7.17777778,15.9230769 C6.71164444,15.9230769 6.33333333,16.1987692 6.33333333,16.5384615 C6.33333333,16.8781538 6.71164444,17.1538462 7.17777778,17.1538462 L15.6222222,17.1538462 C16.0883556,17.1538462 16.4666667,16.8781538 16.4666667,16.5384615 C16.4666667,16.1987692 16.0883556,15.9230769 15.6222222,15.9230769 Z" id="形状结合" fill="#FFC700"></path>
                    </g>
                </g>
            </g>
        </g>
    </g>
</svg>