<?xml version="1.0" encoding="UTF-8"?>
<svg width="38px" height="38px" viewBox="0 0 38 38" version="1.1" xmlns="http://www.w3.org/2000/svg" xmlns:xlink="http://www.w3.org/1999/xlink">
    <title>可视化</title>
    <defs>
        <rect id="path-1" x="0" y="0" width="38" height="38"></rect>
        <linearGradient x1="50%" y1="0%" x2="50%" y2="100%" id="linearGradient-3">
            <stop stop-color="#BAC3FB" offset="0%"></stop>
            <stop stop-color="#7A8CFF" offset="100%"></stop>
        </linearGradient>
        <linearGradient x1="50%" y1="0%" x2="50%" y2="100%" id="linearGradient-4">
            <stop stop-color="#BAC3FB" offset="0%"></stop>
            <stop stop-color="#7A8CFF" offset="100%"></stop>
        </linearGradient>
    </defs>
    <g id="页面-1" stroke="none" stroke-width="1" fill="none" fill-rule="evenodd">
        <g id="首页面改版四" transform="translate(-227.000000, -568.000000)">
            <g id="可视化" transform="translate(227.000000, 568.000000)">
                <mask id="mask-2" fill="white">
                    <use xlink:href="#path-1"></use>
                </mask>
                <g id="蒙版"></g>
                <path d="M38,21.1642059 C38,18.6566163 35.7457627,16.3670779 31.9887006,14.7316934 C31.9887006,14.6226677 31.9887006,14.6226677 32.0960452,14.5136421 C33.1694915,10.4796936 32.740113,7.53600144 30.8079096,6.00964253 C28.2316384,3.93815545 23.7231638,5.24646308 19,8.84430906 C14.2768362,5.13743743 9.7683616,3.93815545 7.19209038,6.00964253 C5.259887,7.64502708 4.93785308,10.8067705 6.01129943,14.7316934 C2.3615819,16.3670779 0,18.5475906 0,21.1642059 C0,23.6717955 2.2542373,25.9613339 6.01129943,27.5967184 C4.93785312,31.5216413 5.259887,34.6833848 7.19209038,36.3187693 C8.05084745,36.9729231 9.01694912,37.3 10.1977401,37.3 C12.6666667,37.3 15.779661,35.8826667 19,33.4841027 C22.220339,35.9916923 25.3333333,37.3 27.8022599,37.3 C28.9830508,37.3 30.0564972,36.9729231 30.8079096,36.3187693 C32.740113,34.7924104 33.1694916,31.7396926 32.0960452,27.8147697 C32.0960452,27.705744 32.0960452,27.705744 31.9887006,27.5967184 C35.7457627,25.9613339 38,23.6717955 38,21.1642059 Z M27.6949152,6.5547707 C28.5536723,6.5547707 29.3050848,6.77282199 29.8418079,7.20892451 C31.2372881,8.29918085 31.4519774,10.8067705 30.5932203,14.1865652 C28.4463277,13.4233858 25.8700565,12.8782576 22.9717514,12.5511807 C22.0056497,11.5699499 21.039548,10.6977449 20.180791,9.82553976 C22.9717514,7.75405268 25.7627119,6.5547707 27.6949152,6.5547707 L27.6949152,6.5547707 Z M24.5819209,25.634257 C23.8305085,26.5064621 23.1864407,27.3786671 22.4350283,28.2508722 C21.3615819,28.3598979 20.180791,28.3598979 19.1073446,28.3598979 C17.9265537,28.3598979 16.8531073,28.3598979 15.779661,28.2508722 C15.0282486,27.4876928 14.2768362,26.6154877 13.6327684,25.634257 C12.4519774,24.1078981 11.4858757,22.6905648 10.6271186,21.1642059 C11.4858757,19.637847 12.559322,18.1114881 13.6327684,16.6941548 C14.3841808,15.8219497 15.1355932,14.9497447 15.779661,14.0775396 C16.8531073,13.9685139 18.0338983,13.9685139 19.1073446,13.9685139 C20.180791,13.9685139 21.3615819,13.9685139 22.4350283,14.0775396 C23.1864407,14.840719 23.9378531,15.7129241 24.5819209,16.6941548 C25.7627119,18.1114881 26.7288136,19.637847 27.5875706,21.1642059 C26.7288135,22.6905648 25.6553672,24.2169237 24.5819209,25.634257 Z M28.4463277,22.6905648 C29.1977401,23.9988724 29.7344633,25.4162057 30.1638418,26.6154877 C28.5536723,27.1606158 26.6214689,27.5967184 24.5819209,27.9237953 C25.0112994,27.4876928 25.3333333,27.0515902 25.6553672,26.506462 C26.7288135,25.3071801 27.5875706,23.9988724 28.4463277,22.6905648 L28.4463277,22.6905648 Z M20.7175141,29.8862567 C20.180791,30.4313849 19.5367232,30.9765131 19,31.5216413 C18.4632768,30.9765131 17.819209,30.5404106 17.2824859,29.8862567 L20.7175141,29.8862567 Z M13.4180791,27.9237953 C11.3785311,27.5967184 9.44632768,27.1606158 7.83615817,26.6154877 C8.26553669,25.3071801 8.90960449,23.9988724 9.55367232,22.6905648 C10.3050848,23.9988724 11.2711864,25.3071801 12.2372881,26.6154877 C12.6666667,27.0515902 12.9887006,27.4876928 13.4180791,27.9237953 Z M9.55367232,19.637847 C8.80225989,18.3295394 8.26553673,16.9122061 7.83615817,15.7129241 C9.44632768,15.1677959 11.3785311,14.7316934 13.4180791,14.4046165 C12.9887006,14.840719 12.6666667,15.2768216 12.3446328,15.8219498 C11.2711865,17.0212317 10.4124294,18.3295394 9.55367232,19.637847 L9.55367232,19.637847 Z M17.2824859,12.4421551 C17.819209,11.8970269 18.4632768,11.3518987 19,10.8067705 C19.5367232,11.3518987 20.180791,11.7880012 20.7175141,12.4421551 L17.2824859,12.4421551 L17.2824859,12.4421551 Z M25.7627119,15.7129241 C25.4406779,15.2768216 25.0112994,14.840719 24.6892656,14.2955908 C26.7288136,14.6226678 28.661017,15.0587703 30.2711864,15.6038985 C29.8418079,16.9122061 29.1977401,18.2205137 28.5536723,19.5288213 C27.5875706,18.3295394 26.7288136,17.0212317 25.7627119,15.7129241 L25.7627119,15.7129241 Z M8.15819209,7.20892451 C8.69491525,6.77282199 9.44632768,6.5547707 10.3050848,6.5547707 C12.3446328,6.5547707 15.0282486,7.75405268 17.819209,9.9345654 C16.8531073,10.6977449 15.8870057,11.6789756 15.0282486,12.6602063 C12.2372881,12.8782576 9.66101696,13.5324114 7.40677966,14.2955908 C6.44067795,11.0248218 6.65536722,8.40820654 8.15819209,7.20892451 Z M1.50282487,21.1642059 C1.50282487,19.3107701 3.43502825,17.5663599 6.44067795,16.2580523 C6.9774011,17.7844112 7.72881354,19.5288213 8.69491525,21.1642059 C7.72881354,22.908616 6.97740114,24.5440006 6.44067795,26.0703595 C3.43502821,24.7620519 1.50282487,23.0176417 1.50282487,21.1642059 Z M8.15819209,35.1194873 C6.65536722,33.9202053 6.54802258,31.30359 7.40677966,28.1418466 C9.55367232,28.905026 12.1299435,29.4501542 15.0282486,29.7772311 C15.9943503,30.7584619 16.960452,31.6306669 17.819209,32.502872 C13.740113,35.4465642 10.0903955,36.6458462 8.15819209,35.1194873 Z M30.5932203,28.1418466 C31.4519774,31.4126156 31.2372881,34.0292309 29.8418079,35.1194873 C27.9096045,36.6458462 24.1525424,35.4465642 20.180791,32.3938464 C21.1468927,31.6306669 22.1129943,30.6494362 22.9717514,29.6682055 C25.8700565,29.4501542 28.4463277,28.905026 30.5932203,28.1418466 Z M31.5593221,26.0703595 C31.0225989,24.434975 30.2711865,22.7995904 29.3050848,21.1642059 C30.2711865,19.5288213 31.0225989,17.7844112 31.5593221,16.2580523 C34.5649718,17.5663599 36.4971751,19.3107701 36.4971751,21.1642059 C36.4971751,23.0176417 34.5649717,24.7620519 31.5593221,26.0703595 Z" id="形状" fill="url(#linearGradient-3)" fill-rule="nonzero" mask="url(#mask-2)"></path>
                <path d="M19.95,16.4 C17.3488095,16.4 15.2,18.5488095 15.2,21.15 C15.2,23.7511905 17.3488095,25.9 19.95,25.9 C22.5511905,25.9 24.7,23.7511905 24.7,21.15 C24.7,18.5488095 22.5511905,16.4 19.95,16.4 Z" id="形状" fill="url(#linearGradient-4)" fill-rule="nonzero" mask="url(#mask-2)"></path>
            </g>
        </g>
    </g>
</svg>