<?xml version="1.0" encoding="utf-8"?>
<!-- Generator: Adobe Illustrator 25.0.1, SVG Export Plug-In . SVG Version: 6.00 Build 0)  -->
<svg version="1.1" id="图层_1" xmlns="http://www.w3.org/2000/svg" xmlns:xlink="http://www.w3.org/1999/xlink" x="0px" y="0px"
	 viewBox="0 0 68 68" style="enable-background:new 0 0 68 68;" xml:space="preserve">
<style type="text/css">
	.st0{filter:url(#filter-3);}
	.st1{fill-rule:evenodd;clip-rule:evenodd;}
	.st2{fill-rule:evenodd;clip-rule:evenodd;fill:url(#path-2_2_);}
	.st3{fill-rule:evenodd;clip-rule:evenodd;fill:#FFFFFF;}
	.st4{filter:url(#filter-5);}
	.st5{fill:none;stroke:#4FC5A0;}
	.st6{fill-rule:evenodd;clip-rule:evenodd;fill:url(#path-8_2_);}
	.st7{fill-rule:evenodd;clip-rule:evenodd;fill:url(#path-8_3_);}
	.st8{fill-rule:evenodd;clip-rule:evenodd;fill:url(#path-9_2_);}
	.st9{fill-rule:evenodd;clip-rule:evenodd;fill:url(#path-9_3_);}
	.st10{fill:url(#path-11_2_);}
</style>
<filter  filterUnits="objectBoundingBox" height="112.9%" id="filter-5" width="109.2%" x="-4.6%" y="-6.5%">
	<feGaussianBlur  in="SourceAlpha" result="shadowBlurInner1" stdDeviation="1.5"></feGaussianBlur>
	<feOffset  dx="0" dy="1" in="shadowBlurInner1" result="shadowOffsetInner1"></feOffset>
	<feComposite  in="shadowOffsetInner1" in2="SourceAlpha" k2="-1" k3="1" operator="arithmetic" result="shadowInnerInner1">
		</feComposite>
	
		<feColorMatrix  in="shadowInnerInner1" type="matrix" values="0 0 0 0 0.364705882   0 0 0 0 0.792156863   0 0 0 0 0.658823529  0 0 0 1 0">
		</feColorMatrix>
</filter>
<filter  filterUnits="objectBoundingBox" height="128.2%" id="filter-3" width="121.7%" x="-10.8%" y="-11.9%">
	<feOffset  dx="0" dy="1" in="SourceAlpha" result="shadowOffsetOuter1"></feOffset>
	<feGaussianBlur  in="shadowOffsetOuter1" result="shadowBlurOuter1" stdDeviation="2"></feGaussianBlur>
	
		<feColorMatrix  in="shadowBlurOuter1" type="matrix" values="0 0 0 0 0.403921569   0 0 0 0 0.807843137   0 0 0 0 0.678431373  0 0 0 1 0">
		</feColorMatrix>
</filter>
<g id="页面-1">
	<g id="首页面" transform="translate(-398.000000, -226.000000)">
		<g id="待签收" transform="translate(402.000000, 214.000000)">
			<g transform="translate(0.000000, 13.000000)">
				<g id="编组-12">
					<g id="形状结合">
						<g class="st0">
							<path id="path-2_2_" class="st1" d="M48.1,6.4l0,5.7c0,1.3,1,2.3,2.3,2.3l0,0h2c1.3,0,2.3-1,2.3-2.3l0,0l0-5.7h8.3
								C63.5,6.4,64,7,64,7.6v51.2H-4V7.6C-4,7-3.5,6.4-2.9,6.4h8.3l0,5.7c0,1.2,0.9,2.2,2.1,2.3l0.2,0h2c1.3,0,2.3-1,2.3-2.3l0,0
								l0-5.7H48.1z"/>
						</g>
						<g>
							
								<linearGradient id="path-2_2_" gradientUnits="userSpaceOnUse" x1="-262.6375" y1="445.1051" x2="-261.5592" y2="445.669" gradientTransform="matrix(60 0 0 -46.1718 15756.0713 20597.043)">
								<stop  offset="0" style="stop-color:#ABE8D4"/>
								<stop  offset="1" style="stop-color:#4FC5A0"/>
							</linearGradient>
							<path id="path-2_1_" class="st2" d="M48.1,6.4l0,5.7c0,1.3,1,2.3,2.3,2.3l0,0h2c1.3,0,2.3-1,2.3-2.3l0,0l0-5.7h8.3
								C63.5,6.4,64,7,64,7.6v51.2H-4V7.6C-4,7-3.5,6.4-2.9,6.4h8.3l0,5.7c0,1.2,0.9,2.2,2.1,2.3l0.2,0h2c1.3,0,2.3-1,2.3-2.3l0,0
								l0-5.7H48.1z"/>
						</g>
					</g>
					<g id="矩形">
						<g>
							<path id="path-4" class="st3" d="M7.7,18.5h44.7c1.3,0,2.3,1,2.3,2.3v11.5l0,0v19.1c0,1.3-1,2.3-2.3,2.3H7.7
								c-1.3,0-2.3-1-2.3-2.3V20.7C5.4,19.5,6.4,18.5,7.7,18.5z"/>
						</g>
						<g class="st4">
							<path id="path-4_2_" class="st1" d="M7.7,18.5h44.7c1.3,0,2.3,1,2.3,2.3v11.5l0,0v19.1c0,1.3-1,2.3-2.3,2.3H7.7
								c-1.3,0-2.3-1-2.3-2.3V20.7C5.4,19.5,6.4,18.5,7.7,18.5z"/>
						</g>
						<path class="st5" d="M52.4,19c0.5,0,0.9,0.2,1.2,0.5c0.3,0.3,0.5,0.7,0.5,1.2l0,0v30.6c0,0.5-0.2,0.9-0.5,1.2
							c-0.3,0.3-0.7,0.5-1.2,0.5l0,0H7.7c-0.5,0-0.9-0.2-1.2-0.5C6.1,52.2,6,51.8,6,51.3l0,0V20.7c0-0.5,0.2-0.9,0.5-1.2
							C6.8,19.2,7.2,19,7.7,19l0,0H52.4z"/>
					</g>
					<g id="矩形_1_">
						<g>
							
								<linearGradient id="path-8_2_" gradientUnits="userSpaceOnUse" x1="-174.8663" y1="407.4402" x2="-174.7407" y2="408.3924" gradientTransform="matrix(2.8962 0 0 -8.4847 557.6259 3469.0298)">
								<stop  offset="0" style="stop-color:#FCD08D"/>
								<stop  offset="1" style="stop-color:#F8AF54"/>
							</linearGradient>
							<path id="path-8" class="st6" d="M50.9,3.2h1c0.6,0,1.1,0.5,1.1,1.1v7.4c0,0.6-0.5,1.1-1.1,1.1h-1c-0.6,0-1.1-0.5-1.1-1.1
								V4.4C49.7,3.7,50.2,3.2,50.9,3.2z"/>
						</g>
						<g>
							
								<linearGradient id="path-8_3_" gradientUnits="userSpaceOnUse" x1="-174.8663" y1="407.4402" x2="-174.7407" y2="408.3924" gradientTransform="matrix(2.8962 0 0 -8.4847 557.6259 3469.0298)">
								<stop  offset="0" style="stop-color:#ABE8D4"/>
								<stop  offset="1" style="stop-color:#4FC5A0"/>
							</linearGradient>
							<path id="path-8_1_" class="st7" d="M50.9,3.2h1c0.6,0,1.1,0.5,1.1,1.1v7.4c0,0.6-0.5,1.1-1.1,1.1h-1c-0.6,0-1.1-0.5-1.1-1.1
								V4.4C49.7,3.7,50.2,3.2,50.9,3.2z"/>
						</g>
					</g>
					<g id="矩形_2_">
						<g>
							
								<linearGradient id="path-9_2_" gradientUnits="userSpaceOnUse" x1="-176.6064" y1="407.4402" x2="-176.4808" y2="408.3924" gradientTransform="matrix(2.8962 0 0 -8.4847 519.9756 3469.0298)">
								<stop  offset="0" style="stop-color:#FCD08D"/>
								<stop  offset="1" style="stop-color:#F8AF54"/>
							</linearGradient>
							<path id="path-9" class="st8" d="M8.2,3.2h1c0.6,0,1.1,0.5,1.1,1.1v7.4c0,0.6-0.5,1.1-1.1,1.1h-1c-0.6,0-1.1-0.5-1.1-1.1V4.4
								C7,3.7,7.5,3.2,8.2,3.2z"/>
						</g>
						<g>
							
								<linearGradient id="path-9_3_" gradientUnits="userSpaceOnUse" x1="-176.6064" y1="407.4402" x2="-176.4808" y2="408.3924" gradientTransform="matrix(2.8962 0 0 -8.4847 519.9756 3469.0298)">
								<stop  offset="0" style="stop-color:#ABE8D4"/>
								<stop  offset="1" style="stop-color:#4FC5A0"/>
							</linearGradient>
							<path id="path-9_1_" class="st9" d="M8.2,3.2h1c0.6,0,1.1,0.5,1.1,1.1v7.4c0,0.6-0.5,1.1-1.1,1.1h-1c-0.6,0-1.1-0.5-1.1-1.1
								V4.4C7,3.7,7.5,3.2,8.2,3.2z"/>
						</g>
					</g>
				</g>
				<g id="对勾" transform="translate(16.000000, 17.000000)">
					<g id="路径">
						<g>
							<path id="path-11" d="M32.4,5.5C21.7,11.9,14,19.9,10.5,24l-8.5-6.5l-3.8,3L12.9,35c2.5-6.3,10.6-18.7,20.4-27.4L32.4,5.5"/>
						</g>
						<g>
							
								<linearGradient id="path-11_2_" gradientUnits="userSpaceOnUse" x1="-274.503" y1="421.3825" x2="-273.4247" y2="422.0524" gradientTransform="matrix(31 0 0 -26 8509.5273 10986.0586)">
								<stop  offset="0" style="stop-color:#ABE8D4"/>
								<stop  offset="1" style="stop-color:#4FC5A0"/>
							</linearGradient>
							<path id="path-11_1_" class="st10" d="M32.4,5.5C21.7,11.9,14,19.9,10.5,24l-8.5-6.5l-3.8,3L12.9,35
								c2.5-6.3,10.6-18.7,20.4-27.4L32.4,5.5"/>
						</g>
					</g>
				</g>
			</g>
		</g>
	</g>
</g>
</svg>
