<?xml version="1.0" encoding="UTF-8"?>
<svg width="50px" height="54px" viewBox="0 0 50 54" version="1.1" xmlns="http://www.w3.org/2000/svg" xmlns:xlink="http://www.w3.org/1999/xlink">
    <title>已办结</title>
    <defs>
        <linearGradient x1="20.5732289%" y1="7.74013866%" x2="82.6194859%" y2="86.3485856%" id="linearGradient-1">
            <stop stop-color="#82B3F9" offset="0%"></stop>
            <stop stop-color="#509BFF" offset="100%"></stop>
        </linearGradient>
        <linearGradient x1="48.6169085%" y1="7.74013866%" x2="51.5331526%" y2="86.3485856%" id="linearGradient-2">
            <stop stop-color="#82B3F9" offset="0%"></stop>
            <stop stop-color="#509BFF" offset="100%"></stop>
        </linearGradient>
    </defs>
    <g id="页面-1" stroke="none" stroke-width="1" fill="none" fill-rule="evenodd">
        <g id="已办结" transform="translate(0.751289, 0.547005)" fill-rule="nonzero">
            <path d="M29.2487113,1.33974596 L43.4974226,9.56624331 C46.5914334,11.3525712 48.4974226,14.6538414 48.4974226,18.2264973 L48.4974226,34.6794919 C48.4974226,38.2521478 46.5914334,41.553418 43.4974226,43.3397459 L29.2487113,51.5662433 C26.1547005,53.3525712 22.3427221,53.3525712 19.2487113,51.5662433 L5,43.3397459 C1.90598924,41.553418 0,38.2521478 0,34.6794919 L0,18.2264973 C0,14.6538414 1.90598924,11.3525712 5,9.56624331 L19.2487113,1.33974596 C22.3427221,-0.446581987 26.1547005,-0.446581987 29.2487113,1.33974596 Z" id="Polygon" fill="#D6EDFF"></path>
            <g id="编组-40" transform="translate(9.248711, 9.452995)">
                <g id="已办结" transform="translate(-0.000000, 0.000000)">
                    <g id="形状结合" transform="translate(4.189189, 0.000000)">
                        <g id="path-2-link" fill="#FFFFFF">
                            <path d="M11.7205907,2.75291575 C13.9067159,-1.79057421 18.26942,-0.25800105 17.8589249,4.06385525 C17.6035587,6.73524815 16.3505939,9.15671374 14.9401135,11.2551601 C14.7009612,11.6102178 14.6803136,12.0668637 14.886469,12.4415735 C15.0926244,12.8162832 15.4917323,13.0475298 15.9233926,13.0423761 L15.9233926,13.0423761 L24.2812644,13.0423761 C25.0942944,13.0368148 25.8597753,13.4203321 26.3356177,14.0716378 C26.8114601,14.7229435 26.9388169,15.5614909 26.6774104,16.3220827 L26.6774104,16.3220827 L24.1917611,23.438728 C23.1358372,22.4142324 21.6956615,21.7835489 20.1081081,21.7835489 C16.8688981,21.7835489 14.2432432,24.4091755 14.2432432,27.6483506 C14.2432432,28.8942534 14.631695,30.0493849 15.2941004,30.9992482 L2.75890915,30.9997461 C1.24710309,31.011053 0.01194772,29.8098005 2.66453526e-15,28.316236 L2.66453526e-15,28.316236 L2.66453526e-15,15.3129422 C0.00509437,14.0685651 0.8755481,12.9909414 2.10259425,12.7099257 C5.54884409,11.8988408 9.15499611,9.64949495 10.2265793,6.60085327 C10.7754972,5.03998646 11.3196419,3.58757867 11.7205907,2.75291575 Z" id="path-2"></path>
                        </g>
                        <g id="path-2-link" fill="url(#linearGradient-1)">
                            <path d="M11.7205907,2.75291575 C13.9067159,-1.79057421 18.26942,-0.25800105 17.8589249,4.06385525 C17.6035587,6.73524815 16.3505939,9.15671374 14.9401135,11.2551601 C14.7009612,11.6102178 14.6803136,12.0668637 14.886469,12.4415735 C15.0926244,12.8162832 15.4917323,13.0475298 15.9233926,13.0423761 L15.9233926,13.0423761 L24.2812644,13.0423761 C25.0942944,13.0368148 25.8597753,13.4203321 26.3356177,14.0716378 C26.8114601,14.7229435 26.9388169,15.5614909 26.6774104,16.3220827 L26.6774104,16.3220827 L24.1917611,23.438728 C23.1358372,22.4142324 21.6956615,21.7835489 20.1081081,21.7835489 C16.8688981,21.7835489 14.2432432,24.4091755 14.2432432,27.6483506 C14.2432432,28.8942534 14.631695,30.0493849 15.2941004,30.9992482 L2.75890915,30.9997461 C1.24710309,31.011053 0.01194772,29.8098005 2.66453526e-15,28.316236 L2.66453526e-15,28.316236 L2.66453526e-15,15.3129422 C0.00509437,14.0685651 0.8755481,12.9909414 2.10259425,12.7099257 C5.54884409,11.8988408 9.15499611,9.64949495 10.2265793,6.60085327 C10.7754972,5.03998646 11.3196419,3.58757867 11.7205907,2.75291575 Z" id="path-2"></path>
                        </g>
                    </g>
                    <g id="圆角矩形_5" transform="translate(0.000000, 15.080919)">
                        <g id="path-4-link" transform="translate(0.000000, 0.000000)" fill="#FFFFFF">
                            <rect id="path-4" x="0" y="1.77635684e-15" width="2.51351351" height="13.4052609" rx="1.25675675"></rect>
                        </g>
                        <g id="path-4-link" transform="translate(0.000000, 0.000000)" fill="url(#linearGradient-2)">
                            <rect id="path-4" x="0" y="1.77635684e-15" width="2.51351351" height="13.4052609" rx="1.25675675"></rect>
                        </g>
                    </g>
                </g>
                <path d="M25,23 C27.7615384,23 30,25.2384616 30,28 C30,30.7615384 27.7615384,33 25,33 C22.2384616,33 20,30.7615384 20,28 C20,25.2384616 22.2384616,23 25,23 Z M28.2032025,25.8865807 C27.8858943,25.6042755 27.399355,25.6331214 27.1174315,25.9504263 L27.1174315,25.9504263 L24.5255042,28.8661699 L23.1728096,27.7842563 C22.8412706,27.5184894 22.3566545,27.5723351 22.091654,27.9042553 C21.826269,28.2361754 21.8801152,28.7204019 22.2116542,28.9853996 L22.2116542,28.9853996 L24.1347343,30.5238476 C24.2766576,30.6369236 24.4462733,30.6923077 24.6151197,30.6923077 C24.8278124,30.6923077 25.0389666,30.6046161 25.1905053,30.434233 L25.1905053,30.434233 L28.2674334,26.972725 C28.5497416,26.6550355 28.5205107,26.1688859 28.2032025,25.8865807 Z" id="形状结合" fill="#FFC600"></path>
            </g>
        </g>
    </g>
</svg>