<?xml version="1.0" encoding="UTF-8"?>
<svg width="44px" height="44px" viewBox="0 0 44 44" version="1.1" xmlns="http://www.w3.org/2000/svg" xmlns:xlink="http://www.w3.org/1999/xlink">
    <title>Icon_xuncha</title>
    <g id="页面-1" stroke="none" stroke-width="1" fill="none" fill-rule="evenodd">
        <g id="首页面改版四" transform="translate(-1032.000000, -735.000000)" fill="#FEC500">
            <g id="编组-22" transform="translate(1032.000000, 733.000000)">
                <g id="Icon_xuncha" transform="translate(0.000000, 2.000000)">
                    <path d="M27,2.88675135 L36.0525589,8.11324865 C39.1465697,9.8995766 41.0525589,13.2008468 41.0525589,16.7735027 L41.0525589,27.2264973 C41.0525589,30.7991532 39.1465697,34.1004234 36.0525589,35.8867513 L27,41.1132487 C23.9059892,42.8995766 20.0940108,42.8995766 17,41.1132487 L7.94744112,35.8867513 C4.85343035,34.1004234 2.94744112,30.7991532 2.94744112,27.2264973 L2.94744112,16.7735027 C2.94744112,13.2008468 4.85343035,9.8995766 7.94744112,8.11324865 L17,2.88675135 C20.0940108,1.1004234 23.9059892,1.1004234 27,2.88675135 Z" id="Polygon" fill-opacity="0.2"></path>
                    <g id="Group-9" transform="translate(14.000000, 11.000000)">
                        <path d="M4,2 L4,2.5 C4,3.329 4.672,4 5.5,4 L10.5,4 C11.328,4 12,3.329 12,2.5 L12,2 L14,2 C15.104,2 16,2.896 16,4 L16,20 C16,21.104 15.104,22 14,22 L2,22 C0.896,22 0,21.104 0,20 L0,4 C0,2.896 0.896,2 2,2 L4,2 Z M11,13 L4,13 C3.447,13 3,13.448 3,14 C3,14.552 3.447,15 4,15 L4,15 L11,15 C11.553,15 12,14.552 12,14 C12,13.448 11.553,13 11,13 L11,13 Z M7,9 L4,9 C3.447,9 3,9.448 3,10 C3,10.552 3.447,11 4,11 L4,11 L7,11 C7.553,11 8,10.552 8,10 C8,9.448 7.553,9 7,9 L7,9 Z" id="形状结合"></path>
                        <path d="M7,1 C7,0.448 7.447,0 8,0 C8.553,0 9,0.448 9,1 L10.5,1 C10.776,1 11,1.224 11,1.5 L11,2.5 C11,2.776 10.776,3 10.5,3 L5.5,3 C5.224,3 5,2.776 5,2.5 L5,1.5 C5,1.224 5.224,1 5.5,1 L7,1 Z" id="Fill-3"></path>
                    </g>
                </g>
            </g>
        </g>
    </g>
</svg>