<?xml version="1.0" encoding="UTF-8"?>
<svg width="54px" height="55px" viewBox="0 0 54 55" version="1.1" xmlns="http://www.w3.org/2000/svg" xmlns:xlink="http://www.w3.org/1999/xlink">
    <title>Icon_fuwur</title>
    <g id="页面-1" stroke="none" stroke-width="1" fill="none" fill-rule="evenodd">
        <g id="首页-内容修改6/241" transform="translate(-1050.000000, -592.000000)">
            <g id="Icon_fuwur" transform="translate(1050.000000, 592.333333)">
                <path d="M32,2.88675135 L45.3826859,10.6132487 C48.4766967,12.3995766 50.3826859,15.7008468 50.3826859,19.2735027 L50.3826859,34.7264973 C50.3826859,38.2991532 48.4766967,41.6004234 45.3826859,43.3867513 L32,51.1132487 C28.9059892,52.8995766 25.0940108,52.8995766 22,51.1132487 L8.6173141,43.3867513 C5.52330333,41.6004234 3.6173141,38.2991532 3.6173141,34.7264973 L3.6173141,19.2735027 C3.6173141,15.7008468 5.52330333,12.3995766 8.6173141,10.6132487 L22,2.88675135 C25.0940108,1.1004234 28.9059892,1.1004234 32,2.88675135 Z" id="Polygon" fill="#D8EDFF"></path>
                <path d="M24.9759661,28.6666667 C31.8917475,28.6666667 37.5740124,32.1061667 37.9972213,39.4666667 C38.0131096,39.7591667 37.9972213,40.6666667 36.9110334,40.6666667 L13.0510096,40.6666667 C12.6884655,40.6666667 11.9705993,39.8551667 12.0009317,39.4651667 C12.5613584,32.3071667 18.155515,28.6666667 24.9759661,28.6666667 Z M36.8901463,19.6666667 C36.9556607,19.6666667 37.0211752,19.7004505 37.0545071,19.7668919 L38.732597,23.0990991 C38.7590327,23.152027 38.8107546,23.1891892 38.8705222,23.1981982 L42.6278345,23.7331081 C42.7784028,23.7545045 42.8393198,23.9358108 42.730129,24.0405405 L40.0130026,26.634009 C39.9693263,26.6756757 39.9497869,26.7353604 39.9601313,26.7939189 L40.6014834,30.4560811 C40.6221722,30.5720721 40.5279233,30.6666667 40.4198819,30.6666667 C40.3911475,30.6666667 40.3624131,30.6599099 40.3336787,30.6452703 L36.9786483,28.9166667 C36.9522126,28.9031532 36.9223288,28.8963964 36.892445,28.8963964 C36.8625612,28.8963964 36.8338268,28.9031532 36.8062418,28.9166667 L33.4489126,30.6452703 C33.4201782,30.6599099 33.3914438,30.6666667 33.3627093,30.6666667 C33.2558173,30.6666667 33.1615684,30.5720721 33.1811078,30.4560811 L33.8236094,26.7939189 C33.8339538,26.7353604 33.8144144,26.6756757 33.7707381,26.634009 L31.0559104,24.0405405 C30.9467196,23.9358108 31.0064872,23.7545045 31.1570556,23.7331081 L34.9097703,23.1981982 C34.9695379,23.1891892 35.0212598,23.1531532 35.0476955,23.0990991 L36.7257854,19.7668919 C36.7591173,19.7004505 36.8246318,19.6666667 36.8901463,19.6666667 Z M25,13.6666667 C28.3135,13.6666667 31,16.3531667 31,19.6666667 C31,22.9801667 28.3135,25.6666667 25,25.6666667 C21.6865,25.6666667 19,22.9801667 19,19.6666667 C19,16.3531667 21.6865,13.6666667 25,13.6666667 Z" id="形状结合" fill="#FFFFFF"></path>
            </g>
        </g>
    </g>
</svg>