<?xml version="1.0" encoding="UTF-8"?>
<svg width="24px" height="24px" viewBox="0 0 24 24" version="1.1" xmlns="http://www.w3.org/2000/svg" xmlns:xlink="http://www.w3.org/1999/xlink">
    <title>空房</title>
    <g id="页面-1" stroke="none" stroke-width="1" fill="none" fill-rule="evenodd">
        <g id="一体化采集" transform="translate(-819.000000, -279.000000)" fill="#B1B1B1">
            <g id="空房" transform="translate(819.000000, 278.999986)">
                <path d="M12.0228705,1.4048243e-05 C12.2427941,-0.00100022115 12.4535176,0.0882473725 12.6057715,0.24694915 L15.7602946,3.46319117 C16.0870131,3.79651069 16.0870131,4.32996196 15.7602946,4.66328148 C15.6078772,4.82191918 15.3973868,4.91158289 15.1773936,4.91158289 C14.9574005,4.91158289 14.74691,4.82191918 14.5944926,4.66328148 L12.3743256,2.40539729 C12.2823748,2.30984324 12.1554809,2.25584801 12.0228705,2.25584801 C11.8902602,2.25584801 11.7633662,2.30984324 11.6714155,2.40539729 L1.89925159,12.3987207 C1.80504291,12.5005706 1.80504291,12.6577551 1.89925159,12.759605 C1.94715078,12.8071142 2.01180123,12.833898 2.07926513,12.8341821 L4.02512585,12.8341821 C4.48775614,12.841224 4.8585495,13.2192803 4.85661699,13.6819601 L4.85661699,21.7902846 C4.85386413,21.924556 4.90481039,22.0543739 4.9981516,22.1509338 C5.09149282,22.2474937 5.21950967,22.30281 5.35379726,22.304609 L18.709088,22.304609 C18.9897883,22.29993 19.2148793,22.0710239 19.2148403,21.7902846 L19.2148403,13.6819601 C19.2086369,13.2208726 19.5766914,12.8416998 20.0377594,12.8341821 L21.5721606,12.8341821 C21.6393043,12.8332826 21.7033128,12.8056244 21.7499834,12.7573445 C21.796654,12.7090645 21.8221271,12.6441556 21.8207507,12.5770199 C21.8206918,12.5103881 21.796306,12.4460706 21.7521741,12.3961491 L18.2719122,8.85502548 C18.1172259,8.69363562 18.0311833,8.47852904 18.0318941,8.25498033 L18.0318941,4.79014817 C18.0318941,4.33329541 18.4022465,3.96294307 18.8590993,3.96294307 C19.315952,3.96294307 19.6863044,4.33329541 19.6863044,4.79014817 L19.6863044,7.9026681 L23.6380303,11.9263995 C23.6833799,11.9771552 23.72358,12.0322867 23.7580393,12.0909833 C24.0313391,12.5522671 24.0756527,13.1141008 23.8780484,13.6125263 C23.6480163,14.0906415 23.2008737,14.4279148 22.6779581,14.5177373 C22.6326553,14.5255577 22.5867774,14.529572 22.5408049,14.5297382 L20.8692505,14.5297382 L20.8692505,23.1523871 C20.8717641,23.3752566 20.7855163,23.5899714 20.6295301,23.7491738 C20.4735439,23.9083763 20.2606337,23.9989876 20.0377594,24.0010224 L4.02512585,24.0010224 C3.80225148,23.9989876 3.58934134,23.9083763 3.4333551,23.7491738 C3.27736887,23.5899714 3.1911211,23.3752566 3.1936347,23.1523871 L3.1936347,14.5331671 L1.47064791,14.5331671 C1.38605584,14.5335844 1.30200399,14.5196724 1.22205777,14.4920211 C0.755335985,14.2937478 0.387802743,13.9163313 0.201981009,13.4445137 C-0.0926873996,12.8835713 -0.0632244064,12.2075592 0.279129672,11.6743805 C0.304429312,11.640122 0.333150969,11.6085282 0.364850408,11.5800877 L11.4313975,0.248663565 C11.5863464,0.0885220371 11.8000419,-0.00129202968 12.0228705,1.4048243e-05 Z M16.152,15.1840654 L16.152,16.2640654 L12.564,16.2640654 L12.564,18.7600654 L17.16,18.7600654 L17.16,19.8520654 L6.852,19.8520654 L6.852,18.7600654 L11.412,18.7600654 L11.412,16.2640654 L7.86,16.2640654 L7.86,15.1840654 L16.152,15.1840654 Z M13.188,11.8960654 C14.436,12.4480654 15.564,13.1320654 16.596,13.9360654 L16.596,13.9360654 L15.948,14.9080654 C14.856,14.0080654 13.74,13.3000654 12.588,12.7840654 L12.588,12.7840654 Z M10.548,11.9680654 L11.256,12.7840654 C10.308,13.6240654 9.144,14.3200654 7.764,14.8720654 L7.764,14.8720654 L7.272,13.8400654 C8.592,13.3600654 9.684,12.7360654 10.548,11.9680654 L10.548,11.9680654 Z M12.18,9.06406542 C12.324,9.42406542 12.456,9.82006542 12.6,10.2520654 L12.6,10.2520654 L17.184,10.2520654 L17.184,12.8080654 L16.02,12.8080654 L16.02,11.3080654 L7.992,11.3080654 L7.992,12.7960654 L6.828,12.7960654 L6.828,10.2520654 L11.412,10.2520654 C11.268,9.89206542 11.1,9.55606542 10.932,9.25606542 L10.932,9.25606542 Z" id="形状结合"></path>
            </g>
        </g>
    </g>
</svg>