<?xml version="1.0" encoding="UTF-8"?>
<svg width="20px" height="20px" viewBox="0 0 20 20" version="1.1" xmlns="http://www.w3.org/2000/svg" xmlns:xlink="http://www.w3.org/1999/xlink">
    <title>自主</title>
    <g id="页面-1" stroke="none" stroke-width="1" fill="none" fill-rule="evenodd">
        <g id="一体化采集" transform="translate(-290.000000, -281.000000)" fill="#000BFF">
            <g id="自主" transform="translate(290.000000, 280.999987)">
                <path d="M10.0190588,1.25038032e-05 C10.2023284,-0.000869417693 10.3779313,0.073503577 10.5048096,0.205755058 L13.1335789,2.88595674 C13.4058443,3.16372301 13.4058443,3.60826573 13.1335789,3.886032 C13.0065643,4.01823008 12.8311557,4.09294984 12.647828,4.09294984 C12.4645004,4.09294984 12.2890917,4.01823008 12.1620772,3.886032 L10.311938,2.00446184 C10.2353124,1.92483347 10.1295674,1.87983744 10.0190588,1.87983744 C9.9361773,1.87983744 9.8559754,1.90514771 9.78872812,1.95139606 L9.7261796,2.00446184 L1.58270966,10.3322314 C1.50420243,10.4171063 1.50420243,10.5480933 1.58270966,10.6329683 C1.62262565,10.6725593 1.67650103,10.6948791 1.73272094,10.6951158 L3.35427154,10.6951158 C3.73979678,10.7009841 4.04879125,11.016031 4.04718082,11.4015976 L4.04718082,18.1585346 C4.04488677,18.2704274 4.08734199,18.378609 4.16512634,18.4590756 C4.24291068,18.5395422 4.34959139,18.5856391 4.46149771,18.5871383 L15.5909066,18.5871383 C15.8248236,18.5832391 16.0123994,18.392484 16.0123669,18.1585346 L16.0123669,11.4015976 C16.0071974,11.0173579 16.3139095,10.7013806 16.6981328,10.6951158 L17.9768005,10.6951158 C18.0327536,10.6943662 18.086094,10.6713178 18.1249862,10.6310845 C18.1638783,10.5908512 18.1851059,10.5367604 18.1839589,10.480814 C18.1839098,10.4252876 18.1635883,10.3716896 18.1268117,10.3300883 L15.2265935,7.379152 C15.0976883,7.24466045 15.0259861,7.06540497 15.0265785,6.87911437 L15.0265785,3.99175424 C15.0265785,3.61104361 15.3352054,3.30241666 15.715916,3.30241666 C16.0966267,3.30241666 16.4052536,3.61104361 16.4052536,3.99175424 L16.4052536,6.58552085 L19.6983586,9.93863032 C19.7361499,9.98092678 19.76965,10.0268697 19.7983661,10.0757835 C20.0261159,10.4601867 20.0630439,10.9283815 19.8983736,11.3437361 C19.7066802,11.7421654 19.3340614,12.0232264 18.8982984,12.0980785 C18.8605461,12.1045955 18.8223145,12.1079408 18.7840041,12.1080793 L17.3910421,12.1080793 L17.3910421,19.29362 C17.3931368,19.4793446 17.3212636,19.6582736 17.1912751,19.7909423 C17.0612866,19.923611 16.8838614,19.9991204 16.6981328,20.0008161 L3.35427154,20.0008161 C3.1685429,19.9991204 2.99111778,19.923611 2.86112925,19.7909423 C2.73114073,19.6582736 2.65926759,19.4793446 2.66136225,19.29362 L2.66136225,12.1109366 L1.22553992,12.1109366 C1.15504654,12.1112844 1.08500332,12.0996911 1.01838148,12.0766483 C0.629446654,11.9114206 0.323168953,11.5969068 0.168317507,11.2037255 C-0.0772394997,10.7362735 -0.0526870054,10.1729301 0.23260806,9.72861452 C0.253691093,9.70006577 0.277625808,9.67373759 0.304042006,9.65003717 L9.52616455,0.207183737 C9.65528863,0.0737324642 9.83336824,-0.00111259147 10.0190588,1.25038032e-05 Z M9.18036884,7.60446978 L10.1504078,7.7444754 C10.0504038,8.10448987 9.90039777,8.43450312 9.72039054,8.75451598 L9.72039054,8.75451598 L13.44054,8.75451598 L13.44054,16.8548414 L12.4805014,16.8548414 L12.4805014,16.2948189 L7.52030214,16.2948189 L7.52030214,16.8548414 L6.56026357,16.8548414 L6.56026357,8.75451598 L8.72035036,8.75451598 C8.92035839,8.38450112 9.08036482,8.00448585 9.18036884,7.60446978 L9.18036884,7.60446978 Z M12.4805014,13.9947265 L7.52030214,13.9947265 L7.52030214,15.3947828 L12.4805014,15.3947828 L12.4805014,13.9947265 Z M12.4805014,11.8046385 L7.52030214,11.8046385 L7.52030214,13.1146912 L12.4805014,13.1146912 L12.4805014,11.8046385 Z M12.4805014,9.66455254 L7.52030214,9.66455254 L7.52030214,10.9246032 L12.4805014,10.9246032 L12.4805014,9.66455254 Z" id="形状结合"></path>
            </g>
        </g>
    </g>
</svg>