<?xml version="1.0" encoding="UTF-8"?>
<svg width="20px" height="20px" viewBox="0 0 20 20" version="1.1" xmlns="http://www.w3.org/2000/svg" xmlns:xlink="http://www.w3.org/1999/xlink">
    <title>境外人员</title>
    <defs>
        <rect id="path-1" x="0" y="0" width="20" height="20"></rect>
    </defs>
    <g id="页面-1" stroke="none" stroke-width="1" fill="none" fill-rule="evenodd">
        <g id="一体化采集" transform="translate(-722.000000, -281.000000)">
            <g id="路径" transform="translate(722.000000, 281.000000)">
                <mask id="mask-2" fill="white">
                    <use xlink:href="#path-1"></use>
                </mask>
                <g id="蒙版" fill-rule="nonzero"></g>
                <path d="M18.4952609,19.0569169 C18.5069531,19.0823001 14.0473222,20 9.745848,20 C5.44827894,20 0.953502006,19.1057307 1.00036329,19.0569169 C1.0784654,18.471151 1.35182283,17.5475935 1.6974247,17.069218 C2.01959593,16.6181783 2.45306269,16.2647662 2.90800753,15.9679781 C3.96238613,15.3041101 5.17296898,14.9780338 6.27420884,14.413746 C6.77601495,14.138436 7.31687212,13.7869765 7.51407997,13.2090208 C7.58827699,12.5783462 7.56484636,11.9418139 7.5628938,11.3072342 C7.5628938,11.2623255 7.54141572,11.2174168 7.50822232,11.1881285 C7.2934415,11.0026359 7.14504747,10.7488041 7.0103213,10.4988773 C6.76234708,10.0205018 6.5827122,9.50502783 6.50656265,8.97002832 C6.50461009,8.95440789 6.49289478,8.94074002 6.47532179,8.9368349 C6.20196437,8.8743532 6.00085142,8.64004686 5.89541357,8.38426242 C5.77240273,8.09333203 5.71187359,7.78092355 5.69234806,7.46851508 C5.67672763,7.16782191 5.79583337,6.86322365 6.01842441,6.66601582 C6.03990249,6.64649029 6.04966525,6.61720199 6.04185503,6.58986625 C5.81535888,5.64873572 5.64939189,4.68222201 5.68844294,3.70985063 C5.71382613,3.09870154 5.8231691,2.47974227 6.08285865,1.92716977 C6.29568693,1.47417748 6.61395306,1.06999902 7.01422642,0.777116074 C7.81282058,0.18353998 8.83400578,0.0156204297 9.80247204,0 C10.3491869,0.00976277344 10.9212849,0.0878648828 11.3957553,0.386605488 C11.571485,0.493995898 11.7140214,0.650200137 11.8272695,0.822024805 C12.288072,0.894269258 12.750827,1.06414137 13.100334,1.39217025 C13.6060452,1.86468807 13.838399,2.56370203 13.9067384,3.24514303 C14.021939,4.37567119 13.8052056,5.50815191 13.4908446,6.58596115 C13.4830344,6.61524945 13.4908446,6.64649029 13.5142752,6.66601582 C13.7485816,6.87298643 13.8657348,7.19906277 13.8344939,7.51537635 C13.799348,7.89026652 13.7231984,8.28077711 13.5123227,8.60294836 C13.4049323,8.76501025 13.2409178,8.88411598 13.0534727,8.93097725 C13.0378523,8.93488234 13.026137,8.94659768 13.0241844,8.96417064 C12.9441298,9.530411 12.7566847,10.0790784 12.4891849,10.5828371 C12.3681266,10.8034755 12.235353,11.0202089 12.0459554,11.1842234 C12.0112167,11.2132013 11.9911793,11.2561384 11.9912839,11.3013765 C11.9873788,11.9340037 11.9659007,12.570536 12.0381452,13.2012106 C12.1982545,13.6795861 12.6102432,14.007615 13.0163742,14.2614468 C14.2406249,14.9702236 15.6581784,15.2748218 16.8238525,16.0968466 C17.4115709,16.5010251 17.9270449,17.0477399 18.1984498,17.7252758 C18.3409861,18.0591624 18.4522817,18.6956946 18.4952609,19.0569169 Z" fill="#E79300" fill-rule="nonzero" mask="url(#mask-2)"></path>
            </g>
        </g>
    </g>
</svg>