<?xml version="1.0" encoding="UTF-8"?>
<svg width="77px" height="63px" viewBox="0 0 77 63" version="1.1" xmlns="http://www.w3.org/2000/svg" xmlns:xlink="http://www.w3.org/1999/xlink">
    <title>出租房屋</title>
    <defs>
        <linearGradient x1="50%" y1="-23.2698085%" x2="50%" y2="100%" id="linearGradient-1">
            <stop stop-color="#B2DCFF" offset="0%"></stop>
            <stop stop-color="#54A6FA" offset="100%"></stop>
        </linearGradient>
    </defs>
    <g id="页面-1" stroke="none" stroke-width="1" fill="none" fill-rule="evenodd">
        <g id="出租房屋" fill-rule="nonzero">
            <ellipse id="椭圆形备份" fill="#E5F3FF" cx="38.5" cy="50" rx="38.5" ry="13"></ellipse>
            <g id="path-2-link" transform="translate(10.000000, 0.000000)" fill="url(#linearGradient-1)">
                <path d="M27,0 C28.6392165,0 30.2119783,0.697886368 31.3417085,1.9220477 L47.9443134,19.6437851 L49.1183468,20.890828 L52.1974156,24.1743262 C54.464236,26.5913763 54.5930949,30.4230315 52.5839924,33.00091 L32,33 C30.8954305,33 30,33.8954305 30,35 L30,35 L30,58.994 L26.8529382,59 L14.3957543,59 C9.13475539,59 4.88165319,54.5953073 4.88165319,49.172387 L4.88165319,33.4642234 L1.80258439,33.4642234 C-0.600861463,30.8671708 -0.600861463,26.7828195 1.80258439,24.1857669 L4.88165319,20.9022688 L6.05568659,19.6437851 L22.6582915,1.9220477 C23.7880217,0.697886368 25.3607835,0 27,0 Z M22,33 L15,33 C13.8954305,33 13,33.8954305 13,35 L13,35 L13,45 C13,46.1045695 13.8954305,47 15,47 L15,47 L22,47 C23.1045695,47 24,46.1045695 24,45 L24,45 L24,35 C24,33.8954305 23.1045695,33 22,33 L22,33 Z" id="path-2"></path>
            </g>
            <g id="租" transform="translate(44.800000, 40.258000)" fill="#388CFF">
                <path d="M5.56,16.802 C5.56,17.0286667 5.50333333,17.2053333 5.39,17.332 C5.27666667,17.4586667 5.12,17.522 4.92,17.522 L2.8,17.522 C2.6,17.522 2.44333333,17.4586667 2.33,17.332 C2.21666667,17.2053333 2.16,17.0286667 2.16,16.802 L2.16,7.182 L0.64,7.182 C0.44,7.182 0.283333333,7.11866667 0.17,6.992 C0.0566666667,6.86533333 0,6.68866667 0,6.462 L0,5.242 C0,5.02866667 0.0566666667,4.85866667 0.17,4.732 C0.283333333,4.60533333 0.44,4.542 0.64,4.542 L2.16,4.542 L2.16,2.882 L0.92,2.942 C0.72,2.95533333 0.563333333,2.902 0.45,2.782 C0.336666667,2.662 0.28,2.48866667 0.28,2.262 L0.28,1.022 C0.28,0.582 0.486666667,0.342 0.9,0.302 L6.88,0.00199999999 C7.08,-0.0113333333 7.23666667,0.042 7.35,0.162 C7.46333333,0.282 7.52,0.455333333 7.52,0.682 L7.52,1.942 C7.52,2.382 7.31333333,2.61533333 6.9,2.642 L5.56,2.702 L5.56,4.542 L6.88,4.542 C7.08,4.542 7.23666667,4.60533333 7.35,4.732 C7.46333333,4.85866667 7.52,5.02866667 7.52,5.242 L7.52,6.462 C7.52,6.68866667 7.46333333,6.86533333 7.35,6.992 C7.23666667,7.11866667 7.08,7.182 6.88,7.182 L5.56,7.182 L5.56,16.802 Z M18,14.862 C18.1066667,14.862 18.1933333,14.9253333 18.26,15.052 C18.3266667,15.1786667 18.36,15.3486667 18.36,15.562 L18.36,16.782 C18.36,17.0086667 18.3033333,17.1853333 18.19,17.312 C18.0766667,17.4386667 17.92,17.502 17.72,17.502 L8.42,17.502 C8.22,17.502 8.06333333,17.4386667 7.95,17.312 C7.83666667,17.1853333 7.78,17.0086667 7.78,16.782 L7.78,15.562 C7.78,15.3486667 7.81333333,15.1786667 7.88,15.052 C7.94666667,14.9253333 8.03333333,14.862 8.14,14.862 L8.48,14.862 L8.38,1.282 C8.38,1.06866667 8.43666667,0.898666667 8.55,0.772 C8.66333333,0.645333333 8.82,0.582 9.02,0.582 L17,0.582 C17.2,0.582 17.3566667,0.645333333 17.47,0.772 C17.5833333,0.898666667 17.64,1.06866667 17.64,1.282 L17.64,14.862 L18,14.862 Z M11.38,5.202 L14.64,5.202 L14.64,3.222 L11.38,3.222 L11.38,5.202 Z M0.4,8.402 C0.413333333,8.18866667 0.486666667,8.00866667 0.62,7.862 C0.753333333,7.71533333 0.913333333,7.642 1.1,7.642 C1.3,7.642 1.47333333,7.722 1.62,7.882 C1.76666667,8.042 1.83333333,8.22866667 1.82,8.442 L1.6,16.802 C1.58666667,17.0153333 1.51,17.1986667 1.37,17.352 C1.23,17.5053333 1.06666667,17.582 0.88,17.582 C0.666666667,17.582 0.486666667,17.502 0.34,17.342 C0.193333333,17.182 0.126666667,16.9886667 0.14,16.762 L0.4,8.402 Z M6.58,7.642 C6.78,7.642 6.94666667,7.712 7.08,7.852 C7.21333333,7.992 7.28666667,8.17533333 7.3,8.402 L7.54,16.762 C7.55333333,16.9753333 7.48666667,17.1653333 7.34,17.332 C7.19333333,17.4986667 7.02,17.582 6.82,17.582 C6.62,17.582 6.45,17.5053333 6.31,17.352 C6.17,17.1986667 6.09333333,17.0153333 6.08,16.802 L5.88,8.442 C5.86666667,8.242 5.93333333,8.05866667 6.08,7.892 C6.22666667,7.72533333 6.39333333,7.642 6.58,7.642 Z M11.38,7.842 L11.38,10.022 L14.64,10.022 L14.64,7.842 L11.38,7.842 Z M14.64,14.862 L14.64,12.662 L11.38,12.662 L11.38,14.862 L14.64,14.862 Z" id="形状"></path>
            </g>
        </g>
    </g>
</svg>