<?xml version="1.0" encoding="UTF-8"?>
<svg width="77px" height="65px" viewBox="0 0 77 65" version="1.1" xmlns="http://www.w3.org/2000/svg" xmlns:xlink="http://www.w3.org/1999/xlink">
    <title>残疾人员</title>
    <defs>
        <linearGradient x1="50%" y1="-23.2698085%" x2="50%" y2="100%" id="linearGradient-1">
            <stop stop-color="#B2DCFF" offset="0%"></stop>
            <stop stop-color="#54A6FA" offset="100%"></stop>
        </linearGradient>
    </defs>
    <g id="页面-1" stroke="none" stroke-width="1" fill="none" fill-rule="evenodd">
        <g id="残疾人员" fill-rule="nonzero">
            <ellipse id="椭圆形备份" fill="#E5F3FF" cx="38.5" cy="52" rx="38.5" ry="13"></ellipse>
            <g id="path-2-link" transform="translate(13.000000, 0.000000)" fill="url(#linearGradient-1)">
                <path d="M34.1718496,24.1129568 C34.0055398,24.786268 33.8392301,25.3964563 33.6729204,25.9435216 C33.5066107,26.406423 33.2987236,26.879845 33.049259,27.3637874 C32.7997944,27.8477298 32.5295411,28.2159468 32.2384991,28.4684385 C31.8643022,28.7630122 31.6044433,29.0786268 31.4589223,29.4152824 C31.3134013,29.751938 31.188669,30.0991141 31.0847254,30.4568106 C30.9807819,30.8145072 30.8664439,31.1827243 30.7417116,31.5614618 C30.6169794,31.9401993 30.4090922,32.3189369 30.1180502,32.6976744 C29.1617693,33.9601329 28.4445587,35.1805094 27.9664182,36.358804 C27.4882778,37.5370986 27.1556584,38.6733112 26.9685599,39.7674419 C26.7814615,40.8615725 26.7294897,41.9451827 26.8126446,43.0182724 C26.8957994,44.0913621 27.0621091,45.1328904 27.3115737,46.1428571 C27.4778834,46.9003322 27.727348,47.6893688 28.0599674,48.5099668 C28.3925869,49.3305648 28.8811217,50.1722038 29.5255718,51.0348837 C30.170022,51.8975637 30.9911762,52.7392027 31.9890345,53.5598007 C32.9868928,54.3803987 34.2342157,55.1694352 35.7310032,55.9269103 C34.7331449,56.13732 33.5689768,56.3266888 32.2384991,56.4950166 C31.1159085,56.6212625 29.733459,56.7369878 28.0911505,56.8421927 C26.4488421,56.9473976 24.5674634,57 22.4470145,57 C21.3660013,57 20.1082841,56.9579181 18.6738628,56.8737542 C17.2394414,56.7895903 15.7634427,56.6843854 14.2458665,56.5581395 C12.7282904,56.4318937 11.2315029,56.2846069 9.75550415,56.1162791 C8.27950541,55.9479513 6.92823896,55.769103 5.70170479,55.5797342 C4.47517062,55.3903654 3.43573489,55.1904762 2.58339758,54.9800664 C1.73106028,54.7696567 1.20094806,54.5802879 0.99306091,54.4119601 C0.618864045,54.0753045 0.327822039,53.1389812 0.119934892,51.60299 C-0.0879522544,50.0669989 -0.0255861103,48.0575858 0.307033325,45.5747508 C0.514920472,44.1860465 1.06582141,43.1234773 1.95973614,42.3870432 C2.85365088,41.6506091 3.90348097,41.0719823 5.10922642,40.6511628 C6.31497187,40.2303433 7.57268911,39.8410853 8.88237814,39.4833887 C10.1920672,39.1256921 11.3458408,38.6312292 12.3436991,38 C13.1336703,37.4950166 13.736543,37.0215947 14.1523173,36.5797342 C14.5680916,36.1378738 14.8591336,35.6854928 15.0254433,35.2225914 C15.191753,34.7596899 15.2749079,34.2757475 15.2749079,33.7707641 C15.2749079,33.2657807 15.2541192,32.7187154 15.2125418,32.1295681 C15.1293869,31.2458472 14.8279505,30.551495 14.3082327,30.0465116 C13.7885148,29.5415282 13.2376139,29.0365449 12.6555299,28.5315615 C12.3229104,28.2790698 12.0318684,27.9003322 11.7824038,27.3953488 C11.5329393,26.8903654 11.3250521,26.406423 11.1587424,25.9435216 C10.9508553,25.3964563 10.7845455,24.786268 10.6598132,24.1129568 C10.3687712,24.0287929 10.0985179,23.9025471 9.84905337,23.7342193 C9.64116622,23.5658915 9.41249036,23.3133998 9.16302579,22.9767442 C8.91356121,22.6400886 8.68488535,22.1351052 8.4769982,21.461794 C8.26911105,20.8305648 8.19635055,20.2414175 8.2587167,19.6943522 C8.32108284,19.1472868 8.43542077,18.6843854 8.60173049,18.3056478 C8.76804021,17.8427464 8.99671607,17.4429679 9.28775807,17.1063123 C9.28775807,15.675526 9.37091293,14.2447398 9.53722265,12.8139535 C9.70353237,11.593577 9.9633913,10.2890365 10.3167995,8.90033223 C10.6702076,7.51162791 11.2418973,6.27021041 12.0318684,5.17607973 C12.7802621,4.12403101 13.5806277,3.26135105 14.432965,2.58803987 C15.2853023,1.91472868 16.1688226,1.38870432 17.0835261,1.00996678 C17.9982295,0.631229236 18.912933,0.368217054 19.8276364,0.220930233 C20.7423399,0.0736434109 21.6154659,0 22.4470145,0 C23.5280276,0 24.5674634,0.126245847 25.5653217,0.378737542 C26.56318,0.631229236 27.4882778,0.967884828 28.3406151,1.38870432 C29.1929524,1.80952381 29.9517405,2.28294574 30.6169794,2.8089701 C31.2822182,3.33499446 31.8227248,3.87153931 32.2384991,4.41860465 C33.19478,5.63898117 33.8912019,6.98560354 34.3277649,8.45847176 C34.7643279,9.93133998 35.086553,11.3200443 35.2944402,12.6245847 C35.5023273,14.1395349 35.5854822,15.654485 35.5439047,17.1694352 C35.7933693,17.379845 36.0012565,17.6323367 36.1675662,17.9269103 C36.3338759,18.179402 36.4586082,18.5160576 36.541763,18.9368771 C36.6249179,19.3576966 36.6249179,19.8837209 36.541763,20.5149502 C36.4586082,21.3145072 36.2922985,21.9457364 36.0428339,22.4086379 C35.7933693,22.8715393 35.523116,23.2292359 35.232074,23.4817276 C34.8994546,23.7763012 34.5460464,23.986711 34.1718496,24.1129568 L34.1718496,24.1129568 Z" id="path-2"></path>
            </g>
            <g id="残" transform="translate(47.940000, 34.200000)" fill="#388CFF">
                <path d="M14.98,6.78 L17.56,6.32 C17.6,6.30666667 17.66,6.3 17.74,6.3 C17.9,6.3 18.0233333,6.35666667 18.11,6.47 C18.1966667,6.58333333 18.24,6.74 18.24,6.94 L18.24,8.32 C18.24,8.74666667 18.0466667,8.99333333 17.66,9.06 L15.64,9.44 L16.1,11.32 L17.5,10.72 C17.6333333,10.6666667 17.7333333,10.64 17.8,10.64 C17.9333333,10.64 18.04,10.6933333 18.12,10.8 C18.2,10.9066667 18.24,11.0533333 18.24,11.24 L18.24,12.74 C18.24,13.1133333 18.0733333,13.3866667 17.74,13.56 L16.74,14 L17.44,16.82 C17.4666667,16.9266667 17.48,17.0066667 17.48,17.06 C17.48,17.2333333 17.4266667,17.3666667 17.32,17.46 C17.2133333,17.5533333 17.0666667,17.6 16.88,17.6 L14.66,17.6 C14.2866667,17.6 14.0533333,17.4 13.96,17 L13.56,15.4 L9.38,17.26 C9.24666667,17.3133333 9.15333333,17.34 9.1,17.34 C8.95333333,17.34 8.84,17.2833333 8.76,17.17 C8.68,17.0566667 8.64,16.9066667 8.64,16.72 L8.64,15.24 C8.64,14.8533333 8.80666667,14.5866667 9.14,14.44 L12.92,12.76 L12.26,10.04 L9.6,10.52 C9.38666667,10.56 9.22,10.52 9.1,10.4 C8.98,10.28 8.92,10.1066667 8.92,9.88 L8.92,8.52 C8.92,8.09333333 9.11333333,7.84 9.5,7.76 L11.62,7.4 L11.1,5.24 L9.58,5.36 C9.36666667,5.38666667 9.20333333,5.34333333 9.09,5.23 C8.97666667,5.11666667 8.92,4.94 8.92,4.7 L8.92,3.36 C8.92,3.14666667 8.97333333,2.98 9.08,2.86 C9.18666667,2.74 9.33333333,2.66666667 9.52,2.64 L10.44,2.56 L10,0.78 C9.97333333,0.673333333 9.96,0.593333333 9.96,0.54 C9.96,0.366666667 10.0133333,0.233333333 10.12,0.14 C10.2266667,0.0466666667 10.3733333,0 10.56,0 L12.78,0 C13.1533333,0 13.3866667,0.2 13.48,0.6 L13.88,2.24 L14.84,2.16 L14.5,0.78 C14.4733333,0.673333333 14.46,0.593333333 14.46,0.54 C14.46,0.366666667 14.51,0.233333333 14.61,0.14 C14.71,0.0466666667 14.8533333,0 15.04,0 L16.54,0 C16.9133333,0 17.1466667,0.2 17.24,0.6 L17.58,1.9 C17.7933333,1.87333333 17.9566667,1.92 18.07,2.04 C18.1833333,2.16 18.24,2.33333333 18.24,2.56 L18.24,3.9 C18.24,4.34 18.04,4.58 17.64,4.62 L14.54,4.9 L14.98,6.78 Z M0,1.24 C0,1.01333333 0.0566666667,0.836666667 0.17,0.71 C0.283333333,0.583333333 0.44,0.52 0.64,0.52 L7.9,0.52 C8.1,0.52 8.25666667,0.583333333 8.37,0.71 C8.48333333,0.836666667 8.54,1.01333333 8.54,1.24 L8.54,2.46 C8.54,2.67333333 8.48333333,2.84333333 8.37,2.97 C8.25666667,3.09666667 8.1,3.16 7.9,3.16 L4.58,3.16 L4.24,4.54 L7.88,4.54 C8.08,4.54 8.23666667,4.60333333 8.35,4.73 C8.46333333,4.85666667 8.52,5.02666667 8.52,5.24 L8.52,7.18 L7.52,16.94 C7.50666667,17.1533333 7.44,17.3166667 7.32,17.43 C7.2,17.5433333 7.04666667,17.6 6.86,17.6 L1.24,17.6 C1.04,17.6 0.883333333,17.5366667 0.77,17.41 C0.656666667,17.2833333 0.6,17.1133333 0.6,16.9 L0.6,15.66 C0.6,15.4466667 0.656666667,15.2766667 0.77,15.15 C0.883333333,15.0233333 1.04,14.96 1.24,14.96 L4.38,14.96 L5.18,7.18 L3.6,7.18 L3.44,7.84 C3.33333333,8.22666667 3.09333333,8.42 2.72,8.42 L0.62,8.42 C0.446666667,8.42 0.306666667,8.37333333 0.2,8.28 C0.0933333333,8.18666667 0.04,8.06 0.04,7.9 C0.04,7.84666667 0.0533333333,7.76666667 0.08,7.66 L1.2,3.16 L0.64,3.16 C0.44,3.16 0.283333333,3.09666667 0.17,2.97 C0.0566666667,2.84333333 0,2.67333333 0,2.46 L0,1.24 Z M3.92,12.4 C3.93333333,12.44 3.94,12.5 3.94,12.58 C3.94,12.7666667 3.88666667,12.91 3.78,13.01 C3.67333333,13.11 3.52666667,13.16 3.34,13.16 L2.06,13.16 C1.66,13.16 1.43333333,12.9466667 1.38,12.52 L0.98,9.86 C0.966666667,9.82 0.96,9.76 0.96,9.68 C0.96,9.50666667 1.01333333,9.36666667 1.12,9.26 C1.22666667,9.15333333 1.37333333,9.1 1.56,9.1 L2.84,9.1 C3.24,9.1 3.46666667,9.31333333 3.52,9.74 L3.92,12.4 Z" id="形状"></path>
            </g>
        </g>
    </g>
</svg>