<?xml version="1.0" encoding="UTF-8"?>
<svg width="77px" height="63px" viewBox="0 0 77 63" version="1.1" xmlns="http://www.w3.org/2000/svg" xmlns:xlink="http://www.w3.org/1999/xlink">
    <title>多人合租</title>
    <defs>
        <linearGradient x1="50%" y1="-23.2698085%" x2="50%" y2="100%" id="linearGradient-1">
            <stop stop-color="#B2DCFF" offset="0%"></stop>
            <stop stop-color="#54A6FA" offset="100%"></stop>
        </linearGradient>
    </defs>
    <g id="页面-1" stroke="none" stroke-width="1" fill="none" fill-rule="evenodd">
        <g id="多人合租" fill-rule="nonzero">
            <ellipse id="椭圆形备份" fill="#E5F3FF" cx="38.5" cy="50" rx="38.5" ry="13"></ellipse>
            <g id="path-3-link" transform="translate(12.000000, 0.000000)" fill="url(#linearGradient-1)">
                <path d="M27,0 C28.6392165,0 30.2119783,0.697886368 31.3417085,1.9220477 L47.9443134,19.6437851 L49.1183468,20.890828 L52.1974156,24.1743262 C54.464236,26.5913763 54.5930949,30.4230315 52.5839924,33.00091 L32,33 C30.8954305,33 30,33.8954305 30,35 L30,35 L30,58.994 L26.8529382,59 L14.3957543,59 C9.13475542,59 4.88165323,54.5953073 4.88165323,49.172387 L4.88165323,33.4642234 L1.80258443,33.4642234 C-0.600861475,30.8671708 -0.600861475,26.7828195 1.80258443,24.1857669 L4.88165323,20.9022688 L6.05568663,19.6437851 L22.6582915,1.9220477 C23.7880217,0.697886368 25.3607835,0 27,0 Z M22,33 L15,33 C13.8954305,33 13,33.8954305 13,35 L13,35 L13,45 C13,46.1045695 13.8954305,47 15,47 L15,47 L22,47 C23.1045695,47 24,46.1045695 24,45 L24,45 L24,35 C24,33.8954305 23.1045695,33 22,33 L22,33 Z" id="path-3"></path>
            </g>
            <g id="多" transform="translate(47.660000, 40.200000)" fill="#388CFF">
                <path d="M14,7.92 C13.8533333,8.25333333 13.6066667,8.42 13.26,8.42 L0.94,8.42 C0.74,8.42 0.583333333,8.35666667 0.47,8.23 C0.356666667,8.10333333 0.3,7.93333333 0.3,7.72 L0.3,6.5 C0.3,6.27333333 0.356666667,6.09666667 0.47,5.97 C0.583333333,5.84333333 0.74,5.78 0.94,5.78 L4.08,5.78 L3.76,5.02 C3.70666667,4.9 3.68,4.78 3.68,4.66 C3.68,4.51333333 3.72666667,4.4 3.82,4.32 C3.91333333,4.24 4.04666667,4.2 4.22,4.2 L6.52,4.2 C6.88,4.2 7.12666667,4.36666667 7.26,4.7 L7.72,5.78 L11.12,5.78 L12.54,2.84 L4.4,2.84 L4.28,3.1 C4.12,3.43333333 3.86666667,3.6 3.52,3.6 L1.14,3.6 C0.966666667,3.6 0.833333333,3.56 0.74,3.48 C0.646666667,3.4 0.6,3.29333333 0.6,3.16 C0.6,3.04 0.626666667,2.92 0.68,2.8 L1.74,0.5 C1.91333333,0.166666667 2.16666667,0 2.5,0 L4.86,0 C5.1,0 5.29,0.02 5.43,0.06 C5.57,0.1 5.62666667,0.146666667 5.6,0.2 L5.5,0.42 L15.64,0.42 C15.84,0.42 15.9966667,0.483333333 16.11,0.61 C16.2233333,0.736666667 16.28,0.906666667 16.28,1.12 L16.28,2.38 C16.28,2.64666667 16.22,2.93333333 16.1,3.24 L14,7.92 Z M16.08,9.38 C16.28,9.38 16.4366667,9.44333333 16.55,9.57 C16.6633333,9.69666667 16.72,9.86666667 16.72,10.08 L16.72,11.32 C16.72,11.6133333 16.66,11.9 16.54,12.18 L14.36,17.1 C14.2,17.4333333 13.9533333,17.6 13.62,17.6 L0.64,17.6 C0.44,17.6 0.283333333,17.5366667 0.17,17.41 C0.0566666667,17.2833333 0,17.1133333 0,16.9 L0,15.66 C0,15.4466667 0.0566666667,15.2766667 0.17,15.15 C0.283333333,15.0233333 0.44,14.96 0.64,14.96 L3.78,14.96 L3.36,13.96 C3.30666667,13.84 3.28,13.72 3.28,13.6 C3.28,13.4666667 3.32666667,13.36 3.42,13.28 C3.51333333,13.2 3.64666667,13.16 3.82,13.16 L6.12,13.16 C6.48,13.16 6.72666667,13.3266667 6.86,13.66 L7.42,14.96 L11.52,14.96 L12.94,11.8 L4.08,11.8 L4.02,11.92 C3.88666667,12.28 3.64,12.46 3.28,12.46 L0.88,12.46 C0.706666667,12.46 0.573333333,12.42 0.48,12.34 C0.386666667,12.26 0.34,12.1466667 0.34,12 C0.34,11.88 0.366666667,11.76 0.42,11.64 L1.52,9.18 C1.68,8.83333333 1.92666667,8.66 2.26,8.66 L4.64,8.66 C4.88,8.66 5.06333333,8.69333333 5.19,8.76 C5.31666667,8.82666667 5.36,8.91333333 5.32,9.02 L5.16,9.38 L16.08,9.38 Z" id="形状"></path>
            </g>
        </g>
    </g>
</svg>