<?xml version="1.0" encoding="UTF-8"?>
<svg width="77px" height="63px" viewBox="0 0 77 63" version="1.1" xmlns="http://www.w3.org/2000/svg" xmlns:xlink="http://www.w3.org/1999/xlink">
    <title>担任租住</title>
    <defs>
        <linearGradient x1="50%" y1="-23.2698085%" x2="50%" y2="100%" id="linearGradient-1">
            <stop stop-color="#B2DCFF" offset="0%"></stop>
            <stop stop-color="#54A6FA" offset="100%"></stop>
        </linearGradient>
    </defs>
    <g id="页面-1" stroke="none" stroke-width="1" fill="none" fill-rule="evenodd">
        <g id="担任租住" fill-rule="nonzero">
            <ellipse id="椭圆形备份" fill="#E5F3FF" cx="38.5" cy="50" rx="38.5" ry="13"></ellipse>
            <g id="编组-48" transform="translate(12.000000, 0.000000)">
                <g id="path-3-link" fill="url(#linearGradient-1)">
                    <path d="M27,0 C28.6392165,0 30.2119783,0.697886368 31.3417085,1.9220477 L47.9443134,19.6437851 L49.1183468,20.890828 L52.1974156,24.1743262 C54.464236,26.5913763 54.5930949,30.4230315 52.5839924,33.00091 L32,33 C30.8954305,33 30,33.8954305 30,35 L30,35 L30,58.994 L26.8529382,59 L14.3957543,59 C9.13475541,59 4.88165316,54.5953073 4.88165316,49.172387 L4.88165316,33.4642234 L1.80258435,33.4642234 C-0.60086145,30.8671708 -0.60086145,26.7828195 1.80258435,24.1857669 L4.88165316,20.9022688 L6.0556866,19.6437851 L22.6582915,1.9220477 C23.7880217,0.697886368 25.3607835,0 27,0 Z M22,33 L15,33 C13.8954305,33 13,33.8954305 13,35 L13,35 L13,45 C13,46.1045695 13.8954305,47 15,47 L15,47 L22,47 C23.1045695,47 24,46.1045695 24,45 L24,45 L24,35 C24,33.8954305 23.1045695,33 22,33 L22,33 Z" id="path-3"></path>
                </g>
                <g id="单" transform="translate(34.920000, 40.200000)" fill="#388CFF">
                    <path d="M18.2,14.36 C18.2,14.5733333 18.1433333,14.7433333 18.03,14.87 C17.9166667,14.9966667 17.76,15.06 17.56,15.06 L10.8,15.06 L10.8,16.9 C10.8,17.1133333 10.7433333,17.2833333 10.63,17.41 C10.5166667,17.5366667 10.36,17.6 10.16,17.6 L8.04,17.6 C7.84,17.6 7.68333333,17.5366667 7.57,17.41 C7.45666667,17.2833333 7.4,17.1133333 7.4,16.9 L7.4,15.06 L0.64,15.06 C0.44,15.06 0.283333333,14.9966667 0.17,14.87 C0.0566666667,14.7433333 0,14.5733333 0,14.36 L0,13.14 C0,12.9133333 0.0566666667,12.7366667 0.17,12.61 C0.283333333,12.4833333 0.44,12.42 0.64,12.42 L7.4,12.42 L7.4,11.58 L1.62,11.58 C1.42,11.58 1.26333333,11.5166667 1.15,11.39 C1.03666667,11.2633333 0.98,11.0866667 0.98,10.86 L0.98,2.4 C0.98,2.18666667 1.03666667,2.01666667 1.15,1.89 C1.26333333,1.76333333 1.42,1.7 1.62,1.7 L3.9,1.7 L3.68,0.78 C3.65333333,0.673333333 3.64,0.593333333 3.64,0.54 C3.64,0.366666667 3.69,0.233333333 3.79,0.14 C3.89,0.0466666667 4.03333333,0 4.22,0 L6.34,0 C6.71333333,0 6.94666667,0.2 7.04,0.6 L7.3,1.7 L10.9,1.7 L11.16,0.6 C11.2533333,0.2 11.4866667,0 11.86,0 L13.98,0 C14.1666667,0 14.31,0.0466666667 14.41,0.14 C14.51,0.233333333 14.56,0.366666667 14.56,0.54 C14.56,0.593333333 14.5466667,0.673333333 14.52,0.78 L14.3,1.7 L16.6,1.7 C16.8,1.7 16.9566667,1.76333333 17.07,1.89 C17.1833333,2.01666667 17.24,2.18666667 17.24,2.4 L17.24,10.86 C17.24,11.0866667 17.1833333,11.2633333 17.07,11.39 C16.9566667,11.5166667 16.8,11.58 16.6,11.58 L10.8,11.58 L10.8,12.42 L17.56,12.42 C17.76,12.42 17.9166667,12.4833333 18.03,12.61 C18.1433333,12.7366667 18.2,12.9133333 18.2,13.14 L18.2,14.36 Z M7.4,5.3 L7.4,4.34 L4.38,4.34 L4.38,5.3 L7.4,5.3 Z M10.8,4.34 L10.8,5.3 L13.84,5.3 L13.84,4.34 L10.8,4.34 Z M7.4,7.94 L4.38,7.94 L4.38,8.94 L7.4,8.94 L7.4,7.94 Z M10.8,7.94 L10.8,8.94 L13.84,8.94 L13.84,7.94 L10.8,7.94 Z" id="形状"></path>
                </g>
            </g>
        </g>
    </g>
</svg>