<?xml version="1.0" encoding="UTF-8"?>
<svg width="138px" height="131px" viewBox="0 0 138 131" version="1.1" xmlns="http://www.w3.org/2000/svg" xmlns:xlink="http://www.w3.org/1999/xlink">
    <title>党组织管理</title>
    <defs>
        <linearGradient x1="20.239966%" y1="58.3663447%" x2="64.4168801%" y2="-3.67829529%" id="linearGradient-1">
            <stop stop-color="#5191DB" offset="0%"></stop>
            <stop stop-color="#B2DBFF" offset="100%"></stop>
        </linearGradient>
        <path d="M55.7154559,97.51 C56.1104559,97.324 56.4974559,97.125 56.8734559,96.91 L77.9844559,84.613 C77.6084559,84.832 77.2214559,85.031 76.8264559,85.213 C76.6964559,85.274 76.5614559,85.325 76.4264559,85.382 C76.1564559,85.499 75.8854559,85.614 75.6074559,85.716 C75.3824559,85.798 75.1524559,85.872 74.9214559,85.944 C74.7834559,85.988 74.6464559,86.035 74.5064559,86.075 C74.2184559,86.157 73.9234559,86.226 73.6284559,86.292 C73.5284559,86.313 73.4394559,86.34 73.3424559,86.359 C73.2924559,86.37 73.2424559,86.375 73.1884559,86.385 C72.7144559,86.477 72.2294559,86.545 71.7364559,86.596 C71.5694559,86.613 71.4004559,86.628 71.2364559,86.641 C70.9144559,86.665 70.5891226,86.6803333 70.2604559,86.687 C70.0754559,86.687 69.8914559,86.697 69.7044559,86.695 C69.4444559,86.695 69.1814559,86.682 68.9184559,86.67 C68.7034559,86.659 68.4904559,86.652 68.2734559,86.635 C68.0564559,86.618 67.8304559,86.591 67.6074559,86.566 C67.3624559,86.539 67.1184559,86.513 66.8714559,86.477 C66.6644559,86.447 66.4544559,86.41 66.2444559,86.377 C65.9804559,86.331 65.7164559,86.284 65.4494559,86.229 C65.2684559,86.191 65.0864559,86.149 64.9044559,86.107 C64.6204559,86.0403333 64.3347892,85.9693333 64.0474559,85.894 C63.8654559,85.845 63.6834559,85.794 63.5004559,85.743 C63.1874559,85.652 62.8724559,85.553 62.5564559,85.449 C62.4074559,85.4 62.2564559,85.355 62.1094559,85.303 C61.1761226,84.981 60.2321226,84.602 59.2774559,84.166 C59.1284559,84.098 58.9774559,84.025 58.8294559,83.955 C58.4924559,83.795 58.1544559,83.63 57.8144559,83.455 C57.6477892,83.3696667 57.4811226,83.2826667 57.3144559,83.194 C56.8634559,82.956 56.4144559,82.712 55.9574559,82.448 C55.4514559,82.156 54.9494559,81.848 54.4494559,81.532 L54.3494559,81.474 C53.8614559,81.162 53.3764559,80.8386667 52.8944559,80.504 C52.7284559,80.39 52.5654559,80.269 52.4004559,80.152 C52.0784559,79.923 51.7574559,79.693 51.4384559,79.452 C51.2384559,79.305 51.0474559,79.152 50.8524559,79.004 C50.5644559,78.782 50.2764559,78.558 49.9914559,78.328 C49.7814559,78.1593333 49.5721226,77.9883333 49.3634559,77.815 C49.0914559,77.589 48.8207892,77.36 48.5514559,77.128 C48.3374559,76.944 48.1244559,76.758 47.9124559,76.57 C47.6457892,76.334 47.3821226,76.095 47.1214559,75.853 C46.9107892,75.659 46.7004559,75.4633333 46.4904559,75.266 C46.2254559,75.013 45.9614559,74.756 45.6984559,74.498 C45.5044559,74.307 45.3094559,74.116 45.1174559,73.922 C44.8454559,73.648 44.5774559,73.368 44.3094559,73.087 C44.1324559,72.901 43.9534559,72.717 43.7774559,72.528 C43.4674559,72.195 43.1614559,71.856 42.8564559,71.515 C42.7334559,71.377 42.6084559,71.243 42.4864559,71.104 C42.0577892,70.616 41.6344559,70.1206667 41.2164559,69.618 C41.1534559,69.542 41.0924559,69.462 41.0284559,69.385 C40.6744559,68.954 40.3224559,68.519 39.9764559,68.078 C39.5317892,67.51 39.0941226,66.9343333 38.6634559,66.351 L38.6634559,66.344 C38.0634559,65.523 37.4774559,64.683 36.9044559,63.833 C36.8044559,63.679 36.6964559,63.526 36.5944559,63.371 C35.8851226,62.3043333 35.2027892,61.2153333 34.5474559,60.104 C34.4644559,59.962 34.3784559,59.822 34.2954559,59.68 C33.8354559,58.8913333 33.3894559,58.0943333 32.9574559,57.289 C32.7994559,56.995 32.6474559,56.698 32.4934559,56.402 C32.3394559,56.106 32.1714559,55.786 32.0164559,55.475 C31.7914559,55.027 31.5734559,54.575 31.3584559,54.125 C31.2944559,53.991 31.2274559,53.859 31.1644559,53.725 C30.8977892,53.153 30.6377892,52.578 30.3844559,52 C30.3154559,51.845 30.2504559,51.688 30.1844559,51.532 C30.0017892,51.106 29.8227892,50.679 29.6474559,50.251 C29.5674559,50.051 29.4881226,49.853 29.4094559,49.657 C29.2444559,49.242 29.0854559,48.826 28.9284559,48.41 C28.8624559,48.233 28.7944559,48.057 28.7284559,47.88 C28.5284559,47.33 28.3284559,46.78 28.1474559,46.227 C28.1324559,46.183 28.1154559,46.138 28.1014559,46.094 C27.9014559,45.5 27.7144559,44.904 27.5334559,44.309 C27.4744559,44.109 27.4204559,43.918 27.3634559,43.722 C27.2434559,43.313 27.1264559,42.905 27.0154559,42.496 C26.9547892,42.2686667 26.8954559,42.0416667 26.8374559,41.815 C26.7374559,41.431 26.6417892,41.0466667 26.5504559,40.662 C26.4964559,40.436 26.4437892,40.2103333 26.3924559,39.985 C26.3034559,39.585 26.2204559,39.195 26.1404559,38.8 C26.0974559,38.592 26.0534559,38.384 26.0134559,38.177 C25.9147892,37.6576667 25.8231226,37.14 25.7384559,36.624 C25.7274559,36.553 25.7124559,36.481 25.7014559,36.409 C25.6084559,35.821 25.5284559,35.235 25.4564559,34.65 C25.4354559,34.484 25.4194559,34.319 25.4004559,34.15 C25.3534559,33.732 25.3104559,33.315 25.2744559,32.899 C25.2564559,32.699 25.2414559,32.499 25.2264559,32.299 C25.1971226,31.9043333 25.1731226,31.5106667 25.1544559,31.118 C25.1454559,30.93 25.1354559,30.74 25.1284559,30.552 C25.1084559,29.994 25.0954559,29.438 25.0964559,28.886 C25.0964559,28.307 25.1144559,27.741 25.1394559,27.186 C25.1464559,27.027 25.1594559,26.873 25.1684559,26.717 C25.1904559,26.333 25.2154559,25.953 25.2494559,25.58 C25.2684559,25.363 25.2924559,25.151 25.3154559,24.938 C25.3494559,24.622 25.3854559,24.309 25.4274559,24 C25.4594559,23.772 25.4934559,23.548 25.5274559,23.324 C25.5724559,23.039 25.6214559,22.759 25.6724559,22.481 C25.7197892,22.231 25.7694559,21.9836667 25.8214559,21.739 C25.8744559,21.489 25.9314559,21.239 25.9904559,20.999 C26.0604559,20.711 26.1344559,20.428 26.2114559,20.148 C26.2724559,19.93 26.3334559,19.713 26.3984559,19.5 C26.4984559,19.164 26.6114559,18.837 26.7254559,18.513 C26.7864559,18.34 26.8454559,18.163 26.9094559,17.993 C27.1154559,17.451 27.3344559,16.924 27.5724559,16.419 C27.7534559,16.035 27.9414559,15.66 28.1404559,15.298 C28.1404559,15.29 28.1484559,15.281 28.1524559,15.274 C28.3524559,14.905 28.5694559,14.55 28.7904559,14.205 C29.1064559,13.711 29.4454559,13.247 29.7974559,12.805 C29.8814559,12.697 29.9684559,12.593 30.0554559,12.488 C30.3974559,12.076 30.7554559,11.68 31.1244559,11.311 C31.1504559,11.284 31.1754559,11.255 31.2024559,11.228 C31.5976078,10.8473731 32.0128696,10.4881916 32.4464559,10.152 C32.5514559,10.07 32.6574559,9.99 32.7634559,9.911 C33.1988709,9.58378307 33.6518828,9.28066233 34.1204559,9.003 L34.1204559,9.003 L13.0104559,21.295 C12.5406603,21.5729773 12.0866308,21.8767764 11.6504559,22.205 C11.5444559,22.284 11.4384559,22.364 11.3344559,22.446 C10.9006622,22.7819383 10.485387,23.1411313 10.0904559,23.522 C10.0634559,23.548 10.0384559,23.578 10.0114559,23.605 C9.63565484,23.979201 9.27887266,24.3720285 8.94245589,24.782 C8.85645589,24.887 8.76945589,24.991 8.68445589,25.098 C8.33245589,25.544 7.99445589,26.009 7.67845589,26.498 C7.66945589,26.512 7.65845589,26.524 7.65045589,26.538 C7.43845589,26.8713333 7.23512256,27.2146667 7.04045589,27.568 L7.03145589,27.584 C6.84012256,27.932 6.65712256,28.2903333 6.48245589,28.659 C6.47445589,28.676 6.46745589,28.696 6.45945589,28.713 C6.22145589,29.218 6.00245589,29.745 5.79745589,30.287 C5.77945589,30.333 5.75845589,30.375 5.74045589,30.421 C5.69445589,30.546 5.65745589,30.681 5.61345589,30.807 C5.49945589,31.13 5.38845589,31.458 5.28645589,31.794 C5.25945589,31.882 5.22645589,31.964 5.20045589,32.054 C5.16345589,32.18 5.13445589,32.314 5.10045589,32.442 C5.02245589,32.7206667 4.94878923,33.0036667 4.87945589,33.291 C4.85145589,33.408 4.81645589,33.519 4.78945589,33.637 C4.76245589,33.755 4.73745589,33.903 4.70945589,34.037 C4.65745589,34.281 4.60812256,34.5276667 4.56145589,34.777 C4.53745589,34.906 4.50745589,35.028 4.48545589,35.158 C4.45945589,35.309 4.44045589,35.467 4.41645589,35.62 C4.38145589,35.844 4.34645589,36.069 4.31645589,36.297 C4.30045589,36.413 4.27945589,36.523 4.26545589,36.64 C4.24045589,36.835 4.22545589,37.04 4.20345589,37.235 C4.18045589,37.448 4.15645589,37.66 4.13745589,37.877 C4.13045589,37.963 4.11845589,38.046 4.11145589,38.133 C4.08745589,38.423 4.07345589,38.721 4.05645589,39.017 C4.04745589,39.172 4.03545589,39.324 4.02745589,39.481 C4.02745589,39.52 4.02745589,39.557 4.02045589,39.597 C4.00045589,40.089 3.98878923,40.589 3.98545589,41.097 L3.98545589,41.186 C3.98545589,41.6526667 3.99178923,42.1193333 4.00445589,42.586 C4.00445589,42.674 4.01345589,42.763 4.01645589,42.852 C4.02345589,43.04 4.03445589,43.229 4.04345589,43.418 C4.05445589,43.641 4.06045589,43.863 4.07445589,44.087 C4.08545589,44.257 4.10245589,44.428 4.11545589,44.599 C4.13045589,44.799 4.14545589,44.999 4.16245589,45.199 C4.17445589,45.33 4.18145589,45.461 4.19445589,45.594 C4.22145589,45.878 4.25745589,46.164 4.29445589,46.45 C4.31345589,46.616 4.32945589,46.781 4.34945589,46.95 C4.35645589,47.006 4.36145589,47.061 4.36845589,47.117 C4.43512256,47.635 4.50878923,48.1543333 4.58945589,48.675 L4.59545589,48.709 C4.60645589,48.78 4.62045589,48.852 4.63245589,48.924 C4.70345589,49.363 4.77745589,49.803 4.86045589,50.244 C4.87445589,50.321 4.89245589,50.399 4.90745589,50.476 C4.94745589,50.684 4.99145589,50.892 5.03345589,51.1 C5.08545589,51.354 5.13345589,51.608 5.18845589,51.862 C5.21845589,52.003 5.25445589,52.144 5.28845589,52.284 C5.33945589,52.51 5.38845589,52.736 5.44545589,52.961 C5.48745589,53.137 5.52445589,53.312 5.56845589,53.488 C5.61945589,53.697 5.67845589,53.906 5.73245589,54.115 C5.79145589,54.342 5.84945589,54.569 5.91145589,54.796 C5.94145589,54.908 5.96845589,55.021 5.99945589,55.133 C6.08245589,55.433 6.17245589,55.728 6.25945589,56.026 C6.31645589,56.219 6.37045589,56.413 6.42845589,56.606 C6.44545589,56.661 6.46045589,56.717 6.47745589,56.772 C6.64078923,57.3053333 6.81178923,57.8386667 6.99045589,58.372 L6.98445589,58.393 L7.03045589,58.525 C7.19145589,59.002 7.35545589,59.479 7.53045589,59.955 C7.55745589,60.03 7.58645589,60.105 7.61345589,60.179 C7.67845589,60.356 7.74545589,60.531 7.81345589,60.707 C7.91345589,60.963 8.00245589,61.219 8.10145589,61.474 C8.16445589,61.635 8.23145589,61.795 8.29545589,61.956 C8.37345589,62.156 8.45278923,62.354 8.53345589,62.55 C8.59145589,62.694 8.64745589,62.838 8.70645589,62.982 C8.82445589,63.267 8.94945589,63.55 9.07145589,63.834 C9.13745589,63.988 9.20245589,64.143 9.27145589,64.297 C9.29645589,64.353 9.31945589,64.41 9.34345589,64.466 C9.56545589,64.9693333 9.79345589,65.4693333 10.0274559,65.966 C10.0354559,65.985 10.0454559,66.004 10.0544559,66.023 C10.1154559,66.152 10.1794559,66.281 10.2414559,66.41 C10.4304559,66.81 10.6184559,67.202 10.8144559,67.595 C10.8434559,67.654 10.8754559,67.712 10.9044559,67.771 C11.0604559,68.081 11.2224559,68.389 11.3824559,68.698 C11.5124559,68.949 11.6374559,69.198 11.7714559,69.451 C11.7954559,69.496 11.8214559,69.54 11.8454559,69.585 C12.2767892,70.389 12.7227892,71.1853333 13.1834559,71.974 C13.2224559,72.041 13.2574559,72.11 13.2964559,72.174 C13.3354559,72.238 13.3964559,72.322 13.4374559,72.398 C14.0927892,73.504 14.7741226,74.592 15.4814559,75.662 C15.5194559,75.72 15.5534559,75.781 15.5924559,75.839 C15.6574559,75.939 15.7294559,76.031 15.7924559,76.129 C16.3644559,76.978 16.9464559,77.817 17.5494559,78.637 L17.5494559,78.637 L17.5494559,78.643 C17.9794559,79.227 18.4171226,79.8026667 18.8624559,80.37 C18.8824559,80.396 18.9004559,80.422 18.9204559,80.447 C19.2474559,80.863 19.5804559,81.271 19.9144559,81.678 C19.9774559,81.755 20.0384559,81.834 20.1024559,81.911 C20.1063632,81.9154725 20.1100348,81.9201455 20.1134559,81.925 C20.5074559,82.399 20.9074559,82.8656667 21.3134559,83.325 L21.3754559,83.394 C21.4964559,83.532 21.6204559,83.665 21.7434559,83.802 C22.0004559,84.09 22.2564559,84.38 22.5174559,84.662 C22.5664559,84.715 22.6174559,84.762 22.6674559,84.819 C22.8424559,85.007 23.0204559,85.19 23.1964559,85.375 C23.3964559,85.575 23.5854559,85.789 23.7824559,85.991 C23.8564559,86.066 23.9324559,86.137 24.0054559,86.212 C24.1984559,86.406 24.3934559,86.596 24.5874559,86.787 C24.7544559,86.952 24.9184559,87.121 25.0874559,87.287 C25.1874559,87.38 25.2824559,87.467 25.3794559,87.559 C25.5884559,87.759 25.7994559,87.953 26.0104559,88.147 C26.1564559,88.282 26.3014559,88.422 26.4484559,88.556 C26.5644559,88.661 26.6834559,88.756 26.8004559,88.863 C27.0124559,89.0523333 27.2254559,89.2386667 27.4394559,89.422 C27.5684559,89.533 27.6964559,89.65 27.8254559,89.76 C27.9544559,89.87 28.1104559,89.991 28.2524559,90.108 C28.4604559,90.281 28.6694559,90.453 28.8804559,90.622 C28.9884559,90.709 29.0954559,90.801 29.2034559,90.887 C29.3814559,91.028 29.5624559,91.16 29.7404559,91.297 C29.9404559,91.448 30.1304559,91.597 30.3274559,91.745 C30.4064559,91.805 30.4844559,91.868 30.5634559,91.926 C30.8034559,92.103 31.0464559,92.271 31.2884559,92.443 C31.4534559,92.56 31.6174559,92.68 31.7884559,92.795 C31.8304559,92.824 31.8724559,92.856 31.9154559,92.885 C32.3514559,93.185 32.7901226,93.4756667 33.2314559,93.757 L33.2434559,93.764 L33.3434559,93.823 C33.7434559,94.0763333 34.1434559,94.3223333 34.5434559,94.561 L34.8434559,94.739 C35.1767892,94.9296667 35.5051226,95.1136667 35.8284559,95.291 C35.9534559,95.359 36.0764559,95.419 36.2014559,95.484 C36.3694559,95.573 36.5364559,95.66 36.7014559,95.746 C36.8314559,95.812 36.9634559,95.885 37.0934559,95.946 C37.3024559,96.046 37.5094559,96.146 37.7164559,96.246 C37.8654559,96.316 38.0164559,96.389 38.1634559,96.457 C38.2244559,96.484 38.2864559,96.516 38.3474559,96.543 C38.7621226,96.7303333 39.1751226,96.906 39.5864559,97.07 C39.9977892,97.234 40.4144559,97.391 40.8364559,97.541 C40.8894559,97.56 40.9424559,97.575 40.9964559,97.593 C41.1464559,97.645 41.2964559,97.693 41.4434559,97.74 C41.6544559,97.809 41.8664559,97.884 42.0754559,97.947 C42.1804559,97.979 42.2824559,98.003 42.3874559,98.033 C42.5704559,98.086 42.7514559,98.133 42.9334559,98.184 C43.0734559,98.222 43.2154559,98.266 43.3554559,98.301 C43.4954559,98.336 43.6454559,98.364 43.7914559,98.401 C43.9734559,98.443 44.1554559,98.485 44.3354559,98.522 C44.4354559,98.542 44.5294559,98.568 44.6244559,98.587 C44.7954559,98.62 44.9624559,98.641 45.1314559,98.67 C45.3414559,98.707 45.5504559,98.744 45.7574559,98.77 C45.8314559,98.781 45.9064559,98.797 45.9794559,98.807 C46.1534559,98.83 46.3214559,98.84 46.4934559,98.859 C46.7164559,98.884 46.9394559,98.91 47.1604559,98.927 C47.2254559,98.927 47.2924559,98.943 47.3604559,98.947 C47.5114559,98.958 47.6604559,98.955 47.8074559,98.962 C48.0714559,98.975 48.3344559,98.986 48.5934559,98.988 C48.6664559,98.988 48.7424559,98.996 48.8144559,98.9950865 C48.9284559,98.9950865 49.0374559,98.982 49.1504559,98.98 C49.4784559,98.972 49.8044559,98.958 50.1264559,98.933 C50.2264559,98.926 50.3264559,98.933 50.4204559,98.919 C50.4914559,98.913 50.5594559,98.896 50.6304559,98.889 C51.1234559,98.837 51.6084559,98.769 52.0834559,98.678 C52.1234559,98.67 52.1654559,98.668 52.2044559,98.66 L52.2374559,98.652 C52.3374559,98.632 52.4274559,98.605 52.5244559,98.584 C52.8194559,98.518 53.1124559,98.449 53.4004559,98.368 C53.5414559,98.328 53.6794559,98.28 53.8194559,98.236 C54.0024559,98.179 54.1884559,98.127 54.3684559,98.063 C54.4134559,98.047 54.4564559,98.025 54.5024559,98.009 C54.7804559,97.909 55.0524559,97.791 55.3234559,97.674 C55.4524559,97.621 55.5844559,97.57 55.7154559,97.51 Z" id="path-2"></path>
        <linearGradient x1="33.5082284%" y1="16.6826405%" x2="44.9607689%" y2="98.1912415%" id="linearGradient-3">
            <stop stop-color="#5191DB" offset="0%"></stop>
            <stop stop-color="#A9D5FB" offset="99.9323681%"></stop>
            <stop stop-color="#5191DB" offset="100%"></stop>
        </linearGradient>
        <polygon id="path-4" points="48.6964559 69.624 69.8404559 57.3 73.9514559 82.672 52.8064559 95"></polygon>
        <linearGradient x1="100%" y1="76.0604676%" x2="-15.4039487%" y2="25.3847199%" id="linearGradient-5">
            <stop stop-color="#5191DB" offset="0%"></stop>
            <stop stop-color="#B2DBFF" offset="100%"></stop>
        </linearGradient>
        <polygon id="path-6" points="43.6774559 48.532 64.8224559 36.206 84.9844559 50.389 63.8404559 62.715"></polygon>
        <linearGradient x1="-14.2428838%" y1="56.2008905%" x2="100%" y2="63.6737183%" id="linearGradient-7">
            <stop stop-color="#5191DB" offset="0%"></stop>
            <stop stop-color="#B2DBFF" offset="100%"></stop>
        </linearGradient>
        <polygon id="path-8" points="6.98445589 30.655 28.1284559 18.329 48.3174559 27.618 27.1734559 39.944"></polygon>
        <linearGradient x1="35.3469991%" y1="192.481928%" x2="41.8974292%" y2="0%" id="linearGradient-9">
            <stop stop-color="#5191DB" offset="0%"></stop>
            <stop stop-color="#B2DBFF" offset="100%"></stop>
        </linearGradient>
        <polygon id="path-10" points="7.98445589 30.245 28.2234559 39.451 36.5914559 22.985 44.7674559 48.952 64.9794559 63.007 49.7984559 69.853 53.9184559 95 36.3634559 73.269 18.6974559 74.756 23.0244559 54.471"></polygon>
    </defs>
    <g id="z" stroke="none" stroke-width="1" fill="none" fill-rule="evenodd">
        <g id="党组织管理" transform="translate(0.246997, 0.000000)">
            <g id="编组" transform="translate(0.000000, 50.996900)" fill="#92B4DE">
                <path d="M134.964987,36.4439097 C138.337632,38.3989937 138.355133,41.6003813 135.004989,43.5560903 L75.0811639,78.5332182 C71.7310199,80.4889273 66.2282835,80.4889273 62.8568886,78.5332182 L2.54117194,43.5567153 C-0.831472982,41.6010063 -0.848973734,38.3996187 2.50054519,36.4445347 L62.42437,1.46678178 C65.775139,-0.488927259 71.2772504,-0.488927259 74.6492703,1.46678178 L134.964987,36.4439097 Z" id="Fill-1"></path>
            </g>
            <g id="组-2433" transform="translate(68.742521, 55.996500) scale(-1, 1) translate(-68.742521, -55.996500) translate(22.753003, 0.000000)">
                <g id="形状_553">
                    <use fill="#5F89B7" xlink:href="#path-2"></use>
                    <use fill="url(#linearGradient-1)" xlink:href="#path-2"></use>
                </g>
                <g id="形状_547_拷贝_4">
                    <use fill="#69A6D8" xlink:href="#path-4"></use>
                    <use fill="url(#linearGradient-3)" xlink:href="#path-4"></use>
                </g>
                <g id="形状_547_拷贝_3">
                    <use fill="#76B1EA" xlink:href="#path-6"></use>
                    <use fill="url(#linearGradient-5)" xlink:href="#path-6"></use>
                </g>
                <g id="形状_547_拷贝">
                    <use fill="#699FD4" xlink:href="#path-8"></use>
                    <use fill="url(#linearGradient-7)" xlink:href="#path-8"></use>
                </g>
                <polygon id="形状_547_拷贝_2" fill="#65A4E1" points="36.5214559 24.328 57.6654559 12 65.8224559 38.2 44.6774559 50.526"></polygon>
                <path d="M36.0684559,16.586 C55.9184559,28.166 71.9604559,56.244 71.8956527,79.293 C71.8424559,98.224 60.9494559,107.88 46.0594559,104.321 C43.9007892,103.799 40.4811226,106.356333 35.8004559,111.993 C31.3204559,101.041 28.0344559,94.6076667 25.9424559,92.693 C10.9154559,78.923 -0.0575441061,56.418 0.000227047891,37.346 C0.0654558939,14.3 16.2124559,5 36.0684559,16.586 Z M35.8514559,94.1 C52.8654559,104.027 66.7084559,96.063 66.7636206,76.3 C66.8184559,56.559 53.0914559,32.517 36.0894559,22.568 C19.0314559,12.616 5.19445589,20.591 5.13929142,40.347 C5.08445589,60.103 18.8304559,84.171 35.8514559,94.101" id="形状_551" fill="#AED6FE"></path>
                <path d="M91.9604559,65.84 C91.9604559,65.74 91.9494559,65.633 91.9454559,65.53 C91.9374559,65.31 91.9254559,65.089 91.9144559,64.868 C91.9024559,64.609 91.8944559,64.35 91.8784559,64.09 C91.8654559,63.89 91.8454559,63.69 91.8304559,63.49 C91.8134559,63.257 91.7954559,63.025 91.7744559,62.79 C91.7614559,62.636 91.7534559,62.483 91.7384559,62.329 C91.7064559,61.996 91.6644559,61.66 91.6264559,61.329 C91.6044559,61.136 91.5864559,60.944 91.5624559,60.751 C91.5544559,60.687 91.5494559,60.623 91.5414559,60.559 C91.4647892,59.955 91.3784559,59.349 91.2824559,58.741 C91.2824559,58.727 91.2824559,58.713 91.2754559,58.7 C91.2614559,58.613 91.2444559,58.526 91.2304559,58.439 C91.1474559,57.931 91.0614559,57.422 90.9664559,56.911 C90.9484559,56.82 90.9274559,56.728 90.9104559,56.636 C90.8634559,56.394 90.8104559,56.151 90.7624559,55.908 C90.7024559,55.613 90.6474559,55.319 90.5824559,55.023 C90.5464559,54.859 90.5044559,54.694 90.4674559,54.529 C90.4074559,54.2623333 90.3457892,53.9956667 90.2824559,53.729 C90.2344559,53.529 90.1914559,53.329 90.1404559,53.122 C90.0804559,52.878 90.0114559,52.634 89.9484559,52.39 C89.8794559,52.123 89.8104559,51.857 89.7384559,51.59 C89.7034559,51.46 89.6724559,51.331 89.6384559,51.201 C89.5384559,50.853 89.4384559,50.506 89.3384559,50.159 C89.2714559,49.932 89.2084559,49.705 89.1384559,49.478 C89.1194559,49.414 89.1024559,49.351 89.0824559,49.288 C88.8917892,48.664 88.6917892,48.04 88.4824559,47.416 C88.4824559,47.409 88.4824559,47.402 88.4754559,47.394 C88.4554559,47.334 88.4324559,47.275 88.4124559,47.215 C88.2274559,46.666 88.0384559,46.115 87.8394559,45.571 C87.8084559,45.483 87.7734559,45.396 87.7394559,45.309 C87.6634559,45.102 87.5844559,44.895 87.5064559,44.688 C87.3944559,44.388 87.2874559,44.094 87.1714559,43.798 C87.0984559,43.609 87.0194559,43.421 86.9444559,43.232 C86.8524559,43.002 86.7604559,42.772 86.6664559,42.542 C86.5984559,42.375 86.5344559,42.207 86.4664559,42.042 C86.3274559,41.708 86.1814559,41.375 86.0384559,41.042 C85.9614559,40.862 85.8864559,40.682 85.8074559,40.503 C85.7804559,40.441 85.7544559,40.377 85.7274559,40.315 C85.4681226,39.7303333 85.2014559,39.1476667 84.9274559,38.567 L84.8914559,38.493 C84.8134559,38.326 84.7294559,38.161 84.6504559,37.993 C84.4364559,37.546 84.2244559,37.099 84.0024559,36.655 C83.9674559,36.585 83.9294559,36.515 83.8944559,36.445 C83.7114559,36.082 83.5214559,35.721 83.3344559,35.36 C83.1824559,35.068 83.0344559,34.773 82.8804559,34.482 C82.8524559,34.429 82.8214559,34.382 82.7924559,34.325 C82.2884559,33.3856667 81.7671226,32.456 81.2284559,31.536 C81.1834559,31.458 81.1414559,31.378 81.0964559,31.3 C80.9584559,31.066 80.8134559,30.837 80.6734559,30.605 C80.4474559,30.2283333 80.2194559,29.853 79.9894559,29.479 C79.7824559,29.146 79.5714559,28.817 79.3604559,28.487 C79.1257892,28.119 78.8884559,27.7523333 78.6484559,27.387 C78.5684559,27.267 78.4924559,27.143 78.4124559,27.023 C78.3324559,26.903 78.2524559,26.8 78.1754559,26.686 C77.5064559,25.695 76.8254559,24.715 76.1204559,23.758 L76.1024559,23.733 C75.6031226,23.0583333 75.0957892,22.3916667 74.5804559,21.733 C74.5574559,21.704 74.5354559,21.673 74.5124559,21.643 C74.1334559,21.162 73.7474559,20.689 73.3594559,20.219 C73.2824559,20.125 73.2074559,20.028 73.1304559,19.935 C73.1304559,19.935 73.1214559,19.923 73.1164559,19.918 C72.6564559,19.364 72.1897892,18.8183333 71.7164559,18.281 C71.6924559,18.253 71.6684559,18.227 71.6444559,18.2 C71.5034559,18.04 71.3584559,17.884 71.2154559,17.725 C70.9154559,17.389 70.6154559,17.05 70.3084559,16.725 C70.2514559,16.664 70.1934559,16.605 70.1364559,16.544 C69.9304559,16.323 69.7204559,16.108 69.5124559,15.891 C69.2844559,15.651 69.0584559,15.407 68.8274559,15.172 C68.7414559,15.085 68.6534559,15.002 68.5674559,14.916 C68.3434559,14.689 68.1154559,14.467 67.8884559,14.244 C67.6884559,14.051 67.4994559,13.853 67.3004559,13.663 C67.1894559,13.556 67.0744559,13.454 66.9634559,13.348 C66.7184559,13.116 66.4714559,12.889 66.2244559,12.661 C66.0524559,12.503 65.8834559,12.339 65.7104559,12.183 C65.5754559,12.061 65.4364559,11.946 65.3014559,11.826 C65.0534559,11.6073333 64.8051226,11.3906667 64.5564559,11.176 C64.4034559,11.045 64.2564559,10.908 64.1014559,10.776 C63.9464559,10.644 63.7694559,10.506 63.6014559,10.37 C63.3581226,10.17 63.1141226,9.97 62.8694559,9.77 C62.7424559,9.67 62.6174559,9.56 62.4894559,9.459 C62.2814559,9.295 62.0714559,9.141 61.8624559,8.981 C61.6354559,8.806 61.4084559,8.63 61.1784559,8.46 C61.0854559,8.39 60.9944559,8.316 60.9004559,8.247 C60.6204559,8.041 60.3374559,7.847 60.0554559,7.647 C59.8624559,7.51 59.6704559,7.369 59.4754559,7.235 C59.4264559,7.201 59.3754559,7.164 59.3274559,7.129 C58.8174559,6.77966667 58.3047892,6.441 57.7894559,6.113 L57.7754559,6.104 C57.7414559,6.083 57.7064559,6.063 57.6754559,6.041 C57.2064559,5.741 56.7354559,5.454 56.2614559,5.175 C56.1424559,5.105 56.0244559,5.036 55.9054559,4.968 C55.5207892,4.74533333 55.1371226,4.53033333 54.7544559,4.323 C54.6084559,4.245 54.4644559,4.175 54.3194559,4.098 C54.1194559,3.994 53.9224559,3.892 53.7284559,3.792 C53.5754559,3.714 53.4224559,3.63 53.2704559,3.555 C53.0264559,3.434 52.7844559,3.325 52.5414559,3.211 C52.3674559,3.129 52.1934559,3.044 52.0204559,2.965 C51.9484559,2.933 51.8754559,2.896 51.8044559,2.865 C51.3184559,2.647 50.8354559,2.442 50.3554559,2.25 C49.8654559,2.05 49.3781226,1.86666667 48.8934559,1.7 C48.8304559,1.678 48.7684559,1.66 48.7054559,1.638 C48.5314559,1.578 48.3594559,1.525 48.1864559,1.469 C47.9394559,1.388 47.6864559,1.3 47.4444559,1.226 C47.3214559,1.189 47.2004559,1.16 47.0784559,1.126 C46.8654559,1.064 46.6544559,1.007 46.4424559,0.95 C46.2784559,0.906 46.1114559,0.85 45.9424559,0.814 C45.7734559,0.778 45.6024559,0.74 45.4324559,0.7 C45.2194559,0.651 45.0074559,0.6 44.7964559,0.559 C44.6844559,0.536 44.5704559,0.506 44.4584559,0.484 C44.2584559,0.445 44.0644559,0.42 43.8664559,0.384 C43.6214559,0.342 43.3754559,0.298 43.1334559,0.263 C43.0474559,0.251 42.9594559,0.232 42.8734559,0.221 C42.6734559,0.193 42.4734559,0.181 42.2734559,0.159 C42.0124559,0.13 41.7504559,0.1 41.4914559,0.08 C41.4154559,0.074 41.3374559,0.061 41.2624559,0.056 C41.0854559,0.044 40.9154559,0.047 40.7404559,0.039 C40.4324559,0.024 40.1244559,0.011 39.8204559,0.009 C39.7344559,0.009 39.6464559,0 39.5614559,0 C39.4284559,0 39.3004559,0.016 39.1674559,0.019 C38.7844559,0.027 38.4054559,0.044 38.0294559,0.072 C37.9154559,0.081 37.7974559,0.078 37.6844559,0.089 C37.6004559,0.097 37.5204559,0.116 37.4364559,0.125 C36.8614559,0.185 36.2944559,0.264 35.7364559,0.371 C35.6904559,0.38 35.6364559,0.382 35.5944559,0.392 L35.5564559,0.401 C35.4444559,0.424 35.3354559,0.455 35.2234559,0.48 C34.8774559,0.557 34.5324559,0.637 34.1954559,0.733 C34.0324559,0.779 33.8734559,0.833 33.7134559,0.884 C33.4964559,0.952 33.2774559,1.013 33.0654559,1.084 C33.0114559,1.103 32.9654559,1.129 32.9074559,1.148 C32.5834559,1.267 32.2664559,1.401 31.9514559,1.538 C31.7974559,1.605 31.6394559,1.664 31.4884559,1.738 C31.0294559,1.953 30.5804559,2.184 30.1434559,2.438 L30.1344559,2.438 L8.98445589,14.742 C9.42345589,14.486 9.87645589,14.254 10.3384559,14.037 C10.4884559,13.967 10.6454559,13.908 10.7984559,13.837 C11.1144559,13.7 11.4324559,13.565 11.7584559,13.446 C12.0214559,13.346 12.2894559,13.264 12.5584559,13.18 C12.7214559,13.129 12.8814559,13.073 13.0454559,13.027 C13.3824559,12.927 13.7254559,12.852 14.0704559,12.775 C14.1834559,12.75 14.2924559,12.718 14.4064559,12.695 C14.4654559,12.683 14.5274559,12.677 14.5864559,12.665 C15.1404559,12.558 15.7084559,12.479 16.2864559,12.419 C16.4864559,12.399 16.6804559,12.382 16.8784559,12.367 C17.2544559,12.339 17.6344559,12.321 18.0184559,12.313 C18.2354559,12.313 18.4504559,12.301 18.6694559,12.303 C18.9694559,12.303 19.2814559,12.319 19.5904559,12.333 C19.8404559,12.345 20.0904559,12.354 20.3414559,12.374 C20.5924559,12.394 20.8614559,12.425 21.1234559,12.454 C21.4084559,12.485 21.6934559,12.516 21.9814559,12.554 C22.2244559,12.589 22.4704559,12.632 22.7154559,12.674 C23.0234559,12.728 23.3334559,12.783 23.6454559,12.847 C23.8564559,12.891 24.0684559,12.94 24.2814559,12.989 C24.6147892,13.0656667 24.9481226,13.149 25.2814559,13.239 C25.4927892,13.295 25.7047892,13.3533333 25.9174559,13.414 C26.2844559,13.52 26.6544559,13.636 27.0254559,13.758 C27.1984559,13.815 27.3704559,13.868 27.5444559,13.928 C28.6324559,14.304 29.7371226,14.7463333 30.8584559,15.255 C31.0324559,15.334 31.2074559,15.42 31.3814559,15.502 C31.7754559,15.688 32.1694559,15.88 32.5664559,16.082 C32.7664559,16.182 32.9637892,16.284 33.1584559,16.388 C33.6844559,16.666 34.2124559,16.951 34.7444559,17.258 C35.3344559,17.599 35.9214559,17.958 36.5054559,18.326 C36.5424559,18.35 36.5804559,18.371 36.6184559,18.395 C37.1884559,18.758 37.7544559,19.137 38.3184559,19.525 C38.5134559,19.66 38.7054559,19.801 38.8984559,19.938 C39.2744559,20.204 39.6494559,20.473 40.0214559,20.751 C40.2504559,20.922 40.4784559,21.098 40.7054559,21.273 C41.0424559,21.532 41.3784559,21.793 41.7124559,22.061 C41.9577892,22.261 42.2017892,22.461 42.4444559,22.661 C42.7631226,22.9276667 43.0807892,23.1943333 43.3974559,23.461 C43.6467892,23.6756667 43.8947892,23.8923333 44.1414559,24.111 C44.4514559,24.3856667 44.7594559,24.6643333 45.0654559,24.947 C45.3124559,25.174 45.5594559,25.402 45.8034559,25.634 C46.1144559,25.928 46.4224559,26.228 46.7294559,26.534 C46.9564559,26.757 47.1834559,26.979 47.4084559,27.206 C47.7264559,27.526 48.0404559,27.853 48.3534559,28.181 C48.5614559,28.399 48.7704559,28.614 48.9774559,28.835 C49.3394559,29.223 49.6964559,29.618 50.0524559,30.016 C50.1964559,30.177 50.3434559,30.334 50.4864559,30.497 C50.9871226,31.0663333 51.4817892,31.6443333 51.9704559,32.231 C52.0484559,32.325 52.1244559,32.423 52.2024559,32.518 C52.6124559,33.018 53.0194559,33.518 53.4194559,34.027 C53.9354559,34.685 54.4431226,35.3516667 54.9424559,36.027 C54.9484559,36.036 54.9554559,36.044 54.9614559,36.052 C55.6674559,37.01 56.3484559,37.991 57.0174559,38.982 C57.1744559,39.214 57.3324559,39.446 57.4874559,39.682 C57.7294559,40.047 57.9664559,40.416 58.2024559,40.782 C58.4124559,41.111 58.6234559,41.44 58.8304559,41.772 C59.0611226,42.1446667 59.2891226,42.52 59.5144559,42.898 C59.7004559,43.208 59.8874559,43.517 60.0694559,43.83 C60.6074559,44.75 61.1287892,45.6793333 61.6334559,46.618 C61.8174559,46.962 61.9954559,47.308 62.1744559,47.653 C62.3624559,48.014 62.5524559,48.375 62.7354559,48.738 C62.9934559,49.252 63.2434559,49.769 63.4914559,50.287 C63.5704559,50.453 63.6534559,50.618 63.7324559,50.787 C64.0451226,51.4536667 64.3491226,52.1236667 64.6444559,52.797 C64.7234559,52.976 64.7984559,53.157 64.8754559,53.336 C65.0901226,53.8353333 65.3001226,54.3353333 65.5054559,54.836 C65.5994559,55.066 65.6914559,55.296 65.7834559,55.526 C65.9754559,56.0113333 66.1627892,56.497 66.3454559,56.983 C66.4224559,57.19 66.5024559,57.396 66.5784559,57.603 C66.8104559,58.237 67.0341226,58.8723333 67.2494559,59.509 C67.2694559,59.569 67.2924559,59.629 67.3114559,59.688 C67.5447892,60.3833333 67.7661226,61.0786667 67.9754559,61.774 C68.0434559,61.998 68.1064559,62.223 68.1754559,62.447 C68.3154559,62.926 68.4534559,63.406 68.5834559,63.885 C68.6554559,64.151 68.7244559,64.418 68.7934559,64.685 C68.9094559,65.1323333 69.0207892,65.5786667 69.1274559,66.024 C69.1901226,66.2906667 69.2517892,66.5573333 69.3124559,66.824 C69.4124559,67.284 69.5124559,67.743 69.6074559,68.203 C69.6564559,68.445 69.7074559,68.688 69.7554559,68.931 C69.8707892,69.531 69.9771226,70.131 70.0744559,70.731 C70.0894559,70.817 70.1064559,70.904 70.1194559,70.991 C70.2287892,71.6776667 70.3247892,72.362 70.4074559,73.044 C70.4304559,73.236 70.4494559,73.426 70.4714559,73.617 C70.5264559,74.107 70.5774559,74.597 70.6194559,75.085 C70.6394559,75.318 70.6574559,75.55 70.6754559,75.785 C70.7094559,76.249 70.7374559,76.71 70.7594559,77.171 C70.7704559,77.389 70.7824559,77.608 70.7904559,77.826 C70.8134559,78.478 70.8284559,79.126 70.8274559,79.771 C70.8274559,80.446 70.8064559,81.106 70.7774559,81.756 C70.7684559,81.949 70.7534559,82.135 70.7424559,82.326 C70.7164559,82.77 70.6874559,83.211 70.6484559,83.644 C70.6264559,83.885 70.6004559,84.122 70.5744559,84.359 C70.5344559,84.732 70.4914559,85.101 70.4414559,85.465 C70.4044559,85.739 70.3634559,86.009 70.3204559,86.277 C70.2684559,86.607 70.2124559,86.932 70.1524559,87.254 C70.0974559,87.547 70.0394559,87.836 69.9774559,88.123 C69.9154559,88.41 69.8484559,88.707 69.7774559,88.994 C69.6984559,89.319 69.6154559,89.638 69.5274559,89.954 C69.4564559,90.211 69.3834559,90.467 69.3064559,90.718 C69.1874559,91.109 69.0594559,91.49 68.9274559,91.866 C68.8554559,92.066 68.7854559,92.278 68.7094559,92.479 C68.4664559,93.121 68.2094559,93.746 67.9234559,94.344 C67.7294559,94.754 67.5264559,95.154 67.3144559,95.544 C67.2904559,95.588 67.2694559,95.636 67.2444559,95.68 C67.0024559,96.119 66.7444559,96.543 66.4834559,96.953 C66.4344559,97.03 66.3834559,97.101 66.3324559,97.177 C66.1277892,97.4856667 65.9164559,97.7856667 65.6984559,98.077 C65.6134559,98.192 65.5264559,98.304 65.4394559,98.417 C65.2394559,98.677 65.0321226,98.9303333 64.8174559,99.177 C64.7354559,99.277 64.6544559,99.371 64.5714559,99.464 C64.2784559,99.791 63.9794559,100.107 63.6714559,100.408 C63.6314559,100.447 63.5894559,100.482 63.5494559,100.521 C63.2741226,100.782333 62.9927892,101.033333 62.7054559,101.274 C62.6054559,101.36 62.5004559,101.442 62.3964559,101.525 C62.1537892,101.720333 61.9057892,101.908333 61.6524559,102.089 C61.5524559,102.164 61.4464559,102.24 61.3404559,102.312 C60.9904559,102.552 60.6344559,102.783 60.2674559,102.996 L81.4234559,90.696 C81.7904559,90.483 82.1464559,90.252 82.4974559,90.012 C82.6024559,89.94 82.7054559,89.864 82.8084559,89.789 C83.0617892,89.6076667 83.3101226,89.4193333 83.5534559,89.224 C83.6534559,89.142 83.7604559,89.06 83.8614559,88.975 C84.1494559,88.733 84.4307892,88.4813333 84.7054559,88.22 C84.7464559,88.182 84.7884559,88.147 84.8274559,88.108 C85.1374559,87.808 85.4374559,87.49 85.7274559,87.163 C85.8114559,87.07 85.8914559,86.973 85.9724559,86.878 C86.1851226,86.6313333 86.3927892,86.3776667 86.5954559,86.117 C86.6824559,86.004 86.7694559,85.891 86.8544559,85.776 C87.0724559,85.4826667 87.2837892,85.1826667 87.4884559,84.876 C87.5384559,84.801 87.5884559,84.729 87.6394559,84.653 C87.6534559,84.632 87.6684559,84.612 87.6824559,84.59 C87.9317892,84.2 88.1714559,83.7966667 88.4014559,83.38 C88.4254559,83.336 88.4464559,83.289 88.4704559,83.245 C88.6704559,82.876 88.8704559,82.501 89.0514559,82.113 C89.0614559,82.09 89.0694559,82.066 89.0804559,82.044 C89.3624559,81.444 89.6224559,80.822 89.8654559,80.179 C89.8874559,80.122 89.9144559,80.072 89.9354559,80.014 C89.9894559,79.87 90.0354559,79.714 90.0834559,79.566 C90.2164559,79.19 90.3444559,78.809 90.4634559,78.419 C90.4954559,78.311 90.5354559,78.211 90.5634559,78.103 C90.6064559,77.958 90.6394559,77.803 90.6804559,77.655 C90.7671226,77.339 90.8501226,77.019 90.9294559,76.695 C90.9634559,76.556 91.0044559,76.425 91.0364559,76.284 C91.0684559,76.143 91.0964559,75.975 91.1284559,75.823 C91.1904559,75.537 91.2487892,75.2473333 91.3034559,74.954 C91.3314559,74.804 91.3664559,74.661 91.3924559,74.509 C91.4224559,74.336 91.4434559,74.153 91.4714559,73.978 C91.5144559,73.709 91.5554559,73.439 91.5924559,73.166 C91.6114559,73.027 91.6364559,72.894 91.6544559,72.753 C91.6824559,72.526 91.7004559,72.29 91.7254559,72.06 C91.7504559,71.83 91.7784559,71.586 91.7994559,71.344 C91.8084559,71.244 91.8224559,71.144 91.8304559,71.044 C91.8574559,70.71 91.8734559,70.367 91.8934559,70.027 C91.9044559,69.836 91.9204559,69.649 91.9284559,69.456 C91.9284559,69.409 91.9354559,69.365 91.9374559,69.318 C91.9614559,68.746 91.9747892,68.165 91.9774559,67.575 C91.9774559,67.54 91.9774559,67.506 91.9774559,67.475 C91.9821226,66.9316667 91.9764559,66.3866667 91.9604559,65.84 Z" id="形状_552" fill="#74ACE3"></path>
                <g id="形状_546">
                    <use fill="#B4DCFD" xlink:href="#path-10"></use>
                    <use fill="url(#linearGradient-9)" xlink:href="#path-10"></use>
                </g>
            </g>
        </g>
    </g>
</svg>