<?xml version="1.0" encoding="UTF-8"?>
<svg width="77px" height="62px" viewBox="0 0 77 62" version="1.1" xmlns="http://www.w3.org/2000/svg" xmlns:xlink="http://www.w3.org/1999/xlink">
    <title>二人合租</title>
    <defs>
        <linearGradient x1="50%" y1="-23.2698085%" x2="50%" y2="100%" id="linearGradient-1">
            <stop stop-color="#B2DCFF" offset="0%"></stop>
            <stop stop-color="#54A6FA" offset="100%"></stop>
        </linearGradient>
    </defs>
    <g id="页面-1" stroke="none" stroke-width="1" fill="none" fill-rule="evenodd">
        <g id="二人合租" fill-rule="nonzero">
            <ellipse id="椭圆形备份" fill="#E5F3FF" cx="38.5" cy="49" rx="38.5" ry="13"></ellipse>
            <g id="path-3-link" transform="translate(10.000000, 0.000000)" fill="url(#linearGradient-1)">
                <path d="M27,0 C28.6392165,0 30.2119783,0.697886368 31.3417085,1.9220477 L47.9443134,19.6437851 L49.1183468,20.890828 L52.1974156,24.1743262 C54.464236,26.5913763 54.5930949,30.4230315 52.5839924,33.00091 L32,33 C30.8954305,33 30,33.8954305 30,35 L30,35 L30,58.994 L26.8529382,59 L14.3957543,59 C9.13475539,59 4.88165319,54.5953073 4.88165319,49.172387 L4.88165319,33.4642234 L1.80258439,33.4642234 C-0.600861463,30.8671708 -0.600861463,26.7828195 1.80258439,24.1857669 L4.88165319,20.9022688 L6.05568659,19.6437851 L22.6582915,1.9220477 C23.7880217,0.697886368 25.3607835,0 27,0 Z M22,33 L15,33 C13.8954305,33 13,33.8954305 13,35 L13,35 L13,45 C13,46.1045695 13.8954305,47 15,47 L15,47 L22,47 C23.1045695,47 24,46.1045695 24,45 L24,45 L24,35 C24,33.8954305 23.1045695,33 22,33 L22,33 Z" id="path-3"></path>
            </g>
            <g id="二" transform="translate(45.300000, 41.820000)" fill="#388CFF">
                <path d="M15.52,0 C15.72,0 15.8766667,0.0633333333 15.99,0.19 C16.1033333,0.316666667 16.16,0.486666667 16.16,0.7 L16.16,1.94 C16.16,2.15333333 16.1033333,2.32333333 15.99,2.45 C15.8766667,2.57666667 15.72,2.64 15.52,2.64 L1.84,2.64 C1.64,2.64 1.48333333,2.57666667 1.37,2.45 C1.25666667,2.32333333 1.2,2.15333333 1.2,1.94 L1.2,0.7 C1.2,0.486666667 1.25666667,0.316666667 1.37,0.19 C1.48333333,0.0633333333 1.64,0 1.84,0 L15.52,0 Z M16.72,12.32 C16.92,12.32 17.0766667,12.3833333 17.19,12.51 C17.3033333,12.6366667 17.36,12.8066667 17.36,13.02 L17.36,14.26 C17.36,14.4733333 17.3033333,14.6433333 17.19,14.77 C17.0766667,14.8966667 16.92,14.96 16.72,14.96 L0.64,14.96 C0.44,14.96 0.283333333,14.8966667 0.17,14.77 C0.0566666667,14.6433333 0,14.4733333 0,14.26 L0,13.02 C0,12.8066667 0.0566666667,12.6366667 0.17,12.51 C0.283333333,12.3833333 0.44,12.32 0.64,12.32 L16.72,12.32 Z" id="形状"></path>
            </g>
        </g>
    </g>
</svg>