<?xml version="1.0" encoding="UTF-8"?>
<svg width="77px" height="65px" viewBox="0 0 77 65" version="1.1" xmlns="http://www.w3.org/2000/svg" xmlns:xlink="http://www.w3.org/1999/xlink">
    <title>孤寡老人</title>
    <defs>
        <linearGradient x1="50%" y1="-23.2698085%" x2="50%" y2="100%" id="linearGradient-1">
            <stop stop-color="#B2DCFF" offset="0%"></stop>
            <stop stop-color="#54A6FA" offset="100%"></stop>
        </linearGradient>
    </defs>
    <g id="页面-1" stroke="none" stroke-width="1" fill="none" fill-rule="evenodd">
        <g id="孤寡老人" fill-rule="nonzero">
            <ellipse id="椭圆形备份" fill="#E5F3FF" cx="38.5" cy="52" rx="38.5" ry="13"></ellipse>
            <g id="path-2-link" transform="translate(13.000000, 0.000000)" fill="url(#linearGradient-1)">
                <path d="M34.1718496,24.1129568 C34.0055398,24.786268 33.8392301,25.3964563 33.6729204,25.9435216 C33.5066107,26.406423 33.2987236,26.879845 33.049259,27.3637874 C32.7997944,27.8477298 32.5295411,28.2159468 32.2384991,28.4684385 C31.8643022,28.7630122 31.6044433,29.0786268 31.4589223,29.4152824 C31.3134013,29.751938 31.188669,30.0991141 31.0847254,30.4568106 C30.9807819,30.8145072 30.8664439,31.1827243 30.7417116,31.5614618 C30.6169794,31.9401993 30.4090922,32.3189369 30.1180502,32.6976744 C29.1617693,33.9601329 28.4445587,35.1805094 27.9664182,36.358804 C27.4882778,37.5370986 27.1556584,38.6733112 26.9685599,39.7674419 C26.7814615,40.8615725 26.7294897,41.9451827 26.8126446,43.0182724 C26.8957994,44.0913621 27.0621091,45.1328904 27.3115737,46.1428571 C27.4778834,46.9003322 27.727348,47.6893688 28.0599674,48.5099668 C28.3925869,49.3305648 28.8811217,50.1722038 29.5255718,51.0348837 C30.170022,51.8975637 30.9911762,52.7392027 31.9890345,53.5598007 C32.9868928,54.3803987 34.2342157,55.1694352 35.7310032,55.9269103 C34.7331449,56.13732 33.5689768,56.3266888 32.2384991,56.4950166 C31.1159085,56.6212625 29.733459,56.7369878 28.0911505,56.8421927 C26.4488421,56.9473976 24.5674634,57 22.4470145,57 C21.3660013,57 20.1082841,56.9579181 18.6738628,56.8737542 C17.2394414,56.7895903 15.7634427,56.6843854 14.2458665,56.5581395 C12.7282904,56.4318937 11.2315029,56.2846069 9.75550415,56.1162791 C8.27950541,55.9479513 6.92823896,55.769103 5.70170479,55.5797342 C4.47517062,55.3903654 3.43573489,55.1904762 2.58339758,54.9800664 C1.73106028,54.7696567 1.20094806,54.5802879 0.99306091,54.4119601 C0.618864045,54.0753045 0.327822039,53.1389812 0.119934892,51.60299 C-0.0879522544,50.0669989 -0.0255861103,48.0575858 0.307033325,45.5747508 C0.514920472,44.1860465 1.06582141,43.1234773 1.95973614,42.3870432 C2.85365088,41.6506091 3.90348097,41.0719823 5.10922642,40.6511628 C6.31497187,40.2303433 7.57268911,39.8410853 8.88237814,39.4833887 C10.1920672,39.1256921 11.3458408,38.6312292 12.3436991,38 C13.1336703,37.4950166 13.736543,37.0215947 14.1523173,36.5797342 C14.5680916,36.1378738 14.8591336,35.6854928 15.0254433,35.2225914 C15.191753,34.7596899 15.2749079,34.2757475 15.2749079,33.7707641 C15.2749079,33.2657807 15.2541192,32.7187154 15.2125418,32.1295681 C15.1293869,31.2458472 14.8279505,30.551495 14.3082327,30.0465116 C13.7885148,29.5415282 13.2376139,29.0365449 12.6555299,28.5315615 C12.3229104,28.2790698 12.0318684,27.9003322 11.7824038,27.3953488 C11.5329393,26.8903654 11.3250521,26.406423 11.1587424,25.9435216 C10.9508553,25.3964563 10.7845455,24.786268 10.6598132,24.1129568 C10.3687712,24.0287929 10.0985179,23.9025471 9.84905337,23.7342193 C9.64116622,23.5658915 9.41249036,23.3133998 9.16302579,22.9767442 C8.91356121,22.6400886 8.68488535,22.1351052 8.4769982,21.461794 C8.26911105,20.8305648 8.19635055,20.2414175 8.2587167,19.6943522 C8.32108284,19.1472868 8.43542077,18.6843854 8.60173049,18.3056478 C8.76804021,17.8427464 8.99671607,17.4429679 9.28775807,17.1063123 C9.28775807,15.675526 9.37091293,14.2447398 9.53722265,12.8139535 C9.70353237,11.593577 9.9633913,10.2890365 10.3167995,8.90033223 C10.6702076,7.51162791 11.2418973,6.27021041 12.0318684,5.17607973 C12.7802621,4.12403101 13.5806277,3.26135105 14.432965,2.58803987 C15.2853023,1.91472868 16.1688226,1.38870432 17.0835261,1.00996678 C17.9982295,0.631229236 18.912933,0.368217054 19.8276364,0.220930233 C20.7423399,0.0736434109 21.6154659,0 22.4470145,0 C23.5280276,0 24.5674634,0.126245847 25.5653217,0.378737542 C26.56318,0.631229236 27.4882778,0.967884828 28.3406151,1.38870432 C29.1929524,1.80952381 29.9517405,2.28294574 30.6169794,2.8089701 C31.2822182,3.33499446 31.8227248,3.87153931 32.2384991,4.41860465 C33.19478,5.63898117 33.8912019,6.98560354 34.3277649,8.45847176 C34.7643279,9.93133998 35.086553,11.3200443 35.2944402,12.6245847 C35.5023273,14.1395349 35.5854822,15.654485 35.5439047,17.1694352 C35.7933693,17.379845 36.0012565,17.6323367 36.1675662,17.9269103 C36.3338759,18.179402 36.4586082,18.5160576 36.541763,18.9368771 C36.6249179,19.3576966 36.6249179,19.8837209 36.541763,20.5149502 C36.4586082,21.3145072 36.2922985,21.9457364 36.0428339,22.4086379 C35.7933693,22.8715393 35.523116,23.2292359 35.232074,23.4817276 C34.8994546,23.7763012 34.5460464,23.986711 34.1718496,24.1129568 L34.1718496,24.1129568 Z" id="path-2"></path>
            </g>
            <g id="孤" transform="translate(47.800000, 34.238000)" fill="#388CFF">
                <path d="M9.34,16.902 C9.32666667,17.342 9.11333333,17.562 8.7,17.562 L6.76,17.562 C6.54666667,17.562 6.38666667,17.4986667 6.28,17.372 C6.17333333,17.2453333 6.12666667,17.0686667 6.14,16.842 L7.16,1.342 C7.18666667,0.915333333 7.39333333,0.688666667 7.78,0.662 L17.24,0.00199999999 C17.4533333,-0.0113333333 17.6166667,0.042 17.73,0.162 C17.8433333,0.282 17.9,0.455333333 17.9,0.682 L17.9,1.902 C17.9,2.12866667 17.8466667,2.302 17.74,2.422 C17.6333333,2.542 17.48,2.60866667 17.28,2.622 L10.24,3.102 L9.34,16.902 Z M4.78,16.862 C4.78,17.0753333 4.72333333,17.2453333 4.61,17.372 C4.49666667,17.4986667 4.34,17.562 4.14,17.562 L0.96,17.562 C0.76,17.562 0.603333333,17.4986667 0.49,17.372 C0.376666667,17.2453333 0.32,17.0753333 0.32,16.862 L0.32,15.722 C0.32,15.5086667 0.37,15.3353333 0.47,15.202 C0.57,15.0686667 0.706666667,15.002 0.88,15.002 L1.42,15.002 L1.42,11.542 L0.68,11.682 C0.64,11.6953333 0.58,11.702 0.5,11.702 C0.166666667,11.702 0,11.4886667 0,11.062 L0,9.802 C0,9.38866667 0.186666667,9.12866667 0.56,9.022 L1.42,8.842 L1.42,6.362 C1.42,6.042 1.49333333,5.75533333 1.64,5.502 L3.08,3.002 L0.86,3.002 C0.66,3.002 0.503333333,2.93866667 0.39,2.812 C0.276666667,2.68533333 0.22,2.51533333 0.22,2.302 L0.22,1.062 C0.22,0.848666667 0.276666667,0.678666667 0.39,0.552 C0.503333333,0.425333333 0.66,0.362 0.86,0.362 L5.94,0.362 C6.14,0.362 6.29666667,0.425333333 6.41,0.552 C6.52333333,0.678666667 6.58,0.848666667 6.58,1.062 L6.58,2.542 C6.58,2.83533333 6.50666667,3.122 6.36,3.402 L4.78,6.362 L4.78,8.122 L5.62,7.942 C5.66,7.92866667 5.71333333,7.922 5.78,7.922 C5.94,7.922 6.06666667,7.97533333 6.16,8.082 C6.25333333,8.18866667 6.3,8.34866667 6.3,8.562 L6.3,9.842 C6.3,10.2686667 6.11333333,10.522 5.74,10.602 L4.78,10.802 L4.78,16.862 Z M18.36,16.842 C18.4,17.322 18.2,17.562 17.76,17.562 L16.08,17.562 C15.8933333,17.562 15.7433333,17.5053333 15.63,17.392 C15.5166667,17.2786667 15.4466667,17.1153333 15.42,16.902 L14.26,3.902 C14.22,3.422 14.42,3.182 14.86,3.182 L16.54,3.182 C16.7266667,3.182 16.88,3.23866667 17,3.352 C17.12,3.46533333 17.1866667,3.62866667 17.2,3.842 L18.36,16.842 Z M13.72,9.402 C13.9066667,9.402 14.06,9.45866667 14.18,9.572 C14.3,9.68533333 14.3666667,9.84866667 14.38,10.062 L15,16.842 C15.04,17.322 14.84,17.562 14.4,17.562 L10.62,17.562 C10.42,17.562 10.2633333,17.4986667 10.15,17.372 C10.0366667,17.2453333 9.98,17.0753333 9.98,16.862 L9.98,15.142 L10.72,3.922 C10.7466667,3.482 10.96,3.262 11.36,3.262 L12.88,3.262 C13.0933333,3.262 13.2533333,3.32533333 13.36,3.452 C13.4666667,3.57866667 13.5133333,3.75533333 13.5,3.982 L13.12,9.402 L13.72,9.402 Z M13.08,9.942 L12.74,15.142 L13.56,15.142 L13.08,9.942 Z" id="形状"></path>
            </g>
        </g>
    </g>
</svg>