<?xml version="1.0" encoding="UTF-8"?>
<svg width="77px" height="63px" viewBox="0 0 77 63" version="1.1" xmlns="http://www.w3.org/2000/svg" xmlns:xlink="http://www.w3.org/1999/xlink">
    <title>家庭租住</title>
    <defs>
        <linearGradient x1="50%" y1="-23.2698085%" x2="50%" y2="100%" id="linearGradient-1">
            <stop stop-color="#B2DCFF" offset="0%"></stop>
            <stop stop-color="#54A6FA" offset="100%"></stop>
        </linearGradient>
    </defs>
    <g id="页面-1" stroke="none" stroke-width="1" fill="none" fill-rule="evenodd">
        <g id="家庭租住" fill-rule="nonzero">
            <ellipse id="椭圆形备份" fill="#E5F3FF" cx="38.5" cy="50" rx="38.5" ry="13"></ellipse>
            <g id="path-3-link" transform="translate(11.000000, 0.000000)" fill="url(#linearGradient-1)">
                <path d="M27,0 C28.6392165,0 30.2119783,0.697886368 31.3417085,1.9220477 L47.9443134,19.6437851 L49.1183468,20.890828 L52.1974156,24.1743262 C54.464236,26.5913763 54.5930949,30.4230315 52.5839924,33.00091 L32,33 C30.8954305,33 30,33.8954305 30,35 L30,35 L30,58.994 L26.8529382,59 L14.3957543,59 C9.13475542,59 4.88165323,54.5953073 4.88165323,49.172387 L4.88165323,33.4642234 L1.80258443,33.4642234 C-0.600861475,30.8671708 -0.600861475,26.7828195 1.80258443,24.1857669 L4.88165323,20.9022688 L6.05568663,19.6437851 L22.6582915,1.9220477 C23.7880217,0.697886368 25.3607835,0 27,0 Z M22,33 L15,33 C13.8954305,33 13,33.8954305 13,35 L13,35 L13,45 C13,46.1045695 13.8954305,47 15,47 L15,47 L22,47 C23.1045695,47 24,46.1045695 24,45 L24,45 L24,35 C24,33.8954305 23.1045695,33 22,33 L22,33 Z" id="path-3"></path>
            </g>
            <g id="家" transform="translate(46.600000, 40.180000)" fill="#388CFF">
                <path d="M3.32,3.92 C3.32,4.06666667 3.26333333,4.18333333 3.15,4.27 C3.03666667,4.35666667 2.88,4.4 2.68,4.4 L0.64,4.4 C0.44,4.4 0.283333333,4.33666667 0.17,4.21 C0.0566666667,4.08333333 0,3.91333333 0,3.7 L0,1.74 C0,1.52666667 0.0566666667,1.35666667 0.17,1.23 C0.283333333,1.10333333 0.44,1.04 0.64,1.04 L6.58,1.04 L6.52,0.76 C6.50666667,0.706666667 6.5,0.64 6.5,0.56 C6.5,0.386666667 6.55333333,0.25 6.66,0.15 C6.76666667,0.05 6.90666667,0 7.08,0 L9.26,0 C9.64666667,0 9.87333333,0.166666667 9.94,0.5 L10.04,1.04 L16.16,1.04 C16.36,1.04 16.5166667,1.10333333 16.63,1.23 C16.7433333,1.35666667 16.8,1.52666667 16.8,1.74 L16.8,3.7 C16.8,3.91333333 16.7433333,4.08333333 16.63,4.21 C16.5166667,4.33666667 16.36,4.4 16.16,4.4 L14.12,4.4 C13.92,4.4 13.7633333,4.35666667 13.65,4.27 C13.5366667,4.18333333 13.48,4.06666667 13.48,3.92 L13.48,3.46 L3.32,3.46 L3.32,3.92 Z M10.06,7.7 C10.2066667,7.95333333 10.28,8.24 10.28,8.56 L10.28,16.92 C10.28,17.1333333 10.2233333,17.3033333 10.11,17.43 C9.99666667,17.5566667 9.84,17.62 9.64,17.62 L5.42,17.62 C5.22,17.62 5.06333333,17.5566667 4.95,17.43 C4.83666667,17.3033333 4.78,17.1333333 4.78,16.92 L4.78,15.64 L0.72,17.02 C0.626666667,17.06 0.54,17.08 0.46,17.08 C0.313333333,17.08 0.2,17.0266667 0.12,16.92 C0.04,16.8133333 0,16.66 0,16.46 L0,15.2 C0,14.8 0.173333333,14.5466667 0.52,14.44 L6.88,12.26 L6.88,11.68 L0.72,13.74 C0.626666667,13.78 0.54,13.8 0.46,13.8 C0.313333333,13.8 0.2,13.7466667 0.12,13.64 C0.04,13.5333333 0,13.38 0,13.18 L0,11.98 C0,11.58 0.173333333,11.32 0.52,11.2 L6.88,9.06 L6.88,8.5 L0.72,10.52 C0.613333333,10.5466667 0.54,10.56 0.5,10.56 C0.166666667,10.56 0,10.3533333 0,9.94 L0,8.74 C0,8.34 0.18,8.08 0.54,7.96 L3.94,6.92 L1.74,6.92 C1.54,6.92 1.38333333,6.85666667 1.27,6.73 C1.15666667,6.60333333 1.1,6.43333333 1.1,6.22 L1.1,5.44 C1.1,5.21333333 1.15666667,5.03666667 1.27,4.91 C1.38333333,4.78333333 1.54,4.72 1.74,4.72 L15.04,4.72 C15.24,4.72 15.3966667,4.78333333 15.51,4.91 C15.6233333,5.03666667 15.68,5.21333333 15.68,5.44 L15.68,6.22 C15.68,6.43333333 15.6233333,6.60333333 15.51,6.73 C15.3966667,6.85666667 15.24,6.92 15.04,6.92 L9.6,6.92 L10.06,7.7 Z M17,9.92 C17,10.2933333 16.84,10.56 16.52,10.72 L14.98,11.46 L16.3,16.86 C16.3266667,16.9666667 16.34,17.0466667 16.34,17.1 C16.34,17.26 16.2866667,17.3866667 16.18,17.48 C16.0733333,17.5733333 15.9333333,17.62 15.76,17.62 L13.62,17.62 C13.2466667,17.62 13.0133333,17.42 12.92,17.02 L10.76,8.3 C10.7333333,8.19333333 10.72,8.11333333 10.72,8.06 C10.72,7.9 10.7733333,7.77 10.88,7.67 C10.9866667,7.57 11.1266667,7.52 11.3,7.52 L13.44,7.52 C13.8133333,7.52 14.0466667,7.72 14.14,8.12 L14.34,8.88 L16.26,7.96 C16.3666667,7.90666667 16.4666667,7.88 16.56,7.88 C16.8533333,7.88 17,8.08666667 17,8.5 L17,9.92 Z M6.88,14.92 L5.14,15.5 L6.88,15.5 L6.88,14.92 Z" id="形状"></path>
            </g>
        </g>
    </g>
</svg>