<?xml version="1.0" encoding="UTF-8"?>
<svg width="77px" height="62px" viewBox="0 0 77 62" version="1.1" xmlns="http://www.w3.org/2000/svg" xmlns:xlink="http://www.w3.org/1999/xlink">
    <title>空置房屋</title>
    <defs>
        <linearGradient x1="50%" y1="-23.2698085%" x2="50%" y2="100%" id="linearGradient-1">
            <stop stop-color="#B2DCFF" offset="0%"></stop>
            <stop stop-color="#54A6FA" offset="100%"></stop>
        </linearGradient>
    </defs>
    <g id="页面-1" stroke="none" stroke-width="1" fill="none" fill-rule="evenodd">
        <g id="空置房屋" fill-rule="nonzero">
            <ellipse id="椭圆形备份" fill="#E5F3FF" cx="38.5" cy="49" rx="38.5" ry="13"></ellipse>
            <g id="形状结合备份-8" transform="translate(11.000000, 0.000000)" fill="url(#linearGradient-1)">
                <g id="path-3-link" transform="translate(0.000000, 0.000000)">
                    <path d="M27,0 C28.6392165,0 30.2119783,0.697886368 31.3417085,1.9220477 L47.9443134,19.6437851 L49.1183468,20.890828 L52.1974156,24.1743262 C54.464236,26.5913763 54.5930949,30.4230315 52.5839924,33.00091 L32,33 C30.8954305,33 30,33.8954305 30,35 L30,35 L30,58.994 L26.8529382,59 L14.3957543,59 C9.13475542,59 4.88165323,54.5953073 4.88165323,49.172387 L4.88165323,33.4642234 L1.80258443,33.4642234 C-0.600861475,30.8671708 -0.600861475,26.7828195 1.80258443,24.1857669 L4.88165323,20.9022688 L6.05568663,19.6437851 L22.6582915,1.9220477 C23.7880217,0.697886368 25.3607835,0 27,0 Z M22,33 L15,33 C13.8954305,33 13,33.8954305 13,35 L13,35 L13,45 C13,46.1045695 13.8954305,47 15,47 L15,47 L22,47 C23.1045695,47 24,46.1045695 24,45 L24,45 L24,35 C24,33.8954305 23.1045695,33 22,33 L22,33 Z" id="path-3"></path>
                </g>
            </g>
            <g id="空" transform="translate(45.800000, 40.200000)" fill="#388CFF">
                <path d="M1.2,8.2 C1.02666667,8.2 0.893333333,8.16333333 0.8,8.09 C0.706666667,8.01666667 0.66,7.92 0.66,7.8 C0.66,7.65333333 0.74,7.5 0.9,7.34 L3.54,4.64 L1.04,4.64 C0.84,4.64 0.683333333,4.57666667 0.57,4.45 C0.456666667,4.32333333 0.4,4.15333333 0.4,3.94 L0.4,1.74 C0.4,1.52666667 0.456666667,1.35666667 0.57,1.23 C0.683333333,1.10333333 0.84,1.04 1.04,1.04 L7.46,1.04 L7.42,0.74 C7.39333333,0.5 7.43,0.316666667 7.53,0.19 C7.63,0.0633333333 7.78666667,0 8,0 L10.18,0 C10.3666667,0 10.52,0.0433333333 10.64,0.13 C10.76,0.216666667 10.8266667,0.34 10.84,0.5 L10.9,1.04 L17.36,1.04 C17.56,1.04 17.7166667,1.10333333 17.83,1.23 C17.9433333,1.35666667 18,1.52666667 18,1.74 L18,3.94 C18,4.15333333 17.9433333,4.32333333 17.83,4.45 C17.7166667,4.57666667 17.56,4.64 17.36,4.64 L15,4.64 L17.64,7.34 C17.8,7.5 17.88,7.65333333 17.88,7.8 C17.88,7.92 17.8333333,8.01666667 17.74,8.09 C17.6466667,8.16333333 17.5133333,8.2 17.34,8.2 L14.64,8.2 C14.3466667,8.2 14.0866667,8.09333333 13.86,7.88 L10.96,5.04 C10.7866667,4.86666667 10.7,4.70666667 10.7,4.56 C10.7,4.45333333 10.75,4.36333333 10.85,4.29 C10.95,4.21666667 11.0866667,4.18 11.26,4.18 L14.1,4.18 C14.4066667,4.18 14.58,4.2 14.62,4.24 L14.68,4.32 L14.68,3.54 L3.72,3.54 L3.72,4.44 C3.88,4.26666667 4.12,4.18 4.44,4.18 L7.28,4.18 C7.45333333,4.18 7.59,4.21666667 7.69,4.29 C7.79,4.36333333 7.84,4.45333333 7.84,4.56 C7.84,4.70666667 7.75333333,4.86666667 7.58,5.04 L4.68,7.88 C4.45333333,8.09333333 4.19333333,8.2 3.9,8.2 L1.2,8.2 Z M17.72,14.96 C17.92,14.96 18.0766667,15.0233333 18.19,15.15 C18.3033333,15.2766667 18.36,15.4466667 18.36,15.66 L18.36,16.9 C18.36,17.1133333 18.3033333,17.2833333 18.19,17.41 C18.0766667,17.5366667 17.92,17.6 17.72,17.6 L0.64,17.6 C0.44,17.6 0.283333333,17.5366667 0.17,17.41 C0.0566666667,17.2833333 0,17.1133333 0,16.9 L0,15.66 C0,15.4466667 0.0566666667,15.2766667 0.17,15.15 C0.283333333,15.0233333 0.44,14.96 0.64,14.96 L7.48,14.96 L7.48,11.38 L2.22,11.38 C2.02,11.38 1.86333333,11.3166667 1.75,11.19 C1.63666667,11.0633333 1.58,10.8866667 1.58,10.66 L1.58,9.44 C1.58,9.22666667 1.63666667,9.05666667 1.75,8.93 C1.86333333,8.80333333 2.02,8.74 2.22,8.74 L16.16,8.74 C16.36,8.74 16.5166667,8.80333333 16.63,8.93 C16.7433333,9.05666667 16.8,9.22666667 16.8,9.44 L16.8,10.66 C16.8,10.8866667 16.7433333,11.0633333 16.63,11.19 C16.5166667,11.3166667 16.36,11.38 16.16,11.38 L10.88,11.38 L10.88,14.96 L17.72,14.96 Z" id="形状"></path>
            </g>
        </g>
    </g>
</svg>