<?xml version="1.0" encoding="UTF-8"?>
<svg width="77px" height="65px" viewBox="0 0 77 65" version="1.1" xmlns="http://www.w3.org/2000/svg" xmlns:xlink="http://www.w3.org/1999/xlink">
    <title>留守人员</title>
    <defs>
        <linearGradient x1="50%" y1="-23.2698085%" x2="50%" y2="100%" id="linearGradient-1">
            <stop stop-color="#B2DCFF" offset="0%"></stop>
            <stop stop-color="#54A6FA" offset="100%"></stop>
        </linearGradient>
    </defs>
    <g id="页面-1" stroke="none" stroke-width="1" fill="none" fill-rule="evenodd">
        <g id="留守人员" fill-rule="nonzero">
            <ellipse id="椭圆形备份" fill="#E5F3FF" cx="38.5" cy="52" rx="38.5" ry="13"></ellipse>
            <g id="path-2-link" transform="translate(13.000000, 0.000000)" fill="url(#linearGradient-1)">
                <path d="M34.1718496,24.1129568 C34.0055398,24.786268 33.8392301,25.3964563 33.6729204,25.9435216 C33.5066107,26.406423 33.2987236,26.879845 33.049259,27.3637874 C32.7997944,27.8477298 32.5295411,28.2159468 32.2384991,28.4684385 C31.8643022,28.7630122 31.6044433,29.0786268 31.4589223,29.4152824 C31.3134013,29.751938 31.188669,30.0991141 31.0847254,30.4568106 C30.9807819,30.8145072 30.8664439,31.1827243 30.7417116,31.5614618 C30.6169794,31.9401993 30.4090922,32.3189369 30.1180502,32.6976744 C29.1617693,33.9601329 28.4445587,35.1805094 27.9664182,36.358804 C27.4882778,37.5370986 27.1556584,38.6733112 26.9685599,39.7674419 C26.7814615,40.8615725 26.7294897,41.9451827 26.8126446,43.0182724 C26.8957994,44.0913621 27.0621091,45.1328904 27.3115737,46.1428571 C27.4778834,46.9003322 27.727348,47.6893688 28.0599674,48.5099668 C28.3925869,49.3305648 28.8811217,50.1722038 29.5255718,51.0348837 C30.170022,51.8975637 30.9911762,52.7392027 31.9890345,53.5598007 C32.9868928,54.3803987 34.2342157,55.1694352 35.7310032,55.9269103 C34.7331449,56.13732 33.5689768,56.3266888 32.2384991,56.4950166 C31.1159085,56.6212625 29.733459,56.7369878 28.0911505,56.8421927 C26.4488421,56.9473976 24.5674634,57 22.4470145,57 C21.3660013,57 20.1082841,56.9579181 18.6738628,56.8737542 C17.2394414,56.7895903 15.7634427,56.6843854 14.2458665,56.5581395 C12.7282904,56.4318937 11.2315029,56.2846069 9.75550415,56.1162791 C8.27950541,55.9479513 6.92823896,55.769103 5.70170479,55.5797342 C4.47517062,55.3903654 3.43573489,55.1904762 2.58339758,54.9800664 C1.73106028,54.7696567 1.20094806,54.5802879 0.99306091,54.4119601 C0.618864045,54.0753045 0.327822039,53.1389812 0.119934892,51.60299 C-0.0879522544,50.0669989 -0.0255861103,48.0575858 0.307033325,45.5747508 C0.514920472,44.1860465 1.06582141,43.1234773 1.95973614,42.3870432 C2.85365088,41.6506091 3.90348097,41.0719823 5.10922642,40.6511628 C6.31497187,40.2303433 7.57268911,39.8410853 8.88237814,39.4833887 C10.1920672,39.1256921 11.3458408,38.6312292 12.3436991,38 C13.1336703,37.4950166 13.736543,37.0215947 14.1523173,36.5797342 C14.5680916,36.1378738 14.8591336,35.6854928 15.0254433,35.2225914 C15.191753,34.7596899 15.2749079,34.2757475 15.2749079,33.7707641 C15.2749079,33.2657807 15.2541192,32.7187154 15.2125418,32.1295681 C15.1293869,31.2458472 14.8279505,30.551495 14.3082327,30.0465116 C13.7885148,29.5415282 13.2376139,29.0365449 12.6555299,28.5315615 C12.3229104,28.2790698 12.0318684,27.9003322 11.7824038,27.3953488 C11.5329393,26.8903654 11.3250521,26.406423 11.1587424,25.9435216 C10.9508553,25.3964563 10.7845455,24.786268 10.6598132,24.1129568 C10.3687712,24.0287929 10.0985179,23.9025471 9.84905337,23.7342193 C9.64116622,23.5658915 9.41249036,23.3133998 9.16302579,22.9767442 C8.91356121,22.6400886 8.68488535,22.1351052 8.4769982,21.461794 C8.26911105,20.8305648 8.19635055,20.2414175 8.2587167,19.6943522 C8.32108284,19.1472868 8.43542077,18.6843854 8.60173049,18.3056478 C8.76804021,17.8427464 8.99671607,17.4429679 9.28775807,17.1063123 C9.28775807,15.675526 9.37091293,14.2447398 9.53722265,12.8139535 C9.70353237,11.593577 9.9633913,10.2890365 10.3167995,8.90033223 C10.6702076,7.51162791 11.2418973,6.27021041 12.0318684,5.17607973 C12.7802621,4.12403101 13.5806277,3.26135105 14.432965,2.58803987 C15.2853023,1.91472868 16.1688226,1.38870432 17.0835261,1.00996678 C17.9982295,0.631229236 18.912933,0.368217054 19.8276364,0.220930233 C20.7423399,0.0736434109 21.6154659,0 22.4470145,0 C23.5280276,0 24.5674634,0.126245847 25.5653217,0.378737542 C26.56318,0.631229236 27.4882778,0.967884828 28.3406151,1.38870432 C29.1929524,1.80952381 29.9517405,2.28294574 30.6169794,2.8089701 C31.2822182,3.33499446 31.8227248,3.87153931 32.2384991,4.41860465 C33.19478,5.63898117 33.8912019,6.98560354 34.3277649,8.45847176 C34.7643279,9.93133998 35.086553,11.3200443 35.2944402,12.6245847 C35.5023273,14.1395349 35.5854822,15.654485 35.5439047,17.1694352 C35.7933693,17.379845 36.0012565,17.6323367 36.1675662,17.9269103 C36.3338759,18.179402 36.4586082,18.5160576 36.541763,18.9368771 C36.6249179,19.3576966 36.6249179,19.8837209 36.541763,20.5149502 C36.4586082,21.3145072 36.2922985,21.9457364 36.0428339,22.4086379 C35.7933693,22.8715393 35.523116,23.2292359 35.232074,23.4817276 C34.8994546,23.7763012 34.5460464,23.986711 34.1718496,24.1129568 L34.1718496,24.1129568 Z" id="path-2"></path>
            </g>
            <g id="留" transform="translate(48.360000, 34.257895)" fill="#388CFF">
                <path d="M0,1.54210526 C0,1.32877193 0.0533333333,1.16210526 0.16,1.04210526 C0.266666667,0.922105263 0.413333333,0.84877193 0.6,0.822105263 L7.64,0.00210526317 C7.85333333,-0.0112280702 8.01666667,0.0387719298 8.13,0.152105263 C8.24333333,0.265438596 8.3,0.435438596 8.3,0.662105263 L8.3,1.90210526 C8.3,2.1154386 8.24666667,2.28210526 8.14,2.40210526 C8.03333333,2.52210526 7.88666667,2.5954386 7.7,2.62210526 L3.4,3.10210526 L3.4,5.56210526 L5.54,5.56210526 L5.4,4.50210526 C5.37333333,4.26210526 5.41333333,4.0754386 5.52,3.94210526 C5.62666667,3.80877193 5.78666667,3.74210526 6,3.74210526 L7.2,3.74210526 C7.6,3.74210526 7.82666667,3.9554386 7.88,4.38210526 L8.24,7.38210526 C8.26666667,7.62210526 8.23,7.8054386 8.13,7.93210526 C8.03,8.05877193 7.87333333,8.12210526 7.66,8.12210526 L0.64,8.12210526 C0.44,8.12210526 0.283333333,8.05877193 0.17,7.93210526 C0.0566666667,7.8054386 0,7.6354386 0,7.42210526 L0,1.54210526 Z M16.54,0.242105263 C16.74,0.242105263 16.8966667,0.305438596 17.01,0.432105263 C17.1233333,0.55877193 17.18,0.72877193 17.18,0.942105263 L17.18,7.42210526 C17.18,7.6354386 17.1233333,7.8054386 17.01,7.93210526 C16.8966667,8.05877193 16.74,8.12210526 16.54,8.12210526 L13.12,8.12210526 C12.92,8.12210526 12.7633333,8.05877193 12.65,7.93210526 C12.5366667,7.8054386 12.48,7.6354386 12.48,7.42210526 L12.48,6.28210526 C12.48,6.0554386 12.5366667,5.87877193 12.65,5.75210526 C12.7633333,5.6254386 12.92,5.56210526 13.12,5.56210526 L13.86,5.56210526 L13.86,2.84210526 L12.56,2.84210526 L12.14,7.46210526 C12.1266667,7.6754386 12.06,7.83877193 11.94,7.95210526 C11.82,8.0654386 11.6666667,8.12210526 11.48,8.12210526 L9.4,8.12210526 C8.96,8.12210526 8.76,7.88210526 8.8,7.40210526 L9.22,2.84210526 C9.03333333,2.84210526 8.88666667,2.78210526 8.78,2.66210526 C8.67333333,2.54210526 8.62,2.36877193 8.62,2.14210526 L8.62,0.942105263 C8.62,0.72877193 8.67666667,0.55877193 8.79,0.432105263 C8.90333333,0.305438596 9.06,0.242105263 9.26,0.242105263 L16.54,0.242105263 Z M0.56,9.26210526 C0.56,9.04877193 0.616666667,8.87877193 0.73,8.75210526 C0.843333333,8.6254386 1,8.56210526 1.2,8.56210526 L15.98,8.56210526 C16.18,8.56210526 16.3366667,8.6254386 16.45,8.75210526 C16.5633333,8.87877193 16.62,9.04877193 16.62,9.26210526 L16.62,16.8421053 C16.62,17.0554386 16.5633333,17.2254386 16.45,17.3521053 C16.3366667,17.4787719 16.18,17.5421053 15.98,17.5421053 L1.2,17.5421053 C1,17.5421053 0.843333333,17.4787719 0.73,17.3521053 C0.616666667,17.2254386 0.56,17.0554386 0.56,16.8421053 L0.56,9.26210526 Z M3.96,11.9821053 L6.88,11.9821053 L6.88,11.1221053 L3.96,11.1221053 L3.96,11.9821053 Z M10.28,11.1221053 L10.28,11.9821053 L13.22,11.9821053 L13.22,11.1221053 L10.28,11.1221053 Z M6.88,14.9421053 L6.88,14.0821053 L3.96,14.0821053 L3.96,14.9421053 L6.88,14.9421053 Z M13.22,14.0821053 L10.28,14.0821053 L10.28,14.9421053 L13.22,14.9421053 L13.22,14.0821053 Z" id="形状"></path>
            </g>
        </g>
    </g>
</svg>