<?xml version="1.0" encoding="UTF-8"?>
<svg width="77px" height="63px" viewBox="0 0 77 63" version="1.1" xmlns="http://www.w3.org/2000/svg" xmlns:xlink="http://www.w3.org/1999/xlink">
    <title>其他租住</title>
    <defs>
        <linearGradient x1="50%" y1="-23.2698085%" x2="50%" y2="100%" id="linearGradient-1">
            <stop stop-color="#B2DCFF" offset="0%"></stop>
            <stop stop-color="#54A6FA" offset="100%"></stop>
        </linearGradient>
    </defs>
    <g id="页面-1" stroke="none" stroke-width="1" fill="none" fill-rule="evenodd">
        <g id="其他租住" fill-rule="nonzero">
            <ellipse id="椭圆形备份" fill="#E5F3FF" cx="38.5" cy="50" rx="38.5" ry="13"></ellipse>
            <g id="path-3-link" transform="translate(12.000000, 0.000000)" fill="url(#linearGradient-1)">
                <path d="M27,0 C28.6392165,0 30.2119783,0.697886368 31.3417085,1.9220477 L47.9443134,19.6437851 L49.1183468,20.890828 L52.1974156,24.1743262 C54.464236,26.5913763 54.5930949,30.4230315 52.5839924,33.00091 L32,33 C30.8954305,33 30,33.8954305 30,35 L30,35 L30,58.994 L26.8529382,59 L14.3957543,59 C9.13475542,59 4.88165323,54.5953073 4.88165323,49.172387 L4.88165323,33.4642234 L1.80258443,33.4642234 C-0.600861475,30.8671708 -0.600861475,26.7828195 1.80258443,24.1857669 L4.88165323,20.9022688 L6.05568663,19.6437851 L22.6582915,1.9220477 C23.7880217,0.697886368 25.3607835,0 27,0 Z M22,33 L15,33 C13.8954305,33 13,33.8954305 13,35 L13,35 L13,45 C13,46.1045695 13.8954305,47 15,47 L15,47 L22,47 C23.1045695,47 24,46.1045695 24,45 L24,45 L24,35 C24,33.8954305 23.1045695,33 22,33 L22,33 Z" id="path-3"></path>
            </g>
            <g id="其" transform="translate(47.540000, 40.360000)" fill="#388CFF">
                <path d="M16.26,11.18 C16.46,11.18 16.6166667,11.2433333 16.73,11.37 C16.8433333,11.4966667 16.9,11.6666667 16.9,11.88 L16.88,13.14 C16.88,13.5933333 16.6733333,13.82 16.26,13.82 L0.64,13.82 C0.44,13.82 0.283333333,13.7566667 0.17,13.63 C0.0566666667,13.5033333 0,13.3333333 0,13.12 L0.02,11.86 C0.02,11.4066667 0.226666667,11.18 0.64,11.18 L1.82,11.18 L1.82,3.88 L0.94,3.88 C0.74,3.88 0.583333333,3.81666667 0.47,3.69 C0.356666667,3.56333333 0.3,3.39333333 0.3,3.18 L0.3,1.94 C0.3,1.72666667 0.356666667,1.55666667 0.47,1.43 C0.583333333,1.30333333 0.74,1.24 0.94,1.24 L1.82,1.24 L1.82,0.76 C1.82,0.546666667 1.87666667,0.376666667 1.99,0.25 C2.10333333,0.123333333 2.26,0.06 2.46,0.06 L4.58,0.06 C4.78,0.06 4.93666667,0.11 5.05,0.21 C5.16333333,0.31 5.22,0.453333333 5.22,0.64 L5.22,1.24 L11.7,1.24 L11.7,0.72 C11.7,0.493333333 11.7566667,0.316666667 11.87,0.19 C11.9833333,0.0633333333 12.14,0 12.34,0 L14.46,0 C14.66,0 14.8166667,0.0533333333 14.93,0.16 C15.0433333,0.266666667 15.1,0.42 15.1,0.62 L15.1,1.24 L15.98,1.24 C16.18,1.24 16.3366667,1.30333333 16.45,1.43 C16.5633333,1.55666667 16.62,1.72666667 16.62,1.94 L16.62,3.18 C16.62,3.39333333 16.5633333,3.56333333 16.45,3.69 C16.3366667,3.81666667 16.18,3.88 15.98,3.88 L15.1,3.88 L15.1,11.18 L16.26,11.18 Z M5.22,4.84 L11.7,4.84 L11.7,3.88 L5.22,3.88 L5.22,4.84 Z M11.7,8.02 L11.7,7.04 L5.22,7.04 L5.22,8.02 L11.7,8.02 Z M11.7,11.18 L11.7,10.22 L5.22,10.22 L5.22,11.18 L11.7,11.18 Z M1.58,14.84 C1.74,14.5466667 1.99333333,14.4 2.34,14.4 L5.1,14.4 C5.27333333,14.4 5.40666667,14.4366667 5.5,14.51 C5.59333333,14.5833333 5.64,14.6866667 5.64,14.82 C5.64,14.9533333 5.59333333,15.0933333 5.5,15.24 L4.44,17 C4.26666667,17.2933333 4.01333333,17.44 3.68,17.44 L0.92,17.44 C0.746666667,17.44 0.613333333,17.4033333 0.52,17.33 C0.426666667,17.2566667 0.38,17.1533333 0.38,17.02 C0.38,16.8866667 0.426666667,16.7466667 0.52,16.6 L1.58,14.84 Z M14.56,14.4 C14.8933333,14.4 15.1466667,14.5533333 15.32,14.86 L16.36,16.6 C16.44,16.7466667 16.48,16.88 16.48,17 C16.48,17.1333333 16.4333333,17.24 16.34,17.32 C16.2466667,17.4 16.1133333,17.44 15.94,17.44 L13.26,17.44 C12.94,17.44 12.6866667,17.28 12.5,16.96 L11.46,15.24 C11.38,15.1066667 11.34,14.9733333 11.34,14.84 C11.34,14.7066667 11.3866667,14.6 11.48,14.52 C11.5733333,14.44 11.7066667,14.4 11.88,14.4 L14.56,14.4 Z" id="形状"></path>
            </g>
        </g>
    </g>
</svg>