<?xml version="1.0" encoding="UTF-8"?>
<svg width="138px" height="122px" viewBox="0 0 138 122" version="1.1" xmlns="http://www.w3.org/2000/svg" xmlns:xlink="http://www.w3.org/1999/xlink">
    <title>实有单位</title>
    <defs>
        <path d="M22.736718,0 L0.421929114,12.9582671 C0.330115688,13.0108382 0.254808047,13.0881487 0.191879744,13.1819521 L0.191879744,13.1819521 C0.189816521,13.1860753 0.183626851,13.1881369 0.181563628,13.1932909 L0.181563628,13.1932909 C0.161963009,13.2221535 0.144425613,13.2530777 0.128951441,13.2870943 L0.128951441,13.2870943 C0.116572102,13.3128645 0.106255987,13.3396654 0.0959398718,13.3674972 L0.0959398718,13.3674972 C0.0866553681,13.3901749 0.0784024759,13.4159451 0.0701495837,13.4406845 L0.0701495837,13.4406845 C0.0670547491,13.4530541 0.062928303,13.4654238 0.0608650799,13.4777935 L0.0608650799,13.4777935 C0.0577702454,13.4891324 0.0546754108,13.5004712 0.0526121878,13.5107793 L0.0526121878,13.5107793 C0.0474541301,13.533457 0.0422960725,13.5561348 0.0392012379,13.5788125 L0.0392012379,13.5788125 C0.0350747918,13.6014903 0.0319799573,13.6231372 0.0288851227,13.6468457 L0.0288851227,13.6468457 C0.0257902881,13.6664311 0.0237270651,13.6849856 0.0237270651,13.7056017 L0.0237270651,13.7056017 C0.021663842,13.7138481 0.0206322305,13.7231254 0.019600619,13.7324027 L0.019600619,13.7324027 C0.0144425613,13.7664193 0.0113477268,13.8004359 0.0082528922,13.8344525 L0.0082528922,13.8344525 C0.00515805762,13.8674383 0.0041264461,13.9004241 0.00206322305,13.9354715 L0.00206322305,13.9354715 C0.00103161152,13.9684573 0,14.0014431 0,14.0364905 L0,14.0364905 C0,14.0684455 0,14.1024622 0.00103161152,14.1375096 L0.00103161152,14.1375096 C0.00206322305,14.1498792 0.00206322305,14.1632797 0.00309483457,14.1766802 L0.00309483457,14.1766802 C0.0041264461,14.1952347 0.00515805762,14.2117276 0.00515805762,14.2292513 L0.00515805762,14.2292513 C0.00722128067,14.263268 0.0113477268,14.2983154 0.0144425613,14.3343936 L0.0144425613,14.3343936 C0.0144425613,14.3467633 0.0165057844,14.3622254 0.0185690074,14.374595 L0.0185690074,14.374595 C0.0206322305,14.3983036 0.0237270651,14.4199505 0.0257902881,14.4426283 L0.0257902881,14.4426283 C0.0309483457,14.4766449 0.0350747918,14.5127231 0.041264461,14.5488013 L0.041264461,14.5488013 C0.0464225186,14.5838487 0.0526121878,14.6188962 0.0598334684,14.6549744 L0.0598334684,14.6549744 C0.0691179721,14.7013607 0.0773708643,14.7415621 0.084592145,14.7766095 L0.084592145,14.7766095 C0.0887185911,14.7972257 0.0928450372,14.8116569 0.0969714833,14.8291807 L0.0969714833,14.8291807 C0.101097929,14.8446428 0.105224376,14.8621665 0.107287599,14.8765977 L0.107287599,14.8765977 C0.109350822,14.8848442 0.112445656,14.8951523 0.114508879,14.9033987 L0.114508879,14.9033987 C0.122761771,14.9374153 0.131014664,14.9673087 0.139267556,14.9982329 L0.139267556,14.9982329 L0.141330779,15.0033869 C0.14855206,15.0291571 0.153710117,15.0497732 0.160931398,15.0683277 L0.160931398,15.0683277 C0.162994621,15.0796666 0.166089455,15.0868823 0.16918429,15.0971903 L0.16918429,15.0971903 C0.172279125,15.104406 0.174342348,15.1136832 0.177437182,15.1208989 L0.177437182,15.1208989 C0.177437182,15.1229605 0.178468794,15.1260529 0.179500405,15.1291453 L0.179500405,15.1291453 C0.184658463,15.1456382 0.189816521,15.1600695 0.194974578,15.1745008 L0.194974578,15.1745008 C0.197037801,15.178624 0.198069413,15.1806856 0.199101024,15.1848089 L0.199101024,15.1848089 L32.3833174,34.5835542 C32.3905386,34.5876774 32.3987915,34.5928315 32.4060128,34.5979855 L32.4060128,34.5979855 C32.4431508,34.6216941 32.4813205,34.6443718 32.5184585,34.6670495 L32.5184585,34.6670495 C32.5215533,34.6691112 32.5256798,34.670142 32.527743,34.6711728 L32.527743,34.6711728 C32.5617862,34.6907581 32.5917029,34.707251 32.6195564,34.7216823 L32.6195564,34.7216823 C32.6505048,34.739206 32.671137,34.749514 32.6969273,34.7629145 L32.6969273,34.7629145 C32.7124014,34.771161 32.7330337,34.781469 32.7464446,34.7886847 L32.7464446,34.7886847 C32.7505711,34.7917771 32.758824,34.7948695 32.7629504,34.7969311 L32.7629504,34.7969311 C32.7918355,34.8113624 32.8176258,34.8237321 32.8423845,34.8340402 L32.8423845,34.8340402 C32.8485742,34.8371326 32.8557954,34.840225 32.8619851,34.8433174 L32.8619851,34.8433174 C32.9042812,34.8608411 32.9290399,34.8711492 32.9507037,34.8804265 L32.9507037,34.8804265 C32.9589566,34.8835189 32.9661779,34.8855805 32.9744308,34.8886729 L32.9744308,34.8886729 C33.0569597,34.9175355 33.101319,34.9319668 33.1322673,34.9422748 L33.1322673,34.9422748 C33.1425835,34.9463981 33.151868,34.9494905 33.1590892,34.9515521 L33.1590892,34.9515521 C33.1652789,34.9536137 33.1776582,34.9577369 33.1817847,34.9587677 L33.1817847,34.9587677 C33.1900376,34.9608294 33.1972589,34.962891 33.2034485,34.9649526 L33.2034485,34.9649526 C33.231302,34.9721682 33.2539975,34.9783531 33.2735981,34.9835071 L33.2735981,34.9835071 C33.3035148,34.9907227 33.3262103,34.994846 33.3468425,35 L33.3468425,35 C33.3612851,34.9989692 33.374696,34.9989692 33.388107,34.9969076 L33.388107,34.9969076 C33.4159605,34.994846 33.4427824,34.9907227 33.4696043,34.9855687 L33.4696043,34.9855687 C33.5036475,34.9783531 33.5345958,34.9701066 33.5665758,34.9587677 L33.5665758,34.9587677 C33.5727655,34.9577369 33.5779235,34.9556753 33.5830816,34.9536137 L33.5830816,34.9536137 C33.6171248,34.9402132 33.6511679,34.9247511 33.6821163,34.9061966 L33.6821163,34.9061966 L56,21.9479296 C55.96802,21.9654533 55.9350085,21.9809154 55.8999337,21.9943158 L55.8999337,21.9943158 C55.8277209,22.0221476 55.7482868,22.0376097 55.6647263,22.0407021 L55.6647263,22.0407021 C55.6286199,22.0334865 55.5914818,22.02524 55.519269,22.0066855 L55.519269,22.0066855 C55.5099845,22.0025623 55.4945104,21.9984391 55.4759413,21.9922542 L55.4759413,21.9922542 C55.4687201,21.9891618 55.4604672,21.988131 55.4501511,21.9840078 L55.4501511,21.9840078 C55.4171395,21.9726689 55.3738118,21.9592684 55.2923145,21.9304058 L55.2923145,21.9304058 C55.264461,21.9200978 55.2376391,21.9087589 55.1798688,21.8840196 L55.1798688,21.8840196 C55.1458257,21.8695883 55.1086876,21.8520646 55.0632967,21.8304176 L55.0632967,21.8304176 C55.0498858,21.8221712 55.0292536,21.8118631 55.0127478,21.8025859 L55.0127478,21.8025859 C54.9663253,21.7788773 54.9188711,21.754138 54.8456267,21.7129057 L54.8456267,21.7129057 C54.797141,21.6840431 54.7476236,21.6551805 54.7001695,21.6242563 L54.7001695,21.6242563 L22.5159531,2.22654179 C22.5087319,2.20592566 22.500479,2.18530954 22.4922261,2.15953938 L22.4922261,2.15953938 C22.4922261,2.15438534 22.4891312,2.1471697 22.4880996,2.14201567 L22.4880996,2.14201567 C22.4788151,2.11624551 22.4705622,2.08635212 22.4581829,2.04511987 L22.4581829,2.04511987 C22.4468352,2.00491842 22.436519,1.96265536 22.4251713,1.91626907 L22.4251713,1.91626907 C22.4210449,1.90389939 22.41795,1.88740649 22.4148552,1.8729752 L22.4148552,1.8729752 C22.4024759,1.82246569 22.3911281,1.76886376 22.3766856,1.69670731 L22.3766856,1.69670731 C22.3591482,1.60084232 22.3447056,1.50806974 22.3343895,1.41632797 L22.3343895,1.41632797 C22.3281998,1.34829475 22.3230418,1.28232314 22.3199469,1.21738234 L22.3199469,1.21738234 C22.3127257,1.05451493 22.3189153,0.896801555 22.3395476,0.746303823 L22.3395476,0.746303823 C22.3467688,0.665900925 22.3591482,0.589621252 22.3777172,0.519526418 L22.3777172,0.519526418 C22.4076339,0.404076103 22.4530248,0.307180303 22.5087319,0.223684986 L22.5087319,0.223684986 C22.5716602,0.128850798 22.6459362,0.0525711256 22.736718,0 L22.736718,0 Z" id="path-1"></path>
        <linearGradient x1="0%" y1="49.9989291%" x2="99.9989537%" y2="49.9989291%" id="linearGradient-3">
            <stop stop-color="#7EFFF9" offset="0%"></stop>
            <stop stop-color="#2A6DFF" offset="100%"></stop>
        </linearGradient>
        <path d="M22.736718,0 L0.421929114,12.9582671 C0.330115688,13.0108382 0.254808047,13.0881487 0.191879744,13.1819521 L0.191879744,13.1819521 C0.189816521,13.1860753 0.183626851,13.1881369 0.181563628,13.1932909 L0.181563628,13.1932909 C0.161963009,13.2221535 0.144425613,13.2530777 0.128951441,13.2870943 L0.128951441,13.2870943 C0.116572102,13.3128645 0.106255987,13.3396654 0.0959398718,13.3674972 L0.0959398718,13.3674972 C0.0866553681,13.3901749 0.0784024759,13.4159451 0.0701495837,13.4406845 L0.0701495837,13.4406845 C0.0670547491,13.4530541 0.062928303,13.4654238 0.0608650799,13.4777935 L0.0608650799,13.4777935 C0.0577702454,13.4891324 0.0546754108,13.5004712 0.0526121878,13.5107793 L0.0526121878,13.5107793 C0.0474541301,13.533457 0.0422960725,13.5561348 0.0392012379,13.5788125 L0.0392012379,13.5788125 C0.0350747918,13.6014903 0.0319799573,13.6231372 0.0288851227,13.6468457 L0.0288851227,13.6468457 C0.0257902881,13.6664311 0.0237270651,13.6849856 0.0237270651,13.7056017 L0.0237270651,13.7056017 C0.021663842,13.7138481 0.0206322305,13.7231254 0.019600619,13.7324027 L0.019600619,13.7324027 C0.0144425613,13.7664193 0.0113477268,13.8004359 0.0082528922,13.8344525 L0.0082528922,13.8344525 C0.00515805762,13.8674383 0.0041264461,13.9004241 0.00206322305,13.9354715 L0.00206322305,13.9354715 C0.00103161152,13.9684573 0,14.0014431 0,14.0364905 L0,14.0364905 C0,14.0684455 0,14.1024622 0.00103161152,14.1375096 L0.00103161152,14.1375096 C0.00206322305,14.1498792 0.00206322305,14.1632797 0.00309483457,14.1766802 L0.00309483457,14.1766802 C0.0041264461,14.1952347 0.00515805762,14.2117276 0.00515805762,14.2292513 L0.00515805762,14.2292513 C0.00722128067,14.263268 0.0113477268,14.2983154 0.0144425613,14.3343936 L0.0144425613,14.3343936 C0.0144425613,14.3467633 0.0165057844,14.3622254 0.0185690074,14.374595 L0.0185690074,14.374595 C0.0206322305,14.3983036 0.0237270651,14.4199505 0.0257902881,14.4426283 L0.0257902881,14.4426283 C0.0309483457,14.4766449 0.0350747918,14.5127231 0.041264461,14.5488013 L0.041264461,14.5488013 C0.0464225186,14.5838487 0.0526121878,14.6188962 0.0598334684,14.6549744 L0.0598334684,14.6549744 C0.0691179721,14.7013607 0.0773708643,14.7415621 0.084592145,14.7766095 L0.084592145,14.7766095 C0.0887185911,14.7972257 0.0928450372,14.8116569 0.0969714833,14.8291807 L0.0969714833,14.8291807 C0.101097929,14.8446428 0.105224376,14.8621665 0.107287599,14.8765977 L0.107287599,14.8765977 C0.109350822,14.8848442 0.112445656,14.8951523 0.114508879,14.9033987 L0.114508879,14.9033987 C0.122761771,14.9374153 0.131014664,14.9673087 0.139267556,14.9982329 L0.139267556,14.9982329 L0.141330779,15.0033869 C0.14855206,15.0291571 0.153710117,15.0497732 0.160931398,15.0683277 L0.160931398,15.0683277 C0.162994621,15.0796666 0.166089455,15.0868823 0.16918429,15.0971903 L0.16918429,15.0971903 C0.172279125,15.104406 0.174342348,15.1136832 0.177437182,15.1208989 L0.177437182,15.1208989 C0.177437182,15.1229605 0.178468794,15.1260529 0.179500405,15.1291453 L0.179500405,15.1291453 C0.184658463,15.1456382 0.189816521,15.1600695 0.194974578,15.1745008 L0.194974578,15.1745008 C0.197037801,15.178624 0.198069413,15.1806856 0.199101024,15.1848089 L0.199101024,15.1848089 L32.3833174,34.5835542 C32.3905386,34.5876774 32.3987915,34.5928315 32.4060128,34.5979855 L32.4060128,34.5979855 C32.4431508,34.6216941 32.4813205,34.6443718 32.5184585,34.6670495 L32.5184585,34.6670495 C32.5215533,34.6691112 32.5256798,34.670142 32.527743,34.6711728 L32.527743,34.6711728 C32.5617862,34.6907581 32.5917029,34.707251 32.6195564,34.7216823 L32.6195564,34.7216823 C32.6505048,34.739206 32.671137,34.749514 32.6969273,34.7629145 L32.6969273,34.7629145 C32.7124014,34.771161 32.7330337,34.781469 32.7464446,34.7886847 L32.7464446,34.7886847 C32.7505711,34.7917771 32.758824,34.7948695 32.7629504,34.7969311 L32.7629504,34.7969311 C32.7918355,34.8113624 32.8176258,34.8237321 32.8423845,34.8340402 L32.8423845,34.8340402 C32.8485742,34.8371326 32.8557954,34.840225 32.8619851,34.8433174 L32.8619851,34.8433174 C32.9042812,34.8608411 32.9290399,34.8711492 32.9507037,34.8804265 L32.9507037,34.8804265 C32.9589566,34.8835189 32.9661779,34.8855805 32.9744308,34.8886729 L32.9744308,34.8886729 C33.0569597,34.9175355 33.101319,34.9319668 33.1322673,34.9422748 L33.1322673,34.9422748 C33.1425835,34.9463981 33.151868,34.9494905 33.1590892,34.9515521 L33.1590892,34.9515521 C33.1652789,34.9536137 33.1776582,34.9577369 33.1817847,34.9587677 L33.1817847,34.9587677 C33.1900376,34.9608294 33.1972589,34.962891 33.2034485,34.9649526 L33.2034485,34.9649526 C33.231302,34.9721682 33.2539975,34.9783531 33.2735981,34.9835071 L33.2735981,34.9835071 C33.3035148,34.9907227 33.3262103,34.994846 33.3468425,35 L33.3468425,35 C33.3612851,34.9989692 33.374696,34.9989692 33.388107,34.9969076 L33.388107,34.9969076 C33.4159605,34.994846 33.4427824,34.9907227 33.4696043,34.9855687 L33.4696043,34.9855687 C33.5036475,34.9783531 33.5345958,34.9701066 33.5665758,34.9587677 L33.5665758,34.9587677 C33.5727655,34.9577369 33.5779235,34.9556753 33.5830816,34.9536137 L33.5830816,34.9536137 C33.6171248,34.9402132 33.6511679,34.9247511 33.6821163,34.9061966 L33.6821163,34.9061966 L56,21.9479296 C55.96802,21.9654533 55.9350085,21.9809154 55.8999337,21.9943158 L55.8999337,21.9943158 C55.8277209,22.0221476 55.7482868,22.0376097 55.6647263,22.0407021 L55.6647263,22.0407021 C55.6286199,22.0334865 55.5914818,22.02524 55.519269,22.0066855 L55.519269,22.0066855 C55.5099845,22.0025623 55.4945104,21.9984391 55.4759413,21.9922542 L55.4759413,21.9922542 C55.4687201,21.9891618 55.4604672,21.988131 55.4501511,21.9840078 L55.4501511,21.9840078 C55.4171395,21.9726689 55.3738118,21.9592684 55.2923145,21.9304058 L55.2923145,21.9304058 C55.264461,21.9200978 55.2376391,21.9087589 55.1798688,21.8840196 L55.1798688,21.8840196 C55.1458257,21.8695883 55.1086876,21.8520646 55.0632967,21.8304176 L55.0632967,21.8304176 C55.0498858,21.8221712 55.0292536,21.8118631 55.0127478,21.8025859 L55.0127478,21.8025859 C54.9663253,21.7788773 54.9188711,21.754138 54.8456267,21.7129057 L54.8456267,21.7129057 C54.797141,21.6840431 54.7476236,21.6551805 54.7001695,21.6242563 L54.7001695,21.6242563 L22.5159531,2.22654179 C22.5087319,2.20592566 22.500479,2.18530954 22.4922261,2.15953938 L22.4922261,2.15953938 C22.4922261,2.15438534 22.4891312,2.1471697 22.4880996,2.14201567 L22.4880996,2.14201567 C22.4788151,2.11624551 22.4705622,2.08635212 22.4581829,2.04511987 L22.4581829,2.04511987 C22.4468352,2.00491842 22.436519,1.96265536 22.4251713,1.91626907 L22.4251713,1.91626907 C22.4210449,1.90389939 22.41795,1.88740649 22.4148552,1.8729752 L22.4148552,1.8729752 C22.4024759,1.82246569 22.3911281,1.76886376 22.3766856,1.69670731 L22.3766856,1.69670731 C22.3591482,1.60084232 22.3447056,1.50806974 22.3343895,1.41632797 L22.3343895,1.41632797 C22.3281998,1.34829475 22.3230418,1.28232314 22.3199469,1.21738234 L22.3199469,1.21738234 C22.3127257,1.05451493 22.3189153,0.896801555 22.3395476,0.746303823 L22.3395476,0.746303823 C22.3467688,0.665900925 22.3591482,0.589621252 22.3777172,0.519526418 L22.3777172,0.519526418 C22.4076339,0.404076103 22.4530248,0.307180303 22.5087319,0.223684986 L22.5087319,0.223684986 C22.5716602,0.128850798 22.6459362,0.0525711256 22.736718,0 L22.736718,0 Z" id="path-4"></path>
        <path d="M0.095,12.572 L0,46.163 L1.516,47.038 C1.596,47.079 1.662,47.115 1.729,47.152 L1.729,47.152 C1.841,47.219 1.934,47.277 2.019,47.329 L2.019,47.329 C2.049,47.347 2.074,47.362 2.101,47.379 L2.101,47.379 C2.15,47.409 2.196,47.437 2.236,47.461 L2.236,47.461 C2.267,47.48 2.296,47.499 2.322,47.514 L2.322,47.514 C2.345,47.529 2.366,47.542 2.386,47.554 L2.386,47.554 C2.411,47.57 2.436,47.586 2.455,47.598 L2.455,47.598 C2.474,47.61 2.489,47.62 2.506,47.629 L2.506,47.629 C2.518,47.637 2.533,47.646 2.543,47.653 L2.543,47.653 C2.592,47.684 2.618,47.702 2.64,47.716 L2.64,47.716 C2.646,47.721 2.652,47.724 2.658,47.729 L2.658,47.729 C2.787,47.823 2.885,47.895 2.967,47.956 L2.967,47.956 C3.005,47.984 3.029,48.002 3.059,48.025 L3.059,48.025 C3.099,48.055 3.139,48.085 3.168,48.106 L3.168,48.106 C3.191,48.123 3.209,48.137 3.227,48.15 L3.227,48.15 C3.246,48.165 3.266,48.18 3.28,48.19 L3.28,48.19 C3.292,48.2 3.305,48.209 3.314,48.217 L3.314,48.217 C3.329,48.229 3.344,48.241 3.357,48.251 L3.357,48.251 C3.525,48.401 3.689,48.56 3.847,48.729 L3.847,48.729 C4.044,48.938 4.233,49.161 4.411,49.395 L4.411,49.395 C4.522,49.546 4.622,49.691 4.718,49.834 L4.718,49.834 C4.845,50.023 4.963,50.206 5.067,50.387 L5.067,50.387 C5.153,50.535 5.233,50.682 5.307,50.827 L5.307,50.827 C5.314,50.841 5.321,50.853 5.327,50.867 L5.327,50.867 C5.404,51.016 5.474,51.166 5.54,51.317 L5.54,51.317 C5.603,51.472 5.653,51.594 5.695,51.705 L5.695,51.705 C5.702,51.72 5.707,51.735 5.712,51.75 L5.712,51.75 C5.751,51.852 5.784,51.944 5.815,52.035 L5.815,52.035 C5.853,52.162 5.881,52.256 5.904,52.335 L5.904,52.335 C5.915,52.373 5.921,52.396 5.929,52.426 L5.929,52.426 C5.94,52.462 5.951,52.501 5.958,52.526 L5.958,52.526 C5.964,52.546 5.968,52.563 5.972,52.579 L5.972,52.579 C5.98,52.602 5.986,52.626 5.99,52.644 L5.99,52.644 C5.995,52.661 5.999,52.678 6.002,52.693 L6.002,52.693 C6.028,52.803 6.052,52.913 6.072,53.022 L6.072,53.022 C6.086,53.116 6.098,53.212 6.11,53.306 L6.11,53.306 C6.148,53.627 6.173,53.943 6.185,54.253 L6.185,54.253 C6.186,54.266 6.187,54.28 6.187,54.293 L6.187,54.293 C6.197,54.607 6.195,54.913 6.177,55.21 L6.177,55.21 C6.181,55.492 6.161,55.758 6.12,56.007 L6.12,56.007 C6.119,56.01 6.119,56.012 6.119,56.015 L6.119,56.015 C6.078,56.256 6.015,56.478 5.933,56.682 L5.933,56.682 C5.927,56.695 5.922,56.707 5.917,56.72 L5.917,56.72 C5.842,56.897 5.747,57.054 5.642,57.198 L5.642,57.198 C5.614,57.235 5.586,57.272 5.557,57.307 L5.557,57.307 C5.439,57.448 5.312,57.577 5.162,57.676 L5.162,57.676 C5.12,57.707 5.076,57.735 5.031,57.761 L5.031,57.761 L26.664,45.189 C26.708,45.163 26.753,45.135 26.796,45.104 L26.796,45.104 C26.944,45.004 27.072,44.877 27.19,44.735 L27.19,44.735 C27.219,44.7 27.247,44.664 27.275,44.626 L27.275,44.626 C27.302,44.589 27.336,44.557 27.361,44.517 L27.361,44.517 C27.412,44.436 27.46,44.349 27.503,44.258 L27.503,44.258 C27.52,44.222 27.534,44.184 27.55,44.148 L27.55,44.148 C27.555,44.135 27.561,44.122 27.565,44.11 L27.565,44.11 C27.575,44.085 27.586,44.063 27.596,44.039 L27.596,44.039 C27.62,43.972 27.643,43.905 27.663,43.835 L27.663,43.835 C27.681,43.772 27.697,43.708 27.713,43.643 L27.713,43.643 C27.726,43.581 27.739,43.519 27.75,43.456 L27.75,43.456 C27.751,43.452 27.751,43.447 27.751,43.443 L27.751,43.443 L27.753,43.436 C27.762,43.382 27.77,43.329 27.778,43.275 L27.778,43.275 C27.785,43.215 27.79,43.155 27.796,43.095 L27.796,43.095 C27.8,43.036 27.804,42.977 27.806,42.915 L27.806,42.915 C27.809,42.857 27.81,42.797 27.811,42.736 L27.811,42.736 C27.811,42.704 27.811,42.671 27.81,42.638 L27.81,42.638 C27.814,42.584 27.816,42.532 27.818,42.478 L27.818,42.478 C27.824,42.363 27.826,42.245 27.826,42.127 L27.826,42.127 L27.826,42.008 C27.826,41.929 27.824,41.85 27.822,41.771 L27.822,41.771 C27.822,41.755 27.82,41.739 27.82,41.723 L27.82,41.723 C27.819,41.709 27.818,41.693 27.818,41.679 L27.818,41.679 C27.814,41.589 27.811,41.499 27.805,41.408 L27.805,41.408 C27.797,41.285 27.788,41.161 27.775,41.036 L27.775,41.036 C27.766,40.935 27.755,40.836 27.743,40.734 L27.743,40.734 C27.74,40.707 27.736,40.681 27.733,40.654 L27.733,40.654 C27.725,40.586 27.715,40.518 27.706,40.45 L27.706,40.45 C27.693,40.384 27.68,40.319 27.665,40.253 L27.665,40.253 C27.655,40.209 27.646,40.165 27.635,40.121 L27.635,40.121 C27.633,40.11 27.63,40.098 27.626,40.086 L27.626,40.086 C27.626,40.082 27.625,40.076 27.624,40.072 L27.624,40.072 C27.618,40.053 27.612,40.027 27.604,40.001 L27.604,40.001 C27.601,39.991 27.6,39.987 27.598,39.975 L27.598,39.975 C27.597,39.971 27.594,39.963 27.592,39.959 L27.592,39.959 C27.583,39.926 27.57,39.879 27.555,39.829 L27.555,39.829 C27.55,39.81 27.545,39.794 27.539,39.772 L27.539,39.772 C27.516,39.692 27.487,39.594 27.448,39.464 L27.448,39.464 C27.445,39.458 27.444,39.45 27.442,39.444 L27.442,39.444 C27.424,39.39 27.405,39.336 27.383,39.279 L27.383,39.279 C27.373,39.248 27.359,39.213 27.346,39.18 L27.346,39.18 C27.341,39.163 27.334,39.148 27.328,39.131 L27.328,39.131 C27.324,39.12 27.32,39.11 27.316,39.098 L27.316,39.098 C27.283,39.014 27.246,38.921 27.201,38.815 L27.201,38.815 C27.192,38.793 27.182,38.769 27.172,38.745 L27.172,38.745 C27.166,38.73 27.158,38.712 27.15,38.696 L27.15,38.696 C27.124,38.637 27.097,38.577 27.069,38.517 L27.069,38.517 C27.04,38.456 27.011,38.394 26.98,38.333 L26.98,38.333 C26.974,38.32 26.967,38.307 26.96,38.295 L26.96,38.295 C26.954,38.282 26.947,38.268 26.941,38.255 L26.941,38.255 C26.918,38.212 26.896,38.168 26.873,38.125 L26.873,38.125 C26.819,38.023 26.762,37.921 26.702,37.819 L26.702,37.819 C26.702,37.817 26.7,37.816 26.7,37.814 L26.7,37.814 C26.595,37.634 26.477,37.451 26.351,37.263 L26.351,37.263 C26.34,37.245 26.332,37.23 26.32,37.214 L26.32,37.214 C26.234,37.086 26.142,36.957 26.044,36.823 L26.044,36.823 C26.016,36.787 25.989,36.751 25.961,36.716 L25.961,36.716 C25.913,36.655 25.863,36.594 25.813,36.534 L25.813,36.534 C25.765,36.476 25.716,36.418 25.666,36.362 L25.666,36.362 C25.617,36.305 25.566,36.25 25.516,36.195 L25.516,36.195 C25.503,36.182 25.492,36.169 25.479,36.156 L25.479,36.156 C25.439,36.114 25.399,36.072 25.358,36.031 L25.358,36.031 C25.304,35.975 25.249,35.92 25.193,35.867 L25.193,35.867 C25.137,35.812 25.079,35.759 25.021,35.707 L25.021,35.707 C25.011,35.698 25.001,35.689 24.99,35.679 L24.99,35.679 C24.98,35.671 24.971,35.664 24.961,35.655 L24.961,35.655 C24.956,35.652 24.949,35.646 24.943,35.643 L24.943,35.643 C24.936,35.636 24.926,35.628 24.917,35.621 L24.917,35.621 C24.9,35.609 24.879,35.592 24.855,35.575 L24.855,35.575 C24.84,35.562 24.823,35.551 24.802,35.535 L24.802,35.535 C24.773,35.513 24.732,35.483 24.691,35.453 L24.691,35.453 C24.663,35.431 24.637,35.412 24.601,35.385 L24.601,35.385 C24.518,35.324 24.418,35.251 24.291,35.157 L24.291,35.157 C24.286,35.153 24.28,35.149 24.275,35.146 L24.275,35.146 C24.274,35.145 24.273,35.145 24.273,35.144 L24.273,35.144 C24.251,35.13 24.225,35.113 24.177,35.081 L24.177,35.081 C24.175,35.08 24.176,35.08 24.174,35.079 L24.174,35.079 C24.164,35.074 24.149,35.064 24.138,35.057 L24.138,35.057 C24.123,35.047 24.107,35.038 24.088,35.025 L24.088,35.025 C24.072,35.015 24.053,35.004 24.034,34.992 L24.034,34.992 C24.005,34.974 23.971,34.953 23.934,34.93 L23.934,34.93 C23.918,34.92 23.901,34.91 23.884,34.899 L23.884,34.899 C23.84,34.872 23.789,34.841 23.733,34.807 L23.733,34.807 C23.706,34.789 23.681,34.774 23.65,34.756 L23.65,34.756 C23.566,34.704 23.473,34.647 23.362,34.58 L23.362,34.58 C23.342,34.569 23.324,34.558 23.303,34.547 L23.303,34.547 C23.255,34.522 23.206,34.495 23.149,34.465 L23.149,34.465 L21.633,33.591 L21.729,0 L0.095,12.572 Z" id="path-6"></path>
        <linearGradient x1="0%" y1="50.0002562%" x2="100.00229%" y2="50.0002562%" id="linearGradient-8">
            <stop stop-color="#7EFFF9" offset="0%"></stop>
            <stop stop-color="#2A6DFF" offset="100%"></stop>
        </linearGradient>
        <linearGradient x1="61.6038514%" y1="64.28248%" x2="23.9450769%" y2="80.5589091%" id="linearGradient-9">
            <stop stop-color="#5191DB" offset="0%"></stop>
            <stop stop-color="#B2DBFF" offset="50.8063161%"></stop>
            <stop stop-color="#ECF4FC" offset="100%"></stop>
        </linearGradient>
        <path d="M0.095,12.572 L0,46.163 L1.516,47.038 C1.596,47.079 1.662,47.115 1.729,47.152 L1.729,47.152 C1.841,47.219 1.934,47.277 2.019,47.329 L2.019,47.329 C2.049,47.347 2.074,47.362 2.101,47.379 L2.101,47.379 C2.15,47.409 2.196,47.437 2.236,47.461 L2.236,47.461 C2.267,47.48 2.296,47.499 2.322,47.514 L2.322,47.514 C2.345,47.529 2.366,47.542 2.386,47.554 L2.386,47.554 C2.411,47.57 2.436,47.586 2.455,47.598 L2.455,47.598 C2.474,47.61 2.489,47.62 2.506,47.629 L2.506,47.629 C2.518,47.637 2.533,47.646 2.543,47.653 L2.543,47.653 C2.592,47.684 2.618,47.702 2.64,47.716 L2.64,47.716 C2.646,47.721 2.652,47.724 2.658,47.729 L2.658,47.729 C2.787,47.823 2.885,47.895 2.967,47.956 L2.967,47.956 C3.005,47.984 3.029,48.002 3.059,48.025 L3.059,48.025 C3.099,48.055 3.139,48.085 3.168,48.106 L3.168,48.106 C3.191,48.123 3.209,48.137 3.227,48.15 L3.227,48.15 C3.246,48.165 3.266,48.18 3.28,48.19 L3.28,48.19 C3.292,48.2 3.305,48.209 3.314,48.217 L3.314,48.217 C3.329,48.229 3.344,48.241 3.357,48.251 L3.357,48.251 C3.525,48.401 3.689,48.56 3.847,48.729 L3.847,48.729 C4.044,48.938 4.233,49.161 4.411,49.395 L4.411,49.395 C4.522,49.546 4.622,49.691 4.718,49.834 L4.718,49.834 C4.845,50.023 4.963,50.206 5.067,50.387 L5.067,50.387 C5.153,50.535 5.233,50.682 5.307,50.827 L5.307,50.827 C5.314,50.841 5.321,50.853 5.327,50.867 L5.327,50.867 C5.404,51.016 5.474,51.166 5.54,51.317 L5.54,51.317 C5.603,51.472 5.653,51.594 5.695,51.705 L5.695,51.705 C5.702,51.72 5.707,51.735 5.712,51.75 L5.712,51.75 C5.751,51.852 5.784,51.944 5.815,52.035 L5.815,52.035 C5.853,52.162 5.881,52.256 5.904,52.335 L5.904,52.335 C5.915,52.373 5.921,52.396 5.929,52.426 L5.929,52.426 C5.94,52.462 5.951,52.501 5.958,52.526 L5.958,52.526 C5.964,52.546 5.968,52.563 5.972,52.579 L5.972,52.579 C5.98,52.602 5.986,52.626 5.99,52.644 L5.99,52.644 C5.995,52.661 5.999,52.678 6.002,52.693 L6.002,52.693 C6.028,52.803 6.052,52.913 6.072,53.022 L6.072,53.022 C6.086,53.116 6.098,53.212 6.11,53.306 L6.11,53.306 C6.148,53.627 6.173,53.943 6.185,54.253 L6.185,54.253 C6.186,54.266 6.187,54.28 6.187,54.293 L6.187,54.293 C6.197,54.607 6.195,54.913 6.177,55.21 L6.177,55.21 C6.181,55.492 6.161,55.758 6.12,56.007 L6.12,56.007 C6.119,56.01 6.119,56.012 6.119,56.015 L6.119,56.015 C6.078,56.256 6.015,56.478 5.933,56.682 L5.933,56.682 C5.927,56.695 5.922,56.707 5.917,56.72 L5.917,56.72 C5.842,56.897 5.747,57.054 5.642,57.198 L5.642,57.198 C5.614,57.235 5.586,57.272 5.557,57.307 L5.557,57.307 C5.439,57.448 5.312,57.577 5.162,57.676 L5.162,57.676 C5.12,57.707 5.076,57.735 5.031,57.761 L5.031,57.761 L26.664,45.189 C26.708,45.163 26.753,45.135 26.796,45.104 L26.796,45.104 C26.944,45.004 27.072,44.877 27.19,44.735 L27.19,44.735 C27.219,44.7 27.247,44.664 27.275,44.626 L27.275,44.626 C27.302,44.589 27.336,44.557 27.361,44.517 L27.361,44.517 C27.412,44.436 27.46,44.349 27.503,44.258 L27.503,44.258 C27.52,44.222 27.534,44.184 27.55,44.148 L27.55,44.148 C27.555,44.135 27.561,44.122 27.565,44.11 L27.565,44.11 C27.575,44.085 27.586,44.063 27.596,44.039 L27.596,44.039 C27.62,43.972 27.643,43.905 27.663,43.835 L27.663,43.835 C27.681,43.772 27.697,43.708 27.713,43.643 L27.713,43.643 C27.726,43.581 27.739,43.519 27.75,43.456 L27.75,43.456 C27.751,43.452 27.751,43.447 27.751,43.443 L27.751,43.443 L27.753,43.436 C27.762,43.382 27.77,43.329 27.778,43.275 L27.778,43.275 C27.785,43.215 27.79,43.155 27.796,43.095 L27.796,43.095 C27.8,43.036 27.804,42.977 27.806,42.915 L27.806,42.915 C27.809,42.857 27.81,42.797 27.811,42.736 L27.811,42.736 C27.811,42.704 27.811,42.671 27.81,42.638 L27.81,42.638 C27.814,42.584 27.816,42.532 27.818,42.478 L27.818,42.478 C27.824,42.363 27.826,42.245 27.826,42.127 L27.826,42.127 L27.826,42.008 C27.826,41.929 27.824,41.85 27.822,41.771 L27.822,41.771 C27.822,41.755 27.82,41.739 27.82,41.723 L27.82,41.723 C27.819,41.709 27.818,41.693 27.818,41.679 L27.818,41.679 C27.814,41.589 27.811,41.499 27.805,41.408 L27.805,41.408 C27.797,41.285 27.788,41.161 27.775,41.036 L27.775,41.036 C27.766,40.935 27.755,40.836 27.743,40.734 L27.743,40.734 C27.74,40.707 27.736,40.681 27.733,40.654 L27.733,40.654 C27.725,40.586 27.715,40.518 27.706,40.45 L27.706,40.45 C27.693,40.384 27.68,40.319 27.665,40.253 L27.665,40.253 C27.655,40.209 27.646,40.165 27.635,40.121 L27.635,40.121 C27.633,40.11 27.63,40.098 27.626,40.086 L27.626,40.086 C27.626,40.082 27.625,40.076 27.624,40.072 L27.624,40.072 C27.618,40.053 27.612,40.027 27.604,40.001 L27.604,40.001 C27.601,39.991 27.6,39.987 27.598,39.975 L27.598,39.975 C27.597,39.971 27.594,39.963 27.592,39.959 L27.592,39.959 C27.583,39.926 27.57,39.879 27.555,39.829 L27.555,39.829 C27.55,39.81 27.545,39.794 27.539,39.772 L27.539,39.772 C27.516,39.692 27.487,39.594 27.448,39.464 L27.448,39.464 C27.445,39.458 27.444,39.45 27.442,39.444 L27.442,39.444 C27.424,39.39 27.405,39.336 27.383,39.279 L27.383,39.279 C27.373,39.248 27.359,39.213 27.346,39.18 L27.346,39.18 C27.341,39.163 27.334,39.148 27.328,39.131 L27.328,39.131 C27.324,39.12 27.32,39.11 27.316,39.098 L27.316,39.098 C27.283,39.014 27.246,38.921 27.201,38.815 L27.201,38.815 C27.192,38.793 27.182,38.769 27.172,38.745 L27.172,38.745 C27.166,38.73 27.158,38.712 27.15,38.696 L27.15,38.696 C27.124,38.637 27.097,38.577 27.069,38.517 L27.069,38.517 C27.04,38.456 27.011,38.394 26.98,38.333 L26.98,38.333 C26.974,38.32 26.967,38.307 26.96,38.295 L26.96,38.295 C26.954,38.282 26.947,38.268 26.941,38.255 L26.941,38.255 C26.918,38.212 26.896,38.168 26.873,38.125 L26.873,38.125 C26.819,38.023 26.762,37.921 26.702,37.819 L26.702,37.819 C26.702,37.817 26.7,37.816 26.7,37.814 L26.7,37.814 C26.595,37.634 26.477,37.451 26.351,37.263 L26.351,37.263 C26.34,37.245 26.332,37.23 26.32,37.214 L26.32,37.214 C26.234,37.086 26.142,36.957 26.044,36.823 L26.044,36.823 C26.016,36.787 25.989,36.751 25.961,36.716 L25.961,36.716 C25.913,36.655 25.863,36.594 25.813,36.534 L25.813,36.534 C25.765,36.476 25.716,36.418 25.666,36.362 L25.666,36.362 C25.617,36.305 25.566,36.25 25.516,36.195 L25.516,36.195 C25.503,36.182 25.492,36.169 25.479,36.156 L25.479,36.156 C25.439,36.114 25.399,36.072 25.358,36.031 L25.358,36.031 C25.304,35.975 25.249,35.92 25.193,35.867 L25.193,35.867 C25.137,35.812 25.079,35.759 25.021,35.707 L25.021,35.707 C25.011,35.698 25.001,35.689 24.99,35.679 L24.99,35.679 C24.98,35.671 24.971,35.664 24.961,35.655 L24.961,35.655 C24.956,35.652 24.949,35.646 24.943,35.643 L24.943,35.643 C24.936,35.636 24.926,35.628 24.917,35.621 L24.917,35.621 C24.9,35.609 24.879,35.592 24.855,35.575 L24.855,35.575 C24.84,35.562 24.823,35.551 24.802,35.535 L24.802,35.535 C24.773,35.513 24.732,35.483 24.691,35.453 L24.691,35.453 C24.663,35.431 24.637,35.412 24.601,35.385 L24.601,35.385 C24.518,35.324 24.418,35.251 24.291,35.157 L24.291,35.157 C24.286,35.153 24.28,35.149 24.275,35.146 L24.275,35.146 C24.274,35.145 24.273,35.145 24.273,35.144 L24.273,35.144 C24.251,35.13 24.225,35.113 24.177,35.081 L24.177,35.081 C24.175,35.08 24.176,35.08 24.174,35.079 L24.174,35.079 C24.164,35.074 24.149,35.064 24.138,35.057 L24.138,35.057 C24.123,35.047 24.107,35.038 24.088,35.025 L24.088,35.025 C24.072,35.015 24.053,35.004 24.034,34.992 L24.034,34.992 C24.005,34.974 23.971,34.953 23.934,34.93 L23.934,34.93 C23.918,34.92 23.901,34.91 23.884,34.899 L23.884,34.899 C23.84,34.872 23.789,34.841 23.733,34.807 L23.733,34.807 C23.706,34.789 23.681,34.774 23.65,34.756 L23.65,34.756 C23.566,34.704 23.473,34.647 23.362,34.58 L23.362,34.58 C23.342,34.569 23.324,34.558 23.303,34.547 L23.303,34.547 C23.255,34.522 23.206,34.495 23.149,34.465 L23.149,34.465 L21.633,33.591 L21.729,0 L0.095,12.572 Z" id="path-10"></path>
        <polygon id="path-11" points="21.633 0 0 12.572 5.97 12.959 27.603 0.387"></polygon>
        <linearGradient x1="0%" y1="50.0010171%" x2="99.9996707%" y2="50.0010171%" id="linearGradient-13">
            <stop stop-color="#7EFFF9" offset="0%"></stop>
            <stop stop-color="#2A6DFF" offset="100%"></stop>
        </linearGradient>
        <linearGradient x1="61.0595511%" y1="50%" x2="-26.2359953%" y2="43.8544838%" id="linearGradient-14">
            <stop stop-color="#5191DB" offset="0%"></stop>
            <stop stop-color="#B2DBFF" offset="49.8933763%"></stop>
            <stop stop-color="#ECF4FC" offset="100%"></stop>
        </linearGradient>
        <polygon id="path-15" points="21.633 0 0 12.572 5.97 12.959 27.603 0.387"></polygon>
        <path d="M31.136,0 L22.482,5.029 C22.348,4.805 22.215,4.577 22.081,4.351 L22.081,4.351 C21.967,4.154 21.874,3.95 21.803,3.749 L21.803,3.749 C21.786,3.702 21.771,3.655 21.757,3.609 L21.757,3.609 C21.734,3.536 21.714,3.463 21.698,3.39 L21.698,3.39 C21.67,3.268 21.651,3.149 21.641,3.033 L21.641,3.033 C21.634,2.95 21.632,2.869 21.634,2.79 L21.634,2.79 C21.636,2.711 21.644,2.635 21.656,2.563 L21.656,2.563 C21.668,2.489 21.686,2.419 21.708,2.354 L21.708,2.354 C21.731,2.291 21.759,2.234 21.792,2.182 L21.792,2.182 C21.863,2.068 21.954,1.978 22.059,1.917 L22.059,1.917 L0.427,14.488 C0.323,14.549 0.234,14.635 0.164,14.746 L0.164,14.746 C0.162,14.749 0.16,14.75 0.158,14.754 L0.158,14.754 C0.14,14.784 0.122,14.816 0.106,14.849 L0.106,14.849 C0.095,14.874 0.085,14.899 0.075,14.925 L0.075,14.925 C0.069,14.941 0.064,14.956 0.059,14.974 L0.059,14.974 C0.052,14.999 0.045,15.025 0.04,15.051 L0.04,15.051 C0.033,15.075 0.029,15.101 0.024,15.126 L0.024,15.126 C0.023,15.128 0.023,15.131 0.023,15.134 L0.023,15.134 C0.019,15.155 0.016,15.176 0.014,15.198 L0.014,15.198 C0.011,15.221 0.008,15.245 0.006,15.27 L0.006,15.27 C0.005,15.293 0.003,15.316 0.002,15.341 L0.002,15.341 C0.002,15.348 0.001,15.355 0.001,15.362 L0.001,15.362 C0.001,15.379 0,15.396 0,15.412 L0,15.412 C0,15.436 0,15.46 0.001,15.484 L0.001,15.484 C0.002,15.507 0.003,15.532 0.005,15.556 L0.005,15.556 C0.005,15.572 0.006,15.588 0.008,15.605 L0.008,15.605 C0.008,15.613 0.009,15.621 0.01,15.628 L0.01,15.628 C0.013,15.651 0.014,15.676 0.018,15.699 L0.018,15.699 C0.021,15.724 0.024,15.749 0.029,15.774 L0.029,15.774 C0.033,15.8 0.037,15.827 0.042,15.853 L0.042,15.853 C0.048,15.881 0.053,15.909 0.059,15.937 L0.059,15.937 C0.061,15.945 0.063,15.954 0.065,15.962 L0.065,15.962 C0.069,15.98 0.074,15.998 0.077,16.016 L0.077,16.016 C0.084,16.042 0.092,16.069 0.099,16.097 L0.099,16.097 C0.106,16.125 0.115,16.153 0.123,16.181 L0.123,16.181 L0.123,16.182 C0.132,16.208 0.14,16.235 0.149,16.262 L0.149,16.262 C0.157,16.281 0.163,16.301 0.169,16.321 L0.169,16.321 C0.173,16.327 0.175,16.334 0.177,16.342 L0.177,16.342 C0.187,16.368 0.197,16.394 0.207,16.42 L0.207,16.42 C0.217,16.445 0.227,16.47 0.237,16.495 L0.237,16.495 C0.247,16.521 0.258,16.545 0.269,16.569 L0.269,16.569 C0.28,16.594 0.292,16.619 0.302,16.644 L0.302,16.644 C0.315,16.67 0.328,16.695 0.34,16.721 L0.34,16.721 C0.355,16.751 0.37,16.781 0.386,16.81 L0.386,16.81 C0.406,16.847 0.427,16.885 0.448,16.923 L0.448,16.923 C1.483,18.671 2.519,20.423 3.546,22.178 L3.546,22.178 C3.888,22.763 4.23,23.348 4.57,23.934 L4.57,23.934 C4.33,25.414 4.083,26.902 3.831,28.385 L3.831,28.385 C3.748,28.879 3.663,29.373 3.578,29.865 L3.578,29.865 C3.577,29.874 3.576,29.883 3.575,29.892 L3.575,29.892 C3.571,29.918 3.569,29.945 3.567,29.971 L3.567,29.971 C3.565,29.997 3.563,30.023 3.561,30.049 L3.561,30.049 C3.56,30.075 3.56,30.101 3.56,30.126 L3.56,30.126 C3.559,30.152 3.56,30.178 3.561,30.204 L3.561,30.204 C3.561,30.216 3.561,30.227 3.562,30.239 L3.562,30.239 C3.563,30.253 3.564,30.267 3.565,30.282 L3.565,30.282 C3.567,30.309 3.568,30.334 3.571,30.361 L3.571,30.361 C3.573,30.387 3.577,30.412 3.579,30.437 L3.579,30.437 C3.579,30.44 3.579,30.441 3.58,30.443 L3.58,30.443 C3.584,30.47 3.587,30.497 3.592,30.524 L3.592,30.524 L3.595,30.54 C3.597,30.56 3.601,30.58 3.605,30.599 L3.605,30.599 C3.61,30.629 3.616,30.659 3.622,30.689 L3.622,30.689 C3.624,30.698 3.627,30.708 3.629,30.717 L3.629,30.717 C3.634,30.738 3.639,30.759 3.644,30.779 L3.644,30.779 C3.651,30.808 3.658,30.838 3.667,30.867 L3.667,30.867 C3.675,30.896 3.684,30.925 3.693,30.954 L3.693,30.954 C3.702,30.983 3.711,31.012 3.72,31.04 L3.72,31.04 C3.73,31.068 3.74,31.096 3.749,31.124 L3.749,31.124 C3.759,31.152 3.77,31.179 3.78,31.206 L3.78,31.206 C3.785,31.217 3.789,31.228 3.794,31.238 L3.794,31.238 C3.821,31.308 3.843,31.357 3.86,31.396 L3.86,31.396 C3.871,31.421 3.881,31.442 3.89,31.462 L3.89,31.462 C3.896,31.474 3.902,31.486 3.908,31.499 L3.908,31.499 C3.912,31.508 3.917,31.517 3.922,31.526 L3.922,31.526 C3.937,31.553 3.95,31.579 3.964,31.605 L3.964,31.605 C4.116,31.792 4.229,31.932 4.324,32.05 L4.324,32.05 C4.341,32.071 4.361,32.097 4.377,32.117 L4.377,32.117 C4.391,32.134 4.402,32.146 4.415,32.162 L4.415,32.162 C4.449,32.204 4.483,32.246 4.509,32.278 L4.509,32.278 C4.517,32.288 4.522,32.293 4.529,32.301 L4.529,32.301 C4.554,32.334 4.579,32.363 4.597,32.386 L4.597,32.386 C4.598,32.387 4.6,32.389 4.601,32.389 L4.601,32.389 C4.604,32.393 4.604,32.394 4.608,32.398 L4.608,32.398 C4.631,32.426 4.649,32.446 4.662,32.462 L4.662,32.462 C4.664,32.464 4.668,32.47 4.671,32.471 L4.671,32.471 C4.676,32.478 4.679,32.482 4.684,32.487 L4.684,32.487 C4.684,32.488 4.684,32.489 4.684,32.489 L4.684,32.489 C4.686,32.489 4.688,32.491 4.689,32.492 L4.689,32.492 C4.693,32.496 4.695,32.499 4.698,32.502 L4.698,32.502 L4.703,32.507 L4.704,32.508 C4.706,32.509 4.707,32.511 4.708,32.512 L4.708,32.512 C4.71,32.514 4.712,32.515 4.713,32.516 L4.713,32.516 C4.714,32.517 4.715,32.517 4.715,32.518 L4.715,32.518 C4.812,32.584 4.884,32.633 4.941,32.67 L4.941,32.67 C4.958,32.683 4.967,32.688 4.982,32.698 L4.982,32.698 C5.014,32.719 5.045,32.74 5.064,32.752 L5.064,32.752 C5.067,32.754 5.072,32.757 5.073,32.758 L5.073,32.758 C5.091,32.769 5.105,32.777 5.115,32.784 L5.115,32.784 C5.117,32.785 5.117,32.785 5.119,32.786 L5.119,32.786 C5.121,32.787 5.122,32.787 5.123,32.788 L5.123,32.788 C5.126,32.79 5.13,32.793 5.133,32.794 L5.133,32.794 C5.138,32.796 5.143,32.799 5.147,32.801 L5.147,32.801 C5.149,32.802 5.152,32.803 5.153,32.804 L5.153,32.804 C5.155,32.804 5.156,32.805 5.157,32.806 L5.157,32.806 C5.191,32.82 5.225,32.832 5.26,32.844 L5.26,32.844 C5.293,32.857 5.326,32.867 5.359,32.876 L5.359,32.876 C5.392,32.887 5.425,32.896 5.458,32.904 L5.458,32.904 C5.49,32.912 5.522,32.92 5.554,32.926 L5.554,32.926 C5.567,32.928 5.58,32.93 5.593,32.932 L5.593,32.932 C5.612,32.936 5.631,32.939 5.65,32.942 L5.65,32.942 C5.684,32.946 5.716,32.949 5.748,32.951 L5.748,32.951 C5.782,32.954 5.815,32.955 5.848,32.955 L5.848,32.955 C5.865,32.955 5.883,32.955 5.9,32.954 L5.9,32.954 C5.917,32.953 5.936,32.952 5.953,32.95 L5.953,32.95 C5.967,32.949 5.982,32.948 5.998,32.946 L5.998,32.946 L10.866,32.817 L15.997,38.892 L16.018,38.916 C16.037,38.937 16.055,38.958 16.074,38.978 L16.074,38.978 C16.158,39.058 16.215,39.112 16.26,39.154 L16.26,39.154 C16.275,39.167 16.285,39.176 16.296,39.187 L16.296,39.187 C16.321,39.211 16.342,39.23 16.356,39.244 L16.356,39.244 C16.359,39.246 16.367,39.253 16.369,39.256 L16.369,39.256 C16.375,39.26 16.376,39.262 16.381,39.265 L16.381,39.265 C16.384,39.268 16.387,39.272 16.39,39.274 L16.39,39.274 C16.391,39.275 16.393,39.276 16.393,39.276 L16.393,39.276 C16.399,39.282 16.403,39.285 16.407,39.288 L16.407,39.288 L16.408,39.288 C16.433,39.309 16.454,39.324 16.473,39.338 L16.473,39.338 C16.482,39.345 16.49,39.351 16.499,39.356 L16.499,39.356 C16.563,39.397 16.607,39.425 16.643,39.447 L16.643,39.447 C16.648,39.451 16.652,39.453 16.656,39.455 L16.656,39.455 C16.68,39.47 16.7,39.482 16.714,39.491 L16.714,39.491 C16.716,39.492 16.721,39.495 16.723,39.497 L16.723,39.497 C16.729,39.499 16.733,39.502 16.737,39.504 L16.737,39.504 C16.74,39.506 16.744,39.508 16.746,39.509 L16.746,39.509 C16.748,39.51 16.75,39.511 16.751,39.511 L16.751,39.511 C16.756,39.515 16.762,39.517 16.766,39.52 L16.766,39.52 C16.771,39.523 16.778,39.526 16.782,39.528 L16.782,39.528 C16.805,39.539 16.823,39.548 16.841,39.555 L16.841,39.555 C16.85,39.56 16.859,39.563 16.867,39.567 L16.867,39.567 C16.88,39.572 16.89,39.577 16.899,39.581 L16.899,39.581 C16.926,39.59 16.943,39.598 16.96,39.603 L16.96,39.603 L16.961,39.604 C16.991,39.614 17.013,39.621 17.032,39.626 L17.032,39.626 C17.045,39.631 17.057,39.635 17.068,39.637 L17.068,39.637 C17.07,39.637 17.071,39.637 17.073,39.638 L17.073,39.638 C17.105,39.646 17.127,39.651 17.147,39.654 L17.147,39.654 C17.15,39.655 17.152,39.655 17.155,39.656 L17.155,39.656 C17.184,39.661 17.204,39.664 17.221,39.667 L17.221,39.667 C17.233,39.669 17.244,39.67 17.255,39.67 L17.255,39.67 C17.263,39.671 17.271,39.672 17.279,39.672 L17.279,39.672 C17.303,39.674 17.323,39.675 17.343,39.675 L17.343,39.675 L17.346,39.675 C17.386,39.674 17.405,39.673 17.425,39.671 L17.425,39.671 L17.426,39.671 C17.466,39.667 17.491,39.663 17.512,39.66 L17.512,39.66 C17.515,39.659 17.518,39.658 17.521,39.658 L17.521,39.658 C17.555,39.649 17.576,39.644 17.595,39.637 L17.595,39.637 C17.599,39.636 17.603,39.635 17.606,39.634 L17.606,39.634 C17.641,39.621 17.66,39.614 17.679,39.606 L17.679,39.606 C17.699,39.596 17.716,39.587 17.732,39.578 L17.732,39.578 L39.364,27.006 C39.349,27.015 39.332,27.024 39.312,27.034 L39.312,27.034 C39.291,27.043 39.27,27.052 39.227,27.066 L39.227,27.066 C39.208,27.072 39.189,27.078 39.154,27.086 L39.154,27.086 C39.129,27.09 39.105,27.095 39.06,27.099 L39.06,27.099 C39.039,27.101 39.02,27.102 38.976,27.104 L38.976,27.104 C38.95,27.103 38.923,27.102 38.888,27.099 L38.888,27.099 C38.863,27.097 38.838,27.093 38.787,27.084 L38.787,27.084 C38.764,27.079 38.74,27.075 38.702,27.065 L38.702,27.065 C38.673,27.058 38.644,27.049 38.594,27.032 L38.594,27.032 C38.57,27.024 38.546,27.015 38.5,26.996 L38.5,26.996 C38.471,26.983 38.441,26.969 38.399,26.948 L38.399,26.948 C38.394,26.945 38.388,26.942 38.38,26.938 L38.38,26.938 C38.377,26.936 38.373,26.934 38.371,26.933 L38.371,26.933 C38.364,26.929 38.355,26.924 38.347,26.918 L38.347,26.918 C38.333,26.91 38.314,26.899 38.29,26.883 L38.29,26.883 C38.284,26.881 38.281,26.879 38.275,26.875 L38.275,26.875 C38.24,26.854 38.195,26.825 38.131,26.785 L38.131,26.785 C38.105,26.766 38.078,26.747 38.041,26.717 L38.041,26.717 C38.037,26.713 38.03,26.709 38.022,26.702 L38.022,26.702 C38.021,26.7 38.017,26.697 38.013,26.693 L38.013,26.693 C38.008,26.689 37.998,26.68 37.989,26.672 L37.989,26.672 C37.975,26.659 37.954,26.639 37.929,26.616 L37.929,26.616 C37.918,26.605 37.908,26.596 37.894,26.583 L37.894,26.583 C37.848,26.54 37.791,26.486 37.707,26.406 L37.707,26.406 C37.681,26.378 37.656,26.35 37.631,26.321 L37.631,26.321 L33.766,21.744 L42.729,16.535 L38.811,18.641 L33.669,21.63 L32.499,20.245 L27.63,20.374 C27.598,20.378 27.566,20.381 27.533,20.383 L27.533,20.383 C27.434,20.386 27.332,20.379 27.225,20.361 L27.225,20.361 C27.084,20.337 26.937,20.293 26.787,20.232 L26.787,20.232 C26.778,20.229 26.769,20.223 26.756,20.216 L26.756,20.216 C26.755,20.216 26.754,20.215 26.753,20.214 L26.753,20.214 C26.74,20.207 26.721,20.195 26.698,20.18 L26.698,20.18 C26.678,20.167 26.647,20.148 26.615,20.126 L26.615,20.126 C26.6,20.116 26.591,20.111 26.573,20.098 L26.573,20.098 C26.517,20.06 26.445,20.012 26.348,19.946 L26.348,19.946 C26.346,19.943 26.342,19.941 26.338,19.937 L26.338,19.937 L26.337,19.936 C26.333,19.932 26.327,19.926 26.32,19.918 L26.32,19.918 C26.318,19.916 26.316,19.915 26.314,19.913 L26.314,19.913 C26.31,19.907 26.303,19.898 26.295,19.89 L26.295,19.89 C26.282,19.875 26.265,19.854 26.241,19.826 L26.241,19.826 C26.237,19.822 26.234,19.818 26.23,19.814 L26.23,19.814 C26.212,19.791 26.187,19.762 26.161,19.73 L26.161,19.73 C26.154,19.721 26.15,19.716 26.142,19.707 L26.142,19.707 C26.116,19.674 26.082,19.632 26.048,19.59 L26.048,19.59 C26.034,19.574 26.024,19.563 26.01,19.545 L26.01,19.545 C25.995,19.526 25.974,19.499 25.957,19.478 L25.957,19.478 C25.862,19.361 25.748,19.22 25.598,19.033 L25.598,19.033 C25.578,18.997 25.559,18.962 25.541,18.926 L25.541,18.926 C25.527,18.898 25.513,18.869 25.497,18.832 L25.497,18.832 C25.496,18.829 25.495,18.827 25.493,18.825 L25.493,18.825 C25.475,18.785 25.456,18.736 25.426,18.667 L25.426,18.667 C25.356,18.491 25.301,18.316 25.262,18.145 L25.262,18.145 C25.249,18.086 25.237,18.026 25.227,17.968 L25.227,17.968 C25.222,17.934 25.217,17.9 25.213,17.866 L25.213,17.866 C25.204,17.799 25.198,17.732 25.195,17.667 L25.195,17.667 C25.189,17.537 25.195,17.412 25.212,17.293 L25.212,17.293 C25.296,16.801 25.381,16.307 25.465,15.812 L25.465,15.812 C25.717,14.33 25.963,12.842 26.204,11.362 L26.204,11.362 C26.114,11.209 26.025,11.056 25.936,10.903 L25.936,10.903 C25.685,10.471 25.432,10.038 25.179,9.606 L25.179,9.606 C24.694,8.778 24.205,7.952 23.717,7.125 L23.717,7.125 L28.651,4.256 L31.136,0 Z" id="path-16"></path>
        <linearGradient x1="0%" y1="50.0003614%" x2="100.000964%" y2="50.0003614%" id="linearGradient-18">
            <stop stop-color="#7EFFF9" offset="0%"></stop>
            <stop stop-color="#2A6DFF" offset="100%"></stop>
        </linearGradient>
        <linearGradient x1="50%" y1="50%" x2="-31.4336626%" y2="74.8350155%" id="linearGradient-19">
            <stop stop-color="#5191DB" offset="0%"></stop>
            <stop stop-color="#B2DBFF" offset="82.4935785%"></stop>
            <stop stop-color="#ECF4FC" offset="100%"></stop>
        </linearGradient>
        <path d="M31.136,0 L22.482,5.029 C22.348,4.805 22.215,4.577 22.081,4.351 L22.081,4.351 C21.967,4.154 21.874,3.95 21.803,3.749 L21.803,3.749 C21.786,3.702 21.771,3.655 21.757,3.609 L21.757,3.609 C21.734,3.536 21.714,3.463 21.698,3.39 L21.698,3.39 C21.67,3.268 21.651,3.149 21.641,3.033 L21.641,3.033 C21.634,2.95 21.632,2.869 21.634,2.79 L21.634,2.79 C21.636,2.711 21.644,2.635 21.656,2.563 L21.656,2.563 C21.668,2.489 21.686,2.419 21.708,2.354 L21.708,2.354 C21.731,2.291 21.759,2.234 21.792,2.182 L21.792,2.182 C21.863,2.068 21.954,1.978 22.059,1.917 L22.059,1.917 L0.427,14.488 C0.323,14.549 0.234,14.635 0.164,14.746 L0.164,14.746 C0.162,14.749 0.16,14.75 0.158,14.754 L0.158,14.754 C0.14,14.784 0.122,14.816 0.106,14.849 L0.106,14.849 C0.095,14.874 0.085,14.899 0.075,14.925 L0.075,14.925 C0.069,14.941 0.064,14.956 0.059,14.974 L0.059,14.974 C0.052,14.999 0.045,15.025 0.04,15.051 L0.04,15.051 C0.033,15.075 0.029,15.101 0.024,15.126 L0.024,15.126 C0.023,15.128 0.023,15.131 0.023,15.134 L0.023,15.134 C0.019,15.155 0.016,15.176 0.014,15.198 L0.014,15.198 C0.011,15.221 0.008,15.245 0.006,15.27 L0.006,15.27 C0.005,15.293 0.003,15.316 0.002,15.341 L0.002,15.341 C0.002,15.348 0.001,15.355 0.001,15.362 L0.001,15.362 C0.001,15.379 0,15.396 0,15.412 L0,15.412 C0,15.436 0,15.46 0.001,15.484 L0.001,15.484 C0.002,15.507 0.003,15.532 0.005,15.556 L0.005,15.556 C0.005,15.572 0.006,15.588 0.008,15.605 L0.008,15.605 C0.008,15.613 0.009,15.621 0.01,15.628 L0.01,15.628 C0.013,15.651 0.014,15.676 0.018,15.699 L0.018,15.699 C0.021,15.724 0.024,15.749 0.029,15.774 L0.029,15.774 C0.033,15.8 0.037,15.827 0.042,15.853 L0.042,15.853 C0.048,15.881 0.053,15.909 0.059,15.937 L0.059,15.937 C0.061,15.945 0.063,15.954 0.065,15.962 L0.065,15.962 C0.069,15.98 0.074,15.998 0.077,16.016 L0.077,16.016 C0.084,16.042 0.092,16.069 0.099,16.097 L0.099,16.097 C0.106,16.125 0.115,16.153 0.123,16.181 L0.123,16.181 L0.123,16.182 C0.132,16.208 0.14,16.235 0.149,16.262 L0.149,16.262 C0.157,16.281 0.163,16.301 0.169,16.321 L0.169,16.321 C0.173,16.327 0.175,16.334 0.177,16.342 L0.177,16.342 C0.187,16.368 0.197,16.394 0.207,16.42 L0.207,16.42 C0.217,16.445 0.227,16.47 0.237,16.495 L0.237,16.495 C0.247,16.521 0.258,16.545 0.269,16.569 L0.269,16.569 C0.28,16.594 0.292,16.619 0.302,16.644 L0.302,16.644 C0.315,16.67 0.328,16.695 0.34,16.721 L0.34,16.721 C0.355,16.751 0.37,16.781 0.386,16.81 L0.386,16.81 C0.406,16.847 0.427,16.885 0.448,16.923 L0.448,16.923 C1.483,18.671 2.519,20.423 3.546,22.178 L3.546,22.178 C3.888,22.763 4.23,23.348 4.57,23.934 L4.57,23.934 C4.33,25.414 4.083,26.902 3.831,28.385 L3.831,28.385 C3.748,28.879 3.663,29.373 3.578,29.865 L3.578,29.865 C3.577,29.874 3.576,29.883 3.575,29.892 L3.575,29.892 C3.571,29.918 3.569,29.945 3.567,29.971 L3.567,29.971 C3.565,29.997 3.563,30.023 3.561,30.049 L3.561,30.049 C3.56,30.075 3.56,30.101 3.56,30.126 L3.56,30.126 C3.559,30.152 3.56,30.178 3.561,30.204 L3.561,30.204 C3.561,30.216 3.561,30.227 3.562,30.239 L3.562,30.239 C3.563,30.253 3.564,30.267 3.565,30.282 L3.565,30.282 C3.567,30.309 3.568,30.334 3.571,30.361 L3.571,30.361 C3.573,30.387 3.577,30.412 3.579,30.437 L3.579,30.437 C3.579,30.44 3.579,30.441 3.58,30.443 L3.58,30.443 C3.584,30.47 3.587,30.497 3.592,30.524 L3.592,30.524 L3.595,30.54 C3.597,30.56 3.601,30.58 3.605,30.599 L3.605,30.599 C3.61,30.629 3.616,30.659 3.622,30.689 L3.622,30.689 C3.624,30.698 3.627,30.708 3.629,30.717 L3.629,30.717 C3.634,30.738 3.639,30.759 3.644,30.779 L3.644,30.779 C3.651,30.808 3.658,30.838 3.667,30.867 L3.667,30.867 C3.675,30.896 3.684,30.925 3.693,30.954 L3.693,30.954 C3.702,30.983 3.711,31.012 3.72,31.04 L3.72,31.04 C3.73,31.068 3.74,31.096 3.749,31.124 L3.749,31.124 C3.759,31.152 3.77,31.179 3.78,31.206 L3.78,31.206 C3.785,31.217 3.789,31.228 3.794,31.238 L3.794,31.238 C3.821,31.308 3.843,31.357 3.86,31.396 L3.86,31.396 C3.871,31.421 3.881,31.442 3.89,31.462 L3.89,31.462 C3.896,31.474 3.902,31.486 3.908,31.499 L3.908,31.499 C3.912,31.508 3.917,31.517 3.922,31.526 L3.922,31.526 C3.937,31.553 3.95,31.579 3.964,31.605 L3.964,31.605 C4.116,31.792 4.229,31.932 4.324,32.05 L4.324,32.05 C4.341,32.071 4.361,32.097 4.377,32.117 L4.377,32.117 C4.391,32.134 4.402,32.146 4.415,32.162 L4.415,32.162 C4.449,32.204 4.483,32.246 4.509,32.278 L4.509,32.278 C4.517,32.288 4.522,32.293 4.529,32.301 L4.529,32.301 C4.554,32.334 4.579,32.363 4.597,32.386 L4.597,32.386 C4.598,32.387 4.6,32.389 4.601,32.389 L4.601,32.389 C4.604,32.393 4.604,32.394 4.608,32.398 L4.608,32.398 C4.631,32.426 4.649,32.446 4.662,32.462 L4.662,32.462 C4.664,32.464 4.668,32.47 4.671,32.471 L4.671,32.471 C4.676,32.478 4.679,32.482 4.684,32.487 L4.684,32.487 C4.684,32.488 4.684,32.489 4.684,32.489 L4.684,32.489 C4.686,32.489 4.688,32.491 4.689,32.492 L4.689,32.492 C4.693,32.496 4.695,32.499 4.698,32.502 L4.698,32.502 L4.703,32.507 L4.704,32.508 C4.706,32.509 4.707,32.511 4.708,32.512 L4.708,32.512 C4.71,32.514 4.712,32.515 4.713,32.516 L4.713,32.516 C4.714,32.517 4.715,32.517 4.715,32.518 L4.715,32.518 C4.812,32.584 4.884,32.633 4.941,32.67 L4.941,32.67 C4.958,32.683 4.967,32.688 4.982,32.698 L4.982,32.698 C5.014,32.719 5.045,32.74 5.064,32.752 L5.064,32.752 C5.067,32.754 5.072,32.757 5.073,32.758 L5.073,32.758 C5.091,32.769 5.105,32.777 5.115,32.784 L5.115,32.784 C5.117,32.785 5.117,32.785 5.119,32.786 L5.119,32.786 C5.121,32.787 5.122,32.787 5.123,32.788 L5.123,32.788 C5.126,32.79 5.13,32.793 5.133,32.794 L5.133,32.794 C5.138,32.796 5.143,32.799 5.147,32.801 L5.147,32.801 C5.149,32.802 5.152,32.803 5.153,32.804 L5.153,32.804 C5.155,32.804 5.156,32.805 5.157,32.806 L5.157,32.806 C5.191,32.82 5.225,32.832 5.26,32.844 L5.26,32.844 C5.293,32.857 5.326,32.867 5.359,32.876 L5.359,32.876 C5.392,32.887 5.425,32.896 5.458,32.904 L5.458,32.904 C5.49,32.912 5.522,32.92 5.554,32.926 L5.554,32.926 C5.567,32.928 5.58,32.93 5.593,32.932 L5.593,32.932 C5.612,32.936 5.631,32.939 5.65,32.942 L5.65,32.942 C5.684,32.946 5.716,32.949 5.748,32.951 L5.748,32.951 C5.782,32.954 5.815,32.955 5.848,32.955 L5.848,32.955 C5.865,32.955 5.883,32.955 5.9,32.954 L5.9,32.954 C5.917,32.953 5.936,32.952 5.953,32.95 L5.953,32.95 C5.967,32.949 5.982,32.948 5.998,32.946 L5.998,32.946 L10.866,32.817 L15.997,38.892 L16.018,38.916 C16.037,38.937 16.055,38.958 16.074,38.978 L16.074,38.978 C16.158,39.058 16.215,39.112 16.26,39.154 L16.26,39.154 C16.275,39.167 16.285,39.176 16.296,39.187 L16.296,39.187 C16.321,39.211 16.342,39.23 16.356,39.244 L16.356,39.244 C16.359,39.246 16.367,39.253 16.369,39.256 L16.369,39.256 C16.375,39.26 16.376,39.262 16.381,39.265 L16.381,39.265 C16.384,39.268 16.387,39.272 16.39,39.274 L16.39,39.274 C16.391,39.275 16.393,39.276 16.393,39.276 L16.393,39.276 C16.399,39.282 16.403,39.285 16.407,39.288 L16.407,39.288 L16.408,39.288 C16.433,39.309 16.454,39.324 16.473,39.338 L16.473,39.338 C16.482,39.345 16.49,39.351 16.499,39.356 L16.499,39.356 C16.563,39.397 16.607,39.425 16.643,39.447 L16.643,39.447 C16.648,39.451 16.652,39.453 16.656,39.455 L16.656,39.455 C16.68,39.47 16.7,39.482 16.714,39.491 L16.714,39.491 C16.716,39.492 16.721,39.495 16.723,39.497 L16.723,39.497 C16.729,39.499 16.733,39.502 16.737,39.504 L16.737,39.504 C16.74,39.506 16.744,39.508 16.746,39.509 L16.746,39.509 C16.748,39.51 16.75,39.511 16.751,39.511 L16.751,39.511 C16.756,39.515 16.762,39.517 16.766,39.52 L16.766,39.52 C16.771,39.523 16.778,39.526 16.782,39.528 L16.782,39.528 C16.805,39.539 16.823,39.548 16.841,39.555 L16.841,39.555 C16.85,39.56 16.859,39.563 16.867,39.567 L16.867,39.567 C16.88,39.572 16.89,39.577 16.899,39.581 L16.899,39.581 C16.926,39.59 16.943,39.598 16.96,39.603 L16.96,39.603 L16.961,39.604 C16.991,39.614 17.013,39.621 17.032,39.626 L17.032,39.626 C17.045,39.631 17.057,39.635 17.068,39.637 L17.068,39.637 C17.07,39.637 17.071,39.637 17.073,39.638 L17.073,39.638 C17.105,39.646 17.127,39.651 17.147,39.654 L17.147,39.654 C17.15,39.655 17.152,39.655 17.155,39.656 L17.155,39.656 C17.184,39.661 17.204,39.664 17.221,39.667 L17.221,39.667 C17.233,39.669 17.244,39.67 17.255,39.67 L17.255,39.67 C17.263,39.671 17.271,39.672 17.279,39.672 L17.279,39.672 C17.303,39.674 17.323,39.675 17.343,39.675 L17.343,39.675 L17.346,39.675 C17.386,39.674 17.405,39.673 17.425,39.671 L17.425,39.671 L17.426,39.671 C17.466,39.667 17.491,39.663 17.512,39.66 L17.512,39.66 C17.515,39.659 17.518,39.658 17.521,39.658 L17.521,39.658 C17.555,39.649 17.576,39.644 17.595,39.637 L17.595,39.637 C17.599,39.636 17.603,39.635 17.606,39.634 L17.606,39.634 C17.641,39.621 17.66,39.614 17.679,39.606 L17.679,39.606 C17.699,39.596 17.716,39.587 17.732,39.578 L17.732,39.578 L39.364,27.006 C39.349,27.015 39.332,27.024 39.312,27.034 L39.312,27.034 C39.291,27.043 39.27,27.052 39.227,27.066 L39.227,27.066 C39.208,27.072 39.189,27.078 39.154,27.086 L39.154,27.086 C39.129,27.09 39.105,27.095 39.06,27.099 L39.06,27.099 C39.039,27.101 39.02,27.102 38.976,27.104 L38.976,27.104 C38.95,27.103 38.923,27.102 38.888,27.099 L38.888,27.099 C38.863,27.097 38.838,27.093 38.787,27.084 L38.787,27.084 C38.764,27.079 38.74,27.075 38.702,27.065 L38.702,27.065 C38.673,27.058 38.644,27.049 38.594,27.032 L38.594,27.032 C38.57,27.024 38.546,27.015 38.5,26.996 L38.5,26.996 C38.471,26.983 38.441,26.969 38.399,26.948 L38.399,26.948 C38.394,26.945 38.388,26.942 38.38,26.938 L38.38,26.938 C38.377,26.936 38.373,26.934 38.371,26.933 L38.371,26.933 C38.364,26.929 38.355,26.924 38.347,26.918 L38.347,26.918 C38.333,26.91 38.314,26.899 38.29,26.883 L38.29,26.883 C38.284,26.881 38.281,26.879 38.275,26.875 L38.275,26.875 C38.24,26.854 38.195,26.825 38.131,26.785 L38.131,26.785 C38.105,26.766 38.078,26.747 38.041,26.717 L38.041,26.717 C38.037,26.713 38.03,26.709 38.022,26.702 L38.022,26.702 C38.021,26.7 38.017,26.697 38.013,26.693 L38.013,26.693 C38.008,26.689 37.998,26.68 37.989,26.672 L37.989,26.672 C37.975,26.659 37.954,26.639 37.929,26.616 L37.929,26.616 C37.918,26.605 37.908,26.596 37.894,26.583 L37.894,26.583 C37.848,26.54 37.791,26.486 37.707,26.406 L37.707,26.406 C37.681,26.378 37.656,26.35 37.631,26.321 L37.631,26.321 L33.766,21.744 L42.729,16.535 L38.811,18.641 L33.669,21.63 L32.499,20.245 L27.63,20.374 C27.598,20.378 27.566,20.381 27.533,20.383 L27.533,20.383 C27.434,20.386 27.332,20.379 27.225,20.361 L27.225,20.361 C27.084,20.337 26.937,20.293 26.787,20.232 L26.787,20.232 C26.778,20.229 26.769,20.223 26.756,20.216 L26.756,20.216 C26.755,20.216 26.754,20.215 26.753,20.214 L26.753,20.214 C26.74,20.207 26.721,20.195 26.698,20.18 L26.698,20.18 C26.678,20.167 26.647,20.148 26.615,20.126 L26.615,20.126 C26.6,20.116 26.591,20.111 26.573,20.098 L26.573,20.098 C26.517,20.06 26.445,20.012 26.348,19.946 L26.348,19.946 C26.346,19.943 26.342,19.941 26.338,19.937 L26.338,19.937 L26.337,19.936 C26.333,19.932 26.327,19.926 26.32,19.918 L26.32,19.918 C26.318,19.916 26.316,19.915 26.314,19.913 L26.314,19.913 C26.31,19.907 26.303,19.898 26.295,19.89 L26.295,19.89 C26.282,19.875 26.265,19.854 26.241,19.826 L26.241,19.826 C26.237,19.822 26.234,19.818 26.23,19.814 L26.23,19.814 C26.212,19.791 26.187,19.762 26.161,19.73 L26.161,19.73 C26.154,19.721 26.15,19.716 26.142,19.707 L26.142,19.707 C26.116,19.674 26.082,19.632 26.048,19.59 L26.048,19.59 C26.034,19.574 26.024,19.563 26.01,19.545 L26.01,19.545 C25.995,19.526 25.974,19.499 25.957,19.478 L25.957,19.478 C25.862,19.361 25.748,19.22 25.598,19.033 L25.598,19.033 C25.578,18.997 25.559,18.962 25.541,18.926 L25.541,18.926 C25.527,18.898 25.513,18.869 25.497,18.832 L25.497,18.832 C25.496,18.829 25.495,18.827 25.493,18.825 L25.493,18.825 C25.475,18.785 25.456,18.736 25.426,18.667 L25.426,18.667 C25.356,18.491 25.301,18.316 25.262,18.145 L25.262,18.145 C25.249,18.086 25.237,18.026 25.227,17.968 L25.227,17.968 C25.222,17.934 25.217,17.9 25.213,17.866 L25.213,17.866 C25.204,17.799 25.198,17.732 25.195,17.667 L25.195,17.667 C25.189,17.537 25.195,17.412 25.212,17.293 L25.212,17.293 C25.296,16.801 25.381,16.307 25.465,15.812 L25.465,15.812 C25.717,14.33 25.963,12.842 26.204,11.362 L26.204,11.362 C26.114,11.209 26.025,11.056 25.936,10.903 L25.936,10.903 C25.685,10.471 25.432,10.038 25.179,9.606 L25.179,9.606 C24.694,8.778 24.205,7.952 23.717,7.125 L23.717,7.125 L28.651,4.256 L31.136,0 Z" id="path-20"></path>
        <path d="M50.484,0 C50.409,0 50.335,0.004 50.263,0.01 L50.263,0.01 C50.222,0.014 50.181,0.018 50.142,0.024 L50.142,0.024 C50.098,0.03 50.053,0.038 50.008,0.046 L50.008,0.046 C49.969,0.054 49.93,0.062 49.891,0.072 L49.891,0.072 L22.174,2.716 C22.129,2.72 22.085,2.726 22.042,2.735 L22.042,2.735 C21.978,2.748 21.916,2.765 21.856,2.786 L21.856,2.786 C21.778,2.813 21.704,2.847 21.633,2.887 L21.633,2.887 L0,15.46 C0.161,15.366 0.343,15.307 0.541,15.288 L0.541,15.288 L28.258,12.644 C28.34,12.624 28.424,12.607 28.508,12.596 L28.508,12.596 C28.679,12.572 28.856,12.565 29.039,12.578 L29.039,12.578 C29.13,12.584 29.224,12.594 29.318,12.609 L29.318,12.609 L58.986,48.933 C59.189,49.185 59.373,49.457 59.533,49.739 L59.533,49.739 C59.593,49.843 59.648,49.949 59.702,50.057 L59.702,50.057 C59.758,50.172 59.811,50.29 59.859,50.408 L59.859,50.408 C59.908,50.524 59.952,50.641 59.99,50.757 L59.99,50.757 C60.023,50.858 60.042,50.923 60.06,50.984 L60.06,50.984 C60.065,51.003 60.073,51.029 60.078,51.046 L60.078,51.046 C60.096,51.108 60.107,51.157 60.119,51.203 L60.119,51.203 C60.15,51.34 60.175,51.474 60.194,51.605 L60.194,51.605 C60.212,51.736 60.223,51.864 60.229,51.988 L60.229,51.988 C60.228,52.195 60.215,52.382 60.191,52.553 L60.191,52.553 C60.19,52.56 60.189,52.568 60.188,52.574 L60.188,52.574 C60.164,52.738 60.129,52.887 60.084,53.021 L60.084,53.021 C60.081,53.027 60.079,53.034 60.077,53.04 L60.077,53.04 C60.031,53.171 59.974,53.286 59.908,53.388 L59.908,53.388 C59.835,53.501 59.75,53.598 59.654,53.679 L59.654,53.679 L81.287,41.107 C81.383,41.027 81.468,40.929 81.541,40.816 L81.541,40.816 C81.544,40.813 81.547,40.81 81.55,40.805 L81.55,40.805 C81.582,40.755 81.612,40.701 81.64,40.643 L81.64,40.643 C81.661,40.598 81.681,40.55 81.7,40.499 L81.7,40.499 C81.704,40.49 81.706,40.479 81.71,40.469 L81.71,40.469 C81.713,40.462 81.715,40.455 81.716,40.449 L81.716,40.449 C81.726,40.42 81.737,40.391 81.746,40.361 L81.746,40.361 C81.759,40.317 81.77,40.271 81.781,40.224 L81.781,40.224 C81.792,40.178 81.801,40.131 81.81,40.082 L81.81,40.082 C81.814,40.057 81.817,40.029 81.822,40.002 L81.822,40.002 C81.823,39.995 81.824,39.988 81.824,39.982 L81.824,39.982 C81.827,39.966 81.829,39.951 81.831,39.935 L81.831,39.935 C81.838,39.885 81.842,39.833 81.847,39.779 L81.847,39.779 C81.851,39.724 81.855,39.668 81.858,39.61 L81.858,39.61 C81.86,39.551 81.861,39.49 81.862,39.427 L81.862,39.427 L81.862,39.416 C81.861,39.391 81.859,39.366 81.858,39.341 L81.858,39.341 C81.856,39.3 81.852,39.258 81.848,39.216 L81.848,39.216 C81.844,39.174 81.84,39.131 81.834,39.089 L81.834,39.089 C81.832,39.07 81.829,39.052 81.826,39.033 L81.826,39.033 C81.823,39.008 81.819,38.984 81.815,38.96 L81.815,38.96 C81.809,38.915 81.801,38.87 81.793,38.826 L81.793,38.826 C81.784,38.781 81.775,38.735 81.765,38.689 L81.765,38.689 C81.76,38.67 81.756,38.651 81.751,38.632 L81.751,38.632 C81.749,38.618 81.745,38.605 81.742,38.591 L81.742,38.591 C81.734,38.56 81.726,38.528 81.715,38.491 L81.715,38.491 C81.715,38.486 81.712,38.479 81.71,38.474 L81.71,38.474 C81.706,38.458 81.697,38.431 81.692,38.413 L81.692,38.413 C81.681,38.374 81.672,38.34 81.655,38.287 L81.655,38.287 C81.646,38.256 81.635,38.222 81.624,38.186 L81.624,38.186 C81.611,38.148 81.598,38.11 81.584,38.072 L81.584,38.072 C81.57,38.031 81.554,37.99 81.538,37.95 L81.538,37.95 C81.524,37.912 81.508,37.874 81.492,37.836 L81.492,37.836 L81.487,37.822 C81.471,37.781 81.454,37.742 81.436,37.702 L81.436,37.702 C81.418,37.663 81.4,37.623 81.382,37.583 L81.382,37.583 C81.366,37.55 81.35,37.518 81.334,37.484 L81.334,37.484 C81.329,37.475 81.325,37.466 81.32,37.456 L81.32,37.456 C81.295,37.407 81.27,37.357 81.244,37.309 L81.244,37.309 C81.219,37.261 81.193,37.214 81.167,37.167 L81.167,37.167 C81.156,37.148 81.145,37.129 81.134,37.11 L81.134,37.11 C81.062,36.988 80.986,36.867 80.906,36.749 L80.906,36.749 C80.86,36.681 80.812,36.613 80.762,36.547 L80.762,36.547 C80.727,36.5 80.692,36.453 80.655,36.406 L80.655,36.406 C80.644,36.391 80.631,36.376 80.619,36.361 L80.619,36.361 L50.952,0.038 C50.926,0.034 50.9,0.03 50.874,0.026 L50.874,0.026 C50.811,0.017 50.748,0.011 50.686,0.007 L50.686,0.007 C50.681,0.007 50.677,0.007 50.672,0.006 L50.672,0.006 C50.625,0.003 50.579,0.001 50.532,0 L50.532,0 L50.484,0 Z" id="path-21"></path>
        <linearGradient x1="0%" y1="50.0000844%" x2="99.9999155%" y2="50.0000844%" id="linearGradient-23">
            <stop stop-color="#7EFFF9" offset="0%"></stop>
            <stop stop-color="#2A6DFF" offset="100%"></stop>
        </linearGradient>
        <linearGradient x1="61.0595511%" y1="50%" x2="-26.2359953%" y2="38.0113001%" id="linearGradient-24">
            <stop stop-color="#5191DB" offset="0%"></stop>
            <stop stop-color="#B2DBFF" offset="49.8933763%"></stop>
            <stop stop-color="#ECF4FC" offset="100%"></stop>
        </linearGradient>
        <path d="M50.484,0 C50.409,0 50.335,0.004 50.263,0.01 L50.263,0.01 C50.222,0.014 50.181,0.018 50.142,0.024 L50.142,0.024 C50.098,0.03 50.053,0.038 50.008,0.046 L50.008,0.046 C49.969,0.054 49.93,0.062 49.891,0.072 L49.891,0.072 L22.174,2.716 C22.129,2.72 22.085,2.726 22.042,2.735 L22.042,2.735 C21.978,2.748 21.916,2.765 21.856,2.786 L21.856,2.786 C21.778,2.813 21.704,2.847 21.633,2.887 L21.633,2.887 L0,15.46 C0.161,15.366 0.343,15.307 0.541,15.288 L0.541,15.288 L28.258,12.644 C28.34,12.624 28.424,12.607 28.508,12.596 L28.508,12.596 C28.679,12.572 28.856,12.565 29.039,12.578 L29.039,12.578 C29.13,12.584 29.224,12.594 29.318,12.609 L29.318,12.609 L58.986,48.933 C59.189,49.185 59.373,49.457 59.533,49.739 L59.533,49.739 C59.593,49.843 59.648,49.949 59.702,50.057 L59.702,50.057 C59.758,50.172 59.811,50.29 59.859,50.408 L59.859,50.408 C59.908,50.524 59.952,50.641 59.99,50.757 L59.99,50.757 C60.023,50.858 60.042,50.923 60.06,50.984 L60.06,50.984 C60.065,51.003 60.073,51.029 60.078,51.046 L60.078,51.046 C60.096,51.108 60.107,51.157 60.119,51.203 L60.119,51.203 C60.15,51.34 60.175,51.474 60.194,51.605 L60.194,51.605 C60.212,51.736 60.223,51.864 60.229,51.988 L60.229,51.988 C60.228,52.195 60.215,52.382 60.191,52.553 L60.191,52.553 C60.19,52.56 60.189,52.568 60.188,52.574 L60.188,52.574 C60.164,52.738 60.129,52.887 60.084,53.021 L60.084,53.021 C60.081,53.027 60.079,53.034 60.077,53.04 L60.077,53.04 C60.031,53.171 59.974,53.286 59.908,53.388 L59.908,53.388 C59.835,53.501 59.75,53.598 59.654,53.679 L59.654,53.679 L81.287,41.107 C81.383,41.027 81.468,40.929 81.541,40.816 L81.541,40.816 C81.544,40.813 81.547,40.81 81.55,40.805 L81.55,40.805 C81.582,40.755 81.612,40.701 81.64,40.643 L81.64,40.643 C81.661,40.598 81.681,40.55 81.7,40.499 L81.7,40.499 C81.704,40.49 81.706,40.479 81.71,40.469 L81.71,40.469 C81.713,40.462 81.715,40.455 81.716,40.449 L81.716,40.449 C81.726,40.42 81.737,40.391 81.746,40.361 L81.746,40.361 C81.759,40.317 81.77,40.271 81.781,40.224 L81.781,40.224 C81.792,40.178 81.801,40.131 81.81,40.082 L81.81,40.082 C81.814,40.057 81.817,40.029 81.822,40.002 L81.822,40.002 C81.823,39.995 81.824,39.988 81.824,39.982 L81.824,39.982 C81.827,39.966 81.829,39.951 81.831,39.935 L81.831,39.935 C81.838,39.885 81.842,39.833 81.847,39.779 L81.847,39.779 C81.851,39.724 81.855,39.668 81.858,39.61 L81.858,39.61 C81.86,39.551 81.861,39.49 81.862,39.427 L81.862,39.427 L81.862,39.416 C81.861,39.391 81.859,39.366 81.858,39.341 L81.858,39.341 C81.856,39.3 81.852,39.258 81.848,39.216 L81.848,39.216 C81.844,39.174 81.84,39.131 81.834,39.089 L81.834,39.089 C81.832,39.07 81.829,39.052 81.826,39.033 L81.826,39.033 C81.823,39.008 81.819,38.984 81.815,38.96 L81.815,38.96 C81.809,38.915 81.801,38.87 81.793,38.826 L81.793,38.826 C81.784,38.781 81.775,38.735 81.765,38.689 L81.765,38.689 C81.76,38.67 81.756,38.651 81.751,38.632 L81.751,38.632 C81.749,38.618 81.745,38.605 81.742,38.591 L81.742,38.591 C81.734,38.56 81.726,38.528 81.715,38.491 L81.715,38.491 C81.715,38.486 81.712,38.479 81.71,38.474 L81.71,38.474 C81.706,38.458 81.697,38.431 81.692,38.413 L81.692,38.413 C81.681,38.374 81.672,38.34 81.655,38.287 L81.655,38.287 C81.646,38.256 81.635,38.222 81.624,38.186 L81.624,38.186 C81.611,38.148 81.598,38.11 81.584,38.072 L81.584,38.072 C81.57,38.031 81.554,37.99 81.538,37.95 L81.538,37.95 C81.524,37.912 81.508,37.874 81.492,37.836 L81.492,37.836 L81.487,37.822 C81.471,37.781 81.454,37.742 81.436,37.702 L81.436,37.702 C81.418,37.663 81.4,37.623 81.382,37.583 L81.382,37.583 C81.366,37.55 81.35,37.518 81.334,37.484 L81.334,37.484 C81.329,37.475 81.325,37.466 81.32,37.456 L81.32,37.456 C81.295,37.407 81.27,37.357 81.244,37.309 L81.244,37.309 C81.219,37.261 81.193,37.214 81.167,37.167 L81.167,37.167 C81.156,37.148 81.145,37.129 81.134,37.11 L81.134,37.11 C81.062,36.988 80.986,36.867 80.906,36.749 L80.906,36.749 C80.86,36.681 80.812,36.613 80.762,36.547 L80.762,36.547 C80.727,36.5 80.692,36.453 80.655,36.406 L80.655,36.406 C80.644,36.391 80.631,36.376 80.619,36.361 L80.619,36.361 L50.952,0.038 C50.926,0.034 50.9,0.03 50.874,0.026 L50.874,0.026 C50.811,0.017 50.748,0.011 50.686,0.007 L50.686,0.007 C50.681,0.007 50.677,0.007 50.672,0.006 L50.672,0.006 C50.625,0.003 50.579,0.001 50.532,0 L50.532,0 L50.484,0 Z" id="path-25"></path>
        <linearGradient x1="50%" y1="79.2133825%" x2="52.7477322%" y2="-8.67880429%" id="linearGradient-26">
            <stop stop-color="#5191DB" offset="0%"></stop>
            <stop stop-color="#B2DBFF" offset="62.6169377%"></stop>
            <stop stop-color="#ECF4FC" offset="100%"></stop>
        </linearGradient>
        <path d="M29.6301996,0 C29.5132265,0 29.3982529,0.00806097893 29.2872783,0.0241829368 L29.2872783,0.0241829368 C29.2022978,0.0362744052 29.1183171,0.0523963631 29.0363359,0.0725488104 L29.0363359,0.0725488104 L1.32569574,2.73569473 C1.10474645,2.75987766 0.903792572,2.82940361 0.729832497,2.94326493 L0.729832497,2.94326493 C0.625856361,3.01178325 0.53187793,3.09642353 0.156963975,3.76447716 L0.156963975,3.76447716 C0.12797063,3.86120891 0.103976137,3.96499401 0.12797063,5.31823085 L0.12797063,5.31823085 C0.155964205,5.46232085 0.191955945,5.60943372 0.737830662,6.96166293 L0.737830662,6.96166293 C0.884796932,7.21558377 1.04775953,7.45640551 1.22271938,7.67808244 L1.22271938,7.67808244 C1.29270331,7.76776083 1.36468679,7.8524011 1.43866981,7.93603376 L1.43866981,7.93603376 C1.77059363,8.30885404 2.13750942,8.6181941 2.51242338,8.83584053 L2.51242338,8.83584053 L6.26656177,11.0213734 L6.17258334,44.8674088 L0.203953191,44.4764513 C0.169960993,44.5792288 0.138968106,44.6850291 0.113973842,44.7968752 L0.113973842,44.7968752 C0.0399908218,45.2875873 0.00199954109,45.8004671 0,46.3355145 L0,46.3355145 L0,46.4251929 C0.000999770544,46.5753287 0.00499885272,46.7294949 0.010997476,46.8957526 L0.010997476,46.8957526 C0.0089979349,47.5849663 0.141967417,48.3154925 0.382912119,49.0379577 L0.382912119,49.0379577 C0.435899957,49.1981697 0.493886649,49.3583816 0.556872193,49.517586 L0.556872193,49.517586 C0.684842823,49.834987 0.831809093,50.1493652 0.994771692,50.4536672 L0.994771692,50.4536672 C1.11874324,50.6834051 1.25071295,50.9081048 1.53564756,51.3413825 L1.53564756,51.3413825 C2.17250139,52.2653722 2.96232012,53.0523252 3.81912348,53.5510983 L3.81912348,53.5510983 L56.9999181,84.4961888 C57.5817845,84.826689 58.1486544,84.9959695 58.6585374,85 L58.6585374,85 L58.6845314,85 C59.0974367,84.9979848 59.4713508,84.8871463 59.7862786,84.6624465 L59.7862786,84.6624465 C60.4541253,84.2110317 60.817042,83.3233164 60.8000459,82.1766421 L60.8000459,82.1766421 C60.8370374,81.5680382 60.8130429,80.9241675 60.7330613,80.2591368 L60.7330613,80.2591368 C60.7220638,80.1634126 60.7090668,80.0686961 60.6960698,79.9719644 L60.6960698,79.9719644 C60.6750746,79.8631412 60.6510801,79.7523027 60.625086,79.6414643 L60.625086,79.6414643 C60.6050906,79.5527935 60.5810961,79.4621075 60.438129,78.9784487 L60.438129,78.9784487 C60.3721441,78.7799471 60.2981611,78.5814455 60.1631921,78.2549759 L60.1631921,78.2549759 C59.8912545,77.6252119 59.5433343,77.0156004 59.0344511,76.3173181 L59.0344511,76.3173181 C58.8554922,76.0825421 58.6675353,75.8578423 58.4705805,75.6462416 L58.4705805,75.6462416 C58.3126168,75.476961 58.1496542,75.3167491 57.980693,75.1656057 L57.980693,75.1656057 C57.9127086,75.1111941 57.8437244,75.0567825 57.2818533,74.6386192 L57.2818533,74.6386192 C57.2138689,74.591261 57.143885,74.5439027 56.3530665,74.0582287 L56.3530665,74.0582287 C56.2860819,74.0209467 56.220097,73.9856799 56.1401154,73.9423521 L56.1401154,73.9423521 L54.6244632,73.0616902 L54.7204412,39.2146473 L58.5265677,41.4304089 C58.6655358,41.5059805 58.8025043,41.5684531 58.9374734,41.6158114 L58.9374734,41.6158114 C59.5193398,41.8213663 60.0512178,41.7568785 60.4251319,41.4203326 L60.4251319,41.4203326 C60.7990461,41.1069621 60.9970007,40.5658689 61,39.7164432 L61,39.7164432 C60.9940014,39.5904904 60.9830039,39.4625224 60.965008,39.3305238 L60.965008,39.3305238 C60.9460124,39.1985253 60.9200184,39.0635039 60.8890255,38.9264673 L60.8890255,38.9264673 C60.8660307,38.8267127 60.8400367,38.726958 60.7620546,38.4760601 L60.7620546,38.4760601 C60.7220638,38.3581683 60.6780739,38.2412841 60.6310847,38.1233922 L60.6310847,38.1233922 C60.5810961,38.0055004 60.5291081,37.886601 60.4711214,37.7697168 L60.4711214,37.7697168 C60.4191333,37.6629088 60.3631462,37.5550932 60.3041597,37.4492929 L60.3041597,37.4492929 C60.1441964,37.166151 59.9602386,36.8930853 59.758285,36.6391645 L59.758285,36.6391645 L30.0960927,0.0382896499 C30.0021143,0.0221676921 29.9081358,0.0120914684 29.8161569,0.0060457342 L29.8161569,0.0060457342 C29.7561707,0.00201524473 29.6971843,0 29.6381978,0 L29.6381978,0 L29.6301996,0 Z M29.6861868,15.7380537 C29.8051595,15.4287137 30.0341069,15.2513721 30.3350379,15.2221511 L30.3350379,15.2221511 C30.3640312,15.2181206 30.3950241,15.2150977 31.7267185,15.9436087 L31.7267185,15.9436087 C31.7497132,15.9687993 31.7697086,15.9939898 31.8226964,16.05747 L31.8226964,16.05747 C31.8546891,16.0977749 31.8846822,16.1380798 31.9156751,16.1804 L31.9156751,16.1804 C32.1186285,16.452458 32.2845904,16.7617981 32.3985643,17.074161 L32.3985643,17.074161 C32.4245583,17.1436869 32.4485528,17.2132129 32.4685482,17.2817312 L32.4685482,17.2817312 L34.9729734,24.6262906 L40.2927525,28.6235286 C40.3337431,28.6487191 40.3757334,28.6769326 40.416724,28.705146 L40.416724,28.705146 C40.464713,28.7373899 40.512702,28.7726567 40.5586914,28.8079235 L40.5586914,28.8079235 C40.634674,28.8663656 40.7106566,28.9268229 40.7836398,28.993326 L40.7836398,28.993326 C40.8646212,29.0638595 40.9426033,29.1384236 41.0195857,29.2170181 L41.0195857,29.2170181 C41.0975678,29.2956127 41.1715508,29.3782377 41.2455338,29.4648933 L41.2455338,29.4648933 C41.3905005,29.6513034 41.5154719,29.8508126 41.6184482,30.05536 L41.6184482,30.05536 C41.6954306,30.2095262 41.7594159,30.3657076 41.8104042,30.5198739 L41.8104042,30.5198739 C41.9643688,30.9853954 41.998361,31.442856 41.8863867,31.7995543 L41.8863867,31.7995543 C41.7614154,32.1068791 41.5514636,32.3164645 41.2765267,32.4000972 L41.2765267,32.4000972 L37.3584259,34.5211423 L38.3262038,41.7135507 C38.3711935,42.0954396 38.3242043,42.4390388 38.1782378,42.6828835 L38.1782378,42.6828835 C38.164241,42.7070664 38.1482447,42.7282265 38.1192513,42.769539 L38.1192513,42.769539 C38.1052545,42.7846533 38.0922575,42.8007753 38.0652637,42.8299963 L38.0652637,42.8299963 C38.0482676,42.8481335 38.029272,42.8652631 37.9952798,42.8924689 L37.9952798,42.8924689 C37.9802832,42.905568 37.9642869,42.9176595 37.9302947,42.9398272 L37.9302947,42.9398272 C37.9082997,42.9529263 37.8873046,42.9640101 37.859311,42.9781168 L37.859311,42.9781168 C37.8393156,42.9871854 37.8173206,42.996254 37.77633,43.0103607 L37.77633,43.0103607 C37.7573344,43.0174141 37.7363392,43.0224522 37.702347,43.0305132 L37.702347,43.0305132 C37.6783525,43.0355513 37.6523585,43.0395818 37.6073688,43.0436123 L37.6073688,43.0436123 C37.5873734,43.0466351 37.567378,43.0476428 37.5243878,43.0486504 L37.5243878,43.0486504 C37.4983938,43.0476428 37.4714,43.0466351 37.436408,43.0436123 L37.436408,43.0436123 C37.410414,43.041597 37.3854197,43.0375665 37.336431,43.0295056 L37.336431,43.0295056 C37.3114367,43.0254751 37.288442,43.0194293 37.2494509,43.0093531 L37.2494509,43.0093531 C37.2204576,43.0022997 37.192464,42.9932311 37.1414757,42.9761016 L37.1414757,42.9761016 C37.118481,42.9680406 37.0934867,42.958972 37.0484971,42.9398272 L37.0484971,42.9398272 C37.0185039,42.9267281 36.9885108,42.9126214 36.9475202,42.8914613 L36.9475202,42.8914613 C36.9215262,42.8793698 36.8945324,42.8632479 36.6805815,42.7272188 L36.6805815,42.7272188 C36.6525879,42.7090816 36.6265939,42.6889292 36.5896024,42.6587005 L36.5896024,42.6587005 C36.5656079,42.6405633 36.5436129,42.6224261 36.255679,42.3463376 L36.255679,42.3463376 C36.229685,42.3181242 36.203691,42.2899107 36.1786967,42.2596821 L36.1786967,42.2596821 L31.0478743,36.1373686 L26.1799915,36.2673518 C26.1489986,36.2713823 26.1160062,36.2744052 26.0840135,36.2764205 L26.0840135,36.2764205 C25.9850362,36.2804509 25.8820599,36.27239 25.7760842,36.2542528 L25.7760842,36.2542528 C25.6341168,36.2300698 25.4871505,36.1857344 25.3371849,36.1242695 L25.3371849,36.1242695 C25.3001934,36.1071399 25.2642017,36.0879951 24.8992854,35.8360895 L24.8992854,35.8360895 C24.8722916,35.8149294 24.8462976,35.7907465 24.1484577,34.9161303 L24.1484577,34.9161303 C24.1284623,34.8808635 24.1094667,34.8455967 24.0914708,34.8093223 L24.0914708,34.8093223 C24.0624775,34.7488649 24.0354837,34.6884076 23.9764972,34.5473405 L23.9764972,34.5473405 C23.9065133,34.3710066 23.8515259,34.193665 23.8125348,34.0223692 L23.8125348,34.0223692 C23.8005376,33.9619119 23.7875406,33.9034698 23.7785426,33.8430124 L23.7785426,33.8430124 C23.772544,33.8087533 23.7675452,33.7744941 23.7635461,33.740235 L23.7635461,33.740235 C23.7555479,33.6727243 23.7495493,33.6052136 23.74655,33.5407257 L23.74655,33.5407257 C23.7405513,33.4087272 23.7455502,33.2827744 23.7625463,33.163875 L23.7625463,33.163875 C23.8475268,32.6671171 23.9315075,32.1703593 24.0154882,31.6725939 L24.0154882,31.6725939 C24.2674304,30.1782899 24.5143738,28.6789478 24.7543187,27.1866591 L24.7543187,27.1866591 C24.4143967,26.5972 24.0724752,26.0067333 23.7305536,25.4182818 L23.7305536,25.4182818 C22.7037893,23.6499046 21.668027,21.8835426 20.6332645,20.1222187 L20.6332645,20.1222187 C20.5192907,19.9237171 20.426312,19.7191697 20.3543285,19.51563 L20.3543285,19.51563 C20.3383322,19.4682717 20.3223359,19.4219211 20.3083391,19.3755705 L20.3083391,19.3755705 C20.2853443,19.3010064 20.2663487,19.22745 20.2503524,19.1538936 L20.2503524,19.1538936 C20.2223588,19.0309636 20.2033632,18.9120642 20.1933655,18.79518 L20.1933655,18.79518 C20.1863671,18.7115474 20.1833678,18.6299299 20.1863671,18.5503278 L20.1863671,18.5503278 C20.1883666,18.469718 20.195365,18.3941463 20.2073622,18.3205899 L20.2073622,18.3205899 C20.2203593,18.2470334 20.2373554,18.1764999 20.2593503,18.1099968 L20.2593503,18.1099968 C20.2833448,18.0465166 20.3123382,17.9890821 20.343331,17.9366858 L20.343331,17.9366858 C20.570279,17.5709188 20.9911824,17.4641109 21.4770708,17.6747039 L21.4770708,17.6747039 L27.2007572,20.0275022 L29.6861868,15.7380537 Z M46.0644278,61.9677679 C46.0394336,61.9607146 46.0154391,61.9536612 45.8424788,61.8932039 L45.8424788,61.8932039 C45.8164847,61.8841353 45.7904907,61.8730514 45.7345036,61.8488685 L45.7345036,61.8488685 C45.6605205,61.8166246 45.5875373,61.7803502 45.4095781,61.6816032 L45.4095781,61.6816032 C45.3635887,61.6533898 45.3165995,61.626184 45.2696103,61.5949477 L45.2696103,61.5949477 L14.0787688,42.6325023 C14.0637722,42.5901822 14.0487757,42.5458468 14.0227817,42.4551608 L14.0227817,42.4551608 C13.9977874,42.3674977 13.977792,42.2798345 13.9437998,42.1155921 L13.9437998,42.1155921 C13.9268037,42.0218832 13.9138067,41.9311972 13.903809,41.8405112 L13.903809,41.8405112 C13.8968106,41.7760233 13.8918117,41.7105279 13.8878126,41.6470477 L13.8878126,41.6470477 C13.881814,41.4868357 13.8878126,41.3326695 13.907808,41.1865642 L13.907808,41.1865642 C13.9148064,41.1069621 13.9268037,41.032398 13.9447996,40.9648873 L13.9447996,40.9648873 C14.0687711,40.4822362 14.4446848,40.266605 14.9345724,40.4046493 L14.9345724,40.4046493 C14.9855607,40.4227865 15.0355492,40.4419313 15.1345265,40.4862667 L15.1345265,40.4862667 C15.1725178,40.5023887 15.2105091,40.5205259 15.2964893,40.562846 L15.2964893,40.562846 C15.3434785,40.5870289 15.389468,40.6122195 15.4554528,40.6505091 L15.4554528,40.6505091 C15.51144,40.6827531 15.5674271,40.7170122 15.6234143,40.7532866 L15.6234143,40.7532866 L45.5545449,58.1700392 C45.6225293,58.2093365 45.6885141,58.2546795 45.754499,58.3050606 L45.754499,58.3050606 C45.7954896,58.3362969 45.8364802,58.3705561 45.876471,58.4058229 L45.876471,58.4058229 C46.1234143,58.6194388 46.3453634,58.8955273 46.5243223,59.2028522 L46.5243223,59.2028522 C46.6382961,59.4013538 46.7342741,59.6129545 46.8052578,59.8295933 L46.8052578,59.8295933 C46.852247,59.9948433 46.8862392,60.1570705 46.9082342,60.3142596 L46.9082342,60.3142596 C46.922231,60.4190524 46.9322287,60.5208222 46.9372275,60.6205768 L46.9372275,60.6205768 C46.9432261,60.7697049 46.9382273,60.9127873 46.9192317,61.0468011 L46.9192317,61.0468011 C46.9192317,61.4065223 46.8112564,61.6826108 46.6222998,61.8438304 L46.6222998,61.8438304 C46.6043039,61.86096 46.5843085,61.8750667 46.5633133,61.8881658 L46.5633133,61.8881658 C46.5233225,61.9153716 46.4793326,61.9385469 46.4333432,61.9566841 L46.4333432,61.9566841 C46.3623595,61.9838899 46.2863769,61.9990042 46.2043957,62.0020271 L46.2043957,62.0020271 C46.1694037,61.9949737 46.1344118,61.9869128 46.0644278,61.9677679 L46.0644278,61.9677679 Z M14.0927656,50.1201441 C14.0357787,49.9367569 13.9947881,49.7543772 13.9667945,49.5760281 L13.9667945,49.5760281 C13.9487986,49.4571286 13.9358016,49.3412521 13.9308028,49.2273907 L13.9308028,49.2273907 C13.9278035,49.1709639 13.9268037,49.114537 13.9278035,49.0601254 L13.9278035,49.0601254 C13.9288032,48.949287 13.9368014,48.8434866 13.9517979,48.7427244 L13.9517979,48.7427244 C13.9547973,48.7044347 13.9597961,48.6661451 13.964795,48.6308783 L13.964795,48.6308783 C13.9697938,48.5946039 13.977792,48.5593371 13.9857901,48.5260856 L13.9857901,48.5260856 C14.0967647,48.0535107 14.4456846,47.8237728 14.9095781,47.9215121 L14.9095781,47.9215121 C14.9565673,47.9396493 15.0035566,47.9598018 15.0815387,47.9930533 L15.0815387,47.9930533 C15.1265283,48.0132058 15.1725178,48.0333582 15.2245059,48.0585488 L15.2245059,48.0585488 C15.2714951,48.0807165 15.3184843,48.1048994 15.3994657,48.1482272 L15.3994657,48.1482272 C15.4424558,48.1714025 15.485446,48.1945778 15.5444324,48.228837 L15.5444324,48.228837 C15.5744255,48.2469742 15.6044187,48.2651114 15.6534074,48.2943324 L15.6534074,48.2943324 C15.6903989,48.3175077 15.7283902,48.340683 15.7653817,48.3658736 L15.7653817,48.3658736 L45.3895827,65.6042771 C45.4205756,65.6163685 45.453568,65.6324905 45.6595208,65.7473594 L45.6595208,65.7473594 C45.6865146,65.764489 45.7135084,65.7816186 46.168404,66.1776142 L46.168404,66.1776142 C46.1933982,66.20482 46.2183925,66.2310182 46.2493854,66.2683002 L46.2493854,66.2683002 C46.2723801,66.2934908 46.2933753,66.3186813 46.6133019,66.765058 L46.6133019,66.765058 C46.6332973,66.7962943 46.6522929,66.8275306 46.6752876,66.8668279 L46.6752876,66.8668279 C46.7092798,66.9373615 46.7402727,67.0089026 46.8092569,67.1741527 L46.8092569,67.1741527 C46.8252532,67.21345 46.83925,67.2527473 46.8542466,67.2930521 L46.8542466,67.2930521 C46.8902383,67.3938144 46.9212312,67.4945766 46.9472252,67.5933236 L46.9472252,67.5933236 C46.9622218,67.6477352 46.9752188,67.7011392 46.987216,67.7545432 L46.987216,67.7545432 C47.0671977,68.1263558 47.0761956,68.4800313 47.009211,68.7813104 L47.009211,68.7813104 C47.0032124,68.8266534 46.996214,68.8709888 46.9812174,68.934469 L46.9812174,68.934469 C46.9732193,68.9677205 46.9642213,68.9999644 46.9452257,69.054376 L46.9452257,69.054376 C46.9342282,69.0835971 46.9232307,69.1118105 46.8962369,69.1652145 L46.8962369,69.1652145 C46.8842397,69.1893974 46.8722424,69.2125728 46.8362507,69.2629539 L46.8362507,69.2629539 C46.8222539,69.2810911 46.8102567,69.3002359 45.6605205,69.3526323 L45.6605205,69.3526323 L14.0927656,50.1201441 Z" id="path-27"></path>
    </defs>
    <g id="z" stroke="none" stroke-width="1" fill="none" fill-rule="evenodd">
        <g id="实有单位" transform="translate(0.246997, 0.000000)">
            <g id="编组" transform="translate(0.000000, 41.996900)" fill="#92B4DE">
                <path d="M134.964987,36.4439097 C138.337632,38.3989937 138.355133,41.6003813 135.004989,43.5560903 L75.0811639,78.5332182 C71.7310199,80.4889273 66.2282835,80.4889273 62.8568886,78.5332182 L2.54117194,43.5567153 C-0.831472982,41.6010063 -0.848973734,38.3996187 2.50054519,36.4445347 L62.42437,1.46678178 C65.775139,-0.488927259 71.2772504,-0.488927259 74.6492703,1.46678178 L134.964987,36.4439097 Z" id="Fill-1"></path>
            </g>
            <g id="编组-58" transform="translate(75.184003, 48.880500) scale(-1, 1) translate(-75.184003, -48.880500) translate(33.753003, 0.000000)">
                <g id="编组" transform="translate(13.000000, 40.000000)">
                    <mask id="mask-2" fill="white">
                        <use xlink:href="#path-1"></use>
                    </mask>
                    <g id="Clip-2"></g>
                    <path d="M22.736718,0 L0.421929114,12.9582671 C0.330115688,13.0108382 0.254808047,13.0881487 0.191879744,13.1819521 L0.191879744,13.1819521 C0.189816521,13.1860753 0.183626851,13.1881369 0.181563628,13.1932909 L0.181563628,13.1932909 C0.161963009,13.2221535 0.144425613,13.2530777 0.128951441,13.2870943 L0.128951441,13.2870943 C0.116572102,13.3128645 0.106255987,13.3396654 0.0959398718,13.3674972 L0.0959398718,13.3674972 C0.0866553681,13.3901749 0.0784024759,13.4159451 0.0701495837,13.4406845 L0.0701495837,13.4406845 C0.0670547491,13.4530541 0.062928303,13.4654238 0.0608650799,13.4777935 L0.0608650799,13.4777935 C0.0577702454,13.4891324 0.0546754108,13.5004712 0.0526121878,13.5107793 L0.0526121878,13.5107793 C0.0474541301,13.533457 0.0422960725,13.5561348 0.0392012379,13.5788125 L0.0392012379,13.5788125 C0.0350747918,13.6014903 0.0319799573,13.6231372 0.0288851227,13.6468457 L0.0288851227,13.6468457 C0.0257902881,13.6664311 0.0237270651,13.6849856 0.0237270651,13.7056017 L0.0237270651,13.7056017 C0.021663842,13.7138481 0.0206322305,13.7231254 0.019600619,13.7324027 L0.019600619,13.7324027 C0.0144425613,13.7664193 0.0113477268,13.8004359 0.0082528922,13.8344525 L0.0082528922,13.8344525 C0.00515805762,13.8674383 0.0041264461,13.9004241 0.00206322305,13.9354715 L0.00206322305,13.9354715 C0.00103161152,13.9684573 0,14.0014431 0,14.0364905 L0,14.0364905 C0,14.0684455 0,14.1024622 0.00103161152,14.1375096 L0.00103161152,14.1375096 C0.00206322305,14.1498792 0.00206322305,14.1632797 0.00309483457,14.1766802 L0.00309483457,14.1766802 C0.0041264461,14.1952347 0.00515805762,14.2117276 0.00515805762,14.2292513 L0.00515805762,14.2292513 C0.00722128067,14.263268 0.0113477268,14.2983154 0.0144425613,14.3343936 L0.0144425613,14.3343936 C0.0144425613,14.3467633 0.0165057844,14.3622254 0.0185690074,14.374595 L0.0185690074,14.374595 C0.0206322305,14.3983036 0.0237270651,14.4199505 0.0257902881,14.4426283 L0.0257902881,14.4426283 C0.0309483457,14.4766449 0.0350747918,14.5127231 0.041264461,14.5488013 L0.041264461,14.5488013 C0.0464225186,14.5838487 0.0526121878,14.6188962 0.0598334684,14.6549744 L0.0598334684,14.6549744 C0.0691179721,14.7013607 0.0773708643,14.7415621 0.084592145,14.7766095 L0.084592145,14.7766095 C0.0887185911,14.7972257 0.0928450372,14.8116569 0.0969714833,14.8291807 L0.0969714833,14.8291807 C0.101097929,14.8446428 0.105224376,14.8621665 0.107287599,14.8765977 L0.107287599,14.8765977 C0.109350822,14.8848442 0.112445656,14.8951523 0.114508879,14.9033987 L0.114508879,14.9033987 C0.122761771,14.9374153 0.131014664,14.9673087 0.139267556,14.9982329 L0.139267556,14.9982329 L0.141330779,15.0033869 C0.14855206,15.0291571 0.153710117,15.0497732 0.160931398,15.0683277 L0.160931398,15.0683277 C0.162994621,15.0796666 0.166089455,15.0868823 0.16918429,15.0971903 L0.16918429,15.0971903 C0.172279125,15.104406 0.174342348,15.1136832 0.177437182,15.1208989 L0.177437182,15.1208989 C0.177437182,15.1229605 0.178468794,15.1260529 0.179500405,15.1291453 L0.179500405,15.1291453 C0.184658463,15.1456382 0.189816521,15.1600695 0.194974578,15.1745008 L0.194974578,15.1745008 C0.197037801,15.178624 0.198069413,15.1806856 0.199101024,15.1848089 L0.199101024,15.1848089 L32.3833174,34.5835542 C32.3905386,34.5876774 32.3987915,34.5928315 32.4060128,34.5979855 L32.4060128,34.5979855 C32.4431508,34.6216941 32.4813205,34.6443718 32.5184585,34.6670495 L32.5184585,34.6670495 C32.5215533,34.6691112 32.5256798,34.670142 32.527743,34.6711728 L32.527743,34.6711728 C32.5617862,34.6907581 32.5917029,34.707251 32.6195564,34.7216823 L32.6195564,34.7216823 C32.6505048,34.739206 32.671137,34.749514 32.6969273,34.7629145 L32.6969273,34.7629145 C32.7124014,34.771161 32.7330337,34.781469 32.7464446,34.7886847 L32.7464446,34.7886847 C32.7505711,34.7917771 32.758824,34.7948695 32.7629504,34.7969311 L32.7629504,34.7969311 C32.7918355,34.8113624 32.8176258,34.8237321 32.8423845,34.8340402 L32.8423845,34.8340402 C32.8485742,34.8371326 32.8557954,34.840225 32.8619851,34.8433174 L32.8619851,34.8433174 C32.9042812,34.8608411 32.9290399,34.8711492 32.9507037,34.8804265 L32.9507037,34.8804265 C32.9589566,34.8835189 32.9661779,34.8855805 32.9744308,34.8886729 L32.9744308,34.8886729 C33.0569597,34.9175355 33.101319,34.9319668 33.1322673,34.9422748 L33.1322673,34.9422748 C33.1425835,34.9463981 33.151868,34.9494905 33.1590892,34.9515521 L33.1590892,34.9515521 C33.1652789,34.9536137 33.1776582,34.9577369 33.1817847,34.9587677 L33.1817847,34.9587677 C33.1900376,34.9608294 33.1972589,34.962891 33.2034485,34.9649526 L33.2034485,34.9649526 C33.231302,34.9721682 33.2539975,34.9783531 33.2735981,34.9835071 L33.2735981,34.9835071 C33.3035148,34.9907227 33.3262103,34.994846 33.3468425,35 L33.3468425,35 C33.3612851,34.9989692 33.374696,34.9989692 33.388107,34.9969076 L33.388107,34.9969076 C33.4159605,34.994846 33.4427824,34.9907227 33.4696043,34.9855687 L33.4696043,34.9855687 C33.5036475,34.9783531 33.5345958,34.9701066 33.5665758,34.9587677 L33.5665758,34.9587677 C33.5727655,34.9577369 33.5779235,34.9556753 33.5830816,34.9536137 L33.5830816,34.9536137 C33.6171248,34.9402132 33.6511679,34.9247511 33.6821163,34.9061966 L33.6821163,34.9061966 L56,21.9479296 C55.96802,21.9654533 55.9350085,21.9809154 55.8999337,21.9943158 L55.8999337,21.9943158 C55.8277209,22.0221476 55.7482868,22.0376097 55.6647263,22.0407021 L55.6647263,22.0407021 C55.6286199,22.0334865 55.5914818,22.02524 55.519269,22.0066855 L55.519269,22.0066855 C55.5099845,22.0025623 55.4945104,21.9984391 55.4759413,21.9922542 L55.4759413,21.9922542 C55.4687201,21.9891618 55.4604672,21.988131 55.4501511,21.9840078 L55.4501511,21.9840078 C55.4171395,21.9726689 55.3738118,21.9592684 55.2923145,21.9304058 L55.2923145,21.9304058 C55.264461,21.9200978 55.2376391,21.9087589 55.1798688,21.8840196 L55.1798688,21.8840196 C55.1458257,21.8695883 55.1086876,21.8520646 55.0632967,21.8304176 L55.0632967,21.8304176 C55.0498858,21.8221712 55.0292536,21.8118631 55.0127478,21.8025859 L55.0127478,21.8025859 C54.9663253,21.7788773 54.9188711,21.754138 54.8456267,21.7129057 L54.8456267,21.7129057 C54.797141,21.6840431 54.7476236,21.6551805 54.7001695,21.6242563 L54.7001695,21.6242563 L22.5159531,2.22654179 C22.5087319,2.20592566 22.500479,2.18530954 22.4922261,2.15953938 L22.4922261,2.15953938 C22.4922261,2.15438534 22.4891312,2.1471697 22.4880996,2.14201567 L22.4880996,2.14201567 C22.4788151,2.11624551 22.4705622,2.08635212 22.4581829,2.04511987 L22.4581829,2.04511987 C22.4468352,2.00491842 22.436519,1.96265536 22.4251713,1.91626907 L22.4251713,1.91626907 C22.4210449,1.90389939 22.41795,1.88740649 22.4148552,1.8729752 L22.4148552,1.8729752 C22.4024759,1.82246569 22.3911281,1.76886376 22.3766856,1.69670731 L22.3766856,1.69670731 C22.3591482,1.60084232 22.3447056,1.50806974 22.3343895,1.41632797 L22.3343895,1.41632797 C22.3281998,1.34829475 22.3230418,1.28232314 22.3199469,1.21738234 L22.3199469,1.21738234 C22.3127257,1.05451493 22.3189153,0.896801555 22.3395476,0.746303823 L22.3395476,0.746303823 C22.3467688,0.665900925 22.3591482,0.589621252 22.3777172,0.519526418 L22.3777172,0.519526418 C22.4076339,0.404076103 22.4530248,0.307180303 22.5087319,0.223684986 L22.5087319,0.223684986 C22.5716602,0.128850798 22.6459362,0.0525711256 22.736718,0 L22.736718,0 Z" id="Fill-1" fill="url(#linearGradient-3)" mask="url(#mask-2)"></path>
                </g>
                <g id="编组" transform="translate(13.000000, 47.000000)">
                    <mask id="mask-5" fill="white">
                        <use xlink:href="#path-4"></use>
                    </mask>
                    <g id="Clip-2"></g>
                    <path d="M22.736718,0 L0.421929114,12.9582671 C0.330115688,13.0108382 0.254808047,13.0881487 0.191879744,13.1819521 L0.191879744,13.1819521 C0.189816521,13.1860753 0.183626851,13.1881369 0.181563628,13.1932909 L0.181563628,13.1932909 C0.161963009,13.2221535 0.144425613,13.2530777 0.128951441,13.2870943 L0.128951441,13.2870943 C0.116572102,13.3128645 0.106255987,13.3396654 0.0959398718,13.3674972 L0.0959398718,13.3674972 C0.0866553681,13.3901749 0.0784024759,13.4159451 0.0701495837,13.4406845 L0.0701495837,13.4406845 C0.0670547491,13.4530541 0.062928303,13.4654238 0.0608650799,13.4777935 L0.0608650799,13.4777935 C0.0577702454,13.4891324 0.0546754108,13.5004712 0.0526121878,13.5107793 L0.0526121878,13.5107793 C0.0474541301,13.533457 0.0422960725,13.5561348 0.0392012379,13.5788125 L0.0392012379,13.5788125 C0.0350747918,13.6014903 0.0319799573,13.6231372 0.0288851227,13.6468457 L0.0288851227,13.6468457 C0.0257902881,13.6664311 0.0237270651,13.6849856 0.0237270651,13.7056017 L0.0237270651,13.7056017 C0.021663842,13.7138481 0.0206322305,13.7231254 0.019600619,13.7324027 L0.019600619,13.7324027 C0.0144425613,13.7664193 0.0113477268,13.8004359 0.0082528922,13.8344525 L0.0082528922,13.8344525 C0.00515805762,13.8674383 0.0041264461,13.9004241 0.00206322305,13.9354715 L0.00206322305,13.9354715 C0.00103161152,13.9684573 0,14.0014431 0,14.0364905 L0,14.0364905 C0,14.0684455 0,14.1024622 0.00103161152,14.1375096 L0.00103161152,14.1375096 C0.00206322305,14.1498792 0.00206322305,14.1632797 0.00309483457,14.1766802 L0.00309483457,14.1766802 C0.0041264461,14.1952347 0.00515805762,14.2117276 0.00515805762,14.2292513 L0.00515805762,14.2292513 C0.00722128067,14.263268 0.0113477268,14.2983154 0.0144425613,14.3343936 L0.0144425613,14.3343936 C0.0144425613,14.3467633 0.0165057844,14.3622254 0.0185690074,14.374595 L0.0185690074,14.374595 C0.0206322305,14.3983036 0.0237270651,14.4199505 0.0257902881,14.4426283 L0.0257902881,14.4426283 C0.0309483457,14.4766449 0.0350747918,14.5127231 0.041264461,14.5488013 L0.041264461,14.5488013 C0.0464225186,14.5838487 0.0526121878,14.6188962 0.0598334684,14.6549744 L0.0598334684,14.6549744 C0.0691179721,14.7013607 0.0773708643,14.7415621 0.084592145,14.7766095 L0.084592145,14.7766095 C0.0887185911,14.7972257 0.0928450372,14.8116569 0.0969714833,14.8291807 L0.0969714833,14.8291807 C0.101097929,14.8446428 0.105224376,14.8621665 0.107287599,14.8765977 L0.107287599,14.8765977 C0.109350822,14.8848442 0.112445656,14.8951523 0.114508879,14.9033987 L0.114508879,14.9033987 C0.122761771,14.9374153 0.131014664,14.9673087 0.139267556,14.9982329 L0.139267556,14.9982329 L0.141330779,15.0033869 C0.14855206,15.0291571 0.153710117,15.0497732 0.160931398,15.0683277 L0.160931398,15.0683277 C0.162994621,15.0796666 0.166089455,15.0868823 0.16918429,15.0971903 L0.16918429,15.0971903 C0.172279125,15.104406 0.174342348,15.1136832 0.177437182,15.1208989 L0.177437182,15.1208989 C0.177437182,15.1229605 0.178468794,15.1260529 0.179500405,15.1291453 L0.179500405,15.1291453 C0.184658463,15.1456382 0.189816521,15.1600695 0.194974578,15.1745008 L0.194974578,15.1745008 C0.197037801,15.178624 0.198069413,15.1806856 0.199101024,15.1848089 L0.199101024,15.1848089 L32.3833174,34.5835542 C32.3905386,34.5876774 32.3987915,34.5928315 32.4060128,34.5979855 L32.4060128,34.5979855 C32.4431508,34.6216941 32.4813205,34.6443718 32.5184585,34.6670495 L32.5184585,34.6670495 C32.5215533,34.6691112 32.5256798,34.670142 32.527743,34.6711728 L32.527743,34.6711728 C32.5617862,34.6907581 32.5917029,34.707251 32.6195564,34.7216823 L32.6195564,34.7216823 C32.6505048,34.739206 32.671137,34.749514 32.6969273,34.7629145 L32.6969273,34.7629145 C32.7124014,34.771161 32.7330337,34.781469 32.7464446,34.7886847 L32.7464446,34.7886847 C32.7505711,34.7917771 32.758824,34.7948695 32.7629504,34.7969311 L32.7629504,34.7969311 C32.7918355,34.8113624 32.8176258,34.8237321 32.8423845,34.8340402 L32.8423845,34.8340402 C32.8485742,34.8371326 32.8557954,34.840225 32.8619851,34.8433174 L32.8619851,34.8433174 C32.9042812,34.8608411 32.9290399,34.8711492 32.9507037,34.8804265 L32.9507037,34.8804265 C32.9589566,34.8835189 32.9661779,34.8855805 32.9744308,34.8886729 L32.9744308,34.8886729 C33.0569597,34.9175355 33.101319,34.9319668 33.1322673,34.9422748 L33.1322673,34.9422748 C33.1425835,34.9463981 33.151868,34.9494905 33.1590892,34.9515521 L33.1590892,34.9515521 C33.1652789,34.9536137 33.1776582,34.9577369 33.1817847,34.9587677 L33.1817847,34.9587677 C33.1900376,34.9608294 33.1972589,34.962891 33.2034485,34.9649526 L33.2034485,34.9649526 C33.231302,34.9721682 33.2539975,34.9783531 33.2735981,34.9835071 L33.2735981,34.9835071 C33.3035148,34.9907227 33.3262103,34.994846 33.3468425,35 L33.3468425,35 C33.3612851,34.9989692 33.374696,34.9989692 33.388107,34.9969076 L33.388107,34.9969076 C33.4159605,34.994846 33.4427824,34.9907227 33.4696043,34.9855687 L33.4696043,34.9855687 C33.5036475,34.9783531 33.5345958,34.9701066 33.5665758,34.9587677 L33.5665758,34.9587677 C33.5727655,34.9577369 33.5779235,34.9556753 33.5830816,34.9536137 L33.5830816,34.9536137 C33.6171248,34.9402132 33.6511679,34.9247511 33.6821163,34.9061966 L33.6821163,34.9061966 L56,21.9479296 C55.96802,21.9654533 55.9350085,21.9809154 55.8999337,21.9943158 L55.8999337,21.9943158 C55.8277209,22.0221476 55.7482868,22.0376097 55.6647263,22.0407021 L55.6647263,22.0407021 C55.6286199,22.0334865 55.5914818,22.02524 55.519269,22.0066855 L55.519269,22.0066855 C55.5099845,22.0025623 55.4945104,21.9984391 55.4759413,21.9922542 L55.4759413,21.9922542 C55.4687201,21.9891618 55.4604672,21.988131 55.4501511,21.9840078 L55.4501511,21.9840078 C55.4171395,21.9726689 55.3738118,21.9592684 55.2923145,21.9304058 L55.2923145,21.9304058 C55.264461,21.9200978 55.2376391,21.9087589 55.1798688,21.8840196 L55.1798688,21.8840196 C55.1458257,21.8695883 55.1086876,21.8520646 55.0632967,21.8304176 L55.0632967,21.8304176 C55.0498858,21.8221712 55.0292536,21.8118631 55.0127478,21.8025859 L55.0127478,21.8025859 C54.9663253,21.7788773 54.9188711,21.754138 54.8456267,21.7129057 L54.8456267,21.7129057 C54.797141,21.6840431 54.7476236,21.6551805 54.7001695,21.6242563 L54.7001695,21.6242563 L22.5159531,2.22654179 C22.5087319,2.20592566 22.500479,2.18530954 22.4922261,2.15953938 L22.4922261,2.15953938 C22.4922261,2.15438534 22.4891312,2.1471697 22.4880996,2.14201567 L22.4880996,2.14201567 C22.4788151,2.11624551 22.4705622,2.08635212 22.4581829,2.04511987 L22.4581829,2.04511987 C22.4468352,2.00491842 22.436519,1.96265536 22.4251713,1.91626907 L22.4251713,1.91626907 C22.4210449,1.90389939 22.41795,1.88740649 22.4148552,1.8729752 L22.4148552,1.8729752 C22.4024759,1.82246569 22.3911281,1.76886376 22.3766856,1.69670731 L22.3766856,1.69670731 C22.3591482,1.60084232 22.3447056,1.50806974 22.3343895,1.41632797 L22.3343895,1.41632797 C22.3281998,1.34829475 22.3230418,1.28232314 22.3199469,1.21738234 L22.3199469,1.21738234 C22.3127257,1.05451493 22.3189153,0.896801555 22.3395476,0.746303823 L22.3395476,0.746303823 C22.3467688,0.665900925 22.3591482,0.589621252 22.3777172,0.519526418 L22.3777172,0.519526418 C22.4076339,0.404076103 22.4530248,0.307180303 22.5087319,0.223684986 L22.5087319,0.223684986 C22.5716602,0.128850798 22.6459362,0.0525711256 22.736718,0 L22.736718,0 Z" id="Fill-1" fill="url(#linearGradient-3)" mask="url(#mask-5)"></path>
                </g>
                <g id="编组" transform="translate(54.000000, 40.000000)">
                    <mask id="mask-7" fill="white">
                        <use xlink:href="#path-6"></use>
                    </mask>
                    <g id="Clip-2"></g>
                    <g id="Fill-1" mask="url(#mask-7)">
                        <use fill="url(#linearGradient-8)" xlink:href="#path-10"></use>
                        <use fill="url(#linearGradient-9)" xlink:href="#path-10"></use>
                    </g>
                </g>
                <g id="编组" transform="translate(0.000000, 44.000000)">
                    <mask id="mask-12" fill="white">
                        <use xlink:href="#path-11"></use>
                    </mask>
                    <g id="Clip-2"></g>
                    <g id="Fill-1" mask="url(#mask-12)">
                        <use fill="url(#linearGradient-13)" xlink:href="#path-15"></use>
                        <use fill="url(#linearGradient-14)" xlink:href="#path-15"></use>
                    </g>
                </g>
                <g id="编组" transform="translate(17.000000, 17.000000)">
                    <mask id="mask-17" fill="white">
                        <use xlink:href="#path-16"></use>
                    </mask>
                    <g id="Clip-2"></g>
                    <g id="Fill-1" mask="url(#mask-17)">
                        <use fill="url(#linearGradient-18)" xlink:href="#path-20"></use>
                        <use fill="url(#linearGradient-19)" xlink:href="#path-20"></use>
                    </g>
                </g>
                <g id="编组" transform="translate(1.000000, 0.000000)">
                    <mask id="mask-22" fill="white">
                        <use xlink:href="#path-21"></use>
                    </mask>
                    <g id="Clip-2"></g>
                    <g id="Fill-1" mask="url(#mask-22)">
                        <use fill="url(#linearGradient-23)" xlink:href="#path-25"></use>
                        <use fill="url(#linearGradient-24)" xlink:href="#path-25"></use>
                    </g>
                </g>
                <g id="Fill-1" transform="translate(0.000000, 12.000000)">
                    <use fill="#C58B8B" xlink:href="#path-27"></use>
                    <use fill="url(#linearGradient-26)" xlink:href="#path-27"></use>
                </g>
            </g>
        </g>
    </g>
</svg>