<?xml version="1.0" encoding="UTF-8"?>
<svg width="138px" height="122px" viewBox="0 0 138 122" version="1.1" xmlns="http://www.w3.org/2000/svg" xmlns:xlink="http://www.w3.org/1999/xlink">
    <title>校园周边</title>
    <defs>
        <linearGradient x1="53.5587738%" y1="130.397475%" x2="53.5587738%" y2="-9.18615455%" id="linearGradient-1">
            <stop stop-color="#5191DB" offset="0%"></stop>
            <stop stop-color="#B2DBFF" offset="82.1036938%"></stop>
            <stop stop-color="#ECF4FC" offset="100%"></stop>
        </linearGradient>
        <polygon id="path-2" points="104.757286 20.3176936 80.1550964 31.9304031 55.0251076 43.7845528 55.0251076 47.9968411 84.1674947 34.2426136 91.7801586 30.6513318 110.047632 22.0291112 110.047632 17.8190688"></polygon>
        <linearGradient x1="3.91067585%" y1="48.3230609%" x2="129.290007%" y2="50%" id="linearGradient-3">
            <stop stop-color="#5191DB" offset="0%"></stop>
            <stop stop-color="#B2DBFF" offset="100%"></stop>
        </linearGradient>
        <polygon id="path-4" points="55.0247707 0 0 17.8194057 5.2869777 20.3180305 28.3383352 31.1974358 55.0247707 43.7848897 80.1547595 31.93074 104.756949 20.3180305 110.047295 17.8194057"></polygon>
        <linearGradient x1="86.7862067%" y1="50%" x2="-45.141456%" y2="44.00337%" id="linearGradient-5">
            <stop stop-color="#5191DB" offset="0%"></stop>
            <stop stop-color="#B2DBFF" offset="100%"></stop>
        </linearGradient>
        <polygon id="path-6" points="55.0243215 0 55.0243215 43.7837667 80.1599252 31.9240022 104.753131 20.3157845 110.051338 17.8205287"></polygon>
        <linearGradient x1="53.5587738%" y1="93.3314618%" x2="53.5587738%" y2="-9.18615455%" id="linearGradient-7">
            <stop stop-color="#5191DB" offset="0%"></stop>
            <stop stop-color="#B2DBFF" offset="82.1036938%"></stop>
            <stop stop-color="#ECF4FC" offset="100%"></stop>
        </linearGradient>
        <path d="M15.1454842,29.1690016 L15.1454842,72.8314868 C15.1454842,83.5941024 32.3045792,87.8131286 53.4569819,87.8131286 C74.6239834,87.8131286 91.7797094,83.5941024 91.7797094,72.8314868 L91.7797094,30.6479629 L84.1670455,34.2414907 L55.0246584,58.1025149 L24.0709087,33.3902738 L15.1454842,29.1690016 Z" id="path-8"></path>
        <linearGradient x1="53.5587738%" y1="62.8198075%" x2="53.5587738%" y2="-9.18615455%" id="linearGradient-9">
            <stop stop-color="#5191DB" offset="0%"></stop>
            <stop stop-color="#B2DBFF" offset="100%"></stop>
            <stop stop-color="#ECF4FC" offset="100%"></stop>
        </linearGradient>
        <path d="M15.1454842,29.164622 L15.1454842,38.1473184 C24.7008991,38.6279528 35.8554338,43.8812412 45.1155056,53.1559117 C48.9448586,56.9740349 52.0745967,61.1088378 54.4788914,65.327864 C54.9842312,65.3368478 55.4862021,65.3188801 55.991542,65.2975436 C58.3879758,61.098731 61.5177139,56.9605592 65.3324682,53.1559117 C73.4897762,45.0019726 83.0923561,39.957558 91.7797094,38.5280078 L91.7797094,30.6447063 L84.1591847,34.241603 L55.0246584,47.9902155 L24.0664168,33.392632 L15.1454842,29.164622 Z" id="path-10"></path>
        <polygon id="path-11" points="0 0 55.0243215 0 55.0243215 30.1777723 0 30.1777723"></polygon>
        <linearGradient x1="100%" y1="100%" x2="146.906104%" y2="100%" id="linearGradient-13">
            <stop stop-color="#5191DB" offset="0%"></stop>
            <stop stop-color="#B2DBFF" offset="100%"></stop>
        </linearGradient>
        <polygon id="path-14" points="-0.000449190966 0 -0.000449190966 4.20891938 15.1451473 11.3510558 24.0716948 15.5723279 55.0243215 30.1777723 55.0243215 25.965484 28.3367631 13.37803 5.28652851 2.49862476"></polygon>
        <linearGradient x1="53.5587738%" y1="130.397475%" x2="53.5587738%" y2="-9.18615455%" id="linearGradient-15">
            <stop stop-color="#5191DB" offset="0%"></stop>
            <stop stop-color="#B2DBFF" offset="82.1036938%"></stop>
            <stop stop-color="#ECF4FC" offset="100%"></stop>
        </linearGradient>
        <path d="M110.885823,53.7980302 L110.885823,28.9512387 C110.885823,27.9035008 110.23225,26.9624457 109.254137,26.5963551 L59.6243111,17.3442984 C58.3194113,16.8524343 56.8763853,17.5093761 56.3845212,18.8131529 C55.897149,20.1158067 56.5540908,21.5655706 57.8556217,22.0540658 L105.849269,30.6907308 L105.849269,53.7980302 C105.849269,55.1849073 106.973369,56.3123766 108.363615,56.3123766 C109.754984,56.3123766 110.885823,55.1849073 110.885823,53.7980302 Z" id="path-16"></path>
        <polygon id="path-17" points="0 0 20.6940274 0 20.6940274 26.7517366 0 26.7517366"></polygon>
        <linearGradient x1="53.5587738%" y1="62.1262417%" x2="53.5587738%" y2="-9.18615455%" id="linearGradient-19">
            <stop stop-color="#5191DB" offset="0%"></stop>
            <stop stop-color="#B2DBFF" offset="82.1036938%"></stop>
            <stop stop-color="#ECF4FC" offset="100%"></stop>
        </linearGradient>
        <path d="M3.49106574,22.6877936 L6.76791386,14.9516021 L5.47648983,24.6934313 C5.34060956,25.6861433 6.04022449,26.6081078 7.03855142,26.7305123 C7.12165175,26.7428651 7.19689124,26.7518489 7.27549966,26.7518489 C8.1783735,26.7518489 8.95659686,26.0859233 9.07787842,25.1662048 L10.343474,15.6354954 L11.6158074,25.1662048 C11.732597,26.0859233 12.5153123,26.7518489 13.4181862,26.7518489 C13.4979176,26.7518489 13.573157,26.7428651 13.6551344,26.7305123 C14.6534613,26.6081078 15.3553222,25.6861433 15.217196,24.6934313 L13.9268949,14.9516021 L17.203743,22.6877936 C17.5922932,23.613127 18.6557529,24.0398584 19.5867011,23.6490623 C20.5109116,23.2571432 20.9398889,22.1959295 20.5502158,21.2661042 L12.0256942,1.10416755 C12.0088495,1.06149441 11.983021,1.01432936 11.9527006,0.96941026 C11.9089045,0.879572066 11.8527556,0.796471737 11.7988527,0.723478204 C11.7427038,0.643746807 11.6685873,0.570753275 11.6000857,0.506743562 C11.534953,0.440487894 11.4709433,0.377601158 11.387843,0.332682061 C11.2328721,0.212523477 11.0633025,0.13279208 10.8690274,0.0811351188 C10.8072636,0.0496917509 10.7454999,0.041830909 10.6781212,0.0328470896 C10.4512798,-0.0109490299 10.2334222,-0.0109490299 10.0155646,0.0328470896 C9.95043188,0.041830909 9.88642216,0.0496917509 9.82465841,0.0811351188 C9.63150629,0.13279208 9.45856777,0.212523477 9.29685902,0.341665881 C9.22386548,0.387707955 9.15087195,0.440487894 9.08686224,0.506743562 C9.02285253,0.570753275 8.95659686,0.643746807 8.89595608,0.723478204 C8.83194636,0.796471737 8.78478131,0.879572066 8.74210817,0.96941026 C8.71291076,1.01432936 8.68483632,1.06149441 8.66911464,1.10416755 L0.145716003,21.2661042 C-0.246203117,22.1959295 0.178282349,23.2571432 1.10923063,23.6490623 C2.03680998,24.0398584 3.09914662,23.613127 3.49106574,22.6877936 Z" id="path-20"></path>
        <linearGradient x1="53.5587738%" y1="130.397475%" x2="53.5587738%" y2="-9.18615455%" id="linearGradient-21">
            <stop stop-color="#5191DB" offset="0%"></stop>
            <stop stop-color="#B2DBFF" offset="100%"></stop>
            <stop stop-color="#ECF4FC" offset="100%"></stop>
        </linearGradient>
        <path d="M108.363503,64.6884406 C111.770617,64.6884406 114.532018,61.9270391 114.532018,58.5188027 C114.532018,55.1094432 111.770617,52.3491647 108.363503,52.3491647 C104.957513,52.3491647 102.193865,55.1094432 102.193865,58.5188027 C102.193865,61.9270391 104.957513,64.6884406 108.363503,64.6884406 Z" id="path-22"></path>
    </defs>
    <g id="z" stroke="none" stroke-width="1" fill="none" fill-rule="evenodd">
        <g id="校园周边" transform="translate(0.246997, 0.000000)">
            <g id="编组" transform="translate(0.000000, 41.996900)" fill="#92B4DE">
                <path d="M134.964987,36.4439097 C138.337632,38.3989937 138.355133,41.6003813 135.004989,43.5560903 L75.0811639,78.5332182 C71.7310199,80.4889273 66.2282835,80.4889273 62.8568886,78.5332182 L2.54117194,43.5567153 C-0.831472982,41.6010063 -0.848973734,38.3996187 2.50054519,36.4445347 L62.42437,1.46678178 C65.775139,-0.488927259 71.2772504,-0.488927259 74.6492703,1.46678178 L134.964987,36.4439097 Z" id="Fill-1"></path>
            </g>
            <g id="编组" transform="translate(13.753003, 0.000000)">
                <g id="Fill-1">
                    <use fill="#665C7A" xlink:href="#path-2"></use>
                    <use fill="url(#linearGradient-1)" xlink:href="#path-2"></use>
                </g>
                <g id="Fill-2">
                    <use fill="#534B64" xlink:href="#path-4"></use>
                    <use fill="url(#linearGradient-3)" xlink:href="#path-4"></use>
                </g>
                <g transform="translate(0.000337, 0.002134)">
                    <g id="Fill-3">
                        <use fill="#FFFFFF" xlink:href="#path-6"></use>
                        <use fill="url(#linearGradient-5)" xlink:href="#path-6"></use>
                    </g>
                    <g id="Fill-5">
                        <use fill="#4C455C" xlink:href="#path-8"></use>
                        <use fill="url(#linearGradient-7)" xlink:href="#path-8"></use>
                    </g>
                    <g id="Fill-7">
                        <use fill="#C7C5CC" xlink:href="#path-10"></use>
                        <use fill="url(#linearGradient-9)" xlink:href="#path-10"></use>
                    </g>
                    <g transform="translate(0.000000, 17.817497)">
                        <mask id="mask-12" fill="white">
                            <use xlink:href="#path-11"></use>
                        </mask>
                        <g id="Clip-10"></g>
                        <g id="Fill-9" mask="url(#mask-12)">
                            <use fill="#665C7A" xlink:href="#path-14"></use>
                            <use fill="url(#linearGradient-13)" xlink:href="#path-14"></use>
                        </g>
                    </g>
                    <g id="Fill-11">
                        <use fill="#E7EBEA" xlink:href="#path-16"></use>
                        <use fill="url(#linearGradient-15)" xlink:href="#path-16"></use>
                    </g>
                    <path d="M81.9572505,47.7978495 C82.0257521,47.7675291 82.0998687,47.7574223 82.1672473,47.7461925 C82.1167133,47.7461925 82.0549496,47.7574223 82.0044156,47.7798819 C81.9864479,47.7798819 81.9752182,47.7877427 81.9572505,47.7978495" id="Fill-13" fill="#F2F2F2"></path>
                    <g transform="translate(98.016099, 55.720511)">
                        <mask id="mask-18" fill="white">
                            <use xlink:href="#path-17"></use>
                        </mask>
                        <g id="Clip-16"></g>
                        <g id="Fill-15" mask="url(#mask-18)">
                            <use fill="#E1E3E3" xlink:href="#path-20"></use>
                            <use fill="url(#linearGradient-19)" xlink:href="#path-20"></use>
                        </g>
                    </g>
                    <path d="M82.8650655,46.7696514 C82.9335671,46.7775122 82.9942079,46.786496 83.0570946,46.8179394 C83.036881,46.8067096 83.0312661,46.7966028 83.0110525,46.7966028 C82.9638875,46.7775122 82.9099846,46.7696514 82.8650655,46.7696514 Z" id="Fill-17" fill="#F2F2F2"></path>
                    <g id="Fill-19">
                        <use fill="#E1E6E5" xlink:href="#path-22"></use>
                        <use fill="url(#linearGradient-21)" xlink:href="#path-22"></use>
                    </g>
                </g>
            </g>
        </g>
    </g>
</svg>