<svg id="图层_1" data-name="图层 1" xmlns="http://www.w3.org/2000/svg" xmlns:xlink="http://www.w3.org/1999/xlink" viewBox="0 0 90 90"><defs><style>.cls-1{fill:#26ad4e;}.cls-2{fill:url(#未命名的渐变_326);}.cls-3{fill:#fff;}.cls-4{fill:#d0eaef;}.cls-5{fill:url(#未命名的渐变_326-2);}.cls-6{fill:url(#未命名的渐变_326-3);}.cls-7{fill:#0d8398;}</style><linearGradient id="未命名的渐变_326" x1="43.1" y1="67.47" x2="43.1" y2="22.53" gradientUnits="userSpaceOnUse"><stop offset="0" stop-color="#169abd"/><stop offset="1" stop-color="#2dbced"/></linearGradient><linearGradient id="未命名的渐变_326-2" x1="62.18" y1="59.68" x2="47.21" y2="33.76" xlink:href="#未命名的渐变_326"/><linearGradient id="未命名的渐变_326-3" x1="60.75" y1="55.1" x2="51.18" y2="38.53" xlink:href="#未命名的渐变_326"/></defs><path class="cls-1" d="M37.3,29.78H54.7a.64.64,0,0,1,.72.72v2.9a.64.64,0,0,1-.72.73H37.3a.65.65,0,0,1-.73-.73V30.5A.64.64,0,0,1,37.3,29.78Z"/><path class="cls-1" d="M37.3,38.48H62a.64.64,0,0,1,.72.72v2.9a.64.64,0,0,1-.72.73H37.3a.65.65,0,0,1-.73-.73V39.2A.64.64,0,0,1,37.3,38.48Z"/><path class="cls-2" d="M26.43,22.53H59.77A1.28,1.28,0,0,1,61.22,24V66a1.28,1.28,0,0,1-1.45,1.45H26.43A1.28,1.28,0,0,1,25,66V24A1.28,1.28,0,0,1,26.43,22.53Z"/><path class="cls-3" d="M29.33,25.43H56.87a1.28,1.28,0,0,1,1.45,1.45V63.12a1.28,1.28,0,0,1-1.45,1.45H29.33a1.28,1.28,0,0,1-1.45-1.45V26.88A1.28,1.28,0,0,1,29.33,25.43Z"/><rect class="cls-4" x="29.33" y="26.88" width="27.55" height="36.24" rx="1.45"/><path class="cls-5" d="M36.52,40l30.56-8.19a1.29,1.29,0,0,1,1.78,1l5,18.78a1.28,1.28,0,0,1-1,1.78L42.31,61.61a1.28,1.28,0,0,1-1.78-1l-5-18.78A1.29,1.29,0,0,1,36.52,40Z"/><path class="cls-3" d="M39,41.46l26.64-7.14a1.28,1.28,0,0,1,1.77,1l4,14.86a1.28,1.28,0,0,1-1,1.77L43.74,59.12a1.28,1.28,0,0,1-1.77-1L38,43.24a1.28,1.28,0,0,1,1-1.78Z"/><path class="cls-6" d="M38.66,45.76,68.1,37.87l.53,2L39.19,47.72Zm26.18,3.5,3.93-1,.52,2-3.92,1Z"/><rect class="cls-7" x="64.94" y="48.7" width="4.24" height="2.04" transform="translate(-10.58 19.04) rotate(-14.99)"/></svg>