<?xml version="1.0" encoding="utf-8"?>
<!-- Generator: Adobe Illustrator 25.3.1, SVG Export Plug-In . SVG Version: 6.00 Build 0)  -->
<svg version="1.1" id="图层_1" xmlns="http://www.w3.org/2000/svg" xmlns:xlink="http://www.w3.org/1999/xlink" x="0px" y="0px"
	 viewBox="0 0 95 60" style="enable-background:new 0 0 95 60;" xml:space="preserve">
<style type="text/css">
	.st0{fill:url(#SVGID_1_);}
	.st1{fill:url(#SVGID_2_);}
	.st2{fill:url(#SVGID_3_);}
	.st3{fill:url(#SVGID_4_);}
	.st4{fill:url(#SVGID_5_);}
	.st5{fill:url(#SVGID_6_);}
	.st6{fill:url(#SVGID_7_);}
	.st7{fill:url(#SVGID_8_);}
	.st8{fill:#697F87;}
	.st9{fill:#697F86;}
	.st10{fill:url(#SVGID_9_);}
</style>
<linearGradient id="SVGID_1_" gradientUnits="userSpaceOnUse" x1="47.65" y1="22.95" x2="47.65" y2="12" gradientTransform="matrix(1 0 0 1 0 -12)">
	<stop  offset="0" style="stop-color:#C0C9CD"/>
	<stop  offset="1" style="stop-color:#EFF1F2"/>
</linearGradient>
<path class="st0" d="M47.7,11c0.9,0.1,1.8-0.7,1.8-1.6c0-0.1,0-0.1,0-0.2V1.8c-0.1-1-1-1.8-2-1.7c-0.9,0.1-1.6,0.8-1.7,1.7v7.7
	C46,10.4,46.8,11.1,47.7,11L47.7,11z"/>
<linearGradient id="SVGID_2_" gradientUnits="userSpaceOnUse" x1="64.5434" y1="28.78" x2="64.5434" y2="19.84" gradientTransform="matrix(1 0 0 1 0 -12)">
	<stop  offset="0" style="stop-color:#C0C9CD"/>
	<stop  offset="1" style="stop-color:#EFF1F2"/>
</linearGradient>
<path class="st1" d="M61.6,16.8c0.5,0.1,1-0.1,1.5-0.4l5.5-5.4c0.7-0.7,0.7-1.8,0-2.6s-1.8-0.7-2.6,0l-5.5,5.1
	c-0.7,0.7-0.7,1.8-0.1,2.5c0,0,0,0,0.1,0.1C60.9,16.4,61.2,16.8,61.6,16.8z"/>
<linearGradient id="SVGID_3_" gradientUnits="userSpaceOnUse" x1="71.4" y1="42.28" x2="71.4" y2="38.63" gradientTransform="matrix(1 0 0 1 0 -12)">
	<stop  offset="0" style="stop-color:#C0C9CD"/>
	<stop  offset="1" style="stop-color:#EFF1F2"/>
</linearGradient>
<path class="st2" d="M75.1,26.6h-7.7c-1,0.1-1.8,1-1.7,2c0.1,0.9,0.8,1.6,1.7,1.7h7.7c1,0.1,1.9-0.7,2-1.7s-0.7-1.9-1.7-2
	C75.3,26.6,75.2,26.6,75.1,26.6z"/>
<linearGradient id="SVGID_4_" gradientUnits="userSpaceOnUse" x1="31.3566" y1="28.426" x2="31.3566" y2="19.846" gradientTransform="matrix(1 0 0 1 0 -12)">
	<stop  offset="0" style="stop-color:#C0C9CD"/>
	<stop  offset="1" style="stop-color:#EFF1F2"/>
</linearGradient>
<path class="st3" d="M32.4,16c0.4,0.4,0.7,0.4,1.5,0.4c0.5,0.1,1-0.1,1.5-0.4c0.7-0.7,0.7-1.8,0.1-2.5c0,0,0,0-0.1-0.1l-5.5-5.1
	c-0.7-0.7-1.9-0.7-2.6,0s-0.7,1.9,0,2.6L32.4,16z"/>
<linearGradient id="SVGID_5_" gradientUnits="userSpaceOnUse" x1="24.2" y1="42.28" x2="24.2" y2="38.63" gradientTransform="matrix(1 0 0 1 0 -12)">
	<stop  offset="0" style="stop-color:#C0C9CD"/>
	<stop  offset="1" style="stop-color:#EFF1F2"/>
</linearGradient>
<path class="st4" d="M29.9,28.5c0.1-0.9-0.7-1.8-1.6-1.8c-0.1,0-0.2,0-0.2,0h-7.6c-1-0.1-1.9,0.7-2,1.7s0.7,1.9,1.7,2
	c0.1,0,0.2,0,0.3,0H28C29,30.2,29.8,29.4,29.9,28.5z"/>
<linearGradient id="SVGID_6_" gradientUnits="userSpaceOnUse" x1="47.5" y1="68.28" x2="47.5" y2="64.63" gradientTransform="matrix(1 0 0 1 0 -12)">
	<stop  offset="0" style="stop-color:#889EA9"/>
	<stop  offset="1" style="stop-color:#8DA2AC"/>
</linearGradient>
<path class="st5" d="M67.2,52.6H27.8c-1-0.1-1.9,0.7-2,1.7s0.7,1.9,1.7,2c0.1,0,0.2,0,0.3,0h39.4c1,0.1,1.9-0.7,2-1.7
	s-0.7-1.9-1.7-2C67.4,52.6,67.3,52.6,67.2,52.6z"/>
<linearGradient id="SVGID_7_" gradientUnits="userSpaceOnUse" x1="47.5968" y1="61.3444" x2="47.5968" y2="24.8378" gradientTransform="matrix(1 0 0 1 0 -12)">
	<stop  offset="0" style="stop-color:#889EA9"/>
	<stop  offset="1" style="stop-color:#D7DADE"/>
</linearGradient>
<path class="st6" d="M33.1,49.3h11.7V45c0-1.6,1.3-2.9,2.8-2.9l0,0c1.6,0,2.9,1.3,2.9,2.9v4.3h11.7c0.9,0.1,1.8-0.7,1.8-1.6
	c0-0.1,0-0.1,0-0.2V29.3c-0.1-9.2-7.7-16.6-16.9-16.5c-0.3,0-0.6,0-0.9,0c-8.8,0.4-15,8.4-15,17.1v17.5
	C31.1,48.3,32.2,49.3,33.1,49.3C33.1,49.3,33,49.4,33.1,49.3z M47.7,18.8c6.2,0,11.2,5,11.2,11.2s-5,11.2-11.2,11.2
	s-11.2-5-11.2-11.2S41.6,18.8,47.7,18.8L47.7,18.8z"/>
<linearGradient id="SVGID_8_" gradientUnits="userSpaceOnUse" x1="47.7" y1="40.98" x2="47.7" y2="32.68" gradientTransform="matrix(1 0 0 1 0 -12)">
	<stop  offset="0" style="stop-color:#F49F4A"/>
	<stop  offset="1" style="stop-color:#F7C772"/>
</linearGradient>
<path class="st7" d="M47.7,20.7L47.7,20.7c1,0,1.9,0.8,1.9,1.9v4.5c0,1-0.8,1.9-1.9,1.9l0,0c-1,0-1.9-0.8-1.9-1.9v-4.5
	C45.8,21.5,46.7,20.7,47.7,20.7z"/>
<path class="st8" d="M50.1,31.8h-2.4v1.6h2.2v0.9h-2.2v2.5h-1v-6h3.4V31.8z"/>
<path class="st8" d="M54.5,31.8h-2.4v1.6h2.2v0.9h-2.2v2.5h-1v-6h3.4V31.8z"/>
<path class="st9" d="M43.2,36.9c1.5,0,2.7-1.3,2.7-3.1s-1.2-3.1-2.7-3.1s-2.7,1.3-2.7,3.1S41.7,36.9,43.2,36.9z M43.2,31.7
	c1.1,0,1.9,1,1.9,2.2S44.2,36,43.2,36s-1.9-1-1.9-2.2S42.1,31.7,43.2,31.7z"/>
<linearGradient id="SVGID_9_" gradientUnits="userSpaceOnUse" x1="47.6577" y1="33.7479" x2="47.6577" y2="53.3007" gradientTransform="matrix(1 0 0 1 0 -12)">
	<stop  offset="0" style="stop-color:#889EA9"/>
	<stop  offset="1" style="stop-color:#D7DADE"/>
</linearGradient>
<path class="st10" d="M55.6,22c-0.3-0.3-0.9-0.3-1.2,0l0,0c-0.3,0.3-0.3,0.8,0.1,1.1l0,0c3.7,3.8,3.7,9.9,0,13.7
	c-3.7,3.8-9.9,3.7-13.7,0c-3.7-3.7-3.7-9.9,0-13.7l0,0c0.3-0.3,0.3-0.8,0-1.1c-0.3-0.3-0.8-0.3-1.1,0l0,0l0,0l0,0
	c-4.4,4.4-4.4,11.6,0,16s11.6,4.4,16,0C60,33.6,60,26.4,55.6,22C55.6,22,55.6,22.1,55.6,22z"/>
</svg>
