<svg id="图层_1" data-name="图层 1" xmlns="http://www.w3.org/2000/svg" xmlns:xlink="http://www.w3.org/1999/xlink" viewBox="0 0 90 90"><defs><style>.cls-1{fill:url(#未命名的渐变_190);}.cls-2{fill:url(#未命名的渐变_190-2);}.cls-3{fill:url(#未命名的渐变_190-3);}.cls-4{fill:#6c4b83;}.cls-5{fill:url(#未命名的渐变_205);}.cls-6{fill:#e1d0e6;}.cls-7{fill:url(#未命名的渐变_190-4);}.cls-8{fill:url(#未命名的渐变_230);}</style><linearGradient id="未命名的渐变_190" x1="44.26" y1="66.31" x2="44.26" y2="61.02" gradientUnits="userSpaceOnUse"><stop offset="0" stop-color="#a076b2"/><stop offset="1" stop-color="#be95c3"/></linearGradient><linearGradient id="未命名的渐变_190-2" x1="34.51" y1="67.53" x2="34.51" y2="59.99" xlink:href="#未命名的渐变_190"/><linearGradient id="未命名的渐变_190-3" x1="54.45" y1="67.53" x2="54.45" y2="59.99" xlink:href="#未命名的渐变_190"/><linearGradient id="未命名的渐变_205" x1="44.63" y1="61.02" x2="44.63" y2="28.59" gradientUnits="userSpaceOnUse"><stop offset="0" stop-color="#b593c2"/><stop offset="1" stop-color="#bd94c2"/></linearGradient><linearGradient id="未命名的渐变_190-4" x1="37.4" y1="24.59" x2="51.87" y2="24.59" xlink:href="#未命名的渐变_190"/><linearGradient id="未命名的渐变_230" x1="44.63" y1="50.7" x2="44.63" y2="39.13" gradientUnits="userSpaceOnUse"><stop offset="0" stop-color="#f49f4a"/><stop offset="1" stop-color="#f7c772"/></linearGradient></defs><rect class="cls-1" x="43.1" y="61.02" width="2.33" height="5.29"/><polygon class="cls-2" points="31.92 67.53 36.02 67.53 37.09 59.99 34.84 59.99 31.92 67.53"/><polygon class="cls-3" points="57.04 67.53 52.94 67.53 51.87 59.99 54.12 59.99 57.04 67.53"/><path class="cls-4" d="M71.21,35.73H64.57a2.08,2.08,0,0,0-2.07,2.08V52.08a2.07,2.07,0,0,0,2.07,2.07h6.64a2.08,2.08,0,0,0,2.08-2.07V37.81A2.08,2.08,0,0,0,71.21,35.73Zm.12,14.63a1.58,1.58,0,0,1-1.58,1.58h-5a1.58,1.58,0,0,1-1.58-1.58V39.52A1.57,1.57,0,0,1,64.71,38h5a1.57,1.57,0,0,1,1.58,1.57Z"/><rect class="cls-4" x="39.51" y="24.3" width="10.25" height="4.8"/><path class="cls-5" d="M54.63,28.59h-20a16.22,16.22,0,0,0,0,32.43h20a16.22,16.22,0,1,0,0-32.43Zm-10,26.46A10.11,10.11,0,1,1,54.73,44.94,10.1,10.1,0,0,1,44.62,55.05Z"/><path class="cls-6" d="M53.25,31.82H36c-7.68,0-14,5.85-14,13s6.29,13,14,13H53.25c7.69,0,14-5.84,14-13S60.94,31.82,53.25,31.82ZM44.62,53c-4.81,0-8.71-3.62-8.71-8.09s3.9-8.1,8.71-8.1,8.71,3.63,8.71,8.1S49.43,53,44.62,53Z"/><rect class="cls-7" x="37.4" y="22.47" width="14.47" height="4.23" rx="2.11"/><path class="cls-8" d="M42.45,50.7a2.89,2.89,0,0,1,.24-3.38,5.7,5.7,0,0,0,.81-1.9,2.17,2.17,0,0,1,.32,1.69,4.43,4.43,0,0,0,.93-3.22,5.57,5.57,0,0,1,1.73,6.77c6.21-3.55,1.53-8.83.73-9.4a1.91,1.91,0,0,1-.24,2.1c-.93-3.55-3.23-4.23-3.23-4.23.28,1.81-1,3.79-2.18,5.28a3.87,3.87,0,0,0-.48-1.94C41,43.81,40,44.85,39.7,46.19c-.36,1.81.29,3.1,2.75,4.51Z"/></svg>