<svg id="图层_1" data-name="图层 1" xmlns="http://www.w3.org/2000/svg" xmlns:xlink="http://www.w3.org/1999/xlink" viewBox="0 0 172 145"><defs><style>.cls-1{fill:#fff;}.cls-2{fill:#be2f2d;}.cls-3{fill:#fdeded;}.cls-4{fill:url(#未命名的渐变_344);}.cls-5{fill:url(#未命名的渐变_344-2);}.cls-6{fill:url(#未命名的渐变_344-3);}.cls-7{fill:url(#未命名的渐变_344-4);}.cls-8{fill:url(#未命名的渐变_344-5);}.cls-9{fill:url(#未命名的渐变_344-6);}.cls-10{fill:url(#未命名的渐变_344-7);}.cls-11{fill:url(#未命名的渐变_348);}.cls-12{fill:url(#未命名的渐变_348-2);}</style><linearGradient id="未命名的渐变_344" x1="96.06" y1="141.47" x2="96.06" y2="33.84" gradientUnits="userSpaceOnUse"><stop offset="0" stop-color="#e94e47"/><stop offset="1" stop-color="#ed786e"/></linearGradient><linearGradient id="未命名的渐变_344-2" x1="96.06" y1="115.18" x2="96.06" y2="77.85" xlink:href="#未命名的渐变_344"/><linearGradient id="未命名的渐变_344-3" x1="76.15" y1="115.14" x2="76.15" y2="77.89" xlink:href="#未命名的渐变_344"/><linearGradient id="未命名的渐变_344-4" x1="116.15" y1="115.14" x2="116.15" y2="77.89" xlink:href="#未命名的渐变_344"/><linearGradient id="未命名的渐变_344-5" x1="96.06" y1="70.52" x2="96.06" y2="58.15" xlink:href="#未命名的渐变_344"/><linearGradient id="未命名的渐变_344-6" x1="96.06" y1="132.93" x2="96.06" y2="117.96" xlink:href="#未命名的渐变_344"/><linearGradient id="未命名的渐变_344-7" x1="111.34" y1="42.59" x2="83.53" y2="-5.57" xlink:href="#未命名的渐变_344"/><linearGradient id="未命名的渐变_348" x1="37.5" y1="96.59" x2="37.5" y2="3.53" gradientUnits="userSpaceOnUse"><stop offset="0.29" stop-color="#eb6267"/><stop offset="1" stop-color="#f0896e"/></linearGradient><linearGradient id="未命名的渐变_348-2" x1="29.08" y1="22.82" x2="45.58" y2="22.82" xlink:href="#未命名的渐变_348"/></defs><path class="cls-1" d="M64.53,72a3.13,3.13,0,0,1,3.14,3.14v5.27a3.14,3.14,0,0,1-6.28,0V75.16A3.07,3.07,0,0,1,64.53,72Z"/><path class="cls-1" d="M127.77,72a3.13,3.13,0,0,1,3.14,3.14v5.27a3.14,3.14,0,0,1-6.28,0V75.16A3.07,3.07,0,0,1,127.77,72Z"/><path class="cls-2" d="M126.09,85.25a4.78,4.78,0,0,1-4.82-4.82V75.16a4.82,4.82,0,1,1,9.64,0v5.27A4.78,4.78,0,0,1,126.09,85.25Z"/><path class="cls-2" d="M66.08,85.25a4.78,4.78,0,0,1-4.82-4.82V75.16a4.82,4.82,0,1,1,9.64,0v5.27A4.78,4.78,0,0,1,66.08,85.25Z"/><path class="cls-3" d="M72.35,42.08l9-3.69a37.91,37.91,0,0,1,29-.11l9.4,3.8a9,9,0,0,1,5.6,8.35v78.68A7.11,7.11,0,0,1,120,136l-9,2.22a61.45,61.45,0,0,1-28.73.1l-10.14-2.43A7,7,0,0,1,66.75,129V50.43A9.32,9.32,0,0,1,72.35,42.08Z"/><path class="cls-4" d="M96.27,141.47a59.39,59.39,0,0,1-14.36-1.69l-10.14-2.43A8.58,8.58,0,0,1,65.11,129V50.43a10.59,10.59,0,0,1,6.55-9.83l9-3.69A39.64,39.64,0,0,1,111,36.8l9.4,3.8A10.67,10.67,0,0,1,127,50.43v78.68a8.6,8.6,0,0,1-6.55,8.35l-9.19,2.21A64.33,64.33,0,0,1,96.27,141.47Zm-21.91-95a6.9,6.9,0,0,0-4.24,6.41v73.36a5,5,0,0,0,3.95,4.93l9.46,2.27a57.09,57.09,0,0,0,26.13-.1l8.38-2.07a5.07,5.07,0,0,0,3.85-4.93V52.9a6.84,6.84,0,0,0-4.34-6.41l-8.77-3.55a33.58,33.58,0,0,0-26,.1Z"/><path class="cls-5" d="M85.52,77.85H106.6A3.37,3.37,0,0,1,110,81.21v30.61a3.37,3.37,0,0,1-3.36,3.36H85.52a3.37,3.37,0,0,1-3.36-3.36V81.21A3.29,3.29,0,0,1,85.52,77.85Z"/><path class="cls-1" d="M76.29,79.11a1.31,1.31,0,0,0-.61-.1,1.61,1.61,0,0,0-1.63,1.64v31.53a1.31,1.31,0,0,0,.1.61,1.66,1.66,0,0,0,2.14,1l1.84-.71a2,2,0,0,0,1.22-1.74V81.67a1.79,1.79,0,0,0-1.22-1.74Z"/><path class="cls-6" d="M75.23,115.14a2.63,2.63,0,0,1-1.22-.31,3,3,0,0,1-1.53-1.63,3.37,3.37,0,0,1-.21-1V80.75a2.85,2.85,0,0,1,2.86-2.86,3.69,3.69,0,0,1,1,.2l1.84.72a3.07,3.07,0,0,1,2,2.86v29.69a3,3,0,0,1-2,2.86l-1.84.72A2.45,2.45,0,0,1,75.23,115.14Zm0-34.9a.48.48,0,0,0-.51.51v31.74c.1.2.21.2.21.3s.2.1.3,0l1.84-.71a.57.57,0,0,0,.41-.61V81.67a.71.71,0,0,0-.41-.62l-1.84-.71C75.33,80.24,75.23,80.24,75.23,80.24Z"/><path class="cls-1" d="M117.11,79.11a1.35,1.35,0,0,1,.62-.1,1.62,1.62,0,0,1,1.63,1.64v31.53a1.31,1.31,0,0,1-.1.61,1.67,1.67,0,0,1-2.15,1l-1.83-.71a2,2,0,0,1-1.23-1.74V81.67a1.79,1.79,0,0,1,1.23-1.74Z"/><path class="cls-7" d="M117.28,115.14a3.62,3.62,0,0,1-1-.2l-1.94-.72a3.06,3.06,0,0,1-2-2.86V81.67a3,3,0,0,1,2-2.86l1.83-.72a3.76,3.76,0,0,1,1-.2A2.85,2.85,0,0,1,120,80.75v31.53a3.62,3.62,0,0,1-.2,1,3,3,0,0,1-1.53,1.64,2.62,2.62,0,0,1-1,.2Zm0-34.9h-.21l-1.83.71a.56.56,0,0,0-.41.61v29.7a.67.67,0,0,0,.41.61l1.83.72c.21.1.31,0,.31,0s.2-.1.2-.31V80.75A.35.35,0,0,0,117.28,80.24Z"/><path class="cls-1" d="M76.22,59.25a2.57,2.57,0,0,0-.87.21,2.11,2.11,0,0,0-1,2.74L77.1,68A2.22,2.22,0,0,0,79,69.21h34.15A2,2,0,0,0,115,68l2.74-5.8a2,2,0,0,0-1.86-3Z"/><path class="cls-8" d="M113.18,70.52H79A3.47,3.47,0,0,1,76,68.66l-2.74-5.8a3.24,3.24,0,0,1,1.64-4.38,3,3,0,0,1,1.43-.33h39.62a3.29,3.29,0,0,1,3.28,3.28,3.53,3.53,0,0,1-.32,1.43l-2.63,5.69A3.38,3.38,0,0,1,113.18,70.52ZM76,60.67a.75.75,0,0,0-.33,1l2.74,5.8a.74.74,0,0,0,.65.44h34.15a.6.6,0,0,0,.66-.44l2.74-5.8c0-.11.11-.22.11-.32a.75.75,0,0,0-.77-.77"/><path class="cls-1" d="M77.06,129.36c.79.2,3.87.79,6.84,1.19a97.92,97.92,0,0,0,12.79,1.19,80.37,80.37,0,0,0,17.84-2.28h.2a1.87,1.87,0,0,0,1.69-2v-.3l-1.59-6.55a1.9,1.9,0,0,0-1.78-1.38H79a1.81,1.81,0,0,0-1.78,1.38l-1.49,6.55a1.7,1.7,0,0,0,1.29,2.18Z"/><path class="cls-9" d="M96.78,132.93a88.64,88.64,0,0,1-13-1.19c-2.88-.4-6-1-6.94-1.19A3,3,0,0,1,75,129.16a3.09,3.09,0,0,1-.39-2.28l1.48-6.54A3,3,0,0,1,79,118h34a3.08,3.08,0,0,1,3,2.38l1.48,6.54c0,.1.1.3.1.4a2.93,2.93,0,0,1-.69,2.18,3.34,3.34,0,0,1-2.08,1.09h-.1A74.88,74.88,0,0,1,96.78,132.93Zm-19.33-4.66c.7.2,3.87.69,6.74,1.19a85.32,85.32,0,0,0,12.69,1.19,77.89,77.89,0,0,0,17.55-2.28h.3a.46.46,0,0,0,.49-.3.76.76,0,0,0,.2-.5l-1.58-6.64a.66.66,0,0,0-.7-.49h-34a.74.74,0,0,0-.7.49L77,127.48a.73.73,0,0,0,.1.49C77.06,128.07,77.25,128.17,77.45,128.27Z"/><path class="cls-10" d="M140.79,13.06H51.27V24.83h89.22a6,6,0,0,0,6-6A5.74,5.74,0,0,0,140.79,13.06ZM83.13,16.24h9.12l-2.17,5.4H81Zm-5.07,5.4H68.94l2.17-5.4h9.12Zm17.09-5.4h9.12l-2.17,5.4H93Zm12,0h9.12l-2.17,5.4H105Zm12,0h9.12l-2.17,5.4H117Zm-63.94,0h13L66,21.64H55.25Zm84.57,5.4H129l2.17-5.4H140a2.63,2.63,0,0,1,2.63,2.63A2.77,2.77,0,0,1,139.82,21.64Z"/><path class="cls-11" d="M46.6,3.53H28.4a5.13,5.13,0,0,0-5.13,5.13v82.8a5.13,5.13,0,0,0,5.13,5.13H46.6a5.13,5.13,0,0,0,5.13-5.13V8.66A5.13,5.13,0,0,0,46.6,3.53Zm-9,31.82a11.95,11.95,0,1,1,11.95-12A11.95,11.95,0,0,1,37.59,35.35Z"/><path class="cls-12" d="M33.14,16l2.2-1.28c1.19.93,2.58,3,4.2,6.28a19.29,19.29,0,0,0,6,7.44c-.93,1-1.65,1.83-2.15,2.46a30.05,30.05,0,0,1-6-8.4A20.76,20.76,0,0,1,31,30.94a28,28,0,0,0-2-2.17,18.31,18.31,0,0,0,7-9.27A14.05,14.05,0,0,0,33.14,16Z"/></svg>