<svg id="图层_1" data-name="图层 1" xmlns="http://www.w3.org/2000/svg" xmlns:xlink="http://www.w3.org/1999/xlink" viewBox="0 0 95 60"><defs><style>.cls-1{fill:url(#未命名的渐变_142);}.cls-2{fill:#4a80c2;}.cls-3{fill:url(#未命名的渐变_142-2);}.cls-4{fill:#cbe7ee;}</style><linearGradient id="未命名的渐变_142" x1="73.51" y1="42.4" x2="59.58" y2="18.27" gradientUnits="userSpaceOnUse"><stop offset="0" stop-color="#4a80c2"/><stop offset="1" stop-color="#92bae3"/></linearGradient><linearGradient id="未命名的渐变_142-2" x1="42.77" y1="56.41" x2="42.77" y2="4.25" xlink:href="#未命名的渐变_142"/></defs><path class="cls-1" d="M78.5,38l-5.84-21.8a1.49,1.49,0,0,0-2.06-1.19L60.43,17.78v2.44l8.5-2.28A1.49,1.49,0,0,1,71,19.13l.79,2.93-11.35,3v2.44l12-3.21,3.23,12a1.49,1.49,0,0,1-1.19,2.06l-14,3.75v2.44L77.31,40.1A1.48,1.48,0,0,0,78.5,38Z"/><rect class="cls-2" x="68.12" y="34.62" width="4.93" height="2.36" transform="matrix(0.97, -0.26, 0.26, 0.97, -6.86, 19.48)"/><path class="cls-3" d="M62.11,4.25H23.42a1.48,1.48,0,0,0-1.68,1.68V54.72a1.49,1.49,0,0,0,1.68,1.69H62.11a1.49,1.49,0,0,0,1.69-1.69V5.93A1.49,1.49,0,0,0,62.11,4.25ZM60.43,51.36A1.48,1.48,0,0,1,58.75,53h-32a1.48,1.48,0,0,1-1.68-1.68V9.3a1.48,1.48,0,0,1,1.68-1.68h32A1.48,1.48,0,0,1,60.43,9.3Z"/><path class="cls-4" d="M28.47,9.3h28.6A1.48,1.48,0,0,1,58.75,11v38.7a1.48,1.48,0,0,1-1.68,1.68H28.47a1.49,1.49,0,0,1-1.69-1.68V11A1.49,1.49,0,0,1,28.47,9.3Z"/><rect class="cls-2" x="49.47" y="25.99" width="3.74" height="9.99" rx="1.87"/></svg>