<svg id="图层_1" data-name="图层 1" xmlns="http://www.w3.org/2000/svg" xmlns:xlink="http://www.w3.org/1999/xlink" viewBox="0 0 90 90"><defs><style>.cls-1{fill:url(#未命名的渐变_363);}.cls-2{fill:url(#未命名的渐变_235);}.cls-3{fill:url(#未命名的渐变_230);}.cls-4{fill:url(#未命名的渐变_363-2);}.cls-5{fill:#dd9025;}.cls-6{fill:#f5e44b;}</style><linearGradient id="未命名的渐变_363" x1="36.91" y1="46.01" x2="57.96" y2="46.01" gradientUnits="userSpaceOnUse"><stop offset="0" stop-color="#fff"/><stop offset="1" stop-color="#fff" stop-opacity="0.8"/></linearGradient><linearGradient id="未命名的渐变_235" x1="45.27" y1="69.33" x2="45.27" y2="18.47" gradientUnits="userSpaceOnUse"><stop offset="0.29" stop-color="#f7b36b"/><stop offset="1" stop-color="#f8ca70"/></linearGradient><linearGradient id="未命名的渐变_230" x1="47.44" y1="49.25" x2="47.44" y2="23.5" gradientUnits="userSpaceOnUse"><stop offset="0" stop-color="#f49f4a"/><stop offset="1" stop-color="#f7c772"/></linearGradient><linearGradient id="未命名的渐变_363-2" x1="43.39" y1="36.29" x2="69.3" y2="36.29" xlink:href="#未命名的渐变_363"/></defs><path class="cls-1" d="M47.44,58.8a13,13,0,0,1,0-25.59,13,13,0,0,1,0,25.59Z"/><path class="cls-2" d="M45,60.59A14.58,14.58,0,1,1,59.58,46,14.52,14.52,0,0,1,45,60.59Zm0-25.92A11.34,11.34,0,1,0,56.35,46,11.27,11.27,0,0,0,45,34.67Zm0-6.48a1.53,1.53,0,0,1-1.62-1.62V20.09a1.62,1.62,0,0,1,3.24,0v6.48A1.53,1.53,0,0,1,45,28.19Zm0,34.66a1.53,1.53,0,0,1,1.62,1.62v3.24a1.62,1.62,0,0,1-3.24,0V64.47A1.53,1.53,0,0,1,45,62.85Zm-8.73-2.19a1.57,1.57,0,0,1,0,2.27L34,65.19a1.6,1.6,0,1,1-2.27-2.26L34,60.66A1.55,1.55,0,0,1,36.27,60.66Zm23.59-6.37a1.57,1.57,0,0,0,.46,2.22L63,58.27a1.6,1.6,0,1,0,1.76-2.68l-2.68-1.76A1.57,1.57,0,0,0,59.86,54.29Zm-31.4-.46-2.68,1.76a1.6,1.6,0,0,0,1.76,2.68l2.68-1.76a1.6,1.6,0,1,0-1.76-2.68Zm25.1,6.76a1.57,1.57,0,0,0,0,2.26l2.27,2.27a1.61,1.61,0,0,0,2.27-2.27l-2.27-2.26A1.57,1.57,0,0,0,53.56,60.59Z"/><path class="cls-3" d="M47.44,23.5A22.72,22.72,0,0,1,67.68,44.87v1.3a3.07,3.07,0,0,1-3.07,3.08H27.19V44.87A22.72,22.72,0,0,1,47.44,23.5Z"/><path class="cls-4" d="M43.39,23.5a20.64,20.64,0,0,1,3.24-.17A22.75,22.75,0,0,1,69.3,44.87v1.3a3.07,3.07,0,0,1-3.07,3.08H59.75a3.07,3.07,0,0,0,3.07-3.08v-1.3A23.08,23.08,0,0,0,43.39,23.5Z"/><path class="cls-5" d="M64.61,50.87H28.81a1.62,1.62,0,0,1,0-3.24h35.8a1.45,1.45,0,0,0,1.45-1.46V45A21.08,21.08,0,0,0,24,45v2.59a1.62,1.62,0,1,1-3.24,0V44.55a24.33,24.33,0,0,1,48.59.32v1.46a4.67,4.67,0,0,1-4.69,4.54Z"/><path class="cls-6" d="M37.56,31.59a1.62,1.62,0,0,1,1.94,2.59,10.23,10.23,0,0,0-4,6.16,1.59,1.59,0,0,1-3.08-.81A12.6,12.6,0,0,1,37.56,31.59Z"/></svg>