<svg id="图层_1" data-name="图层 1" xmlns="http://www.w3.org/2000/svg" xmlns:xlink="http://www.w3.org/1999/xlink" viewBox="0 0 95 60"><defs><style>.cls-1{fill:#26ad4e;}.cls-2{fill:url(#未命名的渐变_326);}.cls-3{fill:#fff;}.cls-4{fill:#d0eaef;}.cls-5{fill:url(#未命名的渐变_326-2);}.cls-6{fill:url(#未命名的渐变_326-3);}.cls-7{fill:#0d8398;}</style><linearGradient id="未命名的渐变_326" x1="42.77" y1="56.41" x2="42.77" y2="4.25" gradientUnits="userSpaceOnUse"><stop offset="0" stop-color="#169abd"/><stop offset="1" stop-color="#2dbced"/></linearGradient><linearGradient id="未命名的渐变_326-2" x1="64.91" y1="47.37" x2="47.54" y2="17.29" xlink:href="#未命名的渐变_326"/><linearGradient id="未命名的渐变_326-3" x1="63.25" y1="42.05" x2="52.15" y2="22.82" xlink:href="#未命名的渐变_326"/></defs><path class="cls-1" d="M36,12.66H56.23a.75.75,0,0,1,.84.85v3.36a.74.74,0,0,1-.84.84H36a.74.74,0,0,1-.84-.84V13.51A.75.75,0,0,1,36,12.66Z"/><path class="cls-1" d="M36,22.76h28.6a.74.74,0,0,1,.84.84V27a.75.75,0,0,1-.84.85H36A.75.75,0,0,1,35.2,27V23.6A.74.74,0,0,1,36,22.76Z"/><path class="cls-2" d="M23.42,4.25H62.11A1.49,1.49,0,0,1,63.8,5.93V54.72a1.49,1.49,0,0,1-1.69,1.69H23.42a1.49,1.49,0,0,1-1.68-1.69V5.93A1.48,1.48,0,0,1,23.42,4.25Z"/><path class="cls-3" d="M26.78,7.62h32A1.48,1.48,0,0,1,60.43,9.3V51.36A1.48,1.48,0,0,1,58.75,53h-32a1.48,1.48,0,0,1-1.68-1.68V9.3A1.48,1.48,0,0,1,26.78,7.62Z"/><rect class="cls-4" x="26.78" y="9.3" width="31.97" height="42.06" rx="1.68"/><path class="cls-5" d="M35.14,24.55l35.46-9.5a1.49,1.49,0,0,1,2.06,1.19L78.5,38a1.48,1.48,0,0,1-1.19,2.06L41.85,49.6a1.48,1.48,0,0,1-2.06-1.19L34,26.61A1.48,1.48,0,0,1,35.14,24.55Z"/><path class="cls-3" d="M38,26.22l30.9-8.28A1.49,1.49,0,0,1,71,19.13l4.63,17.24a1.49,1.49,0,0,1-1.19,2.06L43.52,46.72a1.49,1.49,0,0,1-2.06-1.19L36.84,28.28A1.48,1.48,0,0,1,38,26.22Z"/><path class="cls-6" d="M37.62,31.21l34.16-9.15.61,2.27L38.23,33.49ZM68,35.27l4.55-1.22.61,2.28-4.55,1.22Z"/><rect class="cls-7" x="68.12" y="34.62" width="4.93" height="2.36" transform="translate(-6.86 19.48) rotate(-14.99)"/></svg>