<svg id="图层_1" data-name="图层 1" xmlns="http://www.w3.org/2000/svg" xmlns:xlink="http://www.w3.org/1999/xlink" viewBox="0 0 95 60"><defs><style>.cls-1{fill:url(#未命名的渐变_7);}.cls-2{fill:#cde8e5;}.cls-3{fill:url(#未命名的渐变_53);}.cls-4{fill:#fff;}.cls-5{fill:#087e66;stroke:#fff;stroke-miterlimit:10;}.cls-6{fill:url(#未命名的渐变_7-2);}.cls-7{fill:url(#未命名的渐变_7-3);}.cls-8{fill:url(#未命名的渐变_7-4);}.cls-9{fill:url(#未命名的渐变_7-5);}.cls-10{fill:url(#未命名的渐变_7-6);}.cls-11{fill:url(#未命名的渐变_7-7);}.cls-12{fill:url(#未命名的渐变_7-8);}</style><linearGradient id="未命名的渐变_7" x1="48" y1="42.38" x2="48" y2="8.63" gradientUnits="userSpaceOnUse"><stop offset="0" stop-color="#2bb499"/><stop offset="1" stop-color="#57bdab"/></linearGradient><linearGradient id="未命名的渐变_53" x1="61.57" y1="18.44" x2="67.7" y2="18.44" gradientUnits="userSpaceOnUse"><stop offset="0" stop-color="#ee7b49"/><stop offset="1" stop-color="#f29970"/></linearGradient><linearGradient id="未命名的渐变_7-2" x1="33.19" y1="40.35" x2="62.81" y2="40.35" xlink:href="#未命名的渐变_7"/><linearGradient id="未命名的渐变_7-3" x1="33.7" y1="51.96" x2="33.7" y2="44.34" xlink:href="#未命名的渐变_7"/><linearGradient id="未命名的渐变_7-4" x1="39.62" y1="51.96" x2="39.62" y2="44.34" xlink:href="#未命名的渐变_7"/><linearGradient id="未命名的渐变_7-5" x1="45.55" y1="51.96" x2="45.55" y2="44.34" xlink:href="#未命名的渐变_7"/><linearGradient id="未命名的渐变_7-6" x1="51.47" y1="51.96" x2="51.47" y2="44.34" xlink:href="#未命名的渐变_7"/><linearGradient id="未命名的渐变_7-7" x1="57.4" y1="51.96" x2="57.4" y2="44.34" xlink:href="#未命名的渐变_7"/><linearGradient id="未命名的渐变_7-8" x1="63.32" y1="51.96" x2="63.32" y2="44.34" xlink:href="#未命名的渐变_7"/></defs><path class="cls-1" d="M76.92,10.3a1.67,1.67,0,0,0-1.67-1.67h-54a1.68,1.68,0,0,0-1.68,1.67s-2.5,3.16-2.5,15.21c0,12.3,2.5,15.2,2.5,15.2a1.67,1.67,0,0,0,1.68,1.67h10.6V36.85H64.74v5.53H75.25a1.67,1.67,0,0,0,1.67-1.67s2-1.91,2-15.2C78.91,15.43,76.92,10.3,76.92,10.3Z"/><path class="cls-2" d="M73.46,13.37A1.47,1.47,0,0,0,72,11.9H24.48A1.47,1.47,0,0,0,23,13.37s-2.2,1.61-2.2,12.21c0,10.83,2.2,12.21,2.2,12.21a1.47,1.47,0,0,0,1.47,1.47H28.9V34.84H67.59v4.42H72a1.47,1.47,0,0,0,1.47-1.47s1.75-.51,1.75-12.21C75.21,16.72,73.46,13.37,73.46,13.37Z"/><circle class="cls-3" cx="64.63" cy="18.44" r="3.07"/><path class="cls-4" d="M64.63,15.75a2.69,2.69,0,1,1-2.69,2.69,2.68,2.68,0,0,1,2.69-2.69m0-.75a3.44,3.44,0,1,0,3.44,3.44A3.45,3.45,0,0,0,64.63,15Z"/><rect class="cls-5" x="27.85" y="15.49" width="29.85" height="5.9" rx="2.69"/><path class="cls-6" d="M33.19,38.38H62.81a0,0,0,0,1,0,0v1.9a2.05,2.05,0,0,1-2.05,2.05H35.19a2,2,0,0,1-2-2v-2A0,0,0,0,1,33.19,38.38Z"/><rect class="cls-7" x="32.39" y="44.34" width="2.63" height="7.62" rx="1.31"/><rect class="cls-8" x="38.31" y="44.34" width="2.63" height="7.62" rx="1.31"/><rect class="cls-9" x="44.23" y="44.34" width="2.63" height="7.62" rx="1.31"/><rect class="cls-10" x="50.16" y="44.34" width="2.63" height="7.62" rx="1.31"/><rect class="cls-11" x="56.08" y="44.34" width="2.63" height="7.62" rx="1.31"/><rect class="cls-12" x="62.01" y="44.34" width="2.63" height="7.62" rx="1.31"/></svg>