<?xml version="1.0" encoding="utf-8"?>
<!-- Generator: Adobe Illustrator 25.3.1, SVG Export Plug-In . SVG Version: 6.00 Build 0)  -->
<svg version="1.1" id="图层_1" xmlns="http://www.w3.org/2000/svg" xmlns:xlink="http://www.w3.org/1999/xlink" x="0px" y="0px"
	 viewBox="0 0 95 60" style="enable-background:new 0 0 95 60;" xml:space="preserve">
<style type="text/css">
	.st0{fill:url(#SVGID_1_);}
	.st1{fill:url(#SVGID_2_);}
	.st2{fill:url(#SVGID_3_);}
	.st3{fill:url(#SVGID_4_);}
	.st4{fill:url(#SVGID_5_);}
	.st5{fill:url(#SVGID_6_);}
	.st6{fill:url(#SVGID_7_);}
	.st7{fill:url(#SVGID_8_);}
	.st8{fill:url(#SVGID_9_);}
	.st9{fill:url(#SVGID_10_);}
	.st10{fill:#FFFFFF;}
	.st11{fill:#697F87;}
	.st12{fill:#697F86;}
</style>
<linearGradient id="SVGID_1_" gradientUnits="userSpaceOnUse" x1="45.67" y1="7.49" x2="45.67" y2="13.57" gradientTransform="matrix(1 0 0 -1 0 62)">
	<stop  offset="0" style="stop-color:#889EA9"/>
	<stop  offset="1" style="stop-color:#D7DADE"/>
</linearGradient>
<rect x="44.3" y="48.4" class="st0" width="2.7" height="6.1"/>
<linearGradient id="SVGID_2_" gradientUnits="userSpaceOnUse" x1="34.445" y1="6.09" x2="34.445" y2="14.76" gradientTransform="matrix(1 0 0 -1 0 62)">
	<stop  offset="0" style="stop-color:#889EA9"/>
	<stop  offset="1" style="stop-color:#D7DADE"/>
</linearGradient>
<polygon class="st1" points="31.5,55.9 36.2,55.9 37.4,47.2 34.8,47.2 "/>
<linearGradient id="SVGID_3_" gradientUnits="userSpaceOnUse" x1="57.395" y1="6.09" x2="57.395" y2="14.76" gradientTransform="matrix(1 0 0 -1 0 62)">
	<stop  offset="0" style="stop-color:#889EA9"/>
	<stop  offset="1" style="stop-color:#D7DADE"/>
</linearGradient>
<polygon class="st2" points="60.4,55.9 55.7,55.9 54.4,47.2 57,47.2 "/>
<linearGradient id="SVGID_4_" gradientUnits="userSpaceOnUse" x1="79.06" y1="32.065" x2="66.65" y2="32.065" gradientTransform="matrix(1 0 0 -1 0 62)">
	<stop  offset="0" style="stop-color:#889EA9"/>
	<stop  offset="1" style="stop-color:#D7DADE"/>
</linearGradient>
<path class="st3" d="M76.7,19.3H69c-1.3,0-2.4,1.1-2.4,2.4c0,0,0,0,0,0v16.4c0,1.3,1.1,2.4,2.4,2.4c0,0,0,0,0,0h7.6
	c1.3,0,2.4-1.1,2.4-2.4V21.7C79,20.4,78,19.4,76.7,19.3z M76.8,36.2c0,1-0.8,1.8-1.8,1.8c0,0,0,0,0,0h-5.8c-1,0-1.8-0.8-1.8-1.8
	c0,0,0,0,0,0V23.7c0-1,0.8-1.8,1.8-1.8c0,0,0,0,0,0H75c1,0,1.8,0.8,1.8,1.8L76.8,36.2z"/>
<linearGradient id="SVGID_5_" gradientUnits="userSpaceOnUse" x1="40.2" y1="53.05" x2="51.99" y2="53.05" gradientTransform="matrix(1 0 0 -1 0 62)">
	<stop  offset="0" style="stop-color:#889EA9"/>
	<stop  offset="0.12" style="stop-color:#91A5AF"/>
	<stop  offset="1" style="stop-color:#D7DADE"/>
</linearGradient>
<rect x="40.2" y="6.2" class="st4" width="11.8" height="5.5"/>
<linearGradient id="SVGID_6_" gradientUnits="userSpaceOnUse" x1="46.1" y1="13.57" x2="46.1" y2="50.88" gradientTransform="matrix(1 0 0 -1 0 62)">
	<stop  offset="0" style="stop-color:#889EA9"/>
	<stop  offset="1" style="stop-color:#D7DADE"/>
</linearGradient>
<path class="st5" d="M57.6,11.1h-23c-10.3,0.2-18.5,8.8-18.2,19.1c0.2,10,8.3,18,18.2,18.2h23c10.3-0.2,18.5-8.8,18.2-19.1
	C75.6,19.4,67.6,11.4,57.6,11.1z M46.1,41.6c-6.4,0-11.6-5.2-11.6-11.6c0-6.4,5.2-11.6,11.6-11.6s11.6,5.2,11.6,11.6c0,0,0,0,0,0
	C57.7,36.3,52.5,41.6,46.1,41.6C46.1,41.6,46.1,41.6,46.1,41.6z"/>
<linearGradient id="SVGID_7_" gradientUnits="userSpaceOnUse" x1="46.09" y1="53.05" x2="46.09" y2="57.91" gradientTransform="matrix(1 0 0 -1 0 62)">
	<stop  offset="0" style="stop-color:#889EA9"/>
	<stop  offset="1" style="stop-color:#D7DADE"/>
</linearGradient>
<path class="st6" d="M40.2,4.1H52c1.3,0,2.4,1.1,2.4,2.4l0,0C54.4,7.9,53.3,9,52,9H40.2c-1.3,0-2.4-1.1-2.4-2.4l0,0
	C37.8,5.2,38.9,4.1,40.2,4.1z"/>
<linearGradient id="SVGID_8_" gradientUnits="userSpaceOnUse" x1="46.09" y1="17.29" x2="46.09" y2="47.16" gradientTransform="matrix(1 0 0 -1 0 62)">
	<stop  offset="0" style="stop-color:#C0C9CD"/>
	<stop  offset="1" style="stop-color:#EFF1F2"/>
</linearGradient>
<path class="st7" d="M56,14.8H36.2c-8.8,0-16.1,6.7-16.1,14.9s7.2,14.9,16.1,14.9H56c8.8,0,16.1-6.7,16.1-14.9S64.8,14.8,56,14.8z
	 M46.1,41.2c-6.2,0-11.3-5.1-11.3-11.3c0-6.2,5.1-11.3,11.3-11.3s11.3,5.1,11.3,11.3l0,0C57.4,36.1,52.4,41.2,46.1,41.2
	C46.1,41.2,46.1,41.2,46.1,41.2z"/>
<linearGradient id="SVGID_9_" gradientUnits="userSpaceOnUse" x1="46.0841" y1="20.6437" x2="46.0841" y2="40.3545" gradientTransform="matrix(1 0 0 -1 0 62)">
	<stop  offset="0" style="stop-color:#889EA9"/>
	<stop  offset="1" style="stop-color:#D7DADE"/>
</linearGradient>
<path class="st8" d="M54.1,21.9L54.1,21.9L54.1,21.9C54.1,21.9,54.1,21.9,54.1,21.9c-0.3-0.4-0.9-0.4-1.2-0.2
	c-0.4,0.3-0.4,0.8-0.1,1.2c0,0,0.1,0.1,0.1,0.1c0,0,0,0,0,0.1l0,0c3.8,3.8,3.8,10,0,13.8c-3.8,3.8-10,3.8-13.8,0
	c-3.8-3.8-3.8-10,0-13.8l0,0l0,0c0.4-0.2,0.5-0.7,0.3-1.1c-0.2-0.4-0.7-0.5-1.1-0.3c-0.1,0.1-0.2,0.2-0.3,0.3l0,0l0,0
	c-4.4,4.5-4.4,11.7,0,16.1s11.7,4.4,16.1,0C58.6,33.6,58.6,26.4,54.1,21.9L54.1,21.9z"/>
<linearGradient id="SVGID_10_" gradientUnits="userSpaceOnUse" x1="46.13" y1="33.65" x2="46.13" y2="42.79" gradientTransform="matrix(1 0 0 -1 0 62)">
	<stop  offset="0" style="stop-color:#EE7B49"/>
	<stop  offset="1" style="stop-color:#F29970"/>
</linearGradient>
<path class="st9" d="M46.1,28.4c-1.3,0-2.3-1-2.3-2.3c0,0,0,0,0,0v-4.6c0-1.3,1-2.3,2.3-2.3s2.3,1,2.3,2.3v4.6
	C48.4,27.3,47.4,28.4,46.1,28.4L46.1,28.4z"/>
<path class="st10" d="M46.1,19.6c1,0,1.9,0.9,1.9,1.9v4.6c0.1,1-0.7,2-1.8,2c-1,0.1-2-0.7-2-1.8c0-0.1,0-0.2,0-0.3v-4.6
	C44.2,20.4,45.1,19.6,46.1,19.6 M46.1,18.8c-1.5,0-2.6,1.2-2.6,2.6v4.6c-0.1,1.5,1,2.7,2.5,2.8c1.5,0.1,2.7-1,2.8-2.5
	c0-0.1,0-0.2,0-0.3v-4.6C48.7,20,47.6,18.8,46.1,18.8z"/>
<path class="st11" d="M48.7,30.8h-2.5v1.7h2.3v0.9h-2.3v2.5h-1v-6.1h3.5L48.7,30.8z"/>
<path class="st11" d="M53.2,30.8h-2.5v1.7H53v0.9h-2.3v2.5h-1v-6.1h3.5L53.2,30.8z"/>
<path class="st12" d="M41.6,35.9c1.5,0,2.7-1.4,2.7-3.1s-1.2-3.1-2.7-3.1c-1.5,0-2.7,1.4-2.7,3.1S40.1,35.9,41.6,35.9z M41.6,30.6
	c1.1,0,1.9,1,1.9,2.2c0,1.2-0.9,2.2-1.9,2.2c-1.1,0-1.9-1-1.9-2.2C39.7,31.6,40.6,30.6,41.6,30.6z"/>
</svg>
