<svg id="图层_1" data-name="图层 1" xmlns="http://www.w3.org/2000/svg" xmlns:xlink="http://www.w3.org/1999/xlink" viewBox="0 0 90 90"><defs><style>.cls-1{fill:url(#未命名的渐变_53);}.cls-2{fill:url(#未命名的渐变_53-2);}.cls-3{fill:url(#未命名的渐变_53-3);}.cls-4{fill:url(#未命名的渐变_53-4);}.cls-5{fill:url(#未命名的渐变_53-5);}.cls-6{fill:url(#未命名的渐变_53-6);}.cls-7{fill:url(#未命名的渐变_53-7);}.cls-8{fill:url(#未命名的渐变_53-8);}.cls-9{fill:#d86027;}.cls-10{fill:#fff;}</style><linearGradient id="未命名的渐变_53" x1="45" y1="47.95" x2="45" y2="40.74" gradientUnits="userSpaceOnUse"><stop offset="0" stop-color="#ee7b49"/><stop offset="1" stop-color="#f29970"/></linearGradient><linearGradient id="未命名的渐变_53-2" y1="67.18" y2="63.87" xlink:href="#未命名的渐变_53"/><linearGradient id="未命名的渐变_53-3" y1="60.9" y2="27.79" xlink:href="#未命名的渐变_53"/><linearGradient id="未命名的渐变_53-4" y1="26.09" y2="16.18" xlink:href="#未命名的渐变_53"/><linearGradient id="未命名的渐变_53-5" x1="60.21" y1="31.38" x2="60.21" y2="23.28" xlink:href="#未命名的渐变_53"/><linearGradient id="未命名的渐变_53-6" x1="66.33" y1="43.62" x2="66.33" y2="40.31" xlink:href="#未命名的渐变_53"/><linearGradient id="未命名的渐变_53-7" x1="30.12" y1="31.05" x2="30.12" y2="23.28" xlink:href="#未命名的渐变_53"/><linearGradient id="未命名的渐变_53-8" x1="23.67" y1="43.62" x2="23.67" y2="40.31" xlink:href="#未命名的渐变_53"/></defs><circle class="cls-1" cx="45" cy="44.34" r="3.61"/><path class="cls-2" d="M62.85,63.87H27.15a1.66,1.66,0,1,0,0,3.31h35.7a1.66,1.66,0,1,0,0-3.31Z"/><path class="cls-3" d="M31.77,60.9h10.6v-4a2.6,2.6,0,0,1,2.6-2.6A2.66,2.66,0,0,1,47.63,57V60.9h10.6a1.56,1.56,0,0,0,1.65-1.66V42.71a15.14,15.14,0,0,0-16.2-14.88c-7.94.33-13.56,7.61-13.56,15.54V59.24A1.56,1.56,0,0,0,31.77,60.9ZM45,37.87a6.47,6.47,0,1,1-6.47,6.47A6.48,6.48,0,0,1,45,37.87Z"/><path class="cls-4" d="M45,26.09a1.56,1.56,0,0,0,1.65-1.65V17.83a1.65,1.65,0,0,0-3.3,0v6.94A1.51,1.51,0,0,0,45,26.09Z"/><path class="cls-5" d="M57.56,31.38a2,2,0,0,0,1.33-.33l5-5a1.64,1.64,0,0,0-2.32-2.31l-5,4.63a1.6,1.6,0,0,0,0,2.31C56.9,31.05,57.23,31.38,57.56,31.38Z"/><path class="cls-6" d="M69.8,40.31H62.85a1.66,1.66,0,0,0,0,3.31H69.8a1.66,1.66,0,0,0,0-3.31Z"/><path class="cls-7" d="M31.11,30.72c.33.33.66.33,1.33.33a2,2,0,0,0,1.32-.33,1.59,1.59,0,0,0,0-2.31l-5-4.63a1.64,1.64,0,0,0-2.32,2.31Z"/><path class="cls-8" d="M28.8,42a1.56,1.56,0,0,0-1.65-1.65H20.2a1.66,1.66,0,0,0,0,3.31h7A1.77,1.77,0,0,0,28.8,42Z"/><path class="cls-9" d="M62.85,63.87H27.15a1.66,1.66,0,1,0,0,3.31h35.7a1.66,1.66,0,1,0,0-3.31Z"/><path class="cls-10" d="M45,54.37h0A2.66,2.66,0,0,1,47.63,57V61a0,0,0,0,1,0,0H42.37a0,0,0,0,1,0,0V57A2.61,2.61,0,0,1,45,54.37Z"/></svg>