<?xml version="1.0" encoding="utf-8"?>
<!-- Generator: Adobe Illustrator 25.3.1, SVG Export Plug-In . SVG Version: 6.00 Build 0)  -->
<svg version="1.1" id="图层_1" xmlns="http://www.w3.org/2000/svg" xmlns:xlink="http://www.w3.org/1999/xlink" x="0px" y="0px"
	 viewBox="0 0 95 60" style="enable-background:new 0 0 95 60;" xml:space="preserve">
<style type="text/css">
	.st0{fill:url(#SVGID_1_);}
	.st1{fill:url(#SVGID_2_);}
	.st2{opacity:0.16;fill:url(#SVGID_3_);enable-background:new    ;}
	.st3{opacity:0.16;fill:url(#SVGID_4_);enable-background:new    ;}
	.st4{fill:url(#SVGID_5_);}
	.st5{fill:#FFFFFF;}
	.st6{fill:url(#SVGID_6_);}
	.st7{fill:url(#SVGID_7_);}
	.st8{fill:#087E66;}
	.st9{fill:url(#SVGID_8_);}
	.st10{fill:#D86027;}
	.st11{fill:url(#SVGID_9_);}
	.st12{fill:#F5E44B;}
</style>
<linearGradient id="SVGID_1_" gradientUnits="userSpaceOnUse" x1="35.17" y1="6.0695" x2="35.17" y2="57.93" gradientTransform="matrix(1 0 0 -1 0 62)">
	<stop  offset="0" style="stop-color:#F49F4A"/>
	<stop  offset="1" style="stop-color:#F7C772"/>
</linearGradient>
<path class="st0" d="M48.8,53.5L48.7,6.5V5.3c0-0.7-0.6-1.2-1.2-1.2H29.3c-4.3,0-7.7,3.5-7.7,7.7v36.4c0,4.3,3.5,7.7,7.7,7.8h18.2
	c0.3,0,0.6-0.1,0.9-0.4c0.2-0.2,0.4-0.5,0.4-0.9L48.8,53.5z M29.7,51.9c-2.7,0-4.9-2.2-4.9-4.9V13c0-2.7,2.2-4.9,4.9-4.9h15.8
	l0.1,43.7L29.7,51.9z"/>
<linearGradient id="SVGID_2_" gradientUnits="userSpaceOnUse" x1="59.815" y1="6.07" x2="59.815" y2="57.9305" gradientTransform="matrix(1 0 0 -1 0 62)">
	<stop  offset="0" style="stop-color:#F49F4A"/>
	<stop  offset="1" style="stop-color:#F7C772"/>
</linearGradient>
<path class="st1" d="M65.7,4.1H47.4c-0.3,0-0.6,0.1-0.9,0.4c-0.2,0.2-0.3,0.5-0.4,0.9l0.1,48.2v1.2c0,0.7,0.6,1.2,1.2,1.2h18.2
	c4.3,0,7.7-3.5,7.7-7.7c0,0,0,0,0,0V11.8C73.4,7.6,70,4.1,65.7,4.1z M70.2,46.8c0,2.7-2.2,4.9-4.9,4.9H49.6L49.5,8.3h15.8
	c2.7,0,4.9,2.2,4.9,4.8c0,0,0,0,0,0L70.2,46.8L70.2,46.8z"/>
<linearGradient id="SVGID_3_" gradientUnits="userSpaceOnUse" x1="35.16" y1="10.08" x2="35.16" y2="53.85" gradientTransform="matrix(1 0 0 -1 0 62)">
	<stop  offset="0" style="stop-color:#F49F4A"/>
	<stop  offset="1" style="stop-color:#F7C772"/>
</linearGradient>
<path class="st2" d="M45.5,8.1H29.7c-2.7,0-4.9,2.2-4.9,4.9v34c0,2.7,2.2,4.9,4.9,4.9h15.8L45.5,8.1z"/>
<linearGradient id="SVGID_4_" gradientUnits="userSpaceOnUse" x1="59.74" y1="10.12" x2="59.74" y2="53.89" gradientTransform="matrix(1 0 0 -1 0 62)">
	<stop  offset="0" style="stop-color:#F49F4A"/>
	<stop  offset="1" style="stop-color:#F7C772"/>
</linearGradient>
<path class="st3" d="M49.4,51.9h15.9c2.7,0,4.9-2.2,4.9-4.9V13c0-2.7-2.2-4.9-4.9-4.9H49.5L49.4,51.9z"/>
<linearGradient id="SVGID_5_" gradientUnits="userSpaceOnUse" x1="34.9" y1="38.35" x2="34.9" y2="45.49" gradientTransform="matrix(1 0 0 -1 0 62)">
	<stop  offset="0" style="stop-color:#F49F4A"/>
	<stop  offset="1" style="stop-color:#F7C772"/>
</linearGradient>
<path class="st4" d="M34.9,23.6c-2,0-3.6-1.6-3.6-3.6s1.6-3.6,3.6-3.6s3.6,1.6,3.6,3.6l0,0C38.5,22,36.9,23.6,34.9,23.6z"/>
<path class="st5" d="M34.9,17.5c1.4,0,2.6,1.2,2.6,2.6c0,1.4-1.2,2.6-2.6,2.6s-2.6-1.2-2.6-2.6l0,0C32.3,18.7,33.5,17.5,34.9,17.5
	 M34.9,15.5c-2.5,0-4.6,2-4.6,4.6s2,4.6,4.6,4.6s4.6-2,4.6-4.6l0,0C39.5,17.6,37.4,15.5,34.9,15.5z"/>
<linearGradient id="SVGID_6_" gradientUnits="userSpaceOnUse" x1="34.8883" y1="16.7" x2="34.8883" y2="38" gradientTransform="matrix(1 0 0 -1 0 62)">
	<stop  offset="0" style="stop-color:#F49F4A"/>
	<stop  offset="1" style="stop-color:#F7C772"/>
</linearGradient>
<path class="st6" d="M34.1,45.3c-1,0-1.8-0.8-1.9-1.8L31.6,35l-1-0.4c-0.8-0.3-1.3-1.1-1.2-2l0.5-5.2c0.2-1.9,1.8-3.4,3.8-3.4h2.4
	c1.9,0,3.6,1.5,3.8,3.4l0.6,5.2c0.1,0.8-0.4,1.6-1.1,2L38.2,35l-0.7,8.5c-0.1,1-0.9,1.8-1.9,1.8L34.1,45.3z"/>
<path class="st5" d="M36.1,25c1.4,0,2.6,1.1,2.8,2.5l0.6,5.2c0,0.4-0.2,0.8-0.6,1l-1.3,0.5c-0.2,0.1-0.3,0.2-0.3,0.4l-0.7,8.8
	c-0.1,0.5-0.5,0.8-0.9,0.9h-1.5c-0.5,0-0.9-0.4-1-0.9l-0.6-8.8c0-0.2-0.1-0.3-0.3-0.4L31,33.7c-0.4-0.1-0.6-0.5-0.6-1l0.5-5.2
	c0.1-1.4,1.3-2.5,2.7-2.5H36.1 M36.1,23h-2.4c-2.4,0-4.5,1.9-4.7,4.3l-0.5,5.3c-0.1,1.3,0.6,2.5,1.9,3l0.4,0.1l0.5,7.9v0.1
	c0.2,1.5,1.4,2.6,2.9,2.7h1.5c1.5,0,2.8-1.2,2.9-2.7l0.6-7.9l0.4-0.2h0.1h0.1c1.1-0.5,1.8-1.7,1.7-2.9v-0.1l-0.6-5.2
	C40.6,24.9,38.6,23,36.1,23z"/>
<linearGradient id="SVGID_7_" gradientUnits="userSpaceOnUse" x1="55.592" y1="807.92" x2="64.042" y2="807.92" gradientTransform="matrix(1 0 0 1 0 -785.1)">
	<stop  offset="0" style="stop-color:#F49F4A"/>
	<stop  offset="1" style="stop-color:#F7C772"/>
</linearGradient>
<path class="st7" d="M57.1,26.6c-0.7,0-1.3-0.5-1.5-1.2c-0.1-0.4,0-0.8,0.2-1.2l2.7-4.4c0.3-0.5,0.8-0.7,1.3-0.7
	c0.5,0,1.1,0.3,1.3,0.8l2.7,4.4c0.1,0.2,0.2,0.5,0.2,0.8c0,0.9-0.7,1.5-1.5,1.5c0,0,0,0,0,0L57.1,26.6L57.1,26.6z"/>
<path class="st5" d="M59.8,20.1c0.2,0,0.4,0.1,0.5,0.3l2.7,4.4c0,0.1,0,0.2,0,0.3c0,0.3-0.2,0.5-0.5,0.5l0,0h-5.3
	c-0.1,0-0.2,0-0.3-0.1c-0.3-0.2-0.3-0.5-0.2-0.8l2.7-4.4C59.4,20.2,59.6,20.1,59.8,20.1 M59.8,18.1c-0.9,0-1.7,0.4-2.1,1.1l0,0l0,0
	L55,23.7c-0.7,1.2-0.3,2.8,0.9,3.5c0.4,0.2,0.8,0.4,1.3,0.4h5.3c1.4,0,2.5-1.2,2.5-2.6c0,0,0,0,0,0c0-0.5-0.1-0.9-0.4-1.3L62,19.3
	C61.5,18.5,60.7,18.1,59.8,18.1L59.8,18.1z"/>
<path class="st8" d="M59.8,41.2c-0.5,0-1-0.3-1.3-0.8l-2.7-4.4c-0.2-0.3-0.2-0.5-0.2-0.8c0-0.8,0.7-1.5,1.5-1.5h5.3
	c0.3,0,0.6,0.1,0.8,0.2c0.7,0.5,0.9,1.4,0.5,2.1l-2.6,4.4C60.9,40.9,60.4,41.2,59.8,41.2z"/>
<path class="st5" d="M57.1,34.7h5.3c0.1,0,0.2,0,0.3,0.1c0.3,0.2,0.3,0.5,0.2,0.8l-2.6,4.4c-0.1,0.2-0.3,0.3-0.5,0.3
	c-0.2,0-0.4-0.1-0.5-0.3l-2.7-4.4c-0.1-0.1-0.1-0.2-0.1-0.3C56.6,35,56.8,34.7,57.1,34.7 M57.1,32.7c-1.4,0-2.5,1.1-2.5,2.5
	c0,0.5,0.1,1,0.4,1.4l2.7,4.4c0.5,0.8,1.3,1.2,2.2,1.2c0.9,0,1.7-0.4,2.2-1.2l0,0l0,0l2.6-4.4c0.4-0.6,0.5-1.3,0.4-2
	c-0.2-0.7-0.6-1.2-1.1-1.6c-0.4-0.3-0.9-0.4-1.3-0.4C62.5,32.7,57.1,32.7,57.1,32.7z"/>
<circle class="st5" cx="47.5" cy="30" r="11.3"/>
<linearGradient id="SVGID_8_" gradientUnits="userSpaceOnUse" x1="47.5" y1="18.7" x2="47.5" y2="45.26" gradientTransform="matrix(1 0 0 -1 0 62)">
	<stop  offset="0" style="stop-color:#F49F4A"/>
	<stop  offset="1" style="stop-color:#F7C772"/>
</linearGradient>
<path class="st9" d="M47.5,18.7c6.2,0,11.3,5.1,11.3,11.3c0,6.2-5.1,11.3-11.3,11.3S36.2,36.2,36.2,30c0,0,0,0,0,0
	C36.2,23.8,41.3,18.7,47.5,18.7 M47.5,16.7c-7.3,0-13.3,5.9-13.3,13.3s5.9,13.3,13.3,13.3S60.8,37.4,60.8,30c0,0,0,0,0,0
	C60.8,22.7,54.8,16.7,47.5,16.7z"/>
<path class="st10" d="M53.8,34.9H41.2c-0.3,0-0.6,0.2-0.6,0.5c0,0,0,0,0,0l0,0c0,0.3,0.3,0.5,0.6,0.5h12.6c0.3,0,0.5-0.2,0.6-0.5
	l0,0C54.3,35.2,54.1,34.9,53.8,34.9C53.8,34.9,53.8,34.9,53.8,34.9z M47.5,24.8c0.3,0,0.6-0.2,0.6-0.5c0,0,0,0,0,0v-1.3
	c0-0.3-0.3-0.6-0.6-0.6c-0.3,0-0.6,0.3-0.6,0.6l0,0v1.3C46.9,24.5,47.2,24.8,47.5,24.8L47.5,24.8z M42.2,26.4
	c0.2,0.2,0.6,0.3,0.8,0.1s0.3-0.6,0.1-0.8c0,0-0.1-0.1-0.1-0.1l-0.9-0.9c-0.2-0.2-0.6-0.2-0.8,0c-0.2,0.2-0.2,0.6,0,0.8L42.2,26.4z
	 M52.8,26.4l0.9-0.9c0.2-0.2,0.2-0.6-0.1-0.8c-0.2-0.2-0.5-0.2-0.7,0L52,25.6c-0.2,0.2-0.2,0.6,0,0.8C52.3,26.6,52.6,26.6,52.8,26.4
	z"/>
<linearGradient id="SVGID_9_" gradientUnits="userSpaceOnUse" x1="47.5" y1="26.02" x2="47.5" y2="36.52" gradientTransform="matrix(1 0 0 -1 0 62)">
	<stop  offset="0" style="stop-color:#EE7B49"/>
	<stop  offset="1" style="stop-color:#F29970"/>
</linearGradient>
<path class="st11" d="M47.5,25.5c-2.9,0-5.3,2.4-5.3,5.3V36h10.7v-5.2C52.8,27.9,50.4,25.5,47.5,25.5z"/>
<path class="st12" d="M46,35.1h-1.2v-3.2c0-0.3,0.3-0.6,0.6-0.6c0.3,0,0.6,0.2,0.6,0.5c0,0,0,0,0,0L46,35.1z"/>
</svg>
