<svg id="图层_1" data-name="图层 1" xmlns="http://www.w3.org/2000/svg" xmlns:xlink="http://www.w3.org/1999/xlink" viewBox="0 0 90 90"><defs><style>.cls-1{fill:url(#未命名的渐变_7);}.cls-2{fill:#cde8e5;}.cls-3{fill:url(#未命名的渐变_53);}.cls-4{fill:#fff;}.cls-5{fill:#087e66;stroke:#fff;stroke-miterlimit:10;}.cls-6{fill:url(#未命名的渐变_7-2);}.cls-7{fill:url(#未命名的渐变_7-3);}.cls-8{fill:url(#未命名的渐变_7-4);}.cls-9{fill:url(#未命名的渐变_7-5);}.cls-10{fill:url(#未命名的渐变_7-6);}.cls-11{fill:url(#未命名的渐变_7-7);}.cls-12{fill:url(#未命名的渐变_7-8);}</style><linearGradient id="未命名的渐变_7" x1="45" y1="55.48" x2="45" y2="26.22" gradientUnits="userSpaceOnUse"><stop offset="0" stop-color="#2bb499"/><stop offset="1" stop-color="#57bdab"/></linearGradient><linearGradient id="未命名的渐变_53" x1="56.71" y1="34.72" x2="62.13" y2="34.72" gradientUnits="userSpaceOnUse"><stop offset="0" stop-color="#ee7b49"/><stop offset="1" stop-color="#f29970"/></linearGradient><linearGradient id="未命名的渐变_7-2" x1="32.16" y1="53.72" x2="57.84" y2="53.72" xlink:href="#未命名的渐变_7"/><linearGradient id="未命名的渐变_7-3" x1="32.6" y1="63.78" x2="32.6" y2="57.17" xlink:href="#未命名的渐变_7"/><linearGradient id="未命名的渐变_7-4" x1="37.74" y1="63.78" x2="37.74" y2="57.17" xlink:href="#未命名的渐变_7"/><linearGradient id="未命名的渐变_7-5" x1="42.87" y1="63.78" x2="42.87" y2="57.17" xlink:href="#未命名的渐变_7"/><linearGradient id="未命名的渐变_7-6" x1="48.01" y1="63.78" x2="48.01" y2="57.17" xlink:href="#未命名的渐变_7"/><linearGradient id="未命名的渐变_7-7" x1="53.15" y1="63.78" x2="53.15" y2="57.17" xlink:href="#未命名的渐变_7"/><linearGradient id="未命名的渐变_7-8" x1="58.28" y1="63.78" x2="58.28" y2="57.17" xlink:href="#未命名的渐变_7"/></defs><path class="cls-1" d="M70.07,27.67a1.44,1.44,0,0,0-1.45-1.45H21.82a1.45,1.45,0,0,0-1.45,1.45S18.2,30.4,18.2,40.85C18.2,51.52,20.37,54,20.37,54a1.45,1.45,0,0,0,1.45,1.45H31V50.69H59.51v4.79h9.11A1.44,1.44,0,0,0,70.07,54s1.73-1.66,1.73-13.18C71.8,32.12,70.07,27.67,70.07,27.67Z"/><path class="cls-2" d="M67.07,30.33a1.27,1.27,0,0,0-1.27-1.28H24.61a1.27,1.27,0,0,0-1.27,1.28s-1.92,1.39-1.92,10.58c0,9.39,1.92,10.59,1.92,10.59a1.27,1.27,0,0,0,1.27,1.28h3.83V48.94H62v3.84H65.8a1.27,1.27,0,0,0,1.27-1.28s1.52-.44,1.52-10.59C68.59,33.23,67.07,30.33,67.07,30.33Z"/><path class="cls-3" d="M59.42,37.43a2.71,2.71,0,1,1,2.71-2.71A2.72,2.72,0,0,1,59.42,37.43Z"/><path class="cls-4" d="M59.42,32.39a2.33,2.33,0,1,1-2.33,2.33,2.33,2.33,0,0,1,2.33-2.33m0-.75a3.08,3.08,0,1,0,3.08,3.08,3.08,3.08,0,0,0-3.08-3.08Z"/><rect class="cls-5" x="27.53" y="32.16" width="25.88" height="5.11" rx="2.34"/><path class="cls-6" d="M32.16,52H57.84a0,0,0,0,1,0,0v1.65a1.78,1.78,0,0,1-1.78,1.78H33.89a1.73,1.73,0,0,1-1.73-1.73V52A0,0,0,0,1,32.16,52Z"/><rect class="cls-7" x="31.46" y="57.17" width="2.28" height="6.61" rx="1.14"/><rect class="cls-8" x="36.6" y="57.17" width="2.28" height="6.61" rx="1.14"/><rect class="cls-9" x="41.74" y="57.17" width="2.28" height="6.61" rx="1.14"/><rect class="cls-10" x="46.87" y="57.17" width="2.28" height="6.61" rx="1.14"/><rect class="cls-11" x="52.01" y="57.17" width="2.28" height="6.61" rx="1.14"/><rect class="cls-12" x="57.14" y="57.17" width="2.28" height="6.61" rx="1.14"/></svg>