<svg id="图层_1" data-name="图层 1" xmlns="http://www.w3.org/2000/svg" xmlns:xlink="http://www.w3.org/1999/xlink" viewBox="0 0 90 90"><defs><style>.cls-1{fill:url(#未命名的渐变_7);}.cls-2{fill:url(#未命名的渐变_7-2);}.cls-3{fill:#cde8e5;}.cls-4{fill:url(#未命名的渐变_7-3);}.cls-5{fill:#fff;}.cls-6{fill:url(#未命名的渐变_7-4);}.cls-7{fill:url(#未命名的渐变_53);}.cls-8{fill:#087e66;}</style><linearGradient id="未命名的渐变_7" x1="34.42" y1="67.24" x2="34.42" y2="22.76" gradientUnits="userSpaceOnUse"><stop offset="0" stop-color="#2bb499"/><stop offset="1" stop-color="#57bdab"/></linearGradient><linearGradient id="未命名的渐变_7-2" x1="55.56" y1="67.24" x2="55.56" y2="22.76" xlink:href="#未命名的渐变_7"/><linearGradient id="未命名的渐变_7-3" x1="30.99" y1="36.49" x2="37.4" y2="36.49" xlink:href="#未命名的渐变_7"/><linearGradient id="未命名的渐变_7-4" x1="29.31" y1="48.98" x2="39.08" y2="48.98" xlink:href="#未命名的渐变_7"/><linearGradient id="未命名的渐变_53" x1="51.8" y1="56.41" x2="59.33" y2="56.41" gradientTransform="matrix(1, 0, 0, -1, 0, 95.25)" gradientUnits="userSpaceOnUse"><stop offset="0" stop-color="#ee7b49"/><stop offset="1" stop-color="#f29970"/></linearGradient></defs><path class="cls-1" d="M46.09,65.12,46,24.88V23.82A1.07,1.07,0,0,0,45,22.76H29.38a6.63,6.63,0,0,0-6.62,6.62V60.59a6.65,6.65,0,0,0,6.62,6.65H45a1,1,0,0,0,.74-.32,1.06,1.06,0,0,0,.32-.74ZM29.72,63.77a4.23,4.23,0,0,1-4.2-4.23V30.46a4.2,4.2,0,0,1,4.2-4.2H43.27l0,37.51Z"/><path class="cls-2" d="M60.62,22.76H45a1,1,0,0,0-.74.32,1.15,1.15,0,0,0-.32.74L44,65.12v1.06A1.06,1.06,0,0,0,45,67.24H60.62a6.63,6.63,0,0,0,6.62-6.65V29.41A6.65,6.65,0,0,0,60.62,22.76Zm3.8,36.69a4.19,4.19,0,0,1-4.17,4.2H46.78l-.07-37.3H60.23a4.17,4.17,0,0,1,4.17,4.17V59.45Z"/><path class="cls-3" d="M43.24,26.26H29.72a4.2,4.2,0,0,0-4.2,4.2V59.55a4.22,4.22,0,0,0,4.2,4.22H43.31Z"/><path class="cls-3" d="M46.6,63.77H60.2a4.21,4.21,0,0,0,4.19-4.22V30.46a4.19,4.19,0,0,0-4.19-4.2H46.67Z"/><path class="cls-4" d="M34.19,39.7a3.21,3.21,0,1,1,3.21-3.21,3.24,3.24,0,0,1-3.21,3.21Z"/><path class="cls-5" d="M34.2,34.29A2.21,2.21,0,1,1,32,36.49a2.21,2.21,0,0,1,2.21-2.2m0-2a4.21,4.21,0,1,0,4.2,4.2,4.21,4.21,0,0,0-4.2-4.2Z"/><path class="cls-6" d="M33.51,58.26a1.84,1.84,0,0,1-1.8-1.64l-.5-7.23-.76-.3a1.77,1.77,0,0,1-1.13-1.84l.46-4.51a3.39,3.39,0,0,1,3.35-3h2.09a3.38,3.38,0,0,1,3.36,3l.49,4.46A1.88,1.88,0,0,1,38,49.07l-.86.33-.56,7.2a1.82,1.82,0,0,1-1.8,1.66Z"/><path class="cls-5" d="M35.22,40.7a2.39,2.39,0,0,1,2.36,2.15l.5,4.47a.86.86,0,0,1-.5.84l-1.15.44a.36.36,0,0,0-.25.34l-.59,7.58a.8.8,0,0,1-.8.74H33.51a.83.83,0,0,1-.81-.74l-.52-7.58a.41.41,0,0,0-.25-.34l-1.12-.44a.78.78,0,0,1-.5-.81l.47-4.5a2.39,2.39,0,0,1,2.36-2.15h2.08m0-2H33.14a4.39,4.39,0,0,0-4.35,3.94l-.47,4.51A2.78,2.78,0,0,0,30.1,50l.15.06.46,6.57v.07a2.83,2.83,0,0,0,2.75,2.53h1.32a2.82,2.82,0,0,0,2.8-2.58l.51-6.57.19-.08.07,0,.07,0a2.89,2.89,0,0,0,1.65-2.8V47.1l-.5-4.47a4.37,4.37,0,0,0-4.35-3.93Z"/><path class="cls-7" d="M53.26,42.2A1.49,1.49,0,0,1,52.5,42,1.47,1.47,0,0,1,52,40l2.27-3.76a1.51,1.51,0,0,1,1.27-.71,1.47,1.47,0,0,1,1.26.71L59.11,40a1.43,1.43,0,0,1,.22.75,1.47,1.47,0,0,1-1.46,1.49H53.26Z"/><path class="cls-5" d="M55.56,36.49a.47.47,0,0,1,.4.22l2.3,3.77a.52.52,0,0,1,.07.25.48.48,0,0,1-.47.47h-4.6a.67.67,0,0,1-.24-.07.47.47,0,0,1-.15-.65l2.28-3.77a.5.5,0,0,1,.41-.22m0-2a2.5,2.5,0,0,0-2.08,1.12l0,0,0,0-2.28,3.77a2.43,2.43,0,0,0-.3,1.85A2.5,2.5,0,0,0,52,42.83a2.53,2.53,0,0,0,1.28.37h4.61A2.48,2.48,0,0,0,60,39.42l-2.29-3.75a2.45,2.45,0,0,0-2.11-1.18Z"/><path class="cls-8" d="M55.58,54.75A1.45,1.45,0,0,1,54.32,54L52,50.28a1.36,1.36,0,0,1-.22-.8,1.46,1.46,0,0,1,1.46-1.43h4.59a1.43,1.43,0,0,1,.77.22,1.47,1.47,0,0,1,.65.91,1.44,1.44,0,0,1-.18,1.11L56.85,54A1.51,1.51,0,0,1,55.58,54.75Z"/><path class="cls-5" d="M53.27,49.05h4.59a.42.42,0,0,1,.24.07.46.46,0,0,1,.15.64L56,53.53a.49.49,0,0,1-.41.22.45.45,0,0,1-.4-.22l-2.3-3.77a.41.41,0,0,1-.07-.26.46.46,0,0,1,.46-.45m0-2a2.47,2.47,0,0,0-2.46,2.42,2.4,2.4,0,0,0,.39,1.37l2.27,3.73a2.42,2.42,0,0,0,2.11,1.18,2.5,2.5,0,0,0,2.08-1.12l0,0,0,0L60,50.79a2.46,2.46,0,0,0-2.11-3.74H53.27Z"/></svg>