<?xml version="1.0" encoding="utf-8"?>
<!-- Generator: Adobe Illustrator 25.3.1, SVG Export Plug-In . SVG Version: 6.00 Build 0)  -->
<svg version="1.1" id="图层_1" xmlns="http://www.w3.org/2000/svg" xmlns:xlink="http://www.w3.org/1999/xlink" x="0px" y="0px"
	 viewBox="0 0 95 60" style="enable-background:new 0 0 95 60;" xml:space="preserve">
<style type="text/css">
	.st0{fill:url(#SVGID_1_);}
	.st1{fill:url(#SVGID_2_);}
	.st2{fill:none;stroke:#FFFFFF;stroke-width:3;stroke-miterlimit:10;}
	.st3{fill:url(#SVGID_3_);}
	.st4{fill:url(#SVGID_4_);}
</style>
<g>
	<g id="图层_1_1_">
		
			<linearGradient id="SVGID_1_" gradientUnits="userSpaceOnUse" x1="47.52" y1="2" x2="47.52" y2="62" gradientTransform="matrix(1 0 0 -1 0 62)">
			<stop  offset="0" style="stop-color:#F49F4A"/>
			<stop  offset="1" style="stop-color:#F7C772"/>
		</linearGradient>
		<path class="st0" d="M34.2,0h26.7c9.2,0,16.6,7.4,16.6,16.6v26.7c0,9.2-7.4,16.6-16.6,16.6H34.2c-9.2,0-16.6-7.4-16.6-16.6V16.6
			C17.5,7.4,25,0,34.2,0z"/>
		
			<linearGradient id="SVGID_2_" gradientUnits="userSpaceOnUse" x1="57.8101" y1="2" x2="57.8101" y2="45.4601" gradientTransform="matrix(1 0 0 -1 0 62)">
			<stop  offset="0.29" style="stop-color:#F7B36B"/>
			<stop  offset="1" style="stop-color:#F8CA70"/>
		</linearGradient>
		<path class="st1" d="M63.2,16.5c-13.9,0-25.1,11.2-25.1,25.1c0,7,2.9,13.6,8,18.3h14.8c9.2,0,16.6-7.4,16.6-16.6V21
			C73.3,18.1,68.3,16.5,63.2,16.5z"/>
		
			<image style="overflow:visible;opacity:0.2;enable-background:new    ;" width="189" height="190" xlink:href="1B829D9079AF4486.png"  transform="matrix(0.24 0 0 0.24 24.8 7.23)">
		</image>
		<path class="st2" d="M47.5,11.9c-1.5,0-3,0.6-4,1.7L30.8,26.8c-1.3,1.1-1.8,2.9-1.2,4.5c0.6,1.2,1.8,2.1,3.2,2.1h0.8v8.9
			c-0.1,3.1,2.3,5.7,5.4,5.8c0,0,0,0,0,0h17.1c3.1-0.1,5.5-2.7,5.4-5.8v-8.9h0.8c1.4,0,2.6-0.8,3.2-2.1c0.6-1.6,0.1-3.4-1.2-4.5
			L51.5,13.6C50.4,12.5,49,11.9,47.5,11.9z"/>
		
			<linearGradient id="SVGID_3_" gradientUnits="userSpaceOnUse" x1="47.7903" y1="31.42" x2="47.7903" y2="38.69" gradientTransform="matrix(1 0 0 -1 0 62)">
			<stop  offset="0" style="stop-color:#FFFFFF"/>
			<stop  offset="1" style="stop-color:#FFFFFF;stop-opacity:0.8"/>
		</linearGradient>
		<path class="st3" d="M47.8,23.3c-2,0-3.6,1.6-3.6,3.6c0,2,1.6,3.6,3.6,3.6c2,0,3.6-1.6,3.6-3.6C51.5,25,49.9,23.3,47.8,23.3
			C47.8,23.3,47.8,23.3,47.8,23.3z"/>
		
			<linearGradient id="SVGID_4_" gradientUnits="userSpaceOnUse" x1="47.5229" y1="13.657" x2="47.5229" y2="49.163" gradientTransform="matrix(1 0 0 -1 0 62)">
			<stop  offset="0" style="stop-color:#FFFFFF"/>
			<stop  offset="1" style="stop-color:#FFFFFF;stop-opacity:0.8"/>
		</linearGradient>
		<path class="st4" d="M64.3,28.6L50.3,14c-1.5-1.6-4-1.6-5.5-0.1c0,0-0.1,0.1-0.1,0.1L30.8,28.6c-1,1.1-1.1,2.1-0.9,2.6
			c0.3,0.6,0.9,1,1.6,1h0.8l2.1,0v11.8c-0.2,2.2,1.5,4.1,3.7,4.3c0,0,0,0,0,0h18.8c2.2-0.1,3.9-2,3.8-4.2c0,0,0,0,0,0V32.2h2.8
			c0.7,0,1.4-0.4,1.7-1C65.4,30.7,65.3,29.7,64.3,28.6z M40.9,37.2c-0.9,1.2-1.3,2.7-1.4,4.2l0,0c0,0.4-0.3,0.7-0.7,0.7
			c-0.4,0-0.7-0.3-0.7-0.7l0,0c0.1-4.2,2.9-7.8,6.9-9c-2.7-1.6-3.6-5-2-7.7s5-3.6,7.7-2c1.7,1,2.8,2.9,2.8,4.9l0,0
			c0,2-1.1,3.8-2.8,4.9c1,0.3,1.9,0.7,2.7,1.2c0.2,0.1,0.3,0.2,0.4,0.4c0.1,0.2,0.1,0.5-0.1,0.7c-0.2,0.2-0.5,0.4-0.8,0.3
			c-0.2,0-0.3-0.1-0.4-0.2c-3.8-2.6-8.9-1.6-11.5,2.2C41,37.1,40.9,37.1,40.9,37.2z M56.4,39.8h-1.6v1.6c-0.1,0.5-0.5,0.8-0.9,0.8
			c-0.4,0-0.7-0.4-0.8-0.8v-1.6h-1.6c-0.5,0-0.9-0.4-0.9-0.8c0-0.5,0.4-0.9,0.9-0.9h1.6v-1.6c-0.1-0.5,0.3-0.9,0.8-0.9
			c0.5-0.1,0.9,0.3,0.9,0.8c0,0.1,0,0.1,0,0.2v1.6h1.6c0.5,0,0.8,0.4,0.8,0.9C57.3,39.4,56.9,39.8,56.4,39.8z"/>
	</g>
</g>
</svg>
