<svg id="图层_1" data-name="图层 1" xmlns="http://www.w3.org/2000/svg" xmlns:xlink="http://www.w3.org/1999/xlink" viewBox="0 0 95 60"><defs><style>.cls-1{fill:url(#未命名的渐变_363);}.cls-2{fill:url(#未命名的渐变_235);}.cls-3{fill:url(#未命名的渐变_230);}.cls-4{fill:url(#未命名的渐变_363-2);}.cls-5{fill:#dd9025;}.cls-6{fill:#f5e44b;}</style><linearGradient id="未命名的渐变_363" x1="37.94" y1="32.49" x2="62.79" y2="32.49" gradientUnits="userSpaceOnUse"><stop offset="0" stop-color="#fff"/><stop offset="1" stop-color="#fff" stop-opacity="0.8"/></linearGradient><linearGradient id="未命名的渐变_235" x1="47.81" y1="60.01" x2="47.81" gradientUnits="userSpaceOnUse"><stop offset="0.29" stop-color="#f7b36b"/><stop offset="1" stop-color="#f8ca70"/></linearGradient><linearGradient id="未命名的渐变_230" x1="50.37" y1="36.31" x2="50.37" y2="5.92" gradientUnits="userSpaceOnUse"><stop offset="0" stop-color="#f49f4a"/><stop offset="1" stop-color="#f7c772"/></linearGradient><linearGradient id="未命名的渐变_363-2" x1="45.59" y1="21.02" x2="76.17" y2="21.02" xlink:href="#未命名的渐变_363"/></defs><path class="cls-1" d="M50.37,47.59a15.39,15.39,0,0,1,0-30.2,15.39,15.39,0,0,1,0,30.2Z"/><path class="cls-2" d="M47.5,49.69a17.2,17.2,0,1,1,17.2-17.2A17.12,17.12,0,0,1,47.5,49.69Zm0-30.58A13.38,13.38,0,1,0,60.88,32.49,13.3,13.3,0,0,0,47.5,19.11Zm0-7.64a1.81,1.81,0,0,1-1.91-1.91V1.91a1.91,1.91,0,1,1,3.82,0V9.56A1.81,1.81,0,0,1,47.5,11.47Zm0,40.9a1.8,1.8,0,0,1,1.91,1.91V58.1a1.91,1.91,0,1,1-3.82,0V54.28A1.8,1.8,0,0,1,47.49,52.37Zm-10.3-2.59a1.83,1.83,0,0,1,0,2.67l-2.67,2.68a1.9,1.9,0,1,1-2.68-2.68l2.68-2.67A1.83,1.83,0,0,1,37.19,49.78ZM65,42.26a1.84,1.84,0,0,0,.54,2.62L68.73,47a1.89,1.89,0,0,0,2.08-3.16l-3.16-2.08A1.85,1.85,0,0,0,65,42.26Zm-37-.54L24.82,43.8A1.89,1.89,0,1,0,26.89,47l3.17-2.08A1.89,1.89,0,1,0,28,41.72Zm29.62,8a1.84,1.84,0,0,0,0,2.68L60.27,55A1.89,1.89,0,0,0,63,52.37l-2.68-2.68A1.85,1.85,0,0,0,57.6,49.69Z"/><path class="cls-3" d="M50.37,5.92A26.84,26.84,0,0,1,74.26,31.15v1.53a3.63,3.63,0,0,1-3.63,3.63H26.48V31.15A26.83,26.83,0,0,1,50.37,5.92Z"/><path class="cls-4" d="M45.59,5.92a25.73,25.73,0,0,1,3.82-.19A26.85,26.85,0,0,1,76.17,31.15v1.53a3.63,3.63,0,0,1-3.63,3.63H64.89a3.63,3.63,0,0,0,3.63-3.63V31.15A27.29,27.29,0,0,0,45.59,5.92Z"/><path class="cls-5" d="M70.63,38.22H28.39a1.91,1.91,0,0,1,0-3.82H70.63a1.71,1.71,0,0,0,1.72-1.72V31.34a24.88,24.88,0,0,0-49.7,0V34.4a1.8,1.8,0,0,1-1.91,1.91,1.81,1.81,0,0,1-1.91-1.91V30.77a28.71,28.71,0,0,1,57.34.38v1.72a5.51,5.51,0,0,1-5.54,5.35Z"/><path class="cls-6" d="M38.71,15.48a2.06,2.06,0,0,1,2.67.38A2,2,0,0,1,41,18.54a12,12,0,0,0-4.78,7.26,1.88,1.88,0,1,1-3.63-.95A14.85,14.85,0,0,1,38.71,15.48Z"/></svg>