<svg id="图层_1" data-name="图层 1" xmlns="http://www.w3.org/2000/svg" xmlns:xlink="http://www.w3.org/1999/xlink" viewBox="0 0 95 60"><defs><style>.cls-1{fill:#cbe7ee;}.cls-2{fill:url(#未命名的渐变_326);}.cls-3{fill:url(#未命名的渐变_326-2);}.cls-4{fill:url(#未命名的渐变_326-3);}.cls-5{fill:#a1cad2;}.cls-6{fill:url(#未命名的渐变_230);}.cls-7{fill:#f5e44b;}.cls-8{fill:#1368a5;}.cls-9{fill:url(#未命名的渐变_53);}.cls-10{fill:url(#未命名的渐变_326-4);}.cls-11{fill:#fff;}</style><linearGradient id="未命名的渐变_326" x1="64" y1="32.57" x2="74.13" y2="32.57" gradientUnits="userSpaceOnUse"><stop offset="0" stop-color="#169abd"/><stop offset="1" stop-color="#2dbced"/></linearGradient><linearGradient id="未命名的渐变_326-2" x1="20.87" y1="29.68" x2="30.15" y2="29.68" xlink:href="#未命名的渐变_326"/><linearGradient id="未命名的渐变_326-3" x1="47.5" y1="52.02" x2="47.5" y2="7.98" xlink:href="#未命名的渐变_326"/><linearGradient id="未命名的渐变_230" x1="48.63" y1="31.32" x2="48.63" y2="11.28" gradientUnits="userSpaceOnUse"><stop offset="0" stop-color="#f49f4a"/><stop offset="1" stop-color="#f7c772"/></linearGradient><linearGradient id="未命名的渐变_53" x1="44.26" y1="33.8" x2="50.76" y2="33.8" gradientUnits="userSpaceOnUse"><stop offset="0" stop-color="#ee7b49"/><stop offset="1" stop-color="#f29970"/></linearGradient><linearGradient id="未命名的渐变_326-4" x1="44.26" y1="30.98" x2="50.76" y2="30.98" xlink:href="#未命名的渐变_326"/></defs><path class="cls-1" d="M72.42,11H22.58a1.7,1.7,0,0,0-1.71,1.71V47.27A1.7,1.7,0,0,0,22.58,49H72.42a1.7,1.7,0,0,0,1.71-1.71V12.73A1.7,1.7,0,0,0,72.42,11ZM60.7,16.7l-1-.56-.07,0-.06-.05h0a.63.63,0,0,1,0-.88l.13-.1,1-.56h0l.55-1,.05-.07,0-.06.13-.1a.62.62,0,0,1,.85.23l.55,1h0l1,.56.07,0,.06.05a.64.64,0,0,1,.1.13.61.61,0,0,1-.23.84l-1,.56h0l-.55,1-.05.07,0,.06-.13.1a.62.62,0,0,1-.85-.23l-.55-1Zm5.21,8.17a5.27,5.27,0,0,1-5-3.95l0-.08a.55.55,0,0,1,0-.4.6.6,0,0,1,.8-.29l.15.07a2.8,2.8,0,0,0,1.13.24c2.3-.06,3.71-1.24,3.65-3.78a3.29,3.29,0,0,0-.36-1.27l0-.07a.53.53,0,0,1,0-.22.51.51,0,0,1,.57-.43l.12,0,.2,0a4.86,4.86,0,0,1,4,4.92A5.2,5.2,0,0,1,65.91,24.87Z"/><path class="cls-1" d="M61.8,17.15l.41-.83a.72.72,0,0,1,.34-.33l.83-.42-.83-.41a.8.8,0,0,1-.34-.34L61.8,14l-.42.83a.72.72,0,0,1-.33.34l-.83.41.83.42a.66.66,0,0,1,.33.33Z"/><path class="cls-2" d="M64.28,36.68A1,1,0,0,0,65.63,38l8.5-8.5V26.82Z"/><path class="cls-3" d="M29.88,24.63a1,1,0,0,0-1.36,0l-7.65,7.65V35l9-9A1,1,0,0,0,29.88,24.63Z"/><path class="cls-4" d="M73.53,52H21.47a3.84,3.84,0,0,1-3.79-3.88V11.86A3.84,3.84,0,0,1,21.47,8H73.53a3.84,3.84,0,0,1,3.79,3.88V48.14A3.84,3.84,0,0,1,73.53,52ZM22.7,11.28a1.82,1.82,0,0,0-1.83,1.83V46.89a1.83,1.83,0,0,0,1.83,1.83H72.3a1.82,1.82,0,0,0,1.83-1.83V13.11a1.83,1.83,0,0,0-1.83-1.83Z"/><polygon class="cls-5" points="57.75 26.43 57.13 22.97 37.87 22.97 37.25 26.43 57.75 26.43"/><polygon class="cls-5" points="58.71 31.83 58.09 28.36 36.91 28.36 36.29 31.83 58.71 31.83"/><polygon class="cls-5" points="38.22 21.04 56.78 21.04 56.16 17.57 38.84 17.57 38.22 21.04"/><polygon class="cls-5" points="60.02 39.15 34.98 39.15 34.36 42.62 60.64 42.62 60.02 39.15"/><polygon class="cls-5" points="34.01 44.55 33.27 48.72 61.73 48.72 60.99 44.55 34.01 44.55"/><polygon class="cls-5" points="55.82 15.64 55.04 11.28 39.96 11.28 39.18 15.64 55.82 15.64"/><polygon class="cls-5" points="59.68 37.22 59.06 33.76 35.94 33.76 35.32 37.22 59.68 37.22"/><path class="cls-6" d="M48.25,11.28H49v20h-.77Z"/><path class="cls-7" d="M53.83,48.72H41.25l3-14.93h6.66Z"/><path class="cls-8" d="M47,11.28h.89v20H47Z"/><path class="cls-9" d="M50.76,33.8a3.25,3.25,0,0,1-6.5,0c1.52-1.52,1.45-3.25,3.25-3.25S49.49,32.14,50.76,33.8Z"/><path class="cls-10" d="M50.76,33.8h-6.5l1.37-5.06a.77.77,0,0,1,.75-.57h2.26a.78.78,0,0,1,.75.57Z"/><path class="cls-11" d="M45.54,34.86c-.17.17-.06.58.26.91s.71.47.89.3h0c.18-.17.07-.58-.25-.91s-.72-.47-.9-.3Z"/></svg>