<?xml version="1.0" encoding="utf-8"?>
<!-- Generator: Adobe Illustrator 25.3.1, SVG Export Plug-In . SVG Version: 6.00 Build 0)  -->
<svg version="1.1" id="图层_1" xmlns="http://www.w3.org/2000/svg" xmlns:xlink="http://www.w3.org/1999/xlink" x="0px" y="0px"
	 viewBox="0 0 95 60" style="enable-background:new 0 0 95 60;" xml:space="preserve">
<style type="text/css">
	.st0{fill:url(#SVGID_1_);}
	.st1{fill:#CDE8E5;}
	.st2{fill:url(#SVGID_2_);}
	.st3{fill:url(#SVGID_3_);}
	.st4{fill:url(#SVGID_4_);}
	.st5{fill:url(#SVGID_5_);}
	.st6{fill:url(#SVGID_6_);}
	.st7{fill:url(#SVGID_7_);}
	.st8{fill:url(#SVGID_8_);}
	.st9{opacity:0.51;fill:#FFFFFF;enable-background:new    ;}
	.st10{fill:#087E66;}
	.st11{fill:url(#SVGID_9_);}
	.st12{fill:#FFFFFF;}
	.st13{fill:#037E66;}
</style>
<linearGradient id="SVGID_1_" gradientUnits="userSpaceOnUse" x1="47.505" y1="19.63" x2="47.505" y2="53.37" gradientTransform="matrix(1 0 0 -1 0 62)">
	<stop  offset="0" style="stop-color:#2BB499"/>
	<stop  offset="1" style="stop-color:#57BDAB"/>
</linearGradient>
<path class="st0" d="M76.4,10.3c0-0.9-0.7-1.7-1.7-1.7h-54c-0.9,0-1.7,0.7-1.7,1.7l0,0c0,0-2.5,3.2-2.5,15.2
	c0,12.3,2.5,15.2,2.5,15.2c0,0.9,0.7,1.7,1.7,1.7h10.6v-5.5h32.9v5.5h10.5c0.9,0,1.7-0.7,1.7-1.7c0,0,2-1.9,2-15.2
	C78.4,15.4,76.4,10.3,76.4,10.3z"/>
<path class="st1" d="M72.9,13.4c0-0.8-0.7-1.5-1.5-1.5l0,0H24c-0.8,0-1.5,0.6-1.5,1.5c0,0,0,0,0,0c0,0-2.2,1.6-2.2,12.2
	c0,10.8,2.2,12.2,2.2,12.2c0,0.8,0.7,1.5,1.5,1.5c0,0,0,0,0,0h4.4v-4.4h38.7v4.4h4.4c0.8,0,1.5-0.7,1.5-1.5c0,0,0,0,0,0
	s1.8-0.5,1.8-12.2C74.7,16.7,72.9,13.4,72.9,13.4z"/>
<linearGradient id="SVGID_2_" gradientUnits="userSpaceOnUse" x1="32.69" y1="21.69" x2="62.3" y2="21.69" gradientTransform="matrix(1 0 0 -1 0 62)">
	<stop  offset="0" style="stop-color:#2BB499"/>
	<stop  offset="1" style="stop-color:#57BDAB"/>
</linearGradient>
<path class="st2" d="M32.7,38.4h29.6l0,0v1.9c0,1.1-0.9,2-2,2H34.7c-1.1,0-2-0.9-2-2L32.7,38.4L32.7,38.4z"/>
<linearGradient id="SVGID_3_" gradientUnits="userSpaceOnUse" x1="32.695" y1="10.06" x2="32.695" y2="17.68" gradientTransform="matrix(1 0 0 -1 0 62)">
	<stop  offset="0" style="stop-color:#2BB499"/>
	<stop  offset="1" style="stop-color:#57BDAB"/>
</linearGradient>
<path class="st3" d="M32.7,44.3L32.7,44.3c0.7,0,1.3,0.6,1.3,1.3v5c0,0.7-0.6,1.3-1.3,1.3h0c-0.7,0-1.3-0.6-1.3-1.3v-5
	C31.4,44.9,32,44.3,32.7,44.3z"/>
<linearGradient id="SVGID_4_" gradientUnits="userSpaceOnUse" x1="38.625" y1="10.06" x2="38.625" y2="17.68" gradientTransform="matrix(1 0 0 -1 0 62)">
	<stop  offset="0" style="stop-color:#2BB499"/>
	<stop  offset="1" style="stop-color:#57BDAB"/>
</linearGradient>
<path class="st4" d="M38.6,44.3L38.6,44.3c0.7,0,1.3,0.6,1.3,1.3v5c0,0.7-0.6,1.3-1.3,1.3h0c-0.7,0-1.3-0.6-1.3-1.3v-5
	C37.3,44.9,37.9,44.3,38.6,44.3z"/>
<linearGradient id="SVGID_5_" gradientUnits="userSpaceOnUse" x1="44.545" y1="10.06" x2="44.545" y2="17.68" gradientTransform="matrix(1 0 0 -1 0 62)">
	<stop  offset="0" style="stop-color:#2BB499"/>
	<stop  offset="1" style="stop-color:#57BDAB"/>
</linearGradient>
<path class="st5" d="M44.5,44.3L44.5,44.3c0.7,0,1.3,0.6,1.3,1.3v5c0,0.7-0.6,1.3-1.3,1.3h0c-0.7,0-1.3-0.6-1.3-1.3v-5
	C43.2,44.9,43.8,44.3,44.5,44.3z"/>
<linearGradient id="SVGID_6_" gradientUnits="userSpaceOnUse" x1="50.465" y1="10.06" x2="50.465" y2="17.68" gradientTransform="matrix(1 0 0 -1 0 62)">
	<stop  offset="0" style="stop-color:#2BB499"/>
	<stop  offset="1" style="stop-color:#57BDAB"/>
</linearGradient>
<path class="st6" d="M50.5,44.3L50.5,44.3c0.7,0,1.3,0.6,1.3,1.3v5c0,0.7-0.6,1.3-1.3,1.3h0c-0.7,0-1.3-0.6-1.3-1.3v-5
	C49.2,44.9,49.7,44.3,50.5,44.3z"/>
<linearGradient id="SVGID_7_" gradientUnits="userSpaceOnUse" x1="56.385" y1="10.06" x2="56.385" y2="17.68" gradientTransform="matrix(1 0 0 -1 0 62)">
	<stop  offset="0" style="stop-color:#2BB499"/>
	<stop  offset="1" style="stop-color:#57BDAB"/>
</linearGradient>
<path class="st7" d="M56.4,44.3L56.4,44.3c0.7,0,1.3,0.6,1.3,1.3v5c0,0.7-0.6,1.3-1.3,1.3h0c-0.7,0-1.3-0.6-1.3-1.3v-5
	C55.1,44.9,55.7,44.3,56.4,44.3z"/>
<linearGradient id="SVGID_8_" gradientUnits="userSpaceOnUse" x1="62.305" y1="10.06" x2="62.305" y2="17.68" gradientTransform="matrix(1 0 0 -1 0 62)">
	<stop  offset="0" style="stop-color:#2BB499"/>
	<stop  offset="1" style="stop-color:#57BDAB"/>
</linearGradient>
<path class="st8" d="M62.3,44.3L62.3,44.3c0.7,0,1.3,0.6,1.3,1.3v5c0,0.7-0.6,1.3-1.3,1.3h0c-0.7,0-1.3-0.6-1.3-1.3v-5
	C61,44.9,61.6,44.3,62.3,44.3z"/>
<circle class="st9" cx="47.5" cy="23.5" r="10.2"/>
<path class="st10" d="M52.4,28.7h-0.8l-2.5-3.6v3.6h-0.8v-5h0.8c0,0,2.4,3.4,2.4,3.4v-3.4h0.8L52.4,28.7z"/>
<linearGradient id="SVGID_9_" gradientUnits="userSpaceOnUse" x1="47.505" y1="39.91" x2="47.505" y2="48.22" gradientTransform="matrix(1 0 0 -1 0 62)">
	<stop  offset="0" style="stop-color:#EE7B49"/>
	<stop  offset="1" style="stop-color:#F29970"/>
</linearGradient>
<path class="st11" d="M47.5,22.1c-1.1,0-2.1-0.9-2.1-2.1c0,0,0,0,0,0v-4.1c0.1-1.2,1.1-2,2.2-1.9c1,0.1,1.9,0.9,1.9,1.9V20
	C49.6,21.2,48.7,22.1,47.5,22.1z"/>
<path class="st12" d="M47.5,14.1c0.9,0,1.7,0.8,1.7,1.7V20c0,0.9-0.8,1.7-1.7,1.7c-0.9,0-1.7-0.8-1.7-1.7c0,0,0,0,0,0v-4.1
	C45.8,14.9,46.6,14.2,47.5,14.1 M47.5,13.4c-1.4,0-2.5,1.1-2.5,2.4c0,0,0,0,0,0V20c0,1.4,1.1,2.5,2.5,2.5S50,21.4,50,20v-4.1
	C50,14.5,48.9,13.4,47.5,13.4C47.5,13.4,47.5,13.4,47.5,13.4z"/>
<path class="st13" d="M44.5,29c1.4,0,2.5-1.2,2.5-2.8c0-1.6-1.1-2.8-2.5-2.8c-1.4,0-2.5,1.2-2.5,2.8C42,27.8,43.1,29,44.5,29z
	 M44.5,24.2c1,0,1.7,0.9,1.7,2s-0.8,2-1.7,2c-1,0-1.7-0.9-1.7-2S43.5,24.2,44.5,24.2z"/>
<path class="st13" d="M54.7,16.2C54.7,16.2,54.7,16.2,54.7,16.2c-0.3-0.3-0.7-0.3-1,0c-0.3,0.3-0.3,0.7,0,1c0,0,0,0,0,0
	c3.4,3.4,3.4,9,0,12.4c-3.4,3.4-8.9,3.4-12.3,0c-3.4-3.4-3.4-8.9,0-12.3l0,0c0,0,0,0,0,0c0.3-0.3,0.3-0.7,0-1c-0.3-0.3-0.7-0.3-1,0
	c0,0,0,0,0,0l0,0c-4,4-4,10.4,0,14.4c4,4,10.4,4,14.4,0S58.6,20.2,54.7,16.2z"/>
</svg>
