<?xml version="1.0" encoding="utf-8"?>
<!-- Generator: Adobe Illustrator 25.3.1, SVG Export Plug-In . SVG Version: 6.00 Build 0)  -->
<svg version="1.1" id="图层_1" xmlns="http://www.w3.org/2000/svg" xmlns:xlink="http://www.w3.org/1999/xlink" x="0px" y="0px"
	 viewBox="0 0 95 60" style="enable-background:new 0 0 95 60;" xml:space="preserve">
<style type="text/css">
	.st0{fill:url(#SVGID_1_);}
	.st1{fill:url(#SVGID_2_);}
	.st2{fill:url(#SVGID_3_);}
	.st3{fill:#6C4B83;}
	.st4{fill:url(#SVGID_4_);}
	.st5{fill:url(#SVGID_5_);}
	.st6{fill:#E1D0E6;}
	.st7{fill:url(#SVGID_6_);}
	.st8{fill:#FFFFFF;}
	.st9{fill:#6C4B82;}
</style>
<linearGradient id="SVGID_1_" gradientUnits="userSpaceOnUse" x1="45.67" y1="7.49" x2="45.67" y2="13.57" gradientTransform="matrix(1 0 0 -1 0 62)">
	<stop  offset="0" style="stop-color:#A076B2"/>
	<stop  offset="1" style="stop-color:#BE95C3"/>
</linearGradient>
<rect x="44.3" y="48.4" class="st0" width="2.7" height="6.1"/>
<linearGradient id="SVGID_2_" gradientUnits="userSpaceOnUse" x1="34.445" y1="6.09" x2="34.445" y2="14.76" gradientTransform="matrix(1 0 0 -1 0 62)">
	<stop  offset="0" style="stop-color:#A076B2"/>
	<stop  offset="1" style="stop-color:#BE95C3"/>
</linearGradient>
<polygon class="st1" points="31.5,55.9 36.2,55.9 37.4,47.2 34.8,47.2 "/>
<linearGradient id="SVGID_3_" gradientUnits="userSpaceOnUse" x1="57.395" y1="6.09" x2="57.395" y2="14.76" gradientTransform="matrix(1 0 0 -1 0 62)">
	<stop  offset="0" style="stop-color:#A076B2"/>
	<stop  offset="1" style="stop-color:#BE95C3"/>
</linearGradient>
<polygon class="st2" points="60.4,55.9 55.7,55.9 54.4,47.2 57,47.2 "/>
<path class="st3" d="M76.7,19.3H69c-1.3,0-2.4,1.1-2.4,2.4c0,0,0,0,0,0v16.4c0,1.3,1.1,2.4,2.4,2.4c0,0,0,0,0,0h7.6
	c1.3,0,2.4-1.1,2.4-2.4V21.7C79,20.4,78,19.4,76.7,19.3z M76.8,36.2c0,1-0.8,1.8-1.8,1.8c0,0,0,0,0,0h-5.8c-1,0-1.8-0.8-1.8-1.8
	c0,0,0,0,0,0V23.7c0-1,0.8-1.8,1.8-1.8c0,0,0,0,0,0H75c1,0,1.8,0.8,1.8,1.8L76.8,36.2z"/>
<rect x="40.2" y="6.2" class="st3" width="11.8" height="5.5"/>
<linearGradient id="SVGID_4_" gradientUnits="userSpaceOnUse" x1="46.1" y1="13.57" x2="46.1" y2="50.88" gradientTransform="matrix(1 0 0 -1 0 62)">
	<stop  offset="0" style="stop-color:#B593C2"/>
	<stop  offset="1" style="stop-color:#BD94C2"/>
</linearGradient>
<path class="st4" d="M57.6,11.1h-23c-10.3,0.2-18.5,8.8-18.2,19.1c0.2,10,8.3,18,18.2,18.2h23c10.3-0.2,18.5-8.8,18.2-19.1
	C75.6,19.4,67.6,11.4,57.6,11.1z M46.1,41.6c-6.4,0-11.6-5.2-11.6-11.6c0-6.4,5.2-11.6,11.6-11.6s11.6,5.2,11.6,11.6c0,0,0,0,0,0
	C57.7,36.3,52.5,41.6,46.1,41.6C46.1,41.6,46.1,41.6,46.1,41.6z"/>
<linearGradient id="SVGID_5_" gradientUnits="userSpaceOnUse" x1="37.77" y1="55.48" x2="54.41" y2="55.48" gradientTransform="matrix(1 0 0 -1 0 62)">
	<stop  offset="0" style="stop-color:#A076B2"/>
	<stop  offset="1" style="stop-color:#BE95C3"/>
</linearGradient>
<path class="st5" d="M40.2,4.1H52c1.3,0,2.4,1.1,2.4,2.4l0,0C54.4,7.9,53.3,9,52,9H40.2c-1.3,0-2.4-1.1-2.4-2.4l0,0
	C37.8,5.2,38.9,4.1,40.2,4.1z"/>
<path class="st6" d="M56,14.8H36.1c-8.9,0-16.1,6.7-16.1,15s7.3,15,16.1,15H56c8.9,0,16.1-6.7,16.1-15S64.9,14.8,56,14.8z
	 M46.1,41.2c-6.2,0-11.3-5.1-11.3-11.3c0-6.2,5.1-11.3,11.3-11.3c6.2,0,11.3,5.1,11.3,11.3l0,0C57.4,36.1,52.4,41.2,46.1,41.2
	C46.1,41.2,46.1,41.2,46.1,41.2z"/>
<path class="st3" d="M54.1,21.8c-0.3-0.4-0.8-0.4-1.2-0.1s-0.4,0.8-0.1,1.2c0,0,0.1,0.1,0.1,0.1c0,0,0,0,0,0
	c3.8,3.8,3.8,10.1,0,13.9c-3.8,3.8-10,3.8-13.8,0c-3.8-3.8-3.8-10,0-13.8l0,0l0,0c0.4-0.2,0.5-0.7,0.3-1.1c-0.2-0.4-0.7-0.5-1.1-0.3
	c-0.1,0.1-0.2,0.2-0.3,0.3l0,0l0,0c-4.4,4.5-4.4,11.7,0,16.1s11.7,4.4,16.1,0C58.6,33.5,58.5,26.3,54.1,21.8
	C54.1,21.8,54.1,21.9,54.1,21.8z"/>
<path class="st3" d="M51.6,35.8h-0.8l-2.8-4v4h-0.9v-5.5H48c0,0,2.7,3.8,2.7,3.8v-3.8h0.9L51.6,35.8z"/>
<linearGradient id="SVGID_6_" gradientUnits="userSpaceOnUse" x1="46.135" y1="33.65" x2="46.135" y2="42.79" gradientTransform="matrix(1 0 0 -1 0 62)">
	<stop  offset="0" style="stop-color:#EE7B49"/>
	<stop  offset="1" style="stop-color:#F29970"/>
</linearGradient>
<path class="st7" d="M46.1,28.4c-1.3,0-2.3-1-2.3-2.3c0,0,0,0,0,0v-4.6c0.1-1.3,1.2-2.2,2.4-2.1c1.1,0.1,2,1,2.1,2.1v4.6
	C48.4,27.3,47.4,28.4,46.1,28.4z"/>
<path class="st8" d="M46.1,19.6c1,0,1.9,0.9,1.9,1.9v4.6c0.1,1-0.7,2-1.8,2c-1,0.1-2-0.7-2-1.8c0-0.1,0-0.2,0-0.3v-4.6
	C44.2,20.4,45.1,19.6,46.1,19.6 M46.1,18.8c-1.5,0-2.6,1.2-2.6,2.6v4.6c-0.1,1.5,1,2.7,2.5,2.8c1.5,0.1,2.7-1,2.8-2.5
	c0-0.1,0-0.2,0-0.3v-4.6C48.7,20,47.6,18.8,46.1,18.8z"/>
<path class="st9" d="M43.4,36.1c1.5,0,2.7-1.4,2.7-3.1s-1.2-3.1-2.7-3.1s-2.7,1.4-2.7,3.1S41.8,36.1,43.4,36.1z M43.4,30.8
	c1.1,0,1.9,1,1.9,2.2c0,1.2-0.9,2.2-1.9,2.2s-1.9-1-1.9-2.2C41.4,31.8,42.3,30.8,43.4,30.8z"/>
</svg>
