<?xml version="1.0" encoding="utf-8"?>
<!-- Generator: Adobe Illustrator 25.3.1, SVG Export Plug-In . SVG Version: 6.00 Build 0)  -->
<svg version="1.1" id="图层_1" xmlns="http://www.w3.org/2000/svg" xmlns:xlink="http://www.w3.org/1999/xlink" x="0px" y="0px"
	 viewBox="0 0 95 60" style="enable-background:new 0 0 95 60;" xml:space="preserve">
<style type="text/css">
	.st0{fill:#CBE7EE;}
	.st1{fill:url(#SVGID_1_);}
	.st2{fill:url(#SVGID_2_);}
	.st3{fill:url(#SVGID_3_);}
	.st4{fill:#A1CAD2;}
	.st5{fill:url(#SVGID_4_);}
	.st6{fill:#F5E44B;}
	.st7{fill:#1368A5;}
	.st8{fill:url(#SVGID_5_);}
	.st9{fill:url(#SVGID_6_);}
	.st10{fill:#FFFFFF;}
	.st11{fill:url(#SVGID_7_);}
	.st12{fill:url(#SVGID_8_);}
	.st13{fill:#1168A4;}
</style>
<path class="st0" d="M72.6,11H22.4c-0.9,0-1.5,0.7-1.5,1.5v0v34.9c0,0.9,0.7,1.5,1.5,1.6c0,0,0,0,0,0h50.2c0.9,0,1.5-0.7,1.5-1.5
	l0,0V12.6C74.1,11.7,73.5,11,72.6,11C72.6,11,72.6,11,72.6,11z M60.7,16.7l-1-0.6h-0.1l-0.1,0l0,0c-0.2-0.2-0.2-0.6,0-0.9l0.1-0.1
	l1-0.6l0,0l0.5-1l0-0.1v-0.1l0.1-0.1c0.3-0.2,0.7-0.1,0.8,0.2c0,0,0,0,0,0l0.5,1l0,0l1,0.6h0.1l0.1,0.1c0,0,0.1,0.1,0.1,0.1
	c0.2,0.3,0.1,0.7-0.2,0.8c0,0,0,0,0,0l-1,0.6l0,0l-0.5,1l0,0.1v0.1l-0.1,0.1c-0.3,0.2-0.7,0.1-0.8-0.2c0,0,0,0,0,0L60.7,16.7
	L60.7,16.7z M65.9,24.9c-2.4,0-4.4-1.7-5-4v-0.1c-0.1-0.1-0.1-0.3,0-0.4c0.1-0.3,0.5-0.4,0.8-0.3c0,0,0,0,0,0l0.2,0.1
	c0.4,0.2,0.7,0.2,1.1,0.2c2.3-0.1,3.7-1.2,3.7-3.8c0-0.4-0.2-0.9-0.4-1.3v-0.1c0-0.1,0-0.1,0-0.2c0-0.3,0.3-0.5,0.6-0.4H67h0.2
	c2.4,0.4,4.1,2.5,4,4.9c0,2.9-2.3,5.2-5.1,5.3C66,24.9,66,24.9,65.9,24.9z"/>
<path class="st0" d="M61.8,17.1l0.4-0.8c0.1-0.1,0.2-0.3,0.3-0.3l0.8-0.4l-0.8-0.4c-0.1-0.1-0.3-0.2-0.3-0.3L61.8,14l-0.4,0.8
	c-0.1,0.1-0.2,0.3-0.3,0.3l-0.8,0.4L61,16c0.1,0.1,0.3,0.2,0.3,0.3L61.8,17.1z"/>
<linearGradient id="SVGID_1_" gradientUnits="userSpaceOnUse" x1="64" y1="29.5379" x2="74.13" y2="29.5379" gradientTransform="matrix(1 0 0 -1 0 62)">
	<stop  offset="0" style="stop-color:#169ABD"/>
	<stop  offset="1" style="stop-color:#2DBCED"/>
</linearGradient>
<path class="st1" d="M64.3,36.7c-0.2,0.5,0,1.1,0.5,1.3c0.3,0.1,0.6,0.1,0.9,0l8.5-8.5v-2.7L64.3,36.7z"/>
<linearGradient id="SVGID_2_" gradientUnits="userSpaceOnUse" x1="20.87" y1="32.3184" x2="30.1465" y2="32.3184" gradientTransform="matrix(1 0 0 -1 0 62)">
	<stop  offset="0" style="stop-color:#169ABD"/>
	<stop  offset="1" style="stop-color:#2DBCED"/>
</linearGradient>
<path class="st2" d="M29.9,24.6c-0.4-0.4-1-0.4-1.4,0l-7.6,7.6V35l9-9C30.2,25.6,30.2,25,29.9,24.6z"/>
<linearGradient id="SVGID_3_" gradientUnits="userSpaceOnUse" x1="47.5" y1="10" x2="47.5" y2="54" gradientTransform="matrix(1 0 0 -1 0 62)">
	<stop  offset="0" style="stop-color:#169ABD"/>
	<stop  offset="1" style="stop-color:#2DBCED"/>
</linearGradient>
<path class="st3" d="M73.5,52H21.5c-2.1,0-3.8-1.8-3.8-3.9V11.9c0-2.1,1.7-3.8,3.8-3.9h52.1c2.1,0,3.8,1.8,3.8,3.9v36.3
	C77.3,50.2,75.6,52,73.5,52z M22.7,11.3c-1,0-1.8,0.8-1.8,1.8c0,0,0,0,0,0v33.8c0,1,0.8,1.8,1.8,1.8h0h49.6c1,0,1.8-0.8,1.8-1.8
	c0,0,0,0,0,0V13.1c0-1-0.8-1.8-1.8-1.8l0,0H22.7z"/>
<polygon class="st4" points="57.8,26.4 57.1,23 37.9,23 37.2,26.4 "/>
<polygon class="st4" points="58.7,31.8 58.1,28.4 36.9,28.4 36.3,31.8 "/>
<polygon class="st4" points="38.2,21 56.8,21 56.2,17.6 38.8,17.6 "/>
<polygon class="st4" points="60,39.2 35,39.2 34.4,42.6 60.6,42.6 "/>
<polygon class="st4" points="34,44.5 33.3,48.7 61.7,48.7 61,44.5 "/>
<polygon class="st4" points="55.8,15.6 55,11.3 40,11.3 39.2,15.6 "/>
<polygon class="st4" points="59.7,37.2 59.1,33.8 35.9,33.8 35.3,37.2 "/>
<linearGradient id="SVGID_4_" gradientUnits="userSpaceOnUse" x1="48.615" y1="30.68" x2="48.615" y2="50.72" gradientTransform="matrix(1 0 0 -1 0 62)">
	<stop  offset="0" style="stop-color:#F49F4A"/>
	<stop  offset="1" style="stop-color:#F7C772"/>
</linearGradient>
<path class="st5" d="M48.2,11.3H49v20h-0.8L48.2,11.3z"/>
<path class="st6" d="M53.8,48.7H41.2l3-14.9h6.7L53.8,48.7z"/>
<path class="st7" d="M47,11.3h0.9v20H47V11.3z"/>
<linearGradient id="SVGID_5_" gradientUnits="userSpaceOnUse" x1="44.26" y1="28.2" x2="50.76" y2="28.2" gradientTransform="matrix(1 0 0 -1 0 62)">
	<stop  offset="0" style="stop-color:#EE7B49"/>
	<stop  offset="1" style="stop-color:#F29970"/>
</linearGradient>
<path class="st8" d="M50.8,33.8c0,1.8-1.5,3.2-3.2,3.2s-3.2-1.5-3.2-3.2c1.5-1.5,1.5-3.2,3.2-3.2S49.5,32.1,50.8,33.8z"/>
<linearGradient id="SVGID_6_" gradientUnits="userSpaceOnUse" x1="44.26" y1="31.015" x2="50.76" y2="31.015" gradientTransform="matrix(1 0 0 -1 0 62)">
	<stop  offset="0" style="stop-color:#169ABD"/>
	<stop  offset="1" style="stop-color:#2DBCED"/>
</linearGradient>
<path class="st9" d="M50.8,33.8h-6.5l1.4-5.1c0.1-0.3,0.4-0.6,0.8-0.6h2.3c0.3,0,0.7,0.2,0.8,0.6L50.8,33.8z"/>
<path class="st10" d="M45.5,34.9c-0.2,0.2-0.1,0.6,0.3,0.9s0.7,0.5,0.9,0.3l0,0c0.2-0.2,0.1-0.6-0.2-0.9S45.7,34.7,45.5,34.9z"/>
<circle class="st10" cx="47.5" cy="29.6" r="10"/>
<linearGradient id="SVGID_7_" gradientUnits="userSpaceOnUse" x1="47.5076" y1="22.2256" x2="47.5076" y2="39.7858" gradientTransform="matrix(1 0 0 -1 0 62)">
	<stop  offset="0" style="stop-color:#169ABD"/>
	<stop  offset="1" style="stop-color:#2DBCED"/>
</linearGradient>
<path class="st11" d="M54.6,22.4c-0.3-0.3-0.7-0.3-1,0c-0.3,0.3-0.3,0.7,0,1c0,0,0,0,0,0c3.4,3.4,3.4,9,0,12.3
	c-3.4,3.4-8.9,3.4-12.3,0c-3.4-3.4-3.4-8.9,0-12.3l0,0l0,0c0.3-0.3,0.3-0.7,0-1c-0.3-0.3-0.7-0.3-1,0l0,0c-4,4-3.9,10.4,0,14.4
	c4,4,10.4,3.9,14.4,0C58.7,32.8,58.6,26.4,54.6,22.4L54.6,22.4z"/>
<path class="st7" d="M52.3,34.8h-0.8l-2.5-3.6v3.6h-0.8v-4.9h0.8c0,0,2.4,3.3,2.4,3.4v-3.4h0.8L52.3,34.8z"/>
<linearGradient id="SVGID_8_" gradientUnits="userSpaceOnUse" x1="47.51" y1="33.75" x2="47.51" y2="41.9614" gradientTransform="matrix(1 0 0 -1 0 62)">
	<stop  offset="0" style="stop-color:#EE7B49"/>
	<stop  offset="1" style="stop-color:#F29970"/>
</linearGradient>
<path class="st12" d="M47.5,28.2c-1.1,0-2.1-0.9-2.1-2.1l0,0v-4.1c0-1.1,0.9-2.1,2.1-2.1s2.1,0.9,2.1,2.1c0,0,0,0,0,0v4.1
	C49.6,27.3,48.6,28.2,47.5,28.2z"/>
<path class="st10" d="M47.5,20.4c0.9,0,1.7,0.8,1.7,1.7c0,0,0,0,0,0v4.1c0,0.9-0.8,1.7-1.7,1.7c-0.9,0-1.7-0.8-1.7-1.7v-4.1
	C45.8,21.2,46.6,20.4,47.5,20.4 M47.5,19.7c-1.3,0-2.4,1.1-2.4,2.4v4.1c0,1.3,1.1,2.4,2.4,2.4c1.3,0,2.4-1.1,2.4-2.4v-4.1
	C50,20.8,48.9,19.7,47.5,19.7z"/>
<path class="st13" d="M44.8,35.1c1.3,0,2.4-1.2,2.4-2.7s-1.1-2.7-2.4-2.7c-1.3,0-2.4,1.2-2.4,2.7S43.5,35.1,44.8,35.1z M44.8,30.4
	c1,0,1.7,0.9,1.7,1.9s-0.8,1.9-1.7,1.9c-1,0-1.7-0.9-1.7-1.9S43.9,30.4,44.8,30.4z"/>
</svg>
