<svg id="图层_1" data-name="图层 1" xmlns="http://www.w3.org/2000/svg" xmlns:xlink="http://www.w3.org/1999/xlink" viewBox="0 0 95 60"><defs><style>.cls-1{fill:url(#未命名的渐变_147);}.cls-2{fill:#889ea9;}.cls-3{fill:url(#未命名的渐变_147-2);}.cls-4{fill:url(#未命名的渐变_144);}.cls-5{fill:#fff;}.cls-6{fill:url(#未命名的渐变_344);}.cls-7{fill:url(#未命名的渐变_344-2);}</style><linearGradient id="未命名的渐变_147" x1="70.84" y1="42.07" x2="56.91" y2="17.94" gradientUnits="userSpaceOnUse"><stop offset="0" stop-color="#889ea9"/><stop offset="1" stop-color="#d7dade"/></linearGradient><linearGradient id="未命名的渐变_147-2" x1="40.1" y1="56.08" x2="40.1" y2="3.92" xlink:href="#未命名的渐变_147"/><linearGradient id="未命名的渐变_144" x1="40.1" y1="51.03" x2="40.1" y2="8.97" gradientUnits="userSpaceOnUse"><stop offset="0" stop-color="#c0c9cd"/><stop offset="1" stop-color="#eff1f2"/></linearGradient><linearGradient id="未命名的渐变_344" x1="31.74" y1="27.94" x2="45.09" y2="27.94" gradientUnits="userSpaceOnUse"><stop offset="0" stop-color="#e94e47"/><stop offset="1" stop-color="#ed786e"/></linearGradient><linearGradient id="未命名的渐变_344-2" x1="35.11" y1="31.32" x2="48.47" y2="31.32" xlink:href="#未命名的渐变_344"/></defs><path class="cls-1" d="M75.84,37.71,70,15.91a1.49,1.49,0,0,0-2.06-1.19L57.77,17.45v2.44l8.5-2.28a1.49,1.49,0,0,1,2.06,1.19l.78,2.93-11.34,3v2.44L69.72,24,73,36a1.5,1.5,0,0,1-1.19,2.07l-14,3.75v2.43l16.88-4.52A1.49,1.49,0,0,0,75.84,37.71Z"/><rect class="cls-2" x="65.45" y="34.29" width="4.93" height="2.36" transform="translate(-6.86 18.77) rotate(-14.99)"/><path class="cls-3" d="M59.45,3.92H20.75a1.49,1.49,0,0,0-1.68,1.69V54.39a1.49,1.49,0,0,0,1.68,1.69h38.7a1.49,1.49,0,0,0,1.68-1.69V5.61A1.49,1.49,0,0,0,59.45,3.92ZM57.77,51a1.49,1.49,0,0,1-1.69,1.68h-32A1.48,1.48,0,0,1,22.44,51V9a1.48,1.48,0,0,1,1.68-1.68h32A1.49,1.49,0,0,1,57.77,9Z"/><path class="cls-4" d="M25.8,9H54.4a1.48,1.48,0,0,1,1.68,1.68v38.7A1.48,1.48,0,0,1,54.4,51H25.8a1.48,1.48,0,0,1-1.68-1.68V10.65A1.48,1.48,0,0,1,25.8,9Z"/><circle class="cls-5" cx="40.1" cy="29.63" r="10.76" transform="translate(-5.73 10.01) rotate(-13.28)"/><path class="cls-6" d="M31.74,29.63A8.32,8.32,0,0,1,45.09,23L33.43,34.62A8.27,8.27,0,0,1,31.74,29.63Z"/><path class="cls-7" d="M40.1,38a8.36,8.36,0,0,1-5-1.69L46.78,24.64A8.33,8.33,0,0,1,40.1,38Z"/></svg>