<svg id="图层_1" data-name="图层 1" xmlns="http://www.w3.org/2000/svg" xmlns:xlink="http://www.w3.org/1999/xlink" viewBox="0 0 90 90"><defs><style>.cls-1{fill:#cbe7ee;}.cls-2{fill:url(#未命名的渐变_326);}.cls-3{fill:url(#未命名的渐变_326-2);}.cls-4{fill:url(#未命名的渐变_326-3);}.cls-5{fill:#a1cad2;}.cls-6{fill:url(#未命名的渐变_230);}.cls-7{fill:#f5e44b;}.cls-8{fill:#1368a5;}.cls-9{fill:url(#未命名的渐变_53);}.cls-10{fill:url(#未命名的渐变_326-4);}.cls-11{fill:#fff;}</style><linearGradient id="未命名的渐变_326" x1="60.16" y1="47.36" x2="69.47" y2="47.36" gradientUnits="userSpaceOnUse"><stop offset="0" stop-color="#169abd"/><stop offset="1" stop-color="#2dbced"/></linearGradient><linearGradient id="未命名的渐变_326-2" x1="20.53" y1="44.7" x2="29.06" y2="44.7" xlink:href="#未命名的渐变_326"/><linearGradient id="未命名的渐变_326-3" x1="45" y1="65.24" x2="45" y2="24.76" xlink:href="#未命名的渐变_326"/><linearGradient id="未命名的渐变_230" x1="46.04" y1="46.22" x2="46.04" y2="27.79" gradientUnits="userSpaceOnUse"><stop offset="0" stop-color="#f49f4a"/><stop offset="1" stop-color="#f7c772"/></linearGradient><linearGradient id="未命名的渐变_53" x1="42.03" y1="48.49" x2="47.99" y2="48.49" gradientUnits="userSpaceOnUse"><stop offset="0" stop-color="#ee7b49"/><stop offset="1" stop-color="#f29970"/></linearGradient><linearGradient id="未命名的渐变_326-4" x1="42.02" y1="45.9" x2="47.99" y2="45.9" xlink:href="#未命名的渐变_326"/></defs><path class="cls-1" d="M31.93,27.56H22.39a1.86,1.86,0,0,0-1.86,1.86V60.58a1.86,1.86,0,0,0,1.86,1.86H67.61a1.86,1.86,0,0,0,1.86-1.86V29.42a1.86,1.86,0,0,0-1.86-1.86Z"/><path class="cls-2" d="M60.42,51.14a.88.88,0,0,0,0,1.25.89.89,0,0,0,1.25,0l7.8-7.81v-2.5Z"/><path class="cls-3" d="M28.8,40.07a.86.86,0,0,0-1.24,0l-7,7v2.5l8.27-8.28A.89.89,0,0,0,28.8,40.07Z"/><path class="cls-4" d="M68.92,65.24H21.08a3.53,3.53,0,0,1-3.49-3.57V28.33a3.53,3.53,0,0,1,3.49-3.57H68.92a3.53,3.53,0,0,1,3.49,3.57V61.67A3.54,3.54,0,0,1,68.92,65.24ZM22.21,27.79a1.68,1.68,0,0,0-1.68,1.68V60.53a1.68,1.68,0,0,0,1.68,1.68H67.79a1.68,1.68,0,0,0,1.68-1.68V29.47a1.68,1.68,0,0,0-1.68-1.68Z"/><polygon class="cls-5" points="54.42 41.72 53.85 38.54 36.15 38.54 35.58 41.72 54.42 41.72"/><polygon class="cls-5" points="55.3 46.68 54.73 43.49 35.27 43.49 34.7 46.68 55.3 46.68"/><polygon class="cls-5" points="36.47 36.76 53.53 36.76 52.96 33.58 37.04 33.58 36.47 36.76"/><polygon class="cls-5" points="56.51 53.41 33.49 53.41 32.92 56.59 57.08 56.59 56.51 53.41"/><polygon class="cls-5" points="32.6 58.37 31.92 62.21 58.08 62.21 57.4 58.37 32.6 58.37"/><polygon class="cls-5" points="52.65 31.81 51.93 27.79 38.07 27.79 37.35 31.81 52.65 31.81"/><polygon class="cls-5" points="56.19 51.64 55.62 48.45 34.38 48.45 33.81 51.64 56.19 51.64"/><path class="cls-6" d="M45.69,27.79h.71V46.22h-.71Z"/><path class="cls-7" d="M50.82,62.21H39.26L42,48.48H48.1Z"/><path class="cls-8" d="M44.57,27.79h.82V46.22h-.82Z"/><path class="cls-9" d="M48,48.49a3,3,0,1,1-6,0c1.39-1.39,1.33-3,3-3S46.83,47,48,48.49Z"/><path class="cls-10" d="M48,48.49H42l1.26-4.65a.72.72,0,0,1,.69-.52H46a.7.7,0,0,1,.69.52Z"/><path class="cls-11" d="M43.2,49.47c-.16.16-.06.53.23.84s.66.43.83.27h0c.16-.16.06-.53-.23-.84s-.66-.43-.83-.27Z"/><path class="cls-11" d="M62.75,30.93l.11,0L63,31a4.47,4.47,0,0,1,3.66,4.53h0a4.78,4.78,0,0,1-4.78,4.78,4.86,4.86,0,0,1-4.61-3.63l0-.08a.56.56,0,0,1,.78-.63l.14.06a2.49,2.49,0,0,0,1,.22c2.11,0,3.4-1.13,3.35-3.47a3.08,3.08,0,0,0-.33-1.17l0-.06a.71.71,0,0,1,0-.2A.48.48,0,0,1,62.75,30.93Z"/><path class="cls-11" d="M56.25,31.28l.88-.51h0l.51-.89,0-.06.05-.06.12-.09a.56.56,0,0,1,.77.21l.52.89h0l.89.51.06,0,.06.05.09.12a.58.58,0,0,1-.21.78l-.89.51h0l-.51.89,0,.06-.05.06-.11.09a.58.58,0,0,1-.78-.21l-.51-.89h0l-.88-.51-.06,0-.06,0h0a.58.58,0,0,1,0-.81A.47.47,0,0,1,56.25,31.28Zm.44.46.77.38a.69.69,0,0,1,.3.31l.38.76.38-.76a.71.71,0,0,1,.31-.31l.76-.38-.76-.38a.77.77,0,0,1-.31-.31l-.38-.76-.38.76a.75.75,0,0,1-.3.31l-.77.38Z"/></svg>