<svg id="图层_1" data-name="图层 1" xmlns="http://www.w3.org/2000/svg" xmlns:xlink="http://www.w3.org/1999/xlink" viewBox="0 0 95 60"><defs><style>.cls-1{fill:url(#未命名的渐变_344);}.cls-2{fill:url(#未命名的渐变_344-2);}.cls-3{fill:url(#未命名的渐变_344-3);}.cls-4{fill:url(#未命名的渐变_344-4);}.cls-5{fill:url(#未命名的渐变_344-5);}.cls-6{fill:url(#未命名的渐变_344-6);}.cls-7{fill:url(#未命名的渐变_344-7);}.cls-8{fill:url(#未命名的渐变_363);}.cls-9{fill:url(#未命名的渐变_344-8);}.cls-10{fill:url(#未命名的渐变_344-9);}.cls-11{fill:url(#未命名的渐变_344-10);}</style><linearGradient id="未命名的渐变_344" x1="45.67" y1="54.51" x2="45.67" y2="48.43" gradientUnits="userSpaceOnUse"><stop offset="0" stop-color="#e94e47"/><stop offset="1" stop-color="#ed786e"/></linearGradient><linearGradient id="未命名的渐变_344-2" x1="34.45" y1="55.91" x2="34.45" y2="47.24" xlink:href="#未命名的渐变_344"/><linearGradient id="未命名的渐变_344-3" x1="57.39" y1="55.91" x2="57.39" y2="47.24" xlink:href="#未命名的渐变_344"/><linearGradient id="未命名的渐变_344-4" x1="79.06" y1="29.93" x2="66.65" y2="29.93" xlink:href="#未命名的渐变_344"/><linearGradient id="未命名的渐变_344-5" x1="40.2" y1="8.95" x2="51.99" y2="8.95" xlink:href="#未命名的渐变_344"/><linearGradient id="未命名的渐变_344-6" x1="46.1" y1="48.43" x2="46.1" y2="11.12" xlink:href="#未命名的渐变_344"/><linearGradient id="未命名的渐变_344-7" x1="46.1" y1="8.95" x2="46.1" y2="4.09" xlink:href="#未命名的渐变_344"/><linearGradient id="未命名的渐变_363" x1="46.1" y1="14.84" x2="46.1" y2="44.71" gradientUnits="userSpaceOnUse"><stop offset="0" stop-color="#fff"/><stop offset="1" stop-color="#fff" stop-opacity="0.8"/></linearGradient><linearGradient id="未命名的渐变_344-8" x1="46.1" y1="21.53" x2="46.1" y2="41.63" xlink:href="#未命名的渐变_344"/><linearGradient id="未命名的渐变_344-9" x1="46.13" y1="29.72" x2="46.13" y2="33.6" xlink:href="#未命名的渐变_344"/><linearGradient id="未命名的渐变_344-10" x1="46.1" y1="27.93" x2="46.1" y2="19.34" xlink:href="#未命名的渐变_344"/></defs><rect class="cls-1" x="44.33" y="48.43" width="2.68" height="6.08"/><polygon class="cls-2" points="31.47 55.91 36.19 55.91 37.42 47.24 34.83 47.24 31.47 55.91"/><polygon class="cls-3" points="60.37 55.91 55.66 55.91 54.42 47.24 57.01 47.24 60.37 55.91"/><path class="cls-4" d="M76.67,19.34H69a2.38,2.38,0,0,0-2.38,2.39V38.14A2.38,2.38,0,0,0,69,40.53h7.64a2.39,2.39,0,0,0,2.39-2.39V21.73A2.39,2.39,0,0,0,76.67,19.34Zm.13,16.83A1.81,1.81,0,0,1,75,38h-5.8a1.81,1.81,0,0,1-1.82-1.81V23.7a1.81,1.81,0,0,1,1.82-1.81H75A1.81,1.81,0,0,1,76.8,23.7Z"/><rect class="cls-5" x="40.2" y="6.19" width="11.79" height="5.52"/><path class="cls-6" d="M57.6,11.12h-23a18.66,18.66,0,0,0,0,37.31h23a18.66,18.66,0,0,0,0-37.31ZM46.08,41.56A11.63,11.63,0,1,1,57.71,29.93,11.62,11.62,0,0,1,46.08,41.56Z"/><rect class="cls-7" x="37.77" y="4.09" width="16.64" height="4.86" rx="2.43"/><path class="cls-8" d="M56,14.84H36.18c-8.84,0-16.08,6.72-16.08,14.94s7.24,14.93,16.08,14.93H56c8.84,0,16.08-6.72,16.08-14.93S64.85,14.84,56,14.84ZM46.13,41.2A11.28,11.28,0,1,1,57.41,29.92,11.27,11.27,0,0,1,46.13,41.2Z"/><path class="cls-9" d="M54.33,21.83h0l0-.06a.83.83,0,0,0-1.18,0,.84.84,0,0,0,0,1.18l.06.05h0a9.94,9.94,0,1,1-14.08,0h0s0,0,0,0a.84.84,0,0,0,0-1.18.83.83,0,0,0-1.18,0h0a11.61,11.61,0,1,0,16.46,0Z"/><rect class="cls-10" x="44.19" y="29.72" width="3.88" height="3.88" rx="1.94"/><rect class="cls-11" x="44.15" y="19.34" width="3.88" height="8.59" rx="1.94"/></svg>