<svg id="图层_1" data-name="图层 1" xmlns="http://www.w3.org/2000/svg" xmlns:xlink="http://www.w3.org/1999/xlink" viewBox="0 0 95 60"><defs><style>.cls-1{fill:url(#未命名的渐变_344);}.cls-2{fill:url(#未命名的渐变_363);}.cls-3{fill:url(#未命名的渐变_348);}.cls-4{fill:url(#未命名的渐变_348-2);}.cls-5{fill:url(#未命名的渐变_348-3);}.cls-6{fill:url(#未命名的渐变_348-4);}.cls-7{fill:url(#未命名的渐变_348-5);}.cls-8{fill:url(#未命名的渐变_348-6);}.cls-9{fill:url(#未命名的渐变_348-7);}.cls-10{fill:#fff;}.cls-11{fill:url(#未命名的渐变_344-2);}.cls-12{fill:url(#未命名的渐变_344-3);}.cls-13{fill:url(#未命名的渐变_344-4);}</style><linearGradient id="未命名的渐变_344" x1="47.5" y1="42.39" x2="47.5" y2="8.63" gradientUnits="userSpaceOnUse"><stop offset="0" stop-color="#e94e47"/><stop offset="1" stop-color="#ed786e"/></linearGradient><linearGradient id="未命名的渐变_363" x1="47.5" y1="11.9" x2="47.5" y2="39.27" gradientUnits="userSpaceOnUse"><stop offset="0" stop-color="#fff"/><stop offset="1" stop-color="#fff" stop-opacity="0.8"/></linearGradient><linearGradient id="未命名的渐变_348" x1="47.5" y1="42.34" x2="47.5" y2="38.39" gradientUnits="userSpaceOnUse"><stop offset="0.29" stop-color="#eb6267"/><stop offset="1" stop-color="#f0896e"/></linearGradient><linearGradient id="未命名的渐变_348-2" x1="32.69" y1="51.97" x2="32.69" y2="44.35" xlink:href="#未命名的渐变_348"/><linearGradient id="未命名的渐变_348-3" x1="38.61" y1="51.97" x2="38.61" y2="44.35" xlink:href="#未命名的渐变_348"/><linearGradient id="未命名的渐变_348-4" x1="44.54" y1="51.97" x2="44.54" y2="44.35" xlink:href="#未命名的渐变_348"/><linearGradient id="未命名的渐变_348-5" x1="50.46" y1="51.97" x2="50.46" y2="44.35" xlink:href="#未命名的渐变_348"/><linearGradient id="未命名的渐变_348-6" x1="56.39" y1="51.97" x2="56.39" y2="44.35" xlink:href="#未命名的渐变_348"/><linearGradient id="未命名的渐变_348-7" x1="62.32" y1="51.97" x2="62.32" y2="44.35" xlink:href="#未命名的渐变_348"/><linearGradient id="未命名的渐变_344-2" x1="47.47" y1="33.8" x2="47.47" y2="16.08" xlink:href="#未命名的渐变_344"/><linearGradient id="未命名的渐变_344-3" x1="47.5" y1="23.3" x2="47.5" y2="26.73" xlink:href="#未命名的渐变_344"/><linearGradient id="未命名的渐变_344-4" x1="47.47" y1="21.72" x2="47.47" y2="14.15" xlink:href="#未命名的渐变_344"/></defs><path class="cls-1" d="M76.43,10.3a1.67,1.67,0,0,0-1.67-1.67h-54a1.67,1.67,0,0,0-1.67,1.67s-2.51,3.16-2.51,15.21c0,12.31,2.51,15.21,2.51,15.21a1.67,1.67,0,0,0,1.67,1.67H31.37V36.86H64.25v5.53H74.76a1.67,1.67,0,0,0,1.67-1.67s2-1.91,2-15.21C78.42,15.43,76.43,10.3,76.43,10.3Z"/><path class="cls-2" d="M73,13.37a1.47,1.47,0,0,0-1.47-1.47H24a1.47,1.47,0,0,0-1.47,1.47S20.29,15,20.29,25.59c0,10.83,2.21,12.21,2.21,12.21A1.47,1.47,0,0,0,24,39.27h4.42V34.85h38.7v4.42h4.4A1.47,1.47,0,0,0,73,37.8s1.75-.51,1.75-12.21C74.71,16.72,73,13.37,73,13.37Z"/><path class="cls-3" d="M32.69,38.39H62.31a0,0,0,0,1,0,0v1.9a2.05,2.05,0,0,1-2.05,2.05H34.68a2,2,0,0,1-2-2v-2A0,0,0,0,1,32.69,38.39Z"/><rect class="cls-4" x="31.37" y="44.35" width="2.63" height="7.62" rx="1.31"/><rect class="cls-5" x="37.3" y="44.35" width="2.63" height="7.62" rx="1.31"/><rect class="cls-6" x="43.22" y="44.35" width="2.63" height="7.62" rx="1.31"/><rect class="cls-7" x="49.15" y="44.35" width="2.63" height="7.62" rx="1.31"/><rect class="cls-8" x="55.08" y="44.35" width="2.63" height="7.62" rx="1.31"/><rect class="cls-9" x="61" y="44.35" width="2.63" height="7.62" rx="1.31"/><circle class="cls-10" cx="47.5" cy="23.48" r="10.17"/><path class="cls-11" d="M54.73,16.35h0a.1.1,0,0,0,0-.05.73.73,0,0,0-1,0,.74.74,0,0,0,0,1l.05,0h0a8.76,8.76,0,1,1-12.42,0h0a.74.74,0,0,0,0-1,.73.73,0,0,0-1,0h0a10.24,10.24,0,1,0,14.51,0Z"/><rect class="cls-12" x="45.79" y="23.3" width="3.42" height="3.42" rx="1.71"/><rect class="cls-13" x="45.76" y="14.15" width="3.42" height="7.57" rx="1.71"/></svg>