<svg id="图层_1" data-name="图层 1" xmlns="http://www.w3.org/2000/svg" xmlns:xlink="http://www.w3.org/1999/xlink" viewBox="0 0 95 60"><defs><style>.cls-1{fill:#cbe7ee;}.cls-2{fill:url(#未命名的渐变_142);}.cls-3{fill:url(#未命名的渐变_142-2);}.cls-4{fill:#1368a5;}.cls-5{fill:#be2f2d;}.cls-6{fill:url(#未命名的渐变_142-3);}.cls-7{fill:#fff;}</style><linearGradient id="未命名的渐变_142" x1="58.64" y1="46.99" x2="58.64" y2="21.9" gradientUnits="userSpaceOnUse"><stop offset="0" stop-color="#4a80c2"/><stop offset="1" stop-color="#92bae3"/></linearGradient><linearGradient id="未命名的渐变_142-2" x1="45.28" y1="56.12" x2="45.28" y2="4.26" xlink:href="#未命名的渐变_142"/><linearGradient id="未命名的渐变_142-3" x1="31.61" y1="45.95" x2="31.61" y2="34.91" xlink:href="#未命名的渐变_142"/></defs><path class="cls-1" d="M67.22,47.38a22.06,22.06,0,0,1-10.11,2.48,16.33,16.33,0,0,1-5.84-1.12,35.88,35.88,0,0,0-3.67-1.38c-.26,0-.54.26-.91.75A8.55,8.55,0,0,1,44.54,50a2.4,2.4,0,0,1-1.88-.19,17,17,0,0,1-2.41-3.36c0-.1-.48-1.74,0-2.26s1.22-1.56,1.65-2a5.94,5.94,0,0,0,1.16-1.85c0-.07-.54-3-.54-3.81a13.7,13.7,0,0,1,1-5.09,13.26,13.26,0,0,1,2.74-4.24A21.8,21.8,0,0,1,55,21.72a18,18,0,0,1,3.36-.58c1.4-.1,2.78-.16,4.14-.2s2.75-.06,4.11-.13c.55,0,1.09-.08,1.62-.15V6.2H22.37V54H68.18V46.85C67.86,47,67.55,47.21,67.22,47.38Z"/><path class="cls-2" d="M74.54,26.82a18.54,18.54,0,0,0-.44-2.22,5.75,5.75,0,0,0-.85-2,2.25,2.25,0,0,0-3.15-.11l-.53.51-.54.53a4.68,4.68,0,0,1-2,1,14.48,14.48,0,0,1-2.93.42c-1.06.06-2.12.11-3.18.11s-2.12.07-3.2.15a13.79,13.79,0,0,0-2.6.45,16,16,0,0,0-3.64,1.72,16.56,16.56,0,0,0-3.06,2.47,10.28,10.28,0,0,0-2.12,3.28,10.64,10.64,0,0,0-.78,3.94A11.66,11.66,0,0,0,45.66,39a7.72,7.72,0,0,0,.29.78,3.48,3.48,0,0,1,.25.69c0,.22-.18.5-.56.86a13,13,0,0,1-1.21,1,6.7,6.7,0,0,0-1.21,1.17,2,2,0,0,0-.55,1.31.71.71,0,0,0,0,.25c0,.07,0,.13.05.18s0,.1.1.17a1.36,1.36,0,0,1,.1.21,5.86,5.86,0,0,0,.48.76,1.64,1.64,0,0,0,.55.43,2.09,2.09,0,0,0,.91.21,1.54,1.54,0,0,0,1.06-.58,6.33,6.33,0,0,0,.94-1.24,13.6,13.6,0,0,1,.8-1.23c.29-.38.51-.58.71-.58a5.59,5.59,0,0,1,1.72.66c.85.42,1.38.68,1.56.75a15.85,15.85,0,0,0,5.1.84,17.07,17.07,0,0,0,7.82-1.92A20.92,20.92,0,0,0,71,38.92a14.58,14.58,0,0,0,3.28-6.84,22.26,22.26,0,0,0,.35-3.43A11.12,11.12,0,0,0,74.54,26.82ZM66.2,33.57a.91.91,0,0,1-.69.29,12.83,12.83,0,0,0-4.76.78,13.65,13.65,0,0,0-4.07,2.67c-.21.19-.56.52-1,1s-.87.82-1.14,1.06a1,1,0,0,1-.69.29,1,1,0,0,1-1-1,1.08,1.08,0,0,1,.29-.69,20.79,20.79,0,0,1,3.45-3.45,14.24,14.24,0,0,1,4-2,15.23,15.23,0,0,1,4.92-.65.9.9,0,0,1,.69.3,1,1,0,0,1,0,1.42Z"/><path class="cls-3" d="M66.85,19a1.67,1.67,0,0,0,3.33,0V6.94a2.68,2.68,0,0,0-2.69-2.68H23.07a2.68,2.68,0,0,0-2.69,2.68V53.42a2.69,2.69,0,0,0,2.69,2.7H67.49a2.69,2.69,0,0,0,2.69-2.69V47.81a1.67,1.67,0,0,0-3.33,0v5H23.71V7.58H66.85Z"/><path class="cls-4" d="M41.2,27.18a1,1,0,0,1,0-2,1.44,1.44,0,1,0,0-2.88H26.79a1,1,0,0,1,0-2H41.21a3.44,3.44,0,1,1,0,6.87h0Zm-13-9.24a1,1,0,0,1,0-2H39.84a1.44,1.44,0,0,0,0-2.88H36.67a1,1,0,0,1,0-2h3.17a3.44,3.44,0,0,1,0,6.88H28.18Z"/><path class="cls-5" d="M32.38,27.18a.9.9,0,0,1-.77-1,.91.91,0,0,1,.77-1h5a.91.91,0,0,1,.77,1,.9.9,0,0,1-.77,1Z"/><path class="cls-6" d="M31.61,46a5.52,5.52,0,1,1,5.52-5.52A5.52,5.52,0,0,1,31.61,46Z"/><path class="cls-7" d="M31.61,37.39a3,3,0,1,0,3,3h0A3,3,0,0,0,31.61,37.39Z"/></svg>