<svg id="图层_1" data-name="图层 1" xmlns="http://www.w3.org/2000/svg" xmlns:xlink="http://www.w3.org/1999/xlink" viewBox="0 0 95 60"><defs><style>.cls-1{fill:url(#未命名的渐变_53);}.cls-2{fill:url(#未命名的渐变_53-2);}.cls-3{fill:url(#未命名的渐变_53-3);}.cls-4{fill:url(#未命名的渐变_53-4);}.cls-5{fill:url(#未命名的渐变_53-5);}.cls-6{fill:url(#未命名的渐变_53-6);}.cls-7{fill:url(#未命名的渐变_53-7);}.cls-8{fill:url(#未命名的渐变_53-8);}.cls-9{fill:#d86027;}</style><linearGradient id="未命名的渐变_53" x1="47.5" y1="35.07" x2="47.5" y2="27.1" gradientUnits="userSpaceOnUse"><stop offset="0" stop-color="#ee7b49"/><stop offset="1" stop-color="#f29970"/></linearGradient><linearGradient id="未命名的渐变_53-2" x1="47.5" y1="56.28" x2="47.5" y2="52.63" xlink:href="#未命名的渐变_53"/><linearGradient id="未命名的渐变_53-3" x1="47.5" y1="49.35" x2="47.5" y2="12.82" xlink:href="#未命名的渐变_53"/><linearGradient id="未命名的渐变_53-4" x1="47.5" y1="10.95" x2="47.5" y2="0" xlink:href="#未命名的渐变_53"/><linearGradient id="未命名的渐变_53-5" x1="64.28" y1="16.78" x2="64.28" y2="7.84" xlink:href="#未命名的渐变_53"/><linearGradient id="未命名的渐变_53-6" x1="71.03" y1="30.28" x2="71.03" y2="26.63" xlink:href="#未命名的渐变_53"/><linearGradient id="未命名的渐变_53-7" x1="31.08" y1="16.42" x2="31.08" y2="7.84" xlink:href="#未命名的渐变_53"/><linearGradient id="未命名的渐变_53-8" x1="23.97" y1="30.28" x2="23.97" y2="26.63" xlink:href="#未命名的渐变_53"/></defs><circle class="cls-1" cx="47.5" cy="31.08" r="3.98"/><path class="cls-2" d="M67.2,52.63H27.8a1.83,1.83,0,1,0,0,3.65H67.2a1.83,1.83,0,1,0,0-3.65Z"/><path class="cls-3" d="M32.91,49.35H44.6V45a2.88,2.88,0,0,1,2.87-2.87A2.93,2.93,0,0,1,50.4,45v4.32H62.09a1.72,1.72,0,0,0,1.83-1.82V29.28A16.7,16.7,0,0,0,46,12.87c-8.76.36-15,8.39-15,17.14V47.53A1.72,1.72,0,0,0,32.91,49.35ZM47.5,23.94a7.14,7.14,0,1,1-7.14,7.14A7.15,7.15,0,0,1,47.5,23.94Z"/><path class="cls-4" d="M47.5,11a1.72,1.72,0,0,0,1.82-1.83V1.82a1.82,1.82,0,1,0-3.64,0V9.49A1.67,1.67,0,0,0,47.5,11Z"/><path class="cls-5" d="M61.36,16.78a2.2,2.2,0,0,0,1.46-.36L68.3,11a1.81,1.81,0,1,0-2.56-2.56L60.27,13.5a1.76,1.76,0,0,0,0,2.55C60.63,16.42,61,16.78,61.36,16.78Z"/><path class="cls-6" d="M74.86,26.63H67.2a1.83,1.83,0,0,0,0,3.65h7.66a1.83,1.83,0,1,0,0-3.65Z"/><path class="cls-7" d="M32.18,16.05c.36.37.73.37,1.46.37a2.18,2.18,0,0,0,1.46-.37,1.78,1.78,0,0,0,0-2.55L29.62,8.39A1.81,1.81,0,1,0,27.07,11Z"/><path class="cls-8" d="M29.62,28.46a1.72,1.72,0,0,0-1.82-1.83H20.14a1.83,1.83,0,1,0,0,3.65H27.8A2,2,0,0,0,29.62,28.46Z"/><path class="cls-9" d="M67.2,52.63H27.8a1.83,1.83,0,1,0,0,3.65H67.2a1.83,1.83,0,1,0,0-3.65Z"/></svg>