<svg id="图层_1" data-name="图层 1" xmlns="http://www.w3.org/2000/svg" xmlns:xlink="http://www.w3.org/1999/xlink" viewBox="0 0 172 145"><defs><style>.cls-1{fill:#fff;}.cls-2{fill:#be2f2d;}.cls-3{fill:#fdeded;}.cls-4{fill:url(#未命名的渐变_344);}.cls-5{fill:url(#未命名的渐变_344-2);}.cls-6{fill:url(#未命名的渐变_344-3);}.cls-7{fill:url(#未命名的渐变_344-4);}.cls-8{fill:url(#未命名的渐变_344-5);}.cls-9{fill:url(#未命名的渐变_344-6);}.cls-10{fill:url(#未命名的渐变_344-7);}.cls-11{fill:url(#未命名的渐变_348);}.cls-12{fill:url(#未命名的渐变_348-2);}</style><linearGradient id="未命名的渐变_344" x1="100.68" y1="1833.98" x2="100.68" y2="1726.36" gradientTransform="matrix(1, 0, 0, -1, 0, 1837.51)" gradientUnits="userSpaceOnUse"><stop offset="0" stop-color="#e94e47"/><stop offset="1" stop-color="#ed786e"/></linearGradient><linearGradient id="未命名的渐变_344-2" x1="100.68" y1="1807.7" x2="100.68" y2="1770.36" xlink:href="#未命名的渐变_344"/><linearGradient id="未命名的渐变_344-3" x1="80.77" y1="1807.65" x2="80.77" y2="1770.4" xlink:href="#未命名的渐变_344"/><linearGradient id="未命名的渐变_344-4" x1="120.77" y1="1807.65" x2="120.77" y2="1770.4" xlink:href="#未命名的渐变_344"/><linearGradient id="未命名的渐变_344-5" x1="100.68" y1="1763.03" x2="100.68" y2="1750.66" xlink:href="#未命名的渐变_344"/><linearGradient id="未命名的渐变_344-6" x1="100.68" y1="1825.44" x2="100.68" y2="1810.47" xlink:href="#未命名的渐变_344"/><linearGradient id="未命名的渐变_344-7" x1="115.96" y1="1735.1" x2="88.15" y2="1686.94" xlink:href="#未命名的渐变_344"/><linearGradient id="未命名的渐变_348" x1="42.11" y1="141.47" x2="42.11" y2="48.41" gradientUnits="userSpaceOnUse"><stop offset="0.29" stop-color="#eb6267"/><stop offset="1" stop-color="#f0896e"/></linearGradient><linearGradient id="未命名的渐变_348-2" x1="35.32" y1="121.6" x2="48.91" y2="121.6" xlink:href="#未命名的渐变_348"/></defs><path class="cls-1" d="M69.15,73a3.13,3.13,0,0,0,3.14-3.14V64.57a3.14,3.14,0,0,0-6.28,0v5.27A3.06,3.06,0,0,0,69.15,73Z"/><path class="cls-1" d="M132.39,73a3.13,3.13,0,0,0,3.14-3.14V64.57a3.14,3.14,0,0,0-6.28,0v5.27A3.06,3.06,0,0,0,132.39,73Z"/><path class="cls-2" d="M135.53,64.57v5.27a4.83,4.83,0,1,1-9.65,0V64.57a4.83,4.83,0,0,1,9.65,0Z"/><path class="cls-2" d="M75.51,64.57v5.27a4.82,4.82,0,1,1-9.64,0V64.57a4.82,4.82,0,0,1,9.64,0Z"/><path class="cls-3" d="M77,102.92l9,3.69a37.93,37.93,0,0,0,29.05.11l9.4-3.8A9,9,0,0,0,130,94.57V15.89A7.1,7.1,0,0,0,124.6,9l-9-2.22a61.45,61.45,0,0,0-28.73-.1L76.75,9.13A7,7,0,0,0,71.37,16V94.57A9.31,9.31,0,0,0,77,102.92Z"/><path class="cls-4" d="M115.88,5.33l9.19,2.21a8.59,8.59,0,0,1,6.55,8.35V94.57A10.68,10.68,0,0,1,125,104.4l-9.4,3.8a39.64,39.64,0,0,1-30.31-.11l-9-3.69a10.57,10.57,0,0,1-6.55-9.83V16a8.58,8.58,0,0,1,6.65-8.34L86.52,5.22a59.53,59.53,0,0,1,14.37-1.69A64.18,64.18,0,0,1,115.88,5.33ZM87.36,102a33.58,33.58,0,0,0,26,.1l8.78-3.55a6.84,6.84,0,0,0,4.34-6.41V18.64a5.07,5.07,0,0,0-3.85-4.93l-8.38-2.07a57.09,57.09,0,0,0-26.13-.1l-9.47,2.27a5,5,0,0,0-3.94,4.93V92.1A6.9,6.9,0,0,0,79,98.51Z"/><path class="cls-5" d="M90.14,67.15h21.08a3.37,3.37,0,0,0,3.36-3.36V33.18a3.37,3.37,0,0,0-3.36-3.36H90.14a3.38,3.38,0,0,0-3.37,3.36V63.79A3.3,3.3,0,0,0,90.14,67.15Z"/><path class="cls-1" d="M80.91,65.89a1.33,1.33,0,0,1-.61.1,1.62,1.62,0,0,1-1.64-1.64V32.82a1.31,1.31,0,0,1,.1-.61,1.67,1.67,0,0,1,2.15-1l1.83.71A2,2,0,0,1,84,33.64V63.33a1.79,1.79,0,0,1-1.23,1.74Z"/><path class="cls-6" d="M80.77,30.06l1.83.72a3,3,0,0,1,2,2.86V63.33a3.06,3.06,0,0,1-2,2.86l-1.83.72a3.76,3.76,0,0,1-1,.2,2.84,2.84,0,0,1-2.85-2.86V32.82a3.69,3.69,0,0,1,.2-1,3,3,0,0,1,1.53-1.63,2.67,2.67,0,0,1,1.23-.31A2.54,2.54,0,0,1,80.77,30.06Zm-.92,34.6L81.68,64a.7.7,0,0,0,.41-.62V33.53a.56.56,0,0,0-.41-.61l-1.83-.71c-.11-.1-.21,0-.31,0s-.1.1-.2.3V64.25a.48.48,0,0,0,.51.51S80,64.76,79.85,64.66Z"/><path class="cls-1" d="M121.73,65.89a1.31,1.31,0,0,0,.61.1A1.61,1.61,0,0,0,124,64.35V32.82a1.31,1.31,0,0,0-.1-.61,1.65,1.65,0,0,0-2.14-1l-1.84.71a2,2,0,0,0-1.22,1.74V63.33a1.79,1.79,0,0,0,1.22,1.74Z"/><path class="cls-7" d="M121.89,29.86a2.58,2.58,0,0,1,1,.2,3,3,0,0,1,1.53,1.64,3.31,3.31,0,0,1,.21,1V64.25a2.86,2.86,0,0,1-2.86,2.86,3.69,3.69,0,0,1-1-.2l-1.84-.72a3,3,0,0,1-2-2.86V33.64a3.07,3.07,0,0,1,2-2.86l1.94-.72a3.76,3.76,0,0,1,1-.2Zm.31,34.39V32.72c0-.21-.1-.31-.21-.31s-.1-.1-.3,0l-1.84.72a.69.69,0,0,0-.41.61v29.7a.57.57,0,0,0,.41.61l1.84.71h.2A.36.36,0,0,0,122.2,64.25Z"/><path class="cls-1" d="M80.84,85.75a2.57,2.57,0,0,1-.88-.21,2.1,2.1,0,0,1-1-2.74L81.71,77a2.23,2.23,0,0,1,1.87-1.21h34.15A2,2,0,0,1,119.59,77l2.73,5.8a2,2,0,0,1-1.86,3Z"/><path class="cls-8" d="M120.86,76.45l2.63,5.69a3.39,3.39,0,0,1,.33,1.43,3.29,3.29,0,0,1-3.28,3.28H80.91a3,3,0,0,1-1.42-.33,3.24,3.24,0,0,1-1.64-4.38l2.73-5.8a3.49,3.49,0,0,1,3.07-1.86H117.8A3.36,3.36,0,0,1,120.86,76.45Zm-.32,8a.75.75,0,0,0,.76-.77c0-.1-.11-.21-.11-.32l-2.73-5.8a.6.6,0,0,0-.66-.44H83.65a.74.74,0,0,0-.66.44l-2.73,5.8a.75.75,0,0,0,.32,1"/><path class="cls-1" d="M81.68,15.64c.79-.2,3.86-.79,6.84-1.19a97.64,97.64,0,0,1,12.78-1.19,80.38,80.38,0,0,1,17.85,2.28h.2a1.86,1.86,0,0,1,1.68,2v.3l-1.58,6.55a1.9,1.9,0,0,1-1.79,1.38h-34a1.82,1.82,0,0,1-1.79-1.38l-1.48-6.55a1.69,1.69,0,0,1,1.29-2.18Z"/><path class="cls-9" d="M119.34,14.45h.1a3.31,3.31,0,0,1,2.08,1.09,2.89,2.89,0,0,1,.7,2.18c0,.1-.1.3-.1.4l-1.49,6.54a3.06,3.06,0,0,1-3,2.38h-34a3,3,0,0,1-3-2.38l-1.49-6.54a3.13,3.13,0,0,1,2.28-3.67c.89-.2,4.07-.79,6.94-1.19a88.88,88.88,0,0,1,13-1.19A74.8,74.8,0,0,1,119.34,14.45ZM81.67,17a.73.73,0,0,0-.1.49l1.49,6.55a.74.74,0,0,0,.69.49h34a.65.65,0,0,0,.69-.49L120,17.43a.76.76,0,0,0-.2-.5.46.46,0,0,0-.5-.3h-.29a78,78,0,0,0-17.55-2.28,85.21,85.21,0,0,0-12.69,1.19c-2.88.5-6,1-6.74,1.19C81.87,16.83,81.67,16.93,81.67,17Z"/><path class="cls-10" d="M151.14,126.21a6,6,0,0,0-6-6H55.89v11.77h89.52A5.74,5.74,0,0,0,151.14,126.21Zm-65.56-2.85H94.7l2.17,5.4H87.75Zm-.73,5.4H75.73l-2.17-5.4h9.12Zm12.75-5.4h9.12l2.17,5.4H99.77Zm12,0h9.11l2.18,5.4h-9.12Zm12,0h9.11l2.18,5.4h-9.12Zm-61.77,0H70.66l2.17,5.4h-13Zm87.34,2.77a2.63,2.63,0,0,1-2.63,2.63h-8.75l-2.17-5.4h10.78A2.77,2.77,0,0,1,147.21,126.13Z"/><path class="cls-11" d="M51.21,48.41H33a5.13,5.13,0,0,0-5.13,5.13v82.79A5.14,5.14,0,0,0,33,141.47h18.2a5.14,5.14,0,0,0,5.14-5.14V53.54A5.14,5.14,0,0,0,51.21,48.41Zm-9,85.13A11.95,11.95,0,1,1,54.15,121.6,11.94,11.94,0,0,1,42.21,133.54Z"/><path class="cls-12" d="M46.21,119.26v-3.85h2.15v5.87h-5.1v5.09h3.51v-3.76h2.14v6.5H46.77v-.72H35.32v-5.78h2.14v3.76H41v-5.09H35.87v-5.87H38v3.85h3v-5.18h2.3v5.18Z"/></svg>