<svg id="图层_1" data-name="图层 1" xmlns="http://www.w3.org/2000/svg" xmlns:xlink="http://www.w3.org/1999/xlink" viewBox="0 0 95 60"><defs><style>.cls-1{opacity:0.1;fill:url(#未命名的渐变_344);}.cls-2{fill:url(#未命名的渐变_344-2);}.cls-3{fill:url(#未命名的渐变_344-3);}.cls-4{fill:url(#未命名的渐变_344-4);}.cls-5{fill:url(#未命名的渐变_348);}.cls-6{fill:#fff;}.cls-7{fill:url(#未命名的渐变_344-5);}.cls-8{fill:url(#未命名的渐变_344-6);}.cls-9{fill:url(#未命名的渐变_344-7);}</style><linearGradient id="未命名的渐变_344" x1="47.5" y1="54" x2="47.5" y2="6.2" gradientUnits="userSpaceOnUse"><stop offset="0" stop-color="#e94e47"/><stop offset="1" stop-color="#ed786e"/></linearGradient><linearGradient id="未命名的渐变_344-2" y1="56.12" y2="4.26" xlink:href="#未命名的渐变_344"/><linearGradient id="未命名的渐变_344-3" x1="37.44" y1="27.18" x2="37.44" y2="11.06" xlink:href="#未命名的渐变_344"/><linearGradient id="未命名的渐变_344-4" x1="37.1" y1="27.18" x2="37.1" y2="25.19" xlink:href="#未命名的渐变_344"/><linearGradient id="未命名的渐变_348" x1="33.84" y1="45.95" x2="33.84" y2="34.91" gradientUnits="userSpaceOnUse"><stop offset="0.29" stop-color="#eb6267"/><stop offset="1" stop-color="#f0896e"/></linearGradient><linearGradient id="未命名的渐变_344-5" x1="62.72" y1="44.27" x2="62.72" y2="25.06" xlink:href="#未命名的渐变_344"/><linearGradient id="未命名的渐变_344-6" x1="62.76" y1="32.89" x2="62.76" y2="36.6" xlink:href="#未命名的渐变_344"/><linearGradient id="未命名的渐变_344-7" x1="62.72" y1="31.17" x2="62.72" y2="22.97" xlink:href="#未命名的渐变_344"/></defs><path class="cls-1" d="M62.57,49.12A15.42,15.42,0,1,1,70.4,20.45V6.2H24.6V54H70.4V47A15.31,15.31,0,0,1,62.57,49.12Z"/><path class="cls-2" d="M69.07,19a1.67,1.67,0,0,0,3.33,0V6.94a2.68,2.68,0,0,0-2.69-2.68H25.29A2.68,2.68,0,0,0,22.6,6.94V53.42a2.69,2.69,0,0,0,2.69,2.7H69.72a2.69,2.69,0,0,0,2.68-2.69V47.81a1.67,1.67,0,0,0-3.33,0v5H25.93V7.58H69.07Z"/><path class="cls-3" d="M43.42,27.18a1,1,0,0,1,0-2,1.44,1.44,0,1,0,0-2.88H29a1,1,0,0,1,0-2H43.43a3.44,3.44,0,0,1,0,6.87h0Zm-13-9.24a1,1,0,0,1,0-2H42.06a1.44,1.44,0,0,0,0-2.88H38.9a1,1,0,0,1,0-2h3.16a3.44,3.44,0,0,1,0,6.88H30.41Z"/><path class="cls-4" d="M34.6,27.18a.9.9,0,0,1-.76-1,.91.91,0,0,1,.76-1h5a.91.91,0,0,1,.77,1,.9.9,0,0,1-.77,1Z"/><path class="cls-5" d="M33.84,46a5.52,5.52,0,1,1,5.52-5.52A5.53,5.53,0,0,1,33.84,46Z"/><path class="cls-6" d="M33.84,37.39a3,3,0,1,0,3,3h0A3,3,0,0,0,33.84,37.39Z"/><circle class="cls-6" cx="62.76" cy="33.16" r="11.03"/><path class="cls-7" d="M70.6,25.35h0l0-.05a.8.8,0,0,0-1.13,1.13l0,0h0a9.5,9.5,0,1,1-13.46,0h0a.8.8,0,1,0-1.12-1.13h0a11.1,11.1,0,1,0,15.74,0Z"/><rect class="cls-8" x="60.9" y="32.89" width="3.71" height="3.71" rx="1.86"/><rect class="cls-9" x="60.87" y="22.97" width="3.71" height="8.21" rx="1.86"/></svg>