<svg id="图层_1" data-name="图层 1" xmlns="http://www.w3.org/2000/svg" xmlns:xlink="http://www.w3.org/1999/xlink" viewBox="0 0 95 60"><defs><style>.cls-1{fill:url(#未命名的渐变_363);}.cls-2{opacity:0.56;fill:url(#未命名的渐变_348);}.cls-3{fill:url(#未命名的渐变_348-2);}.cls-4{fill:url(#未命名的渐变_363-2);}.cls-5{fill:url(#未命名的渐变_344);}.cls-6{fill:#fff;}.cls-7{fill:url(#未命名的渐变_344-2);}.cls-8{fill:url(#未命名的渐变_344-3);}</style><linearGradient id="未命名的渐变_363" x1="37.06" y1="32.49" x2="61.89" y2="32.49" gradientUnits="userSpaceOnUse"><stop offset="0" stop-color="#fff"/><stop offset="1" stop-color="#fff" stop-opacity="0.8"/></linearGradient><linearGradient id="未命名的渐变_348" x1="46.92" y1="60" x2="46.92" y2="0.01" gradientUnits="userSpaceOnUse"><stop offset="0.29" stop-color="#eb6267"/><stop offset="1" stop-color="#f0896e"/></linearGradient><linearGradient id="未命名的渐变_348-2" x1="49.48" y1="36.31" x2="49.48" y2="5.93" xlink:href="#未命名的渐变_348"/><linearGradient id="未命名的渐变_363-2" x1="44.7" y1="21.02" x2="75.27" y2="21.02" xlink:href="#未命名的渐变_363"/><linearGradient id="未命名的渐变_344" x1="46.61" y1="38.22" x2="46.61" y2="3.83" gradientUnits="userSpaceOnUse"><stop offset="0" stop-color="#e94e47"/><stop offset="1" stop-color="#ed786e"/></linearGradient><linearGradient id="未命名的渐变_344-2" x1="46.68" y1="24.56" x2="46.68" y2="28.17" xlink:href="#未命名的渐变_344"/><linearGradient id="未命名的渐变_344-3" x1="46.68" y1="23.28" x2="46.68" y2="15.29" xlink:href="#未命名的渐变_344"/></defs><path class="cls-1" d="M49.48,47.58a15.38,15.38,0,0,1,0-30.19,15.39,15.39,0,0,1,0,30.19Z"/><path class="cls-2" d="M46.61,49.68a17.2,17.2,0,1,1,17.2-17.19A17.12,17.12,0,0,1,46.61,49.68Zm0-30.57A13.38,13.38,0,1,0,60,32.49,13.29,13.29,0,0,0,46.61,19.11Zm0-7.64A1.8,1.8,0,0,1,44.7,9.56V1.92a1.91,1.91,0,0,1,3.82,0V9.56A1.8,1.8,0,0,1,46.61,11.47Zm0,40.89a1.8,1.8,0,0,1,1.91,1.91v3.82a1.91,1.91,0,1,1-3.82,0V54.27A1.8,1.8,0,0,1,46.6,52.36ZM36.31,49.77a1.85,1.85,0,0,1,0,2.67l-2.68,2.68A1.89,1.89,0,1,1,31,52.44l2.67-2.67A1.86,1.86,0,0,1,36.31,49.77Zm27.82-7.51a1.85,1.85,0,0,0,.55,2.62L67.84,47a1.89,1.89,0,1,0,2.07-3.16l-3.16-2.08A1.85,1.85,0,0,0,64.13,42.26Zm-37-.55-3.16,2.08A1.89,1.89,0,0,0,26,47l3.16-2.07a1.9,1.9,0,0,0-2.08-3.17Zm29.61,8a1.86,1.86,0,0,0,0,2.68L59.38,55a1.89,1.89,0,1,0,2.67-2.67l-2.67-2.68A1.86,1.86,0,0,0,56.7,49.68Z"/><path class="cls-3" d="M49.48,5.93A26.82,26.82,0,0,1,73.36,31.15v1.53a3.63,3.63,0,0,1-3.63,3.63H25.59V31.15A26.82,26.82,0,0,1,49.48,5.93Z"/><path class="cls-4" d="M44.7,5.93a25.73,25.73,0,0,1,3.82-.19A26.83,26.83,0,0,1,75.27,31.15v1.53a3.63,3.63,0,0,1-3.63,3.63H64a3.63,3.63,0,0,0,3.63-3.63V31.15A27.28,27.28,0,0,0,44.7,5.93Z"/><path class="cls-5" d="M69.73,38.22H27.5a1.91,1.91,0,0,1,0-3.82H69.73a1.72,1.72,0,0,0,1.72-1.72V31.34a24.87,24.87,0,0,0-49.68,0V34.4a1.81,1.81,0,0,1-1.91,1.91A1.81,1.81,0,0,1,18,34.4V30.77a28.7,28.7,0,0,1,57.32.38v1.72a5.5,5.5,0,0,1-5.54,5.35Z"/><circle class="cls-6" cx="46.68" cy="22.21" r="10.74"/><rect class="cls-7" x="44.87" y="24.56" width="3.61" height="3.61" rx="1.81"/><rect class="cls-8" x="44.87" y="15.29" width="3.61" height="7.99" rx="1.81"/></svg>