<?xml version="1.0" encoding="utf-8"?>
<!-- Generator: Adobe Illustrator 25.3.1, SVG Export Plug-In . SVG Version: 6.00 Build 0)  -->
<svg version="1.1" id="图层_1" xmlns="http://www.w3.org/2000/svg" xmlns:xlink="http://www.w3.org/1999/xlink" x="0px" y="0px"
	 viewBox="0 0 95 60" style="enable-background:new 0 0 95 60;" xml:space="preserve">
<style type="text/css">
	.st0{fill:#EEE8F1;}
	.st1{fill:url(#SVGID_1_);}
	.st2{fill:url(#SVGID_2_);}
	.st3{fill:url(#SVGID_3_);}
	.st4{fill:#A1CAD2;}
	.st5{fill:url(#SVGID_4_);}
	.st6{fill:#F5E44B;}
	.st7{fill:#6C4B83;}
	.st8{fill:url(#SVGID_5_);}
	.st9{fill:url(#SVGID_6_);}
	.st10{fill:#FFFFFF;}
	.st11{fill:url(#SVGID_7_);}
	.st12{fill:url(#SVGID_8_);}
	.st13{fill:#6C4B82;}
</style>
<path class="st0" d="M61.8,17.1l0.4-0.8c0.1-0.1,0.2-0.3,0.3-0.3l0.8-0.4l-0.8-0.4c-0.1-0.1-0.3-0.2-0.3-0.3L61.8,14l-0.4,0.8
	c-0.1,0.1-0.2,0.3-0.3,0.3l-0.8,0.4l0.8,0.4c0.1,0.1,0.3,0.2,0.3,0.3L61.8,17.1z"/>
<path class="st0" d="M72.6,11H22.4c-0.9,0-1.5,0.7-1.5,1.5l0.1,0l-0.1,34.9c0,0.9,0.7,1.5,1.6,1.6c0,0-0.1,0,0,0h50.2
	c0.9,0,1.5-0.7,1.5-1.5l0,0V12.6C74.2,11.7,73.5,11,72.6,11C72.6,11,72.6,11,72.6,11z M60.7,16.7l-1-0.6h-0.1l-0.1,0l0,0
	c-0.2-0.2-0.2-0.6,0-0.9l0.1-0.1l1-0.6l0,0l0.6-1l0-0.1v-0.1l0.1-0.1c0.3-0.2,0.7-0.1,0.8,0.2c0,0,0,0,0,0l0.6,1l0,0l1,0.6H64
	l0.1,0.1c0,0,0.1,0.1,0.1,0.1c0.2,0.3,0.1,0.7-0.2,0.8c0,0,0,0,0,0l-1,0.6l0,0l-0.6,1v0.1v0.1l-0.1,0.1c-0.3,0.2-0.7,0.1-0.8-0.2
	c0,0,0,0,0,0L60.7,16.7L60.7,16.7z M66,24.9c-2.4,0-4.4-1.7-5-4v-0.1c0-0.1,0-0.3,0-0.4c0.1-0.3,0.5-0.4,0.8-0.3l0.2,0.1
	c0.4,0.2,0.7,0.2,1.1,0.2c2.3-0.1,3.7-1.2,3.7-3.8c0-0.4-0.2-0.9-0.4-1.3v-0.1c0-0.1,0-0.1,0-0.2c0-0.3,0.3-0.5,0.6-0.4h0.1h0.2
	c2.4,0.4,4.1,2.5,4,4.9c0,2.9-2.3,5.2-5.1,5.3C66.1,24.9,66,24.9,66,24.9z"/>
<linearGradient id="SVGID_1_" gradientUnits="userSpaceOnUse" x1="64.03" y1="29.5379" x2="74.17" y2="29.5379" gradientTransform="matrix(1 0 0 -1 0 62)">
	<stop  offset="0" style="stop-color:#B593C2"/>
	<stop  offset="1" style="stop-color:#BD94C2"/>
</linearGradient>
<path class="st1" d="M64.3,36.7c-0.2,0.5,0,1.1,0.5,1.3c0.3,0.1,0.6,0.1,0.9,0l8.5-8.5v-2.7L64.3,36.7z"/>
<linearGradient id="SVGID_2_" gradientUnits="userSpaceOnUse" x1="20.91" y1="32.3161" x2="30.1815" y2="32.3161" gradientTransform="matrix(1 0 0 -1 0 62)">
	<stop  offset="0" style="stop-color:#B593C2"/>
	<stop  offset="1" style="stop-color:#BD94C2"/>
</linearGradient>
<path class="st2" d="M29.9,24.6c-0.4-0.3-1-0.3-1.4,0l-7.6,7.6V35l9-9C30.3,25.6,30.3,25,29.9,24.6z"/>
<linearGradient id="SVGID_3_" gradientUnits="userSpaceOnUse" x1="47.54" y1="10" x2="47.54" y2="54" gradientTransform="matrix(1 0 0 -1 0 62)">
	<stop  offset="0" style="stop-color:#A076B2"/>
	<stop  offset="1" style="stop-color:#BE95C3"/>
</linearGradient>
<path class="st3" d="M73.6,52H21.5c-2.1,0-3.8-1.8-3.8-3.9V11.9c0-2.1,1.7-3.8,3.8-3.9h52.1c2.1,0,3.8,1.8,3.8,3.9v36.3
	C77.4,50.2,75.7,52,73.6,52z M22.7,11.3c-1,0-1.8,0.8-1.8,1.8c0,0,0,0,0,0v33.8c0,1,0.8,1.8,1.8,1.8c0,0,0,0,0,0h49.6
	c1,0,1.8-0.8,1.8-1.8c0,0,0,0,0,0V13.1c0-1-0.8-1.8-1.8-1.8l0,0H22.7z"/>
<polygon class="st4" points="57.8,26.4 57.2,23 37.9,23 37.3,26.4 "/>
<polygon class="st4" points="58.8,31.8 58.1,28.4 37,28.4 36.3,31.8 "/>
<polygon class="st4" points="38.3,21 56.8,21 56.2,17.6 38.9,17.6 "/>
<polygon class="st4" points="60.1,39.2 35,39.2 34.4,42.6 60.7,42.6 "/>
<polygon class="st4" points="34,44.5 33.3,48.7 61.8,48.7 61,44.5 "/>
<polygon class="st4" points="55.9,15.6 55.1,11.3 40,11.3 39.2,15.6 "/>
<polygon class="st4" points="59.7,37.2 59.1,33.8 36,33.8 35.4,37.2 "/>
<linearGradient id="SVGID_4_" gradientUnits="userSpaceOnUse" x1="48.675" y1="30.68" x2="48.675" y2="50.72" gradientTransform="matrix(1 0 0 -1 0 62)">
	<stop  offset="0" style="stop-color:#F49F4A"/>
	<stop  offset="1" style="stop-color:#F7C772"/>
</linearGradient>
<path class="st5" d="M48.3,11.3h0.8v20h-0.8V11.3z"/>
<path class="st6" d="M53.9,48.7H41.3l3-14.9H51L53.9,48.7z"/>
<path class="st7" d="M47.1,11.3H48v20h-0.9L47.1,11.3z"/>
<linearGradient id="SVGID_5_" gradientUnits="userSpaceOnUse" x1="44.295" y1="28.1098" x2="50.785" y2="28.1098" gradientTransform="matrix(1 0 0 -1 0 62)">
	<stop  offset="0" style="stop-color:#EE7B49"/>
	<stop  offset="1" style="stop-color:#F29970"/>
</linearGradient>
<path class="st8" d="M50.8,33.8c0.1,1.8-1.3,3.3-3.1,3.4c-1.8,0.1-3.3-1.3-3.4-3.1c0-0.1,0-0.2,0-0.4c1.5-1.5,1.5-3.2,3.2-3.2
	S49.5,32.1,50.8,33.8z"/>
<linearGradient id="SVGID_6_" gradientUnits="userSpaceOnUse" x1="44.3" y1="31.015" x2="50.79" y2="31.015" gradientTransform="matrix(1 0 0 -1 0 62)">
	<stop  offset="0" style="stop-color:#169ABD"/>
	<stop  offset="1" style="stop-color:#2DBCED"/>
</linearGradient>
<path class="st9" d="M50.8,33.8h-6.5l1.4-5.1c0.1-0.3,0.4-0.6,0.8-0.6h2.2c0.4,0,0.7,0.2,0.8,0.6L50.8,33.8z"/>
<path class="st10" d="M45.6,34.9c-0.2,0.2-0.1,0.6,0.2,0.9s0.7,0.5,0.9,0.3l0,0c0.2-0.2,0.1-0.6-0.2-0.9S45.8,34.7,45.6,34.9z"/>
<circle class="st10" cx="47.5" cy="29.6" r="10"/>
<linearGradient id="SVGID_7_" gradientUnits="userSpaceOnUse" x1="47.5209" y1="22.2256" x2="47.5209" y2="39.7941" gradientTransform="matrix(1 0 0 -1 0 62)">
	<stop  offset="0" style="stop-color:#A076B2"/>
	<stop  offset="1" style="stop-color:#BE95C3"/>
</linearGradient>
<path class="st11" d="M54.7,22.4c-0.3-0.3-0.7-0.3-1,0c-0.3,0.3-0.3,0.7,0,1c0,0,0,0,0,0c3.4,3.4,3.4,9,0,12.3
	c-3.4,3.4-8.9,3.4-12.3,0c-3.4-3.4-3.4-8.9,0-12.3l0,0l0,0c0.3-0.3,0.3-0.7,0-1c-0.3-0.3-0.7-0.3-1,0l0,0c-4,4-3.9,10.4,0,14.3
	s10.4,3.9,14.3,0C58.7,32.8,58.6,26.4,54.7,22.4L54.7,22.4z"/>
<linearGradient id="SVGID_8_" gradientUnits="userSpaceOnUse" x1="47.55" y1="33.75" x2="47.55" y2="41.9586" gradientTransform="matrix(1 0 0 -1 0 62)">
	<stop  offset="0" style="stop-color:#EE7B49"/>
	<stop  offset="1" style="stop-color:#F29970"/>
</linearGradient>
<path class="st12" d="M47.5,28.2c-1.1,0-2.1-0.9-2.1-2.1l0,0v-4.1c0-1.1,0.9-2.1,2.1-2.1c1.1,0,2.1,0.9,2.1,2.1v4.1
	C49.6,27.3,48.7,28.2,47.5,28.2z"/>
<path class="st10" d="M47.5,20.4c0.9,0,1.7,0.8,1.7,1.7v4.1c0,0.9-0.8,1.7-1.7,1.7l0,0c-0.9,0-1.7-0.8-1.7-1.7v-4.1
	C45.9,21.2,46.6,20.4,47.5,20.4L47.5,20.4 M47.5,19.7c-1.3,0-2.4,1.1-2.4,2.4v4.1c0,1.3,1.1,2.4,2.4,2.4c1.3,0,2.4-1.1,2.4-2.4v-4.1
	C50,20.8,48.9,19.7,47.5,19.7z"/>
<path class="st7" d="M49.8,30h-2.2v1.5h2v0.8h-2v2.2h-0.9v-5.4h3.1V30z"/>
<path class="st7" d="M53.8,30h-2.2v1.5h2v0.8h-2v2.2h-0.9v-5.4h3.1V30z"/>
<path class="st13" d="M43.4,34.6c1.3,0,2.4-1.2,2.4-2.7s-1.1-2.7-2.4-2.7c-1.3,0-2.4,1.2-2.4,2.7S42.1,34.6,43.4,34.6z M43.4,29.9
	c1,0,1.7,0.9,1.7,1.9s-0.8,1.9-1.7,1.9c-1,0-1.7-0.9-1.7-1.9S42.5,29.9,43.4,29.9z"/>
</svg>
