<svg id="图层_1" data-name="图层 1" xmlns="http://www.w3.org/2000/svg" xmlns:xlink="http://www.w3.org/1999/xlink" viewBox="0 0 90 90"><defs><style>.cls-1{fill:url(#未命名的渐变_142);}.cls-2{fill:#1368a5;}.cls-3{fill:#f5e44b;}.cls-4{fill:url(#未命名的渐变_355);}.cls-5{fill:#cbe7ee;}</style><linearGradient id="未命名的渐变_142" x1="45.27" y1="68.78" x2="45.27" y2="21.45" gradientUnits="userSpaceOnUse"><stop offset="0" stop-color="#4a80c2"/><stop offset="1" stop-color="#92bae3"/></linearGradient><linearGradient id="未命名的渐变_355" x1="32.1" y1="47.65" x2="64.98" y2="47.65" gradientUnits="userSpaceOnUse"><stop offset="0" stop-color="#fff"/><stop offset="1" stop-color="#fff" stop-opacity="0.9"/></linearGradient></defs><path class="cls-1" d="M58.67,62.18a6.1,6.1,0,0,0,1.94-1.29h0a6.06,6.06,0,0,0,1.31-2l.09-.23h2.14V64a4.61,4.61,0,0,0,.37,1.81,4.53,4.53,0,0,0,1,1.54l.09.08a4.7,4.7,0,0,0,1.45.94,4.56,4.56,0,0,0,1.8.37h2a1.4,1.4,0,0,0,1.39-1.4V46.45a1.39,1.39,0,0,0-1.39-1.39h-2a4.56,4.56,0,0,0-1.8.37l-.08,0A4.66,4.66,0,0,0,64.54,48l0,.08a4.55,4.55,0,0,0-.33,1.73v6.09H62.36a5.89,5.89,0,0,0-.41-1.6,6.2,6.2,0,0,0-1.31-1.95h0a6.28,6.28,0,0,0-2-1.31,6.14,6.14,0,0,0-2.31-.46,5.86,5.86,0,0,0-2,.37l-.86-1.48L66.32,42a3,3,0,0,0,.85-.75,3,3,0,0,0,.49-1,2.75,2.75,0,0,0,.07-1.11,2.71,2.71,0,0,0-.35-1.06l-1.06-1.89a2.81,2.81,0,0,0,.58-.56,3,3,0,0,0,.5-1l0-.08a2.69,2.69,0,0,0,.06-1.06,3,3,0,0,0-.36-1.08l-5.49-9.49-.07-.1a2.63,2.63,0,0,0-.68-.76,2.7,2.7,0,0,0-1-.5,2.86,2.86,0,0,0-1.13-.07,2.71,2.71,0,0,0-1.08.36L19,44.13l0,0a1.35,1.35,0,0,0-.64,1.68,1.52,1.52,0,0,0,.57.78l0,0,1.26.86a1.4,1.4,0,0,0-.31,1.76l5.47,9.44a1.39,1.39,0,0,0,1.9.51l2.95-1.71L31.05,59l.06.09a3,3,0,0,0,.69.76,3,3,0,0,0,1,.49,3,3,0,0,0,1.11.07h0a2.58,2.58,0,0,0,1-.36l16.08-9.27L52,52.43a6,6,0,0,0-1.2,1.85,6.18,6.18,0,0,0-.46,2.31,6,6,0,0,0,.46,2.31,6.13,6.13,0,0,0,1.31,2l.08.08a5.92,5.92,0,0,0,1.88,1.24l.08,0a6,6,0,0,0,2.23.44,5.92,5.92,0,0,0,2.31-.46Z"/><path class="cls-2" d="M67,49.79a2,2,0,0,1,.12-.7l0-.05a2,2,0,0,1,1-1l0,0a2,2,0,0,1,.75-.14h.61V66h-.61a2,2,0,0,1-.74-.14,1.93,1.93,0,0,1-.59-.38l0,0a2,2,0,0,1-.43-.64A2,2,0,0,1,67,64V49.79Z"/><path class="cls-3" d="M27.06,56.14,23.3,49.66l3.95,2.7,1.57,2.76Z"/><path class="cls-4" d="M32.39,55.34a2.62,2.62,0,0,0,.8-.1l.14,0a3.42,3.42,0,0,0,.59-.26L64,37.6c.38.65.78,1.34,1,1.9v0l0,0,0,0L33.6,57.71h-.07l0,0c-.06-.06-.67-1.11-1.39-2.37Z"/><path class="cls-5" d="M55.17,59.64l-.05,0a3.38,3.38,0,0,1-1-.65l-.06-.06a3.1,3.1,0,0,1-.71-1,3.4,3.4,0,0,1,0-2.51,3.42,3.42,0,0,1,.71-1.05h0a3.25,3.25,0,0,1,2.3-.94,3.22,3.22,0,0,1,1.26.24,3.11,3.11,0,0,1,1.06.7h0a3.2,3.2,0,0,1,.94,2.3c0,.15,0,.3,0,.44a.36.36,0,0,0,0,.11,3.4,3.4,0,0,1-.2.71,3.1,3.1,0,0,1-.71,1h0a3.3,3.3,0,0,1-1.05.71,3.41,3.41,0,0,1-1.26.24A3.31,3.31,0,0,1,55.17,59.64Zm3.91-35.42h.08l.05,0v0c1.77,3.18,3.77,6.31,5.49,9.5l0,.06,0,.06a.14.14,0,0,1,0,.06h0c-10.15,5.8-22,13.56-32.18,18.58h0L22.17,45.51,59,24.24Z"/></svg>