<svg id="图层_1" data-name="图层 1" xmlns="http://www.w3.org/2000/svg" xmlns:xlink="http://www.w3.org/1999/xlink" viewBox="0 0 95 60"><defs><style>.cls-1{fill:url(#未命名的渐变_363);}.cls-2{fill:url(#未命名的渐变_235);}.cls-3{fill:url(#未命名的渐变_230);}.cls-4{fill:url(#未命名的渐变_363-2);}.cls-5{fill:#dd9025;}.cls-6{fill:#fff;}.cls-7{fill:url(#未命名的渐变_333);}.cls-8{fill:url(#未命名的渐变_333-2);}</style><linearGradient id="未命名的渐变_363" x1="37.95" y1="32.49" x2="62.78" y2="32.49" gradientUnits="userSpaceOnUse"><stop offset="0" stop-color="#fff"/><stop offset="1" stop-color="#fff" stop-opacity="0.8"/></linearGradient><linearGradient id="未命名的渐变_235" x1="47.81" y1="60" x2="47.81" y2="0.01" gradientUnits="userSpaceOnUse"><stop offset="0.29" stop-color="#f7b36b"/><stop offset="1" stop-color="#f8ca70"/></linearGradient><linearGradient id="未命名的渐变_230" x1="50.37" y1="36.31" x2="50.37" y2="5.93" gradientUnits="userSpaceOnUse"><stop offset="0" stop-color="#f49f4a"/><stop offset="1" stop-color="#f7c772"/></linearGradient><linearGradient id="未命名的渐变_363-2" x1="45.59" y1="21.02" x2="76.16" y2="21.02" xlink:href="#未命名的渐变_363"/><linearGradient id="未命名的渐变_333" x1="43.24" y1="24.8" x2="47.82" y2="23.57" gradientTransform="translate(-0.16 -0.91)" gradientUnits="userSpaceOnUse"><stop offset="0" stop-color="#1d9c6a"/><stop offset="1" stop-color="#40b373"/></linearGradient><linearGradient id="未命名的渐变_333-2" x1="50.79" y1="26.13" x2="48" y2="15.72" gradientTransform="translate(0.21 1.28)" xlink:href="#未命名的渐变_333"/></defs><path class="cls-1" d="M50.37,47.58a15.38,15.38,0,0,1,0-30.19,15.39,15.39,0,0,1,0,30.19Z"/><path class="cls-2" d="M47.5,49.68A17.2,17.2,0,1,1,64.7,32.49,17.13,17.13,0,0,1,47.5,49.68Zm0-30.57A13.38,13.38,0,1,0,60.87,32.49,13.29,13.29,0,0,0,47.5,19.11Zm0-7.64a1.8,1.8,0,0,1-1.91-1.91V1.92a1.91,1.91,0,0,1,3.82,0V9.56A1.8,1.8,0,0,1,47.5,11.47Zm0,40.89a1.8,1.8,0,0,1,1.91,1.91v3.82a1.91,1.91,0,1,1-3.82,0V54.27A1.8,1.8,0,0,1,47.49,52.36ZM37.2,49.77a1.85,1.85,0,0,1,0,2.67l-2.68,2.68a1.89,1.89,0,1,1-2.67-2.68l2.67-2.67A1.86,1.86,0,0,1,37.2,49.77ZM65,42.26a1.85,1.85,0,0,0,.54,2.62L68.73,47a1.89,1.89,0,1,0,2.07-3.16l-3.16-2.08A1.85,1.85,0,0,0,65,42.26Zm-37-.55-3.16,2.08A1.89,1.89,0,0,0,26.9,47l3.16-2.07A1.9,1.9,0,0,0,28,41.71Zm29.61,8a1.86,1.86,0,0,0,0,2.68L60.27,55a1.89,1.89,0,1,0,2.67-2.67l-2.67-2.68A1.86,1.86,0,0,0,57.59,49.68Z"/><path class="cls-3" d="M50.37,5.93A26.82,26.82,0,0,1,74.25,31.15v1.53a3.63,3.63,0,0,1-3.63,3.63H26.48V31.15A26.82,26.82,0,0,1,50.37,5.93Z"/><path class="cls-4" d="M45.59,5.93a25.73,25.73,0,0,1,3.82-.19A26.83,26.83,0,0,1,76.16,31.15v1.53a3.63,3.63,0,0,1-3.63,3.63H64.89a3.63,3.63,0,0,0,3.63-3.63V31.15A27.28,27.28,0,0,0,45.59,5.93Z"/><path class="cls-5" d="M70.62,38.22H28.39a1.91,1.91,0,0,1,0-3.82H70.62a1.72,1.72,0,0,0,1.72-1.72V31.34a24.87,24.87,0,0,0-49.68,0V34.4a1.81,1.81,0,0,1-1.91,1.91,1.81,1.81,0,0,1-1.91-1.91V30.77a28.7,28.7,0,0,1,57.32.38v1.72a5.51,5.51,0,0,1-5.54,5.35Z"/><circle class="cls-6" cx="47.67" cy="22.21" r="10.74"/><rect class="cls-7" x="43.56" y="19.28" width="3.61" height="7.99" rx="1.81" transform="translate(-3.17 38.9) rotate(-45)"/><rect class="cls-8" x="47.8" y="16.69" width="3.61" height="11.03" rx="1.81" transform="translate(30.23 -28.58) rotate(45)"/></svg>