<svg id="图层_1" data-name="图层 1" xmlns="http://www.w3.org/2000/svg" xmlns:xlink="http://www.w3.org/1999/xlink" viewBox="0 0 95 60"><defs><style>.cls-1{fill:url(#未命名的渐变_348);}.cls-2{fill:url(#未命名的渐变_348-2);}.cls-3,.cls-4{opacity:0.3;}.cls-3{fill:url(#未命名的渐变_348-3);}.cls-4{fill:url(#未命名的渐变_348-4);}.cls-5{fill:url(#未命名的渐变_348-5);}.cls-6{fill:#fff;}.cls-7{fill:url(#未命名的渐变_348-6);}.cls-8{fill:url(#未命名的渐变_53);}.cls-9{fill:#087e66;}.cls-10{fill:url(#未命名的渐变_348-7);}.cls-11{fill:url(#未命名的渐变_344);}.cls-12{fill:url(#未命名的渐变_344-2);}</style><linearGradient id="未命名的渐变_348" x1="35.17" y1="55.93" x2="35.17" y2="4.07" gradientUnits="userSpaceOnUse"><stop offset="0.29" stop-color="#eb6267"/><stop offset="1" stop-color="#f0896e"/></linearGradient><linearGradient id="未命名的渐变_348-2" x1="59.82" y1="55.93" x2="59.82" y2="4.07" xlink:href="#未命名的渐变_348"/><linearGradient id="未命名的渐变_348-3" x1="24.79" y1="30.02" x2="45.53" y2="30.02" xlink:href="#未命名的渐变_348"/><linearGradient id="未命名的渐变_348-4" x1="49.37" y1="30.02" x2="70.11" y2="30.02" xlink:href="#未命名的渐变_348"/><linearGradient id="未命名的渐变_348-5" x1="31.33" y1="20.08" x2="38.47" y2="20.08" xlink:href="#未命名的渐变_348"/><linearGradient id="未命名的渐变_348-6" x1="29.37" y1="34.65" x2="40.43" y2="34.65" xlink:href="#未命名的渐变_348"/><linearGradient id="未命名的渐变_53" x1="55.59" y1="-733.92" x2="64.04" y2="-733.92" gradientTransform="matrix(1, 0, 0, -1, 0, -711.1)" gradientUnits="userSpaceOnUse"><stop offset="0" stop-color="#ee7b49"/><stop offset="1" stop-color="#f29970"/></linearGradient><linearGradient id="未命名的渐变_348-7" x1="47.5" y1="43.29" x2="47.5" y2="16.74" xlink:href="#未命名的渐变_348"/><linearGradient id="未命名的渐变_344" x1="47.5" y1="32.39" x2="47.5" y2="36.18" gradientUnits="userSpaceOnUse"><stop offset="0" stop-color="#e94e47"/><stop offset="1" stop-color="#ed786e"/></linearGradient><linearGradient id="未命名的渐变_344-2" x1="47.5" y1="31.04" x2="47.5" y2="22.65" xlink:href="#未命名的渐变_344"/></defs><path class="cls-1" d="M48.77,53.46l-.1-46.92V5.3a1.24,1.24,0,0,0-1.23-1.23H29.29a7.72,7.72,0,0,0-7.72,7.72V48.18a7.75,7.75,0,0,0,7.72,7.75H47.53a1.13,1.13,0,0,0,.87-.37,1.26,1.26,0,0,0,.37-.86ZM29.68,51.88A4.92,4.92,0,0,1,24.79,47V13a4.89,4.89,0,0,1,4.89-4.89H45.49l.06,43.73Z"/><path class="cls-2" d="M65.71,4.07H47.44a1.13,1.13,0,0,0-.87.37,1.41,1.41,0,0,0-.37.86l.1,48.16V54.7a1.24,1.24,0,0,0,1.23,1.23H65.71a7.73,7.73,0,0,0,7.72-7.75V11.82A7.75,7.75,0,0,0,65.71,4.07Zm4.44,42.78a4.89,4.89,0,0,1-4.87,4.89H49.57L49.49,8.26H65.25a4.86,4.86,0,0,1,4.87,4.86V46.85Z"/><path class="cls-3" d="M45.45,8.15H29.68A4.89,4.89,0,0,0,24.79,13V47a4.91,4.91,0,0,0,4.89,4.92H45.53Z"/><path class="cls-4" d="M49.37,51.88H65.22A4.91,4.91,0,0,0,70.11,47V13a4.89,4.89,0,0,0-4.89-4.89H49.45Z"/><path class="cls-5" d="M34.9,23.65a3.57,3.57,0,1,1,3.57-3.57,3.6,3.6,0,0,1-3.57,3.57Z"/><path class="cls-6" d="M34.9,17.51a2.57,2.57,0,1,1-2.57,2.57,2.58,2.58,0,0,1,2.57-2.57m0-2a4.57,4.57,0,1,0,4.57,4.57,4.58,4.58,0,0,0-4.57-4.57Z"/><path class="cls-7" d="M34.11,45.3a2,2,0,0,1-1.94-1.77L31.57,35l-1-.38a1.91,1.91,0,0,1-1.21-2l.54-5.25A3.78,3.78,0,0,1,33.66,24H36.1a3.77,3.77,0,0,1,3.75,3.4l.58,5.21a2,2,0,0,1-1.15,2L38.19,35l-.66,8.5a2,2,0,0,1-1.94,1.79Z"/><path class="cls-6" d="M36.1,25a2.78,2.78,0,0,1,2.75,2.5l.58,5.22a1,1,0,0,1-.58,1l-1.34.51a.41.41,0,0,0-.29.39l-.69,8.84a1,1,0,0,1-.94.87H34.11a1,1,0,0,1-1-.87l-.61-8.84a.48.48,0,0,0-.29-.39L31,33.69a.9.9,0,0,1-.58-.95l.54-5.25A2.78,2.78,0,0,1,33.67,25H36.1m0-2H33.67a4.78,4.78,0,0,0-4.74,4.29l-.54,5.26a2.9,2.9,0,0,0,1.86,3l.37.14.55,7.87v.07a3,3,0,0,0,2.89,2.66h1.53a3,3,0,0,0,2.94-2.71l.61-7.87.42-.16.07,0,.07,0a3,3,0,0,0,1.73-2.93v-.08l-.58-5.22A4.76,4.76,0,0,0,36.1,23Z"/><path class="cls-8" d="M57.14,26.56a1.5,1.5,0,0,1-.81-.23,1.53,1.53,0,0,1-.51-2.12l2.66-4.39a1.57,1.57,0,0,1,1.33-.74,1.54,1.54,0,0,1,1.33.75l2.67,4.38a1.54,1.54,0,0,1-1.3,2.35H57.14Z"/><path class="cls-6" d="M59.81,20.08a.54.54,0,0,1,.47.26L63,24.73A.57.57,0,0,1,63,25a.54.54,0,0,1-.54.54H57.14a.6.6,0,0,1-.29-.08.54.54,0,0,1-.18-.75l2.66-4.39a.59.59,0,0,1,.48-.26m0-2a2.57,2.57,0,0,0-2.14,1.15l0,0,0,0L55,23.69a2.55,2.55,0,0,0,2.17,3.87H62.5a2.55,2.55,0,0,0,2.16-3.89L62,19.3a2.51,2.51,0,0,0-2.18-1.22Z"/><path class="cls-9" d="M59.83,41.21a1.53,1.53,0,0,1-1.32-.75l-2.68-4.39a1.6,1.6,0,0,1-.23-.84,1.55,1.55,0,0,1,1.54-1.51h5.35a1.59,1.59,0,0,1,.82.23,1.55,1.55,0,0,1,.49,2.13l-2.63,4.38A1.6,1.6,0,0,1,59.83,41.21Z"/><path class="cls-6" d="M57.14,34.72h5.35a.6.6,0,0,1,.29.08.55.55,0,0,1,.17.75l-2.63,4.39a.58.58,0,0,1-.49.27.52.52,0,0,1-.46-.27l-2.68-4.39a.53.53,0,0,1-.09-.3.55.55,0,0,1,.54-.53m0-2a2.56,2.56,0,0,0-2.54,2.49,2.52,2.52,0,0,0,.4,1.42L57.66,41a2.54,2.54,0,0,0,2.17,1.22A2.58,2.58,0,0,0,62,41.05l0,0,0,0,2.63-4.39A2.48,2.48,0,0,0,65,34.69a2.57,2.57,0,0,0-1.13-1.58,2.49,2.49,0,0,0-1.34-.39H57.14Z"/><circle class="cls-6" cx="47.5" cy="30.02" r="11.28"/><path class="cls-10" d="M47.5,18.74A11.28,11.28,0,1,1,36.22,30,11.28,11.28,0,0,1,47.5,18.74m0-2A13.28,13.28,0,1,0,60.78,30,13.29,13.29,0,0,0,47.5,16.74Z"/><rect class="cls-11" x="45.6" y="32.39" width="3.79" height="3.79" rx="1.9"/><rect class="cls-12" x="45.6" y="22.65" width="3.79" height="8.39" rx="1.9"/></svg>