<svg id="图层_1" data-name="图层 1" xmlns="http://www.w3.org/2000/svg" xmlns:xlink="http://www.w3.org/1999/xlink" viewBox="0 0 90 90"><defs><style>.cls-1{fill:#fff;}.cls-2{fill:#be2f2d;}.cls-3{fill:#fdeded;}.cls-4{fill:url(#未命名的渐变_344);}.cls-5{fill:url(#未命名的渐变_344-2);}.cls-6{fill:url(#未命名的渐变_344-3);}.cls-7{fill:url(#未命名的渐变_344-4);}.cls-8{fill:url(#未命名的渐变_344-5);}.cls-9{fill:url(#未命名的渐变_344-6);}.cls-10{fill:url(#未命名的渐变_348);}.cls-11{fill:url(#未命名的渐变_344-7);}</style><linearGradient id="未命名的渐变_344" x1="49.26" y1="70.27" x2="49.26" y2="30.48" gradientUnits="userSpaceOnUse"><stop offset="0" stop-color="#e94e47"/><stop offset="1" stop-color="#ed786e"/></linearGradient><linearGradient id="未命名的渐变_344-2" x1="49.26" y1="60.55" x2="49.26" y2="46.75" xlink:href="#未命名的渐变_344"/><linearGradient id="未命名的渐变_344-3" x1="41.9" y1="60.54" x2="41.9" y2="46.76" xlink:href="#未命名的渐变_344"/><linearGradient id="未命名的渐变_344-4" x1="56.69" y1="60.54" x2="56.69" y2="46.76" xlink:href="#未命名的渐变_344"/><linearGradient id="未命名的渐变_344-5" x1="49.26" y1="44.04" x2="49.26" y2="39.47" xlink:href="#未命名的渐变_344"/><linearGradient id="未命名的渐变_344-6" x1="49.26" y1="67.12" x2="49.26" y2="61.58" xlink:href="#未命名的渐变_344"/><linearGradient id="未命名的渐变_348" x1="26.85" y1="55.85" x2="26.85" y2="19.73" gradientUnits="userSpaceOnUse"><stop offset="0.29" stop-color="#eb6267"/><stop offset="1" stop-color="#f0896e"/></linearGradient><linearGradient id="未命名的渐变_344-7" x1="55.52" y1="34.89" x2="44.72" y2="16.19" xlink:href="#未命名的渐变_344"/></defs><path class="cls-1" d="M37.6,44.59a1.16,1.16,0,0,1,1.16,1.16v2a1.16,1.16,0,1,1-2.32,0v-2A1.14,1.14,0,0,1,37.6,44.59Z"/><path class="cls-1" d="M61,44.59a1.15,1.15,0,0,1,1.16,1.16v2A1.15,1.15,0,0,1,61,48.86a1.16,1.16,0,0,1-1.16-1.16v-2A1.14,1.14,0,0,1,61,44.59Z"/><path class="cls-2" d="M60.36,49.48a1.76,1.76,0,0,1-1.78-1.78v-2a1.78,1.78,0,0,1,3.56,0v2A1.76,1.76,0,0,1,60.36,49.48Z"/><path class="cls-2" d="M38.17,49.48a1.76,1.76,0,0,1-1.78-1.78v-2a1.78,1.78,0,0,1,3.56,0v2A1.76,1.76,0,0,1,38.17,49.48Z"/><path class="cls-3" d="M40.49,33.52l3.32-1.36a14,14,0,0,1,10.74,0L58,33.52a3.33,3.33,0,0,1,2.06,3.09V65.7a2.62,2.62,0,0,1-2,2.54l-3.32.82a22.69,22.69,0,0,1-10.62,0l-3.75-.9a2.58,2.58,0,0,1-2-2.53V36.61A3.45,3.45,0,0,1,40.49,33.52Z"/><path class="cls-4" d="M49.34,70.27A22,22,0,0,1,44,69.65l-3.75-.9a3.17,3.17,0,0,1-2.46-3.08V36.61A3.9,3.9,0,0,1,40.24,33l3.32-1.37a14.68,14.68,0,0,1,11.2,0L58.24,33a3.94,3.94,0,0,1,2.46,3.63V65.7a3.18,3.18,0,0,1-2.42,3.09l-3.4.82A23.92,23.92,0,0,1,49.34,70.27ZM41.23,35.15a2.56,2.56,0,0,0-1.56,2.37V64.65a1.83,1.83,0,0,0,1.46,1.82l3.5.84a21,21,0,0,0,9.66,0l3.1-.76a1.87,1.87,0,0,0,1.42-1.82V37.52a2.53,2.53,0,0,0-1.61-2.37L54,33.84a12.38,12.38,0,0,0-9.63,0Z"/><path class="cls-5" d="M45.36,46.75h7.79A1.25,1.25,0,0,1,54.4,48V59.31a1.24,1.24,0,0,1-1.25,1.24H45.36a1.25,1.25,0,0,1-1.24-1.24V48A1.22,1.22,0,0,1,45.36,46.75Z"/><path class="cls-1" d="M42,47.22a.47.47,0,0,0-.23,0,.59.59,0,0,0-.6.6V59.44a.47.47,0,0,0,0,.23.62.62,0,0,0,.79.38l.68-.27a.73.73,0,0,0,.45-.64v-11a.66.66,0,0,0-.45-.64Z"/><path class="cls-6" d="M41.56,60.54a1,1,0,0,1-.46-.12,1.07,1.07,0,0,1-.56-.6,1.23,1.23,0,0,1-.08-.38V47.82a1.06,1.06,0,0,1,1.06-1.06,1.36,1.36,0,0,1,.38.08l.67.26a1.14,1.14,0,0,1,.76,1.06v11a1.1,1.1,0,0,1-.76,1.06l-.67.26A.89.89,0,0,1,41.56,60.54Zm0-12.91a.18.18,0,0,0-.19.19V59.56c0,.07.07.07.07.11s.08,0,.12,0l.67-.26a.21.21,0,0,0,.16-.23v-11a.27.27,0,0,0-.16-.23l-.67-.26S41.56,47.63,41.56,47.63Z"/><path class="cls-1" d="M57,47.22a.47.47,0,0,1,.23,0,.59.59,0,0,1,.6.6V59.44a.47.47,0,0,1,0,.23.62.62,0,0,1-.79.38l-.68-.27a.73.73,0,0,1-.45-.64v-11a.66.66,0,0,1,.45-.64Z"/><path class="cls-7" d="M57.1,60.54a1.23,1.23,0,0,1-.37-.08L56,60.2a1.15,1.15,0,0,1-.76-1.06v-11A1.11,1.11,0,0,1,56,47.1l.68-.26a1.23,1.23,0,0,1,.38-.08,1.05,1.05,0,0,1,1,1.06V59.48a1.69,1.69,0,0,1-.07.38,1.15,1.15,0,0,1-.57.6.94.94,0,0,1-.38.08Zm0-12.91H57l-.68.27c-.12,0-.15.11-.15.22v11a.25.25,0,0,0,.15.23l.68.26a.09.09,0,0,0,.11,0s.08,0,.08-.11V47.82A.14.14,0,0,0,57.1,47.63Z"/><path class="cls-1" d="M41.92,39.87a.94.94,0,0,0-.32.08.77.77,0,0,0-.37,1l1,2.15a.81.81,0,0,0,.68.44H55.56a.74.74,0,0,0,.69-.44l1-2.15a.75.75,0,0,0,.08-.32.76.76,0,0,0-.77-.77Z"/><path class="cls-8" d="M55.59,44H43a1.27,1.27,0,0,1-1.13-.69l-1-2.14a1.19,1.19,0,0,1,.6-1.62,1.18,1.18,0,0,1,.53-.12H56.6a1.22,1.22,0,0,1,1.22,1.21,1.33,1.33,0,0,1-.13.53l-1,2.1A1.24,1.24,0,0,1,55.59,44ZM41.83,40.4a.27.27,0,0,0-.12.36l1,2.15a.27.27,0,0,0,.24.16H55.59a.22.22,0,0,0,.24-.16l1-2.15s0-.08,0-.12a.27.27,0,0,0-.28-.28"/><path class="cls-1" d="M42.23,65.8c.3.07,1.43.29,2.53.44a37.23,37.23,0,0,0,4.73.44,29.58,29.58,0,0,0,6.6-.85h.07a.67.67,0,0,0,.62-.73V65l-.58-2.42a.72.72,0,0,0-.66-.51H43a.66.66,0,0,0-.65.51L41.76,65a.63.63,0,0,0,.47.81Z"/><path class="cls-9" d="M49.52,67.12a33.18,33.18,0,0,1-4.8-.44c-1.06-.15-2.23-.37-2.56-.44a1.17,1.17,0,0,1-.85-1.36l.55-2.42a1.11,1.11,0,0,1,1.1-.88H55.54a1.14,1.14,0,0,1,1.1.88l.55,2.42s0,.11,0,.15a1.06,1.06,0,0,1-.25.8,1.27,1.27,0,0,1-.77.41h0A27.91,27.91,0,0,1,49.52,67.12Zm-7.14-1.73c.25.08,1.43.26,2.49.44a30.55,30.55,0,0,0,4.69.44,28.69,28.69,0,0,0,6.49-.84h.11a.16.16,0,0,0,.18-.11.27.27,0,0,0,.08-.18l-.59-2.46a.25.25,0,0,0-.26-.18H43a.28.28,0,0,0-.26.18l-.55,2.42c0,.07,0,.15,0,.18S42.3,65.36,42.38,65.39Z"/><path class="cls-10" d="M30.38,19.73H23.32a2,2,0,0,0-2,2V53.86a2,2,0,0,0,2,2h7.06a2,2,0,0,0,2-2V21.72A2,2,0,0,0,30.38,19.73ZM26.85,30.79a3.35,3.35,0,1,1,3.35-3.35A3.34,3.34,0,0,1,26.85,30.79Z"/><path class="cls-11" d="M67,23.42H32.2V28H66.83a2.35,2.35,0,0,0,2.35-2.34A2.23,2.23,0,0,0,67,23.42ZM44.57,24.66h3.54l-.85,2.1H43.72Zm-2,2.1H39.06l.84-2.1h3.54Zm6.63-2.1h3.54l-.84,2.1H48.39Zm4.67,0h3.54l-.84,2.1H53.06Zm4.66,0H62.1l-.84,2.1H57.72Zm-24.82,0h5l-.84,2.1H33.74Zm32.83,2.1H62.39l.84-2.1h3.4a1,1,0,0,1,1,1A1.08,1.08,0,0,1,66.57,26.76Z"/></svg>