<?xml version="1.0" encoding="utf-8"?>
<!-- Generator: Adobe Illustrator 25.3.1, SVG Export Plug-In . SVG Version: 6.00 Build 0)  -->
<svg version="1.1" id="图层_1" xmlns="http://www.w3.org/2000/svg" xmlns:xlink="http://www.w3.org/1999/xlink" x="0px" y="0px"
	 viewBox="0 0 95 60" style="enable-background:new 0 0 95 60;" xml:space="preserve">
<style type="text/css">
	.st0{fill:url(#SVGID_1_);}
	.st1{fill:url(#SVGID_2_);}
	.st2{fill:url(#SVGID_3_);}
	.st3{fill:url(#SVGID_4_);}
	.st4{fill:url(#SVGID_5_);}
	.st5{fill:#D86027;}
	.st6{fill:url(#SVGID_6_);}
	.st7{fill:url(#SVGID_7_);}
	.st8{fill:#D76027;}
</style>
<linearGradient id="SVGID_1_" gradientUnits="userSpaceOnUse" x1="48.95" y1="22.95" x2="48.95" y2="12" gradientTransform="matrix(1 0 0 1 0 -12)">
	<stop  offset="0" style="stop-color:#EE7B49"/>
	<stop  offset="1" style="stop-color:#F29970"/>
</linearGradient>
<path class="st0" d="M49,11c0.9,0.1,1.8-0.7,1.8-1.6c0-0.1,0-0.1,0-0.2V1.8c-0.1-1-1-1.8-2-1.7c-0.9,0.1-1.6,0.8-1.7,1.7v7.7
	C47.3,10.4,48.1,11.1,49,11L49,11z"/>
<linearGradient id="SVGID_2_" gradientUnits="userSpaceOnUse" x1="65.8149" y1="28.78" x2="65.8149" y2="19.84" gradientTransform="matrix(1 0 0 1 0 -12)">
	<stop  offset="0" style="stop-color:#EE7B49"/>
	<stop  offset="1" style="stop-color:#F29970"/>
</linearGradient>
<path class="st1" d="M62.9,16.8c0.5,0.1,1-0.1,1.5-0.4l5.5-5.4c0.7-0.7,0.6-1.9-0.2-2.6c-0.7-0.6-1.7-0.6-2.4,0l-5.5,5.1
	c-0.7,0.7-0.7,1.8-0.1,2.5c0,0,0,0,0.1,0.1C62.2,16.4,62.5,16.8,62.9,16.8z"/>
<linearGradient id="SVGID_3_" gradientUnits="userSpaceOnUse" x1="72.7" y1="42.28" x2="72.7" y2="38.63" gradientTransform="matrix(1 0 0 1 0 -12)">
	<stop  offset="0" style="stop-color:#EE7B49"/>
	<stop  offset="1" style="stop-color:#F29970"/>
</linearGradient>
<path class="st2" d="M76.4,26.6h-7.7c-1,0.1-1.8,1-1.7,2c0.1,0.9,0.8,1.6,1.7,1.7h7.7c1,0.1,1.9-0.7,2-1.7s-0.7-1.9-1.7-2
	C76.6,26.6,76.5,26.6,76.4,26.6z"/>
<linearGradient id="SVGID_4_" gradientUnits="userSpaceOnUse" x1="32.6566" y1="28.426" x2="32.6566" y2="19.846" gradientTransform="matrix(1 0 0 1 0 -12)">
	<stop  offset="0" style="stop-color:#EE7B49"/>
	<stop  offset="1" style="stop-color:#F29970"/>
</linearGradient>
<path class="st3" d="M33.7,16c0.4,0.4,0.7,0.4,1.5,0.4c0.5,0.1,1-0.1,1.5-0.4c0.7-0.7,0.7-1.8,0.1-2.5c0,0,0,0-0.1-0.1l-5.5-5.1
	c-0.7-0.7-1.9-0.7-2.6,0s-0.7,1.9,0,2.6L33.7,16z"/>
<linearGradient id="SVGID_5_" gradientUnits="userSpaceOnUse" x1="25.5" y1="42.28" x2="25.5" y2="38.6269" gradientTransform="matrix(1 0 0 1 0 -12)">
	<stop  offset="0" style="stop-color:#EE7B49"/>
	<stop  offset="1" style="stop-color:#F29970"/>
</linearGradient>
<path class="st4" d="M31.1,28.5c0.1-0.9-0.7-1.8-1.6-1.8c-0.1,0-0.1,0-0.2,0h-7.7c-1,0.1-1.8,1-1.7,2c0.1,0.9,0.8,1.6,1.7,1.7h7.7
	C30.3,30.2,31.1,29.4,31.1,28.5z"/>
<path class="st5" d="M68.7,52.6H29.3c-1-0.1-1.9,0.7-2,1.7s0.7,1.9,1.7,2c0.1,0,0.2,0,0.3,0h39.4c1-0.1,1.8-1,1.7-2
	C70.3,53.4,69.6,52.7,68.7,52.6z"/>
<linearGradient id="SVGID_6_" gradientUnits="userSpaceOnUse" x1="48.8968" y1="61.3085" x2="48.8968" y2="24.8377" gradientTransform="matrix(1 0 0 1 0 -12)">
	<stop  offset="0" style="stop-color:#EE7B49"/>
	<stop  offset="1" style="stop-color:#F29970"/>
</linearGradient>
<path class="st6" d="M34.4,49.3h11.7V45c0-1.6,1.3-2.9,2.8-2.9l0,0c1.6,0,2.9,1.3,2.9,2.9v4.3h11.7c0.9,0.1,1.8-0.7,1.8-1.6
	c0-0.1,0-0.1,0-0.2V29.3c-0.1-9.2-7.7-16.6-16.9-16.5c-0.3,0-0.6,0-0.9,0c-8.8,0.4-15,8.4-15,17.1v17.5
	C32.4,48.3,33.5,49.3,34.4,49.3L34.4,49.3z M48.8,18.8C55,18.8,60,23.8,60,30s-5,11.2-11.1,11.2c-6.2,0-11.2-5-11.2-11.1l0,0
	C37.7,23.8,42.7,18.8,48.8,18.8z"/>
<path class="st5" d="M56.7,21.9c-0.3-0.3-0.8-0.3-1.1,0l0,0c-0.3,0.3-0.3,0.8,0,1.1l0,0l0,0c3.7,3.8,3.7,9.8,0,13.7s-9.8,3.7-13.7,0
	c-3.7-3.7-3.7-9.8,0-13.7l0,0c0.3-0.3,0.3-0.8,0-1.1s-0.8-0.3-1.1,0l0,0l0,0l0,0c-4.4,4.4-4.4,11.5,0,16s11.5,4.4,16,0
	C61.1,33.5,61.1,26.2,56.7,21.9L56.7,21.9z"/>
<path class="st5" d="M54,35.6h-0.8l-2.7-4v4h-0.9v-5.4h0.9l2.7,3.8v-3.8H54V35.6z"/>
<linearGradient id="SVGID_7_" gradientUnits="userSpaceOnUse" x1="48.8" y1="39.92" x2="48.8" y2="31.62" gradientTransform="matrix(1 0 0 1 0 -12)">
	<stop  offset="0" style="stop-color:#F49F4A"/>
	<stop  offset="1" style="stop-color:#F7C772"/>
</linearGradient>
<path class="st7" d="M48.8,19.6L48.8,19.6c1,0,1.9,0.8,1.9,1.9V26c0,1-0.8,1.9-1.9,1.9l0,0c-1,0-1.9-0.8-1.9-1.9v-4.5
	C46.9,20.5,47.8,19.6,48.8,19.6z"/>
<path class="st8" d="M45.7,36c1.5,0,2.7-1.3,2.7-3.1c0-1.7-1.2-3.1-2.7-3.1S43,31.2,43,32.9C43,34.7,44.2,36,45.7,36z M45.7,30.8
	c1.1,0,1.9,1,1.9,2.2s-0.9,2.2-1.9,2.2s-1.9-1-1.9-2.2S44.7,30.8,45.7,30.8z"/>
</svg>
