<svg id="图层_1" data-name="图层 1" xmlns="http://www.w3.org/2000/svg" xmlns:xlink="http://www.w3.org/1999/xlink" viewBox="0 0 95 60"><defs><style>.cls-1{fill:url(#未命名的渐变_190);}.cls-2{fill:url(#未命名的渐变_190-2);}.cls-3{fill:url(#未命名的渐变_190-3);}.cls-4{fill:#6c4b83;}.cls-5{fill:url(#未命名的渐变_205);}.cls-6{fill:#e1d0e6;}.cls-7{fill:url(#未命名的渐变_190-4);}.cls-8{fill:url(#未命名的渐变_230);}</style><linearGradient id="未命名的渐变_190" x1="45.65" y1="54.51" x2="45.65" y2="48.43" gradientUnits="userSpaceOnUse"><stop offset="0" stop-color="#a076b2"/><stop offset="1" stop-color="#be95c3"/></linearGradient><linearGradient id="未命名的渐变_190-2" x1="34.43" y1="55.91" x2="34.43" y2="47.24" xlink:href="#未命名的渐变_190"/><linearGradient id="未命名的渐变_190-3" x1="57.37" y1="55.91" x2="57.37" y2="47.24" xlink:href="#未命名的渐变_190"/><linearGradient id="未命名的渐变_205" x1="46.08" y1="48.43" x2="46.08" y2="11.12" gradientUnits="userSpaceOnUse"><stop offset="0" stop-color="#b593c2"/><stop offset="1" stop-color="#bd94c2"/></linearGradient><linearGradient id="未命名的渐变_190-4" x1="37.75" y1="6.52" x2="54.4" y2="6.52" xlink:href="#未命名的渐变_190"/><linearGradient id="未命名的渐变_230" x1="46.08" y1="36.56" x2="46.08" y2="23.24" gradientUnits="userSpaceOnUse"><stop offset="0" stop-color="#f49f4a"/><stop offset="1" stop-color="#f7c772"/></linearGradient></defs><rect class="cls-1" x="44.31" y="48.43" width="2.68" height="6.08"/><polygon class="cls-2" points="31.45 55.91 36.17 55.91 37.4 47.24 34.81 47.24 31.45 55.91"/><polygon class="cls-3" points="60.35 55.91 55.63 55.91 54.4 47.24 56.99 47.24 60.35 55.91"/><path class="cls-4" d="M76.65,19.34H69a2.39,2.39,0,0,0-2.39,2.39V38.14A2.39,2.39,0,0,0,69,40.53h7.64A2.39,2.39,0,0,0,79,38.14V21.73A2.39,2.39,0,0,0,76.65,19.34Zm.13,16.83A1.81,1.81,0,0,1,75,38h-5.8a1.81,1.81,0,0,1-1.82-1.81V23.7a1.81,1.81,0,0,1,1.82-1.81H75a1.81,1.81,0,0,1,1.81,1.81Z"/><rect class="cls-4" x="40.18" y="6.19" width="11.79" height="5.52"/><path class="cls-5" d="M57.58,11.12h-23a18.66,18.66,0,0,0,0,37.31h23a18.66,18.66,0,0,0,0-37.31ZM46.06,41.56A11.63,11.63,0,1,1,57.69,29.93,11.62,11.62,0,0,1,46.06,41.56Z"/><path class="cls-6" d="M56,14.84H36.16c-8.84,0-16.08,6.72-16.08,14.94s7.24,14.93,16.08,14.93H56c8.84,0,16.08-6.72,16.08-14.93S64.83,14.84,56,14.84ZM46.06,39.21c-5.54,0-10-4.17-10-9.31s4.48-9.31,10-9.31,10,4.17,10,9.31S51.6,39.21,46.06,39.21Z"/><rect class="cls-7" x="37.75" y="4.09" width="16.64" height="4.86" rx="2.43"/><path class="cls-8" d="M43.56,36.56a3.36,3.36,0,0,1,.28-3.9,6.39,6.39,0,0,0,.93-2.18,2.5,2.5,0,0,1,.37,1.95,5.12,5.12,0,0,0,1.07-3.71,6.4,6.4,0,0,1,2,7.8C55.35,32.43,50,26.35,49,25.7a2.2,2.2,0,0,1-.28,2.42c-1.07-4.09-3.71-4.88-3.71-4.88.32,2.09-1.12,4.37-2.51,6.08A4.36,4.36,0,0,0,42,27.1c-.09,1.53-1.25,2.73-1.57,4.26-.42,2.09.32,3.58,3.15,5.2Z"/></svg>