<?xml version="1.0" encoding="utf-8"?>
<!-- Generator: Adobe Illustrator 25.3.1, SVG Export Plug-In . SVG Version: 6.00 Build 0)  -->
<svg version="1.1" id="图层_1" xmlns="http://www.w3.org/2000/svg" xmlns:xlink="http://www.w3.org/1999/xlink" x="0px" y="0px"
	 viewBox="0 0 95 60" style="enable-background:new 0 0 95 60;" xml:space="preserve">
<style type="text/css">
	.st0{fill:#D0EAEF;}
	.st1{fill:url(#SVGID_1_);}
	.st2{fill:url(#SVGID_2_);}
	.st3{fill:url(#SVGID_3_);}
	.st4{fill:url(#SVGID_4_);}
	.st5{fill:#FFFFFF;}
	.st6{fill:#087E66;}
	.st7{fill:url(#SVGID_5_);}
	.st8{fill:#037E66;}
</style>
<path class="st0" d="M61.9,48.9c-8.5,0-15.4-6.9-15.5-15.4c0-8.5,6.9-15.4,15.4-15.5c2.8,0,5.5,0.7,7.9,2.2V6H23.9v47.8h45.8v-7
	C67.3,48.2,64.6,48.9,61.9,48.9z"/>
<linearGradient id="SVGID_1_" gradientUnits="userSpaceOnUse" x1="46.79" y1="6.07" x2="46.79" y2="57.93" gradientTransform="matrix(1 0 0 -1 0 62)">
	<stop  offset="0" style="stop-color:#2BB499"/>
	<stop  offset="1" style="stop-color:#57BDAB"/>
</linearGradient>
<path class="st1" d="M68.4,18.9c0.1,0.9,0.9,1.6,1.8,1.5c0.8-0.1,1.5-0.7,1.5-1.5V6.8c0-1.5-1.2-2.7-2.7-2.7c0,0,0,0,0,0H24.6
	c-1.5,0-2.7,1.2-2.7,2.7c0,0,0,0,0,0v46.5c0,1.5,1.2,2.7,2.7,2.7c0,0,0,0,0,0H69c1.5,0,2.7-1.2,2.7-2.7c0,0,0,0,0,0v-5.6
	c-0.1-0.9-0.9-1.6-1.8-1.5c-0.8,0.1-1.5,0.7-1.5,1.5v5H25.2V7.4h43.1V18.9z"/>
<linearGradient id="SVGID_2_" gradientUnits="userSpaceOnUse" x1="27.3" y1="43.07" x2="46.15" y2="43.07" gradientTransform="matrix(1 0 0 -1 0 62)">
	<stop  offset="0" style="stop-color:#2BB499"/>
	<stop  offset="1" style="stop-color:#57BDAB"/>
</linearGradient>
<path class="st2" d="M42.7,27c-0.6,0-1-0.4-1-1s0.4-1,1-1c0.8-0.1,1.4-0.8,1.3-1.6c-0.1-0.7-0.6-1.3-1.3-1.3H28.3c-0.6,0-1-0.4-1-1
	s0.4-1,1-1h14.4c1.9,0.1,3.4,1.7,3.2,3.6C45.9,25.5,44.5,26.9,42.7,27L42.7,27L42.7,27z M29.7,17.8c-0.6,0-1-0.4-1-1s0.4-1,1-1h11.6
	c0.8-0.1,1.4-0.8,1.3-1.6c-0.1-0.7-0.6-1.3-1.3-1.3h-3.2c-0.6,0-1-0.4-1-1s0.4-1,1-1h3.2c1.9,0,3.4,1.5,3.4,3.4s-1.5,3.4-3.4,3.4
	l0,0L29.7,17.8L29.7,17.8z"/>
<linearGradient id="SVGID_3_" gradientUnits="userSpaceOnUse" x1="33.13" y1="36" x2="39.66" y2="36" gradientTransform="matrix(1 0 0 -1 0 62)">
	<stop  offset="0" style="stop-color:#2BB499"/>
	<stop  offset="1" style="stop-color:#57BDAB"/>
</linearGradient>
<path class="st3" d="M33.9,27c-0.5-0.1-0.8-0.5-0.8-1c-0.1-0.5,0.3-0.9,0.8-1h5c0.5,0.1,0.8,0.5,0.8,1c0.1,0.5-0.3,0.9-0.8,1H33.9z"
	/>
<linearGradient id="SVGID_4_" gradientUnits="userSpaceOnUse" x1="33.13" y1="16.24" x2="33.13" y2="27.28" gradientTransform="matrix(1 0 0 -1 0 62)">
	<stop  offset="0" style="stop-color:#2BB499"/>
	<stop  offset="1" style="stop-color:#57BDAB"/>
</linearGradient>
<path class="st4" d="M33.1,45.8c-3,0-5.5-2.5-5.5-5.5c0-3,2.5-5.5,5.5-5.5s5.5,2.5,5.5,5.5S36.2,45.8,33.1,45.8L33.1,45.8z"/>
<path class="st5" d="M33.1,37.2c-1.7,0-3,1.3-3,3s1.3,3,3,3c1.7,0,3-1.3,3-3l0,0C36.1,38.6,34.8,37.2,33.1,37.2z"/>
<circle class="st5" cx="62" cy="33" r="11"/>
<path class="st6" d="M69.8,25.2c-0.3-0.3-0.8-0.3-1.1,0c0,0,0,0,0,0c-0.3,0.3-0.3,0.8,0,1.1c0,0,0,0,0,0c3.7,3.7,3.7,9.8,0,13.5
	s-9.7,3.7-13.4,0c-3.7-3.7-3.7-9.7,0-13.4l0,0c0.3-0.3,0.3-0.8,0-1.1c0,0,0,0,0,0c-0.3-0.3-0.8-0.3-1.1,0l0,0l0,0
	c-4.3,4.3-4.3,11.4,0,15.7s11.4,4.3,15.7,0C74.2,36.6,74.1,29.6,69.8,25.2L69.8,25.2z"/>
<path class="st6" d="M67.4,38.7h-0.8l-2.7-3.9v3.9H63v-5.4h0.9l2.6,3.7v-3.7h0.9L67.4,38.7z"/>
<linearGradient id="SVGID_5_" gradientUnits="userSpaceOnUse" x1="62.05" y1="30.55" x2="62.05" y2="39.5086" gradientTransform="matrix(1 0 0 -1 0 62)">
	<stop  offset="0" style="stop-color:#EE7B49"/>
	<stop  offset="1" style="stop-color:#F29970"/>
</linearGradient>
<path class="st7" d="M62,31.5c-1.2,0-2.2-1-2.2-2.2v-4.5c0-1.2,1-2.2,2.2-2.2c1.2,0,2.2,1,2.2,2.2v4.5C64.3,30.5,63.3,31.5,62,31.5z
	"/>
<path class="st5" d="M62,22.9c1,0,1.9,0.8,1.9,1.9v4.5c-0.1,1-1,1.8-2,1.7c-0.9-0.1-1.7-0.8-1.7-1.7v-4.5C60.2,23.7,61,22.9,62,22.9
	 M62,22.1c-1.4,0-2.6,1.2-2.6,2.6v4.5c0.1,1.4,1.3,2.5,2.8,2.4c1.3-0.1,2.4-1.1,2.4-2.4v-4.5C64.7,23.3,63.5,22.1,62,22.1z"/>
<path class="st8" d="M59.3,39.1c1.5,0,2.7-1.3,2.7-3s-1.2-3-2.7-3c-1.5,0-2.7,1.3-2.7,3S57.9,39.1,59.3,39.1z M59.3,33.9
	c1.1,0,1.9,1,1.9,2.1s-0.8,2.1-1.9,2.1s-1.9-1-1.9-2.1S58.3,33.9,59.3,33.9z"/>
</svg>
