<svg id="图层_1" data-name="图层 1" xmlns="http://www.w3.org/2000/svg" xmlns:xlink="http://www.w3.org/1999/xlink" viewBox="0 0 95 60"><defs><style>.cls-1{fill:url(#未命名的渐变_230);}.cls-2{fill:url(#未命名的渐变_230-2);}.cls-3{fill:url(#未命名的渐变_230-3);}.cls-4{fill:url(#未命名的渐变_230-4);}.cls-5{fill:url(#未命名的渐变_230-5);}.cls-6{fill:url(#未命名的渐变_230-6);}.cls-7{fill:url(#未命名的渐变_230-7);}.cls-8{fill:url(#未命名的渐变_363);}.cls-9{fill:#d86027;}.cls-10{fill:url(#未命名的渐变_53);}.cls-11{fill:#f5e44b;}.cls-12{fill:url(#未命名的渐变_230-8);}</style><linearGradient id="未命名的渐变_230" x1="45.67" y1="54.51" x2="45.67" y2="48.43" gradientUnits="userSpaceOnUse"><stop offset="0" stop-color="#f49f4a"/><stop offset="1" stop-color="#f7c772"/></linearGradient><linearGradient id="未命名的渐变_230-2" x1="34.45" y1="55.91" x2="34.45" y2="47.24" xlink:href="#未命名的渐变_230"/><linearGradient id="未命名的渐变_230-3" x1="57.39" y1="55.91" x2="57.39" y2="47.24" xlink:href="#未命名的渐变_230"/><linearGradient id="未命名的渐变_230-4" x1="79.06" y1="29.93" x2="66.65" y2="29.93" xlink:href="#未命名的渐变_230"/><linearGradient id="未命名的渐变_230-5" x1="40.2" y1="8.95" x2="51.99" y2="8.95" xlink:href="#未命名的渐变_230"/><linearGradient id="未命名的渐变_230-6" x1="46.1" y1="48.43" x2="46.1" y2="11.12" xlink:href="#未命名的渐变_230"/><linearGradient id="未命名的渐变_230-7" x1="46.1" y1="8.95" x2="46.1" y2="4.09" xlink:href="#未命名的渐变_230"/><linearGradient id="未命名的渐变_363" x1="46.1" y1="14.84" x2="46.1" y2="44.71" gradientUnits="userSpaceOnUse"><stop offset="0" stop-color="#fff"/><stop offset="1" stop-color="#fff" stop-opacity="0.8"/></linearGradient><linearGradient id="未命名的渐变_53" x1="46.08" y1="35.21" x2="46.08" y2="24.72" gradientUnits="userSpaceOnUse"><stop offset="0" stop-color="#ee7b49"/><stop offset="1" stop-color="#f29970"/></linearGradient><linearGradient id="未命名的渐变_230-8" x1="46.1" y1="21.53" x2="46.1" y2="41.63" xlink:href="#未命名的渐变_230"/></defs><rect class="cls-1" x="44.33" y="48.43" width="2.68" height="6.08"/><polygon class="cls-2" points="31.47 55.91 36.19 55.91 37.42 47.24 34.83 47.24 31.47 55.91"/><polygon class="cls-3" points="60.37 55.91 55.66 55.91 54.42 47.24 57.01 47.24 60.37 55.91"/><path class="cls-4" d="M76.67,19.34H69a2.38,2.38,0,0,0-2.38,2.39V38.14A2.38,2.38,0,0,0,69,40.53h7.64a2.39,2.39,0,0,0,2.39-2.39V21.73A2.39,2.39,0,0,0,76.67,19.34Zm.13,16.83A1.81,1.81,0,0,1,75,38h-5.8a1.81,1.81,0,0,1-1.82-1.81V23.7a1.81,1.81,0,0,1,1.82-1.81H75A1.81,1.81,0,0,1,76.8,23.7Z"/><rect class="cls-5" x="40.2" y="6.19" width="11.79" height="5.52"/><path class="cls-6" d="M57.6,11.12h-23a18.66,18.66,0,0,0,0,37.31h23a18.66,18.66,0,0,0,0-37.31ZM46.08,41.56A11.63,11.63,0,1,1,57.71,29.93,11.62,11.62,0,0,1,46.08,41.56Z"/><rect class="cls-7" x="37.77" y="4.09" width="16.64" height="4.86" rx="2.43"/><path class="cls-8" d="M56,14.84H36.18c-8.84,0-16.08,6.72-16.08,14.94s7.24,14.93,16.08,14.93H56c8.84,0,16.08-6.72,16.08-14.93S64.85,14.84,56,14.84ZM46.13,41.2A11.28,11.28,0,1,1,57.41,29.92,11.27,11.27,0,0,1,46.13,41.2Z"/><path class="cls-9" d="M52.36,34.09H39.8a.56.56,0,0,0-.57.54v0a.56.56,0,0,0,.57.54H52.36a.55.55,0,0,0,.56-.54v0A.55.55,0,0,0,52.36,34.09ZM46.08,23.92a.58.58,0,0,0,.57-.57V22.09a.57.57,0,0,0-.57-.56.56.56,0,0,0-.56.56v1.26A.57.57,0,0,0,46.08,23.92Zm-5.33,1.66a.56.56,0,0,0,.79-.79l-.89-.89a.57.57,0,0,0-.8,0,.57.57,0,0,0,0,.79Zm10.66,0,.9-.89a.57.57,0,0,0-.8-.8l-.89.89a.57.57,0,0,0,0,.8.56.56,0,0,0,.79,0Z"/><path class="cls-10" d="M46.08,24.72a5.34,5.34,0,0,0-5.34,5.34v5.15H51.42V30.06A5.34,5.34,0,0,0,46.08,24.72Z"/><path class="cls-11" d="M44.57,34.33H43.43V31.12a.58.58,0,0,1,.57-.57.57.57,0,0,1,.57.57Z"/><path class="cls-12" d="M54.33,21.83h0l0-.06a.83.83,0,0,0-1.18,0,.84.84,0,0,0,0,1.18l.06.05h0a9.94,9.94,0,1,1-14.08,0h0s0,0,0,0a.84.84,0,0,0,0-1.18.83.83,0,0,0-1.18,0h0a11.61,11.61,0,1,0,16.46,0Z"/></svg>