<?xml version="1.0" encoding="utf-8"?>
<!-- Generator: Adobe Illustrator 25.3.1, SVG Export Plug-In . SVG Version: 6.00 Build 0)  -->
<svg version="1.1" id="图层_1" xmlns="http://www.w3.org/2000/svg" xmlns:xlink="http://www.w3.org/1999/xlink" x="0px" y="0px"
	 viewBox="0 0 95 60" style="enable-background:new 0 0 95 60;" xml:space="preserve">
<style type="text/css">
	.st0{fill:url(#SVGID_1_);}
	.st1{fill:url(#SVGID_2_);}
	.st2{fill:url(#SVGID_3_);}
	.st3{fill:url(#SVGID_4_);}
	.st4{fill:url(#SVGID_5_);}
	.st5{fill:#FFFFFF;}
	.st6{fill:url(#SVGID_6_);}
	.st7{fill:url(#SVGID_7_);}
	.st8{fill:#697F87;}
	.st9{fill:#697F86;}
</style>
<linearGradient id="SVGID_1_" gradientUnits="userSpaceOnUse" x1="46.795" y1="8" x2="46.795" y2="55.8" gradientTransform="matrix(1 0 0 -1 0 62)">
	<stop  offset="0" style="stop-color:#C0C9CD"/>
	<stop  offset="0.15" style="stop-color:#E9ECEE"/>
	<stop  offset="1" style="stop-color:#EFF1F2"/>
</linearGradient>
<path class="st0" d="M61.9,49.1c-8.5,0-15.4-6.9-15.5-15.4c0-8.5,6.9-15.4,15.4-15.5c2.8,0,5.5,0.7,7.9,2.2V6.2H23.9V54h45.8v-7
	C67.3,48.4,64.6,49.1,61.9,49.1z"/>
<linearGradient id="SVGID_2_" gradientUnits="userSpaceOnUse" x1="46.79" y1="5.88" x2="46.79" y2="57.74" gradientTransform="matrix(1 0 0 -1 0 62)">
	<stop  offset="0" style="stop-color:#889EA9"/>
	<stop  offset="1" style="stop-color:#D7DADE"/>
</linearGradient>
<path class="st1" d="M68.4,19c0.1,0.9,0.9,1.6,1.8,1.5c0.8-0.1,1.5-0.7,1.5-1.5V6.9c0-1.5-1.2-2.7-2.7-2.7c0,0,0,0,0,0H24.6
	c-1.5,0-2.7,1.2-2.7,2.7c0,0,0,0,0,0v46.5c0,1.5,1.2,2.7,2.7,2.7c0,0,0,0,0,0H69c1.5,0,2.7-1.2,2.7-2.7v-5.6
	c-0.1-0.9-0.9-1.6-1.8-1.5c-0.8,0.1-1.5,0.7-1.5,1.5v5H25.2V7.6h43.1V19z"/>
<linearGradient id="SVGID_3_" gradientUnits="userSpaceOnUse" x1="36.6373" y1="34.82" x2="36.6373" y2="50.94" gradientTransform="matrix(1 0 0 -1 0 62)">
	<stop  offset="0" style="stop-color:#889EA9"/>
	<stop  offset="1" style="stop-color:#D7DADE"/>
</linearGradient>
<path class="st2" d="M42.7,27.2c-0.6,0-1-0.4-1-1s0.4-1,1-1c0.8,0,1.4-0.6,1.4-1.4s-0.6-1.4-1.4-1.4H28.3c-0.6,0-1-0.4-1-1
	s0.4-1,1-1h14.4c1.9,0.1,3.4,1.7,3.2,3.6C45.9,25.7,44.5,27.1,42.7,27.2L42.7,27.2L42.7,27.2z M29.7,17.9c-0.6,0-1-0.4-1-1
	s0.4-1,1-1h11.6c0.8,0,1.4-0.6,1.4-1.4c0-0.8-0.6-1.4-1.4-1.4h-3.2c-0.6,0-1-0.4-1-1s0.4-1,1-1h3.2c1.9,0,3.4,1.5,3.4,3.4
	s-1.5,3.4-3.4,3.4l0,0H29.7L29.7,17.9z"/>
<linearGradient id="SVGID_4_" gradientUnits="userSpaceOnUse" x1="36.3949" y1="34.82" x2="36.3949" y2="36.81" gradientTransform="matrix(1 0 0 -1 0 62)">
	<stop  offset="0" style="stop-color:#889EA9"/>
	<stop  offset="1" style="stop-color:#D7DADE"/>
</linearGradient>
<path class="st3" d="M33.9,27.2c-0.5-0.1-0.8-0.5-0.8-1c-0.1-0.5,0.3-0.9,0.8-1h5c0.5,0.1,0.8,0.5,0.8,1c0.1,0.5-0.3,0.9-0.8,1H33.9
	z"/>
<linearGradient id="SVGID_5_" gradientUnits="userSpaceOnUse" x1="33.13" y1="16.05" x2="33.13" y2="27.09" gradientTransform="matrix(1 0 0 -1 0 62)">
	<stop  offset="0" style="stop-color:#889EA9"/>
	<stop  offset="1" style="stop-color:#D7DADE"/>
</linearGradient>
<path class="st4" d="M33.1,46c-3,0-5.5-2.5-5.5-5.5c0-3,2.5-5.5,5.5-5.5s5.5,2.5,5.5,5.5S36.2,46,33.1,46L33.1,46z"/>
<path class="st5" d="M33.1,37.4c-1.7,0-3,1.3-3,3s1.3,3,3,3c1.7,0,3-1.3,3-3l0,0C36.1,38.7,34.8,37.4,33.1,37.4z"/>
<circle class="st5" cx="62" cy="33.2" r="11"/>
<linearGradient id="SVGID_6_" gradientUnits="userSpaceOnUse" x1="61.9825" y1="17.6373" x2="61.9825" y2="36.8473" gradientTransform="matrix(1 0 0 -1 0 62)">
	<stop  offset="0" style="stop-color:#889EA9"/>
	<stop  offset="1" style="stop-color:#D7DADE"/>
</linearGradient>
<path class="st6" d="M69.8,25.4c-0.3-0.3-0.8-0.3-1.1,0.1c-0.3,0.3-0.3,0.8,0,1.1c0,0,0,0,0,0c3.7,3.7,3.7,9.8,0,13.5
	c-3.7,3.7-9.7,3.7-13.4,0c-3.7-3.7-3.7-9.7,0-13.4l0,0c0.3-0.3,0.3-0.8,0-1.1c0,0,0,0,0,0c-0.3-0.3-0.8-0.3-1.1,0l0,0
	c-4.3,4.3-4.3,11.4,0,15.7s11.4,4.3,15.7,0C74.2,36.8,74.2,29.7,69.8,25.4L69.8,25.4z"/>
<linearGradient id="SVGID_7_" gradientUnits="userSpaceOnUse" x1="62.05" y1="30.37" x2="62.05" y2="39.3186" gradientTransform="matrix(1 0 0 -1 0 62)">
	<stop  offset="0" style="stop-color:#EE7B49"/>
	<stop  offset="1" style="stop-color:#F29970"/>
</linearGradient>
<path class="st7" d="M62,31.6c-1.2,0-2.2-1-2.2-2.2v-4.5c0-1.2,1-2.2,2.2-2.2c1.2,0,2.2,1,2.2,2.2v4.5C64.3,30.6,63.3,31.6,62,31.6z
	"/>
<path class="st5" d="M62,23c1,0,1.9,0.8,1.9,1.9v4.5c0.1,1-0.7,1.9-1.7,2c-1,0.1-1.9-0.7-2-1.7c0-0.1,0-0.2,0-0.3v-4.5
	C60.2,23.9,61,23.1,62,23 M62,22.3c-1.4,0-2.6,1.2-2.6,2.6c0,0,0,0,0,0v4.5c-0.1,1.4,1,2.7,2.4,2.8c1.4,0.1,2.7-1,2.8-2.4
	c0-0.1,0-0.2,0-0.3v-4.5C64.7,23.5,63.5,22.3,62,22.3C62.1,22.3,62.1,22.3,62,22.3z"/>
<path class="st8" d="M64.6,33.9h-2.4v1.6h2.2v0.9h-2.2v2.5h-1V33h3.4L64.6,33.9z"/>
<path class="st8" d="M69,33.9h-2.4v1.6h2.2v0.9h-2.2v2.5h-1V33H69V33.9z"/>
<path class="st9" d="M57.3,38.9c1.5,0,2.7-1.3,2.7-3c0-1.7-1.2-3-2.7-3c-1.5,0-2.7,1.3-2.7,3C54.7,37.6,55.9,38.9,57.3,38.9z
	 M57.3,33.7c1.1,0,1.9,1,1.9,2.1c0,1.2-0.8,2.1-1.9,2.1c-1.1,0-1.9-1-1.9-2.1C55.4,34.7,56.3,33.7,57.3,33.7z"/>
</svg>
